<?xml version="1.0" encoding="UTF-8" standalone="no"?>
<!-- Created with Inkscape (http://www.inkscape.org/) -->

<svg
   version="1.1"
   id="svg2"
   width="549.48718"
   height="414.7905"
   viewBox="0 0 549.48719 414.79049"
   sodipodi:docname="198566580_5d7a959f-ca55-45e6-9376-f847c1a55f74.eps"
   xml:space="preserve"
   xmlns:inkscape="http://www.inkscape.org/namespaces/inkscape"
   xmlns:sodipodi="http://sodipodi.sourceforge.net/DTD/sodipodi-0.dtd"
   xmlns="http://www.w3.org/2000/svg"
   xmlns:svg="http://www.w3.org/2000/svg"><defs
     id="defs6" /><sodipodi:namedview
     id="namedview4"
     pagecolor="#ffffff"
     bordercolor="#000000"
     borderopacity="0.25"
     inkscape:showpageshadow="2"
     inkscape:pageopacity="0.0"
     inkscape:pagecheckerboard="0"
     inkscape:deskcolor="#d1d1d1"
     showgrid="false" /><g
     id="g10"
     inkscape:groupmode="layer"
     inkscape:label="Page 1"
     transform="matrix(1.3333333,0,0,-1.3333333,-1110.915,1454.44)"><path
       d="m 1022.8281,985.19991 c -0.312,-0.39 -0.61,-0.81 -0.893,-1.25 0.301,0.42 0.594,0.83 0.893,1.25"
       style="fill:#040606;fill-opacity:1;fill-rule:nonzero;stroke:none;stroke-width:0.1"
       id="path18" /><path
       d="m 1136.3,1090.6 c -0.13,0.1 -0.28,0.17 -0.43,0.23 0.14,-0.08 0.29,-0.16 0.43,-0.23"
       style="fill:#040606;fill-opacity:1;fill-rule:nonzero;stroke:none;stroke-width:0.1"
       id="path22" /><path
       style="fill:#4b616e;fill-opacity:1;stroke-width:1.41494"
       d="m 969.15036,780.74318 c -5.036,1.54184 -9.0452,5.10284 -11.8487,10.52411 -3.1515,6.09434 -1.7289,33.82751 2.3205,45.23929 9.3464,26.33911 31.5569,47.08109 57.70804,53.89258 10.5123,2.73811 32.9065,2.71137 43.5156,-0.0519 18.9427,-4.93395 36.9797,-17.81037 47.4418,-33.86812 9.6333,-14.78588 12.9733,-25.58551 13.8216,-44.69182 0.8225,-18.52416 -0.4312,-22.74238 -8.4615,-28.47006 l -4.6199,-3.29519 -67.9171,-0.25836 c -37.3545,-0.1421 -69.73664,0.29868 -71.96034,0.9795 z m 136.96724,30.40754 c -0.1057,20.46342 -3.8354,30.14543 -17.1549,44.53169 -21.1991,22.89699 -51.8036,28.63786 -80.3957,15.08081 -16.20334,-7.68286 -30.01064,-24.07422 -35.23464,-41.82882 -2.253,-7.65721 -3.1819,-31.24829 -1.3043,-33.12589 0.5263,-0.52634 30.92994,-0.79164 67.56344,-0.58956 l 66.6064,0.36743 -0.08,15.56434 z m -261.97615,20.1629 c -2.47122,1.36188 -5.96327,4.37313 -7.76008,6.69168 -2.93066,3.78157 -3.25868,5.67512 -3.18648,18.39422 0.10004,17.63338 2.2041,26.62111 9.61258,41.06256 14.20024,27.6807 42.11909,44.52879 73.78839,44.52879 20.7021,0 37.0483,-5.73037 52.8742,-18.53572 8.0507,-6.51413 21.4102,-23.05499 21.4102,-26.50875 0,-1.49038 -11.1931,-9.39181 -11.9417,-8.42985 -0.1951,0.25075 -2.9362,4.3063 -6.0914,9.01238 -7.0401,10.50058 -15.6363,17.7068 -28.2482,23.68058 -9.2933,4.40192 -10.2153,4.55137 -28.0765,4.55137 h -18.4676 l -10.9844,-5.42879 c -13.9224,-6.88082 -24.36255,-17.13675 -31.04794,-30.50008 -6.105,-12.20317 -8.32272,-22.20331 -7.76569,-35.01707 l 0.42191,-9.70565 47.19072,-0.37299 c 39.4715,-0.31197 47.068,-0.69293 46.4402,-2.32887 -0.4127,-1.07574 -1.5334,-4.56904 -2.4903,-7.76291 l -1.7399,-5.80705 h -44.7224 c -39.93787,0 -45.20316,0.26491 -49.21561,2.47615 z m 293.53635,4.38108 c -1.3605,3.83048 -2.4736,7.3566 -2.4736,7.83581 0,0.47923 20.9437,0.87131 46.5416,0.87131 52.8734,0 48.2594,-1.26783 48.2594,13.26038 0,26.75212 -15.0897,50.80374 -39.4168,62.82683 -10.6666,5.27172 -10.6673,5.27185 -29.1345,5.27185 -18.3852,0 -18.5169,-0.0235 -29.5377,-5.26216 -12.1552,-5.77798 -25.3561,-17.77271 -29.7497,-27.03156 -1.3577,-2.86121 -2.7707,-5.2022 -3.14,-5.2022 -1.8296,0 -11.9275,7.65796 -11.9089,9.03141 0.04,2.93027 13.6911,20.13589 19.9487,25.14216 17.056,13.64534 33.3785,19.60834 53.5784,19.57324 33.6555,-0.058 61.6487,-17.37447 76.0687,-47.05461 4.9618,-10.21278 7.2209,-19.41832 8.3206,-33.90622 1.1247,-14.81648 -1.2276,-22.74429 -8.3293,-28.07216 l -4.5771,-3.43384 -45.9881,-0.40738 -45.9882,-0.40738 z m -116.8011,75.29142 c -18.5554,9.27224 -26.76404,28.42486 -20.8709,48.69669 3.3501,11.5238 14.9274,23.1307 26.7478,26.8161 15.7103,4.8981 31.225,0.4925 42.5249,-12.0758 8.1102,-9.0205 11.3413,-18.44404 10.3895,-30.30114 -2.3295,-29.02058 -32.7337,-46.15697 -58.7913,-33.13585 z m 30.6831,13.72879 c 6.9365,3.26881 12.8974,13.32001 12.8974,21.74746 0,8.2878 -1.8823,13.46604 -6.811,18.73744 -9.5968,10.264 -25.9351,10.7846 -36.1173,1.1506 -5.8704,-5.5542 -8.0096,-10.53374 -8.0096,-18.64404 0,-20.35671 19.1153,-31.90991 38.0405,-22.99146 z m -143.17764,31.65616 c -14.8653,2.88094 -27.482,15.19454 -31.4538,30.69814 -4.7549,18.56019 4.8986,38.32279 23,47.08559 9.003,4.3582 23.9516,4.3399 33.1693,-0.041 15.0769,-7.1653 24.2395,-21.3805 24.2395,-37.60609 0,-25.9835 -23.3219,-45.10454 -48.955,-40.13684 z m 20.7775,17.51164 c 16.0383,7.6107 17.5962,32.20109 2.7538,43.46739 -6.406,4.8626 -13.4732,6.2252 -21.3545,4.1173 -19.27,-5.1539 -26.0911,-26.33319 -13.3555,-41.46859 7.8834,-9.3688 20.153,-11.7171 31.9562,-6.1161 z m 225.14624,-17.78184 c -22.175,3.80474 -37.6599,26.45874 -33.1231,48.45843 6.3567,30.825 43.4084,43.4568 66.5194,22.678 14.7228,-13.2371 18.6421,-31.69569 10.4122,-49.03879 -7.2048,-15.1829 -26.7244,-25.02894 -43.8085,-22.09764 z m 14.8697,15.62584 c 9.9136,2.7543 18.414,14.5664 18.3424,25.4887 -0.034,5.12799 -4.6306,14.27779 -9.3335,18.57729 -12.2951,11.2404 -32.7371,7.3486 -39.979,-7.6112 -5.0454,-10.42229 -3.7188,-19.46469 4.1705,-28.42739 7.3971,-8.4035 16.0821,-11.0049 26.7996,-8.0274 z"
       id="path379"
       sodipodi:nodetypes="sssssssscssscssssscccssssssssssscssscssscssssssssssscscssscccsssssssssssssssscsssssssssssssscssss" /></g></svg>
