<?xml version="1.0" encoding="UTF-8" standalone="no"?>
<!-- Created with Inkscape (http://www.inkscape.org/) -->

<svg
   version="1.1"
   id="svg719"
   width="4946.6665"
   height="4946.6665"
   viewBox="0 0 4946.6665 4946.6665"
   sodipodi:docname="12085239_20944045.eps"
   xmlns:inkscape="http://www.inkscape.org/namespaces/inkscape"
   xmlns:sodipodi="http://sodipodi.sourceforge.net/DTD/sodipodi-0.dtd"
   xmlns="http://www.w3.org/2000/svg"
   xmlns:svg="http://www.w3.org/2000/svg">
  <defs
     id="defs723">
    <clipPath
       clipPathUnits="userSpaceOnUse"
       id="clipPath739">
      <path
         d="m 19089.9,4588.1 c -1679.5,0 -2962.5,234 -3474.2,337.5 -1855.8,375.6 -5443,1101.5 -8036.47,4140.3 -2351.27,2755 -3074.13,6460.3 -2621,10016.3 72.21,-382.2 155.91,-768.9 252.32,-1160.3 1843.28,-7483.3 7859.95,-11476.8 7859.95,-11476.8 0,0 995.3,3059.1 -802.3,7137.6 -44.7,101.4 -91.2,206.3 -139.4,314.9 2126,2257.8 1539.4,7477.2 -318.8,11060.1 -652.8,1258.7 -1005.9,2998.1 -1196.9,4537.4 1508.7,1231.1 3547.5,2358.3 6171.2,2700 593.2,77.3 1203.1,116.3 1820.8,116.3 3148.7,0 6513.5,-1013.4 9066.2,-3144.2 6409.5,-5350.4 5953.2,-16159 1643.6,-20679.5 C 28746.2,7891.2 28208.1,7506.5 27783,7202.5 24820.4,5084.6 21535.2,4588.1 19089.9,4588.1 M 7665.48,24441.9 c -142.36,393 -278.75,782.3 -407.13,1164.3 17.12,27.3 34.36,54.6 51.64,81.7 133.5,209.7 404.17,648.4 820.86,1204.8 -216.38,-868.9 -368.5,-1685.2 -465.37,-2450.8"
         id="path737" />
    </clipPath>
    <linearGradient
       x1="0"
       y1="0"
       x2="1"
       y2="0"
       gradientUnits="userSpaceOnUse"
       gradientTransform="matrix(-24704.1,30680.9,30680.9,24704.1,36088.4,-3627.5)"
       spreadMethod="pad"
       id="linearGradient745">
      <stop
         style="stop-opacity:1;stop-color:#dae3fe"
         offset="0"
         id="stop741" />
      <stop
         style="stop-opacity:1;stop-color:#e9effd"
         offset="1"
         id="stop743" />
    </linearGradient>
    <clipPath
       clipPathUnits="userSpaceOnUse"
       id="clipPath757">
      <path
         d="m 13070.5,6445.1 c 0,0 -6016.67,3993.5 -7859.95,11476.8 -96.41,391.4 -180.11,778.1 -252.32,1160.3 168.46,1322 499.55,2623.6 969.84,3847.9 64.42,-506 152.45,-1008 265,-1503 40.12,-215.9 101.97,-425.1 156.05,-636.7 57.35,-210.6 105.59,-424.5 175.36,-630.6 l 195.84,-623.2 c 30.42,-104.8 71.39,-205.2 108.51,-307.2 l 113.48,-305.1 113.51,-305.1 57.22,-152.4 63.89,-149.1 255.61,-596.5 c 43.33,-98.9 83.62,-199.9 129.46,-297.2 l 137.08,-292.1 274.17,-584.4 c 372.19,-775.3 749.72,-1547.8 1145.47,-2309.3 195.08,-382.4 396.02,-761.1 595.07,-1141 l 608.61,-1132 c 406.5,-753.9 813.9,-1506.8 1196.6,-2272.8 98.3,-190.3 187.2,-385.2 279.3,-578.7 47.3,-96.2 88,-195.4 131,-293.7 42,-98.7 86.7,-196.3 126.5,-296 75.6,-201.1 158.5,-399.7 220.3,-606.5 72.8,-203 120.3,-414.3 174.4,-624.1 l 0.4,-1.4 c 2.9,-11.2 12.4,-18.3 22.9,-18.3 2.5,0 4.9,0.3 7.4,1.1 12.7,4.1 20.4,17.8 17.9,31.1 -83.3,431 -210.6,849.4 -362.4,1255.9 -37.7,101.6 -80.3,201 -120.2,301.6 -40.9,100.2 -79.7,201.6 -124.8,299.4 -87.9,197 -172.8,396 -266.8,589.5 -367.7,779.1 -769.5,1536.9 -1164.1,2298 l -592.55,1141.1 c -196.3,380.8 -394.79,760.4 -587.12,1143.5 -388.67,763.9 -765.7,1534.3 -1136.72,2308.1 l -273.15,583.1 -136.59,291.6 c -45.64,97.1 -86.29,196.2 -129.7,294.2 l -256.58,589.7 -64.16,147.4 -57.48,150.6 -114.07,301.6 c -314.21,800 -562.77,1629.1 -769.74,2470 -138.92,554.8 -246.5,1119.6 -324.03,1690.1 346.43,862.4 762.33,1684.1 1239.44,2444.9 128.38,-382 264.77,-771.3 407.13,-1164.3 -1046.3,-8269.7 4333.32,-10675.4 4333.32,-10675.4 44.4,42.5 87.8,86.2 130,131.1 48.2,-108.6 94.7,-213.5 139.4,-314.9 1797.6,-4078.5 802.3,-7137.6 802.3,-7137.6"
         id="path755" />
    </clipPath>
    <linearGradient
       x1="0"
       y1="0"
       x2="1"
       y2="0"
       gradientUnits="userSpaceOnUse"
       gradientTransform="matrix(-24704.1,30680.9,30680.9,24704.1,36088.4,-3627.5)"
       spreadMethod="pad"
       id="linearGradient763">
      <stop
         style="stop-opacity:1;stop-color:#c2d3fc"
         offset="0"
         id="stop759" />
      <stop
         style="stop-opacity:1;stop-color:#c5d6fb"
         offset="1"
         id="stop761" />
    </linearGradient>
    <clipPath
       clipPathUnits="userSpaceOnUse"
       id="clipPath775">
      <path
         d="m 12473.8,7273.7 c -10.5,0 -20,7.1 -22.9,18.3 l -0.4,1.4 c -54.1,209.8 -101.6,421.1 -174.4,624.1 -61.8,206.8 -144.7,405.4 -220.3,606.5 -39.8,99.7 -84.5,197.3 -126.5,296 -43,98.3 -83.7,197.5 -131,293.7 -92.1,193.5 -181,388.4 -279.3,578.7 -382.7,766 -790.1,1518.9 -1196.6,2272.8 l -608.61,1132 c -199.05,379.9 -399.99,758.6 -595.07,1141 -395.75,761.5 -773.28,1534 -1145.47,2309.3 L 7699.08,17131.9 7562,17424 c -45.84,97.3 -86.13,198.3 -129.46,297.2 l -255.61,596.5 -63.89,149.1 -57.22,152.4 -113.51,305.1 -113.48,305.1 c -37.12,102 -78.09,202.4 -108.51,307.2 l -195.84,623.2 c -69.77,206.1 -118.01,420 -175.36,630.6 -54.08,211.6 -115.93,420.8 -156.05,636.7 -112.55,495 -200.58,997 -265,1503 29.77,77.5 59.97,154.4 90.84,231.2 77.53,-570.5 185.11,-1135.3 324.03,-1690.1 206.97,-840.9 455.53,-1670 769.74,-2470 l 114.07,-301.6 57.48,-150.6 64.16,-147.4 256.58,-589.7 c 43.41,-98 84.06,-197.1 129.7,-294.2 l 136.59,-291.6 273.15,-583.1 c 371.02,-773.8 748.05,-1544.2 1136.72,-2308.1 192.33,-383.1 390.82,-762.7 587.12,-1143.5 l 592.55,-1141.1 c 394.6,-761.1 796.4,-1518.9 1164.1,-2298 94,-193.5 178.9,-392.5 266.8,-589.5 45.1,-97.8 83.9,-199.2 124.8,-299.4 39.9,-100.6 82.5,-200 120.2,-301.6 151.8,-406.5 279.1,-824.9 362.4,-1255.9 2.5,-13.3 -5.2,-27 -17.9,-31.1 -2.5,-0.8 -4.9,-1.1 -7.4,-1.1"
         id="path773" />
    </clipPath>
    <linearGradient
       x1="0"
       y1="0"
       x2="1"
       y2="0"
       gradientUnits="userSpaceOnUse"
       gradientTransform="matrix(-24704.1,30680.9,30680.9,24704.1,36088.4,-3627.5)"
       spreadMethod="pad"
       id="linearGradient781">
      <stop
         style="stop-opacity:1;stop-color:#e3eafd"
         offset="0"
         id="stop777" />
      <stop
         style="stop-opacity:1;stop-color:#e6edfd"
         offset="1"
         id="stop779" />
    </linearGradient>
    <clipPath
       clipPathUnits="userSpaceOnUse"
       id="clipPath793">
      <path
         d="m 12128.8,13897.6 c -1094.3,2461 -3074,6709.1 -4463.32,10544.3 96.87,765.6 248.99,1581.9 465.37,2450.8 420.09,560.9 988.49,1241.3 1714.75,1927.7 -3.21,-90.2 -6.18,-180.5 -8.93,-270.8 -18.57,-638.4 -21.51,-1276.7 -14.97,-1914.6 5.99,-637.9 27.58,-1275.1 61.54,-1911.2 l 12.34,-238.5 15.33,-238.3 c 10.85,-158.8 18.96,-317.9 32.35,-476.4 l 37.08,-475.8 43.86,-475 c 123.3,-1265.7 309.3,-2523.6 579.5,-3759.3 8.5,-38.6 16.3,-77.4 25.2,-115.9 l 27.7,-115.2 55.3,-230.3 55.4,-230.4 c 19.3,-76.4 40.6,-152.3 60.9,-228.6 l 61.4,-228.4 c 21.1,-75.9 39.5,-152.7 63.2,-227.8 l 136.1,-452.2 c 192.2,-598.8 409.6,-1188.1 665.2,-1757.8 2.4,-5.4 7.4,-8.4 12.7,-8.4 2.2,0 4.5,0.5 6.7,1.6 7.1,3.8 10.3,12.8 7.1,20.4 v 0.1 c -242.1,575.2 -452,1165.3 -634.4,1765.6 l -131.4,452.3 c -22.9,75 -40.5,151.8 -60.8,227.8 l -59.1,228.3 c -19.4,76.2 -40,152.1 -58.5,228.5 l -53,230.3 -53,230.2 -26.5,115.1 c -8.6,38.4 -16,77.2 -24,115.8 l -95.5,463.3 c -31,154.7 -57.8,310.4 -86.9,465.6 -14.1,77.7 -29.1,155.1 -42.4,233 l -38,234 -38,234.1 c -13,77.9 -25.4,156 -36.1,234.4 -94.8,625.6 -166.1,1255.7 -231.3,1886.4 -125.94,1262.6 -190.53,2533.6 -216.92,3806.5 -12.2,636.6 -12.63,1273.9 -1.65,1911.3 1.72,107 3.76,213.9 6.14,320.8 223.33,208.9 461.03,418 713.83,624.2 191,-1539.3 544.1,-3278.7 1196.9,-4537.4 1858.2,-3582.9 2444.8,-8802.3 318.8,-11060.1"
         id="path791" />
    </clipPath>
    <linearGradient
       x1="0"
       y1="0"
       x2="1"
       y2="0"
       gradientUnits="userSpaceOnUse"
       gradientTransform="matrix(-24704.1,30680.9,30680.9,24704.1,36088.4,-3627.5)"
       spreadMethod="pad"
       id="linearGradient799">
      <stop
         style="stop-opacity:1;stop-color:#9dbbfb"
         offset="0"
         id="stop795" />
      <stop
         style="stop-opacity:1;stop-color:#a0bdfb"
         offset="1"
         id="stop797" />
    </linearGradient>
    <clipPath
       clipPathUnits="userSpaceOnUse"
       id="clipPath809">
      <path
         d="m 11998.8,13766.5 c 0,0 -5379.62,2405.7 -4333.32,10675.4 1389.32,-3835.2 3369.02,-8083.3 4463.32,-10544.3 -42.2,-44.9 -85.6,-88.6 -130,-131.1"
         id="path807" />
    </clipPath>
    <linearGradient
       x1="0"
       y1="0"
       x2="1"
       y2="0"
       gradientUnits="userSpaceOnUse"
       gradientTransform="matrix(-24704.1,30680.9,30680.9,24704.1,36088.4,-3627.5)"
       spreadMethod="pad"
       id="linearGradient815">
      <stop
         style="stop-opacity:1;stop-color:#99b8fa"
         offset="0"
         id="stop811" />
      <stop
         style="stop-opacity:1;stop-color:#9ab9fa"
         offset="1"
         id="stop813" />
    </linearGradient>
    <clipPath
       clipPathUnits="userSpaceOnUse"
       id="clipPath827">
      <path
         d="m 11766.8,15465.5 c -5.3,0 -10.3,3 -12.7,8.4 -255.6,569.7 -473,1159 -665.2,1757.8 l -136.1,452.2 c -23.7,75.1 -42.1,151.9 -63.2,227.8 l -61.4,228.4 c -20.3,76.3 -41.6,152.2 -60.9,228.6 l -55.4,230.4 -55.3,230.3 -27.7,115.2 c -8.9,38.5 -16.7,77.3 -25.2,115.9 -270.2,1235.7 -456.2,2493.6 -579.5,3759.3 l -43.86,475 -37.08,475.8 c -13.39,158.5 -21.5,317.6 -32.35,476.4 l -15.33,238.3 -12.34,238.5 c -33.96,636.1 -55.55,1273.3 -61.54,1911.2 -6.54,637.9 -3.6,1276.2 14.97,1914.6 2.75,90.3 5.72,180.6 8.93,270.8 17.78,16.8 35.7,33.7 53.67,50.5 -2.38,-106.9 -4.42,-213.8 -6.14,-320.8 -10.98,-637.4 -10.55,-1274.7 1.65,-1911.3 26.39,-1272.9 90.98,-2543.9 216.92,-3806.5 65.2,-630.7 136.5,-1260.8 231.3,-1886.4 10.7,-78.4 23.1,-156.5 36.1,-234.4 l 38,-234.1 38,-234 c 13.3,-77.9 28.3,-155.3 42.4,-233 29.1,-155.2 55.9,-310.9 86.9,-465.6 l 95.5,-463.3 c 8,-38.6 15.4,-77.4 24,-115.8 l 26.5,-115.1 53,-230.2 53,-230.3 c 18.5,-76.4 39.1,-152.3 58.5,-228.5 l 59.1,-228.3 c 20.3,-76 37.9,-152.8 60.8,-227.8 l 131.4,-452.3 c 182.4,-600.3 392.3,-1190.4 634.4,-1765.6 v -0.1 c 3.2,-7.6 0,-16.6 -7.1,-20.4 -2.2,-1.1 -4.5,-1.6 -6.7,-1.6"
         id="path825" />
    </clipPath>
    <linearGradient
       x1="0"
       y1="0"
       x2="1"
       y2="0"
       gradientUnits="userSpaceOnUse"
       gradientTransform="matrix(-24704.1,30680.9,30680.9,24704.1,36088.4,-3627.5)"
       spreadMethod="pad"
       id="linearGradient833">
      <stop
         style="stop-opacity:1;stop-color:#d4e1fd"
         offset="0"
         id="stop829" />
      <stop
         style="stop-opacity:1;stop-color:#d7e3fd"
         offset="1"
         id="stop831" />
    </linearGradient>
    <clipPath
       clipPathUnits="userSpaceOnUse"
       id="clipPath845">
      <path
         d="m 25020.6,5696.3 h -3110.3 v 3352.1 c 0,335.5 -342.4,558.9 -651.5,428.5 -337.8,-142.5 -796.6,-278.2 -1352.4,-303.7 -1245,-57 -2192.8,969 -2003.9,2393.9 188.9,1425 1400.9,1767 1991.8,1596 308.6,-89.3 844.4,-431.6 1286.1,-738.4 308.3,-214.2 729.9,6.7 729.9,382.2 v 3833 h 3551.9 c 253.3,0 421.7,-260.3 319.9,-492.3 -321.4,-732.1 -739.9,-2065.2 243.2,-2471.5 1379.1,-570 2952.7,-114 3066.7,911.9 62.4,562 -195,1123.9 -440.6,1517.2 -145.3,232.9 19.4,534.7 293.9,534.7 h 3423.9 c 0,0 81.6,-6942.6 79.1,-7359.8 l -17.8,-2982.6 c -2,-332.6 -272.2,-601.2 -604.8,-601.2 h -2430 c -397.3,0 -3996.7,0 -4375.1,0 z"
         id="path843" />
    </clipPath>
    <linearGradient
       x1="0"
       y1="0"
       x2="1"
       y2="0"
       gradientUnits="userSpaceOnUse"
       gradientTransform="matrix(19267.2,17989.8,17989.8,-19267.2,17872.7,2657.9)"
       spreadMethod="pad"
       id="linearGradient851">
      <stop
         style="stop-opacity:1;stop-color:#4f52ff"
         offset="0"
         id="stop847" />
      <stop
         style="stop-opacity:1;stop-color:#4042e2"
         offset="1"
         id="stop849" />
    </linearGradient>
    <clipPath
       clipPathUnits="userSpaceOnUse"
       id="clipPath861">
      <path
         d="m 15106.2,5678.7 h -2607.7 c -411,0 -744.3,333.2 -744.3,744.3 v 2466.2 c 0,363.6 7.3,3740.3 7.3,4110.1 v 3726.1 h 3440.2 c 283.5,0 449.9,322.4 282.2,551.1 -805.2,1098.2 -102.6,2661.3 498.6,2925.8 712.5,313.5 2165.9,399 2593.4,-1197 222.6,-831.2 18.4,-1438.2 -228.5,-1829.1 -147.1,-232.9 15.7,-536.3 291.1,-536.3 h 3271.8 v -3833 c 0,-375.5 -421.6,-596.4 -729.9,-382.2 -441.7,306.8 -977.5,649.1 -1286.1,738.4 -590.9,171 -1802.9,-171 -1991.8,-1596 -188.9,-1424.9 758.9,-2450.9 2003.9,-2393.9 555.8,25.5 1014.6,161.2 1352.4,303.7 309.1,130.4 651.5,-93 651.5,-428.5 V 5696.3 h -3049.1 c -391.1,0 -3346.5,-17.6 -3755,-17.6 z"
         id="path859" />
    </clipPath>
    <linearGradient
       x1="0"
       y1="0"
       x2="1"
       y2="0"
       gradientUnits="userSpaceOnUse"
       gradientTransform="matrix(-5857.39,-11916.8,-11916.8,5857.39,21049.5,19783.4)"
       spreadMethod="pad"
       id="linearGradient867">
      <stop
         style="stop-opacity:1;stop-color:#ff928e"
         offset="0"
         id="stop863" />
      <stop
         style="stop-opacity:1;stop-color:#fe7062"
         offset="1"
         id="stop865" />
    </linearGradient>
    <clipPath
       clipPathUnits="userSpaceOnUse"
       id="clipPath877">
      <path
         d="m 15453.1,24368.8 c 0,0 -2451,-2608 -4794.8,-2750.8 0,0 196,-1323.2 504.5,-1529.9 0,0 3189.6,1762.2 4322.2,3836.8 z"
         id="path875" />
    </clipPath>
    <linearGradient
       x1="0"
       y1="0"
       x2="1"
       y2="0"
       gradientUnits="userSpaceOnUse"
       gradientTransform="matrix(-4301.82,-4039.04,4039.04,-4301.82,13780.3,23237.6)"
       spreadMethod="pad"
       id="linearGradient883">
      <stop
         style="stop-opacity:1;stop-color:#febbba"
         offset="0"
         id="stop879" />
      <stop
         style="stop-opacity:1;stop-color:#ff928e"
         offset="1"
         id="stop881" />
    </linearGradient>
    <clipPath
       clipPathUnits="userSpaceOnUse"
       id="clipPath893">
      <path
         d="m 18891.3,20728.9 c 221.8,351.3 405.4,896.8 205.3,1643.8 -384.1,1434.2 -1690.3,1357.4 -2330.6,1075.6 -540.2,-237.7 -1171.6,-1642.3 -448,-2629.2 150.7,-205.5 1.2,-495.2 -253.6,-495.2 h -3091.5 l -96.1,9992.3 c -1.9,198.7 159.6,360.3 358.3,358.5 l 8506.2,-77.6 c 214.7,-1.9 387.8,-176.6 387.8,-391.3 v -2754.6 c 0,-348 401.5,-544.8 674.6,-329.3 233.2,184 525.9,329.7 877.1,347.2 1024.5,51.3 1997.6,-717.1 2100.1,-1741.4 102.4,-1024.5 -870.8,-2100.1 -1843.9,-1946.4 -461.5,72.8 -900,257.5 -1233.4,431.6 -278.3,145.3 -610.6,-56.6 -610.6,-370.5 V 20247 h -2940.2 c -247.5,0 -393.7,272.7 -261.5,481.9 z"
         id="path891" />
    </clipPath>
    <linearGradient
       x1="0"
       y1="0"
       x2="1"
       y2="0"
       gradientUnits="userSpaceOnUse"
       gradientTransform="matrix(16334.3,23305,23305,-16334.3,12441.5,17898.6)"
       spreadMethod="pad"
       id="linearGradient899">
      <stop
         style="stop-opacity:1;stop-color:#4f52ff"
         offset="0"
         id="stop895" />
      <stop
         style="stop-opacity:1;stop-color:#4042e2"
         offset="1"
         id="stop897" />
    </linearGradient>
    <clipPath
       clipPathUnits="userSpaceOnUse"
       id="clipPath909">
      <path
         d="m 9600.62,24482.3 c 0,0 -433.26,-210.7 -512.92,-452.8 -63.92,-194.3 -542.99,-219.3 -590.32,-601.3 -24.43,-197.3 -170.4,-355.2 -366.85,-385.3 -489.29,-75 -1243.33,-329.1 -1363.98,-1178.6 -92.08,-648.5 238.47,-894.3 585.38,-979.4 254.8,-62.5 424.12,-310.4 372.59,-567.6 -49.43,-246.7 24.28,-532 451.73,-757.5 957.88,-505.5 1914.45,1197.4 1914.45,1197.4 l 196.1,2973.3 z"
         id="path907" />
    </clipPath>
    <linearGradient
       x1="0"
       y1="0"
       x2="1"
       y2="0"
       gradientUnits="userSpaceOnUse"
       gradientTransform="matrix(-1285.16,-3223.8,3223.8,-1285.16,10362.6,26216.5)"
       spreadMethod="pad"
       id="linearGradient915">
      <stop
         style="stop-opacity:1;stop-color:#09005d"
         offset="0"
         id="stop911" />
      <stop
         style="stop-opacity:1;stop-color:#1a0f91"
         offset="1"
         id="stop913" />
    </linearGradient>
    <clipPath
       clipPathUnits="userSpaceOnUse"
       id="clipPath925">
      <path
         d="m 5663.33,5838.7 -61.98,-509.6 c -11.76,-96.6 -87.87,-173.1 -184.62,-184.1 -163.36,-18.7 -425.49,-37.8 -681.97,-10.7 -112.59,11.9 -185.67,125.9 -151.38,233.8 62.53,196.7 176.91,492 341.83,665.8 h 565.27 c 104.51,0 185.48,-91.5 172.85,-195.2 z"
         id="path923" />
    </clipPath>
    <linearGradient
       x1="0"
       y1="0"
       x2="1"
       y2="0"
       gradientUnits="userSpaceOnUse"
       gradientTransform="matrix(-1089.77,0,0,-1089.77,5664.63,5577.3)"
       spreadMethod="pad"
       id="linearGradient931">
      <stop
         style="stop-opacity:1;stop-color:#09005d"
         offset="0"
         id="stop927" />
      <stop
         style="stop-opacity:1;stop-color:#1a0f91"
         offset="1"
         id="stop929" />
    </linearGradient>
    <clipPath
       clipPathUnits="userSpaceOnUse"
       id="clipPath941">
      <path
         d="m 10090.7,11807.9 95.4,-561.2 c 0,0 -319.46,-3236.3 -376.3,-4530.8 -8.92,-203 43.59,-403.6 150.12,-576.5 l 555.58,-902.2 -1411.97,833.2 -28.12,172.3 231.15,317.8 -302.76,3625.4 c -17.78,213 26.16,426.6 126.59,615.3 l 292.04,548.6 z"
         id="path939" />
    </clipPath>
    <linearGradient
       x1="0"
       y1="0"
       x2="1"
       y2="0"
       gradientUnits="userSpaceOnUse"
       gradientTransform="matrix(-1568.26,18329,-18329,-1568.26,10269.5,1279.9)"
       spreadMethod="pad"
       id="linearGradient947">
      <stop
         style="stop-opacity:1;stop-color:#febbba"
         offset="0"
         id="stop943" />
      <stop
         style="stop-opacity:1;stop-color:#ff928e"
         offset="1"
         id="stop945" />
    </linearGradient>
    <clipPath
       clipPathUnits="userSpaceOnUse"
       id="clipPath957">
      <path
         d="m 10608.5,5106.5 h -450.6 c -84.4,0 -163.9,38.7 -215.34,105.5 -140.47,182.6 -431.5,538.7 -570.66,548 -187.33,12.5 -163.36,-653.5 -163.36,-653.5 H 9103.53 L 8970.51,5934 c -33.47,208.3 70.09,414.5 257.06,512.1 0,0 42.83,-316.7 275.03,-456.8 232.2,-140.1 944.9,-641.7 944.9,-641.7 0,0 87.3,12.4 183.1,-4.9 142.2,-25.7 122.3,-236.2 -22.1,-236.2 z"
         id="path955" />
    </clipPath>
    <linearGradient
       x1="0"
       y1="0"
       x2="1"
       y2="0"
       gradientUnits="userSpaceOnUse"
       gradientTransform="matrix(-1763.33,0,0,-1763.33,10727.6,5776.3)"
       spreadMethod="pad"
       id="linearGradient963">
      <stop
         style="stop-opacity:1;stop-color:#09005d"
         offset="0"
         id="stop959" />
      <stop
         style="stop-opacity:1;stop-color:#1a0f91"
         offset="1"
         id="stop961" />
    </linearGradient>
    <clipPath
       clipPathUnits="userSpaceOnUse"
       id="clipPath973">
      <path
         d="m 8156.8,11541.4 c 0,0 -1871.75,-3550.6 -2169.29,-4361.2 -297.54,-810.6 -401.77,-1486.9 -405.76,-1550.9 -6.24,-100.1 -130.7,-196.1 -473.78,-196.1 -177.04,0 -263.76,71 -306.21,139.7 -36.23,58.6 -38.09,131.9 -7.57,193.7 108.27,219.1 451.87,919.4 579.13,1237 151.93,379.2 478.75,2097.7 657.98,2695.1 179.24,597.5 381.84,1245.7 1162.37,1842.7 0,0 535.82,524.8 963.13,0 z"
         id="path971" />
    </clipPath>
    <linearGradient
       x1="0"
       y1="0"
       x2="1"
       y2="0"
       gradientUnits="userSpaceOnUse"
       gradientTransform="matrix(-1568.67,18333.9,-18333.9,-1568.67,7114.83,1007.1)"
       spreadMethod="pad"
       id="linearGradient979">
      <stop
         style="stop-opacity:1;stop-color:#febbba"
         offset="0"
         id="stop975" />
      <stop
         style="stop-opacity:1;stop-color:#ff928e"
         offset="1"
         id="stop977" />
    </linearGradient>
    <clipPath
       clipPathUnits="userSpaceOnUse"
       id="clipPath989">
      <path
         d="m 9339.23,17359.1 c 482.83,2046 -740.32,3203.1 -740.32,3203.1 771.77,740.8 2177.99,1078 2177.99,1078 0,0 1341.8,-981 1182.6,-1748.9 -93.3,-450 -943.2,-2695.5 -943.2,-2695.5 0,0 -785.8,-372 -1677.07,163.3 z"
         id="path987" />
    </clipPath>
    <linearGradient
       x1="0"
       y1="0"
       x2="1"
       y2="0"
       gradientUnits="userSpaceOnUse"
       gradientTransform="matrix(-2019.78,-4241.55,-4241.55,2019.78,17609,35261.9)"
       spreadMethod="pad"
       id="linearGradient995">
      <stop
         style="stop-opacity:1;stop-color:#ff928e"
         offset="0"
         id="stop991" />
      <stop
         style="stop-opacity:1;stop-color:#fe7062"
         offset="1"
         id="stop993" />
    </linearGradient>
    <clipPath
       clipPathUnits="userSpaceOnUse"
       id="clipPath1005">
      <path
         d="m 8268.73,16346.2 c 196.48,592 1070.5,1012.9 1070.5,1012.9 891.27,-535.3 1677.07,-163.3 1677.07,-163.3 0,0 176.3,-673.7 54.6,-1299.7 -121.6,-626.1 -884.8,-4649.4 -884.8,-4649.4 -1202.45,-243.6 -3051.85,245.1 -3051.85,245.1 765.94,1359.9 937.98,4262.5 1134.48,4854.4 z"
         id="path1003" />
    </clipPath>
    <linearGradient
       x1="0"
       y1="0"
       x2="1"
       y2="0"
       gradientUnits="userSpaceOnUse"
       gradientTransform="matrix(-5411.8,-18791,18791,-5411.8,11466.2,21571.1)"
       spreadMethod="pad"
       id="linearGradient1011">
      <stop
         style="stop-opacity:1;stop-color:#09005d"
         offset="0"
         id="stop1007" />
      <stop
         style="stop-opacity:1;stop-color:#1a0f91"
         offset="1"
         id="stop1009" />
    </linearGradient>
    <clipPath
       clipPathUnits="userSpaceOnUse"
       id="clipPath1021">
      <path
         d="m 9899.67,22992.2 -392.55,-1763.3 c -37.57,-155.3 104,-129.9 261.02,-100.3 257.16,48.5 588.56,148.4 699.36,348.5 11.3,20.3 16.9,43.3 20.1,66.4 l 168.7,1222.7 c 13.3,97 -39.1,191.1 -128.6,230.8 l -325.5,144.3 c -125.3,55.6 -270.29,-15.9 -302.53,-149.1 z"
         id="path1019" />
    </clipPath>
    <linearGradient
       x1="0"
       y1="0"
       x2="1"
       y2="0"
       gradientUnits="userSpaceOnUse"
       gradientTransform="matrix(-294.592,2155.16,-2155.16,-294.592,10441.5,19346.8)"
       spreadMethod="pad"
       id="linearGradient1027">
      <stop
         style="stop-opacity:1;stop-color:#febbba"
         offset="0"
         id="stop1023" />
      <stop
         style="stop-opacity:1;stop-color:#ff928e"
         offset="1"
         id="stop1025" />
    </linearGradient>
    <clipPath
       clipPathUnits="userSpaceOnUse"
       id="clipPath1037">
      <path
         d="m 8381.89,20017.6 c 0,0 3590.71,-4384.6 6273.41,607.8 0,0 51.5,127.6 19.3,311.8 -16.2,93.1 45.3,423 79.1,591.6 10.9,54.2 -27.7,105.5 -82.7,110.8 -43.1,4.1 -85.4,-14 -112.1,-48 l -490,-624.1 c -36.6,-123.5 22.3,-255.3 138.7,-310.5 74.3,-35.2 97.7,-129.5 47.8,-194.9 -2040.2,-2674.4 -5452.54,260.3 -5514.99,225.8 -221.56,-122.2 -477.53,-257.4 -358.52,-670.3 z"
         id="path1035" />
    </clipPath>
    <linearGradient
       x1="0"
       y1="0"
       x2="1"
       y2="0"
       gradientUnits="userSpaceOnUse"
       gradientTransform="matrix(1668.35,-3338.93,3338.93,1668.35,11045.8,21839.8)"
       spreadMethod="pad"
       id="linearGradient1043">
      <stop
         style="stop-opacity:1;stop-color:#febbba"
         offset="0"
         id="stop1039" />
      <stop
         style="stop-opacity:1;stop-color:#ff928e"
         offset="1"
         id="stop1041" />
    </linearGradient>
    <clipPath
       clipPathUnits="userSpaceOnUse"
       id="clipPath1053">
      <path
         d="m 10360.2,24671 c 0,0 465,-196.3 781.1,-868.1 316.1,-671.8 80,-982 -216.5,-1024.6 -296.5,-42.5 -740,-36.1 -1209.01,397.9 -469.05,434 40.1,1727.5 644.41,1494.8 z"
         id="path1051" />
    </clipPath>
    <linearGradient
       x1="0"
       y1="0"
       x2="1"
       y2="0"
       gradientUnits="userSpaceOnUse"
       gradientTransform="matrix(-2570.33,4574.33,-4574.33,-2570.33,11185,22125.5)"
       spreadMethod="pad"
       id="linearGradient1059">
      <stop
         style="stop-opacity:1;stop-color:#febbba"
         offset="0"
         id="stop1055" />
      <stop
         style="stop-opacity:1;stop-color:#ff928e"
         offset="1"
         id="stop1057" />
    </linearGradient>
    <clipPath
       clipPathUnits="userSpaceOnUse"
       id="clipPath1069">
      <path
         d="m 10031.1,23534.9 c 0,0 -350.77,982.9 520.6,994.5 l 205.1,-143.3 c 0,0 319.7,544.9 -205.1,805 -524.7,260.2 -1138.93,45.3 -1362.26,-661.7 -223.32,-707 -261.45,-1180.3 110.09,-1518.6 371.54,-338.3 524.66,45.3 524.66,45.3 0,0 -202.33,316.4 -119.97,485.7 82.37,169.2 272.35,-35.1 272.35,-35.1 z"
         id="path1067" />
    </clipPath>
    <linearGradient
       x1="0"
       y1="0"
       x2="1"
       y2="0"
       gradientUnits="userSpaceOnUse"
       gradientTransform="matrix(-1285.16,-3223.81,3223.81,-1285.16,10632.3,26109)"
       spreadMethod="pad"
       id="linearGradient1075">
      <stop
         style="stop-opacity:1;stop-color:#09005d"
         offset="0"
         id="stop1071" />
      <stop
         style="stop-opacity:1;stop-color:#1a0f91"
         offset="1"
         id="stop1073" />
    </linearGradient>
    <clipPath
       clipPathUnits="userSpaceOnUse"
       id="clipPath1085">
      <path
         d="m 9933.36,23425.4 c 0,0 -177.35,506.3 -413.93,304.7 -236.58,-201.7 192.28,-467.7 360.17,-553.9 z"
         id="path1083" />
    </clipPath>
    <linearGradient
       x1="0"
       y1="0"
       x2="1"
       y2="0"
       gradientUnits="userSpaceOnUse"
       gradientTransform="matrix(-2570.34,4574.34,-4574.34,-2570.34,10637.9,21818)"
       spreadMethod="pad"
       id="linearGradient1091">
      <stop
         style="stop-opacity:1;stop-color:#febbba"
         offset="0"
         id="stop1087" />
      <stop
         style="stop-opacity:1;stop-color:#ff928e"
         offset="1"
         id="stop1089" />
    </linearGradient>
    <clipPath
       clipPathUnits="userSpaceOnUse"
       id="clipPath1101">
      <path
         d="m 27848.8,5819.1 c 0,0 76.7,-411.4 116.3,-818.9 15.5,-159.2 -106.1,-298.8 -265.9,-307 -542.9,-27.8 -1704.3,-82.9 -2121.4,-68.2 -62.7,2.2 -104.3,65.9 -81.6,124.4 18.9,49.1 56.1,88.9 103.6,111.3 l 1910.7,900.3 z"
         id="path1099" />
    </clipPath>
    <linearGradient
       x1="0"
       y1="0"
       x2="1"
       y2="0"
       gradientUnits="userSpaceOnUse"
       gradientTransform="matrix(7099.94,-7577.01,7577.01,7099.94,25622.1,6367.3)"
       spreadMethod="pad"
       id="linearGradient1107">
      <stop
         style="stop-opacity:1;stop-color:#09005d"
         offset="0"
         id="stop1103" />
      <stop
         style="stop-opacity:1;stop-color:#1a0f91"
         offset="1"
         id="stop1105" />
    </linearGradient>
    <clipPath
       clipPathUnits="userSpaceOnUse"
       id="clipPath1117">
      <path
         d="m 27906.1,6061.7 -53.7,-493.4 c 0,0 -334.7,-159.7 -566,14.4 l 134,550.5 z"
         id="path1115" />
    </clipPath>
    <linearGradient
       x1="0"
       y1="0"
       x2="1"
       y2="0"
       gradientUnits="userSpaceOnUse"
       gradientTransform="matrix(-624.211,-5.93,5.93,-624.211,27908.4,5821.3)"
       spreadMethod="pad"
       id="linearGradient1123">
      <stop
         style="stop-opacity:1;stop-color:#febbba"
         offset="0"
         id="stop1119" />
      <stop
         style="stop-opacity:1;stop-color:#ff928e"
         offset="1"
         id="stop1121" />
    </linearGradient>
    <clipPath
       clipPathUnits="userSpaceOnUse"
       id="clipPath1133">
      <path
         d="m 27773.8,15326.6 c 26.5,-128.4 196.8,-6421.1 -449,-9247.9 -10.5,-46.1 13.2,-93.4 57.2,-110.8 103.6,-41.2 306.5,-100.3 549,-106.2 75.1,-1.8 141.9,47.7 162.4,119.9 186.1,656.3 1076.3,3943.7 1166.6,7076.8 100.9,3501 -1.1,119.2 -1.1,119.2 l -99.5,2162.5 z"
         id="path1131" />
    </clipPath>
    <linearGradient
       x1="0"
       y1="0"
       x2="1"
       y2="0"
       gradientUnits="userSpaceOnUse"
       gradientTransform="matrix(6056.99,-8048.3,8048.3,6056.99,24986.2,15006.9)"
       spreadMethod="pad"
       id="linearGradient1139">
      <stop
         style="stop-opacity:1;stop-color:#09005d"
         offset="0"
         id="stop1135" />
      <stop
         style="stop-opacity:1;stop-color:#1a0f91"
         offset="1"
         id="stop1137" />
    </linearGradient>
    <clipPath
       clipPathUnits="userSpaceOnUse"
       id="clipPath1149">
      <path
         d="m 30058.4,5625.2 c 0,0 117.9,-206.9 235.3,-758.6 21.2,-99.6 -47.6,-195.8 -148.9,-206.7 -179.2,-19.4 -455,-44.7 -676.2,-45.3 -102,-0.2 -182.4,87.8 -171.1,189.1 22.6,202 95.8,533.7 329.1,793.9 z"
         id="path1147" />
    </clipPath>
    <linearGradient
       x1="0"
       y1="0"
       x2="1"
       y2="0"
       gradientUnits="userSpaceOnUse"
       gradientTransform="matrix(7100.25,-7577.33,7577.33,7100.25,27184.8,7831.8)"
       spreadMethod="pad"
       id="linearGradient1155">
      <stop
         style="stop-opacity:1;stop-color:#09005d"
         offset="0"
         id="stop1151" />
      <stop
         style="stop-opacity:1;stop-color:#1a0f91"
         offset="1"
         id="stop1153" />
    </linearGradient>
    <clipPath
       clipPathUnits="userSpaceOnUse"
       id="clipPath1165">
      <path
         d="m 30154.2,6260 -129.6,-746.6 c 0,0 -134.1,-101.7 -402,-31.4 l 57.5,802.5 z"
         id="path1163" />
    </clipPath>
    <linearGradient
       x1="0"
       y1="0"
       x2="1"
       y2="0"
       gradientUnits="userSpaceOnUse"
       gradientTransform="matrix(-538.932,-5.11985,5.11985,-538.932,30157.8,5874.8)"
       spreadMethod="pad"
       id="linearGradient1171">
      <stop
         style="stop-opacity:1;stop-color:#febbba"
         offset="0"
         id="stop1167" />
      <stop
         style="stop-opacity:1;stop-color:#ff928e"
         offset="1"
         id="stop1169" />
    </linearGradient>
    <clipPath
       clipPathUnits="userSpaceOnUse"
       id="clipPath1181">
      <path
         d="m 30438.4,15158.9 c 581.9,-3315.4 -41.1,-8208.3 -257.8,-9166.9 -13.2,-58.7 -60.1,-104 -119.3,-114.4 -100.6,-17.6 -266.5,-32.9 -430.5,13.1 -56.6,15.8 -96.6,66.3 -99.5,124.9 -37.7,773 -28.4,5520.4 -559,7391.5 -26.9,94.8 -85.7,177.2 -166.6,233.5 l -1001.8,697.9 -87.2,1142.8 z"
         id="path1179" />
    </clipPath>
    <linearGradient
       x1="0"
       y1="0"
       x2="1"
       y2="0"
       gradientUnits="userSpaceOnUse"
       gradientTransform="matrix(6056.92,-8048.21,8048.21,6056.92,26044.5,15803.4)"
       spreadMethod="pad"
       id="linearGradient1187">
      <stop
         style="stop-opacity:1;stop-color:#09005d"
         offset="0"
         id="stop1183" />
      <stop
         style="stop-opacity:1;stop-color:#1a0f91"
         offset="1"
         id="stop1185" />
    </linearGradient>
    <clipPath
       clipPathUnits="userSpaceOnUse"
       id="clipPath1197">
      <path
         d="m 26872.4,21417.3 c 1648.6,43 3472.4,-399.8 3472.4,-399.8 518.8,-2863.2 144.8,-6175 144.8,-6175 -1273.3,-347 -2718.5,178.7 -2718.5,178.7 -223.6,1196.7 -1245.7,4560.9 -1245.7,4560.9 -806.6,92.3 -1472.5,318.4 -2022,620.5 412.3,487.2 603,1104 684.9,1468.3 584.7,-175.7 1175.6,-266.8 1684.1,-253.6 z"
         id="path1195" />
    </clipPath>
    <linearGradient
       x1="0"
       y1="0"
       x2="1"
       y2="0"
       gradientUnits="userSpaceOnUse"
       gradientTransform="matrix(-908.906,-4342.55,-4342.55,908.906,30009,29526.3)"
       spreadMethod="pad"
       id="linearGradient1203">
      <stop
         style="stop-opacity:1;stop-color:#ff928e"
         offset="0"
         id="stop1199" />
      <stop
         style="stop-opacity:1;stop-color:#fe7062"
         offset="1"
         id="stop1201" />
    </linearGradient>
    <clipPath
       clipPathUnits="userSpaceOnUse"
       id="clipPath1213">
      <path
         d="m 21978.6,23799.6 c 160.2,197.2 366,106.6 366,106.6 252.5,-1022.7 1532.7,-1841.6 2843.7,-2235.3 -81.9,-364.3 -272.6,-981.1 -684.9,-1468.3 -2180.9,1199 -2524.8,3597 -2524.8,3597 z"
         id="path1211" />
    </clipPath>
    <linearGradient
       x1="0"
       y1="0"
       x2="1"
       y2="0"
       gradientUnits="userSpaceOnUse"
       gradientTransform="matrix(-3189.15,-30.2969,30.2969,-3189.15,25184.4,22082)"
       spreadMethod="pad"
       id="linearGradient1219">
      <stop
         style="stop-opacity:1;stop-color:#febbba"
         offset="0"
         id="stop1215" />
      <stop
         style="stop-opacity:1;stop-color:#ff928e"
         offset="1"
         id="stop1217" />
    </linearGradient>
    <clipPath
       clipPathUnits="userSpaceOnUse"
       id="clipPath1229">
      <path
         d="m 22018.4,23750.2 c -16.4,-54 180.6,-134.2 294.1,87.3 3,105.7 62.9,558.7 -1,644.2 -340.5,455 -997.6,1023.2 -997.6,1023.2 -109.1,-109.7 -17.4,-215.6 -17.4,-215.6 l 319.3,-326.3 c -65,-120.1 -144.7,-221.8 -181.1,-366.6 -27.6,-109.8 -8.9,-226.6 47.3,-325.7 56.4,-99.4 133.4,-228.6 205.9,-329.7 137.3,-191.2 330.5,-190.8 330.5,-190.8 z"
         id="path1227" />
    </clipPath>
    <linearGradient
       x1="0"
       y1="0"
       x2="1"
       y2="0"
       gradientUnits="userSpaceOnUse"
       gradientTransform="matrix(2186.2,-4848.52,-4848.52,-2186.2,22700.6,22593)"
       spreadMethod="pad"
       id="linearGradient1235">
      <stop
         style="stop-opacity:1;stop-color:#febbba"
         offset="0"
         id="stop1231" />
      <stop
         style="stop-opacity:1;stop-color:#ff928e"
         offset="1"
         id="stop1233" />
    </linearGradient>
    <clipPath
       clipPathUnits="userSpaceOnUse"
       id="clipPath1245">
      <path
         d="m 21756.1,24750.6 290.4,-241.4 92.8,-242.3 -254.1,-287.4 c 0,0 -91,481.6 -156.2,585.4 -65.2,103.8 -32.4,154.6 27.1,185.7 z"
         id="path1243" />
    </clipPath>
    <linearGradient
       x1="0"
       y1="0"
       x2="1"
       y2="0"
       gradientUnits="userSpaceOnUse"
       gradientTransform="matrix(-905.963,1364.38,-1364.38,-905.963,21990,24207.9)"
       spreadMethod="pad"
       id="linearGradient1251">
      <stop
         style="stop-opacity:1;stop-color:#febbba"
         offset="0"
         id="stop1247" />
      <stop
         style="stop-opacity:1;stop-color:#ff928e"
         offset="1"
         id="stop1249" />
    </linearGradient>
    <clipPath
       clipPathUnits="userSpaceOnUse"
       id="clipPath1261">
      <path
         d="m 29727.5,19414.8 617.3,1602.7 c 0,0 1550.1,-1031.8 1816.1,-2356.2 -290.9,-24.2 -819.7,-104.9 -1335.5,-371.6 -119.9,625.4 -1097.9,1125.1 -1097.9,1125.1 z"
         id="path1259" />
    </clipPath>
    <linearGradient
       x1="0"
       y1="0"
       x2="1"
       y2="0"
       gradientUnits="userSpaceOnUse"
       gradientTransform="matrix(-908.909,-4342.56,-4342.56,908.909,33008,28898.6)"
       spreadMethod="pad"
       id="linearGradient1267">
      <stop
         style="stop-opacity:1;stop-color:#ff928e"
         offset="0"
         id="stop1263" />
      <stop
         style="stop-opacity:1;stop-color:#fe7062"
         offset="1"
         id="stop1265" />
    </linearGradient>
    <clipPath
       clipPathUnits="userSpaceOnUse"
       id="clipPath1277">
      <path
         d="m 28395.9,17899.6 c 0,0 1738.6,-960.8 2314.1,-120.7 119.5,174.4 146.8,346.9 115.4,510.8 515.8,266.7 1044.6,347.4 1335.5,371.6 80.1,-399.3 43.8,-825.1 -187.1,-1257.3 -1004.2,-1879.3 -3802.6,67.1 -3802.6,67.1 z"
         id="path1275" />
    </clipPath>
    <linearGradient
       x1="0"
       y1="0"
       x2="1"
       y2="0"
       gradientUnits="userSpaceOnUse"
       gradientTransform="matrix(-4035.76,-38.3397,38.3397,-4035.76,32205.8,17631.4)"
       spreadMethod="pad"
       id="linearGradient1283">
      <stop
         style="stop-opacity:1;stop-color:#febbba"
         offset="0"
         id="stop1279" />
      <stop
         style="stop-opacity:1;stop-color:#ff928e"
         offset="1"
         id="stop1281" />
    </linearGradient>
    <clipPath
       clipPathUnits="userSpaceOnUse"
       id="clipPath1293">
      <path
         d="m 28529.8,22771.9 539.1,-1512.2 c 9,-25.1 -1.1,-53 -24.3,-66.1 -142.2,-80.4 -655.3,-313.9 -1280,73.8 -65.1,40.4 -109.7,106.9 -120.3,182.8 l -182.4,1311.5 z"
         id="path1291" />
    </clipPath>
    <linearGradient
       x1="0"
       y1="0"
       x2="1"
       y2="0"
       gradientUnits="userSpaceOnUse"
       gradientTransform="matrix(-1595.67,-15.1589,15.1589,-1595.67,29065.7,21916.4)"
       spreadMethod="pad"
       id="linearGradient1299">
      <stop
         style="stop-opacity:1;stop-color:#febbba"
         offset="0"
         id="stop1295" />
      <stop
         style="stop-opacity:1;stop-color:#ff928e"
         offset="1"
         id="stop1297" />
    </linearGradient>
    <clipPath
       clipPathUnits="userSpaceOnUse"
       id="clipPath1309">
      <path
         d="m 28751.3,16381.2 -947.1,3307.4 c -10.8,37.5 -42.8,64.9 -81.6,69.4 -171.6,20 -668.8,76.2 -1242.8,124.8 -691.5,58.5 -1494.5,105.9 -1974.4,65.6 -68.2,-5.8 -109.4,-77.9 -79.1,-139.3 272.9,-552.1 1395.3,-2797.7 1957.4,-3533.4 18.6,-24.4 47.4,-38.6 78.1,-38.3 l 2197.3,20.4 c 64,0.6 109.7,62 92.2,123.4 z"
         id="path1307" />
    </clipPath>
    <linearGradient
       x1="0"
       y1="0"
       x2="1"
       y2="0"
       gradientUnits="userSpaceOnUse"
       gradientTransform="matrix(-2226.93,-9278.88,9278.88,-2226.93,27087.8,20195.8)"
       spreadMethod="pad"
       id="linearGradient1315">
      <stop
         style="stop-opacity:1;stop-color:#09005d"
         offset="0"
         id="stop1311" />
      <stop
         style="stop-opacity:1;stop-color:#1a0f91"
         offset="1"
         id="stop1313" />
    </linearGradient>
    <clipPath
       clipPathUnits="userSpaceOnUse"
       id="clipPath1325">
      <path
         d="m 28522.4,17180.3 c 0,0 132,542.5 78.7,734.9 -53.2,192.5 -156.3,439.9 -499.9,384.9 -343.7,-55 -749.1,-199.7 -749.1,-199.7 0,0 20.4,-250.7 281.7,-169.8 l -162,-125.4 c 0,0 23.1,-200.7 243.8,-93.5 l -150.7,-166.2 c 0,0 94.8,-164.8 257.1,-59.1 162.3,105.7 240.1,-371.4 700.4,-306.1 z"
         id="path1323" />
    </clipPath>
    <linearGradient
       x1="0"
       y1="0"
       x2="1"
       y2="0"
       gradientUnits="userSpaceOnUse"
       gradientTransform="matrix(-1261.73,0,0,-1261.73,28613.8,17741)"
       spreadMethod="pad"
       id="linearGradient1331">
      <stop
         style="stop-opacity:1;stop-color:#febbba"
         offset="0"
         id="stop1327" />
      <stop
         style="stop-opacity:1;stop-color:#ff928e"
         offset="1"
         id="stop1329" />
    </linearGradient>
    <clipPath
       clipPathUnits="userSpaceOnUse"
       id="clipPath1345">
      <path
         d="m 27408.5,24463.7 c -17.7,-21 -652.5,-1729.2 -652.5,-1729.2 l 983,-341.7 842.2,1529.6 c 0,0 -875.3,894.1 -1172.7,541.3 z"
         id="path1343" />
    </clipPath>
    <linearGradient
       x1="0"
       y1="0"
       x2="1"
       y2="0"
       gradientUnits="userSpaceOnUse"
       gradientTransform="matrix(-184.238,-3462,3462,-184.238,27714.4,24190.1)"
       spreadMethod="pad"
       id="linearGradient1351">
      <stop
         style="stop-opacity:1;stop-color:#febbba"
         offset="0"
         id="stop1347" />
      <stop
         style="stop-opacity:1;stop-color:#ff928e"
         offset="1"
         id="stop1349" />
    </linearGradient>
    <clipPath
       clipPathUnits="userSpaceOnUse"
       id="clipPath1361">
      <path
         d="m 28173.8,23835.6 c 21.6,-41.1 23,-89.5 3.9,-131.8 l -374.8,-827.8 c -5.7,-12.5 -12.8,-24.1 -21.8,-34.6 -49.3,-57.8 -221.1,-229.4 -390.9,-42.5 -144.7,159.2 -279.9,303.5 -412.7,354.2 -77.6,29.5 -164.1,-11.3 -192.7,-89.2 -59,-160.5 -171.4,-486.7 -230.6,-790.6 -14.8,-76.2 32.2,-150.6 107,-171.3 197.4,-54.6 585.9,-149.6 921.9,-157 55.2,-1.2 106.3,27.9 133.5,76 119.7,211.3 457.6,802.3 578.7,954.4 112.4,141.4 352.6,120.8 461.8,102.6 41.5,-6.8 83.6,3.7 116.9,29.3 99.8,77.1 268.3,259.6 65.6,512.2 -50.4,62.8 -39.2,155.5 22.6,207.2 110.6,92.7 223.5,255.6 71.9,480.7 -153.3,227.9 -379.7,223.8 -530,187.5 -66.5,-16 -139,11.4 -172.2,71.3 -14.7,26.6 -40.2,47.8 -83.6,51.5 -81.8,6.9 -142.7,73.9 -136.3,155.7 11.1,140.3 -29.8,316.2 -262.8,411.3 -427.2,174.4 -737.5,-226.2 -791.8,-540.4 -54.3,-314.1 419.7,-476.9 706.3,-480 210.6,-2.3 350.6,-215.6 410.1,-328.7 z"
         id="path1359" />
    </clipPath>
    <linearGradient
       x1="0"
       y1="0"
       x2="1"
       y2="0"
       gradientUnits="userSpaceOnUse"
       gradientTransform="matrix(-1909.29,1609.6,-1609.6,-1909.29,28507,22653.2)"
       spreadMethod="pad"
       id="linearGradient1367">
      <stop
         style="stop-opacity:1;stop-color:#09005d"
         offset="0"
         id="stop1363" />
      <stop
         style="stop-opacity:1;stop-color:#1a0f91"
         offset="1"
         id="stop1365" />
    </linearGradient>
    <clipPath
       clipPathUnits="userSpaceOnUse"
       id="clipPath1377">
      <path
         d="m 28153.8,22671 c 0,0 118.1,543.3 349,550.6 230.8,7.3 437.2,-199.7 183.4,-488.5 -315.6,-359.3 -532.4,-62.1 -532.4,-62.1 z"
         id="path1375" />
    </clipPath>
    <linearGradient
       x1="0"
       y1="0"
       x2="1"
       y2="0"
       gradientUnits="userSpaceOnUse"
       gradientTransform="matrix(-173.164,2396.15,-2396.15,-173.164,28643.8,20542)"
       spreadMethod="pad"
       id="linearGradient1383">
      <stop
         style="stop-opacity:1;stop-color:#febbba"
         offset="0"
         id="stop1379" />
      <stop
         style="stop-opacity:1;stop-color:#ff928e"
         offset="1"
         id="stop1381" />
    </linearGradient>
  </defs>
  <sodipodi:namedview
     id="namedview721"
     pagecolor="#ffffff"
     bordercolor="#000000"
     borderopacity="0.25"
     inkscape:showpageshadow="2"
     inkscape:pageopacity="0.0"
     inkscape:pagecheckerboard="0"
     inkscape:deskcolor="#d1d1d1"
     showgrid="false" />
  <g
     id="g727"
     inkscape:groupmode="layer"
     inkscape:label="Page 1"
     transform="matrix(1.3333333,0,0,-1.3333333,0,4946.6667)">
    <g
       id="g729"
       transform="scale(0.1)">
      <path
         d="M 0,0 H 37100 V 37100 H 0 Z"
         style="fill:#ffffff;fill-opacity:1;fill-rule:nonzero;stroke:none"
         id="path731" />
      <g
         id="g733">
        <g
           id="g735"
           clip-path="url(#clipPath739)">
          <path
             d="m 19089.9,4588.1 c -1679.5,0 -2962.5,234 -3474.2,337.5 -1855.8,375.6 -5443,1101.5 -8036.47,4140.3 -2351.27,2755 -3074.13,6460.3 -2621,10016.3 72.21,-382.2 155.91,-768.9 252.32,-1160.3 1843.28,-7483.3 7859.95,-11476.8 7859.95,-11476.8 0,0 995.3,3059.1 -802.3,7137.6 -44.7,101.4 -91.2,206.3 -139.4,314.9 2126,2257.8 1539.4,7477.2 -318.8,11060.1 -652.8,1258.7 -1005.9,2998.1 -1196.9,4537.4 1508.7,1231.1 3547.5,2358.3 6171.2,2700 593.2,77.3 1203.1,116.3 1820.8,116.3 3148.7,0 6513.5,-1013.4 9066.2,-3144.2 6409.5,-5350.4 5953.2,-16159 1643.6,-20679.5 C 28746.2,7891.2 28208.1,7506.5 27783,7202.5 24820.4,5084.6 21535.2,4588.1 19089.9,4588.1 M 7665.48,24441.9 c -142.36,393 -278.75,782.3 -407.13,1164.3 17.12,27.3 34.36,54.6 51.64,81.7 133.5,209.7 404.17,648.4 820.86,1204.8 -216.38,-868.9 -368.5,-1685.2 -465.37,-2450.8"
             style="fill:url(#linearGradient745);fill-opacity:1;fill-rule:nonzero;stroke:none"
             id="path747" />
        </g>
      </g>
      <path
         d="m 4958.23,19082.2 c -998.39,5284.7 215.4,9632.7 846.65,11396.2 28.48,79.5 93.34,116.9 156.92,116.9 77.28,0 152.66,-55.2 158.41,-156.9 71.93,-1268.9 512.49,-2970.7 1138.14,-4832.2 -477.11,-760.8 -893.01,-1582.5 -1239.44,-2444.9 -39.9,293.7 -71.83,588.8 -96,885 -12.39,108.6 -13.68,218.4 -21.51,327.5 l -19,328 -5.92,329.1 -2.89,164.7 c 0.07,54.9 2.03,109.8 2.95,164.8 3.09,109.9 2.97,219.9 8.69,329.9 l 19.69,329.8 c 19.72,219.4 37.68,440 78.5,657.5 0.41,1.7 -0.58,3.4 -2.23,3.8 -0.19,0 -0.39,0 -0.58,0 -1.41,0 -2.75,-1.1 -3.14,-2.6 -94.66,-433.9 -137.92,-876.9 -157.62,-1318.6 -2.76,-55.3 -6.56,-110.6 -8.48,-165.8 l -2.61,-165.8 -5.06,-331.7 8.08,-331.1 c 3.65,-110.3 2.95,-221.1 13.11,-330.8 22.25,-369.7 56.52,-738.4 103.18,-1104.9 -470.29,-1224.3 -801.38,-2525.9 -969.84,-3847.9"
         style="fill:#c9d8fc;fill-opacity:1;fill-rule:nonzero;stroke:none"
         id="path749" />
      <g
         id="g751">
        <g
           id="g753"
           clip-path="url(#clipPath757)">
          <path
             d="m 13070.5,6445.1 c 0,0 -6016.67,3993.5 -7859.95,11476.8 -96.41,391.4 -180.11,778.1 -252.32,1160.3 168.46,1322 499.55,2623.6 969.84,3847.9 64.42,-506 152.45,-1008 265,-1503 40.12,-215.9 101.97,-425.1 156.05,-636.7 57.35,-210.6 105.59,-424.5 175.36,-630.6 l 195.84,-623.2 c 30.42,-104.8 71.39,-205.2 108.51,-307.2 l 113.48,-305.1 113.51,-305.1 57.22,-152.4 63.89,-149.1 255.61,-596.5 c 43.33,-98.9 83.62,-199.9 129.46,-297.2 l 137.08,-292.1 274.17,-584.4 c 372.19,-775.3 749.72,-1547.8 1145.47,-2309.3 195.08,-382.4 396.02,-761.1 595.07,-1141 l 608.61,-1132 c 406.5,-753.9 813.9,-1506.8 1196.6,-2272.8 98.3,-190.3 187.2,-385.2 279.3,-578.7 47.3,-96.2 88,-195.4 131,-293.7 42,-98.7 86.7,-196.3 126.5,-296 75.6,-201.1 158.5,-399.7 220.3,-606.5 72.8,-203 120.3,-414.3 174.4,-624.1 l 0.4,-1.4 c 2.9,-11.2 12.4,-18.3 22.9,-18.3 2.5,0 4.9,0.3 7.4,1.1 12.7,4.1 20.4,17.8 17.9,31.1 -83.3,431 -210.6,849.4 -362.4,1255.9 -37.7,101.6 -80.3,201 -120.2,301.6 -40.9,100.2 -79.7,201.6 -124.8,299.4 -87.9,197 -172.8,396 -266.8,589.5 -367.7,779.1 -769.5,1536.9 -1164.1,2298 l -592.55,1141.1 c -196.3,380.8 -394.79,760.4 -587.12,1143.5 -388.67,763.9 -765.7,1534.3 -1136.72,2308.1 l -273.15,583.1 -136.59,291.6 c -45.64,97.1 -86.29,196.2 -129.7,294.2 l -256.58,589.7 -64.16,147.4 -57.48,150.6 -114.07,301.6 c -314.21,800 -562.77,1629.1 -769.74,2470 -138.92,554.8 -246.5,1119.6 -324.03,1690.1 346.43,862.4 762.33,1684.1 1239.44,2444.9 128.38,-382 264.77,-771.3 407.13,-1164.3 -1046.3,-8269.7 4333.32,-10675.4 4333.32,-10675.4 44.4,42.5 87.8,86.2 130,131.1 48.2,-108.6 94.7,-213.5 139.4,-314.9 1797.6,-4078.5 802.3,-7137.6 802.3,-7137.6"
             style="fill:url(#linearGradient763);fill-opacity:1;fill-rule:nonzero;stroke:none"
             id="path765" />
        </g>
      </g>
      <path
         d="m 5928.07,22930.1 c -46.66,366.5 -80.93,735.2 -103.18,1104.9 -10.16,109.7 -9.46,220.5 -13.11,330.8 l -8.08,331.1 5.06,331.7 2.61,165.8 c 1.92,55.2 5.72,110.5 8.48,165.8 19.7,441.7 62.96,884.7 157.62,1318.6 0.39,1.5 1.73,2.6 3.14,2.6 0.19,0 0.39,0 0.58,0 1.65,-0.4 2.64,-2.1 2.23,-3.8 -40.82,-217.5 -58.78,-438.1 -78.5,-657.5 l -19.69,-329.8 c -5.72,-110 -5.6,-220 -8.69,-329.9 -0.92,-55 -2.88,-109.9 -2.95,-164.8 l 2.89,-164.7 5.92,-329.1 19,-328 c 7.83,-109.1 9.12,-218.9 21.51,-327.5 24.17,-296.2 56.1,-591.3 96,-885 -30.87,-76.8 -61.07,-153.7 -90.84,-231.2"
         style="fill:#eaeffd;fill-opacity:1;fill-rule:nonzero;stroke:none"
         id="path767" />
      <g
         id="g769">
        <g
           id="g771"
           clip-path="url(#clipPath775)">
          <path
             d="m 12473.8,7273.7 c -10.5,0 -20,7.1 -22.9,18.3 l -0.4,1.4 c -54.1,209.8 -101.6,421.1 -174.4,624.1 -61.8,206.8 -144.7,405.4 -220.3,606.5 -39.8,99.7 -84.5,197.3 -126.5,296 -43,98.3 -83.7,197.5 -131,293.7 -92.1,193.5 -181,388.4 -279.3,578.7 -382.7,766 -790.1,1518.9 -1196.6,2272.8 l -608.61,1132 c -199.05,379.9 -399.99,758.6 -595.07,1141 -395.75,761.5 -773.28,1534 -1145.47,2309.3 L 7699.08,17131.9 7562,17424 c -45.84,97.3 -86.13,198.3 -129.46,297.2 l -255.61,596.5 -63.89,149.1 -57.22,152.4 -113.51,305.1 -113.48,305.1 c -37.12,102 -78.09,202.4 -108.51,307.2 l -195.84,623.2 c -69.77,206.1 -118.01,420 -175.36,630.6 -54.08,211.6 -115.93,420.8 -156.05,636.7 -112.55,495 -200.58,997 -265,1503 29.77,77.5 59.97,154.4 90.84,231.2 77.53,-570.5 185.11,-1135.3 324.03,-1690.1 206.97,-840.9 455.53,-1670 769.74,-2470 l 114.07,-301.6 57.48,-150.6 64.16,-147.4 256.58,-589.7 c 43.41,-98 84.06,-197.1 129.7,-294.2 l 136.59,-291.6 273.15,-583.1 c 371.02,-773.8 748.05,-1544.2 1136.72,-2308.1 192.33,-383.1 390.82,-762.7 587.12,-1143.5 l 592.55,-1141.1 c 394.6,-761.1 796.4,-1518.9 1164.1,-2298 94,-193.5 178.9,-392.5 266.8,-589.5 45.1,-97.8 83.9,-199.2 124.8,-299.4 39.9,-100.6 82.5,-200 120.2,-301.6 151.8,-406.5 279.1,-824.9 362.4,-1255.9 2.5,-13.3 -5.2,-27 -17.9,-31.1 -2.5,-0.8 -4.9,-1.1 -7.4,-1.1"
             style="fill:url(#linearGradient781);fill-opacity:1;fill-rule:nonzero;stroke:none"
             id="path783" />
        </g>
      </g>
      <path
         d="m 8130.85,26892.7 c 413.03,1658.5 1060.61,3509.1 2008.35,5573 26.6,57.7 76.3,84.3 125.1,84.3 66.1,0 130.3,-48.7 132.6,-134.5 16.6,-632.8 66.7,-1715.4 216.2,-2920.4 -252.8,-206.2 -490.5,-415.3 -713.83,-624.2 4.73,211.9 10.82,423.7 18.57,635.6 6.26,159.4 12.94,318.8 21.22,478.1 l 13.7,238.9 8.09,119.4 c 3.31,39.3 5.95,80.5 10.57,116.7 l 0.43,3.4 c 1.08,8.4 -4.46,15.8 -12.36,16.7 -0.5,0.1 -0.99,0.1 -1.48,0.1 -7.19,0 -13.55,-5.7 -14.72,-13.4 -6.51,-43 -9.03,-81.5 -13.12,-121.8 l -9.84,-119.6 -17.13,-239.3 c -10.57,-159.5 -19.53,-319 -28.11,-478.6 -11.63,-228.8 -21.34,-457.7 -29.49,-686.7 C 9119.34,28134 8550.94,27453.6 8130.85,26892.7"
         style="fill:#a4c0fb;fill-opacity:1;fill-rule:nonzero;stroke:none"
         id="path785" />
      <g
         id="g787">
        <g
           id="g789"
           clip-path="url(#clipPath793)">
          <path
             d="m 12128.8,13897.6 c -1094.3,2461 -3074,6709.1 -4463.32,10544.3 96.87,765.6 248.99,1581.9 465.37,2450.8 420.09,560.9 988.49,1241.3 1714.75,1927.7 -3.21,-90.2 -6.18,-180.5 -8.93,-270.8 -18.57,-638.4 -21.51,-1276.7 -14.97,-1914.6 5.99,-637.9 27.58,-1275.1 61.54,-1911.2 l 12.34,-238.5 15.33,-238.3 c 10.85,-158.8 18.96,-317.9 32.35,-476.4 l 37.08,-475.8 43.86,-475 c 123.3,-1265.7 309.3,-2523.6 579.5,-3759.3 8.5,-38.6 16.3,-77.4 25.2,-115.9 l 27.7,-115.2 55.3,-230.3 55.4,-230.4 c 19.3,-76.4 40.6,-152.3 60.9,-228.6 l 61.4,-228.4 c 21.1,-75.9 39.5,-152.7 63.2,-227.8 l 136.1,-452.2 c 192.2,-598.8 409.6,-1188.1 665.2,-1757.8 2.4,-5.4 7.4,-8.4 12.7,-8.4 2.2,0 4.5,0.5 6.7,1.6 7.1,3.8 10.3,12.8 7.1,20.4 v 0.1 c -242.1,575.2 -452,1165.3 -634.4,1765.6 l -131.4,452.3 c -22.9,75 -40.5,151.8 -60.8,227.8 l -59.1,228.3 c -19.4,76.2 -40,152.1 -58.5,228.5 l -53,230.3 -53,230.2 -26.5,115.1 c -8.6,38.4 -16,77.2 -24,115.8 l -95.5,463.3 c -31,154.7 -57.8,310.4 -86.9,465.6 -14.1,77.7 -29.1,155.1 -42.4,233 l -38,234 -38,234.1 c -13,77.9 -25.4,156 -36.1,234.4 -94.8,625.6 -166.1,1255.7 -231.3,1886.4 -125.94,1262.6 -190.53,2533.6 -216.92,3806.5 -12.2,636.6 -12.63,1273.9 -1.65,1911.3 1.72,107 3.76,213.9 6.14,320.8 223.33,208.9 461.03,418 713.83,624.2 191,-1539.3 544.1,-3278.7 1196.9,-4537.4 1858.2,-3582.9 2444.8,-8802.3 318.8,-11060.1"
             style="fill:url(#linearGradient799);fill-opacity:1;fill-rule:nonzero;stroke:none"
             id="path801" />
        </g>
      </g>
      <g
         id="g803">
        <g
           id="g805"
           clip-path="url(#clipPath809)">
          <path
             d="m 11998.8,13766.5 c 0,0 -5379.62,2405.7 -4333.32,10675.4 1389.32,-3835.2 3369.02,-8083.3 4463.32,-10544.3 -42.2,-44.9 -85.6,-88.6 -130,-131.1"
             style="fill:url(#linearGradient815);fill-opacity:1;fill-rule:nonzero;stroke:none"
             id="path817" />
        </g>
      </g>
      <path
         d="m 9845.6,28820.4 c 8.15,229 17.86,457.9 29.49,686.7 8.58,159.6 17.54,319.1 28.11,478.6 l 17.13,239.3 9.84,119.6 c 4.09,40.3 6.61,78.8 13.12,121.8 1.17,7.7 7.53,13.4 14.72,13.4 0.49,0 0.98,0 1.48,-0.1 7.9,-0.9 13.44,-8.3 12.36,-16.7 l -0.43,-3.4 c -4.62,-36.2 -7.26,-77.4 -10.57,-116.7 l -8.09,-119.4 -13.7,-238.9 c -8.28,-159.3 -14.96,-318.7 -21.22,-478.1 -7.75,-211.9 -13.84,-423.7 -18.57,-635.6 -17.97,-16.8 -35.89,-33.7 -53.67,-50.5"
         style="fill:#dae6fd;fill-opacity:1;fill-rule:nonzero;stroke:none"
         id="path819" />
      <g
         id="g821">
        <g
           id="g823"
           clip-path="url(#clipPath827)">
          <path
             d="m 11766.8,15465.5 c -5.3,0 -10.3,3 -12.7,8.4 -255.6,569.7 -473,1159 -665.2,1757.8 l -136.1,452.2 c -23.7,75.1 -42.1,151.9 -63.2,227.8 l -61.4,228.4 c -20.3,76.3 -41.6,152.2 -60.9,228.6 l -55.4,230.4 -55.3,230.3 -27.7,115.2 c -8.9,38.5 -16.7,77.3 -25.2,115.9 -270.2,1235.7 -456.2,2493.6 -579.5,3759.3 l -43.86,475 -37.08,475.8 c -13.39,158.5 -21.5,317.6 -32.35,476.4 l -15.33,238.3 -12.34,238.5 c -33.96,636.1 -55.55,1273.3 -61.54,1911.2 -6.54,637.9 -3.6,1276.2 14.97,1914.6 2.75,90.3 5.72,180.6 8.93,270.8 17.78,16.8 35.7,33.7 53.67,50.5 -2.38,-106.9 -4.42,-213.8 -6.14,-320.8 -10.98,-637.4 -10.55,-1274.7 1.65,-1911.3 26.39,-1272.9 90.98,-2543.9 216.92,-3806.5 65.2,-630.7 136.5,-1260.8 231.3,-1886.4 10.7,-78.4 23.1,-156.5 36.1,-234.4 l 38,-234.1 38,-234 c 13.3,-77.9 28.3,-155.3 42.4,-233 29.1,-155.2 55.9,-310.9 86.9,-465.6 l 95.5,-463.3 c 8,-38.6 15.4,-77.4 24,-115.8 l 26.5,-115.1 53,-230.2 53,-230.3 c 18.5,-76.4 39.1,-152.3 58.5,-228.5 l 59.1,-228.3 c 20.3,-76 37.9,-152.8 60.8,-227.8 l 131.4,-452.3 c 182.4,-600.3 392.3,-1190.4 634.4,-1765.6 v -0.1 c 3.2,-7.6 0,-16.6 -7.1,-20.4 -2.2,-1.1 -4.5,-1.6 -6.7,-1.6"
             style="fill:url(#linearGradient833);fill-opacity:1;fill-rule:nonzero;stroke:none"
             id="path835" />
        </g>
      </g>
      <path
         d="m 28651.4,16105.2 c 245.6,-393.3 503,-955.2 440.6,-1517.2 -114,-1025.9 -1687.6,-1481.9 -3066.7,-911.9 -983.1,406.3 -564.6,1739.4 -243.2,2471.5 101.8,232 -66.6,492.3 -319.9,492.3 h -3551.9 v 4000.9 c 0,349.3 369.7,574 679.4,412.3 371.1,-193.7 859,-399.2 1372.5,-480.3 1082.9,-171 2165.9,1026 2051.9,2165.9 -114,1139.9 -1196.9,1994.9 -2336.9,1937.9 -394.3,-19.7 -722.4,-184.5 -982.9,-391.8 -300,-238.6 -743.9,-11.5 -743.9,371.8 v 3496.9 c 0,0 6562.7,0 6751.3,0 h 3074.4 c 312.6,0 566.7,-252 569.1,-564.6 12.8,-1702.7 50.2,-6687.1 48.6,-6948.7 l -24.6,-4000.3 h -3423.9 c -274.5,0 -439.2,-301.8 -293.9,-534.7"
         style="fill:#91b3fa;fill-opacity:1;fill-rule:nonzero;stroke:none"
         id="path837" />
      <g
         id="g839">
        <g
           id="g841"
           clip-path="url(#clipPath845)">
          <path
             d="m 25020.6,5696.3 h -3110.3 v 3352.1 c 0,335.5 -342.4,558.9 -651.5,428.5 -337.8,-142.5 -796.6,-278.2 -1352.4,-303.7 -1245,-57 -2192.8,969 -2003.9,2393.9 188.9,1425 1400.9,1767 1991.8,1596 308.6,-89.3 844.4,-431.6 1286.1,-738.4 308.3,-214.2 729.9,6.7 729.9,382.2 v 3833 h 3551.9 c 253.3,0 421.7,-260.3 319.9,-492.3 -321.4,-732.1 -739.9,-2065.2 243.2,-2471.5 1379.1,-570 2952.7,-114 3066.7,911.9 62.4,562 -195,1123.9 -440.6,1517.2 -145.3,232.9 19.4,534.7 293.9,534.7 h 3423.9 c 0,0 81.6,-6942.6 79.1,-7359.8 l -17.8,-2982.6 c -2,-332.6 -272.2,-601.2 -604.8,-601.2 h -2430 c -397.3,0 -3996.7,0 -4375.1,0"
             style="fill:url(#linearGradient851);fill-opacity:1;fill-rule:nonzero;stroke:none"
             id="path853" />
        </g>
      </g>
      <g
         id="g855">
        <g
           id="g857"
           clip-path="url(#clipPath861)">
          <path
             d="m 15106.2,5678.7 h -2607.7 c -411,0 -744.3,333.2 -744.3,744.3 v 2466.2 c 0,363.6 7.3,3740.3 7.3,4110.1 v 3726.1 h 3440.2 c 283.5,0 449.9,322.4 282.2,551.1 -805.2,1098.2 -102.6,2661.3 498.6,2925.8 712.5,313.5 2165.9,399 2593.4,-1197 222.6,-831.2 18.4,-1438.2 -228.5,-1829.1 -147.1,-232.9 15.7,-536.3 291.1,-536.3 h 3271.8 v -3833 c 0,-375.5 -421.6,-596.4 -729.9,-382.2 -441.7,306.8 -977.5,649.1 -1286.1,738.4 -590.9,171 -1802.9,-171 -1991.8,-1596 -188.9,-1424.9 758.9,-2450.9 2003.9,-2393.9 555.8,25.5 1014.6,161.2 1352.4,303.7 309.1,130.4 651.5,-93 651.5,-428.5 V 5696.3 h -3049.1 c -391.1,0 -3346.5,-17.6 -3755,-17.6"
             style="fill:url(#linearGradient867);fill-opacity:1;fill-rule:nonzero;stroke:none"
             id="path869" />
        </g>
      </g>
      <g
         id="g871">
        <g
           id="g873"
           clip-path="url(#clipPath877)">
          <path
             d="m 15453.1,24368.8 c 0,0 -2451,-2608 -4794.8,-2750.8 0,0 196,-1323.2 504.5,-1529.9 0,0 3189.6,1762.2 4322.2,3836.8 l -31.9,443.9"
             style="fill:url(#linearGradient883);fill-opacity:1;fill-rule:nonzero;stroke:none"
             id="path885" />
        </g>
      </g>
      <g
         id="g887">
        <g
           id="g889"
           clip-path="url(#clipPath893)">
          <path
             d="m 18891.3,20728.9 c 221.8,351.3 405.4,896.8 205.3,1643.8 -384.1,1434.2 -1690.3,1357.4 -2330.6,1075.6 -540.2,-237.7 -1171.6,-1642.3 -448,-2629.2 150.7,-205.5 1.2,-495.2 -253.6,-495.2 h -3091.5 l -96.1,9992.3 c -1.9,198.7 159.6,360.3 358.3,358.5 l 8506.2,-77.6 c 214.7,-1.9 387.8,-176.6 387.8,-391.3 v -2754.6 c 0,-348 401.5,-544.8 674.6,-329.3 233.2,184 525.9,329.7 877.1,347.2 1024.5,51.3 1997.6,-717.1 2100.1,-1741.4 102.4,-1024.5 -870.8,-2100.1 -1843.9,-1946.4 -461.5,72.8 -900,257.5 -1233.4,431.6 -278.3,145.3 -610.6,-56.6 -610.6,-370.5 V 20247 h -2940.2 c -247.5,0 -393.7,272.7 -261.5,481.9"
             style="fill:url(#linearGradient899);fill-opacity:1;fill-rule:nonzero;stroke:none"
             id="path901" />
        </g>
      </g>
      <g
         id="g903">
        <g
           id="g905"
           clip-path="url(#clipPath909)">
          <path
             d="m 9600.62,24482.3 c 0,0 -433.26,-210.7 -512.92,-452.8 -63.92,-194.3 -542.99,-219.3 -590.32,-601.3 -24.43,-197.3 -170.4,-355.2 -366.85,-385.3 -489.29,-75 -1243.33,-329.1 -1363.98,-1178.6 -92.08,-648.5 238.47,-894.3 585.38,-979.4 254.8,-62.5 424.12,-310.4 372.59,-567.6 -49.43,-246.7 24.28,-532 451.73,-757.5 957.88,-505.5 1914.45,1197.4 1914.45,1197.4 l 196.1,2973.3 -686.18,751.8"
             style="fill:url(#linearGradient915);fill-opacity:1;fill-rule:nonzero;stroke:none"
             id="path917" />
        </g>
      </g>
      <g
         id="g919">
        <g
           id="g921"
           clip-path="url(#clipPath925)">
          <path
             d="m 5663.33,5838.7 -61.98,-509.6 c -11.76,-96.6 -87.87,-173.1 -184.62,-184.1 -163.36,-18.7 -425.49,-37.8 -681.97,-10.7 -112.59,11.9 -185.67,125.9 -151.38,233.8 62.53,196.7 176.91,492 341.83,665.8 h 565.27 c 104.51,0 185.48,-91.5 172.85,-195.2"
             style="fill:url(#linearGradient931);fill-opacity:1;fill-rule:nonzero;stroke:none"
             id="path933" />
        </g>
      </g>
      <g
         id="g935">
        <g
           id="g937"
           clip-path="url(#clipPath941)">
          <path
             d="m 10090.7,11807.9 95.4,-561.2 c 0,0 -319.46,-3236.3 -376.3,-4530.8 -8.92,-203 43.59,-403.6 150.12,-576.5 l 555.58,-902.2 -1411.97,833.2 -28.12,172.3 231.15,317.8 -302.76,3625.4 c -17.78,213 26.16,426.6 126.59,615.3 l 292.04,548.6 668.27,458.1"
             style="fill:url(#linearGradient947);fill-opacity:1;fill-rule:nonzero;stroke:none"
             id="path949" />
        </g>
      </g>
      <g
         id="g951">
        <g
           id="g953"
           clip-path="url(#clipPath957)">
          <path
             d="m 10608.5,5106.5 h -450.6 c -84.4,0 -163.9,38.7 -215.34,105.5 -140.47,182.6 -431.5,538.7 -570.66,548 -187.33,12.5 -163.36,-653.5 -163.36,-653.5 H 9103.53 L 8970.51,5934 c -33.47,208.3 70.09,414.5 257.06,512.1 0,0 42.83,-316.7 275.03,-456.8 232.2,-140.1 944.9,-641.7 944.9,-641.7 0,0 87.3,12.4 183.1,-4.9 142.2,-25.7 122.3,-236.2 -22.1,-236.2"
             style="fill:url(#linearGradient963);fill-opacity:1;fill-rule:nonzero;stroke:none"
             id="path965" />
        </g>
      </g>
      <g
         id="g967">
        <g
           id="g969"
           clip-path="url(#clipPath973)">
          <path
             d="m 8156.8,11541.4 c 0,0 -1871.75,-3550.6 -2169.29,-4361.2 -297.54,-810.6 -401.77,-1486.9 -405.76,-1550.9 -6.24,-100.1 -130.7,-196.1 -473.78,-196.1 -177.04,0 -263.76,71 -306.21,139.7 -36.23,58.6 -38.09,131.9 -7.57,193.7 108.27,219.1 451.87,919.4 579.13,1237 151.93,379.2 478.75,2097.7 657.98,2695.1 179.24,597.5 381.84,1245.7 1162.37,1842.7 0,0 535.82,524.8 963.13,0"
             style="fill:url(#linearGradient979);fill-opacity:1;fill-rule:nonzero;stroke:none"
             id="path981" />
        </g>
      </g>
      <g
         id="g983">
        <g
           id="g985"
           clip-path="url(#clipPath989)">
          <path
             d="m 9339.23,17359.1 c 482.83,2046 -740.32,3203.1 -740.32,3203.1 771.77,740.8 2177.99,1078 2177.99,1078 0,0 1341.8,-981 1182.6,-1748.9 -93.3,-450 -943.2,-2695.5 -943.2,-2695.5 0,0 -785.8,-372 -1677.07,163.3"
             style="fill:url(#linearGradient995);fill-opacity:1;fill-rule:nonzero;stroke:none"
             id="path997" />
        </g>
      </g>
      <g
         id="g999">
        <g
           id="g1001"
           clip-path="url(#clipPath1005)">
          <path
             d="m 8268.73,16346.2 c 196.48,592 1070.5,1012.9 1070.5,1012.9 891.27,-535.3 1677.07,-163.3 1677.07,-163.3 0,0 176.3,-673.7 54.6,-1299.7 -121.6,-626.1 -884.8,-4649.4 -884.8,-4649.4 -1202.45,-243.6 -3051.85,245.1 -3051.85,245.1 765.94,1359.9 937.98,4262.5 1134.48,4854.4"
             style="fill:url(#linearGradient1011);fill-opacity:1;fill-rule:nonzero;stroke:none"
             id="path1013" />
        </g>
      </g>
      <g
         id="g1015">
        <g
           id="g1017"
           clip-path="url(#clipPath1021)">
          <path
             d="m 9899.67,22992.2 -392.55,-1763.3 c -37.57,-155.3 104,-129.9 261.02,-100.3 257.16,48.5 588.56,148.4 699.36,348.5 11.3,20.3 16.9,43.3 20.1,66.4 l 168.7,1222.7 c 13.3,97 -39.1,191.1 -128.6,230.8 l -325.5,144.3 c -125.3,55.6 -270.29,-15.9 -302.53,-149.1"
             style="fill:url(#linearGradient1027);fill-opacity:1;fill-rule:nonzero;stroke:none"
             id="path1029" />
        </g>
      </g>
      <g
         id="g1031">
        <g
           id="g1033"
           clip-path="url(#clipPath1037)">
          <path
             d="m 8381.89,20017.6 c 0,0 3590.71,-4384.6 6273.41,607.8 0,0 51.5,127.6 19.3,311.8 -16.2,93.1 45.3,423 79.1,591.6 10.9,54.2 -27.7,105.5 -82.7,110.8 -43.1,4.1 -85.4,-14 -112.1,-48 l -490,-624.1 c -36.6,-123.5 22.3,-255.3 138.7,-310.5 74.3,-35.2 97.7,-129.5 47.8,-194.9 -2040.2,-2674.4 -5452.54,260.3 -5514.99,225.8 -221.56,-122.2 -477.53,-257.4 -358.52,-670.3"
             style="fill:url(#linearGradient1043);fill-opacity:1;fill-rule:nonzero;stroke:none"
             id="path1045" />
        </g>
      </g>
      <g
         id="g1047">
        <g
           id="g1049"
           clip-path="url(#clipPath1053)">
          <path
             d="m 10360.2,24671 c 0,0 465,-196.3 781.1,-868.1 316.1,-671.8 80,-982 -216.5,-1024.6 -296.5,-42.5 -740,-36.1 -1209.01,397.9 -469.05,434 40.1,1727.5 644.41,1494.8"
             style="fill:url(#linearGradient1059);fill-opacity:1;fill-rule:nonzero;stroke:none"
             id="path1061" />
        </g>
      </g>
      <g
         id="g1063">
        <g
           id="g1065"
           clip-path="url(#clipPath1069)">
          <path
             d="m 10031.1,23534.9 c 0,0 -350.77,982.9 520.6,994.5 l 205.1,-143.3 c 0,0 319.7,544.9 -205.1,805 -524.7,260.2 -1138.93,45.3 -1362.26,-661.7 -223.32,-707 -261.45,-1180.3 110.09,-1518.6 371.54,-338.3 524.66,45.3 524.66,45.3 0,0 -202.33,316.4 -119.97,485.7 82.37,169.2 272.35,-35.1 272.35,-35.1 l 54.53,28.2"
             style="fill:url(#linearGradient1075);fill-opacity:1;fill-rule:nonzero;stroke:none"
             id="path1077" />
        </g>
      </g>
      <g
         id="g1079">
        <g
           id="g1081"
           clip-path="url(#clipPath1085)">
          <path
             d="m 9933.36,23425.4 c 0,0 -177.35,506.3 -413.93,304.7 -236.58,-201.7 192.28,-467.7 360.17,-553.9 l 53.76,249.2"
             style="fill:url(#linearGradient1091);fill-opacity:1;fill-rule:nonzero;stroke:none"
             id="path1093" />
        </g>
      </g>
      <g
         id="g1095">
        <g
           id="g1097"
           clip-path="url(#clipPath1101)">
          <path
             d="m 27848.8,5819.1 c 0,0 76.7,-411.4 116.3,-818.9 15.5,-159.2 -106.1,-298.8 -265.9,-307 -542.9,-27.8 -1704.3,-82.9 -2121.4,-68.2 -62.7,2.2 -104.3,65.9 -81.6,124.4 18.9,49.1 56.1,88.9 103.6,111.3 l 1910.7,900.3 338.3,58.1"
             style="fill:url(#linearGradient1107);fill-opacity:1;fill-rule:nonzero;stroke:none"
             id="path1109" />
        </g>
      </g>
      <g
         id="g1111">
        <g
           id="g1113"
           clip-path="url(#clipPath1117)">
          <path
             d="m 27906.1,6061.7 -53.7,-493.4 c 0,0 -334.7,-159.7 -566,14.4 l 134,550.5 485.7,-71.5"
             style="fill:url(#linearGradient1123);fill-opacity:1;fill-rule:nonzero;stroke:none"
             id="path1125" />
        </g>
      </g>
      <g
         id="g1127">
        <g
           id="g1129"
           clip-path="url(#clipPath1133)">
          <path
             d="m 27773.8,15326.6 c 26.5,-128.4 196.8,-6421.1 -449,-9247.9 -10.5,-46.1 13.2,-93.4 57.2,-110.8 103.6,-41.2 306.5,-100.3 549,-106.2 75.1,-1.8 141.9,47.7 162.4,119.9 186.1,656.3 1076.3,3943.7 1166.6,7076.8 100.9,3501 -1.1,119.2 -1.1,119.2 l -99.5,2162.5 -1385.6,-13.5"
             style="fill:url(#linearGradient1139);fill-opacity:1;fill-rule:nonzero;stroke:none"
             id="path1141" />
        </g>
      </g>
      <g
         id="g1143">
        <g
           id="g1145"
           clip-path="url(#clipPath1149)">
          <path
             d="m 30058.4,5625.2 c 0,0 117.9,-206.9 235.3,-758.6 21.2,-99.6 -47.6,-195.8 -148.9,-206.7 -179.2,-19.4 -455,-44.7 -676.2,-45.3 -102,-0.2 -182.4,87.8 -171.1,189.1 22.6,202 95.8,533.7 329.1,793.9 l 431.8,27.6"
             style="fill:url(#linearGradient1155);fill-opacity:1;fill-rule:nonzero;stroke:none"
             id="path1157" />
        </g>
      </g>
      <g
         id="g1159">
        <g
           id="g1161"
           clip-path="url(#clipPath1165)">
          <path
             d="m 30154.2,6260 -129.6,-746.6 c 0,0 -134.1,-101.7 -402,-31.4 l 57.5,802.5 474.1,-24.5"
             style="fill:url(#linearGradient1171);fill-opacity:1;fill-rule:nonzero;stroke:none"
             id="path1173" />
        </g>
      </g>
      <g
         id="g1175">
        <g
           id="g1177"
           clip-path="url(#clipPath1181)">
          <path
             d="m 30438.4,15158.9 c 581.9,-3315.4 -41.1,-8208.3 -257.8,-9166.9 -13.2,-58.7 -60.1,-104 -119.3,-114.4 -100.6,-17.6 -266.5,-32.9 -430.5,13.1 -56.6,15.8 -96.6,66.3 -99.5,124.9 -37.7,773 -28.4,5520.4 -559,7391.5 -26.9,94.8 -85.7,177.2 -166.6,233.5 l -1001.8,697.9 -87.2,1142.8 2721.7,-322.4"
             style="fill:url(#linearGradient1187);fill-opacity:1;fill-rule:nonzero;stroke:none"
             id="path1189" />
        </g>
      </g>
      <g
         id="g1191">
        <g
           id="g1193"
           clip-path="url(#clipPath1197)">
          <path
             d="m 26872.4,21417.3 c 1648.6,43 3472.4,-399.8 3472.4,-399.8 518.8,-2863.2 144.8,-6175 144.8,-6175 -1273.3,-347 -2718.5,178.7 -2718.5,178.7 -223.6,1196.7 -1245.7,4560.9 -1245.7,4560.9 -806.6,92.3 -1472.5,318.4 -2022,620.5 412.3,487.2 603,1104 684.9,1468.3 584.7,-175.7 1175.6,-266.8 1684.1,-253.6"
             style="fill:url(#linearGradient1203);fill-opacity:1;fill-rule:nonzero;stroke:none"
             id="path1205" />
        </g>
      </g>
      <g
         id="g1207">
        <g
           id="g1209"
           clip-path="url(#clipPath1213)">
          <path
             d="m 21978.6,23799.6 c 160.2,197.2 366,106.6 366,106.6 252.5,-1022.7 1532.7,-1841.6 2843.7,-2235.3 -81.9,-364.3 -272.6,-981.1 -684.9,-1468.3 -2180.9,1199 -2524.8,3597 -2524.8,3597"
             style="fill:url(#linearGradient1219);fill-opacity:1;fill-rule:nonzero;stroke:none"
             id="path1221" />
        </g>
      </g>
      <g
         id="g1223">
        <g
           id="g1225"
           clip-path="url(#clipPath1229)">
          <path
             d="m 22018.4,23750.2 c -16.4,-54 180.6,-134.2 294.1,87.3 3,105.7 62.9,558.7 -1,644.2 -340.5,455 -997.6,1023.2 -997.6,1023.2 -109.1,-109.7 -17.4,-215.6 -17.4,-215.6 l 319.3,-326.3 c -65,-120.1 -144.7,-221.8 -181.1,-366.6 -27.6,-109.8 -8.9,-226.6 47.3,-325.7 56.4,-99.4 133.4,-228.6 205.9,-329.7 137.3,-191.2 330.5,-190.8 330.5,-190.8"
             style="fill:url(#linearGradient1235);fill-opacity:1;fill-rule:nonzero;stroke:none"
             id="path1237" />
        </g>
      </g>
      <g
         id="g1239">
        <g
           id="g1241"
           clip-path="url(#clipPath1245)">
          <path
             d="m 21756.1,24750.6 290.4,-241.4 92.8,-242.3 -254.1,-287.4 c 0,0 -91,481.6 -156.2,585.4 -65.2,103.8 -32.4,154.6 27.1,185.7"
             style="fill:url(#linearGradient1251);fill-opacity:1;fill-rule:nonzero;stroke:none"
             id="path1253" />
        </g>
      </g>
      <g
         id="g1255">
        <g
           id="g1257"
           clip-path="url(#clipPath1261)">
          <path
             d="m 29727.5,19414.8 617.3,1602.7 c 0,0 1550.1,-1031.8 1816.1,-2356.2 -290.9,-24.2 -819.7,-104.9 -1335.5,-371.6 -119.9,625.4 -1097.9,1125.1 -1097.9,1125.1"
             style="fill:url(#linearGradient1267);fill-opacity:1;fill-rule:nonzero;stroke:none"
             id="path1269" />
        </g>
      </g>
      <g
         id="g1271">
        <g
           id="g1273"
           clip-path="url(#clipPath1277)">
          <path
             d="m 28395.9,17899.6 c 0,0 1738.6,-960.8 2314.1,-120.7 119.5,174.4 146.8,346.9 115.4,510.8 515.8,266.7 1044.6,347.4 1335.5,371.6 80.1,-399.3 43.8,-825.1 -187.1,-1257.3 -1004.2,-1879.3 -3802.6,67.1 -3802.6,67.1 l 224.7,428.5"
             style="fill:url(#linearGradient1283);fill-opacity:1;fill-rule:nonzero;stroke:none"
             id="path1285" />
        </g>
      </g>
      <g
         id="g1287">
        <g
           id="g1289"
           clip-path="url(#clipPath1293)">
          <path
             d="m 28529.8,22771.9 539.1,-1512.2 c 9,-25.1 -1.1,-53 -24.3,-66.1 -142.2,-80.4 -655.3,-313.9 -1280,73.8 -65.1,40.4 -109.7,106.9 -120.3,182.8 l -182.4,1311.5 1067.9,10.2"
             style="fill:url(#linearGradient1299);fill-opacity:1;fill-rule:nonzero;stroke:none"
             id="path1301" />
        </g>
      </g>
      <g
         id="g1303">
        <g
           id="g1305"
           clip-path="url(#clipPath1309)">
          <path
             d="m 28751.3,16381.2 -947.1,3307.4 c -10.8,37.5 -42.8,64.9 -81.6,69.4 -171.6,20 -668.8,76.2 -1242.8,124.8 -691.5,58.5 -1494.5,105.9 -1974.4,65.6 -68.2,-5.8 -109.4,-77.9 -79.1,-139.3 272.9,-552.1 1395.3,-2797.7 1957.4,-3533.4 18.6,-24.4 47.4,-38.6 78.1,-38.3 l 2197.3,20.4 c 64,0.6 109.7,62 92.2,123.4"
             style="fill:url(#linearGradient1315);fill-opacity:1;fill-rule:nonzero;stroke:none"
             id="path1317" />
        </g>
      </g>
      <g
         id="g1319">
        <g
           id="g1321"
           clip-path="url(#clipPath1325)">
          <path
             d="m 28522.4,17180.3 c 0,0 132,542.5 78.7,734.9 -53.2,192.5 -156.3,439.9 -499.9,384.9 -343.7,-55 -749.1,-199.7 -749.1,-199.7 0,0 20.4,-250.7 281.7,-169.8 l -162,-125.4 c 0,0 23.1,-200.7 243.8,-93.5 l -150.7,-166.2 c 0,0 94.8,-164.8 257.1,-59.1 162.3,105.7 240.1,-371.4 700.4,-306.1"
             style="fill:url(#linearGradient1331);fill-opacity:1;fill-rule:nonzero;stroke:none"
             id="path1333" />
        </g>
      </g>
      <path
         d="m 26542.9,18895.5 c 0,-153.6 -124.5,-278 -278,-278 -153.5,0 -278,124.4 -278,278 0,153.5 124.5,278 278,278 153.5,0 278,-124.5 278,-278"
         style="fill:#91b3fa;fill-opacity:1;fill-rule:nonzero;stroke:none"
         id="path1335" />
      <path
         d="m 27694.6,18711.5 -192.8,654.1 c -23.4,79.4 -87.4,139 -166.7,155.6 -603.9,126 -2258.1,152.8 -2274.7,153 l 1.3,79.1 c 68.1,-1 1678.2,-27.1 2289.6,-154.7 107.8,-22.6 194.6,-103.2 226.3,-210.6 l 192.8,-654.1 -75.8,-22.4"
         style="fill:#bdd0fb;fill-opacity:1;fill-rule:nonzero;stroke:none"
         id="path1337" />
      <g
         id="g1339">
        <g
           id="g1341"
           clip-path="url(#clipPath1345)">
          <path
             d="m 27408.5,24463.7 c -17.7,-21 -652.5,-1729.2 -652.5,-1729.2 l 983,-341.7 842.2,1529.6 c 0,0 -875.3,894.1 -1172.7,541.3"
             style="fill:url(#linearGradient1351);fill-opacity:1;fill-rule:nonzero;stroke:none"
             id="path1353" />
        </g>
      </g>
      <g
         id="g1355">
        <g
           id="g1357"
           clip-path="url(#clipPath1361)">
          <path
             d="m 28173.8,23835.6 c 21.6,-41.1 23,-89.5 3.9,-131.8 l -374.8,-827.8 c -5.7,-12.5 -12.8,-24.1 -21.8,-34.6 -49.3,-57.8 -221.1,-229.4 -390.9,-42.5 -144.7,159.2 -279.9,303.5 -412.7,354.2 -77.6,29.5 -164.1,-11.3 -192.7,-89.2 -59,-160.5 -171.4,-486.7 -230.6,-790.6 -14.8,-76.2 32.2,-150.6 107,-171.3 197.4,-54.6 585.9,-149.6 921.9,-157 55.2,-1.2 106.3,27.9 133.5,76 119.7,211.3 457.6,802.3 578.7,954.4 112.4,141.4 352.6,120.8 461.8,102.6 41.5,-6.8 83.6,3.7 116.9,29.3 99.8,77.1 268.3,259.6 65.6,512.2 -50.4,62.8 -39.2,155.5 22.6,207.2 110.6,92.7 223.5,255.6 71.9,480.7 -153.3,227.9 -379.7,223.8 -530,187.5 -66.5,-16 -139,11.4 -172.2,71.3 -14.7,26.6 -40.2,47.8 -83.6,51.5 -81.8,6.9 -142.7,73.9 -136.3,155.7 11.1,140.3 -29.8,316.2 -262.8,411.3 -427.2,174.4 -737.5,-226.2 -791.8,-540.4 -54.3,-314.1 419.7,-476.9 706.3,-480 210.6,-2.3 350.6,-215.6 410.1,-328.7"
             style="fill:url(#linearGradient1367);fill-opacity:1;fill-rule:nonzero;stroke:none"
             id="path1369" />
        </g>
      </g>
      <g
         id="g1371">
        <g
           id="g1373"
           clip-path="url(#clipPath1377)">
          <path
             d="m 28153.8,22671 c 0,0 118.1,543.3 349,550.6 230.8,7.3 437.2,-199.7 183.4,-488.5 -315.6,-359.3 -532.4,-62.1 -532.4,-62.1"
             style="fill:url(#linearGradient1383);fill-opacity:1;fill-rule:nonzero;stroke:none"
             id="path1385" />
        </g>
      </g>
    </g>
  </g>
</svg>
