<?xml version="1.0" encoding="UTF-8" standalone="no"?>
<!-- Created with Inkscape (http://www.inkscape.org/) -->

<svg
   version="1.1"
   id="svg471"
   width="305.56201"
   height="604.25323"
   viewBox="0 0 305.56201 604.25324"
   sodipodi:docname="94910034_10098527.eps"
   xmlns:inkscape="http://www.inkscape.org/namespaces/inkscape"
   xmlns:sodipodi="http://sodipodi.sourceforge.net/DTD/sodipodi-0.dtd"
   xmlns="http://www.w3.org/2000/svg"
   xmlns:svg="http://www.w3.org/2000/svg">
  <defs
     id="defs475" />
  <sodipodi:namedview
     id="namedview473"
     pagecolor="#ffffff"
     bordercolor="#000000"
     borderopacity="0.25"
     inkscape:showpageshadow="2"
     inkscape:pageopacity="0.0"
     inkscape:pagecheckerboard="0"
     inkscape:deskcolor="#d1d1d1"
     showgrid="false" />
  <g
     id="g479"
     inkscape:groupmode="layer"
     inkscape:label="Page 1"
     transform="matrix(1.3333333,0,0,-1.3333333,-24.480299,676.96408)">
    <path
       d="m 60.2258,343.288 c 1.0953,3.748 3.6676,6.917 7.5496,7.904 5.2051,1.324 10.6437,-1.403 14.8601,-4.228 3.7879,-2.537 7.5368,-6.341 7.7301,-11.183 0.1797,-4.492 -3.0172,-9.341 -7.732,-9.647 -1.4129,-0.092 -1.4082,-2.098 0,-2.193 3.8574,-0.26 7.1793,1.758 9.3062,4.907 0.443,0.656 0.8133,1.318 1.1305,1.983 0.1094,-0.258 0.2235,-0.513 0.3488,-0.763 -0.0617,-0.191 -0.1355,-0.381 -0.2211,-0.568 -0.3851,-0.841 -0.9371,-1.398 -1.625,-1.986 -0.3386,-0.289 -0.5261,-0.437 -0.6914,-0.855 -0.0781,-0.197 0.0852,-0.416 0.2668,-0.471 1.3375,-0.404 2.5278,1.236 3.1055,2.476 0.6231,-0.915 1.3641,-1.749 2.2352,-2.452 1.6672,-1.345 5.5079,-2.969 7.3409,-2.104 L 103.677,324 c -0.877,-0.624 -3.8946,-2.271 -2.876,-3.78 0.999,-1.481 3.158,0.738 3.934,1.371 1.959,1.6 4.068,2.985 5.86,4.771 0.509,0.507 -0.004,1.564 -0.744,1.279 -1.386,-0.536 -2.646,-1.254 -3.868,-2.05 1.241,4.339 -1.836,9.275 -4.344,12.619 -2.1488,2.866 -4.7691,5.407 -7.3788,7.847 -1.2368,1.157 -2.4454,2.33 -3.759,3.334 l 0.0406,0.002 c 9.4982,0.689 16.5432,8.178 17.7652,17.261 2.667,-4.575 4.913,-9.399 6.623,-14.292 1.21,-3.458 2.275,-7.039 3.945,-10.312 0.621,-1.215 1.388,-2.536 2.485,-3.348 -1.046,-0.854 -1.949,-1.803 -2.619,-2.851 -0.344,-0.537 0.225,-1.203 0.806,-1.049 2.368,0.629 4.303,2.074 6.325,3.403 2.214,1.456 4.554,2.688 6.741,4.179 0.68,0.464 0.267,1.571 -0.57,1.352 -1.061,-0.278 -2.21,-0.636 -3.379,-1.068 0.256,2.429 -1.009,5.057 -2.176,7.064 -2.584,4.441 -5.879,8.493 -9.067,12.506 -3.029,3.812 -6.134,7.564 -9.109,11.418 -1.927,3.561 -4.308,7.268 -7.165,10.259 -1.1732,2.077 -2.156,4.238 -2.7904,6.499 -1.8437,6.571 0.5207,13.813 6.5374,17.335 5.229,3.062 11.332,3.233 16.723,0.4 3.723,-1.956 6.63,-4.778 8.902,-8.107 0.86,-1.629 1.774,-3.231 2.707,-4.801 3.127,-6.727 4.421,-14.595 4.896,-21.515 0.385,-5.597 0.434,-11.442 2.441,-16.767 0.893,-2.369 2.407,-4.846 4.466,-6.506 -1.681,-0.841 -2.865,-2.074 -2.941,-3.825 -0.015,-0.359 0.328,-0.706 0.689,-0.689 2.19,0.106 4.027,1.919 6.069,2.67 l 0.079,0.026 c 0.253,-10e-4 0.466,0.081 0.634,0.211 2.2,0.693 4.533,0.961 6.677,1.786 0.486,0.187 0.624,1.009 0,1.131 -1.054,0.208 -2.637,0.306 -4.366,0.221 1.329,3.543 0.851,7.578 -0.089,11.178 -1.62,6.205 -4.514,12.098 -7.587,17.694 -0.953,1.735 -1.964,3.443 -2.995,5.141 -0.32,1.528 -0.721,3.046 -1.236,4.548 -2.161,6.304 -5.446,13.199 -10.23,18.233 -0.743,2.88 -1.15,5.888 -1.085,9.077 0.246,11.9 10.82,21.361 22.824,19.309 12.982,-2.22 19.641,-16.612 19.704,-28.692 0.031,-5.898 -2.443,-11.182 -7.41,-14.46 -2.307,-1.522 -4.986,-2.554 -7.735,-2.898 -2.416,-0.303 -5.113,-0.633 -7.506,-0.149 -0.965,0.196 -1.696,-1.208 -0.708,-1.677 2.979,-1.415 5.603,-2.311 8.924,-1.882 2.945,0.38 5.814,1.363 8.374,2.875 2.008,1.186 3.727,2.648 5.159,4.32 -0.144,-1.218 -0.263,-2.44 -0.34,-3.669 -0.344,-5.526 -0.406,-11.087 -0.116,-16.619 0.246,-4.693 0.616,-9.702 2.288,-14.139 0.313,-0.832 0.79,-1.911 1.423,-2.867 -0.588,-0.147 -1.122,-0.416 -1.555,-0.87 -0.186,-0.195 -0.238,-0.505 -0.096,-0.742 1.357,-2.245 5.051,-1.997 7.353,-2.537 3.338,-0.783 6.511,-1.999 9.784,-2.986 0.583,-0.176 1.119,0.65 0.62,1.065 -1.455,1.211 -3.058,2.194 -4.746,3.019 2.285,4.162 1.347,8.767 -0.462,12.999 -2.454,5.741 -5.081,11.058 -6.193,17.274 -2.083,11.645 -0.87,25.082 2.847,36.292 3.148,9.49 10.274,18.815 20.898,19.994 10.118,1.123 18.963,-7.338 24.384,-14.955 12.739,-17.896 13.012,-40.929 5.736,-61.034 -3.655,-10.098 -8.21,-20.334 -4.811,-31.183 3.087,-9.855 10.069,-17.866 13.02,-27.841 3.052,-10.312 3.126,-21.422 0.838,-31.9 -0.482,-2.208 -1.131,-4.362 -1.855,-6.49 -0.747,-1.648 -1.443,-3.323 -2.09,-5.03 -16.391,-43.238 -2.202,-89.57 3.207,-133.435 1.365,-11.067 2.831,-22.736 1.004,-33.8329 C 239.746,84.991 234.697,76.1191 226.415,69.9691 212.037,59.293 191.824,57.241 175.1,62.918 c -8.095,2.7468 -15.73,7.3082 -21.61,13.5492 -6.952,7.3777 -10.55,16.8808 -12.674,26.6538 -2.294,10.553 -2.748,21.428 -4.522,32.073 -1.829,10.981 -4.572,21.795 -7.911,32.41 -6.749,21.452 -15.87,42.06 -25.032,62.564 -4.6553,10.417 -9.5584,20.779 -13.694,31.417 -4.1265,10.615 -7.2675,22.266 -6.2414,33.723 0.4434,4.948 0.4262,9.425 -2.6863,13.54 -2.9641,3.92 -6.9742,7.049 -10.4105,10.535 -6.3008,6.394 -12.9047,14.288 -10.093,23.905"
       style="fill:#ebb287;fill-opacity:1;fill-rule:nonzero;stroke:none;stroke-width:0.1"
       id="path565"
       inkscape:export-filename="../PycharmProjects/labcsir8108/labcsi/static/images/dedo_gordo.svg"
       inkscape:export-xdpi="96"
       inkscape:export-ydpi="96" />
    <path
       d="m 241.503,300.969 c -0.39,0.325 -0.78,0.649 -1.176,0.967 -5.025,4.037 -10.25,7.744 -14.748,12.399 -4.681,4.843 -8.944,10.618 -10.446,17.297 -1.388,6.175 -0.096,12.49 2.363,18.219 2.628,6.121 6.425,11.573 9.935,17.197 3.586,5.745 6.831,11.74 9.197,18.098 l 0.005,0.014 c -0.585,-6.767 -2.099,-13.505 -4.395,-19.947 0,-0.001 -0.001,-0.003 -0.002,-0.005 -0.008,-0.022 -0.016,-0.045 -0.024,-0.067 -10e-4,-0.003 -0.002,-0.008 -0.003,-0.01 -0.009,-0.024 -0.018,-0.049 -0.027,-0.073 0,-10e-4 -10e-4,-0.003 -10e-4,-0.005 -0.008,-0.021 -0.015,-0.042 -0.023,-0.064 -0.003,-0.007 -0.005,-0.014 -0.008,-0.022 -0.006,-0.016 -0.012,-0.033 -0.018,-0.05 -0.003,-0.008 -0.005,-0.014 -0.008,-0.021 -0.008,-0.024 -0.017,-0.046 -0.025,-0.07 v 0 c -2.748,-7.593 -6.006,-15.264 -6.007,-23.216 v 0 c -0.001,-2.623 0.353,-5.276 1.196,-7.967 3.087,-9.855 10.069,-17.866 13.02,-27.841 v 0 c 0.472,-1.593 0.864,-3.207 1.195,-4.833"
       style="fill:#e3986b;fill-opacity:1;fill-rule:nonzero;stroke:none;stroke-width:0.1"
       id="path567" />
    <path
       d="m 128.664,342.668 c 0.022,0.214 0.033,0.429 0.033,0.645 v 0 c 0.002,2.241 -1.145,4.589 -2.209,6.419 -2.584,4.441 -5.879,8.493 -9.067,12.506 v 0 c -0.023,0.029 -0.046,0.058 -0.069,0.087 -0.005,0.005 -0.009,0.011 -0.013,0.016 -2.782,3.499 -5.624,6.953 -8.373,10.48 6.179,-5.977 12.7,-11.642 17.53,-18.808 0.925,-1.373 1.777,-2.793 2.556,-4.254 0.875,-1.64 1.861,-3.245 2.546,-4.979 0.136,-0.345 0.26,-0.702 0.367,-1.065 -1.007,-0.266 -2.09,-0.603 -3.194,-1.007 0,-0.001 -10e-4,-0.001 -0.002,-0.001 -0.017,-0.006 -0.034,-0.013 -0.051,-0.019 -10e-4,0 -10e-4,0 -0.002,-10e-4 -0.017,-0.006 -0.035,-0.012 -0.052,-0.019"
       style="fill:#e3986b;fill-opacity:1;fill-rule:nonzero;stroke:none;stroke-width:0.1"
       id="path569" />
    <path
       d="m 154.847,351.947 c -0.008,10e-4 -0.016,10e-4 -0.025,0.002 v 0 c -0.008,10e-4 -0.016,10e-4 -0.024,0.002 -0.001,0 -0.002,0 -0.002,0 -0.007,10e-4 -0.015,10e-4 -0.021,0.002 -0.002,0 -0.004,0 -0.006,0 -0.006,0.001 -0.013,0.001 -0.019,0.002 -0.002,0 -0.005,0 -0.008,0 -0.005,0.001 -0.011,0.001 -0.016,0.001 -0.003,10e-4 -0.006,10e-4 -0.009,10e-4 -0.006,0.001 -0.011,0.001 -0.016,0.001 -0.004,10e-4 -0.008,10e-4 -0.012,10e-4 -0.004,0 -0.008,10e-4 -0.012,10e-4 -0.004,0 -0.009,0.001 -0.014,0.001 -0.003,0 -0.007,10e-4 -0.01,10e-4 -0.006,0 -0.011,0.001 -0.017,0.001 -0.002,0 -0.005,0 -0.007,0 -0.006,10e-4 -0.013,10e-4 -0.019,0.002 -0.002,0 -0.004,0 -0.006,0 -0.007,0.001 -0.014,0.001 -0.021,0.002 -0.001,0 -0.002,0 -0.003,0 -0.008,0 -0.016,0.001 -0.023,0.001 -10e-4,0 -0.002,10e-4 -0.002,10e-4 -0.453,0.03 -0.942,0.046 -1.453,0.046 -0.299,0 -0.606,-0.006 -0.918,-0.017 -0.104,-0.004 -0.209,-0.008 -0.314,-0.014 0.584,1.557 0.819,3.209 0.819,4.877 v 0 c 0.001,2.128 -0.381,4.283 -0.908,6.301 -1.62,6.205 -4.514,12.098 -7.587,17.694 -0.953,1.735 -1.964,3.443 -2.995,5.141 -0.32,1.528 -0.721,3.046 -1.236,4.548 -2.161,6.304 -5.446,13.199 -10.23,18.233 v 0 c -0.199,0.771 -0.372,1.552 -0.52,2.342 2.339,-2.454 4.906,-4.715 7.363,-7.04 3.935,-3.724 7.295,-7.799 10.15,-12.4 0.254,-0.409 0.5,-0.824 0.747,-1.238 -0.08,-0.144 -0.126,-0.304 -0.126,-0.46 0,-0.24 0.106,-0.472 0.357,-0.632 v 0 c 0.001,-0.001 0.003,-0.002 0.005,-0.003 v 0 c 0.002,-10e-4 0.003,-0.002 0.005,-0.003 0,0 0,0 0,-10e-4 0.002,0 0.003,-0.001 0.005,-0.002 0,0 0,-0.001 0.001,-0.001 0.001,-10e-4 0.003,-0.002 0.004,-0.003 0.001,0 0.001,0 0.001,0 0.002,-10e-4 0.004,-0.002 0.005,-0.003 h 0.001 c 0.001,-10e-4 0.003,-0.002 0.004,-0.003 10e-4,-0.001 0.002,-0.001 0.002,-0.001 0.001,-10e-4 0.003,-0.002 0.004,-0.002 0,-10e-4 10e-4,-10e-4 0.002,-10e-4 0.001,-10e-4 0.002,-0.002 0.003,-0.002 0.001,-10e-4 0.001,-10e-4 0.002,-0.002 0.001,0 0.002,-10e-4 0.003,-10e-4 0.001,-10e-4 0.002,-10e-4 0.003,-0.002 0.001,0 0.002,-10e-4 0.002,-10e-4 0.001,-0.001 0.002,-0.001 0.003,-0.002 0.001,0 0.002,-0.001 0.003,-0.001 0.001,-10e-4 0.002,-10e-4 0.003,-0.002 0,0 0.001,0 0.002,-0.001 0.002,-10e-4 0.004,-0.002 0.006,-0.003 0.001,-10e-4 0.001,-10e-4 0.002,-10e-4 0.001,-0.001 0.002,-0.001 0.003,-0.002 0.001,0 0.002,-0.001 0.003,-0.001 0,-10e-4 0.001,-10e-4 0.002,-0.002 0.001,0 0.002,-10e-4 0.003,-10e-4 0.001,-10e-4 0.002,-10e-4 0.003,-0.002 0.001,0 0.002,0 0.003,-10e-4 0.001,0 0.002,-0.001 0.003,-0.001 0.001,-10e-4 0.001,-10e-4 0.002,-0.002 0.001,0 0.002,-0.001 0.003,-0.001 10e-4,-10e-4 0.002,-10e-4 0.003,-0.002 0.001,0 0.002,0 0.003,-10e-4 10e-4,-0.001 0.002,-0.001 0.004,-0.002 0,0 0.001,0 0.001,-10e-4 0.002,-0.001 0.004,-0.001 0.006,-0.002 0.153,-0.073 0.304,-0.144 0.454,-0.213 2.374,-4.149 4.401,-8.508 5.951,-13.025 1.803,-5.258 3.066,-10.877 2.67,-16.467 -0.189,-2.661 -0.854,-5.294 -2.045,-7.636"
       style="fill:#e3986b;fill-opacity:1;fill-rule:nonzero;stroke:none;stroke-width:0.1"
       id="path571" />
    <path
       d="m 119.895,333.135 c -1.219,0 -2.366,0.403 -3.351,1.393 -1.585,1.593 -2.34,3.904 -2.881,6.031 -0.569,2.241 -0.88,4.535 -1.168,6.825 -0.678,5.379 -1.086,10.925 -2.482,16.192 1.881,-3.554 3.507,-7.228 4.823,-10.945 0,-10e-4 0.001,-0.003 0.001,-0.005 0.01,-0.027 0.02,-0.055 0.03,-0.082 0,-0.002 10e-4,-0.003 10e-4,-0.005 0.009,-0.026 0.019,-0.053 0.028,-0.079 0.002,-0.006 0.005,-0.013 0.007,-0.019 0.009,-0.027 0.018,-0.053 0.027,-0.079 v 0 c 1.21,-3.458 2.275,-7.039 3.945,-10.312 0.621,-1.215 1.388,-2.536 2.485,-3.348 -1.046,-0.854 -1.949,-1.803 -2.619,-2.851 -0.073,-0.113 -0.105,-0.232 -0.104,-0.348 v 0 c 0.001,-0.379 0.344,-0.723 0.737,-0.723 0.057,0 0.115,0.007 0.173,0.022 2.368,0.629 4.303,2.074 6.325,3.403 2.1,1.382 4.314,2.562 6.404,3.952 0.076,-0.836 -0.013,-1.675 -0.383,-2.466 -0.467,-0.995 -1.449,-1.695 -2.323,-2.316 -2.271,-1.617 -4.843,-3.026 -7.507,-3.872 -0.735,-0.233 -1.463,-0.368 -2.168,-0.368"
       style="fill:#e3986b;fill-opacity:1;fill-rule:nonzero;stroke:none;stroke-width:0.1"
       id="path573" />
    <path
       d="m 144.488,344.359 c -0.806,0 -1.617,0.139 -2.414,0.453 -2.91,1.145 -4.6,4.116 -5.607,6.912 -2.903,8.06 -0.402,16.367 0.062,24.582 0.159,2.827 0.217,5.685 0.078,8.527 0.772,-3.586 1.227,-7.202 1.479,-10.603 0,-0.002 10e-4,-0.003 10e-4,-0.005 0,-0.01 0.001,-0.02 0.002,-0.03 0,-0.005 0.001,-0.011 0.001,-0.015 0,-0.006 0.001,-0.011 0.001,-0.017 0.011,-0.146 0.021,-0.291 0.031,-0.437 0.385,-5.597 0.434,-11.442 2.441,-16.767 0.893,-2.369 2.407,-4.846 4.466,-6.506 -1.681,-0.841 -2.865,-2.074 -2.941,-3.825 0,-0.008 0,-0.017 0,-0.025 v 0 c 0.001,-0.341 0.32,-0.664 0.663,-0.664 0.008,0 0.017,0 0.026,0 2.19,0.106 4.027,1.919 6.069,2.67 l 0.079,0.026 c 10e-4,0 0.002,0 0.003,0 0.252,0 0.464,0.081 0.631,0.211 v 0 c 0.009,0.003 0.019,0.006 0.028,0.009 0.003,10e-4 0.006,0.002 0.009,0.003 0.007,0.002 0.014,0.004 0.021,0.006 0.003,0.001 0.006,0.002 0.009,0.003 0.006,0.002 0.013,0.004 0.019,0.006 0.004,0.001 0.008,0.002 0.011,0.004 0.006,10e-4 0.012,0.003 0.018,0.005 0.004,10e-4 0.007,0.002 0.011,0.003 0.005,0.002 0.011,0.004 0.016,0.005 1.268,0.388 2.576,0.642 3.866,0.95 -0.991,-1.383 -2.207,-2.611 -3.674,-3.607 -1.608,-1.092 -3.493,-1.874 -5.405,-1.874"
       style="fill:#e3986b;fill-opacity:1;fill-rule:nonzero;stroke:none;stroke-width:0.1"
       id="path575" />
    <path
       d="m 105.983,325.591 v 0 c 0.002,0.007 0.004,0.015 0.006,0.022 10e-4,0.003 0.002,0.005 0.003,0.008 10e-4,0.005 0.002,0.01 0.004,0.015 0.001,0.003 0.001,0.006 0.002,0.009 0.002,0.006 0.004,0.013 0.006,0.019 0,0.003 10e-4,0.006 0.002,0.008 0.001,0.005 0.003,0.011 0.004,0.016 10e-4,0.004 0.002,0.007 0.003,0.011 10e-4,0.004 0.002,0.008 0.003,0.012 10e-4,0.004 0.002,0.007 0.003,0.011 10e-4,0.005 0.003,0.01 0.004,0.015 0.001,0.005 0.003,0.01 0.004,0.015 0.001,0.004 0.002,0.008 0.003,0.012 0.001,0.004 0.002,0.008 0.003,0.012 0.001,0.003 0.002,0.006 0.003,0.009 0.001,0.005 0.002,0.01 0.003,0.014 0,0.001 0.001,0.002 0.001,0.002 0.002,0.011 0.005,0.022 0.008,0.032 0,0.002 0.001,0.004 0.001,0.006 10e-4,0.005 0.003,0.01 0.004,0.015 0,0.002 0.001,0.004 0.001,0.006 0.005,0.017 0.009,0.034 0.013,0.052 0,0.001 0,0.001 0,0.002 0.002,0.006 0.003,0.012 0.004,0.018 0.001,10e-4 0.001,10e-4 0.001,0.002 0.134,0.576 0.196,1.162 0.195,1.752 -10e-4,2.622 -1.221,5.33 -2.674,7.683 1.073,-1.151 2.15,-2.302 3.139,-3.527 1.063,-1.318 2.084,-2.842 2.428,-4.487 -1.11,-0.49 -2.144,-1.092 -3.152,-1.748 -0.008,-0.006 -0.017,-0.011 -0.025,-0.016"
       style="fill:#e3986b;fill-opacity:1;fill-rule:nonzero;stroke:none;stroke-width:0.1"
       id="path577" />
    <path
       d="m 119.016,373.273 c -0.088,0 -0.175,0 -0.263,10e-4 -4.908,0.067 -9.454,2.126 -13.145,5.234 -0.237,0.253 -0.478,0.501 -0.712,0.756 -1.088,1.57 -2.272,3.077 -3.552,4.443 2.298,-1.457 4.927,-2.237 7.606,-2.632 1.187,-0.175 2.382,-0.265 3.572,-0.265 4.436,0 8.798,1.253 12.363,4.051 3.895,3.056 6.38,7.617 7.124,12.47 0.4,-0.703 0.807,-1.399 1.217,-2.09 v 0 c 0.082,-0.176 0.158,-0.357 0.237,-0.534 0.469,-1.64 0.812,-3.311 1.06,-5.001 -0.268,-0.227 -0.401,-0.602 -0.169,-0.994 0.158,-0.267 0.285,-0.538 0.396,-0.809 0.131,-1.231 0.216,-2.469 0.263,-3.71 -0.277,-1.222 -0.864,-2.409 -1.618,-3.486 -1.569,-2.24 -3.788,-4.089 -6.166,-5.419 -2.484,-1.39 -5.376,-2.015 -8.213,-2.015"
       style="fill:#e3986b;fill-opacity:1;fill-rule:nonzero;stroke:none;stroke-width:0.1"
       id="path579" />
    <path
       d="m 74.4934,324.205 c -1.5008,0 -3.0008,0.166 -4.47,0.512 -0.1566,0.037 -0.3089,0.084 -0.464,0.124 -0.5477,0.557 -1.0895,1.123 -1.6219,1.7 0.6316,-0.096 1.2695,-0.149 1.9113,-0.149 0.4731,0 0.9477,0.028 1.4242,0.09 2.7887,0.36 5.5293,1.656 7.6125,3.54 3.9079,3.533 4.8368,9.066 2.6375,13.789 -1.1707,2.515 -2.9261,4.778 -5.0855,6.505 2.2035,-0.863 4.2969,-2.081 6.1539,-3.322 h 4e-4 c 0.0145,-0.01 0.0293,-0.02 0.0437,-0.03 v 0 c 0.0071,-0.004 0.0141,-0.009 0.0211,-0.014 0.0043,-0.003 0.0094,-0.006 0.0137,-0.009 0.0024,-0.002 0.0047,-0.003 0.007,-0.005 0.0067,-0.004 0.0133,-0.009 0.02,-0.013 h 4e-4 c 3.5066,-2.363 6.9593,-5.81 7.5757,-10.16 0.1379,-2.499 -0.564,-4.979 -2.1718,-7.036 -1.1856,-1.517 -2.7036,-2.609 -4.3774,-3.427 -0.3484,-0.078 -0.7031,-0.14 -1.0707,-0.165 -0.0066,0 -0.0133,-10e-4 -0.0199,-10e-4 -0.0035,0 -0.007,-0.001 -0.0109,-0.001 -8e-4,0 -0.0016,0 -0.0028,0 -0.0031,0 -0.0066,-10e-4 -0.0101,-10e-4 h -4e-4 c -0.0035,0 -0.0071,0 -0.0106,-0.001 -0.0011,0 -0.0019,0 -0.0027,0 -0.0035,0 -0.0066,-10e-4 -0.0102,-10e-4 -4e-4,0 -4e-4,0 -7e-4,0 -0.0036,0 -0.0075,-10e-4 -0.011,-10e-4 -4e-4,0 -0.0012,0 -0.0015,0 -0.0075,-0.001 -0.0153,-0.002 -0.0227,-0.003 v 0 c -0.473,-0.058 -0.7734,-0.34 -0.902,-0.683 -0.6753,-0.232 -1.3613,-0.437 -2.0554,-0.609 -1.6696,-0.412 -3.3852,-0.629 -5.0992,-0.629"
       style="fill:#e3986b;fill-opacity:1;fill-rule:nonzero;stroke:none;stroke-width:0.1"
       id="path581" />
    <path
       d="m 210.078,363.047 c -0.473,0 -0.945,0.014 -1.418,0.042 -6.667,0.4 -13.119,3.56 -17.804,8.27 -2.187,2.2 -4.077,4.776 -5.679,7.463 -0.437,1.43 -0.84,2.869 -1.199,4.32 1.624,-1.697 3.482,-3.186 5.435,-4.472 2.205,-1.453 4.517,-2.533 7.077,-3.198 2.368,-0.614 4.823,-0.938 7.273,-0.938 0.782,0 1.563,0.033 2.34,0.1 5.561,0.478 10.774,2.912 15.095,6.381 1.404,1.127 6.46,8.012 9.146,8.012 0.686,0 1.217,-0.448 1.495,-1.555 1.207,-4.818 -1.456,-10.985 -4.294,-14.729 -1.193,-1.574 -2.577,-3.007 -4.098,-4.266 -0.786,-0.651 -2.753,-2.681 -3.265,-2.957 -0.595,-0.322 -1.204,-0.621 -1.833,-0.88 -2.626,-1.081 -5.442,-1.593 -8.271,-1.593"
       style="fill:#e3986b;fill-opacity:1;fill-rule:nonzero;stroke:none;stroke-width:0.1"
       id="path583" />
    <path
       d="m 135.969,137.089 c -1.808,10.249 -4.398,20.351 -7.512,30.279 -0.003,0.009 -0.005,0.017 -0.008,0.026 -0.01,0.03 -0.019,0.06 -0.028,0.09 -0.013,0.04 -0.026,0.081 -0.038,0.12 v 0 c -6.749,21.452 -15.87,42.06 -25.032,62.564 -0.03,0.065 -0.059,0.131 -0.088,0.197 -0.005,0.011 -0.011,0.022 -0.016,0.034 -0.024,0.053 -0.047,0.106 -0.071,0.159 -2.031,4.538 -4.1037,9.067 -6.1397,13.613 1.2063,-1.599 2.4067,-3.204 3.5997,-4.818 13.352,-18.06 24.079,-38.401 29.983,-60.135 3.017,-11.108 4.935,-22.615 5.286,-34.128 0.082,-2.667 0.091,-5.334 0.064,-8.001"
       style="fill:#e3986b;fill-opacity:1;fill-rule:nonzero;stroke:none;stroke-width:0.1"
       id="path585" />
    <path
       d="m 215.484,63.8871 c 4.822,3.568 9.002,8.0418 12.12,13.1008 2.693,4.3703 4.521,9.2133 5.143,14.3191 0.671,5.5141 -0.05,11.124 -1.532,16.452 -2.784,10.015 -7.928,19.048 -14.221,27.251 -5.819,7.584 -12.385,14.574 -18.007,22.313 -6.025,8.295 -11.287,17.907 -12.303,28.275 -1.123,11.465 2.799,22.679 8.526,32.456 2.714,4.633 5.765,8.981 9.387,12.952 3.449,3.782 7.256,7.213 11.153,10.523 7.085,6.018 14.815,11.619 20.721,18.868 -5.087,-14.253 -6.931,-28.835 -6.932,-43.541 -10e-4,-24.775 5.228,-49.909 8.989,-74.463 0.001,-0.005 0.002,-0.01 0.002,-0.016 0.006,-0.038 0.013,-0.08 0.018,-0.118 0.001,-0.002 0.001,-0.006 0.002,-0.009 0.005,-0.035 0.011,-0.071 0.016,-0.106 0.004,-0.029 0.009,-0.058 0.013,-0.087 0.002,-0.011 0.003,-0.021 0.005,-0.032 0.005,-0.031 0.01,-0.067 0.015,-0.099 0.002,-0.008 0.002,-0.014 0.004,-0.022 0.612,-4.02 1.184,-8.022 1.687,-12.006 v -0.005 c 0.008,-0.064 0.016,-0.122 0.024,-0.186 0,-0.002 0,-0.004 0,-0.006 0.003,-0.019 0.005,-0.039 0.008,-0.057 0,-0.003 0,-0.001 0,-0.004 0.005,-0.042 0.01,-0.079 0.015,-0.121 0.001,-0.006 0.001,-0.01 0.002,-0.015 0.002,-0.016 0.004,-0.034 0.006,-0.05 0.001,-0.003 0.001,-0.006 0.001,-0.009 0.003,-0.018 0.005,-0.035 0.007,-0.054 0,-0.002 0.001,-0.009 0.002,-0.012 0.002,-0.018 0.004,-0.034 0.006,-0.052 v -0.002 c 0.011,-0.085 0.021,-0.166 0.031,-0.251 0.002,-0.01 0.003,-0.024 0.005,-0.034 0.001,-0.011 0.002,-0.019 0.003,-0.03 0.003,-0.021 0.006,-0.042 0.008,-0.063 0.906,-7.349 1.857,-14.964 1.859,-22.5 0.001,-3.813 -0.241,-7.6048 -0.855,-11.3329 -1.666,-10.1231 -6.715,-18.995 -14.997,-25.145 -0.017,-0.0121 -0.032,-0.0242 -0.049,-0.0359 -0.004,-0.0031 -0.008,-0.0062 -0.013,-0.0102 -0.013,-0.0089 -0.024,-0.0179 -0.038,-0.0281 -0.004,-0.0027 -0.008,-0.0058 -0.013,-0.009 -0.015,-0.0121 -0.031,-0.023 -0.047,-0.0347 -0.005,-0.0043 -0.01,-0.0071 -0.015,-0.0114 -0.01,-0.0066 -0.02,-0.0148 -0.029,-0.0218 -0.009,-0.0059 -0.018,-0.0129 -0.027,-0.0188 -0.005,-0.0043 -0.011,-0.0094 -0.016,-0.0121 -3.296,-2.4141 -6.897,-4.373 -10.684,-5.9"
       style="fill:#e3986b;fill-opacity:1;fill-rule:nonzero;stroke:none;stroke-width:0.1"
       id="path587" />
    <path
       d="m 83.2289,290.49 c -0.0109,1.569 0.0406,3.138 0.1766,4.703 0.0015,0.014 0.0027,0.028 0.0039,0.042 4e-4,0.005 8e-4,0.01 0.0011,0.014 0.0016,0.02 0.0036,0.039 0.0051,0.059 0.1203,1.343 0.2071,2.652 0.2067,3.928 v 0 c -8e-4,3.424 -0.6258,6.614 -2.893,9.612 -2.9641,3.92 -6.9742,7.049 -10.4105,10.535 v 0 c -0.0075,0.008 -0.0149,0.015 -0.0223,0.023 -0.0024,0.002 -0.0043,0.004 -0.0067,0.007 -0.0058,0.005 -0.0121,0.012 -0.0175,0.018 -0.0016,0.001 -0.0039,0.003 -0.0055,0.005 -0.0156,0.016 -0.0316,0.032 -0.0473,0.048 -0.0011,0.001 -0.0019,0.002 -0.0035,0.003 -0.007,0.008 -0.0137,0.015 -0.0211,0.022 -0.0011,10e-4 -0.0015,0.002 -0.0027,0.003 -0.0078,0.008 -0.0149,0.015 -0.0227,0.023 -0.0019,0.002 -0.0039,0.004 -0.0054,0.006 -0.0071,0.007 -0.0141,0.014 -0.0211,0.021 -4e-4,0 -4e-4,10e-4 -8e-4,10e-4 -4.2445,4.323 -8.5832,9.327 -10.0559,15.079 1.0996,-2.154 2.4282,-4.176 3.9379,-6.084 4.0024,-5.056 9.0785,-9.11 13.3653,-13.907 2.3918,-2.676 4.6058,-5.572 5.8773,-8.962 1.2988,-3.463 1.7527,-7.252 1.2027,-10.916 -0.2277,-1.518 -0.6023,-2.966 -1.2406,-4.283"
       style="fill:#e3986b;fill-opacity:1;fill-rule:nonzero;stroke:none;stroke-width:0.1"
       id="path589" />
    <path
       d="m 100.711,317.788 c -2.0176,0 -3.67,1.325 -4.7028,3.185 -1.2141,2.186 -1.7019,4.693 -1.9992,7.211 0.0226,0.041 0.0445,0.081 0.0664,0.122 0,0 0,0 4e-4,0.001 0.0019,0.004 0.0047,0.008 0.007,0.013 4e-4,0.001 0.0012,0.002 0.0016,0.003 0.0015,0.003 0.0035,0.007 0.0051,0.01 0.0578,0.109 0.1117,0.218 0.1609,0.324 0.0012,0.002 0.0023,0.005 0.0035,0.007 0.6231,-0.915 1.3641,-1.749 2.2352,-2.452 1.3422,-1.082 4.0939,-2.347 6.0709,-2.347 0.479,0 0.912,0.074 1.27,0.243 L 103.677,324 c -0.754,-0.536 -3.088,-1.828 -3.084,-3.138 v 0 c 10e-4,-0.214 0.064,-0.429 0.208,-0.642 0.241,-0.358 0.551,-0.5 0.893,-0.5 1.07,0 2.453,1.391 3.041,1.871 v 0 c 0.01,0.008 0.019,0.016 0.029,0.024 0.004,0.003 0.007,0.006 0.011,0.009 0.007,0.005 0.013,0.011 0.02,0.017 0.008,0.005 0.015,0.011 0.022,0.017 0.004,0.003 0.007,0.006 0.011,0.009 0.007,0.006 0.014,0.011 0.021,0.017 10e-4,10e-4 0.002,0.002 0.003,0.003 1.416,1.146 2.905,2.188 4.293,3.355 -0.026,-0.108 -0.049,-0.217 -0.082,-0.326 -0.504,-1.652 -1.699,-3.03 -2.923,-4.203 -1.148,-1.101 -2.517,-2.091 -4.066,-2.529 -0.47,-0.133 -0.925,-0.196 -1.363,-0.196"
       style="fill:#e3986b;fill-opacity:1;fill-rule:nonzero;stroke:none;stroke-width:0.1"
       id="path591" />
    <path
       d="m 188.908,344.114 c -2.033,0 -4.119,0.756 -5.94,1.488 -2.356,0.948 -4.582,2.181 -6.918,3.174 -0.118,0.051 -0.235,0.073 -0.347,0.073 -0.112,0 -0.22,-0.023 -0.319,-0.063 -1.396,0.78 -2.723,1.671 -3.885,2.717 -1.228,1.105 -2.282,2.328 -2.83,3.912 -0.509,1.473 -0.626,3.022 -0.607,4.57 0.02,1.624 0.185,3.242 0.286,4.862 0.124,1.969 0.08,3.943 0.117,5.914 0.077,4.15 0.307,8.299 0.788,12.422 0.135,1.154 0.295,2.305 0.472,3.453 -0.061,-1.726 -0.092,-3.454 -0.092,-5.181 0,-2.349 0.058,-4.697 0.179,-7.04 0,-0.004 10e-4,-0.007 10e-4,-0.011 0.001,-0.03 0.003,-0.06 0.005,-0.091 0.246,-4.693 0.616,-9.702 2.288,-14.139 0.313,-0.832 0.79,-1.911 1.423,-2.867 -0.588,-0.147 -1.122,-0.416 -1.555,-0.87 -0.113,-0.119 -0.177,-0.281 -0.177,-0.442 v 0 c 0,-0.104 0.026,-0.207 0.081,-0.3 1.357,-2.245 5.051,-1.997 7.353,-2.537 3.338,-0.783 6.511,-1.999 9.784,-2.986 0.055,-0.017 0.11,-0.025 0.163,-0.025 0.354,0 0.653,0.342 0.655,0.676 v 0 c 0.001,0.15 -0.058,0.298 -0.198,0.414 -1.455,1.211 -3.058,2.194 -4.746,3.019 0.955,1.74 1.347,3.557 1.348,5.391 v 0 c 0.001,2.555 -0.757,5.145 -1.81,7.608 -2.454,5.741 -5.081,11.058 -6.193,17.274 -0.683,3.821 -1.012,7.835 -1.014,11.9 -0.003,8.323 1.363,16.86 3.861,24.392 v 0 c 0.004,0.01 0.007,0.02 0.01,0.03 0.001,0.003 0.002,0.005 0.003,0.008 0.002,0.007 0.005,0.015 0.008,0.022 0,0.003 0.001,0.006 0.002,0.009 0.003,0.008 0.005,0.015 0.008,0.023 0.001,0.002 0.002,0.005 0.003,0.007 0.002,0.009 0.005,0.018 0.008,0.026 0.001,10e-4 0.001,0.002 0.001,0.003 0.004,0.01 0.007,0.02 0.01,0.03 0.001,0.001 0,0 0.001,0.001 1.807,5.373 4.892,10.676 9.163,14.466 -3.839,-5.446 -6.129,-12.091 -7.696,-18.44 -1.971,-7.991 -2.868,-16.203 -1.947,-24.401 0.74,-6.594 2.297,-13.065 4.601,-19.287 1.134,-3.062 2.434,-6.064 3.864,-9 1.343,-2.755 2.862,-5.416 4.234,-8.156 1.033,-2.061 2.179,-4.414 1.946,-6.788 -0.242,-2.459 -2.488,-4.574 -4.839,-5.097 -0.51,-0.113 -1.03,-0.163 -1.553,-0.163"
       style="fill:#e3986b;fill-opacity:1;fill-rule:nonzero;stroke:none;stroke-width:0.1"
       id="path593" />
    <path
       d="m 99.875,378.606 c 2.74,-3.222 5.261,-6.727 7.512,-10.409 -2.279,-10.63 -14.012,-17.481 -24.4034,-13.53 -9.4559,3.595 -13.1164,13.984 -7.7762,22.584 2.4977,4.022 6.6887,7.323 11.4508,8.087 5.4484,0.875 9.918,-2.853 13.2168,-6.732"
       style="fill:#ebb287;fill-opacity:1;fill-rule:nonzero;stroke:none;stroke-width:0.1"
       id="path595" />
    <path
       d="m 89.1438,353.535 c -2.0516,0 -4.1305,0.36 -6.1602,1.132 v 0 c -0.0145,0.005 -0.0289,0.01 -0.043,0.016 -0.0019,0.001 -0.0027,0.001 -0.0047,0.002 -1.9394,0.744 -3.6296,1.777 -5.0515,3.019 1.6097,-0.544 3.2937,-0.8 4.9949,-0.8 0.5359,0 1.0734,0.026 1.6109,0.075 5.2934,0.491 10.2196,3.091 13.8887,6.897 2.5601,2.657 4.5531,5.929 5.5881,9.478 1.178,-1.645 2.305,-3.338 3.369,-5.074 0.017,-0.028 0.034,-0.055 0.051,-0.083 -1.834,-8.553 -9.7909,-14.662 -18.2432,-14.662"
       style="fill:#e3986b;fill-opacity:1;fill-rule:nonzero;stroke:none;stroke-width:0.1"
       id="path597" />
    <path
       d="m 193.332,368.331 c -0.316,0.473 0.28,0.875 0.698,0.697 5.083,-2.159 10.45,-4.627 16.065,-4.698 5.665,-0.071 11.365,1.764 15.86,5.202 0.538,0.411 1.171,-0.462 0.711,-0.921 -4.614,-4.594 -10.435,-7.481 -17.015,-7.619 -6.369,-0.133 -12.702,1.924 -16.319,7.339"
       style="fill:#271922;fill-opacity:1;fill-rule:nonzero;stroke:none;stroke-width:0.1"
       id="path599" />
    <path
       d="m 203.029,359.907 c 2.103,-1.024 4.004,-1.932 6.404,-1.396 0.606,0.135 0.859,-0.76 0.257,-0.934 -2.451,-0.712 -5.581,-0.38 -7.114,1.876 -0.202,0.297 0.18,0.587 0.453,0.454"
       style="fill:#271922;fill-opacity:1;fill-rule:nonzero;stroke:none;stroke-width:0.1"
       id="path601" />
    <path
       d="m 97.6355,337.715 c 3.0705,-3.466 6.1455,-7.181 6.3775,-11.872 -1.061,-1.71 -5.0075,1.228 -5.9517,2.157 -1.7156,1.688 -2.7734,3.658 -3.2457,6.012 -0.1605,0.8 -0.2863,1.722 -0.4429,2.675 -0.0289,1.951 -0.4914,3.872 -1.2993,5.706 1.5805,-1.501 3.1172,-3.047 4.5621,-4.678 m 24.7175,12.971 c 1.576,-2.327 4.369,-5.765 4.335,-8.818 -1.162,-0.516 -2.306,-1.11 -3.376,-1.78 -1.718,0.236 -2.813,3.745 -3.319,5.033 -0.929,2.366 -1.67,4.804 -2.453,7.22 -1.023,3.158 -2.239,6.229 -3.547,9.264 2.897,-3.553 5.789,-7.123 8.36,-10.919 m 25.897,16.738 c 1.695,-4.605 3.802,-10.765 1.806,-15.596 -0.738,-0.091 -1.479,-0.217 -2.196,-0.386 -2.074,1.465 -2.863,4.131 -3.549,6.551 -0.859,3.031 -1.397,6.058 -1.56,9.212 -0.233,4.506 -0.267,9.033 -0.739,13.499 2.389,-4.282 4.55,-8.697 6.238,-13.28 M 60.2258,343.288 c 1.0953,3.748 3.6676,6.917 7.5496,7.904 5.2051,1.324 10.6437,-1.403 14.8601,-4.228 3.7879,-2.537 7.5368,-6.341 7.7301,-11.183 0.1797,-4.492 -3.0172,-9.341 -7.732,-9.647 -1.4129,-0.092 -1.4082,-2.098 0,-2.193 3.8574,-0.26 7.1793,1.758 9.3062,4.907 0.443,0.656 0.8133,1.318 1.1305,1.983 0.1094,-0.258 0.2235,-0.513 0.3488,-0.763 -0.0617,-0.191 -0.1355,-0.381 -0.2211,-0.568 -0.3851,-0.841 -0.9371,-1.398 -1.625,-1.986 -0.3386,-0.289 -0.5261,-0.437 -0.6914,-0.855 -0.0781,-0.197 0.0852,-0.416 0.2668,-0.471 1.3375,-0.404 2.5278,1.236 3.1055,2.476 0.6231,-0.915 1.3641,-1.749 2.2352,-2.452 1.6672,-1.345 5.5079,-2.969 7.3409,-2.104 L 103.677,324 c -0.877,-0.624 -3.8946,-2.271 -2.876,-3.78 0.999,-1.481 3.158,0.738 3.934,1.371 1.959,1.6 4.068,2.985 5.86,4.771 0.509,0.507 -0.004,1.564 -0.744,1.279 -1.386,-0.536 -2.646,-1.254 -3.868,-2.05 1.241,4.339 -1.836,9.275 -4.344,12.619 -2.1488,2.866 -4.7691,5.407 -7.3788,7.847 -1.2368,1.157 -2.4454,2.33 -3.759,3.334 l 0.0406,0.002 c 9.4982,0.689 16.5432,8.178 17.7652,17.261 2.667,-4.575 4.913,-9.399 6.623,-14.292 1.21,-3.458 2.275,-7.039 3.945,-10.312 0.621,-1.215 1.388,-2.536 2.485,-3.348 -1.046,-0.854 -1.949,-1.803 -2.619,-2.851 -0.344,-0.537 0.225,-1.203 0.806,-1.049 2.368,0.629 4.303,2.074 6.325,3.403 2.214,1.456 4.554,2.688 6.741,4.179 0.68,0.464 0.267,1.571 -0.57,1.352 -1.061,-0.278 -2.21,-0.636 -3.379,-1.068 0.256,2.429 -1.009,5.057 -2.176,7.064 -2.584,4.441 -5.879,8.493 -9.067,12.506 -3.029,3.812 -6.134,7.564 -9.109,11.418 -1.927,3.561 -4.308,7.268 -7.165,10.259 -1.1732,2.077 -2.156,4.238 -2.7904,6.499 -1.8437,6.571 0.5207,13.813 6.5374,17.335 5.229,3.062 11.332,3.233 16.723,0.4 3.723,-1.956 6.63,-4.778 8.902,-8.107 0.86,-1.629 1.774,-3.231 2.707,-4.801 3.127,-6.727 4.421,-14.595 4.896,-21.515 0.385,-5.597 0.434,-11.442 2.441,-16.767 0.893,-2.369 2.407,-4.846 4.466,-6.506 -1.681,-0.841 -2.865,-2.074 -2.941,-3.825 -0.015,-0.359 0.328,-0.706 0.689,-0.689 2.19,0.106 4.027,1.919 6.069,2.67 l 0.079,0.026 c 0.253,-10e-4 0.466,0.081 0.634,0.211 2.2,0.693 4.533,0.961 6.677,1.786 0.486,0.187 0.624,1.009 0,1.131 -1.054,0.208 -2.637,0.306 -4.366,0.221 1.329,3.543 0.851,7.578 -0.089,11.178 -1.62,6.205 -4.514,12.098 -7.587,17.694 -0.953,1.735 -1.964,3.443 -2.995,5.141 -0.32,1.528 -0.721,3.046 -1.236,4.548 -2.161,6.304 -5.446,13.199 -10.23,18.233 -0.743,2.88 -1.15,5.888 -1.085,9.077 0.246,11.9 10.82,21.361 22.824,19.309 12.982,-2.22 19.641,-16.612 19.704,-28.692 0.031,-5.898 -2.443,-11.182 -7.41,-14.46 -2.307,-1.522 -4.986,-2.554 -7.735,-2.898 -2.416,-0.303 -5.113,-0.633 -7.506,-0.149 -0.965,0.196 -1.696,-1.208 -0.708,-1.677 2.979,-1.415 5.603,-2.311 8.924,-1.882 2.945,0.38 5.814,1.363 8.374,2.875 2.008,1.186 3.727,2.648 5.159,4.32 -0.144,-1.218 -0.263,-2.44 -0.34,-3.669 -0.344,-5.526 -0.406,-11.087 -0.116,-16.619 0.246,-4.693 0.616,-9.702 2.288,-14.139 0.313,-0.832 0.79,-1.911 1.423,-2.867 -0.588,-0.147 -1.122,-0.416 -1.555,-0.87 -0.186,-0.195 -0.238,-0.505 -0.096,-0.742 1.357,-2.245 5.051,-1.997 7.353,-2.537 3.338,-0.783 6.511,-1.999 9.784,-2.986 0.583,-0.176 1.119,0.65 0.62,1.065 -1.455,1.211 -3.058,2.194 -4.746,3.019 2.285,4.162 1.347,8.767 -0.462,12.999 -2.454,5.741 -5.081,11.058 -6.193,17.274 -2.083,11.645 -0.87,25.082 2.847,36.292 3.148,9.49 10.274,18.815 20.898,19.994 10.118,1.123 18.963,-7.338 24.384,-14.955 12.739,-17.896 13.012,-40.929 5.736,-61.034 -3.655,-10.098 -8.21,-20.334 -4.811,-31.183 3.087,-9.855 10.069,-17.866 13.02,-27.841 3.052,-10.312 3.126,-21.422 0.838,-31.9 -0.482,-2.208 -1.131,-4.362 -1.855,-6.49 -0.747,-1.648 -1.443,-3.323 -2.09,-5.03 -16.391,-43.238 -2.202,-89.57 3.207,-133.435 1.365,-11.067 2.831,-22.736 1.004,-33.8329 C 239.746,84.991 234.697,76.1191 226.415,69.9691 212.037,59.293 191.824,57.241 175.1,62.918 c -8.095,2.7468 -15.73,7.3082 -21.61,13.5492 -6.952,7.3777 -10.55,16.8808 -12.674,26.6538 -2.294,10.553 -2.748,21.428 -4.522,32.073 -1.829,10.981 -4.572,21.795 -7.911,32.41 -6.749,21.452 -15.87,42.06 -25.032,62.564 -4.6553,10.417 -9.5584,20.779 -13.694,31.417 -4.1265,10.615 -7.2675,22.266 -6.2414,33.723 0.4434,4.948 0.4262,9.425 -2.6863,13.54 -2.9641,3.92 -6.9742,7.049 -10.4105,10.535 -6.3008,6.394 -12.9047,14.288 -10.093,23.905 m 118.8812,28.306 c 2.404,-4.931 6.674,-11.101 4.519,-16.756 -1.011,0.438 -2.046,0.831 -3.096,1.18 -0.94,0.311 -2.174,0.78 -3.445,1.096 -4.728,5.403 -3.967,14.27 -3.816,21.031 0.093,4.16 0.334,8.323 0.592,12.479 0.114,-1.09 0.246,-2.178 0.407,-3.26 0.819,-5.478 2.41,-10.788 4.839,-15.77 m -79.232,7.012 c 2.74,-3.222 5.261,-6.727 7.512,-10.409 -2.279,-10.63 -14.012,-17.481 -24.4034,-13.53 -9.4559,3.595 -13.1164,13.984 -7.7762,22.584 2.4977,4.022 6.6887,7.323 11.4508,8.087 5.4484,0.875 9.918,-2.853 13.2168,-6.732 M 59.5883,326.939 c 2.7262,-4.299 6.398,-7.86 10.2433,-11.147 4.3832,-3.748 11.1778,-7.664 11.7422,-13.969 0.2684,-2.994 -0.7152,-6.018 -1.3297,-8.919 -0.5906,-2.788 -0.9988,-5.575 -1.1066,-8.429 -0.2332,-6.183 1.2645,-12.167 3.1813,-18.008 3.821,-11.645 9.2578,-22.809 14.2468,-33.986 9.9084,-22.198 19.9484,-44.43 27.1254,-67.698 3.571,-11.576 6.421,-23.393 8.134,-35.392 1.643,-11.516 2.194,-23.296 5.257,-34.568 5.315,-19.5601 20.775,-33.4421 40.222,-38.325 18.718,-4.7011 39.225,-1.014 54.122,11.575 8.115,6.8579 13.018,16.279 14.568,26.7469 1.748,11.8001 0.291,23.9521 -1.224,35.6991 -3.282,25.442 -9.373,50.52 -11.08,76.161 -0.947,14.222 -0.47,28.489 2.229,42.327 1.603,4.174 3.229,8.342 4.841,12.51 2.292,5.93 4.631,11.978 5.834,18.238 2.305,11.994 0.228,24.808 -4.776,35.868 -4.639,10.255 -12.6,19.001 -10.434,31.03 1.051,5.836 3.475,11.315 5.485,16.858 2.028,5.596 3.514,11.346 4.337,17.244 2.91,20.867 -3.125,43.829 -19.774,57.708 -7.919,6.601 -17.694,9.291 -27.347,4.748 -9.405,-4.425 -15.044,-13.746 -17.764,-23.445 -0.524,-1.87 -0.975,-3.765 -1.357,-5.678 -0.682,4.656 -2.252,9.26 -4.211,13.373 -2.907,6.106 -7.07,11.164 -13.479,13.7 -12.368,4.894 -25.665,-1.243 -30.578,-13.417 -2.102,-5.21 -2.131,-10.41 -0.976,-15.48 -3.117,2.181 -6.729,3.586 -10.909,3.782 -12.614,0.592 -21.8704,-11.687 -20.1161,-23.703 0.2067,-1.416 0.5621,-2.793 1.0223,-4.137 -3.0336,1.667 -6.4504,2.382 -10.2707,1.527 -9.8418,-2.202 -17.7957,-12.628 -16.7934,-22.734 0.4016,-4.051 2.1317,-7.662 4.6926,-10.548 -5.6043,0.71 -11.0691,-0.86 -14.5766,-5.854 -4.8515,-6.909 -3.4707,-16.893 0.8192,-23.658"
       style="fill:#271922;fill-opacity:1;fill-rule:nonzero;stroke:none;stroke-width:0.1"
       id="path603" />
    <path
       d="m 127.873,372.197 c -3.369,-1.672 -13.434,-4.205 -14.054,1.998 -0.04,0.406 0.405,0.633 0.742,0.565 1.752,-0.353 3.371,-1.159 5.186,-1.275 2.058,-0.131 4.282,0.326 6.229,0.98 4.631,1.555 10.761,5.581 8.408,11.283 -0.101,0.246 0.29,0.394 0.42,0.177 3.339,-5.6 -2.128,-11.344 -6.931,-13.728"
       style="fill:#271922;fill-opacity:1;fill-rule:nonzero;stroke:none;stroke-width:0.1"
       id="path605" />
    <path
       d="m 125.164,368.263 c 2.11,0.264 4.069,0.746 5.284,2.653 0.229,0.359 0.777,0.042 0.572,-0.335 -1.086,-2.002 -3.606,-3.726 -5.924,-2.818 -0.275,0.107 -0.22,0.464 0.068,0.5"
       style="fill:#271922;fill-opacity:1;fill-rule:nonzero;stroke:none;stroke-width:0.1"
       id="path607" />
    <path
       d="m 152.551,385.569 c -0.305,0.31 -0.052,0.737 0.325,0.784 2.128,0.264 4.07,-0.069 6.158,0.637 2.024,0.683 3.765,1.867 5.7,2.738 0.241,0.108 0.446,-0.154 0.278,-0.361 -2.435,-3.006 -8.892,-7.413 -12.461,-3.798"
       style="fill:#271922;fill-opacity:1;fill-rule:nonzero;stroke:none;stroke-width:0.1"
       id="path609" />
    <path
       d="m 189.136,372.592 c -4.297,2.948 -9.107,9.318 -8.508,14.799 0.024,0.218 0.303,0.4 0.479,0.198 1.806,-2.065 2.631,-4.607 3.935,-6.976 1.425,-2.588 3.063,-5.036 4.513,-7.602 0.142,-0.253 -0.156,-0.599 -0.419,-0.419"
       style="fill:#271922;fill-opacity:1;fill-rule:nonzero;stroke:none;stroke-width:0.1"
       id="path611" />
    <path
       d="m 180.702,396.295 c -0.091,-0.411 -0.752,-0.189 -0.559,0.236 0.132,0.291 0.264,0.583 0.397,0.874 0.099,0.219 0.42,0.058 0.372,-0.157 -0.07,-0.318 -0.14,-0.635 -0.21,-0.953"
       style="fill:#271922;fill-opacity:1;fill-rule:nonzero;stroke:none;stroke-width:0.1"
       id="path613" />
    <path
       d="m 172.867,230.285 c 5.048,2.565 10.524,4.032 15.977,5.434 10.224,2.629 22.489,5.922 29.238,14.614 0.441,0.568 1.411,-0.177 1.001,-0.772 -6.313,-9.158 -15.517,-13.872 -25.926,-16.968 -5.642,-1.678 -11.37,-2.875 -17.063,-4.318 -3.092,-0.784 -6.025,-1.569 -8.924,-2.941 -2.789,-1.319 -5.213,-3.107 -7.836,-4.696 -0.316,-0.191 -0.579,0.225 -0.371,0.48 3.48,4.271 9.105,6.729 13.904,9.167"
       style="fill:#271922;fill-opacity:1;fill-rule:nonzero;stroke:none;stroke-width:0.1"
       id="path615" />
    <path
       d="m 174.757,225.197 c 3.319,1.518 6.87,2.233 10.509,1.793 0.413,-0.05 0.603,-0.707 0.108,-0.801 -3.405,-0.652 -6.797,-1.491 -9.93,-3.015 -2.741,-1.333 -4.875,-3.634 -7.665,-4.805 -0.312,-0.131 -0.684,0.258 -0.565,0.565 1.209,3.089 4.666,4.946 7.543,6.263"
       style="fill:#271922;fill-opacity:1;fill-rule:nonzero;stroke:none;stroke-width:0.1"
       id="path617" />
    <path
       d="m 70.5016,325.385 c 1.6824,-0.941 3.225,-1.832 5.2179,-1.919 0.1696,-0.008 0.2118,-0.253 0.041,-0.301 -2.0886,-0.584 -4.4609,-0.442 -6.1898,1.013 -0.684,0.575 0.1906,1.62 0.9309,1.207"
       style="fill:#271922;fill-opacity:1;fill-rule:nonzero;stroke:none;stroke-width:0.1"
       id="path619" />
    <path
       d="m 74.5379,321.243 c 1.1324,0.253 2.2625,-0.085 3.4113,-0.118 1.4395,-0.041 2.7922,0.07 4.1793,0.481 0.3817,0.113 0.6406,-0.467 0.275,-0.653 -2.141,-1.089 -6.0316,-2.309 -8.0344,-0.349 -0.1988,0.194 -0.114,0.576 0.1688,0.639"
       style="fill:#271922;fill-opacity:1;fill-rule:nonzero;stroke:none;stroke-width:0.1"
       id="path621" />
    <path
       d="m 133.666,228.151 c -3.31,0 -6.684,0.863 -10.091,2.941 -11.985,7.309 -20.588,20.273 -23.8758,33.953 -3.7918,15.778 0.7818,28.642 9.3838,41.773 7.551,11.527 16.483,21.058 29.613,26.165 7.081,2.755 14.554,3.99 22.064,3.99 9.512,0 19.087,-1.981 28.016,-5.369 3.567,-1.353 7.032,-2.931 10.348,-4.697 16.141,-8.596 37.97,-26.982 31.132,-47.667 -7.008,-21.196 -31.513,-22.502 -49.378,-28 -10.133,-3.118 -19.145,-8.937 -27.624,-15 -6.049,-4.326 -12.678,-8.089 -19.588,-8.089"
       style="fill:#f1c49f;fill-opacity:1;fill-rule:nonzero;stroke:none;stroke-width:0.1"
       id="path623" />
    <path
       d="m 207.69,388.631 c -1.8,0 -3.629,0.241 -5.431,0.728 -8.38,2.263 -12.942,8.354 -13.765,16.936 -0.841,8.777 3.768,18.982 11.66,23.323 2.236,1.231 4.722,1.963 7.267,1.963 0.045,0 0.091,0 0.136,0 13.646,-0.142 20.56,-21.992 16.185,-32.668 -2.777,-6.778 -9.195,-10.282 -16.052,-10.282"
       style="fill:#f1c49f;fill-opacity:1;fill-rule:nonzero;stroke:none;stroke-width:0.1"
       id="path625" />
    <path
       d="m 153.993,398.252 c -4.569,0 -9.504,2.05 -13.096,5.737 -4.898,5.03 -5.008,12.809 -1.702,18.706 0.291,0.519 0.621,1.001 0.986,1.448 2.4,2.936 5.871,4.208 9.432,4.208 3.538,0 7.164,-1.254 9.925,-3.374 4.46,-3.429 7.332,-9.737 6.663,-15.385 -0.931,-7.863 -6.259,-11.34 -12.208,-11.34"
       style="fill:#f1c49f;fill-opacity:1;fill-rule:nonzero;stroke:none;stroke-width:0.1"
       id="path627" />
    <path
       d="m 115.976,382.915 c -3.81,0 -7.925,1.596 -10.92,4.467 -4.085,3.915 -4.176,9.971 -1.419,14.562 0.242,0.403 0.517,0.779 0.822,1.126 2.001,2.287 4.895,3.277 7.865,3.277 2.95,0 5.974,-0.976 8.275,-2.627 3.72,-2.669 6.114,-7.58 5.557,-11.977 -0.776,-6.122 -5.22,-8.828 -10.18,-8.828"
       style="fill:#f1c49f;fill-opacity:1;fill-rule:nonzero;stroke:none;stroke-width:0.1"
       id="path629" />
    <path
       d="m 86.9215,361.145 c -3.3555,0 -6.6145,1.746 -8.752,4.421 -0.2566,0.321 -0.4797,0.659 -0.6711,1.01 -2.5082,4.6 0.3227,10.262 4.4829,12.764 1.8105,1.089 4.0398,1.662 6.2492,1.662 1.8793,0 3.7445,-0.414 5.3269,-1.278 8.4746,-4.625 4.6059,-14.652 -2.9715,-17.841 -1.2007,-0.505 -2.439,-0.738 -3.6644,-0.738"
       style="fill:#f1c49f;fill-opacity:1;fill-rule:nonzero;stroke:none;stroke-width:0.1"
       id="path631" />
    <path
       d="m 72.0961,331.751 c -2.8492,0 -5.7707,1.422 -7.7273,3.519 -0.2204,0.236 -0.4145,0.482 -0.584,0.735 -2.2243,3.326 -0.2383,7.134 2.9609,8.676 1.2055,0.581 2.6801,0.877 4.1981,0.877 1.7277,0 3.5121,-0.383 5.023,-1.169 6.9875,-3.631 4.384,-10.429 -1.5098,-12.284 -0.7656,-0.241 -1.5605,-0.354 -2.3609,-0.354"
       style="fill:#f1c49f;fill-opacity:1;fill-rule:nonzero;stroke:none;stroke-width:0.1"
       id="path633" />
    <path
       d="m 188.022,74.1898 c -8.263,0 -16.352,2.709 -21.822,8.6391 -11.453,12.416 -21.79,31.8421 -17.718,49.3901 2.039,8.786 8.732,17.604 17.241,20.899 2.836,1.098 5.734,1.597 8.64,1.597 1.248,0 2.497,-0.092 3.744,-0.268 16.157,-2.279 31.903,-18.646 38.346,-31.689 6.055,-12.259 6.738,-29.615 -3.965,-39.5521 -6.238,-5.7911 -15.455,-9.0161 -24.466,-9.0161"
       style="fill:#f1c49f;fill-opacity:1;fill-rule:nonzero;stroke:none;stroke-width:0.1"
       id="path635" />
    <path
       d="m 161.18429,458.70169 -11.90612,-5.83641 c -9.64501,20.27039 -26.2607,36.93269 -46.61022,46.52675 -5.88074,2.77553 -12.02273,4.88784 -18.31243,6.36529 -23.15312,5.42229 -47.512188,-0.5705 -65.995296,-15.53726 3.6614,0.93759 7.36832,1.67203 11.107378,2.19147 13.64811,1.90842 27.666288,0.88989 40.843088,-3.1628 24.30791,-7.48261 44.90192,-24.90515 56.8573,-47.20263 l -9.95565,-4.88207 40.71064,-28.71681 3.26131,50.25447"
       style="fill:#171717;fill-opacity:1;fill-rule:nonzero;stroke:none;stroke-width:0.1"
       id="path896" />
  </g>
</svg>
