<?xml version="1.0" encoding="UTF-8" standalone="no"?>
<!-- Created with Inkscape (http://www.inkscape.org/) -->

<svg
   version="1.1"
   id="svg2521"
   width="666.66669"
   height="666.66669"
   viewBox="0 0 666.66669 666.66669"
   sodipodi:docname="49663349_9269200.eps"
   xmlns:inkscape="http://www.inkscape.org/namespaces/inkscape"
   xmlns:sodipodi="http://sodipodi.sourceforge.net/DTD/sodipodi-0.dtd"
   xmlns="http://www.w3.org/2000/svg"
   xmlns:svg="http://www.w3.org/2000/svg">
  <defs
     id="defs2525" />
  <sodipodi:namedview
     id="namedview2523"
     pagecolor="#ffffff"
     bordercolor="#000000"
     borderopacity="0.25"
     inkscape:showpageshadow="2"
     inkscape:pageopacity="0.0"
     inkscape:pagecheckerboard="0"
     inkscape:deskcolor="#d1d1d1"
     showgrid="false" />
  <g
     id="g2529"
     inkscape:groupmode="layer"
     inkscape:label="Page 1"
     transform="matrix(1.3333333,0,0,-1.3333333,0,666.66667)">
    <g
       id="g2531"
       transform="scale(0.1)">
      <path
         d="M 0,0 H 5000 V 5000 H 0 Z"
         style="fill:#fffaf5;fill-opacity:1;fill-rule:nonzero;stroke:none"
         id="path2533" />
      <path
         d="m 3291.15,585.629 c 0,-78.738 -354.21,-142.578 -791.15,-142.578 -436.94,0 -791.15,63.84 -791.15,142.578 0,78.742 354.21,142.57 791.15,142.57 436.94,0 791.15,-63.828 791.15,-142.57"
         style="fill:#f8e7dc;fill-opacity:1;fill-rule:nonzero;stroke:none"
         id="path2535" />
      <path
         d="m 2674.47,4271.44 c -85.13,-91.39 -167.46,-187.31 -278.06,-246.95 -196.18,-105.79 -404.31,-81.93 -613.47,-58.06 -122.64,13.98 -245.62,27.97 -366.76,15.83 C 795.164,3920.03 475.895,3110.85 551.176,2590.95 732.199,1340.72 2421.67,1067.38 3398.66,1573.61 c 107.68,55.79 210.34,120.71 305.98,194.33 456.89,351.7 747.55,903.74 754.92,1471.11 6.96,535.52 -304.07,1149.54 -878.36,1290.66 -125.69,30.89 -257.08,34.66 -385.04,15.59 -204.43,-30.46 -384.75,-126.84 -521.69,-273.86"
         style="fill:#f8e7dc;fill-opacity:1;fill-rule:nonzero;stroke:none"
         id="path2537" />
      <path
         d="m 2171.1,3001.88 h -803.23 c -1.57,49.09 24.24,99.03 61.74,130.74 29.45,24.9 68.02,38.53 106.54,38.53 10.53,0 21.04,-1.02 31.38,-3.1 -6.36,54.14 57.42,97.24 107.43,118.94 21.04,9.13 43.97,13.65 66.9,13.65 29.6,0 59.21,-7.52 84.86,-22.33 45.51,-26.27 77.4,-74.87 83.39,-127.08 18.84,12.78 41.63,19.4 64.37,19.4 13.67,0 27.32,-2.39 40.1,-7.27 34.04,-13 60.93,-43.33 69.78,-78.68 9.14,4.84 18.7,8.85 28.53,12.02 14.34,-25.72 31.81,-49.03 48.63,-68.59 l 0.1,-0.11 c 3.48,-4.19 6.76,-8.08 10.14,-11.77 l -0.66,-14.35"
         style="fill:#fef7f2;fill-opacity:1;fill-rule:nonzero;stroke:none"
         id="path2539" />
      <path
         d="m 3749.5,3897.11 h -965.56 c -1.57,49.09 24.25,99.03 61.75,130.74 29.44,24.9 68.02,38.53 106.53,38.53 10.53,0 21.05,-1.02 31.38,-3.1 -6.35,54.14 57.42,97.24 107.43,118.94 21.05,9.14 43.97,13.65 66.9,13.65 29.6,0 59.21,-7.52 84.86,-22.32 45.51,-26.28 77.4,-74.88 83.4,-127.09 18.83,12.78 41.62,19.4 64.36,19.4 13.67,0 27.32,-2.39 40.1,-7.27 34.04,-13 60.93,-43.33 69.78,-78.68 26.16,13.84 55.76,20.91 85.35,20.91 19.29,0 38.56,-3 56.88,-9.09 46.39,-15.42 85.92,-50.43 106.84,-94.62"
         style="fill:#fef7f2;fill-opacity:1;fill-rule:nonzero;stroke:none"
         id="path2541" />
      <path
         d="m 3620.89,2830.71 h -553.22 c 11.99,25.32 34.63,45.38 61.22,54.21 10.49,3.49 21.53,5.21 32.58,5.21 16.95,0 33.92,-4.05 48.91,-11.98 5.06,20.25 20.47,37.63 39.98,45.08 7.32,2.79 15.14,4.16 22.97,4.16 13.03,0 26.09,-3.79 36.88,-11.11 3.43,29.91 21.7,57.76 47.78,72.81 14.69,8.49 31.66,12.79 48.62,12.79 13.14,0 26.27,-2.58 38.33,-7.81 28.65,-12.44 65.19,-37.13 61.55,-68.15 5.93,1.19 11.95,1.77 17.98,1.77 22.07,0 44.17,-7.81 61.04,-22.07 21.49,-18.17 36.28,-46.79 35.38,-74.91"
         style="fill:#fef7f2;fill-opacity:1;fill-rule:nonzero;stroke:none"
         id="path2543" />
      <path
         d="m 3703.79,3349.44 40.55,-95.74 c 0,0 -9.62,-3.18 -26.31,-8.5 l -0.93,0.51 c 0.62,34.51 -16.38,67.69 -28.46,102.2 l 15.15,1.53"
         style="fill:#f68b75;fill-opacity:1;fill-rule:nonzero;stroke:none"
         id="path2545" />
      <path
         d="m 4107.97,3301.11 -0.2,1.02 -0.62,1.23 0.72,-1.23 0.1,-1.02"
         style="fill:#f68b75;fill-opacity:1;fill-rule:nonzero;stroke:none"
         id="path2547" />
      <path
         d="m 4107.97,3301.11 c -1.74,-10.96 -93.39,-10.96 -114.28,-4.3 -23.65,7.47 -154.01,-22.94 -143.57,-41.88 10.45,-19.05 76.39,-25.6 93.8,-26.73 17.51,-1.13 31.95,-18.94 36.46,-28.88 4.2,-10.03 -99.02,1.33 -122.06,-3.68 -12.09,-2.56 -43.83,5.01 -80.9,23.55 -14.13,6.86 -41.47,15.77 -59.39,26.01 16.69,5.32 26.31,8.5 26.31,8.5 l -40.55,95.74 -15.15,-1.53 -0.41,1.12 c 2.66,0 32.15,5.74 56.11,7.27 h 0.1 c 4,0.31 8.09,0.52 12.5,0.82 59.39,3.9 143.87,9.73 143.87,9.73 0,0 177.36,-45.67 203.37,-61.23 l 1.44,-0.93 1.53,-1.33 0.62,-1.23 0.2,-1.02"
         style="fill:#f68b75;fill-opacity:1;fill-rule:nonzero;stroke:none"
         id="path2549" />
      <path
         d="m 3703.79,3349.44 -15.15,-1.53 -476.48,-46.8 c 0,0 -46.8,47.92 -100.46,102.61 -63.69,64.82 -137.01,138.96 -152.78,153.19 -17.14,15.34 -68.36,29.93 -107.73,39.36 v -287.38 c 30.01,-22.25 63.84,-47.06 98,-71.58 88.38,-63.28 178.9,-124.52 210.23,-133.43 58.68,-16.79 452.41,107.22 558.6,141.32 16.7,5.32 26.32,8.5 26.32,8.5 l -40.55,95.74"
         style="fill:#f68b75;fill-opacity:1;fill-rule:nonzero;stroke:none"
         id="path2551" />
      <path
         d="m 2958.92,3556.91 c -17.14,15.34 -68.36,29.93 -107.73,39.36 v -287.38 c 30.01,-22.25 63.84,-47.06 98,-71.58 l 162.51,166.41 c -63.69,64.82 -137.01,138.96 -152.78,153.19"
         style="fill:#f36165;fill-opacity:1;fill-rule:nonzero;stroke:none"
         id="path2553" />
      <path
         d="m 1314.29,3424.22 c -17.02,-32.8 -39.1,-63.41 -43.56,-98.04 l -2.19,-0.82 c -5.22,2.52 -8.02,3.86 -8.02,3.86 l 53.77,95"
         style="fill:#f68b75;fill-opacity:1;fill-rule:nonzero;stroke:none"
         id="path2555" />
      <path
         d="m 1260.52,3329.22 c 0,0 2.8,-1.34 8.02,-3.86 -19.19,-7.33 -46.57,-12.01 -61.23,-16.69 -39.47,-12.95 -71.98,-15.84 -83.56,-11.56 -21.97,8.29 -125.848,12.03 -120.14,21.34 5.8,9.19 22.77,24.71 40.16,23.3 17.39,-1.41 83.59,-4.49 96.78,12.82 13.09,17.23 -111.48,66.23 -135.97,62.26 -21.736,-3.54 -112.314,9.74 -112.553,20.85 l 0.25,1 0.891,1.11 1.711,1.09 1.551,0.71 c 27.996,11.62 210.2,31.07 210.2,31.07 0,0 82.64,-18.01 140.95,-30.49 4.31,-0.94 8.33,-1.74 12.24,-2.62 l 0.1,-0.01 c 23.38,-4.98 51.73,-14.94 54.37,-15.32 l -53.77,-95"
         style="fill:#f68b75;fill-opacity:1;fill-rule:nonzero;stroke:none"
         id="path2557" />
      <path
         d="m 2138.32,3570.75 c -34.35,-5.31 -74.64,-12.25 -105.6,-19.7 -20.82,-5.02 -37.42,-10.25 -45.11,-15.43 -13.76,-9.16 -49.91,-48.88 -87.11,-91.56 -51,-58.45 -103.78,-122.64 -103.78,-122.64 l -482.43,102.8 -53.77,-95 c 0,0 2.8,-1.34 8.02,-3.86 62.97,-30.76 480.31,-232.38 545.04,-223.65 20.9,2.84 61.64,25.12 108.45,55 75.52,48.18 166.86,116.12 216.29,153.66 v 260.38"
         style="fill:#f68b75;fill-opacity:1;fill-rule:nonzero;stroke:none"
         id="path2559" />
      <path
         d="m 2138.32,3310.37 v 146.94 c -35.85,33.54 -72.82,65.97 -105.6,93.74 -20.82,-5.02 -37.42,-10.25 -45.11,-15.43 -13.76,-9.16 -49.91,-48.88 -87.11,-91.56 l 75.28,-194.63 c 0,0 -27.12,-46.64 -53.75,-92.72 75.52,48.18 166.86,116.12 216.29,153.66"
         style="fill:#f36165;fill-opacity:1;fill-rule:nonzero;stroke:none"
         id="path2561" />
      <path
         d="m 2494.02,1423.16 c -187.71,0 -338.13,26.12 -458.56,68.31 -505.35,176.95 -484.36,636.63 -484.36,636.63 h 1889.01 c 0,0 29.08,-704.94 -946.09,-704.94"
         style="fill:#7e2d28;fill-opacity:1;fill-rule:nonzero;stroke:none"
         id="path2563" />
      <path
         d="m 2035.46,1491.47 v 0 c -466.61,163.38 -484.48,567.81 -484.48,628.86 0,5.07 0.12,7.77 0.12,7.77 h 64.47 c -4,-83.1 4.2,-167.02 35.87,-193.84 62.47,-52.89 807.48,-63.5 807.48,-63.5 0,0 381.91,5.44 621.78,27.94 -290.95,-174.46 -690.86,-373.51 -1045.24,-407.23 m 1265.7,547.24 c 2.42,27.96 2.61,58.74 1.13,89.39 h 127.58 c -32.11,-23.14 -75.78,-53.87 -128.71,-89.39"
         style="fill:#6a231f;fill-opacity:1;fill-rule:nonzero;stroke:none"
         id="path2565" />
      <path
         d="m 2145.4,3944.63 c 8.41,-21.74 26.24,-41.13 25.03,-64.4 -1.91,-36.52 -46.08,-52.61 -70.25,-80.04 -19.27,-21.88 -25.79,-54.25 -16.51,-81.89 9.28,-27.63 34.03,-49.49 62.6,-55.3 -17.76,23.55 -8.76,62.31 17.56,75.63 -10.8,-14.26 -5.86,-35.91 6.41,-48.92 12.28,-13 29.93,-19.29 47.06,-24.44 107.55,-32.3 223.38,-36.6 333.03,-12.37 55.69,12.31 116.04,37.62 136.59,90.82 8.89,-19.56 11.33,-41.99 6.86,-63.01 50.99,13.54 81.93,76.92 61.24,125.46 28.99,-15.06 47.37,-48.42 44.59,-80.97 47.5,26.71 66.57,94.11 40.1,141.75 -22,39.6 -69.31,64.76 -78.47,109.12 -4.28,20.68 0.78,42.11 -0.51,63.19 -2.39,39.16 -26.4,73.76 -53.78,101.87 -59.31,60.86 -140.64,102.03 -225.57,104.9 -88.55,2.99 -166.04,-38.14 -223.84,-103.07 -47.3,-53.15 -144.66,-114.28 -112.14,-198.33"
         style="fill:#191817;fill-opacity:1;fill-rule:nonzero;stroke:none"
         id="path2567" />
      <path
         d="m 2693.76,3631.62 -146.93,97.49 -17.28,10.47 -9.51,-0.35 -129.48,-4.8 -10.48,-0.39 -15.43,-7.96 -131.85,-87.11 c 97.8,-117.61 181.91,-401.66 460.96,-7.35"
         style="fill:#f68b75;fill-opacity:1;fill-rule:nonzero;stroke:none"
         id="path2569" />
      <path
         d="m 2492.56,3780.02 c -34.9,-6.31 -71.5,0.46 -103.34,16.4 1.97,41.22 1.83,91 1.83,91 l 139.2,-1.73 c 0,0 -2.42,-44.47 1.06,-85.55 -10.56,-11.02 -26.12,-17.48 -38.75,-20.12"
         style="fill:#f36165;fill-opacity:1;fill-rule:nonzero;stroke:none"
         id="path2571" />
      <path
         d="m 2517.94,3694.26 c 14.68,10.72 30.71,13.75 40.6,27.76 l -8.45,13.34 c -11.04,9.07 -16.35,36.1 -18.79,64.78 -10.55,-11.02 -26.11,-17.48 -38.74,-20.12 -34.9,-6.31 -71.5,0.46 -103.34,16.4 -1.06,-22.12 -2.73,-41.78 -5.35,-49.96 -1.44,-4.47 -9.13,-11.12 -20.61,-18.94 24.52,-24.88 51.14,-46.93 83.21,-54.75 24.34,-6.41 48.9,5.49 71.47,21.49"
         style="fill:#f68b75;fill-opacity:1;fill-rule:nonzero;stroke:none"
         id="path2573" />
      <path
         d="m 2296.21,3966.84 c -28,4.12 -47.49,26.25 -57.64,44.5 -2.28,4.11 -4.08,8.03 -5.41,11.49 -7.17,18.87 -6.51,83.12 14.87,97.07 14.98,9.76 24.83,-5.86 29.38,-16.11 v -0.04 c 1.94,-4.36 2.92,-7.73 2.92,-7.73 l 15.88,-129.18"
         style="fill:#f9b385;fill-opacity:1;fill-rule:nonzero;stroke:none"
         id="path2575" />
      <path
         d="m 2296.21,3966.84 c -28,4.12 -47.49,26.25 -57.64,44.5 -0.86,1.85 -1.61,3.61 -2.24,5.29 -7.17,18.86 -6.51,83.11 14.87,97.05 12.13,7.91 20.89,-0.84 26.21,-9.89 v -0.04 c 1.94,-4.36 2.92,-7.73 2.92,-7.73 l 15.88,-129.18"
         style="fill:#f68b75;fill-opacity:1;fill-rule:nonzero;stroke:none"
         id="path2577" />
      <path
         d="m 2239.14,4069.25 c -1.27,-5.08 -0.86,-10.45 0.23,-15.57 4.65,-21.79 20.83,-39.01 36.33,-55.01 -4.4,10.67 -5.65,22.54 -4.12,33.97 0.53,3.98 1.4,7.92 1.61,11.93 0.87,16.13 -26.51,54.73 -34.05,24.68"
         style="fill:#f36165;fill-opacity:1;fill-rule:nonzero;stroke:none"
         id="path2579" />
      <path
         d="m 2283.56,3992.17 -0.89,0.71 c -0.56,0.47 -1.48,1.11 -2.52,2.1 -2.09,1.94 -4.95,5.03 -7.57,9.54 -2.61,4.5 -4.9,10.44 -5.79,17.39 -0.77,6.93 -0.18,14.93 3.09,22.52 0.36,0.97 0.83,1.87 1.31,2.77 l 0.36,0.68 0.03,0.06 h 0.01 l 0.01,0.01 h 0.01 l -0.05,0.11 -0.23,0.63 -0.49,1.25 -1.02,2.45 c -1.39,3.22 -2.9,6.26 -4.48,9.09 -1.57,2.83 -3.22,5.45 -4.85,7.84 -1.65,2.38 -3.24,4.62 -4.85,6.3 -1.6,1.69 -3.4,2.82 -5.11,3.18 -1.72,0.33 -3.38,-0.09 -4.51,-0.73 -1.15,-0.65 -1.81,-1.53 -2.09,-2.19 l -0.31,-1.08 0.07,1.15 c 0.15,0.75 0.65,1.86 1.81,2.85 1.15,0.97 2.92,1.84 5.22,1.81 2.28,-0.08 4.7,-1.16 6.83,-2.84 2.15,-1.69 4.05,-3.77 6.05,-6.04 1.98,-2.29 3.98,-4.86 5.88,-7.71 1.9,-2.85 3.72,-5.97 5.35,-9.34 l 1.18,-2.57 0.56,-1.32 0.74,-1.86 0.52,-1.3 -0.62,-1.25 -0.91,-1.79 -1.13,-2.41 c -2.84,-6.58 -3.72,-13.56 -3.54,-19.87 0.29,-6.33 1.7,-12 3.53,-16.52 1.83,-4.54 4.01,-7.95 5.66,-10.21 0.81,-1.14 1.57,-1.93 2.02,-2.53 l 0.72,-0.88"
         style="fill:#f03d62;fill-opacity:1;fill-rule:nonzero;stroke:none"
         id="path2581" />
      <path
         d="m 2621.61,3951.76 c 28.26,1.5 49.72,21.74 61.51,38.97 2.65,3.88 4.81,7.62 6.45,10.95 8.89,18.12 14.17,82.15 -5.82,98.02 -14.02,11.1 -25.27,-3.54 -30.75,-13.32 v -0.04 c -2.33,-4.16 -3.63,-7.43 -3.63,-7.43 l -27.76,-127.15"
         style="fill:#f9b385;fill-opacity:1;fill-rule:nonzero;stroke:none"
         id="path2583" />
      <path
         d="m 2621.61,3951.76 c 28.26,1.5 49.72,21.74 61.51,38.97 1.03,1.77 1.94,3.45 2.72,5.06 8.89,18.12 14.17,82.15 -5.82,98.01 -11.35,9 -20.89,1.1 -27.02,-7.42 v -0.04 c -2.33,-4.16 -3.63,-7.43 -3.63,-7.43 l -27.76,-127.15"
         style="fill:#f68b75;fill-opacity:1;fill-rule:nonzero;stroke:none"
         id="path2585" />
      <path
         d="m 2687.91,4048.45 c 0.8,-5.18 -0.1,-10.49 -1.67,-15.49 -6.65,-21.27 -24.34,-36.91 -41.27,-51.41 5.38,10.22 7.72,21.92 7.25,33.45 -0.16,4.01 -0.65,8.01 -0.5,12.02 0.63,16.15 31.47,52.04 36.19,21.43"
         style="fill:#f36165;fill-opacity:1;fill-rule:nonzero;stroke:none"
         id="path2587" />
      <path
         d="m 2636.55,3975.81 0.95,0.62 c 0.61,0.42 1.59,0.97 2.71,1.85 2.25,1.75 5.39,4.56 8.42,8.81 3.02,4.23 5.84,9.94 7.37,16.79 1.41,6.82 1.56,14.84 -0.99,22.7 -0.27,0.99 -0.66,1.94 -1.05,2.88 l -0.29,0.7 -0.03,0.07 h -0.01 -0.01 v 0 l 0.04,0.12 0.3,0.6 0.6,1.2 1.25,2.35 c 1.67,3.08 3.46,5.96 5.29,8.64 1.83,2.67 3.71,5.12 5.56,7.36 1.87,2.21 3.66,4.29 5.41,5.81 1.75,1.54 3.65,2.5 5.39,2.7 1.74,0.17 3.35,-0.4 4.42,-1.14 1.08,-0.76 1.66,-1.69 1.88,-2.39 l 0.21,-1.09 0.03,1.15 c -0.08,0.76 -0.47,1.91 -1.53,3.01 -1.06,1.06 -2.75,2.1 -5.03,2.28 -2.29,0.13 -4.8,-0.72 -7.07,-2.2 -2.3,-1.49 -4.38,-3.37 -6.58,-5.45 -2.19,-2.1 -4.41,-4.47 -6.57,-7.13 -2.16,-2.67 -4.26,-5.6 -6.19,-8.81 l -1.42,-2.45 -0.68,-1.26 -0.91,-1.78 -0.63,-1.25 0.5,-1.3 0.74,-1.87 0.9,-2.5 c 2.22,-6.82 2.45,-13.85 1.69,-20.12 -0.88,-6.27 -2.8,-11.79 -5.04,-16.13 -2.25,-4.34 -4.73,-7.54 -6.58,-9.63 -0.92,-1.06 -1.74,-1.78 -2.25,-2.33 l -0.8,-0.81"
         style="fill:#f03d62;fill-opacity:1;fill-rule:nonzero;stroke:none"
         id="path2589" />
      <path
         d="m 2651.24,4090.52 c 0,0 -10.87,-124.46 -46.07,-169.2 -29.5,-37.45 -71.64,-97.34 -135.47,-115.43 -12.46,-3.54 -25.82,-2.92 -37.9,1.75 -61.88,23.93 -98.3,87.46 -124.21,127.48 -30.91,47.8 -30.22,172.73 -30.22,172.73 0.11,8.31 0.41,16.31 0.89,24.04 l 0.01,0.24 c 14.7,235.88 197.52,214.45 197.52,214.45 0,0 180.58,-10.05 175.84,-243.81 -0.06,-4.03 -0.2,-8.1 -0.39,-12.25"
         style="fill:#f9ad7e;fill-opacity:1;fill-rule:nonzero;stroke:none"
         id="path2591" />
      <path
         d="m 2651.63,4102.77 c -1.99,-19.9 -13.91,-125.5 -45.74,-165.93 -29.5,-37.45 -71.64,-97.34 -135.47,-115.44 -12.46,-3.53 -25.82,-2.91 -37.9,1.76 -61.88,23.92 -98.3,87.45 -124.21,127.47 -30.91,47.8 -30.22,172.73 -30.22,172.73 0.03,2.89 0.09,5.71 0.17,8.53 l 0.01,0.24 c 14.7,235.88 197.52,214.45 197.52,214.45 0,0 180.58,-10.05 175.84,-243.81"
         style="fill:#f68b75;fill-opacity:1;fill-rule:nonzero;stroke:none"
         id="path2593" />
      <path
         d="m 2332.61,4129.37 c 2.56,-7.84 12.24,-14.39 19.05,-18.16 3.81,3.92 8.32,6.13 13.06,5.88 12.09,-0.66 21.04,-16.92 20,-36.34 -1.04,-19.42 -11.69,-34.63 -23.78,-33.98 -12.1,0.65 -21.05,16.92 -20.01,36.34 0.33,6.01 1.58,11.61 3.5,16.48 -8.8,8.61 -11.82,29.78 -11.82,29.78"
         style="fill:#191817;fill-opacity:1;fill-rule:nonzero;stroke:none"
         id="path2595" />
      <path
         d="m 2363.76,4078.17 c 0,0 -13.74,-4.13 -27.39,0.49 -13.66,4.62 -22.06,16.25 -22.06,16.25 0,0 13.73,4.13 27.39,-0.49 13.65,-4.62 22.06,-16.25 22.06,-16.25"
         style="fill:#fef1eb;fill-opacity:1;fill-rule:nonzero;stroke:none"
         id="path2597" />
      <path
         d="m 2591.98,4117.34 c -3.28,-7.56 -13.52,-13.18 -20.66,-16.31 -3.42,4.26 -7.71,6.87 -12.45,7.06 -12.1,0.46 -22.52,-14.9 -23.28,-34.33 -0.76,-19.43 8.44,-35.57 20.54,-36.04 12.1,-0.47 22.52,14.9 23.28,34.33 0.23,6.02 -0.49,11.72 -1.96,16.73 9.55,7.76 14.53,28.56 14.53,28.56"
         style="fill:#191817;fill-opacity:1;fill-rule:nonzero;stroke:none"
         id="path2599" />
      <path
         d="m 2556.23,4069.25 c 0,0 13.29,-5.39 27.31,-2.05 14.03,3.34 23.47,14.14 23.47,14.14 0,0 -13.29,5.38 -27.32,2.04 -14.02,-3.33 -23.46,-14.13 -23.46,-14.13"
         style="fill:#fef1eb;fill-opacity:1;fill-rule:nonzero;stroke:none"
         id="path2601" />
      <path
         d="m 2452.2,3998.87 c 9.4,-0.78 18.12,-7.16 21.69,-15.89 0.45,-1.09 0.82,-2.3 0.44,-3.41 -0.57,-1.67 -2.52,-2.35 -4.23,-2.76 -12.08,-2.89 -24.76,-3.19 -36.96,-0.89 -22,4.15 8.13,23.84 19.06,22.95"
         style="fill:#f36165;fill-opacity:1;fill-rule:nonzero;stroke:none"
         id="path2603" />
      <path
         d="m 2439.6,3981.26 c 0,0 0.11,1.35 0.4,3.7 0.15,1.17 0.34,2.6 0.49,4.27 0.16,1.66 0.43,3.51 0.57,5.58 0.2,2.06 0.43,4.29 0.59,6.69 0.23,2.38 0.33,4.93 0.54,7.58 0.29,5.33 0.55,11.12 0.75,17.19 0.15,6.08 0.22,11.87 0.24,17.21 -0.05,2.66 -0.01,5.22 -0.11,7.6 -0.01,2.4 -0.11,4.65 -0.19,6.71 -0.03,2.08 -0.19,3.94 -0.26,5.61 -0.05,1.67 -0.15,3.11 -0.24,4.29 -0.16,2.36 -0.19,3.71 -0.19,3.71 0,0 0.72,-1.11 1.91,-3.2 0.61,-1.04 1.32,-2.33 2.04,-3.88 0.73,-1.54 1.61,-3.3 2.36,-5.31 0.8,-2 1.63,-4.22 2.33,-6.66 0.8,-2.42 1.39,-5.07 2,-7.87 1.1,-5.61 1.77,-11.92 1.61,-18.54 -0.22,-6.62 -1.26,-12.87 -2.67,-18.41 -0.77,-2.77 -1.52,-5.37 -2.45,-7.75 -0.84,-2.39 -1.8,-4.56 -2.71,-6.51 -0.87,-1.97 -1.84,-3.67 -2.66,-5.17 -0.81,-1.5 -1.59,-2.75 -2.26,-3.75 -1.32,-2.01 -2.09,-3.09 -2.09,-3.09"
         style="fill:#f03d62;fill-opacity:1;fill-rule:nonzero;stroke:none"
         id="path2605" />
      <path
         d="m 2538.58,3966.84 -156.63,-31.97 c 0,0 31.07,-60.65 84.52,-52.31 50.09,7.81 69.67,41.11 72.11,84.28"
         style="fill:#feeddf;fill-opacity:1;fill-rule:nonzero;stroke:none"
         id="path2607" />
      <path
         d="m 2626.73,3982.21 c 0,0 0.59,2.81 1.78,7.73 0.3,1.22 0.64,2.58 1.01,4.07 0.33,1.5 0.69,3.13 1.08,4.88 0.76,3.49 1.77,7.38 2.62,11.77 0.46,2.17 0.95,4.44 1.46,6.81 0.51,2.35 0.93,4.85 1.45,7.39 1.09,5.06 1.98,10.53 3.07,16.21 1.97,11.42 3.98,23.89 5.87,37.03 1.82,13.16 3.34,25.72 4.61,37.27 0.52,5.78 1.18,11.29 1.54,16.48 0.21,2.6 0.5,5.11 0.66,7.54 0.16,2.42 0.32,4.75 0.48,6.98 0.4,4.47 0.51,8.52 0.75,12.11 0.11,1.8 0.22,3.48 0.31,5.02 0.06,1.54 0.12,2.95 0.17,4.22 0.22,5.1 0.43,7.97 0.43,7.97 0,0 0.85,-2.63 2.24,-7.49 0.34,-1.22 0.72,-2.58 1.14,-4.07 0.38,-1.49 0.74,-3.13 1.15,-4.88 0.77,-3.53 1.74,-7.56 2.42,-12.09 0.37,-2.27 0.75,-4.64 1.14,-7.11 0.37,-2.49 0.61,-5.09 0.92,-7.79 0.65,-5.39 0.93,-11.2 1.2,-17.33 0.33,-12.26 -0.19,-25.84 -2.13,-39.89 -2.02,-14.04 -5.27,-27.13 -8.95,-38.66 -1.95,-5.74 -3.81,-11.16 -5.92,-16.06 -1.02,-2.45 -1.97,-4.84 -3,-7.07 -1.06,-2.21 -2.07,-4.34 -3.04,-6.37 -1.9,-4.06 -3.93,-7.55 -5.63,-10.63 -0.87,-1.53 -1.66,-2.96 -2.44,-4.24 -0.8,-1.27 -1.54,-2.42 -2.2,-3.46 -2.65,-4.14 -4.19,-6.34 -4.19,-6.34"
         style="fill:#191817;fill-opacity:1;fill-rule:nonzero;stroke:none"
         id="path2609" />
      <path
         d="m 2295.75,3959.86 c 0,0 -1.07,2.52 -2.85,7.16 -1.8,4.63 -4.2,11.41 -6.81,19.95 -2.63,8.53 -5.36,18.86 -7.81,30.51 -2.41,11.65 -4.5,24.64 -5.79,38.43 -1.25,13.79 -1.57,27.04 -1.36,39.08 0.27,12.05 1.05,22.9 2.06,31.97 0.99,9.08 2.09,16.38 3,21.41 0.89,5.03 1.47,7.8 1.47,7.8 0,0 0.5,-2.79 1.23,-7.8 0.71,-5.01 1.77,-12.24 2.93,-21.11 1.15,-8.88 2.52,-19.39 3.86,-31.03 1.38,-11.63 2.76,-24.37 3.98,-37.78 1.25,-13.4 2.23,-26.2 2.99,-37.92 0.82,-11.71 1.4,-22.34 1.89,-31.32 0.48,-8.97 0.76,-16.32 0.98,-21.4 0.2,-5.09 0.23,-7.95 0.23,-7.95"
         style="fill:#191817;fill-opacity:1;fill-rule:nonzero;stroke:none"
         id="path2611" />
      <path
         d="m 2355.49,4006.38 c -3.44,-8.03 -25.87,-6.15 -50.08,4.22 -24.22,10.37 -41.06,25.29 -37.62,33.33 3.44,8.04 25.86,6.15 50.08,-4.22 24.22,-10.37 41.06,-25.29 37.62,-33.33"
         style="fill:#f36165;fill-opacity:1;fill-rule:nonzero;stroke:none"
         id="path2613" />
      <path
         d="m 2655.15,4027.59 c 2.98,-8.22 -14.67,-22.17 -39.43,-31.16 -24.77,-8.99 -47.26,-9.62 -50.24,-1.4 -2.99,8.22 14.67,22.17 39.43,31.16 24.76,8.99 47.25,9.62 50.24,1.4"
         style="fill:#f36165;fill-opacity:1;fill-rule:nonzero;stroke:none"
         id="path2615" />
      <path
         d="m 2481.96,4240.75 c 7.08,-14.46 14.03,-28.79 21.11,-43.11 -70.97,25.99 -109.07,42.57 -141.23,111.07 -9.93,-93.87 -61.36,-182.96 -139.51,-235.74 -3.28,20.26 -6.25,41.07 -7.88,61.66 -4.37,52.4 -0.18,104.53 27.68,148.5 19.79,31.02 50.26,55.16 85.06,67.01 13.59,35.11 47.68,66.7 82.7,80.43 35.02,13.6 74.33,14.36 110.92,6.14 25.69,-5.95 50.49,-16.2 72.22,-31.21 44.63,-31.16 73.69,-81.57 86.04,-134.74 2.5,-10.72 4.29,-24.8 5.6,-40.49 5.13,-62.49 2.25,-150.84 2.25,-150.84 0,0 -148.68,108.7 -204.96,161.32"
         style="fill:#191817;fill-opacity:1;fill-rule:nonzero;stroke:none"
         id="path2617" />
      <path
         d="m 2296.92,4133 c 0,0 77.67,65.86 108.51,47.4 18.01,-10.77 5.14,-20.23 5.14,-20.23 L 2296.92,4133"
         style="fill:#3c3c3d;fill-opacity:1;fill-rule:nonzero;stroke:none"
         id="path2619" />
      <path
         d="m 2616.4,4143.98 c 0,0 -74.26,69.68 -106,52.79 -18.52,-9.86 -6.14,-19.95 -6.14,-19.95 l 112.14,-32.84"
         style="fill:#3c3c3d;fill-opacity:1;fill-rule:nonzero;stroke:none"
         id="path2621" />
      <path
         d="m 2578.54,4254.21 c -54.12,19.91 -104.12,49.68 -151.95,82.08 -0.9,-13.42 -0.16,-26.91 2.08,-40.19 -29.64,14.42 -57.76,32.44 -83.44,53.2 -6.83,-47.66 -26.89,-93.35 -57.43,-130.54 2.19,14.85 -0.22,30.32 -6.81,43.68 1.74,-3.62 -5.67,-19.85 -6.95,-23.87 -2.69,-8.31 -5.52,-16.47 -8.61,-24.61 -10.95,-27.91 -25.53,-55.09 -47.42,-75.82 -1.13,-1.04 -2.28,-2.21 -3.56,-3.51 -2.89,34.52 -2.11,68.87 6.85,100.94 4.58,16.64 11.3,32.51 20.83,47.56 19.64,30.76 49.84,54.77 84.37,66.76 l 0.69,0.25 c 7.26,18.69 20.31,36.43 36.21,50.92 13.91,12.81 30.02,23.21 46.49,29.51 35.02,13.6 74.33,14.36 110.92,6.14 25.69,-5.95 50.49,-16.2 72.22,-31.21 32.13,-22.42 56.31,-54.94 71.75,-91.27 6.15,-14.01 10.9,-28.64 14.29,-43.47 2.5,-10.72 4.29,-24.8 5.6,-40.49 -36.16,2.76 -72.05,11.36 -106.13,23.94"
         style="fill:#3c3c3d;fill-opacity:1;fill-rule:nonzero;stroke:none"
         id="path2623" />
      <path
         d="m 2326.5,4349.89 -0.65,-2.27 c -6.79,-23.48 -19.38,-45.86 -39.09,-60.44 0.46,7.04 0.78,13.96 1.11,20.88 -18,-27.58 -40.62,-52.21 -66.57,-72.49 4.58,16.64 11.3,32.51 20.83,47.56 19.64,30.76 49.84,54.77 84.37,66.76"
         style="fill:#515153;fill-opacity:1;fill-rule:nonzero;stroke:none"
         id="path2625" />
      <path
         d="m 2421.48,4408.02 c 0.24,-9.53 0.62,-19.06 0.99,-28.59 -20.6,4.21 -40.65,11.53 -59.07,21.63 13.91,12.81 30.02,23.21 46.49,29.51 35.02,13.6 74.33,14.36 110.92,6.14 25.69,-5.95 50.49,-16.2 72.22,-31.21 32.13,-22.42 56.31,-54.94 71.75,-91.27 -87.53,0.12 -173.65,39.32 -243.3,93.79"
         style="fill:#515153;fill-opacity:1;fill-rule:nonzero;stroke:none"
         id="path2627" />
      <path
         d="m 3266.4,1934.26 c -62.47,-52.89 -807.48,-63.5 -807.48,-63.5 0,0 -745.01,10.61 -807.48,63.5 -62.47,52.9 -33.61,327.85 0,380.75 28.11,44.14 292.9,166.78 379.7,206.02 17.21,7.86 27.45,12.39 27.45,12.39 l 372.73,-14.02 397.35,13.29 c 0,0 33.83,-16.7 50.74,-25.08 86.28,-42.51 358.87,-148.39 386.99,-192.6 33.68,-52.9 62.46,-327.85 0,-380.75"
         style="fill:#2a2a36;fill-opacity:1;fill-rule:nonzero;stroke:none"
         id="path2629" />
      <path
         d="m 2570.69,2098.44 24.68,-217.57 13.22,188.28 423.1,140.23 -461,-110.94"
         style="fill:#1e1d24;fill-opacity:1;fill-rule:nonzero;stroke:none"
         id="path2631" />
      <path
         d="m 2774.22,2147.42 -233.64,114.97 173.75,-129.38 z"
         style="fill:#1e1d24;fill-opacity:1;fill-rule:nonzero;stroke:none"
         id="path2633" />
      <path
         d="m 2358.47,2016.17 c -4.53,-2.37 -9.72,-3.78 -14.84,-4.23 -19.66,-1.71 -39.25,7.57 -52.6,21.96 -13.43,14.47 -14.25,34.5 -23.67,51.79 -30.94,56.6 -65.29,111.35 -102.83,163.81 55.35,-52.75 105.28,-111.07 148.98,-173.75 -45.7,127.31 -106.54,249.2 -181.4,361.97 101.86,-91.48 175.46,-214.04 208.25,-346.99 0,0 10.24,-44.59 18.11,-74.56"
         style="fill:#1e1d24;fill-opacity:1;fill-rule:nonzero;stroke:none"
         id="path2635" />
      <path
         d="M 2252.11,2068.72 V 1875.9 c 91.59,2.13 161.23,3.91 161.23,3.91 l 3.63,39.2 10.06,108.05 c 0,0 -76.83,18.32 -174.92,41.66"
         style="fill:#f68b75;fill-opacity:1;fill-rule:nonzero;stroke:none"
         id="path2637" />
      <path
         d="m 2582.85,2033.61 c 16.32,-4.23 27.54,-37.45 35.65,-47.83 3.95,-4.86 19.55,-1.49 34.64,3.41 16.41,5.33 32.46,12.37 32.46,12.37 0,0 17.53,-0.35 42.74,-12.59 25.33,-12.14 38.07,-51.11 32.24,-76.66 -1.75,-7.44 -6.56,-12.43 -12.45,-15.6 -14.4,-7.82 -35.4,-5.69 -35.4,-5.69 0,0 9.7,-11.55 17.54,-27.83 l -0.01,-0.1 c 4.66,-9.75 8.78,-21.09 9.62,-32.77 0.16,-3.04 0.01,-6.14 -0.43,-9.72 l -0.01,-0.1 c -0.4,-2.64 -0.94,-5.48 -1.69,-8.38 -1.79,-7.74 -4.65,-16.36 -8.34,-24.96 -1.28,-2.93 -2.52,-5.65 -3.91,-8.67 -4.56,-9.51 -9.91,-18.79 -15.49,-26.8 -2.02,-3.02 -4.11,-5.83 -6.27,-8.42 -7.92,-9.73 -16.14,-15.98 -22.81,-16.01 -22.46,0.06 -38.11,28.75 -65.92,32.01 -27.9,3.38 -132.4,96.88 -132.4,96.88 l -69.27,23.66 -33.94,11.58 2.05,29.45 0.82,11.63 6.81,96.16 37.95,-1.57 37.63,-1.62 14.58,-0.64 c 0,0 6.16,0.84 15.63,2.22 25.81,3.49 75.87,9.78 87.98,6.59"
         style="fill:#f68b75;fill-opacity:1;fill-rule:nonzero;stroke:none"
         id="path2639" />
      <path
         d="m 2739.88,1830.32 c -0.84,11.68 -4.95,23.02 -9.62,32.77 l 0.01,0.1 c -7.85,16.28 -17.54,27.83 -17.54,27.83 0,0 -46.47,-83.09 -76.67,-86.75 -30.22,-3.77 -134.14,81.94 -134.14,81.94 l -84.95,32.8 -34.7,13.46 -130.16,-14.61 v -41.96 c 91.59,2.13 161.23,3.91 161.23,3.91 l 69.27,-23.66 c 0,0 104.5,-93.51 132.4,-96.88 27.81,-3.27 43.45,-31.95 65.92,-32.01 6.67,0.03 14.9,6.28 22.81,16.01 2.16,2.59 4.25,5.4 6.27,8.42 5.58,8 10.93,17.29 15.49,26.8 1.39,3.02 2.63,5.74 3.91,8.67 3.69,8.6 6.55,17.22 8.34,24.96 0.76,2.91 1.29,5.74 1.69,8.38 l 0.01,0.1 c 0.44,3.58 0.59,6.68 0.43,9.72"
         style="fill:#f36165;fill-opacity:1;fill-rule:nonzero;stroke:none"
         id="path2641" />
      <path
         d="m 2680.92,1773.12 c 8.71,-9.46 18.53,-15.25 29.07,-21.44 -2.01,-2.99 -4.12,-5.8 -6.21,-8.33 -11.79,4.55 -22.65,13.24 -31,22.04 -1.8,1.99 -1.82,4.57 -0.66,6.85 0.78,1.55 1.81,1.98 3.39,2.5 1.86,0.6 4.15,-0.2 5.41,-1.62"
         style="fill:#f03d62;fill-opacity:1;fill-rule:nonzero;stroke:none"
         id="path2643" />
      <path
         d="m 2696.75,1806.78 c 6.89,-4.89 13.3,-10.23 20.86,-14.3 3.83,-2.04 7.75,-3.62 11.77,-5.3 -1.18,-2.92 -2.46,-5.75 -3.91,-8.66 -13.2,3.66 -26.38,11.85 -34.73,20.93 -3.5,3.88 1.48,10.58 6.01,7.33"
         style="fill:#f03d62;fill-opacity:1;fill-rule:nonzero;stroke:none"
         id="path2645" />
      <path
         d="m 2701.53,1841.64 c 7.83,-4.36 14.41,-10.44 22.43,-14.61 5.01,-2.63 10.13,-4.61 15.44,-6.41 l -0.01,-0.09 c -0.35,-2.67 -0.88,-5.52 -1.6,-8.45 -15.51,3.63 -32.56,11.74 -41.7,22.78 -3.22,3.87 1.08,9.3 5.44,6.78"
         style="fill:#f03d62;fill-opacity:1;fill-rule:nonzero;stroke:none"
         id="path2647" />
      <path
         d="m 2718.35,1964.8 c 1.79,0.25 3.33,-1.22 4.47,-2.63 8.81,-10.86 14.27,-27.94 12.22,-41.77 -12.51,-7.48 -28.86,-8.04 -41.85,-1.44 9.83,1.83 19.85,4.99 29.68,6.82 4.92,13.28 4.27,27.92 -4.52,39.02"
         style="fill:#f03d62;fill-opacity:1;fill-rule:nonzero;stroke:none"
         id="path2649" />
      <path
         d="m 2442.13,2004.54 c 20.93,-7.3 45.25,-17.21 67.84,-18.61 1.08,-3.86 7.61,-3.58 7.49,1 -0.51,18.2 22.04,11.34 30.56,6.58 6,-3.36 10.98,-8.17 16.95,-11.48 1.69,-0.93 3.47,0.91 2.59,2.57 -9.01,17.22 -53.27,34.13 -57.43,7.05 -20.94,8.49 -44.73,12.44 -66.07,19.85 -4.4,1.53 -6.3,-5.44 -1.93,-6.96"
         style="fill:#f03d62;fill-opacity:1;fill-rule:nonzero;stroke:none"
         id="path2651" />
      <path
         d="m 2252.11,1875.9 43.56,219.01 -400.18,167.48 338.48,-179.82 18.14,-206.67"
         style="fill:#1e1d24;fill-opacity:1;fill-rule:nonzero;stroke:none"
         id="path2653" />
      <path
         d="m 2236.15,3634.01 h -0.14 l 0.14,-0.14 z"
         style="fill:#f68b75;fill-opacity:1;fill-rule:nonzero;stroke:none"
         id="path2655" />
      <path
         d="m 3064.52,3496.23 c 0,0 -125.04,100.24 -146.6,110.73 -21.35,10.39 -182.32,18.67 -185.39,18.83 l -10.67,2.9 -19.56,5.33 -1.23,-0.31 h -0.3 l -2.15,-0.72 h -0.11 l -16.18,-4.5 h -0.1 l -218.01,-150.6 -230,163.71 -47.16,-5.51 0.04,1.33 c 0,0 -84.72,-11.23 -93.35,-17.5 -8.62,-6.28 -177.21,-70.87 -177.21,-70.87 0,0 158.84,-314.75 162.96,-316.91 1.18,-0.61 9.64,10.79 21.16,27.5 -0.71,-2.34 -1.44,-4.68 -2.12,-7.07 l -0.1,-0.2 c -11.37,-40.25 -16.49,-85.2 -1.43,-122.68 15.66,-38.81 40.75,-73.93 64.51,-101.58 l 0.1,-0.11 c 3.48,-4.19 6.76,-8.08 10.14,-11.77 l -6.76,-148.08 -27.55,-113.46 -0.51,-1.84 -53.55,-220.16 c 44.03,-6.35 337.82,-47.83 352.05,-44.04 12.09,3.18 261.74,28.78 366.7,39.43 l -12.08,66.77 -30.62,169.78 -13.93,76.9 -8.7,180.74 c 1.33,1.64 2.87,3.17 4.2,4.92 h -0.1 c 24.06,27.85 49.46,63.28 65.23,102.5 3.8,9.34 6.24,19.39 7.73,29.81 l 0.04,-0.11 250.61,336.84"
         style="fill:#f04025;fill-opacity:1;fill-rule:nonzero;stroke:none"
         id="path2657" />
      <path
         d="m 2380.95,2989.72 c -29.77,0 -59.52,5.64 -87.18,17.18 8.99,-0.8 18,-1.19 27.01,-1.19 57.86,0 115.71,16.27 164.9,46.76 52.85,-29.51 111.99,-47.67 172.3,-52.89 -21.87,-5.51 -44.23,-8.32 -66.52,-8.32 -36.32,0 -72.44,7.46 -105.81,22.86 -32.53,-16.12 -68.63,-24.4 -104.7,-24.4"
         style="fill:#e42923;fill-opacity:1;fill-rule:nonzero;stroke:none"
         id="path2659" />
      <path
         d="m 2432.04,2488.41 c -0.55,0 -1.16,0.01 -1.82,0.03 0.66,-0.02 1.27,-0.03 1.82,-0.03 v 0 m -346.67,43.99 c -0.04,0.01 -0.07,0.01 -0.11,0.02 v 0 c 0.04,-0.01 0.07,-0.01 0.11,-0.02"
         style="fill:#19181c;fill-opacity:1;fill-rule:nonzero;stroke:none"
         id="path2661" />
      <path
         d="m 2432.04,2488.41 c -0.55,0 -1.16,0.01 -1.82,0.03 -41.72,1.11 -297.64,37.18 -344.85,43.96 -0.04,0.01 -0.07,0.01 -0.11,0.02 -0.12,0.02 -0.25,0.03 -0.37,0.05 v 0 c -0.09,0.01 -0.16,0.02 -0.24,0.04 -0.11,0.01 -0.22,0.03 -0.33,0.04 -0.04,0.01 -0.09,0.02 -0.13,0.02 -0.11,0.02 -0.23,0.03 -0.33,0.05 -0.06,0.01 -0.12,0.02 -0.17,0.02 -0.1,0.02 -0.2,0.03 -0.3,0.05 v 0 l 53.55,220.16 0.51,1.84 27.55,113.46 6.76,148.08 39.32,-263.38 -39.32,-146.95 240.54,-49.76 377.76,38.71 12.08,-66.77 c -16.4,-1.67 -36.33,-3.69 -58.34,-5.95 -118.84,-12.15 -298.16,-30.8 -308.36,-33.48 -0.62,-0.16 -1.77,-0.24 -3.4,-0.24"
         style="fill:#e42923;fill-opacity:1;fill-rule:nonzero;stroke:none"
         id="path2663" />
      <path
         d="m 2876.38,1233 c -2.97,-99.22 -173.88,-174.59 -381.76,-168.34 -207.87,6.34 -373.97,91.85 -371,191.08 2.97,99.22 173.98,174.59 381.86,168.35 11.88,-0.31 23.55,-0.93 35.12,-1.85 90.94,-6.76 171.94,-28.67 231.53,-59.9 65.85,-34.51 105.68,-80.29 104.25,-129.34"
         style="fill:#b29c33;fill-opacity:1;fill-rule:nonzero;stroke:none"
         id="path2665" />
      <path
         d="m 2518.65,1064.29 c -7.95,0 -15.96,0.12 -24.03,0.37 -206.04,6.29 -371.04,90.35 -371.04,188.46 0,0.87 0.02,1.74 0.04,2.62 2.86,95.37 160.97,168.71 357.83,168.71 7.95,0 15.96,-0.12 24.03,-0.36 11.88,-0.31 23.55,-0.93 35.12,-1.85 -54.88,-32.97 -49.87,-130.35 6.04,-166.2 19.49,-12.46 41.7,-18.08 64.33,-18.08 45.77,0 93.3,22.97 123.58,58.74 16.49,19.56 28.78,41.88 37.58,65.64 64.69,-33.91 104.27,-78.68 104.29,-126.75 0,-0.86 -0.02,-1.72 -0.04,-2.59 -2.86,-95.37 -160.87,-168.71 -357.73,-168.71"
         style="fill:#a38a25;fill-opacity:1;fill-rule:nonzero;stroke:none"
         id="path2667" />
      <path
         d="m 2942.83,557.969 h -885.66 l 429.56,413.812 305.98,-277.609 150.12,-136.203"
         style="fill:#7e2d28;fill-opacity:1;fill-rule:nonzero;stroke:none"
         id="path2669" />
      <path
         d="m 2942.83,557.969 h -885.66 l 429.56,413.812 c 0,0 -11.69,-297.472 200.78,-297.472 30.28,0 65.12,6.05 105.2,19.863 l 150.12,-136.203"
         style="fill:#6a231f;fill-opacity:1;fill-rule:nonzero;stroke:none"
         id="path2671" />
      <path
         d="m 1074.21,1063.63 c -224.667,-34 -435.718,105.06 -497.464,317.44 -5.633,19.05 -9.933,38.61 -13.004,58.78 -37.07,244.85 131.379,473.41 376.223,510.48 120.215,18.22 236.445,-13.11 328.095,-78.65 95.03,-68.1 163.54,-172.96 182.38,-297.58 37.07,-244.84 -131.28,-473.4 -376.23,-510.47"
         style="fill:#fab327;fill-opacity:1;fill-rule:nonzero;stroke:none"
         id="path2673" />
      <path
         d="m 861.391,1442.92 v -215.71 h 233.689 v 56.5 c 0,0 51.35,-19.26 64.2,-2.57 12.83,16.69 10.27,77.04 -6.42,86.03 -16.7,8.98 -62.92,-32.1 -62.92,-32.1 v 107.85 h -82.18 c 0,0 16.67,-46.22 -33.393,-46.22 -50.062,0 -41.074,46.22 -41.074,46.22 h -71.902"
         style="fill:#f04025;fill-opacity:1;fill-rule:nonzero;stroke:none"
         id="path2675" />
      <path
         d="m 1250.12,1434.25 105.29,188.27 -203.96,114.06 -27.57,-49.31 c 0,0 -35.43,41.88 -54.78,33.58 -19.36,-8.3 -46.57,-62.23 -36.39,-78.22 10.18,-15.99 70.58,-2.69 70.58,-2.69 l -52.65,-94.13 71.73,-40.11 c 0,0 8.01,48.48 51.7,24.04 43.7,-24.44 13.3,-60.39 13.3,-60.39 l 62.75,-35.1"
         style="fill:#fffaf5;fill-opacity:1;fill-rule:nonzero;stroke:none"
         id="path2677" />
      <path
         d="m 1006.04,1696.27 -178.442,121.2 -131.297,-193.31 46.734,-31.75 c 0,0 -44.793,-31.66 -38.199,-51.66 6.594,-20 57.961,-51.78 74.773,-43.03 16.813,8.76 8.797,70.09 8.797,70.09 l 89.219,-60.6 46.172,67.97 c 0,0 -47.602,12.18 -19.473,53.6 28.129,41.41 61.317,8.01 61.317,8.01 l 40.399,59.48"
         style="fill:#5db3a4;fill-opacity:1;fill-rule:nonzero;stroke:none"
         id="path2679" />
      <path
         d="m 1006.58,1058.52 c -198.228,0 -374.33,131.65 -429.834,322.55 41.664,-10.13 81.371,-14.79 119.117,-14.79 59.992,0 115.106,11.77 165.528,32.03 v -171.1 h 233.689 v 56.5 c 0,0 25,-9.38 44.47,-9.38 8.44,0 15.84,1.76 19.73,6.81 12.83,16.69 10.27,77.04 -6.42,86.03 -1.65,0.88 -3.58,1.28 -5.73,1.28 -19.63,0 -57.19,-33.38 -57.19,-33.38 v 107.85 h -82.18 c 0,0 16.67,-46.22 -33.393,-46.22 -36.094,0 -41.492,24.03 -41.695,37.44 47.769,29.02 90.528,65.48 128.558,105.75 l 61.14,-34.19 c 0,0 5.11,30.92 29.43,30.92 6.13,0 13.48,-1.96 22.27,-6.88 43.7,-24.44 13.3,-60.39 13.3,-60.39 l 62.75,-35.1 105.29,188.27 -165.3,92.44 c 33.44,57.13 59.24,112.12 77.95,156.72 95.03,-68.1 163.54,-172.96 182.38,-297.58 3.44,-22.71 5.11,-45.29 5.11,-67.58 0,-2.2 -0.01,-4.38 -0.04,-6.58 -3.12,-215.27 -161.32,-403.02 -381.3,-436.31 -22.72,-3.44 -45.33,-5.11 -67.63,-5.11"
         style="fill:#f79510;fill-opacity:1;fill-rule:nonzero;stroke:none"
         id="path2681" />
      <path
         d="M 1095.08,1227.21 H 861.391 v 171.1 c 24.89,10 48.648,22.08 71.281,35.83 0.203,-13.41 5.601,-37.44 41.695,-37.44 50.063,0 33.393,46.22 33.393,46.22 h 82.18 v -107.85 c 0,0 37.56,33.38 57.19,33.38 2.15,0 4.08,-0.4 5.73,-1.28 16.69,-8.99 19.25,-69.34 6.42,-86.03 -3.89,-5.05 -11.29,-6.81 -19.73,-6.81 -19.47,0 -44.47,9.38 -44.47,9.38 v -56.5"
         style="fill:#e42923;fill-opacity:1;fill-rule:nonzero;stroke:none"
         id="path2683" />
      <path
         d="m 1250.12,1434.25 -62.75,35.1 c 0,0 30.4,35.95 -13.3,60.39 -8.79,4.92 -16.14,6.88 -22.27,6.88 -24.32,0 -29.43,-30.92 -29.43,-30.92 l -61.14,34.19 c 51.49,54.5 94.27,115.94 128.88,175.07 l 165.3,-92.44 -105.29,-188.27"
         style="fill:#fef6ee;fill-opacity:1;fill-rule:nonzero;stroke:none"
         id="path2685" />
      <path
         d="m 1080.28,1927.62 c -157.186,-23.76 -305.667,61.85 -367.928,200.09 -12.7,28.16 -21.813,58.57 -26.727,90.73 -28.676,189.34 101.582,365.98 290.82,394.65 96.875,14.65 190.465,-12.29 262.555,-67.48 68.82,-52.53 118.18,-130.97 132.1,-223.34 28.67,-189.34 -101.48,-366.08 -290.82,-394.65"
         style="fill:#5db3a4;fill-opacity:1;fill-rule:nonzero;stroke:none"
         id="path2687" />
      <path
         d="m 1043.66,2074.71 c -10.78,6.47 -353.558,220.77 -194.027,305.49 159.527,84.72 178.747,-128.71 178.747,-128.71 0,0 10.96,194.77 161.87,166.37 150.91,-28.4 -146.59,-343.15 -146.59,-343.15"
         style="fill:#fab327;fill-opacity:1;fill-rule:nonzero;stroke:none"
         id="path2689" />
      <path
         d="m 1027.97,1923.67 c -137.025,0 -260.322,81.25 -315.618,204.04 10.765,-0.66 21.562,-1 32.347,-1 61.864,0 123.668,10.91 181.332,32.87 56.731,-46.97 113.349,-82.3 117.629,-84.87 0,0 287.21,303.86 154.1,341.4 19.4,41.13 33.43,84.77 41.24,129.5 68.82,-52.53 118.18,-130.97 132.1,-223.34 2.66,-17.56 3.96,-35.02 3.96,-52.26 0.06,-168.6 -123,-316.48 -294.78,-342.39 -17.58,-2.66 -35.06,-3.95 -52.31,-3.95"
         style="fill:#389286;fill-opacity:1;fill-rule:nonzero;stroke:none"
         id="path2691" />
      <path
         d="m 1043.66,2074.71 c -4.28,2.57 -60.898,37.9 -117.629,84.87 19.301,7.35 38.137,15.95 56.356,25.78 94.293,50.96 169.713,133.93 215.373,230.75 133.11,-37.54 -154.1,-341.4 -154.1,-341.4"
         style="fill:#f79510;fill-opacity:1;fill-rule:nonzero;stroke:none"
         id="path2693" />
      <path
         d="m 4372.45,1268.34 c -66.97,-106.5 -178.28,-184.33 -312.43,-204.71 -244.84,-37.06 -473.4,131.39 -510.47,376.33 -36.76,243 128.82,469.92 370.69,509.55 1.85,0.31 3.69,0.62 5.53,0.92 244.85,37.07 473.41,-131.38 510.48,-376.22 16.79,-110.7 -8.5,-218.12 -63.8,-305.87"
         style="fill:#5db3a4;fill-opacity:1;fill-rule:nonzero;stroke:none"
         id="path2695" />
      <path
         d="m 3993.46,1643.33 c 7.78,5.32 18.23,8.09 31.54,8.5 3.79,0.1 7.78,0 12.09,-0.51 10.85,-0.92 23.45,-3.59 37.68,-7.89 8.5,-2.66 17.1,-5.83 25.7,-9.52 10.55,-4.61 21.1,-10.14 31.64,-16.49 19.15,-11.47 36.97,-25.49 53.25,-41.78 l 53.25,61.14 c -16.38,17.61 -37.07,33.59 -61.95,47.92 -17.1,9.83 -34.82,18.23 -53.15,25.29 -8.29,3.18 -16.69,6.05 -25.19,8.71 -13.21,3.99 -25.8,7.17 -37.89,9.52 -25.7,5.12 -48.94,6.56 -69.73,4.4 -30.62,-3.17 -55.5,-12.28 -74.65,-27.44 -4.71,-3.79 -9.12,-7.78 -13.21,-12.08 -11.98,-12.8 -20.69,-27.96 -26.01,-45.37 -6.45,-21.3 -7.38,-40.34 -2.67,-57.14 4.61,-16.89 13.21,-31.95 25.71,-45.26 12.49,-13.31 26.93,-25.29 43.42,-35.94 14.23,-9.32 28.57,-17.92 42.9,-25.81 2.25,-1.43 4.61,-2.66 6.86,-3.89 16.8,-9.11 32.06,-18.02 45.98,-26.62 1.84,-1.13 3.69,-2.36 5.43,-3.59 11.26,-7.47 19.97,-15.25 26.21,-23.14 7.27,-9.21 9.22,-19.15 5.94,-30 -2.66,-8.5 -7.78,-15.06 -15.56,-19.66 -7.68,-4.71 -18.33,-7.07 -31.75,-7.17 -2.86,0 -5.83,0.1 -9.01,0.31 -11.67,0.92 -25.29,3.78 -40.96,8.5 -7.68,2.35 -15.26,5.01 -22.73,7.98 -17.82,7.27 -35.02,16.39 -51.51,27.55 -23.25,15.77 -42.19,32.56 -56.73,50.48 l -55.71,-60.41 c 15.26,-19.87 37.69,-39.02 67.18,-57.45 22.94,-14.34 47.61,-26.32 73.83,-35.95 7.37,-2.76 15.05,-5.32 22.73,-7.67 14.14,-4.31 27.65,-7.58 40.55,-10.04 24.68,-4.61 47.21,-5.84 67.49,-3.69 30.92,3.28 56.01,12.39 75.26,27.24 14.44,11.27 25.5,24.78 33.08,40.55 2.35,5.12 4.4,10.45 6.14,15.98 6.35,20.89 6.97,39.73 1.95,56.73 -5.02,17 -13.83,31.85 -26.22,44.75 -12.39,12.8 -26.72,24.68 -42.9,35.53 -13.42,8.91 -27.14,17.31 -41.27,25.19 -2.87,1.64 -5.84,3.28 -8.81,4.81 -17.1,9.22 -32.56,18.03 -46.39,26.22 -1.12,0.72 -2.35,1.43 -3.37,2.05 -12.19,7.68 -21.61,15.77 -28.06,24.27 -7.17,9.32 -9.12,19.45 -5.74,30.31 2.56,8.5 7.68,15.36 15.36,20.58 m 86.53,149.3 -19.56,-64.41 -23.34,-76.9 -25.19,-83.15 -17.31,-56.63 -8.4,-27.96 -29.59,-97.28 -22.94,-75.78 -19.25,-63.28 62.87,-19.15 19.66,64.72 23.35,77.01 24.17,79.66 1.53,4.82 24.48,80.79 30,98.82 23.04,76.08 19.36,63.6 -62.88,19.04"
         style="fill:#fab327;fill-opacity:1;fill-rule:nonzero;stroke:none"
         id="path2697" />
      <path
         d="m 3992.35,1058.52 c -218,0 -409.17,159.24 -442.8,381.44 -3.45,22.78 -5.11,45.42 -5.11,67.78 0.06,210.28 148.28,395.59 358.2,438.53 5.07,-0.87 10.2,-1.64 15.33,-2.3 -31.44,-78.29 -36.04,-168.34 -15.13,-250.87 -11.98,-12.8 -20.69,-27.96 -26.01,-45.37 -6.45,-21.3 -7.38,-40.34 -2.67,-57.14 4.61,-16.89 13.21,-31.95 25.71,-45.26 12.49,-13.31 26.93,-25.29 43.42,-35.94 14.23,-9.32 28.57,-17.92 42.9,-25.81 v 0 l -29.59,-97.28 v 0 c -17.82,7.27 -35.02,16.39 -51.51,27.55 -23.25,15.77 -42.19,32.56 -56.73,50.48 l -55.71,-60.41 c 15.26,-19.87 37.69,-39.02 67.18,-57.45 22.94,-14.34 47.61,-26.32 73.83,-35.95 v 0 l -19.25,-63.28 62.87,-19.15 19.66,64.72 c 16.83,-3.14 32.66,-4.71 47.45,-4.71 6.91,0 13.59,0.34 20.04,1.02 30.92,3.28 56.01,12.39 75.26,27.24 14.44,11.27 25.5,24.78 33.08,40.55 v 0 c 62.46,-37.58 129.95,-66.15 199.68,-88.57 -66.97,-106.5 -178.28,-184.33 -312.43,-204.71 -22.73,-3.44 -45.36,-5.11 -67.67,-5.11 m 36.95,310.99 c -2.86,0 -5.83,0.1 -9.01,0.31 l 24.17,79.66 c 11.26,-7.47 19.97,-15.25 26.21,-23.14 7.27,-9.21 9.22,-19.15 5.94,-30 -2.66,-8.5 -7.78,-15.06 -15.56,-19.66 -7.68,-4.71 -18.33,-7.07 -31.75,-7.17"
         style="fill:#389286;fill-opacity:1;fill-rule:nonzero;stroke:none"
         id="path2699" />
      <path
         d="m 3977.28,1228.09 -62.87,19.15 19.25,63.28 v 0 c -26.22,9.63 -50.89,21.61 -73.83,35.95 -29.49,18.43 -51.92,37.58 -67.18,57.45 l 55.71,60.41 c 14.54,-17.92 33.48,-34.71 56.73,-50.48 16.49,-11.16 33.69,-20.28 51.51,-27.55 v 0 l 29.59,97.28 v 0 c -14.33,7.89 -28.67,16.49 -42.9,25.81 -16.49,10.65 -30.93,22.63 -43.42,35.94 -12.5,13.31 -21.1,28.37 -25.71,45.26 -4.71,16.8 -3.78,35.84 2.67,57.14 5.32,17.41 14.03,32.57 26.01,45.37 v 0 c 1.12,-4.4 2.35,-8.81 3.58,-13.21 17.82,-61.44 48.64,-118.07 88.17,-168.35 15.77,-20.17 33.08,-39.32 51.4,-57.24 30.83,-30.31 64.82,-57.45 100.77,-81.11 8.5,-5.63 17.2,-11.06 26.01,-16.28 -7.58,-15.77 -18.64,-29.28 -33.08,-40.55 -19.25,-14.85 -44.34,-23.96 -75.26,-27.24 -6.45,-0.68 -13.13,-1.02 -20.04,-1.02 -14.79,0 -30.62,1.57 -47.45,4.71 v 0 l -19.66,-64.72 m 43.01,141.73 c 3.18,-0.21 6.15,-0.31 9.01,-0.31 13.42,0.1 24.07,2.46 31.75,7.17 7.78,4.6 12.9,11.16 15.56,19.66 3.28,10.85 1.33,20.79 -5.94,30 -6.24,7.89 -14.95,15.67 -26.21,23.14 v 0 l -24.17,-79.66"
         style="fill:#f79510;fill-opacity:1;fill-rule:nonzero;stroke:none"
         id="path2701" />
      <path
         d="m 4032.53,1948.23 c -190.98,-38.61 -377.04,84.89 -415.65,275.87 -17.41,86.12 -1.84,171.21 37.99,242.28 48.44,86.53 132.92,152.17 237.78,173.37 151.66,30.62 300.14,-40.86 374.18,-167.22 19.35,-32.77 33.48,-69.33 41.47,-108.65 38.61,-190.98 -84.89,-377.05 -275.77,-415.65"
         style="fill:#fab327;fill-opacity:1;fill-rule:nonzero;stroke:none"
         id="path2703" />
      <path
         d="m 3794.27,2330.52 11.91,-241.51 333.81,16.46 -10.48,212.54 -157.76,121.16 -177.48,-108.65"
         style="fill:#f04025;fill-opacity:1;fill-rule:nonzero;stroke:none"
         id="path2705" />
      <path
         d="m 4037.44,2100.41 -127.45,-6.28 -10.16,206.04 127.46,6.29 10.15,-206.05"
         style="fill:#fffaf5;fill-opacity:1;fill-rule:nonzero;stroke:none"
         id="path2707" />
      <path
         d="m 3918.42,2514.74 -147.75,-204.84 71.66,-27.05 127.96,136.68 95.78,-131 c 0,0 87.01,17.23 86.57,27.27 -0.44,10.05 -151.63,207.71 -151.63,207.71 l -82.59,-8.77"
         style="fill:#fffaf5;fill-opacity:1;fill-rule:nonzero;stroke:none"
         id="path2709" />
      <path
         d="m 3962.25,1941.16 c -14.93,0 -29.71,0.96 -44.28,2.81 -5.13,0.66 -10.26,1.43 -15.33,2.3 -139.25,24.04 -256.07,130.98 -285.76,277.83 -4.76,23.55 -7.05,47.02 -7.06,70.15 -0.02,61.46 16.11,120.5 45.05,172.13 3.9,-39.53 15.67,-78.03 35.44,-112.54 25.46,-44.27 63.56,-80.28 108.01,-105.32 l 7.86,-159.51 230.61,11.37 0.65,0.03 102.55,5.06 -8.5,172.41 c 60.25,48.87 105.74,118.82 135.34,194.65 19.35,-32.77 33.48,-69.33 41.47,-108.65 4.75,-23.5 7.05,-46.93 7.06,-70.01 0.13,-164.53 -115.44,-311.79 -282.83,-345.64 -23.58,-4.77 -47.12,-7.07 -70.28,-7.07"
         style="fill:#f79510;fill-opacity:1;fill-rule:nonzero;stroke:none"
         id="path2711" />
      <path
         d="m 3806.18,2089.01 -7.86,159.51 c 32.67,-18.4 68.81,-30.88 105.85,-36.32 l 5.82,-118.07 126.8,6.25 -230.61,-11.37 m 231.26,11.4 -6.02,122.3 c 36.87,12.01 70.28,31.01 100.07,55.17 l 8.5,-172.41 -102.55,-5.06"
         style="fill:#e42923;fill-opacity:1;fill-rule:nonzero;stroke:none"
         id="path2713" />
      <path
         d="m 3909.99,2094.13 -5.82,118.07 c 13.93,-2.04 27.98,-3.09 42.05,-3.09 20.38,0 40.74,2.2 60.71,6.8 8.33,1.92 16.49,4.2 24.49,6.8 l 6.02,-122.3 -0.65,-0.03 -126.8,-6.25"
         style="fill:#fef6ee;fill-opacity:1;fill-rule:nonzero;stroke:none"
         id="path2715" />
      <path
         d="M 4300.99,907.52 H 699.012 L 598.949,1076.2 H 4401.05 L 4300.99,907.52"
         style="fill:#7e2d28;fill-opacity:1;fill-rule:nonzero;stroke:none"
         id="path2717" />
    </g>
  </g>
</svg>
