<?xml version="1.0" encoding="UTF-8" standalone="no"?>
<!-- Created with Inkscape (http://www.inkscape.org/) -->

<svg
   version="1.1"
   id="svg2"
   width="666.66669"
   height="666.66669"
   viewBox="0 0 666.66669 666.66669"
   sodipodi:docname="33602557_8057154.eps"
   xmlns:inkscape="http://www.inkscape.org/namespaces/inkscape"
   xmlns:sodipodi="http://sodipodi.sourceforge.net/DTD/sodipodi-0.dtd"
   xmlns="http://www.w3.org/2000/svg"
   xmlns:svg="http://www.w3.org/2000/svg">
  <defs
     id="defs6">
    <clipPath
       clipPathUnits="userSpaceOnUse"
       id="clipPath34">
      <path
         d="m 2151.78,2374.17 -621.84,-170.7 241.22,-1476.099 c 20.47,-125.312 13,-253.59 -21.88,-375.672 l -178.7,-625.449 h 1615.58 l 304.82,2670.27 -676.71,67.06 z"
         id="path32" />
    </clipPath>
    <clipPath
       clipPathUnits="userSpaceOnUse"
       id="clipPath40">
      <path
         d="M 5000,0 H 0 v 5000 h 5000 z"
         id="path38" />
    </clipPath>
    <clipPath
       clipPathUnits="userSpaceOnUse"
       id="clipPath96">
      <path
         d="m 2686.24,2128.28 347.5,54.87 262.15,-627.95 c 0,0 -42.67,475.53 30.49,707.2 73.15,231.67 371.88,188.99 451.14,-317.02 C 3856.77,1439.37 3661.68,591.961 3314.18,573.672 2966.68,555.379 2716.73,1695.42 2686.24,2128.28 Z"
         id="path94" />
    </clipPath>
    <clipPath
       clipPathUnits="userSpaceOnUse"
       id="clipPath140">
      <path
         d="m 1454.75,2146.57 c 0,0 140.22,176.79 359.69,-6.1 219.48,-182.9 438.95,-499.91 438.95,-499.91 l -134.12,627.94 341.4,188.99 c 0,0 341.41,-914.48 414.56,-1237.59 73.16,-323.119 -89.26,-439.478 -390.17,-445.048 -329.21,-6.09 -1335.14,755.968 -1030.31,1371.718 z"
         id="path138" />
    </clipPath>
  </defs>
  <sodipodi:namedview
     id="namedview4"
     pagecolor="#ffffff"
     bordercolor="#000000"
     borderopacity="0.25"
     inkscape:showpageshadow="2"
     inkscape:pageopacity="0.0"
     inkscape:pagecheckerboard="0"
     inkscape:deskcolor="#d1d1d1"
     showgrid="false" />
  <g
     id="g10"
     inkscape:groupmode="layer"
     inkscape:label="Page 1"
     transform="matrix(1.3333333,0,0,-1.3333333,0,666.66667)">
    <g
       id="g12"
       transform="scale(0.1)">
      <path
         d="M 5000,0 H 0 V 5000 H 5000 V 0"
         style="fill:#f3e2c8;fill-opacity:1;fill-rule:nonzero;stroke:none"
         id="path14" />
      <path
         d="m 4591.5,2975.27 c 92.26,312.79 -1.71,632.01 -85.56,662.86 -643.83,236.9 -3039.01,771.05 -3526.944,384.85 C 425.781,3585.11 799.246,886.449 1242.15,766.699 1685.05,646.941 3833.93,205.77 4163.04,1164.78 c 259.73,756.87 321.71,1448.58 428.46,1810.49"
         style="fill:#6185d6;fill-opacity:1;fill-rule:nonzero;stroke:none"
         id="path16" />
      <path
         d="m 3230.66,3806.95 -45.27,-277.64 329.82,173.39 c 0,0 401.88,-185.33 643.99,-176.06 242.11,9.27 669.52,898.42 273.38,1166.4 -288.82,195.39 -853.52,55.99 -1138.28,-33.88 -121.04,-38.2 -215.59,-132.86 -254.5,-253.68 -63.41,-196.84 -98.26,-488.01 190.86,-598.53"
         style="fill:#bca00a;fill-opacity:1;fill-rule:nonzero;stroke:none"
         id="path18" />
      <path
         d="m 1557.72,3313.75 -118,113.47 c 0,0 665.96,641.35 247.09,935.92 C 1077.12,4791.89 323.402,4236.8 448.633,3660.08 573.859,3083.36 771.781,2970.6 1074.1,3165.63 c 84.55,54.55 169.12,121.61 169.12,121.61 l 314.5,26.51"
         style="fill:#bca00a;fill-opacity:1;fill-rule:nonzero;stroke:none"
         id="path20" />
      <path
         d="m 2145.3,3944.08 c 0,0 -428.03,-286.36 -354.89,-719.01 46.06,-272.46 -97.9,-388.68 422.34,-816.35 l 675.16,239.15 c 0,0 344.24,359.31 236.36,761.47 -72.26,269.35 -336.8,798.81 -978.97,534.74"
         style="fill:#350c0c;fill-opacity:1;fill-rule:nonzero;stroke:none"
         id="path22" />
      <path
         d="m 2457.22,3922.95 c 0,0 573.26,376.43 91.08,549.64 -482.18,173.21 -559.84,-529 -425.04,-571.13 134.8,-42.13 333.96,21.49 333.96,21.49"
         style="fill:#350c0c;fill-opacity:1;fill-rule:nonzero;stroke:none"
         id="path24" />
      <path
         d="m 2151.78,2374.17 -621.84,-170.7 241.22,-1476.099 c 20.47,-125.312 13,-253.59 -21.88,-375.672 l -178.7,-625.449 h 1615.58 l 304.82,2670.27 -676.71,67.06 -662.49,-89.41"
         style="fill:#ea5a21;fill-opacity:1;fill-rule:nonzero;stroke:none"
         id="path26" />
      <g
         id="g28">
        <g
           id="g30"
           clip-path="url(#clipPath34)">
          <g
             id="g36"
             clip-path="url(#clipPath40)">
            <path
               d="m 956.023,2102.77 c 10.012,-2.49 16.813,-3.84 28.797,-3.9 290.08,0 1742.9,0 1742.9,0 0,0 1334.69,0 1601.18,0 11.99,0.06 18.79,1.41 28.8,3.9 -10.01,2.49 -16.81,3.84 -28.8,3.9 -266.49,0 -1601.18,0 -1601.18,0 0,0 -1452.82,0 -1742.9,0 -11.984,-0.06 -18.785,-1.41 -28.797,-3.9"
               style="fill:#f5e6cf;fill-opacity:1;fill-rule:nonzero;stroke:none"
               id="path42" />
            <path
               d="m 956.023,1718.71 c 10.012,-2.49 16.813,-3.84 28.797,-3.9 290.08,0 1742.9,0 1742.9,0 0,0 1334.69,0 1601.18,0 11.99,0.06 18.79,1.41 28.8,3.9 -10.01,2.49 -16.81,3.84 -28.8,3.9 -266.49,0 -1601.18,0 -1601.18,0 0,0 -1452.82,0 -1742.9,0 -11.984,-0.06 -18.785,-1.41 -28.797,-3.9"
               style="fill:#f5e6cf;fill-opacity:1;fill-rule:nonzero;stroke:none"
               id="path44" />
            <path
               d="m 956.023,1334.65 c 10.012,-2.49 16.813,-3.84 28.797,-3.9 290.08,0 1742.9,0 1742.9,0 0,0 1334.69,0 1601.18,0 11.99,0.06 18.79,1.41 28.8,3.9 -10.01,2.49 -16.81,3.84 -28.8,3.9 -266.49,0 -1601.18,0 -1601.18,0 0,0 -1452.82,0 -1742.9,0 -11.984,-0.06 -18.785,-1.41 -28.797,-3.9"
               style="fill:#f5e6cf;fill-opacity:1;fill-rule:nonzero;stroke:none"
               id="path46" />
            <path
               d="m 956.023,950.59 c 10.012,-2.488 16.813,-3.84 28.797,-3.899 290.08,0 1742.9,0 1742.9,0 0,0 1334.69,0 1601.18,0 11.99,0.059 18.79,1.411 28.8,3.899 -10.01,2.492 -16.81,3.84 -28.8,3.898 -266.49,0 -1601.18,0 -1601.18,0 0,0 -1452.82,0 -1742.9,0 -11.984,-0.058 -18.785,-1.406 -28.797,-3.898"
               style="fill:#f5e6cf;fill-opacity:1;fill-rule:nonzero;stroke:none"
               id="path48" />
            <path
               d="m 956.023,566.531 c 10.012,-2.492 16.813,-3.84 28.797,-3.902 290.08,0 1742.9,0 1742.9,0 0,0 1334.69,0 1601.18,0 11.99,0.062 18.79,1.41 28.8,3.902 -10.01,2.489 -16.81,3.84 -28.8,3.899 -266.49,0 -1601.18,0 -1601.18,0 0,0 -1452.82,0 -1742.9,0 -11.984,-0.059 -18.785,-1.41 -28.797,-3.899"
               style="fill:#f5e6cf;fill-opacity:1;fill-rule:nonzero;stroke:none"
               id="path50" />
            <path
               d="m 956.023,182.469 c 10.012,-2.489 16.813,-3.84 28.797,-3.899 290.08,0 1742.9,0 1742.9,0 0,0 1334.69,0 1601.18,0 11.99,0.059 18.79,1.41 28.8,3.899 -10.01,2.492 -16.81,3.84 -28.8,3.902 -266.49,0 -1601.18,0 -1601.18,0 0,0 -1452.82,0 -1742.9,0 -11.984,-0.062 -18.785,-1.41 -28.797,-3.902"
               style="fill:#f5e6cf;fill-opacity:1;fill-rule:nonzero;stroke:none"
               id="path52" />
          </g>
        </g>
      </g>
      <path
         d="m 2487.11,4514.73 c -9.75,3 -16.62,4.71 -28.75,5.4 -1.64,0.2 -4.12,-0.07 -7.18,-0.22 -1.54,-0.1 -3.22,-0.2 -5.02,-0.3 -3.05,-0.2 -6.14,-0.39 -9.29,-0.58 -3.55,-0.36 -7.2,-0.14 -10.81,-0.99 -7.24,-1.39 -14.68,-2.83 -22.28,-4.29 -7.4,-2.35 -14.89,-5.07 -22.54,-7.69 -7.26,-3.58 -14.63,-7.39 -21.89,-11.54 -13.73,-9.56 -27.16,-20.75 -37.45,-34.89 -21.38,-27.75 -33.83,-62.12 -40.54,-95.99 -13.02,-68.32 -7.47,-134.72 -2.09,-182.66 2.8,-24.08 6.1,-43.73 8.46,-57.39 2.31,-13.68 3.93,-21.32 3.93,-21.32 0,0 1.33,-7.47 5.98,-29.24 2.44,-10.86 5.64,-25.31 10.48,-44.05 2.38,-9.38 5.22,-19.82 8.54,-31.43 0.65,-2.22 1.32,-4.49 2.01,-6.83 v 0.01 c -0.29,0 0.88,0.01 -1.52,-0.01 -6.59,-0.02 -13.52,0.06 -20.79,0.31 -18.35,0.68 -51,2.24 -89.92,9.38 -19.42,3.61 -40.4,8.68 -61.33,16.35 -20.89,7.61 -41.94,18.03 -59.12,33.11 -17.63,14.58 -29.39,35.15 -33.23,56.53 -0.78,5.36 -1.18,10.77 -1.47,16.08 0.06,1.48 0.13,2.94 0.19,4.38 0.06,1.36 0.12,2.68 0.17,3.94 -0.01,5.05 0.81,9.17 1.21,11.52 1.44,11.59 2.61,18.11 2.77,28.56 -4.9,-8.92 -8.82,-15.18 -10.49,-27.42 -0.44,-2.47 -1.3,-6.8 -1.33,-12.21 -0.06,-1.34 -0.12,-2.75 -0.18,-4.2 -0.07,-1.53 -0.13,-3.09 -0.2,-4.67 0.3,-5.7 0.74,-11.54 1.59,-17.33 4.09,-23.19 17.12,-45.68 35.8,-61.1 18.27,-16 40.12,-26.73 61.57,-34.56 21.52,-7.88 42.89,-13.02 62.62,-16.7 39.54,-7.24 72.52,-8.8 91.1,-9.47 7.36,-0.25 14.38,-0.33 21.08,-0.32 2.8,0.05 5.57,0.09 8.3,0.14 l 2.41,0.06 1.2,0.03 c 0.1,0.22 -0.18,0.72 -0.25,1.07 l -1.43,4.59 c -1.11,3.74 -2.2,7.38 -3.25,10.93 -3.3,11.51 -6.12,21.89 -8.48,31.21 -4.81,18.62 -8,32.98 -10.42,43.77 -4.63,21.63 -5.95,29.05 -5.95,29.05 0,0 -1.61,7.6 -3.9,21.18 -2.34,13.57 -5.61,33.09 -8.39,56.96 -5.35,47.53 -10.74,113.41 2.03,180.23 6.56,33.11 18.71,66.31 39.05,92.7 9.79,13.48 22.51,24 35.48,33.08 6.88,3.9 13.86,7.51 20.72,10.93 7.3,2.49 14.46,4.93 21.46,7.32 7.3,1.4 14.43,2.78 21.37,4.12 3.44,0.82 7,0.59 10.42,0.94 3.04,0.18 6.04,0.37 8.98,0.55 1.74,0.12 3.36,0.22 4.85,0.31 2.96,0.16 5.34,0.45 6.95,0.25 11.81,-0.56 18.52,0.45 28.77,2.41"
         style="fill:#4f2b2b;fill-opacity:1;fill-rule:nonzero;stroke:none"
         id="path54" />
      <path
         d="m 2340.3,3969.2 c -4.34,2.57 -8.2,4.71 -12.46,6.64 -4.27,1.93 -9.1,2.4 -15.2,3.36 -1.66,0.15 -4.16,0.75 -7.24,0.63 -4.36,0.04 -9.56,0.08 -15.27,0.12 -7.24,-0.38 -15.09,-1.14 -23.16,-1.95 -7.96,-1.41 -16.25,-2.42 -24.17,-4.22 -15.92,-3.34 -30.77,-7.72 -41.69,-11.06 -10.8,-3.73 -17.76,-6.13 -17.76,-6.13 0,0 -4.16,-1.41 -10.81,-4.14 -6.7,-2.61 -15.99,-6.3 -26.12,-11.12 -20.39,-9.32 -44.38,-22.57 -60.18,-34.28 -7.43,-5.65 -11.84,-9.44 -14.21,-11.3 -4.49,-4.23 -7.6,-8.03 -10.35,-11.65 -2.44,-3.97 -4.12,-8.19 -6.05,-12.82 4.09,3.37 7.12,6.15 10.33,9.02 3.6,2.6 6.96,5.64 11.22,9.59 2.31,1.77 6.53,5.37 13.68,10.81 15.27,11.32 38.81,24.35 58.85,33.52 9.95,4.74 19.09,8.38 25.68,10.95 6.54,2.7 10.63,4.09 10.63,4.09 0,0 6.85,2.36 17.47,6.01 10.74,3.28 25.34,7.57 40.91,10.83 7.76,1.76 15.82,2.72 23.59,4.11 7.82,0.77 15.44,1.51 22.41,1.89 5.47,-0.04 10.45,-0.07 14.62,-0.1 2.97,0.13 5.28,-0.44 6.85,-0.56 5.72,-0.87 10.41,-0.59 14.68,-1.18 4.28,-0.58 8.48,-0.81 13.75,-1.06"
         style="fill:#4f2b2b;fill-opacity:1;fill-rule:nonzero;stroke:none"
         id="path56" />
      <path
         d="m 2086.75,2711.51 85.98,-469.58 c 15.94,-87.02 64.31,-164.92 135.84,-216.97 95.44,-69.46 237.85,-128.23 381.29,-22.44 76.54,56.44 120.84,146.66 124.03,241.71 l 16.64,495.73 -743.78,-28.45"
         style="fill:#e7b092;fill-opacity:1;fill-rule:nonzero;stroke:none"
         id="path58" />
      <path
         d="m 1948.57,3065.11 c 0,0 73.15,-634.04 560.87,-609.65 487.73,24.38 585.27,658.42 373.92,1032.34 -211.34,373.92 -512.1,325.14 -634.03,268.24 -121.93,-56.9 -349.54,-325.14 -300.76,-690.93"
         style="fill:#e7b092;fill-opacity:1;fill-rule:nonzero;stroke:none"
         id="path60" />
      <path
         d="m 1942.47,3243.94 c 0,0 292.63,91.44 268.25,487.72 0,0 219.47,-469.43 621.84,-237.77 0,0 24.39,-213.37 164.61,-243.86 0,0 -103.65,634.04 -652.33,566.98 0,0 -371.89,-60.97 -402.37,-573.07"
         style="fill:#350c0c;fill-opacity:1;fill-rule:nonzero;stroke:none"
         id="path62" />
      <path
         d="m 2293.02,2515.4 c 7.87,-6.68 13.78,-10.6 25.02,-15.08 1.54,-0.56 3.85,-1.4 6.72,-2.44 1.43,-0.51 3.01,-1.08 4.69,-1.69 5.24,-2.06 12.71,-4.09 19.52,-6.23 28.24,-8.25 62.34,-15.39 95.45,-18.19 8.22,-1.19 16.47,-0.92 24.45,-1.44 8,-0.19 15.79,-0.97 23.29,-0.65 14.97,0.68 28.77,0.74 40.4,1.78 23.22,2.81 38.2,4.62 38.2,4.62 0,0 0.96,0.01 2.69,0.43 1.74,0.37 4.3,0.91 7.58,1.6 6.55,1.38 15.96,3.37 27.4,5.79 2.86,0.6 5.84,1.24 8.94,1.89 3.03,0.92 6.18,1.88 9.42,2.87 6.47,2 13.33,4.13 20.49,6.35 7.1,2.39 14.75,4.16 22.11,7.28 7.38,3.08 14.95,6.24 22.6,9.43 7.65,3.21 15.38,6.46 23.1,9.7 7.38,3.95 14.75,7.89 22.02,11.77 14.33,7.79 29.25,15.04 40.54,23.3 6.63,4.42 12.07,8.04 14.79,9.85 10.01,6.72 14.96,11.62 21.83,19.17 -9.81,-3.52 -16.2,-6.14 -26.16,-12.68 -2.69,-1.78 -8.08,-5.34 -14.64,-9.68 -11.15,-8.18 -25.88,-15.31 -40.03,-23.01 -7.17,-3.83 -14.44,-7.73 -21.72,-11.63 -7.61,-3.19 -15.24,-6.39 -22.78,-9.56 -7.54,-3.15 -15,-6.27 -22.27,-9.31 -7.26,-3.08 -14.8,-4.82 -21.79,-7.17 -7.05,-2.19 -13.81,-4.29 -20.19,-6.27 -3.19,-0.98 -6.29,-1.92 -9.27,-2.83 -3.05,-0.65 -6,-1.27 -8.81,-1.87 -11.27,-2.38 -20.53,-4.35 -26.98,-5.71 -3.23,-0.69 -5.75,-1.22 -7.47,-1.58 -1.7,-0.42 -2.64,-0.43 -2.64,-0.43 0,0 -14.75,-1.78 -37.61,-4.52 -11.46,-1.03 -25.04,-1.07 -39.78,-1.75 -7.38,-0.31 -15.05,0.46 -22.93,0.65 -7.86,0.52 -15.97,0.25 -24.07,1.43 -32.59,2.76 -66.16,9.8 -93.92,17.9 -6.69,2.1 -14.05,4.1 -19.18,6.11 -1.65,0.59 -3.19,1.15 -4.6,1.65 -2.82,1.01 -5.09,1.82 -6.6,2.36 -11.07,4.29 -17.74,5.58 -27.81,7.79"
         style="fill:#4f2b2b;fill-opacity:1;fill-rule:nonzero;stroke:none"
         id="path64" />
      <path
         d="m 2250.67,3212.39 c 24.11,-24.1 24.11,-63.18 0,-87.29 -24.1,-24.1 -63.18,-24.1 -87.29,0 -24.1,24.11 -24.1,63.19 0,87.29 24.11,24.11 63.19,24.11 87.29,0"
         style="fill:#350c0c;fill-opacity:1;fill-rule:nonzero;stroke:none"
         id="path66" />
      <path
         d="m 2748.22,3255.95 c 24.1,-24.11 24.1,-63.19 0,-87.29 -24.11,-24.11 -63.19,-24.11 -87.29,0 -24.11,24.1 -24.11,63.18 0,87.29 24.1,24.1 63.18,24.1 87.29,0"
         style="fill:#350c0c;fill-opacity:1;fill-rule:nonzero;stroke:none"
         id="path68" />
      <path
         d="m 2525.7,3317.1 c -7.07,-7.54 -11.31,-13.28 -16.1,-24.43 -0.66,-1.5 -1.59,-3.79 -2.7,-6.64 -0.54,-1.43 -1.14,-3 -1.78,-4.68 -1.6,-4.28 -3.59,-10.09 -5.3,-15.57 -7.09,-22.46 -12.34,-50.12 -12.31,-76.88 -0.27,-26.76 5.03,-52.19 11.64,-69.86 6.38,-17.82 12.84,-28.25 12.84,-28.25 0,0 5.46,-10.99 17.07,-25.88 5.7,-7.5 13.06,-15.84 21.76,-24.18 2.14,-2.13 4.3,-4.32 6.73,-6.3 l 2.99,-2.58 v 0.01 l 0.01,0.02 h 0.01 c -0.19,-0.01 0.51,0.03 -0.69,-0.04 l -4.9,-0.29 c -38.4,-2.27 -80.28,-4.74 -94.23,-5.57 -11.96,-0.76 -18.67,-2.51 -28.52,-5.58 10.15,-1.9 17.01,-2.85 28.98,-2.2 13.95,0.81 55.83,3.27 94.23,5.51 4.69,0.28 9.34,0.55 13.96,0.83 l 9.67,0.57 1.2,0.07 c -0.14,0.2 -0.57,0.5 -0.83,0.75 l -1.82,1.57 -3.62,3.12 c -3.79,3.26 -7.53,6.48 -11.21,9.65 -2.36,1.92 -4.45,4.03 -6.52,6.09 -8.42,8.07 -15.53,16.12 -21.02,23.34 -11.19,14.33 -16.43,24.87 -16.43,24.87 0,0 -6.19,10.01 -12.3,27.11 -6.33,16.95 -11.41,41.35 -11.15,67.19 -0.03,25.83 5.06,52.7 11.96,74.59 1.67,5.33 3.61,11 5.16,15.17 0.62,1.63 1.2,3.16 1.73,4.55 1.1,2.77 1.99,5 2.59,6.49 4.57,10.92 6.2,17.48 8.9,27.43"
         style="fill:#4f2b2b;fill-opacity:1;fill-rule:nonzero;stroke:none"
         id="path70" />
      <path
         d="m 2424.09,3061.04 c -3.12,-1.5 -4.92,-2.62 -5.89,-5.34 -1.01,-3.03 -5.94,-17.81 -5.94,-17.81 0,0 -4.92,-14.78 -5.93,-17.81 -0.86,-2.76 -0.1,-4.74 1.51,-7.81 3.12,1.5 4.92,2.62 5.89,5.34 1.01,3.03 5.94,17.81 5.94,17.81 0,0 4.92,14.78 5.93,17.81 0.86,2.76 0.09,4.74 -1.51,7.81"
         style="fill:#4f2b2b;fill-opacity:1;fill-rule:nonzero;stroke:none"
         id="path72" />
      <path
         d="m 2593.72,2691.34 c -9.76,3.34 -16.65,5.01 -28.76,5.13 -2.05,0.03 -5.39,0.04 -12.34,-0.2 -4.34,-0.15 -11.66,-0.49 -17.87,-1.18 -6.22,-0.55 -11.33,-1.38 -11.33,-1.38 0,0 -17.18,-2.38 -26.42,-5.54 -8.98,-2.77 -14.49,-4.89 -17.2,-6.38 -2.79,-1.39 -5.25,-2.71 -7.46,-4.02 -2.09,-1.58 -3.94,-3.12 -5.68,-4.67 -3.66,-2.82 -5.85,-7.1 -8.73,-11.16 4.74,2.39 7.87,4.91 12.03,6.49 1.97,0.91 3.92,1.9 5.97,3.07 2.22,0.91 4.56,1.95 7.14,3.21 2.48,1.35 7.65,3.3 16.15,5.92 8.7,2.98 25.3,5.36 25.3,5.36 0,0 4.93,0.78 10.98,1.29 6.03,0.66 13.17,0.98 17.4,1.16 6.78,0.23 10.05,0.24 12.06,0.23 11.85,0 18.57,1.04 28.76,2.67"
         style="fill:#4f2b2b;fill-opacity:1;fill-rule:nonzero;stroke:none"
         id="path74" />
      <path
         d="m 2055.63,3258.36 265.46,139.25 c 0,0 -199.82,84.85 -265.46,-139.25"
         style="fill:#350c0c;fill-opacity:1;fill-rule:nonzero;stroke:none"
         id="path76" />
      <path
         d="m 2849.1,3334.32 -289.06,79.4 c 0,0 177.12,125.53 289.06,-79.4"
         style="fill:#350c0c;fill-opacity:1;fill-rule:nonzero;stroke:none"
         id="path78" />
      <path
         d="m 2015.63,3262.23 c 10.17,0.72 17.26,1.4 28.76,5.31 1.49,0.64 3.72,1.61 6.48,2.8 1.37,0.6 2.88,1.26 4.5,1.96 2.71,1.18 5.47,2.39 8.27,3.61 3.94,1.51 7.58,3.8 11.38,5.9 7.53,4.3 15.5,8.36 22.73,13.97 29.93,20.74 57.92,50.57 77,86.77 l 7.21,13.56 6.22,14.13 c 4.47,9.32 7.31,19.3 11.03,28.96 5.99,19.79 11.44,39.82 14.66,60.04 14.09,80.86 8.49,159.69 1.1,217.06 -3.9,28.78 -8.34,52.4 -12.16,69.04 l -0.36,1.56 -0.09,0.38 -0.03,0.1 c -3.41,-0.68 7.61,1.65 -7.66,-1.49 l 0.04,-0.2 0.13,-0.78 c 0.18,-1 0.36,-1.98 0.54,-2.93 0.37,-1.87 0.72,-3.64 1.05,-5.28 0.71,-3.28 1.32,-6.09 1.82,-8.4 1.08,-4.6 1.71,-7.22 1.8,-7.62 v -0.01 c 2.44,-9.62 2.47,-9.73 2.47,-9.73 0,0 2.26,-9.2 7.22,-25.25 4.97,-16.04 12.7,-38.94 24.41,-65.85 11.63,-26.92 27.61,-57.75 48.88,-88.88 21.05,-31.24 48.36,-62.18 80.99,-88.4 32.44,-26.47 71.21,-46.42 110.89,-58.77 19.85,-6.28 40.04,-10.21 59.77,-12.87 9.84,-1.6 19.7,-1.67 29.29,-2.55 4.81,-0.47 9.58,-0.62 14.3,-0.48 4.35,0.02 8.64,0.05 12.9,0.07 7.99,-0.01 14.55,0.07 17.8,0.51 12.04,1.01 18.8,2.9 28.5,6.17 -10.26,1.69 -17.06,2.5 -28.92,1.62 -3.2,-0.4 -9.64,-0.46 -17.49,-0.45 -4.17,-0.02 -8.39,-0.04 -12.66,-0.06 -4.64,-0.15 -9.32,0 -14.03,0.47 -9.4,0.87 -19.07,0.92 -28.7,2.5 -19.32,2.6 -39.06,6.44 -58.44,12.58 -38.76,12.07 -76.59,31.51 -108.31,57.4 -31.91,25.64 -58.71,55.96 -79.43,86.68 -20.92,30.62 -36.7,61.01 -48.17,87.59 -11.56,26.56 -19.21,49.18 -24.12,65.02 -4.91,15.85 -7.13,24.92 -7.13,24.92 0,0 -0.03,0.12 -2.44,9.6 v 0.01 c -0.09,0.39 -0.7,2.98 -1.77,7.51 -0.5,2.27 -1.09,5.02 -1.79,8.24 -0.31,1.61 -0.66,3.33 -1.02,5.16 -0.17,0.91 -0.34,1.85 -0.52,2.82 l -0.12,0.71 -0.03,0.18 c -15.28,-3.09 -4.22,-0.91 -7.63,-1.62 l 0.02,-0.09 0.09,-0.37 0.35,-1.49 c 3.74,-16.32 8.15,-39.79 12.01,-68.3 7.33,-56.87 12.82,-135.07 -1.08,-214.67 -3.17,-19.91 -8.53,-39.56 -14.4,-58.96 -3.65,-9.44 -6.42,-19.23 -10.79,-28.32 l -6.06,-13.78 -7.03,-13.21 c -18.57,-35.24 -45.65,-64.01 -74.58,-84.09 -6.99,-5.44 -14.71,-9.36 -22.01,-13.53 -3.67,-2.03 -7.18,-4.25 -11.02,-5.72 -2.71,-1.18 -5.39,-2.35 -8.02,-3.5 -1.57,-0.68 -3.03,-1.32 -4.36,-1.91 -2.67,-1.17 -4.83,-2.12 -6.27,-2.76 -11.15,-3.9 -17.12,-7.07 -25.97,-12.59"
         style="fill:#4f2b2b;fill-opacity:1;fill-rule:nonzero;stroke:none"
         id="path80" />
      <path
         d="m 2834.59,3504.05 c -5.34,-8.83 -8.29,-15.35 -10.6,-27.27 -0.32,-1.62 -0.75,-4.05 -1.2,-7.08 -0.23,-1.51 -0.48,-3.17 -0.74,-4.95 -0.37,-2.97 -0.91,-6.66 -1.21,-10.26 -1.52,-14.62 -1.98,-32.05 -0.4,-48.63 1.43,-16.6 4.89,-32.22 8.41,-43.45 1.67,-5.64 3.38,-10.18 4.66,-13.3 1.23,-3.14 1.91,-4.91 1.91,-4.91 0,0 1.92,-4.11 5.06,-10.84 1.8,-3.24 3.96,-7.12 6.36,-11.45 2.82,-4.08 5.5,-8.89 9.13,-13.41 6.72,-9.47 15.74,-18.67 24.85,-27.13 9.46,-8.07 19.19,-15.21 27.76,-20.36 7.99,-4.84 13.05,-7.6 15.81,-8.81 10.84,-5.61 17.96,-6.68 28.07,-8.26 -8.33,6.23 -14.09,9.67 -24.51,15.2 -2.67,1.2 -7.55,3.89 -15.24,8.55 -8.28,4.98 -17.62,11.84 -26.69,19.57 -8.71,8.1 -17.35,16.88 -23.77,25.91 -3.47,4.31 -6.01,8.91 -8.72,12.79 -2.3,4.14 -4.36,7.84 -6.09,10.94 -3,6.43 -4.84,10.36 -4.84,10.36 0,0 -0.66,1.69 -1.82,4.7 -1.23,2.99 -2.86,7.34 -4.46,12.76 -3.37,10.76 -6.69,25.8 -8.06,41.83 -1.53,16.02 -1.08,32.94 0.39,47.16 0.3,3.49 0.82,7.09 1.17,9.97 0.26,1.73 0.49,3.34 0.71,4.82 0.44,2.94 0.84,5.31 1.14,6.88 2.13,11.63 2.35,18.38 2.92,28.67"
         style="fill:#4f2b2b;fill-opacity:1;fill-rule:nonzero;stroke:none"
         id="path82" />
      <path
         d="m 2396.52,2943.19 c 116.99,-126.24 225.5,1.59 225.5,1.59 62.33,23.95 40.62,-201.65 -120.7,-217.41 -115.75,-11.31 -163.52,92 -180.23,158.52 -9.79,38.98 45.13,89.99 75.43,57.3"
         style="fill:#350c0c;fill-opacity:1;fill-rule:nonzero;stroke:none"
         id="path84" />
      <path
         d="m 2389.8,2761.65 c 0,0 36.61,21.66 86.54,20.84 49.94,-0.81 94.07,-31.97 94.07,-31.97 0,0 -95.16,-61.6 -180.61,11.13"
         style="fill:#ea5a21;fill-opacity:1;fill-rule:nonzero;stroke:none"
         id="path86" />
      <path
         d="m 2686.24,2128.28 347.5,54.87 262.15,-627.95 c 0,0 -42.67,475.53 30.49,707.2 73.15,231.67 371.88,188.99 451.14,-317.02 C 3856.77,1439.37 3661.68,591.961 3314.18,573.672 2966.68,555.379 2716.73,1695.42 2686.24,2128.28"
         style="fill:#ea5a21;fill-opacity:1;fill-rule:nonzero;stroke:none"
         id="path88" />
      <g
         id="g90">
        <g
           id="g92"
           clip-path="url(#clipPath96)">
          <path
             d="m 3881.17,2210.48 c -10.32,0.06 -17.24,-0.23 -28.9,-2.99 -109.95,-26.63 -660.59,-159.98 -660.59,-159.98 0,0 -509.15,-123.3 -610.82,-147.92 -11.63,-2.88 -17.92,-5.79 -27.07,-10.57 10.32,-0.07 17.25,0.22 28.91,2.98 101.66,24.63 610.81,147.93 610.81,147.93 0,0 550.64,133.35 660.59,159.98 11.64,2.88 17.93,5.79 27.07,10.57"
             style="fill:#f5e6cf;fill-opacity:1;fill-rule:nonzero;stroke:none"
             id="path98" />
          <path
             d="m 4095.9,1892.05 c -10.32,0.09 -17.25,-0.19 -28.92,-2.92 -125.5,-30.11 -754.05,-180.87 -754.05,-180.87 0,0 -580.43,-139.21 -696.33,-167.01 -11.64,-2.86 -17.94,-5.75 -27.1,-10.51 10.32,-0.09 17.25,0.18 28.92,2.92 115.9,27.8 696.33,167.02 696.33,167.02 0,0 628.55,150.76 754.05,180.86 11.64,2.86 17.94,5.75 27.1,10.51"
             style="fill:#f5e6cf;fill-opacity:1;fill-rule:nonzero;stroke:none"
             id="path100" />
          <path
             d="m 4074.12,1531.79 c -10.32,0.23 -17.24,0.04 -28.95,-2.54 -114.34,-25.86 -686.98,-155.34 -686.98,-155.34 0,0 -529.29,-119.68 -634.98,-143.58 -11.68,-2.7 -18.01,-5.51 -27.23,-10.15 10.32,-0.23 17.25,-0.04 28.95,2.54 105.69,23.9 634.98,143.58 634.98,143.58 0,0 572.64,129.48 686.98,155.34 11.68,2.7 18.01,5.51 27.23,10.15"
             style="fill:#f5e6cf;fill-opacity:1;fill-rule:nonzero;stroke:none"
             id="path102" />
          <path
             d="m 4005.09,1154.38 c -10.32,0.02 -17.24,-0.3 -28.9,-3.11 -97.62,-24.04 -586.51,-144.47 -586.51,-144.47 0,0 -452.65,-111.499 -543.03,-133.761 -11.63,-2.93 -17.91,-5.859 -27.03,-10.68 10.32,-0.019 17.24,0.293 28.89,3.102 90.39,22.269 543.04,133.769 543.04,133.769 0,0 488.89,120.42 586.51,144.47 11.62,2.93 17.9,5.86 27.03,10.68"
             style="fill:#f5e6cf;fill-opacity:1;fill-rule:nonzero;stroke:none"
             id="path104" />
          <path
             d="m 3966.39,797.41 c -10.32,-0.23 -17.24,-0.711 -28.82,-3.801 -75.63,-20.558 -454.36,-123.558 -454.36,-123.558 0,0 -351.84,-95.692 -422.1,-114.789 -11.55,-3.211 -17.76,-6.293 -26.77,-11.321 10.32,0.219 17.23,0.7 28.82,3.789 70.25,19.11 422.09,114.79 422.09,114.79 0,0 378.74,103 454.37,123.57 11.55,3.199 17.76,6.289 26.77,11.32"
             style="fill:#f5e6cf;fill-opacity:1;fill-rule:nonzero;stroke:none"
             id="path106" />
        </g>
      </g>
      <path
         d="m 3295.89,1555.2 c 1.85,-10.15 3.42,-16.9 8.29,-27.85 17.32,-38.37 104.01,-230.49 104.01,-230.49 0,0 81.58,-180.81 97.87,-216.92 4.99,-10.9 9.01,-16.55 15.4,-24.65 -1.84,10.15 -3.41,16.91 -8.28,27.86 -16.3,36.11 -97.88,216.92 -97.88,216.92 0,0 -86.69,192.12 -104.01,230.49 -4.98,10.9 -9.01,16.54 -15.4,24.64"
         style="fill:#4f2b2b;fill-opacity:1;fill-rule:nonzero;stroke:none"
         id="path108" />
      <path
         d="m 2686.24,2128.28 c -1.43,-10.22 -2.01,-17.15 -0.7,-29.08 0.18,-1.61 0.46,-4.03 0.8,-7.04 0.18,-1.5 0.37,-3.14 0.58,-4.91 2.8,-22.21 5.78,-45.9 8.9,-70.71 13.53,-102.15 32.4,-222.27 54.05,-336.52 21.44,-114.3 45.9,-222.64 66.06,-302.07 9.98,-39.75 18.88,-72.27 25.16,-94.88 6.42,-22.57 10.04,-35.29 10.04,-35.29 0,0 3.75,-12.68 10.41,-35.18 6.85,-22.45 16.71,-54.7 29.88,-93.53 26.38,-77.54 65.12,-182.16 120.63,-284.828 14.02,-25.551 29.08,-50.933 45.27,-75.562 16.42,-24.481 33.98,-48.18 52.86,-70.301 18.87,-22.117 39.46,-42.289 61.16,-59.918 5.42,-4.41 10.79,-8.82 16.54,-12.652 5.72,-3.84 11.03,-8.2 16.97,-11.508 5.85,-3.449 11.49,-7.121 17.35,-10.281 5.46,-2.739 10.87,-5.461 16.21,-8.141 7.28,-3.391 13.53,-5.578 16.55,-6.879 11.25,-4.641 18.63,-4.57 28.74,-5.328 -8.86,5.59 -15.07,7.988 -25.94,12.617 -2.92,1.293 -8.97,3.422 -16.05,6.711 -5.19,2.621 -10.45,5.262 -15.75,7.93 -5.71,3.07 -11.22,6.66 -16.92,10.011 -5.79,3.219 -10.98,7.508 -16.58,11.25 -5.61,3.739 -10.87,8.059 -16.18,12.391 -21.26,17.27 -41.53,37.09 -60.15,58.93 -18.62,21.828 -36,45.258 -52.27,69.508 -16.04,24.41 -30.98,49.601 -44.92,74.98 -55.16,101.988 -93.81,206.27 -120.12,283.58 -13.13,38.72 -22.97,70.89 -29.81,93.28 -6.64,22.45 -10.39,35.1 -10.39,35.1 0,0 -3.61,12.69 -10.01,35.21 -6.27,22.56 -15.15,55.02 -25.1,94.69 -20.11,79.29 -44.52,187.47 -65.93,301.61 -21.61,114.11 -40.45,234.09 -53.97,336.11 -4.63,37 -8.42,67.36 -10.32,82.52 -1.43,11.89 -3.52,18.48 -7.05,28.18"
         style="fill:#4f2b2b;fill-opacity:1;fill-rule:nonzero;stroke:none"
         id="path110" />
      <path
         d="m 3033.74,2183.14 c 1.56,-10.2 2.94,-16.99 7.5,-28.07 18.06,-43.27 67.88,-162.65 115.4,-276.51 34.29,-82.12 67.75,-162.25 94.23,-225.67 13.24,-31.72 24.74,-59.25 33.72,-80.76 2.25,-5.38 4.34,-10.38 6.26,-14.98 0.48,-1.15 0.95,-2.28 1.41,-3.37 -6.68,-1.77 9.15,2.27 7.51,1.91 l -0.01,0.11 -0.03,0.22 -0.05,0.43 -0.1,0.87 -0.19,1.7 c -0.25,2.25 -0.48,4.39 -0.7,6.41 -0.83,8.08 -1.47,14.31 -1.89,18.42 v 0 c -4.83,50.48 -6.51,78.69 -7.58,94.21 -0.95,15.53 -1.12,18.4 -1.12,18.4 0,0 -0.64,12.02 -1.78,33.37 -1.03,21.35 -2.27,52.03 -2.92,89.35 -1.11,74.56 -0.39,176.03 13.55,280.95 7.18,52.33 17.57,105.65 34.94,155.07 8.73,24.64 19.1,48.36 32.21,69.57 6.42,10.67 13.65,20.61 21.48,29.68 3.86,4.6 8.01,8.84 12.25,12.89 2.02,2.14 4.35,3.9 6.53,5.81 l 3.3,2.8 c 1.04,0.96 2.61,2.02 2.25,1.78 3.12,2.25 5.97,4.31 8.35,6.03 2.51,1.51 4.54,2.74 5.89,3.55 10,5.98 15.56,9.49 24.16,15.31 -10.17,-1.09 -17.47,-2.36 -28.12,-8.59 -1.43,-0.85 -3.58,-2.14 -6.25,-3.73 -2.51,-1.81 -5.52,-3.97 -8.82,-6.35 0.37,0.27 -1.27,-0.86 -2.37,-1.86 l -3.47,-2.95 c -2.29,-2 -4.74,-3.87 -6.85,-6.09 -4.45,-4.25 -8.77,-8.68 -12.79,-13.46 -8.16,-9.44 -15.63,-19.73 -22.24,-30.71 -13.5,-21.84 -24.05,-46.03 -32.92,-71.07 -17.63,-50.19 -28.08,-103.95 -35.31,-156.63 -14.02,-105.59 -14.71,-207.35 -13.59,-282.13 0.66,-37.43 1.91,-68.19 2.95,-89.6 1.14,-21.39 1.78,-33.45 1.78,-33.45 0,0 0.17,-2.88 1.13,-18.45 1.07,-15.56 2.75,-43.82 7.59,-94.46 v 0 c 0.42,-4.13 1.06,-10.38 1.89,-18.5 0.22,-2.03 0.46,-4.18 0.71,-6.44 l 0.19,-1.72 0.1,-0.88 0.05,-0.44 0.03,-0.23 0.01,-0.11 c -1.61,-0.5 14.15,3.76 7.46,2.02 -0.46,1.09 -0.93,2.22 -1.41,3.37 -1.92,4.6 -4.01,9.6 -6.25,14.98 -8.98,21.52 -20.48,49.05 -33.71,80.76 -26.48,63.43 -59.93,143.56 -94.21,225.69 -47.54,113.85 -97.39,233.22 -115.45,276.48 -4.68,11.04 -8.54,16.79 -14.7,25.07"
         style="fill:#4f2b2b;fill-opacity:1;fill-rule:nonzero;stroke:none"
         id="path112" />
      <path
         d="m 2970.84,2262.95 -266.3,102.81 129.09,285.87 294.61,-20.39 -157.4,-368.29"
         style="fill:#e7b092;fill-opacity:1;fill-rule:nonzero;stroke:none"
         id="path114" />
      <path
         d="m 3127.44,2625.85 2.53,553.01 c 0,0 -26.17,13.21 -38.39,-21.03 l -0.62,106.37 c 0,0 -35.83,-8.44 -52.57,-39.13 0,0 -41.33,3.18 -48.66,-71.4 l -11,-111.88 c 0,0 -50.37,10.27 -69.81,-65.78 -19.43,-76.05 -75.29,-324.38 -75.29,-324.38"
         style="fill:#e7b092;fill-opacity:1;fill-rule:nonzero;stroke:none"
         id="path116" />
      <path
         d="m 3127.44,2625.85 c 2.54,10 3.91,16.8 4.03,28.78 0.19,40.99 0.72,152.96 1.22,260.25 0.35,77.77 0.69,153.85 0.97,214.52 0.06,15.17 0.13,29.38 0.19,42.41 0,1.78 0.01,3.55 0.02,5.29 -0.07,1.55 0.2,3.3 -0.44,4.45 -1.36,0.68 -2.77,1.27 -4.22,1.82 -3.96,1.36 -6.91,1.81 -10.44,1.89 -6.79,0.1 -13.35,-2.41 -17.96,-6.26 -1.21,-0.9 -2.13,-2.03 -3.18,-3.02 -0.51,-0.51 -1.02,-1 -1.41,-1.57 l -0.82,-1.11 c -0.03,-0.06 -0.01,-0.02 -0.01,-0.02 v 0 -0.01 c -0.01,2.78 -0.03,5.16 -0.04,7.1 -0.15,24.86 -0.26,44.3 -0.35,59.47 -0.04,7.8 -0.08,14.5 -0.12,20.25 0.03,2.85 -0.05,5.46 -0.22,7.82 0.43,1.87 -1.34,0.79 -2.36,0.65 -1.15,-0.3 -2.27,-0.59 -3.36,-0.88 -5.33,-1.52 -6.3,-2.06 -8.42,-2.82 -7.51,-3.04 -11.77,-5.45 -14.24,-6.89 -2.49,-1.38 -3.14,-1.9 -3.14,-1.9 0,0 -0.29,-0.19 -1.62,-1.05 -1.34,-0.85 -3.71,-2.44 -7.62,-5.61 -3.88,-3.16 -9.38,-8.03 -15.34,-16.58 -0.68,-1.11 -1.39,-2.26 -2.12,-3.45 -0.56,-0.92 -0.14,-0.24 -0.26,-0.44 v 0 c -0.11,-0.01 0.18,0.02 0.02,0 l -0.62,-0.05 -1.24,-0.11 -2.5,-0.41 c -1.67,-0.32 -3.36,-0.79 -5.07,-1.35 -6.8,-2.34 -13.81,-6.85 -19.7,-13.58 -4.28,-4.74 -16.9,-20.53 -20.71,-55.46 -1.96,-17.12 -3.83,-38.18 -6.45,-64.23 -1.28,-13.01 -2.68,-27.25 -4.21,-42.78 -0.16,-1.62 -0.32,-3.25 -0.48,-4.9 l 0.01,0.01 -1,0.06 h -1.67 c -1.11,-0.01 -2.24,0.01 -3.35,-0.12 -2.24,-0.13 -4.47,-0.44 -6.71,-0.89 -8.97,-1.64 -17.8,-5.79 -25.43,-11.87 -6.43,-5.3 -12.39,-12.24 -17.52,-20.44 -4.75,-8.37 -9.17,-17.73 -12.1,-28.08 -5.82,-20.56 -10.31,-43.14 -16.13,-67.19 -11.15,-48.06 -23.59,-101.62 -35.77,-154.1 -8.09,-34.91 -15.85,-68.39 -19.21,-82.9 -2.66,-11.7 -2.88,-18.62 -2.71,-28.92 4.69,9.21 7.54,15.53 10.31,27.19 3.38,14.5 11.15,47.94 19.26,82.83 12.17,52.44 24.59,105.97 35.74,153.99 5.77,23.88 10.39,46.97 16.01,66.79 2.78,9.88 6.94,18.59 11.3,26.32 4.71,7.51 10.06,13.71 15.7,18.4 6.72,5.33 14.32,8.89 22.03,10.29 1.93,0.39 3.84,0.66 5.75,0.77 0.96,0.12 1.9,0.09 2.84,0.1 l 1.41,0.01 2.05,-0.13 c 1.99,-0.13 4.33,-0.75 6.2,-0.86 l 0.59,5.99 c 0.22,2.32 0.45,4.61 0.67,6.88 1.53,15.54 2.93,29.77 4.21,42.78 2.61,25.99 4.5,47.28 6.42,64.06 3.78,33.6 15.23,47.12 18.79,51.22 5.07,5.8 10.87,9.46 16.36,11.37 1.37,0.45 2.73,0.83 4.05,1.08 l 1.94,0.32 0.93,0.08 0.46,0.04 1.1,0.01 c 3.37,-1.34 4.37,3.2 5.38,4.21 0.66,1.06 1.28,2.09 1.89,3.08 5.32,7.63 10.28,12.05 13.83,14.93 3.55,2.88 5.73,4.35 6.96,5.13 1.23,0.79 1.49,0.96 1.49,0.96 0,0 0.59,0.48 2.9,1.76 2.27,1.32 6.21,3.55 13.17,6.37 5.31,1.98 3.34,1.19 3.72,1.36 0.03,-5.45 0.06,-11.79 0.11,-19.16 0.09,-15.18 0.2,-34.61 0.34,-59.47 0.04,-6.43 0.09,-15.76 0.16,-27.64 0.02,-3.65 0.04,-7.49 0.07,-11.52 l 0.01,-2.55 c 0.43,0.86 1.04,2.46 1.56,3.67 1.13,2.69 2.28,5.44 3.46,8.26 2.62,5.71 5.35,13.6 8.06,17.02 l 1.38,1.85 c 0.31,0.47 0.71,0.84 1.1,1.22 0.8,0.73 1.5,1.65 2.4,2.29 3.43,2.83 7.9,4.54 12.93,4.51 2.37,0.04 5.48,-0.61 7.38,-1.24 l -0.01,0.01 c 0,-1.44 -0.01,-2.89 -0.02,-4.37 -0.06,-13.03 -0.12,-27.23 -0.2,-42.4 -0.28,-60.67 -0.63,-136.75 -0.99,-214.52 -0.48,-107.3 -0.98,-219.27 -1.16,-260.25 0.01,-11.99 1.32,-18.79 3.77,-28.82"
         style="fill:#4f2b2b;fill-opacity:1;fill-rule:nonzero;stroke:none"
         id="path118" />
      <path
         d="m 3091.58,3157.83 c -2.49,-10.02 -3.83,-16.82 -3.88,-28.8 0.02,-23.25 0.13,-139.62 0.13,-139.62 0,0 0.05,-74.99 0.08,-116.57 0.02,-9.16 0.03,-14.84 0.04,-17.8 0.07,-11.99 1.42,-18.78 3.93,-28.8 2.48,10.02 3.82,16.82 3.87,28.81 0,2.96 0.01,8.63 0.01,17.8 -0.05,41.57 -0.13,116.57 -0.13,116.57 0,0 -0.11,116.37 -0.13,139.62 -0.07,11.98 -1.42,18.78 -3.92,28.79"
         style="fill:#4f2b2b;fill-opacity:1;fill-rule:nonzero;stroke:none"
         id="path120" />
      <path
         d="m 3038.39,3225.07 c -2.44,-10.02 -3.74,-16.83 -3.73,-28.82 0.17,-29.89 1.06,-179.57 1.06,-179.57 0,0 0.84,-142.47 1.01,-170.93 0.13,-11.98 1.52,-18.77 4.07,-28.77 2.43,10.03 3.74,16.83 3.73,28.82 -0.17,28.46 -1.01,170.93 -1.01,170.93 0,0 -0.89,149.67 -1.06,179.57 -0.14,11.98 -1.52,18.78 -4.07,28.77"
         style="fill:#4f2b2b;fill-opacity:1;fill-rule:nonzero;stroke:none"
         id="path122" />
      <path
         d="m 2978.73,3041.79 c -3.24,-9.79 -5.1,-16.47 -6.07,-28.42 -0.16,-2.02 -0.42,-5.32 -0.95,-12.16 -2.02,-26.66 -6.81,-89.8 -6.81,-89.8 0,0 -4.04,-52.85 -6.28,-82.15 -0.68,-9.14 -1.1,-14.8 -1.32,-17.75 -0.85,-11.96 -0.02,-18.84 1.7,-29.02 3.25,9.8 5.11,16.48 6.08,28.42 0.23,2.96 0.67,8.61 1.38,17.75 2.22,29.3 6.22,82.16 6.22,82.16 0,0 4.82,63.14 6.85,89.79 0.51,6.85 0.76,10.14 0.91,12.17 0.85,11.96 0.02,18.84 -1.71,29.01"
         style="fill:#4f2b2b;fill-opacity:1;fill-rule:nonzero;stroke:none"
         id="path124" />
      <path
         d="m 2970.84,2262.95 11.08,-92 -280.44,-39.63 21.34,249.96 30.49,88.4 217.53,-206.73"
         style="fill:#e7b092;fill-opacity:1;fill-rule:nonzero;stroke:none"
         id="path126" />
      <path
         d="m 2840.69,2670.87 -124.72,-270.53 c -8.74,-18.65 -14.8,-38.35 -17.91,-58.71 -5.95,-39.09 -10.61,-108.39 3.42,-210.31"
         style="fill:#e7b092;fill-opacity:1;fill-rule:nonzero;stroke:none"
         id="path128" />
      <path
         d="m 2840.69,2670.87 c -6.46,-8.06 -10.53,-13.67 -15.6,-24.52 -18.43,-39.97 -110.69,-240.09 -110.69,-240.09 0,0 -1.63,-3.57 -4.51,-9.92 -2.82,-6.44 -6.56,-15.85 -9.93,-27.68 -6.99,-23.77 -10.11,-56.76 -11.29,-91.15 -1.04,-34.28 0.73,-70.83 3.59,-100.39 0.71,-7.93 1.44,-14.41 1.83,-17.64 1.33,-11.96 3.68,-18.56 7.39,-28.16 1.23,10.28 1.56,17.13 0.36,29.02 -0.32,3.21 -0.97,9.65 -1.75,17.5 -2.84,29.33 -4.59,65.56 -3.57,99.44 1.14,33.98 4.27,66.58 10.96,89.24 3.25,11.4 6.85,20.49 9.56,26.71 2.84,6.23 4.44,9.75 4.44,9.75 0,0 92.27,200.13 110.69,240.1 4.97,10.91 6.59,17.65 8.52,27.79"
         style="fill:#4f2b2b;fill-opacity:1;fill-rule:nonzero;stroke:none"
         id="path130" />
      <path
         d="m 1454.75,2146.57 c 0,0 140.22,176.79 359.69,-6.1 219.48,-182.9 438.95,-499.91 438.95,-499.91 l -134.12,627.94 341.4,188.99 c 0,0 341.41,-914.48 414.56,-1237.59 73.16,-323.119 -89.26,-439.478 -390.17,-445.048 -329.21,-6.09 -1335.14,755.968 -1030.31,1371.718"
         style="fill:#ea5a21;fill-opacity:1;fill-rule:nonzero;stroke:none"
         id="path132" />
      <g
         id="g134">
        <g
           id="g136"
           clip-path="url(#clipPath140)">
          <path
             d="m 1314.53,1963.59 c 10.25,1.16 17.1,2.26 28.35,6.38 106.05,39.39 637.14,236.69 637.14,236.69 0,0 491.08,182.43 589.14,218.85 11.21,4.23 17.12,7.86 25.64,13.69 -10.26,-1.15 -17.1,-2.26 -28.36,-6.37 -98.05,-36.43 -589.13,-218.86 -589.13,-218.86 0,0 -531.1,-197.3 -637.14,-236.69 -11.22,-4.23 -17.12,-7.86 -25.64,-13.69"
             style="fill:#f5e6cf;fill-opacity:1;fill-rule:nonzero;stroke:none"
             id="path142" />
          <path
             d="m 1314.53,1579.53 c 10.25,1.18 17.09,2.3 28.34,6.44 120.89,45.21 726.31,271.63 726.31,271.63 0,0 559.08,209.09 670.71,250.84 11.21,4.25 17.1,7.9 25.61,13.74 -10.25,-1.17 -17.09,-2.29 -28.34,-6.44 -111.64,-41.74 -670.71,-250.83 -670.71,-250.83 0,0 -605.42,-226.42 -726.31,-271.64 -11.21,-4.25 -17.1,-7.9 -25.61,-13.74"
             style="fill:#f5e6cf;fill-opacity:1;fill-rule:nonzero;stroke:none"
             id="path144" />
          <path
             d="m 1534,1293.02 c 10.24,1.3 17.07,2.51 28.26,6.8 109.25,42.49 656.42,255.3 656.42,255.3 0,0 505.76,196.69 606.74,235.97 11.15,4.4 17,8.12 25.43,14.07 -10.24,-1.31 -17.06,-2.51 -28.26,-6.8 -100.98,-39.28 -606.74,-235.97 -606.74,-235.97 0,0 -547.16,-212.81 -656.42,-255.3 -11.15,-4.4 -17,-8.12 -25.43,-14.07"
             style="fill:#f5e6cf;fill-opacity:1;fill-rule:nonzero;stroke:none"
             id="path146" />
          <path
             d="m 1802.25,1018.69 c 10.26,1.11 17.11,2.19 28.38,6.26 94.38,34.65 567.05,208.13 567.05,208.13 0,0 437.64,160.63 525.02,192.71 11.23,4.18 17.15,7.79 25.69,13.58 -10.26,-1.11 -17.1,-2.19 -28.38,-6.26 -87.38,-32.07 -525.02,-192.7 -525.02,-192.7 0,0 -472.67,-173.49 -567.05,-208.13 -11.23,-4.19 -17.15,-7.8 -25.69,-13.59"
             style="fill:#f5e6cf;fill-opacity:1;fill-rule:nonzero;stroke:none"
             id="path148" />
          <path
             d="m 2033.92,744.371 c 10.28,0.859 17.15,1.777 28.52,5.578 74.2,25.231 445.8,151.582 445.8,151.582 0,0 345.21,117.379 414.14,140.819 11.33,3.91 17.33,7.38 26.01,12.96 -10.28,-0.86 -17.15,-1.78 -28.52,-5.58 -68.93,-23.44 -414.14,-140.808 -414.14,-140.808 0,0 -371.6,-126.363 -445.8,-151.59 -11.33,-3.91 -17.33,-7.383 -26.01,-12.961"
             style="fill:#f5e6cf;fill-opacity:1;fill-rule:nonzero;stroke:none"
             id="path150" />
        </g>
      </g>
      <path
         d="m 1674.22,1280.86 c 4.76,-9.16 8.38,-15.11 16.49,-23.98 1.11,-1.19 2.77,-2.98 4.82,-5.2 1.04,-1.11 2.17,-2.32 3.39,-3.62 5.1,-5.37 10.29,-10.82 15.56,-16.36 6.11,-6.27 12.31,-12.65 18.6,-19.11 12.66,-12.83 25.81,-25.87 39.43,-39.04 108.81,-105.1 247.72,-220.28 398.9,-301.628 75.58,-40.043 154.06,-71.902 230.41,-86.731 75.97,-14.961 147.81,-19.281 208.13,-12.351 30.11,3.379 57.36,8.91 80.64,16.461 23.19,7.699 42.89,15.929 58.03,24.66 15.3,8.379 26.55,16.211 33.9,21.871 7.58,5.398 11.14,8.828 11.14,8.828 0,0 3.71,3.231 10.72,9.328 3.27,3.313 7.3,7.391 12.05,12.211 4.76,4.801 9.48,11.031 15.19,17.653 10.49,13.968 22.35,31.789 32.59,54.109 10.3,22.258 18.81,48.93 24,78.889 5.19,29.96 6.99,63.17 5.01,98.24 -1.01,17.53 -2.76,35.56 -5.68,53.87 -2.49,18.42 -6.93,36.8 -10.52,55.82 -16.01,75.66 -38.48,156.18 -63.29,237.92 -24.89,81.74 -52.4,164.66 -80.25,244.88 -13.91,40.12 -27.92,79.55 -41.83,117.8 -6.99,19.11 -13.88,37.94 -20.66,56.44 -6.59,17.68 -13.07,35.04 -19.4,52.01 -2.82,7.41 -5.13,13.48 -6.28,16.52 -4.32,11.19 -8,17.07 -13.93,25.51 1.28,-10.24 2.44,-17.06 6.64,-28.28 1.14,-3.04 3.43,-9.11 6.22,-16.52 6.33,-16.96 12.8,-34.3 19.38,-51.96 6.77,-18.49 13.66,-37.31 20.64,-56.4 13.9,-38.22 27.9,-77.62 41.79,-117.7 27.83,-80.14 55.31,-162.98 80.17,-244.58 24.77,-81.6 47.2,-161.97 63.13,-237.25 3.56,-18.87 8.01,-37.26 10.45,-55.39 2.88,-18.08 4.61,-35.85 5.61,-53.12 1.94,-34.54 0.17,-67.14 -4.9,-96.47 -5.08,-29.331 -13.39,-55.331 -23.41,-76.991 -9.96,-21.711 -21.47,-39 -31.64,-52.558 -5.54,-6.411 -10.11,-12.461 -14.73,-17.121 -4.61,-4.661 -8.52,-8.629 -11.69,-11.84 -6.8,-5.918 -10.4,-9.051 -10.4,-9.051 0,0 -3.45,-3.328 -10.82,-8.559 -7.13,-5.511 -18.06,-13.109 -32.96,-21.269 -14.73,-8.5 -33.95,-16.512 -56.63,-24.051 -22.77,-7.391 -49.51,-12.809 -79.14,-16.129 -59.32,-6.832 -130.45,-2.582 -205.74,12.25 -75.35,14.641 -153.16,46.188 -228.24,85.969 -150.19,80.808 -288.69,195.6 -397.14,300.36 -13.57,13.12 -26.68,26.12 -39.3,38.91 -6.26,6.43 -12.44,12.78 -18.53,19.03 -5.25,5.52 -10.42,10.95 -15.5,16.3 -1.22,1.28 -2.35,2.49 -3.38,3.59 -2.06,2.2 -3.72,3.97 -4.82,5.16 -8.17,8.74 -13.73,12.82 -22.22,18.67"
         style="fill:#4f2b2b;fill-opacity:1;fill-rule:nonzero;stroke:none"
         id="path152" />
      <path
         d="m 1601.07,2219.72 c 10.24,-1.11 16.73,-2.25 28.46,-3.08 1.59,-0.06 3.97,-0.21 6.91,-0.62 1.47,-0.17 3.08,-0.36 4.81,-0.57 l 4.84,-0.57 6.44,-1.18 c 4.32,-0.85 8.75,-1.44 13.12,-2.7 4.4,-1.11 8.86,-2.24 13.37,-3.38 4.44,-1.44 8.93,-2.89 13.48,-4.36 36.37,-11.92 73.36,-32.37 108.66,-57.02 8.64,-6.45 17.64,-12.55 26.15,-19.38 8.44,-6.91 16.91,-13.86 25.38,-20.81 l 24.31,-22.17 6.06,-5.54 1.51,-1.38 c 0.16,-0.09 0.61,-0.7 1.07,-1.23 l 2.63,-3.16 10.51,-12.61 c 111.83,-134.18 213.51,-256.17 213.51,-256.17 0,0 11.28,-13.54 37.24,-44.7 12.98,-15.57 29.62,-35.55 50.36,-60.44 10.37,-12.45 21.77,-26.12 34.24,-41.09 3.11,-3.74 6.3,-7.56 9.55,-11.46 1.63,-1.95 3.27,-3.93 4.93,-5.92 l 1.07,-1.29 c 0,0 -0.01,0.05 0.01,-0.03 l 0.57,-3.91 c 1.54,-10.48 3.14,-21.38 4.81,-32.72 11.39,-77.42 42.71,-290.34 51.24,-348.31 1.8,-11.85 4.12,-18.38 8.05,-27.93 1,10.27 1.35,17.2 -0.33,29.06 -8.53,57.98 -39.83,270.9 -51.21,348.32 -1.67,11.34 -3.28,22.24 -4.82,32.72 l -0.57,3.91 c -0.1,1.25 -0.3,2.61 -1.38,3.48 l -1.43,1.71 c -1.66,1.99 -3.3,3.97 -4.93,5.92 -3.25,3.9 -6.44,7.72 -9.55,11.46 -12.47,14.97 -23.87,28.64 -34.24,41.08 -20.74,24.89 -37.39,44.87 -50.37,60.44 -25.97,31.15 -37.25,44.69 -37.25,44.69 0,0 -101.66,122.01 -213.47,256.2 l -10.51,12.61 -2.63,3.16 c -0.46,0.5 -0.77,1.05 -1.65,1.86 l -1.53,1.4 -6.11,5.6 -24.55,22.38 c -8.58,7.03 -17.14,14.06 -25.67,21.06 -8.61,6.9 -17.73,13.1 -26.49,19.62 -35.78,24.99 -73.38,45.81 -110.66,58.03 -4.66,1.51 -9.27,3 -13.82,4.47 -4.64,1.18 -9.23,2.34 -13.75,3.48 -4.5,1.28 -9.08,1.9 -13.54,2.78 -2.23,0.41 -4.45,0.81 -6.65,1.22 l -5.02,0.59 c -1.79,0.21 -3.47,0.4 -5,0.58 -3.04,0.41 -5.53,0.56 -7.19,0.61 -12.17,0.75 -19.41,-0.87 -28.97,-4.71"
         style="fill:#4f2b2b;fill-opacity:1;fill-rule:nonzero;stroke:none"
         id="path154" />
      <path
         d="m 2119.27,2268.5 c -0.38,-10.32 -0.31,-17.25 2.1,-28.99 10.86,-51.77 65.27,-311.01 65.27,-311.01 0,0 50.92,-242.6 61.08,-291.04 2.52,-11.72 5.24,-18.1 9.73,-27.39 0.39,10.32 0.31,17.25 -2.09,28.99 -10.17,48.45 -61.08,291.04 -61.08,291.04 0,0 -54.41,259.24 -65.28,311.01 -2.52,11.72 -5.24,18.1 -9.73,27.39"
         style="fill:#4f2b2b;fill-opacity:1;fill-rule:nonzero;stroke:none"
         id="path156" />
      <path
         d="m 2066.77,2820.16 -112.77,70.81 -61.83,-102.62 32.87,-82.42 141.73,114.23"
         style="fill:#e7b092;fill-opacity:1;fill-rule:nonzero;stroke:none"
         id="path158" />
      <path
         d="m 2119.05,2274.57 -46.05,156.46 -276.85,196.05 264.53,192.76 c 0,0 171.1,-4.86 226.12,-151.18 55.03,-146.31 87,-259.94 87,-259.94 l -254.75,-134.15"
         style="fill:#e7b092;fill-opacity:1;fill-rule:nonzero;stroke:none"
         id="path160" />
      <path
         d="m 2373.8,2408.72 c -0.61,10.3 -1.36,17.19 -4.92,28.64 -0.61,1.94 -1.6,5.1 -3.66,11.65 -8.87,27.53 -29.9,92.77 -29.9,92.77 0,0 -17.84,54.52 -28.52,84.54 -3.11,8.64 -5.03,13.99 -6.04,16.79 -4.19,11.26 -7.91,17.2 -13.96,25.55 1.43,-10.23 2.58,-16.98 6.64,-28.23 0.99,-2.78 2.88,-8.11 5.95,-16.73 10.62,-29.9 28.52,-84.35 28.52,-84.35 0,0 20.98,-65.19 29.83,-92.71 2.09,-6.54 3.09,-9.69 3.7,-11.62 3.67,-11.41 6.99,-17.49 12.36,-26.3"
         style="fill:#4f2b2b;fill-opacity:1;fill-rule:nonzero;stroke:none"
         id="path162" />
      <path
         d="m 1987.33,2732.83 c 9.7,-3.51 16.2,-5.71 28,-7.5 1.59,-0.24 3.99,-0.62 6.96,-1.08 4.98,-0.85 10.92,-1.85 17.45,-2.96 17.99,-3.24 39.09,-7.77 58.95,-13.22 19.88,-5.36 38.44,-11.82 51.8,-17.3 13.36,-5.48 21.6,-9.78 21.6,-9.78 0,0 2.05,-1.09 5.68,-3.02 3.65,-1.9 8.76,-4.87 14.74,-8.78 11.9,-7.8 27.4,-19.89 36.96,-37.61 10.29,-17.83 20.63,-37.08 28.36,-53.19 3.4,-7.09 5.98,-12.98 7.26,-15.92 4.51,-10.96 8.38,-16.46 12.69,-25.73 0.55,10.41 -1.02,17.58 -5.51,28.79 -1.28,3.02 -3.9,9.05 -7.35,16.25 -7.84,16.37 -18.28,35.77 -28.64,53.71 -5.18,9.25 -12.01,17.74 -19,24.35 -7.15,6.5 -14.19,11.87 -20.48,15.89 -6.24,4.07 -11.55,7.14 -15.31,9.1 -3.76,2 -5.87,3.12 -5.87,3.12 0,0 -8.5,4.44 -22.16,10.06 -13.66,5.62 -32.55,12.19 -52.7,17.63 -20.13,5.53 -41.45,10.12 -59.62,13.38 -6.6,1.11 -12.6,2.12 -17.63,2.97 -3,0.45 -5.42,0.82 -7.04,1.06 -11.92,1.68 -18.91,1.22 -29.14,-0.22"
         style="fill:#4f2b2b;fill-opacity:1;fill-rule:nonzero;stroke:none"
         id="path164" />
      <path
         d="m 1684.73,3063.68 -23.76,187.5 c 0,0 47.63,29.17 74.05,-31.88 26.42,-61.06 29.7,-105.08 29.7,-105.08 l -79.99,-50.54"
         style="fill:#e7b092;fill-opacity:1;fill-rule:nonzero;stroke:none"
         id="path166" />
      <path
         d="m 1906.91,3309.47 375.12,-574.22 c 11.82,-18.1 12.65,-41.26 2.15,-60.15 l -86.64,-155.91 c -20.76,-37.36 -73.35,-40.39 -98.26,-5.66 l -398.04,554.95 c -13.77,19.19 -14.58,44.81 -2.05,64.84 l 109.56,175.18 c 22.56,36.06 74.9,36.58 98.16,0.97"
         style="fill:#350c0c;fill-opacity:1;fill-rule:nonzero;stroke:none"
         id="path168" />
      <path
         d="m 1906.91,3309.47 c 2.04,-5.85 3.59,-9.71 7.49,-15.75 42.64,-65.27 170.72,-261.35 288.15,-441.11 20.05,-30.69 39.88,-61.04 59.22,-90.64 4.83,-7.4 9.64,-14.76 14.41,-22.06 5,-7.32 9.18,-14.28 11.16,-22.44 4.38,-16.17 0.59,-32.97 -8.26,-46.71 -32.29,-57.72 -61.5,-111.53 -87.06,-155.81 -7.12,-10.21 -17.49,-17.06 -28.1,-20.61 -10.72,-3.49 -21.79,-3.33 -31.41,-0.89 -9.67,2.47 -17.89,7.41 -24.08,13.32 -6.18,5.83 -10.52,12.88 -14.94,18.85 -17.24,24.04 -26.96,37.59 -26.96,37.59 0,0 -155.42,216.7 -326.36,455.04 -10.69,14.9 -21.43,29.88 -32.2,44.9 -5.59,7.52 -10.61,14.72 -12.96,23.44 -2.59,8.51 -2.92,17.64 -1.33,26.36 1.67,8.89 5.61,16.63 10.81,24.4 l 14.68,23.48 c 9.78,15.62 19.51,31.18 29.18,46.64 19.32,30.9 38.38,61.36 56.9,90.99 4.7,7.49 8.96,14.72 15.05,20.33 6.07,5.6 13.39,9.68 21.12,12.08 7.75,2.4 15.93,3.09 23.84,2.14 l 5.87,-1.01 5.67,-1.7 c 1.88,-0.61 3.62,-1.54 5.43,-2.28 1.81,-0.65 3.96,-2.17 3.36,-1.75 4.03,-2.17 6.88,-4.6 8.35,-5.76 5.33,-4.54 8.38,-7.13 12.97,-11.04 -1.19,2.8 -2.23,5.26 -3.66,7.65 -1.69,2.15 -3.36,4.67 -6.3,6.98 -1.58,1.27 -4.68,3.91 -9.05,6.28 l -0.8,0.48 c -0.89,0.59 -1.87,1 -2.84,1.42 -1.97,0.81 -3.87,1.81 -5.9,2.47 l -6.15,1.84 -6.36,1.1 c -8.57,1.03 -17.43,0.29 -25.82,-2.32 -8.39,-2.6 -16.34,-7.03 -22.93,-13.12 -6.65,-6.12 -11.29,-14.03 -15.84,-21.29 -18.53,-29.63 -37.58,-60.09 -56.91,-90.99 -9.67,-15.46 -19.4,-31.02 -29.17,-46.64 l -14.68,-23.48 c -5.09,-7.54 -9.77,-16.57 -11.44,-26.01 -1.74,-9.46 -1.37,-19.36 1.43,-28.58 2.46,-9.34 8.25,-17.63 13.65,-24.86 10.77,-15.02 21.51,-30 32.2,-44.89 170.95,-238.33 326.39,-455.03 326.39,-455.03 0,0 9.71,-13.55 26.96,-37.59 4.37,-5.87 8.68,-13 15.52,-19.52 6.71,-6.41 15.65,-11.78 26.14,-14.46 10.42,-2.65 22.4,-2.81 34.01,0.96 11.5,3.84 22.77,11.3 30.48,22.36 26.12,45.16 54.94,98.34 87.35,156.24 9.09,13.97 13.56,32.86 8.7,50.18 -2.03,8.68 -6.95,16.81 -11.77,23.83 -4.77,7.3 -9.58,14.66 -14.41,22.06 -19.34,29.61 -39.17,59.95 -59.22,90.65 -117.43,179.75 -245.53,375.82 -288.17,441.09 -3.96,6 -6.87,8.98 -11.41,13.19"
         style="fill:#ffffff;fill-opacity:1;fill-rule:nonzero;stroke:none"
         id="path170" />
      <path
         d="m 1900.73,3267.88 356.19,-534.8 c 10.13,-15.5 10.83,-35.33 1.84,-51.52 l -74.2,-133.52 c -17.78,-31.99 -62.81,-34.58 -84.15,-4.84 l -375.82,518.29 c -11.79,16.44 -12.49,38.38 -1.76,55.53 l 93.84,150.03 c 19.31,30.89 64.14,31.33 84.06,0.83"
         style="fill:#350c0c;fill-opacity:1;fill-rule:nonzero;stroke:none"
         id="path172" />
      <path
         d="m 1900.73,3267.88 c 2.09,-5.83 3.67,-9.67 7.63,-15.67 39.22,-58.89 157.03,-235.79 265.04,-397.98 18.42,-27.65 36.63,-54.99 54.39,-81.66 8.88,-13.33 17.66,-26.5 26.29,-39.46 8.66,-12.28 10.76,-28.16 6.34,-41.79 -2.09,-6.74 -6.3,-12.93 -9.74,-19.47 -3.57,-6.42 -7.1,-12.76 -10.58,-19.03 -6.97,-12.54 -13.76,-24.76 -20.35,-36.62 -13.18,-23.73 -25.56,-46 -36.94,-66.47 -5.45,-9.83 -13.8,-17.23 -23.14,-21.15 -9.35,-3.83 -19.3,-4.71 -28.09,-2.91 -8.81,1.79 -16.41,5.93 -22.14,11.08 -5.75,5.03 -9.6,11.44 -13.67,16.83 -15.74,21.71 -24.6,33.94 -24.6,33.94 0,0 -141.86,195.65 -297.89,410.83 -9.75,13.45 -19.56,26.98 -29.39,40.54 l -14.76,20.35 c -5.13,6.64 -8.91,13.57 -10.48,21.55 -1.67,7.81 -1.32,16.05 1.05,23.67 2.12,7.67 7.13,14.27 11.5,21.5 8.86,14.16 17.68,28.26 26.44,42.27 17.51,28 34.78,55.61 51.57,82.45 4.26,6.53 8.21,13.8 12.65,19.57 4.64,5.8 10.58,10.44 17.22,13.47 6.62,3.04 13.9,4.49 21.06,4.32 3.59,-0.04 7.12,-0.61 10.57,-1.4 l 5.07,-1.56 3.13,-1.38 c 4.09,-1.9 7.23,-3.95 8.64,-5.15 5.51,-4.09 8.36,-6.71 13.18,-10.67 -2.33,5.63 -4.33,9.84 -10.36,14.4 -1.54,1.33 -4.98,3.61 -9.49,5.7 l -3.45,1.52 c -1.82,0.63 -3.71,1.13 -5.57,1.71 -3.79,0.88 -7.67,1.49 -11.61,1.55 -7.86,0.18 -15.84,-1.41 -23.14,-4.75 -7.3,-3.33 -13.85,-8.46 -18.94,-14.83 -5.05,-6.63 -8.56,-13.28 -12.96,-20 -16.79,-26.84 -34.06,-54.45 -51.57,-82.45 -8.76,-14.01 -17.58,-28.11 -26.44,-42.27 -4.2,-7 -9.56,-14 -12,-22.62 -2.61,-8.38 -2.99,-17.43 -1.17,-26.02 1.62,-8.6 6.14,-16.76 11.28,-23.33 l 14.76,-20.36 c 9.83,-13.56 19.64,-27.08 29.39,-40.53 156.04,-215.18 297.91,-410.82 297.91,-410.82 0,0 8.87,-12.23 24.61,-33.94 3.98,-5.24 7.87,-11.84 14.34,-17.59 6.3,-5.66 14.67,-10.22 24.35,-12.18 9.65,-1.97 20.56,-1.03 30.84,3.2 10.24,4.27 19.52,12.52 25.41,23.18 11.37,20.47 23.75,42.74 36.93,66.47 6.6,11.86 13.39,24.08 20.35,36.61 3.49,6.27 7.02,12.62 10.58,19.04 3.38,6.43 7.69,12.67 10.12,20.32 4.89,14.93 2.47,32.54 -6.9,45.81 -8.63,12.96 -17.4,26.13 -26.28,39.46 -17.76,26.68 -35.97,54.02 -54.39,81.67 -108.02,162.18 -225.85,339.08 -265.07,397.97 -4.02,5.96 -6.96,8.91 -11.53,13.08"
         style="fill:#ffffff;fill-opacity:1;fill-rule:nonzero;stroke:none"
         id="path174" />
      <path
         d="m 1919.79,3019.37 c -25.91,-19.38 -68.35,-6.45 -94.78,28.89 -26.43,35.34 -26.85,79.7 -0.93,99.09 25.91,19.38 68.35,6.44 94.78,-28.9 26.43,-35.34 26.85,-79.7 0.93,-99.08"
         style="fill:#ffffff;fill-opacity:1;fill-rule:nonzero;stroke:none"
         id="path176" />
      <path
         d="m 1794.55,2626.82 c 0,0 -51.96,26.34 -27.66,91.7 24.3,65.35 111.04,215.56 111.04,215.56 l 300.17,62.14 c 0,0 17.82,-63.05 -117.94,-89.2 l -110.67,-46.99 -4.45,-141.79 -150.49,-91.42"
         style="fill:#e7b092;fill-opacity:1;fill-rule:nonzero;stroke:none"
         id="path178" />
      <path
         d="m 1768.2,2656.26 c 0,0 -39.53,52.33 -30.65,129.03 8.87,76.7 30.43,232.06 30.43,232.06 0,0 125.83,64.37 194.73,70.75 68.9,6.38 203.33,-30.69 203.33,-30.69 0,0 -7.01,-70.94 -131.59,-62.51 -124.59,8.43 -177.89,-28.45 -169.65,-91.59 l -96.6,-247.05"
         style="fill:#e7b092;fill-opacity:1;fill-rule:nonzero;stroke:none"
         id="path180" />
      <path
         d="m 1762.37,2689.74 c -1.5,4.89 -0.35,8.95 0.4,13.04 0.88,4.11 2.08,8.39 3.74,13.89 0.48,1.75 1.43,4.5 2.68,7.81 0.28,0.83 0.63,1.69 1.02,2.57 0.74,1.75 1.5,3.53 2.26,5.33 1.61,3.24 3.05,6.6 4.87,9.87 7.24,13.27 14.84,27.17 22.57,41.33 15.53,28.34 31.62,57.69 46.59,84.99 7.48,13.65 14.68,26.79 21.39,39.03 3.36,6.13 6.59,12.03 9.67,17.65 0.77,1.41 1.54,2.8 2.29,4.17 1.1,2.02 0.48,0.87 0.64,1.18 2.87,0.6 5.67,1.18 8.37,1.74 150.84,31.24 230.54,47.75 230.54,47.75 0,0 12.94,2.67 34.91,7.22 5.49,1.13 11.55,2.39 18.11,3.75 l 2.22,0.45 h -0.01 c 0,0 0,0.1 0.01,-0.12 l -0.03,-1.63 c -0.01,-0.83 0.01,-1.68 -0.11,-2.53 -0.15,-1.7 -0.31,-3.44 -0.71,-5.17 -2.61,-13.99 -12.05,-28.34 -26.42,-38.79 -3.53,-2.7 -7.26,-5.26 -11.35,-7.48 -3.89,-2.49 -8.22,-4.42 -12.55,-6.45 -8.7,-4.07 -18.22,-7.03 -27.81,-10.89 -19.24,-7.33 -39.24,-14.95 -59.55,-22.68 -20.29,-7.75 -40.86,-15.71 -61.52,-22.74 l -15.41,-5.42 -7.67,-2.7 -3.02,-1.07 -1.92,-0.67 c -0.31,-0.12 -0.67,-0.2 -0.93,-0.36 l -0.03,-1.02 -0.19,-6.2 c -0.34,-10.78 -0.68,-21.44 -1.01,-31.94 -1.05,-34.11 -1.97,-63.77 -2.36,-76.5 -0.32,-11.99 0.81,-18.82 2.99,-28.91 2.81,9.93 4.37,16.68 4.8,28.66 0.41,12.74 1.35,42.4 2.43,76.51 0.33,10.49 0.66,21.16 1,31.93 l 0.06,1.9 v -0.02 l -0.01,-0.01 c -0.09,-0.03 -0.08,-0.02 0.8,0.29 l 7.69,2.7 15.43,5.44 c 20.73,7.05 41.27,15.01 61.55,22.75 20.29,7.73 40.28,15.35 59.51,22.68 9.5,3.82 19.32,6.89 28.42,11.14 4.56,2.14 9.09,4.16 13.25,6.82 4.32,2.35 8.33,5.09 12.14,8.01 15.45,11.24 26.37,27.33 29.37,43.58 0.45,2.01 0.65,4.04 0.82,6.04 0.13,0.99 0.11,2 0.13,2.99 0.02,0.98 0.07,1.8 -0.14,3.78 -0.13,1.7 -0.27,3.37 -0.62,5 -0.26,0.63 -0.02,2.02 -0.71,2.09 l -2.4,-0.31 c -1.54,-0.13 -3.34,-0.63 -4.98,-0.93 l -2.75,-0.57 c -6.56,-1.36 -12.61,-2.62 -18.11,-3.75 -21.97,-4.56 -34.9,-7.23 -34.9,-7.23 0,0 -79.71,-16.5 -230.54,-47.71 -2.92,-0.61 -5.93,-1.23 -9.03,-1.87 -3.51,0.63 -4.66,-4.53 -5.28,-4.96 -0.75,-1.37 -1.51,-2.76 -2.28,-4.16 -3.09,-5.63 -6.32,-11.53 -9.68,-17.65 -6.71,-12.24 -13.91,-25.38 -21.4,-39.02 -14.96,-27.3 -31.05,-56.64 -46.58,-84.98 -7.76,-14.22 -15.39,-28.18 -22.66,-41.51 -1.86,-3.35 -3.39,-6.89 -5.05,-10.26 -0.81,-1.9 -1.6,-3.77 -2.38,-5.61 -0.41,-0.92 -0.77,-1.83 -1.08,-2.73 -1.32,-3.52 -2.32,-6.47 -2.83,-8.39 -1.74,-5.98 -2.38,-10.99 -1.97,-15.77 0.45,-4.64 1.52,-9.63 5.31,-13.37"
         style="fill:#4f2b2b;fill-opacity:1;fill-rule:nonzero;stroke:none"
         id="path182" />
      <path
         d="m 1756.01,2677.6 c 0,0 -34.96,27.09 -50.08,108.36 -10.54,56.7 -44.69,145.81 -64.38,194.51 -8.92,22.07 -4.32,47.13 11.72,64.71 30.43,33.33 82.16,84.51 125.98,100.62 45.48,16.72 112.36,24.31 150.42,27.46 17.44,1.44 29.58,-16.71 21.85,-32.4 -10.39,-21.09 -34.55,-46.75 -90.25,-61.35 l -118.08,-74.84 15.07,-76.48 -2.25,-250.59"
         style="fill:#e7b092;fill-opacity:1;fill-rule:nonzero;stroke:none"
         id="path184" />
      <path
         d="m 1671.77,3064.36 c 8.45,5.86 14.16,9.55 22.81,17.73 1.8,1.66 4.97,4.58 8.83,8.14 2.65,2.35 5.32,4.74 8.03,7.14 3.07,2.66 6.17,5.34 9.31,8.05 6.3,5.37 12.79,10.77 19.46,16.15 3.35,2.68 6.72,5.38 10.12,8.1 l 5.14,4.06 0.87,0.69 c -0.18,-0.07 0.2,0.08 0.83,0.29 l 3.1,1.06 c 8.32,2.78 16.83,5.44 25.47,7.94 34.56,9.99 71.13,18.34 108.1,23.17 9.24,1.17 18.5,2.31 27.76,2.93 4.42,0.2 9.79,1.08 13.08,0.57 3.7,-0.46 7.05,-2.49 9.51,-5.28 2.36,-2.89 3.85,-6.55 3.79,-10.24 0.15,-3.79 -1.45,-6.89 -3.73,-11 -4.35,-7.69 -9.6,-14.8 -15.54,-21.16 -11.9,-12.78 -26.55,-22.29 -41.62,-29.41 -7.63,-3.39 -15.27,-6.52 -23.06,-8.8 l -2.89,-0.91 c -0.23,-0.1 -1.71,-0.42 -2.4,-1.03 l -1.3,-0.82 -5.15,-3.27 c -3.42,-2.17 -6.8,-4.31 -10.15,-6.43 -26.75,-16.96 -51.06,-32.37 -71.72,-45.46 -10.66,-6.76 -20.37,-12.92 -29,-18.38 l -1.56,-0.99 c -0.59,-0.3 -1.11,-0.62 -0.79,-1.34 l 0.51,-3.58 c 0.18,-1.3 0.37,-2.57 0.54,-3.82 0.33,-2.29 0.64,-4.5 0.95,-6.62 0.6,-4.25 1.16,-8.17 1.66,-11.73 3.98,-27.96 7.54,-53.04 10.57,-74.33 2.69,-18.89 5.14,-36.11 7.32,-51.46 0.27,-1.91 0.54,-3.8 0.8,-5.66 0.03,-0.15 0.08,-0.66 0.1,-0.51 l 0.04,0.7 0.09,1.39 0.18,2.75 c 0.24,3.62 0.47,7.13 0.69,10.51 0.44,6.76 0.86,13.03 1.23,18.78 1.48,22.59 2.43,36.97 2.73,41.57 0.07,1.17 0.07,1.1 -0.02,-0.32 -0.19,-2.77 -0.54,-8.16 -1.08,-16.38 3.31,50.54 5.13,78.29 6.12,93.42 0.19,2.9 0.35,5.2 0.46,7.01 0.82,0.49 1.41,0.84 1.85,1.11 1.97,1.16 2.45,1.44 2.45,1.44 0,0 10.45,6.36 29.72,16.42 19.28,9.94 47.3,24 83.05,36.45 17.85,6.03 37.73,12.08 59.19,14.8 21.54,2.59 44.91,2.09 69.11,0.27 24.22,-1.88 49.37,-5.24 75.01,-9.59 12.83,-2.17 25.77,-4.63 38.79,-7.3 6.5,-1.4 13.02,-2.8 19.57,-4.21 l 9.8,-2.26 c 2.39,-0.57 1.19,-0.29 1.48,-0.35 v 0.01 l -0.23,-1.75 c -1.79,-12.35 -9.08,-23.68 -18.92,-31.83 -9.93,-8.28 -22.42,-13.31 -35.14,-16.84 -25.9,-6.52 -53.11,-6.56 -79.63,-4.42 -27.14,2.28 -54.15,1.69 -80.01,-3.03 -12.92,-2.35 -25.51,-5.98 -37.29,-11.2 -5.92,-2.53 -11.5,-5.75 -16.87,-9.17 -2.56,-1.92 -5.22,-3.67 -7.62,-5.75 l -3.56,-3.15 c -1.21,-0.97 -2.59,-2.54 -2.26,-2.18 -5.91,-5.89 -9.68,-11.72 -11.37,-14.67 -6.23,-11.02 -6.91,-18.72 -6.38,-28.92 4.39,9.38 7.43,15.11 13.08,24.91 1.53,2.64 4.9,7.83 10.24,13.14 -0.29,-0.33 0.94,1.1 2.04,1.98 l 3.24,2.85 c 2.17,1.9 4.63,3.5 6.96,5.26 4.97,3.15 10.13,6.15 15.7,8.53 11.06,4.9 23.07,8.38 35.52,10.64 24.92,4.57 51.43,5.16 77.87,2.94 26.95,-2.17 55.13,-2.23 82.37,4.65 13.47,3.75 26.97,9.11 38.12,18.38 11.06,9.18 19.57,22.16 21.68,36.77 0.11,1.09 0.25,1.42 0.35,3.27 l 0.07,4.98 c -1.69,1.73 -6.96,2.2 -7.63,2.58 l -9.88,2.29 c -6.6,1.42 -13.17,2.83 -19.72,4.23 -13.1,2.69 -26.13,5.17 -39.05,7.35 -25.83,4.38 -51.19,7.77 -75.73,9.67 -24.53,1.84 -48.29,2.37 -70.68,-0.32 -22.46,-2.86 -42.56,-9.02 -60.78,-15.17 -36.34,-12.67 -64.62,-26.88 -84.11,-36.93 -19.46,-10.16 -30.05,-16.6 -30.05,-16.6 0,0 -0.5,-0.3 -2.5,-1.47 -0.5,-0.3 -1.09,-0.66 -1.79,-1.08 -0.67,-0.41 -1.38,-0.84 -2.15,-1.31 l -1.25,-0.77 c -0.34,-0.31 -0.16,-0.97 -0.26,-1.46 -0.17,-2.51 -0.38,-5.68 -0.64,-9.69 -0.82,-12.53 -2.33,-35.53 -5.08,-77.4 0.01,0.16 -0.02,-0.37 0.03,0.36 0.09,1.42 0.09,1.49 0.02,0.32 -0.07,-0.95 -0.05,-0.68 -0.05,-0.68 v 0 0.02 l 0.01,-0.01 c -2.34,16.48 -5.1,35.88 -8.18,57.52 -0.85,6.02 -1.88,13.24 -3.05,21.51 8.08,5.12 17.2,10.9 27.19,17.23 20.66,13.1 44.98,28.5 71.73,45.46 3.35,2.12 6.73,4.26 10.15,6.43 l 5.15,3.26 1.3,0.82 0.42,0.14 3,0.94 c 8.07,2.37 16.06,5.62 24.04,9.18 15.8,7.45 31.31,17.5 44.04,31.15 6.35,6.8 11.99,14.42 16.67,22.7 2.16,3.8 5.01,9.24 4.73,14.87 0.04,5.58 -2.13,11.01 -5.66,15.28 -3.62,4.18 -8.75,7.24 -14.35,7.97 -5.99,0.68 -9.95,-0.34 -14.85,-0.51 -9.41,-0.63 -18.8,-1.79 -28.16,-2.97 -37.48,-4.9 -74.37,-13.32 -109.28,-23.41 -8.73,-2.54 -17.32,-5.22 -25.78,-8.05 l -3.17,-1.08 c -0.4,-0.17 -1.1,-0.31 -2.26,-0.86 l -1.71,-1.36 -5.17,-4.08 c -3.42,-2.74 -6.81,-5.46 -10.18,-8.16 -6.72,-5.42 -13.26,-10.86 -19.62,-16.28 -3.16,-2.73 -6.29,-5.44 -9.39,-8.12 -2.74,-2.43 -5.45,-4.84 -8.12,-7.23 -3.89,-3.61 -7.09,-6.59 -8.91,-8.28 -8.69,-8.36 -12.72,-14.21 -17.46,-23.4"
         style="fill:#4f2b2b;fill-opacity:1;fill-rule:nonzero;stroke:none"
         id="path186" />
      <path
         d="m 3276.84,2621.88 167.06,214.8 c 0,0 -417.66,322.2 0,393.8 417.67,71.6 1467.81,-131.27 1324.61,-823.4 -143.2,-692.14 -1253.01,214.8 -1253.01,214.8 h -238.66"
         style="fill:#e7b092;fill-opacity:1;fill-rule:nonzero;stroke:none"
         id="path188" />
      <path
         d="m 601.922,2208.59 c 0,0 -467.981,341.03 -360.914,670.47 107.066,329.43 776.212,636.94 950.992,494.15 174.79,-142.78 210.27,-395.32 210.27,-395.32 l 189.43,-98.83 -247.08,-8.24 c 0,0 -248.27,-758.56 -742.698,-662.23"
         style="fill:#e7b092;fill-opacity:1;fill-rule:nonzero;stroke:none"
         id="path190" />
    </g>
  </g>
</svg>
