<?xml version="1.0" encoding="UTF-8" standalone="no"?>
<!-- Created with Inkscape (http://www.inkscape.org/) -->

<svg
   version="1.1"
   id="svg2"
   width="587.45734"
   height="562.50018"
   viewBox="0 0 587.45734 562.50019"
   sodipodi:docname="11215243_4697573.eps"
   xmlns:inkscape="http://www.inkscape.org/namespaces/inkscape"
   xmlns:sodipodi="http://sodipodi.sourceforge.net/DTD/sodipodi-0.dtd"
   xmlns="http://www.w3.org/2000/svg"
   xmlns:svg="http://www.w3.org/2000/svg">
  <defs
     id="defs6" />
  <sodipodi:namedview
     id="namedview4"
     pagecolor="#ffffff"
     bordercolor="#000000"
     borderopacity="0.25"
     inkscape:showpageshadow="2"
     inkscape:pageopacity="0.0"
     inkscape:pagecheckerboard="0"
     inkscape:deskcolor="#d1d1d1"
     showgrid="false" />
  <g
     id="g10"
     inkscape:groupmode="layer"
     inkscape:label="Page 1"
     transform="matrix(1.3333333,0,0,-1.3333333,0,562.49865)">
    <g
       id="g12"
       transform="scale(0.1)">
      <path
         d="m 2659.77,3386.03 h -814.16 c 0,0 80.73,220.49 204.96,220.49 124.24,0 163.15,-152.19 163.15,-152.19 0,0 83.83,82.69 152.68,82.69 68.85,0 128.73,-109.27 128.73,-109.27 0,0 97.29,58.76 164.64,-41.72"
         style="fill:#e7e8e5;fill-opacity:1;fill-rule:nonzero;stroke:none"
         id="path14" />
      <path
         d="m 2870.84,2848.75 h -380.48 c 0,0 85.02,123.18 152,123.18 66.98,0 86.77,-82.12 86.77,-82.12 0,0 39.84,32.3 80.25,32.3 3.61,0 7.22,-0.26 10.81,-0.82 43.8,-6.84 50.65,-72.54 50.65,-72.54"
         style="fill:#f3f2f1;fill-opacity:1;fill-rule:nonzero;stroke:none"
         id="path16" />
      <path
         d="m 3438.57,3105.6 h -380.48 c 0,0 85.02,123.17 152.01,123.17 66.98,0 86.77,-82.12 86.77,-82.12 0,0 39.84,32.3 80.26,32.3 3.61,0 7.22,-0.25 10.81,-0.82 43.8,-6.84 50.63,-72.53 50.63,-72.53"
         style="fill:#f3f2f1;fill-opacity:1;fill-rule:nonzero;stroke:none"
         id="path18" />
      <path
         d="m 1821.8,2590.47 h -741.11 c 0,0 101.49,226.58 210.07,240.74 108.56,14.16 160.49,-168.36 160.49,-168.36 0,0 70.02,64.51 125.09,64.51 55.07,0 97.55,-84.97 97.55,-84.97 0,0 110.15,58.22 147.91,-51.92"
         style="fill:#e7e8e5;fill-opacity:1;fill-rule:nonzero;stroke:none"
         id="path20" />
      <path
         d="m 3382.76,2284.1 h -741.1 c 0,0 101.48,226.58 210.06,240.74 108.56,14.16 160.49,-168.36 160.49,-168.36 0,0 70.02,64.51 125.09,64.51 55.07,0 97.56,-84.97 97.56,-84.97 0,0 110.14,58.22 147.9,-51.92"
         style="fill:#e7e8e5;fill-opacity:1;fill-rule:nonzero;stroke:none"
         id="path22" />
      <path
         d="M 1451.25,3167.18 H 996.254 v 70.78 c 33.786,44.76 82.626,94.47 133.656,95.77 0.87,0.03 1.74,0.04 2.6,0.04 91.6,0 139.72,-124.27 139.72,-124.27 0,0 51.32,41.18 100.05,41.18 33.22,0 65.23,-19.13 78.97,-83.5"
         style="fill:#f3f2f1;fill-opacity:1;fill-rule:nonzero;stroke:none"
         id="path24" />
      <path
         d="m 1673.13,2416.5 c -18.87,0 -17.8,21.64 -9.11,43.25 2.8,6.95 4.66,12.83 9.11,22.06 4.43,-9.23 6.29,-15.11 9.09,-22.06 8.69,-21.61 9.76,-43.25 -9.09,-43.25"
         style="fill:#bebfbd;fill-opacity:1;fill-rule:nonzero;stroke:none"
         id="path26" />
      <path
         d="m 1374.64,2323.31 c -18.87,0 -17.8,21.64 -9.11,43.25 2.8,6.96 4.66,12.83 9.11,22.07 4.43,-9.24 6.29,-15.11 9.09,-22.07 8.69,-21.61 9.76,-43.25 -9.09,-43.25"
         style="fill:#d4d6d3;fill-opacity:1;fill-rule:nonzero;stroke:none"
         id="path28" />
      <path
         d="m 1868.49,2337.24 c -18.87,0 -17.8,21.63 -9.11,43.24 2.81,6.95 4.66,12.83 9.11,22.07 4.43,-9.24 6.29,-15.12 9.1,-22.07 8.68,-21.61 9.75,-43.24 -9.1,-43.24"
         style="fill:#d4d6d3;fill-opacity:1;fill-rule:nonzero;stroke:none"
         id="path30" />
      <path
         d="m 1213.46,2877.69 c -18.87,0 -17.8,21.64 -9.12,43.25 2.82,6.95 4.67,12.82 9.12,22.06 4.43,-9.24 6.28,-15.11 9.09,-22.06 8.69,-21.61 9.76,-43.25 -9.09,-43.25"
         style="fill:#d4d6d3;fill-opacity:1;fill-rule:nonzero;stroke:none"
         id="path32" />
      <path
         d="m 1970.06,2034.08 c -18.88,0 -17.81,21.64 -9.12,43.25 2.81,6.94 4.67,12.82 9.12,22.06 4.43,-9.24 6.28,-15.12 9.09,-22.06 8.69,-21.61 9.76,-43.25 -9.09,-43.25"
         style="fill:#bebfbd;fill-opacity:1;fill-rule:nonzero;stroke:none"
         id="path34" />
      <path
         d="m 2564.36,3228.06 c -18.87,0 -17.8,21.64 -9.11,43.25 2.8,6.95 4.66,12.83 9.11,22.07 4.43,-9.24 6.29,-15.12 9.1,-22.07 8.69,-21.61 9.75,-43.25 -9.1,-43.25"
         style="fill:#bebfbd;fill-opacity:1;fill-rule:nonzero;stroke:none"
         id="path36" />
      <path
         d="m 3100.62,2001.42 c -18.87,0 -17.8,21.64 -9.11,43.25 2.8,6.95 4.66,12.82 9.11,22.06 4.43,-9.24 6.28,-15.11 9.09,-22.06 8.7,-21.61 9.76,-43.25 -9.09,-43.25"
         style="fill:#d4d6d3;fill-opacity:1;fill-rule:nonzero;stroke:none"
         id="path38" />
      <path
         d="m 2109.85,3301.11 c -18.88,0 -17.81,21.64 -9.12,43.25 2.81,6.95 4.66,12.83 9.12,22.07 4.42,-9.24 6.28,-15.12 9.09,-22.07 8.69,-21.61 9.75,-43.25 -9.09,-43.25"
         style="fill:#d4d6d3;fill-opacity:1;fill-rule:nonzero;stroke:none"
         id="path40" />
      <path
         d="m 2446.24,2995.05 c -18.87,0 -17.8,21.63 -9.11,43.25 2.8,6.95 4.67,12.83 9.11,22.06 4.43,-9.23 6.29,-15.11 9.09,-22.06 8.69,-21.62 9.77,-43.25 -9.09,-43.25"
         style="fill:#d4d6d3;fill-opacity:1;fill-rule:nonzero;stroke:none"
         id="path42" />
      <path
         d="m 3278.95,2155.17 c -18.87,0 -17.8,21.64 -9.12,43.24 2.81,6.96 4.67,12.83 9.12,22.07 4.43,-9.24 6.28,-15.11 9.1,-22.07 8.68,-21.6 9.75,-43.24 -9.1,-43.24"
         style="fill:#d4d6d3;fill-opacity:1;fill-rule:nonzero;stroke:none"
         id="path44" />
      <path
         d="m 2764.73,2621.35 c -18.87,0 -17.8,21.63 -9.11,43.24 2.81,6.95 4.66,12.83 9.11,22.06 4.43,-9.23 6.29,-15.11 9.1,-22.06 8.69,-21.61 9.75,-43.24 -9.1,-43.24"
         style="fill:#d4d6d3;fill-opacity:1;fill-rule:nonzero;stroke:none"
         id="path46" />
      <path
         d="m 3148.23,2924.51 c -18.88,0 -17.8,21.63 -9.11,43.24 2.8,6.95 4.66,12.83 9.11,22.06 4.43,-9.23 6.29,-15.11 9.09,-22.06 8.69,-21.61 9.76,-43.24 -9.09,-43.24"
         style="fill:#d4d6d3;fill-opacity:1;fill-rule:nonzero;stroke:none"
         id="path48" />
      <path
         d="m 3249.8,2621.35 c -18.87,0 -17.81,21.63 -9.12,43.24 2.81,6.95 4.67,12.83 9.12,22.06 4.43,-9.23 6.28,-15.11 9.09,-22.06 8.69,-21.61 9.76,-43.24 -9.09,-43.24"
         style="fill:#bebfbd;fill-opacity:1;fill-rule:nonzero;stroke:none"
         id="path50" />
      <path
         d="m 3365.97,2966.7 c -18.87,0 -17.81,21.64 -9.12,43.25 2.82,6.95 4.67,12.83 9.12,22.07 4.43,-9.24 6.28,-15.12 9.1,-22.07 8.68,-21.61 9.75,-43.25 -9.1,-43.25"
         style="fill:#bebfbd;fill-opacity:1;fill-rule:nonzero;stroke:none"
         id="path52" />
      <path
         d="m 1037.53,3032.02 c -18.87,0 -17.81,21.63 -9.11,43.24 2.8,6.95 4.66,12.83 9.11,22.06 4.43,-9.23 6.28,-15.11 9.09,-22.06 8.69,-21.61 9.76,-43.24 -9.09,-43.24"
         style="fill:#bebfbd;fill-opacity:1;fill-rule:nonzero;stroke:none"
         id="path54" />
      <path
         d="m 1898.26,3160.43 c -18.87,0 -17.8,21.64 -9.12,43.25 2.82,6.95 4.67,12.83 9.12,22.07 4.43,-9.24 6.28,-15.12 9.09,-22.07 8.69,-21.61 9.76,-43.25 -9.09,-43.25"
         style="fill:#bebfbd;fill-opacity:1;fill-rule:nonzero;stroke:none"
         id="path56" />
      <path
         d="m 1228.57,2429.69 c -18.87,0 -17.81,21.63 -9.12,43.24 2.81,6.95 4.67,12.83 9.12,22.06 4.43,-9.23 6.28,-15.11 9.09,-22.06 8.69,-21.61 9.76,-43.24 -9.09,-43.24"
         style="fill:#d4d6d3;fill-opacity:1;fill-rule:nonzero;stroke:none"
         id="path58" />
      <path
         d="m 1095.81,2148.35 c -18.87,0 -17.8,21.63 -9.11,43.25 2.8,6.95 4.66,12.83 9.11,22.06 4.43,-9.23 6.29,-15.11 9.1,-22.06 8.68,-21.62 9.75,-43.25 -9.1,-43.25"
         style="fill:#d4d6d3;fill-opacity:1;fill-rule:nonzero;stroke:none"
         id="path60" />
      <path
         d="M 476.703,1916.92 H 211.898 v 111.9 h 264.805 v -111.9"
         style="fill:#e7e8e5;fill-opacity:1;fill-rule:nonzero;stroke:none"
         id="path62" />
      <path
         d="M 328.988,1775.82 H 64.1797 v 111.9 H 328.988 v -111.9"
         style="fill:#e7e8e5;fill-opacity:1;fill-rule:nonzero;stroke:none"
         id="path64" />
      <path
         d="M 624.418,1775.82 H 359.613 v 111.9 h 264.805 v -111.9"
         style="fill:#e7e8e5;fill-opacity:1;fill-rule:nonzero;stroke:none"
         id="path66" />
      <path
         d="m 4237.36,1775.82 h -264.8 v 111.9 h 264.8 v -111.9"
         style="fill:#e7e8e5;fill-opacity:1;fill-rule:nonzero;stroke:none"
         id="path68" />
      <path
         d="m 4237.36,4101.16 h -264.8 v 111.89 h 264.8 v -111.89"
         style="fill:#e7e8e5;fill-opacity:1;fill-rule:nonzero;stroke:none"
         id="path70" />
      <path
         d="m 4385.08,3960.06 h -264.81 v 111.9 h 264.81 v -111.9"
         style="fill:#e7e8e5;fill-opacity:1;fill-rule:nonzero;stroke:none"
         id="path72" />
      <path
         d="M 328.988,4101.04 H 64.1797 v 111.9 H 328.988 v -111.9"
         style="fill:#e7e8e5;fill-opacity:1;fill-rule:nonzero;stroke:none"
         id="path74" />
      <path
         d="m 1795.74,667.32 h 264.81 V 555.418 H 1795.74 V 667.32"
         style="fill:#e7e8e5;fill-opacity:1;fill-rule:nonzero;stroke:none"
         id="path76" />
      <path
         d="m 1943.46,808.418 h 264.8 V 696.531 h -264.8 v 111.887"
         style="fill:#e7e8e5;fill-opacity:1;fill-rule:nonzero;stroke:none"
         id="path78" />
      <path
         d="m 0,374.141 550.738,2.437 550.742,0.891 1101.48,1.672 1101.48,-1.661 550.74,-0.878 550.75,-2.461 -550.75,-2.442 -550.74,-0.879 -1101.48,-1.672 -1101.48,1.68 -550.742,0.883 L 0,374.141"
         style="fill:#17282f;fill-opacity:1;fill-rule:nonzero;stroke:none"
         id="path80" />
      <path
         d="m 1136.07,96.4297 c 0,-53.25 -230.199,-96.4414188 -514.152,-96.4414188 -283.961,0 -514.156,43.1914188 -514.156,96.4414188 0,53.2613 230.195,96.4493 514.156,96.4493 283.953,0 514.152,-43.188 514.152,-96.4493"
         style="fill:#e7e8e5;fill-opacity:1;fill-rule:nonzero;stroke:none"
         id="path82" />
      <path
         d="m 4345.65,96.4297 c 0,-53.25 -471.86,-96.4414188 -1053.93,-96.4414188 -582.07,0 -1053.94,43.1914188 -1053.94,96.4414188 0,53.2613 471.87,96.4493 1053.94,96.4493 582.07,0 1053.93,-43.188 1053.93,-96.4493"
         style="fill:#e7e8e5;fill-opacity:1;fill-rule:nonzero;stroke:none"
         id="path84" />
      <path
         d="M 4126.54,669.398 H 2456.89 V 782.219 H 4126.54 V 669.398"
         style="fill:#273e47;fill-opacity:1;fill-rule:nonzero;stroke:none"
         id="path86" />
      <path
         d="M 2799.93,669.359 2758.14,567.449 2553.98,68.7695 h -52.23 L 2639,567.449 l 28.01,101.91 h 132.92"
         style="fill:#273e47;fill-opacity:1;fill-rule:nonzero;stroke:none"
         id="path88" />
      <path
         d="m 2667.01,669.359 h 132.92 l -41.79,-101.91 H 2639 l 28.01,101.91"
         style="fill:#17282f;fill-opacity:1;fill-rule:nonzero;stroke:none"
         id="path90" />
      <path
         d="m 4081.67,68.7695 h -52.24 l -204.16,498.6795 -41.67,101.91 h 132.8 l 28.01,-101.91 137.26,-498.6795"
         style="fill:#273e47;fill-opacity:1;fill-rule:nonzero;stroke:none"
         id="path92" />
      <path
         d="m 3944.41,567.449 h -119.14 l -41.67,101.91 h 132.8 l 28.01,-101.91"
         style="fill:#17282f;fill-opacity:1;fill-rule:nonzero;stroke:none"
         id="path94" />
      <path
         d="m 4021.64,1047.7 h -33.49 c 14.34,25.9 28.69,64.34 20.01,105.54 -2.4,11.4 -9.68,22.97 -19.62,34.92 23.69,17.8 46.94,36.3 59.5,56.63 30.23,-24.93 54.11,-51.85 54.11,-82.82 0,-47.24 -42.82,-87.75 -80.51,-114.27 m -73.46,182.4 c -33.36,33.26 -68,70.7 -68,116.12 0,83.4 122.05,125.1 122.05,125.1 0,0 -77.27,-38.79 -77.27,-104.73 0,-31.48 40.39,-60.32 82.6,-91.04 -10.03,-15.37 -33.19,-30.21 -59.38,-45.45"
         style="fill:#e5e6e4;fill-opacity:1;fill-rule:nonzero;stroke:none"
         id="path96" />
      <path
         d="m 3935.88,1047.7 h -31.95 c -34.14,20.66 -68.29,49.61 -68.29,82.77 0,39.21 61.91,70.17 112.54,99.63 14.74,-14.68 29.22,-28.56 40.36,-41.94 -34.48,-25.9 -69.89,-50.32 -74.65,-76.75 -4.33,-24.08 7.73,-46.52 21.99,-63.71 m 112.16,197.09 c -12.8,10.56 -26.74,20.76 -40.48,30.76 3.39,5.2 5.28,10.46 5.28,15.81 0,51.86 -77.28,82.36 -77.28,82.36 0,0 122.06,-32.8 122.06,-98.37 0,-10.69 -3.57,-20.83 -9.58,-30.56"
         style="fill:#e5e6e4;fill-opacity:1;fill-rule:nonzero;stroke:none"
         id="path98" />
      <path
         d="m 3988.54,1188.16 c -11.14,13.38 -25.62,27.26 -40.36,41.94 26.19,15.24 49.35,30.08 59.38,45.45 13.74,-10 27.68,-20.2 40.48,-30.76 -12.56,-20.33 -35.81,-38.83 -59.5,-56.63"
         style="fill:#dadbd9;fill-opacity:1;fill-rule:nonzero;stroke:none"
         id="path100" />
      <path
         d="M 4031.95,802.5 V 782.219 H 3901.98 V 802.5 h 129.97"
         style="fill:#fabb1e;fill-opacity:1;fill-rule:nonzero;stroke:none"
         id="path102" />
      <path
         d="M 4031.95,802.5 V 789.129 H 3901.98 V 802.5 h 129.97"
         style="fill:#17282f;fill-opacity:1;fill-rule:nonzero;stroke:none"
         id="path104" />
      <path
         d="m 3747.72,857.039 c 15.36,-21.609 42.58,-37.07 73.19,-31.301 4.33,0.821 8.71,2.043 13.18,3.782 6.05,2.339 12.16,5.492 18.37,9.66 l -16.51,24.492 c -3.36,-2.344 -6.62,-4.152 -9.75,-5.551 -30.95,-14.019 -50.55,10.367 -54.4,15.949 -17.81,25.032 -24.19,82.211 -6.14,104.219 1.19,1.621 6.41,4.191 27.34,-0.258 3.86,-0.871 8.24,-1.84 13.2,-3.211 5.5,-1.558 8.76,-2.441 11.87,-2.558 l 0.54,14.699 1.44,14.669 c -1.35,0.24 -3.47,0.85 -6.21,1.63 -7.89,2.11 -18.54,5 -29.54,6.12 -15.41,1.6 -31.56,-0.24 -41.46,-12.4 -29.32,-35.921 -17.43,-108.57 4.88,-139.941"
         style="fill:#fabb1e;fill-opacity:1;fill-rule:nonzero;stroke:none"
         id="path106" />
      <path
         d="m 3835.95,863.672 c -3.36,-2.344 -6.62,-4.152 -9.75,-5.551 l 7.89,-28.601 c 6.05,2.339 12.16,5.492 18.37,9.66 l -16.51,24.492"
         style="fill:#17282f;fill-opacity:1;fill-rule:nonzero;stroke:none"
         id="path108" />
      <path
         d="m 3784.3,1009.38 8.7,-31.349 c 3.86,-0.871 8.24,-1.84 13.2,-3.211 5.5,-1.558 8.76,-2.441 11.87,-2.558 l 0.54,14.699 1.44,14.669 c -1.35,0.24 -3.47,0.85 -6.21,1.63 -7.89,2.11 -18.54,5 -29.54,6.12"
         style="fill:#17282f;fill-opacity:1;fill-rule:nonzero;stroke:none"
         id="path110" />
      <path
         d="m 4139.84,1047.7 c 0,0 -15.6,-132.438 -42.53,-188.231 -26.93,-55.699 -64.51,-61.938 -87.86,-61.938 -23.35,0 -21.22,0 -42.44,0 -21.31,0 -19.09,0 -42.53,0 -23.35,0 -60.93,6.239 -87.86,61.938 -26.93,55.793 -42.53,188.231 -42.53,188.231 h 345.75"
         style="fill:#fabb1e;fill-opacity:1;fill-rule:nonzero;stroke:none"
         id="path112" />
      <path
         d="m 3970.63,804.988 c -8.46,0 -15.34,6.871 -15.34,15.34 0,8.473 6.88,15.34 15.34,15.34 8.48,0 15.34,-6.867 15.34,-15.34 0,-8.469 -6.86,-15.34 -15.34,-15.34 m 57.11,39.09 c -8.47,0 -15.34,6.871 -15.34,15.34 0,8.48 6.87,15.344 15.34,15.344 8.47,0 15.34,-6.864 15.34,-15.344 0,-8.469 -6.87,-15.34 -15.34,-15.34 m -116.39,2.512 c -8.47,0 -15.34,6.871 -15.34,15.34 0,8.48 6.87,15.34 15.34,15.34 8.48,0 15.35,-6.86 15.35,-15.34 0,-8.469 -6.87,-15.34 -15.35,-15.34 m 170.58,45.351 c -8.48,0 -15.35,6.86 -15.35,15.34 0,8.469 6.87,15.328 15.35,15.328 8.47,0 15.33,-6.859 15.33,-15.328 0,-8.48 -6.86,-15.34 -15.33,-15.34 m -229.47,0 c -8.48,0 -15.34,6.86 -15.34,15.34 0,8.469 6.86,15.328 15.34,15.328 8.48,0 15.34,-6.859 15.34,-15.328 0,-8.48 -6.86,-15.34 -15.34,-15.34 m 116.37,2.387 c -8.48,0 -15.35,6.871 -15.35,15.34 0,8.48 6.87,15.344 15.35,15.344 8.47,0 15.34,-6.864 15.34,-15.344 0,-8.469 -6.87,-15.34 -15.34,-15.34 m 63.12,48.961 c -8.48,0 -15.34,6.859 -15.34,15.34 0,8.473 6.86,15.34 15.34,15.34 8.47,0 15.34,-6.867 15.34,-15.34 0,-8.481 -6.87,-15.34 -15.34,-15.34 m -127.81,0 c -8.48,0 -15.34,6.859 -15.34,15.34 0,8.473 6.86,15.34 15.34,15.34 8.47,0 15.34,-6.867 15.34,-15.34 0,-8.481 -6.87,-15.34 -15.34,-15.34 m -68.92,51.25 c -8.46,0 -15.34,6.861 -15.34,15.341 0,8.46 6.88,15.34 15.34,15.34 8.48,0 15.34,-6.88 15.34,-15.34 0,-8.48 -6.86,-15.341 -15.34,-15.341 m 256.38,3.199 c -8.47,0 -15.34,6.862 -15.34,15.342 0,8.48 6.87,15.34 15.34,15.34 8.48,0 15.34,-6.86 15.34,-15.34 0,-8.48 -6.86,-15.342 -15.34,-15.342 m -120.97,0 c -8.46,0 -15.34,6.862 -15.34,15.342 0,8.48 6.88,15.34 15.34,15.34 8.48,0 15.34,-6.86 15.34,-15.34 0,-8.48 -6.86,-15.342 -15.34,-15.342"
         style="fill:#f4ac12;fill-opacity:1;fill-rule:nonzero;stroke:none"
         id="path114" />
      <path
         d="m 3341.08,782.219 h -677.3 v 133.633 h 677.3 V 782.219"
         style="fill:#fabb1e;fill-opacity:1;fill-rule:nonzero;stroke:none"
         id="path116" />
      <path
         d="m 2772.1,782.219 h -66.18 v 133.633 h 66.18 V 782.219"
         style="fill:#273e47;fill-opacity:1;fill-rule:nonzero;stroke:none"
         id="path118" />
      <path
         d="m 2824.26,782.219 h -27.62 v 133.633 h 27.62 V 782.219"
         style="fill:#273e47;fill-opacity:1;fill-rule:nonzero;stroke:none"
         id="path120" />
      <path
         d="m 3261.38,782.219 h -66.19 v 133.633 h 66.19 V 782.219"
         style="fill:#273e47;fill-opacity:1;fill-rule:nonzero;stroke:none"
         id="path122" />
      <path
         d="m 3094.25,915.852 h -469.83 v 99.708 h 469.83 v -99.708"
         style="fill:#33535f;fill-opacity:1;fill-rule:nonzero;stroke:none"
         id="path124" />
      <path
         d="m 3296.96,915.852 h -202.71 v 99.708 h 202.71 v -99.708"
         style="fill:#33535f;fill-opacity:1;fill-rule:nonzero;stroke:none"
         id="path126" />
      <path
         d="m 3094.25,926.199 h -469.83 v 79.011 h 469.83 v -79.011"
         style="fill:#ffffff;fill-opacity:1;fill-rule:nonzero;stroke:none"
         id="path128" />
      <path
         d="m 2654.83,988.961 c 36.62,0.918 73.23,1.578 109.86,1.91 l 109.85,0.59 109.85,-0.582 c 36.62,-0.34 73.24,-0.988 109.86,-1.918 -36.62,-0.93 -73.24,-1.59 -109.86,-1.922 l -109.85,-0.578 -109.85,0.59 c -36.63,0.328 -73.24,0.988 -109.86,1.91"
         style="fill:#d4d6d3;fill-opacity:1;fill-rule:nonzero;stroke:none"
         id="path130" />
      <path
         d="m 2654.83,973.449 c 36.62,0.922 73.23,1.582 109.86,1.922 l 109.85,0.578 109.85,-0.57 c 36.62,-0.34 73.24,-1 109.86,-1.93 -36.62,-0.918 -73.24,-1.578 -109.86,-1.91 l -109.85,-0.578 -109.85,0.578 c -36.63,0.34 -73.24,1 -109.86,1.91"
         style="fill:#d4d6d3;fill-opacity:1;fill-rule:nonzero;stroke:none"
         id="path132" />
      <path
         d="m 2654.83,957.949 c 36.62,0.922 73.23,1.59 109.86,1.922 l 109.85,0.578 109.85,-0.57 c 36.62,-0.328 73.24,-1 109.86,-1.93 -36.62,-0.918 -73.24,-1.578 -109.86,-1.918 l -109.85,-0.582 -109.85,0.59 c -36.63,0.332 -73.24,1 -109.86,1.91"
         style="fill:#d4d6d3;fill-opacity:1;fill-rule:nonzero;stroke:none"
         id="path134" />
      <path
         d="m 2654.83,942.461 c 36.62,0.91 73.23,1.578 109.86,1.91 l 109.85,0.578 109.85,-0.57 c 36.62,-0.34 73.24,-1.008 109.86,-1.918 -36.62,-0.93 -73.24,-1.602 -109.86,-1.93 l -109.85,-0.57 -109.85,0.578 c -36.63,0.332 -73.24,1 -109.86,1.922"
         style="fill:#d4d6d3;fill-opacity:1;fill-rule:nonzero;stroke:none"
         id="path136" />
      <path
         d="m 3199.94,1015.56 h -470.18 v 109.27 h 470.18 v -109.27"
         style="fill:#273e47;fill-opacity:1;fill-rule:nonzero;stroke:none"
         id="path138" />
      <path
         d="m 3150.1,1015.56 h -43.82 v 109.27 h 43.82 v -109.27"
         style="fill:#fabb1e;fill-opacity:1;fill-rule:nonzero;stroke:none"
         id="path140" />
      <path
         d="m 3077.51,1015.56 h -16.98 v 109.27 h 16.98 v -109.27"
         style="fill:#fabb1e;fill-opacity:1;fill-rule:nonzero;stroke:none"
         id="path142" />
      <path
         d="M 3839.43,3828.32 H 609.82 v 10 h 3229.61 v -10"
         style="fill:#e7e8e5;fill-opacity:1;fill-rule:nonzero;stroke:none"
         id="path144" />
      <path
         d="M 3839.43,1175.24 H 609.82 l 309.762,359.44 H 3529.68 l 309.75,-359.44"
         style="fill:#e7e8e5;fill-opacity:1;fill-rule:nonzero;stroke:none"
         id="path146" />
      <path
         d="M 919.566,3833.32 H 609.82 V 1175.24 l 309.746,359.44 v 2298.64"
         style="fill:#d4d6d3;fill-opacity:1;fill-rule:nonzero;stroke:none"
         id="path148" />
      <path
         d="m 3529.69,3833.32 h 309.74 V 1175.24 l -309.74,359.44 v 2298.64"
         style="fill:#d4d6d3;fill-opacity:1;fill-rule:nonzero;stroke:none"
         id="path150" />
      <path
         d="M 3453,1610.84 H 996.254 V 3757.13 H 3453 V 1610.84 M 919.602,3833.32 V 1534.66 H 3529.74 V 3833.32 H 919.602"
         style="fill:#999b9b;fill-opacity:1;fill-rule:nonzero;stroke:none"
         id="path152" />
      <path
         d="m 2263.02,1610.87 h -76.71 v 2146.26 h 76.71 V 1610.87"
         style="fill:#999b9b;fill-opacity:1;fill-rule:nonzero;stroke:none"
         id="path154" />
      <path
         d="M 3969.36,4074.36 H 479.895 v 55.7 H 3969.36 v -55.7"
         style="fill:#e7e8e5;fill-opacity:1;fill-rule:nonzero;stroke:none"
         id="path156" />
      <path
         d="M 3969.36,4011.7 H 479.895 v 55.7 H 3969.36 v -55.7"
         style="fill:#e7e8e5;fill-opacity:1;fill-rule:nonzero;stroke:none"
         id="path158" />
      <path
         d="M 3969.36,3949.03 H 479.895 v 55.7 H 3969.36 v -55.7"
         style="fill:#e7e8e5;fill-opacity:1;fill-rule:nonzero;stroke:none"
         id="path160" />
      <path
         d="M 3969.36,3886.37 H 479.895 v 55.7 H 3969.36 v -55.7"
         style="fill:#e7e8e5;fill-opacity:1;fill-rule:nonzero;stroke:none"
         id="path162" />
      <path
         d="M 3969.36,3823.71 H 479.895 v 55.7 H 3969.36 v -55.7"
         style="fill:#e7e8e5;fill-opacity:1;fill-rule:nonzero;stroke:none"
         id="path164" />
      <path
         d="M 3969.36,3761.04 H 479.895 v 55.71 H 3969.36 v -55.71"
         style="fill:#e7e8e5;fill-opacity:1;fill-rule:nonzero;stroke:none"
         id="path166" />
      <path
         d="M 3969.36,3698.38 H 479.895 v 55.7 H 3969.36 v -55.7"
         style="fill:#e7e8e5;fill-opacity:1;fill-rule:nonzero;stroke:none"
         id="path168" />
      <path
         d="M 3969.36,3635.72 H 479.895 v 55.7 H 3969.36 v -55.7"
         style="fill:#e7e8e5;fill-opacity:1;fill-rule:nonzero;stroke:none"
         id="path170" />
      <path
         d="M 3969.36,3573.05 H 479.895 v 55.7 H 3969.36 v -55.7"
         style="fill:#e7e8e5;fill-opacity:1;fill-rule:nonzero;stroke:none"
         id="path172" />
      <path
         d="m 3700.55,2576.6 h -10 v 1583.88 h 10 V 2576.6"
         style="fill:#17282f;fill-opacity:1;fill-rule:nonzero;stroke:none"
         id="path174" />
      <path
         d="m 3713.33,2530.02 h -35.5 l 8.9,51 h 17.7 l 8.9,-51"
         style="fill:#17282f;fill-opacity:1;fill-rule:nonzero;stroke:none"
         id="path176" />
      <path
         d="m 3736.59,2003.16 h -10 v 2157.32 h 10 V 2003.16"
         style="fill:#17282f;fill-opacity:1;fill-rule:nonzero;stroke:none"
         id="path178" />
      <path
         d="m 3749.34,1965.67 h -35.49 l 8.89,50.99 h 17.71 l 8.89,-50.99"
         style="fill:#17282f;fill-opacity:1;fill-rule:nonzero;stroke:none"
         id="path180" />
      <path
         d="M 4031.43,4102.21 H 417.82 v 116.53 h 3613.61 v -116.53"
         style="fill:#d4d6d3;fill-opacity:1;fill-rule:nonzero;stroke:none"
         id="path182" />
      <path
         d="m 1853.26,2707.97 c 68.64,-94.76 474.26,-466.49 726.46,-409.15 85.64,19.47 4.15,380.64 -219.35,694.96 -6.61,9.32 -239.79,-89.76 -227.58,-151.74 1.31,-6.66 72.25,-163.63 77.74,-158.3 0,0 -90.8,54.67 -274.58,110.52 -86.91,26.4 -123.71,-29.66 -82.69,-86.29"
         style="fill:#f26162;fill-opacity:1;fill-rule:nonzero;stroke:none"
         id="path184" />
      <path
         d="m 2395.29,2942.56 c -11.84,16.4 -105.74,198.47 -180.39,246.5 -39.54,25.43 -156.1,83.08 -174.58,60.96 -16.87,-20.19 11.19,-43.84 11.19,-43.84 0,0 -52.35,24.94 -75.47,-3.39 -23.12,-28.34 26.29,-65.8 26.29,-65.8 0,0 -55.62,21.7 -76.66,-8.22 -21.04,-29.91 34.94,-59.25 34.94,-59.25 0,0 -49.93,22.21 -56.9,-9.74 -8.37,-38.41 88.31,-68.96 126.42,-104.38 8.66,-8.06 163.82,-175.59 163.82,-175.59 l 201.34,162.75"
         style="fill:#f26162;fill-opacity:1;fill-rule:nonzero;stroke:none"
         id="path186" />
      <path
         d="m 1960.65,3067.41 c 71.05,-22.63 98.22,-44.82 145.47,-100.99 0.92,-1.1 2.76,0.03 1.9,1.27 -41.26,59.21 -71.32,91.96 -146.45,103.22 -3.68,0.54 -4.3,-2.42 -0.92,-3.5"
         style="fill:#17282f;fill-opacity:1;fill-rule:nonzero;stroke:none"
         id="path188" />
      <path
         d="m 2002.09,3134.85 c 71.74,-29.95 101.41,-53.76 155.23,-108.95 l 1.46,1.28 c -48.26,58.56 -79.01,90.54 -154.61,111.05 -3.42,0.93 -5.36,-2.01 -2.08,-3.38"
         style="fill:#17282f;fill-opacity:1;fill-rule:nonzero;stroke:none"
         id="path190" />
      <path
         d="m 2054.03,3203.44 c 67.36,-34.01 101.03,-58.71 146.39,-118.99 1.08,-1.43 3.25,0 2.32,1.53 -40.29,65.97 -82.07,97.11 -147.45,119.4 -4.47,1.52 -5.5,0.2 -1.26,-1.94"
         style="fill:#17282f;fill-opacity:1;fill-rule:nonzero;stroke:none"
         id="path192" />
      <path
         d="m 2197.01,2719.73 c 0,0 -84.48,39.9 -117.72,65.62 -33.25,25.72 -121.87,167.15 -92.41,188.02 38.04,26.96 105.28,-44.62 133.64,-83.97 0,0 87.93,62.43 147.3,21.5 59.38,-40.92 -70.81,-191.17 -70.81,-191.17"
         style="fill:#f26162;fill-opacity:1;fill-rule:nonzero;stroke:none"
         id="path194" />
      <path
         d="m 1999.77,2977.36 c 52.41,-0.45 86.3,-54.51 116.65,-90.64 2.31,-2.74 5.34,-1.85 7.09,0.33 38.6,23.7 99.95,45.9 143.77,26.75 1.28,-0.55 2.26,1.19 1.05,1.93 -44.21,26.91 -106.27,10.02 -146.89,-18.66 -30.55,37.54 -66.92,90.27 -121.7,80.79 l 0.03,-0.5"
         style="fill:#17282f;fill-opacity:1;fill-rule:nonzero;stroke:none"
         id="path196" />
      <path
         d="m 2186.31,2719.73 317.28,142.29 c 0,0 204.73,-507.02 88.34,-569.18 -116.38,-62.16 -473.5,108.92 -700.55,361.28 -101.98,113.35 -57.65,174.97 67.06,140.14 124.7,-34.84 242.95,-102.45 242.95,-102.45 l -15.08,27.92"
         style="fill:#fabb1e;fill-opacity:1;fill-rule:nonzero;stroke:none"
         id="path198" />
      <path
         d="m 2252.72,2559.02 c -6.7,0 -12.1,5.4 -12.1,12 0,6.6 5.4,12 12.1,12 6.6,0 12,-5.4 12,-12 0,-6.6 -5.4,-12 -12,-12 z m 0,26.5 c -8,0 -14.6,-6.5 -14.6,-14.5 0,-8 6.6,-14.5 14.6,-14.5 8.01,0 14.5,6.5 14.5,14.5 0,8 -6.49,14.5 -14.5,14.5 z m 329.41,-66.1 c -6.7,0 -12.1,5.4 -12.1,12 0,6.7 5.4,12.1 12.1,12.1 6.6,0 12,-5.4 12,-12.1 0,-6.6 -5.4,-12 -12,-12 z m 0,26.6 c -8.1,0 -14.6,-6.5 -14.6,-14.6 0,-8 6.5,-14.5 14.6,-14.5 8,0 14.5,6.5 14.5,14.5 0,8.1 -6.5,14.6 -14.5,14.6 z m 38.49,-166.8 c 2.5,0 4.91,-0.8 6.81,-2.2 0.1,0.9 0.1,1.8 0.2,2.8 -2.1,1.2 -4.51,1.9 -7.01,1.9 -7.99,0 -14.49,-6.6 -14.49,-14.6 0,-8 6.5,-14.5 14.49,-14.5 1.6,0 3.21,0.3 4.71,0.8 l 0.4,2.8 c -1.6,-0.7 -3.3,-1.1 -5.11,-1.1 -6.59,0 -11.99,5.4 -11.99,12 0,6.7 5.4,12.1 11.99,12.1 z m -175.19,74.4 c -6.7,0 -12.1,5.4 -12.1,12 0,6.6 5.4,12 12.1,12 6.6,0 12,-5.4 12,-12 0,-6.6 -5.4,-12 -12,-12 z m 0,26.5 c -8,0 -14.6,-6.5 -14.6,-14.5 0,-8 6.6,-14.5 14.6,-14.5 8,0 14.5,6.5 14.5,14.5 0,8 -6.5,14.5 -14.5,14.5 z m -98.21,32.8 c -6.6,0 -12,5.4 -12,12.1 0,6.6 5.4,12 12,12 6.7,0 12.1,-5.4 12.1,-12 0,-6.7 -5.4,-12.1 -12.1,-12.1 z m 0,26.6 c -7.99,0 -14.5,-6.5 -14.5,-14.5 0,-8 6.51,-14.6 14.5,-14.6 8,0 14.6,6.6 14.6,14.6 0,8 -6.6,14.5 -14.6,14.5 z m -63.89,148.2 c -6.6,0 -12,5.4 -12,12 0,6.6 5.4,12 12,12 6.6,0 12,-5.4 12,-12 0,-6.6 -5.4,-12 -12,-12 z m 0,26.5 c -8,0 -14.5,-6.5 -14.5,-14.5 0,-8 6.5,-14.5 14.5,-14.5 8,0 14.5,6.5 14.5,14.5 0,8 -6.5,14.5 -14.5,14.5 z m -123.7,-72.2 c -6.6,0 -12,5.4 -12,12 0,6.6 5.4,12 12,12 6.6,0 12,-5.4 12,-12 0,-6.6 -5.4,-12 -12,-12 z m 0,26.5 c -8,0 -14.5,-6.5 -14.5,-14.5 0,-8 6.5,-14.5 14.5,-14.5 8,0 14.5,6.5 14.5,14.5 0,8 -6.5,14.5 -14.5,14.5 z m -41.8,-120 c -6.7,0 -12.1,5.4 -12.1,12 0,6.6 5.4,12 12.1,12 6.6,0 12,-5.4 12,-12 0,-6.6 -5.4,-12 -12,-12 z m 0,26.5 c -8,0 -14.6,-6.5 -14.6,-14.5 0,-8 6.6,-14.5 14.6,-14.5 8,0 14.5,6.5 14.5,14.5 0,8 -6.5,14.5 -14.5,14.5 z m 470.1,-282.3 c -5,0 -9.5,-2.6 -12.1,-6.5 1.8,0.5 3.49,1.1 5.19,1.7 l 0.31,0.1 c 1.39,1.1 2.99,1.8 4.8,2.1 h 0.1 c 1.7,0.7 3.3,1.4 4.79,2.3 -0.99,0.2 -1.99,0.3 -3.09,0.3 z m -46.91,118.7 c -6.7,0 -12.1,5.4 -12.1,12 0,6.7 5.4,12.1 12.1,12.1 6.61,0 12.01,-5.4 12.01,-12.1 0,-6.6 -5.4,-12 -12.01,-12 z m 0,26.6 c -7.99,0 -14.6,-6.5 -14.6,-14.6 0,-8 6.61,-14.5 14.6,-14.5 8.01,0 14.51,6.5 14.51,14.5 0,8.1 -6.5,14.6 -14.51,14.6 z m -231.49,-24.1 c -6.6,0 -12,5.4 -12,12 0,6.7 5.4,12.1 12,12.1 6.6,0 12,-5.4 12,-12.1 0,-6.6 -5.4,-12 -12,-12 z m 0,26.6 c -8,0 -14.5,-6.5 -14.5,-14.6 0,-8 6.5,-14.5 14.5,-14.5 8,0 14.5,6.5 14.5,14.5 0,8.1 -6.5,14.6 -14.5,14.6 z m -109,20.7 c -6.6,0 -12,5.3 -12,12 0,6.6 5.4,12 12,12 6.6,0 12,-5.4 12,-12 0,-6.7 -5.4,-12 -12,-12 z m 0,26.5 c -8,0 -14.5,-6.5 -14.5,-14.5 0,-8 6.5,-14.5 14.5,-14.5 8,0 14.5,6.5 14.5,14.5 0,8 -6.5,14.5 -14.5,14.5 z m -293.31,207.4 c -6.69,0 -11.99,5.4 -11.99,12 0,6.7 5.3,12 11.99,12 6.61,0 12.01,-5.3 12.01,-12 0,-6.6 -5.4,-12 -12.01,-12 z m 0,26.5 c -7.99,0 -14.49,-6.5 -14.49,-14.5 0,-8 6.5,-14.5 14.49,-14.5 8.01,0 14.51,6.5 14.51,14.5 0,8 -6.5,14.5 -14.51,14.5 z m 436.01,68.5 -0.2,-0.1 c -1.4,-1.2 -3.1,-2 -5,-2.3 h -0.1 l -5.1,-2.3 c 1,-0.3 1.89,-0.4 3,-0.4 5.4,0 10.19,3 12.6,7.4 z m 141.99,34.7 c -6.59,0 -11.99,5.4 -11.99,12.1 0,6.6 5.4,12 11.99,12 6.6,0 12,-5.4 12,-12 0,-6.7 -5.4,-12.1 -12,-12.1 z m 0,26.6 c -8,0 -14.49,-6.5 -14.49,-14.5 0,-8.1 6.49,-14.6 14.49,-14.6 8.01,0 14.5,6.5 14.5,14.6 0,8 -6.49,14.5 -14.5,14.5 z m 9.31,-539 c -6.7,0 -12.1,5.4 -12.1,12 0,6.7 5.4,12 12.1,12 6.6,0 12,-5.3 12,-12 0,-6.6 -5.4,-12 -12,-12 z m 0,26.5 c -8.11,0 -14.6,-6.5 -14.6,-14.5 0,-8 6.49,-14.5 14.6,-14.5 8,0 14.5,6.5 14.5,14.5 0,8 -6.5,14.5 -14.5,14.5 z m -14.6,224.1 c -6.6,0 -12,5.4 -12,12 0,6.7 5.4,12.1 12,12.1 6.7,0 12,-5.4 12,-12.1 0,-6.6 -5.3,-12 -12,-12 z m 0,26.6 c -8,0 -14.5,-6.6 -14.5,-14.6 0,-8 6.5,-14.5 14.5,-14.5 8,0 14.5,6.5 14.5,14.5 0,8 -6.5,14.6 -14.5,14.6 z m -49.1,132 c -6.6,0 -12,5.4 -12,12.1 0,6.6 5.4,12 12,12 6.7,0 12.1,-5.4 12.1,-12 0,-6.7 -5.4,-12.1 -12.1,-12.1 z m 0,26.6 c -8,0 -14.5,-6.5 -14.5,-14.5 0,-8 6.5,-14.6 14.5,-14.6 8.09,0 14.6,6.6 14.6,14.6 0,8 -6.51,14.5 -14.6,14.5 z m 103.8,-91.7 c -6.7,0 -12.1,5.4 -12.1,12 0,6.7 5.4,12.1 12.1,12.1 6.6,0 12,-5.4 12,-12.1 0,-6.6 -5.4,-12 -12,-12 z m 0,26.6 c -8.1,0 -14.6,-6.6 -14.6,-14.6 0,-8 6.5,-14.5 14.6,-14.5 8,0 14.5,6.5 14.5,14.5 0,8 -6.5,14.6 -14.5,14.6 z m -159.2,-65.8 c -6.6,0 -12,5.4 -12,12 0,6.6 5.4,12 12,12 6.6,0 12,-5.4 12,-12 0,-6.6 -5.4,-12 -12,-12 z m 0,26.5 c -8,0 -14.5,-6.5 -14.5,-14.5 0,-8 6.5,-14.5 14.5,-14.5 8,0 14.5,6.5 14.5,14.5 0,8 -6.5,14.5 -14.5,14.5 z m -292,105.6 c -1.3,-5.2 -6.01,-9.1 -11.6,-9.1 -6.6,0 -12,5.4 -12,12 0,2.3 0.6,4.4 1.8,6.2 l -2.3,0.9 c -1.3,-2.1 -2,-4.5 -2,-7.1 0,-8 6.5,-14.5 14.5,-14.5 6.6,0 12.3,4.5 13.9,10.6 z m -60.6,-100.3 c -6.7,0 -12.1,5.4 -12.1,12 0,6.6 5.4,12 12.1,12 6.6,0 12,-5.4 12,-12 0,-6.6 -5.4,-12 -12,-12 z m 0,26.5 c -8.11,0 -14.6,-6.5 -14.6,-14.5 0,-8 6.49,-14.5 14.6,-14.5 8,0 14.5,6.5 14.5,14.5 0,8 -6.5,14.5 -14.5,14.5 z m 379.49,-322.1 c -6.59,0 -11.99,5.4 -11.99,12 0,6.6 5.4,12 11.99,12 6.71,0 12.11,-5.4 12.11,-12 0,-6.6 -5.4,-12 -12.11,-12 z m 0,26.5 c -8,0 -14.49,-6.5 -14.49,-14.5 0,-8 6.49,-14.5 14.49,-14.5 8.01,0 14.61,6.5 14.61,14.5 0,8 -6.6,14.5 -14.61,14.5"
         style="fill:#ffffff;fill-opacity:1;fill-rule:nonzero;stroke:none"
         id="path200" />
      <path
         d="m 2201.89,2691.83 c 38.65,-79.29 78.87,-157.85 121.19,-235.23 11.8,-21.58 23.39,-43.26 35.1,-64.87 l -1.31,-0.72 c -25.19,36.29 -48.19,73.94 -69.47,112.65 -21.04,38.29 -41.48,77.52 -58.67,117.71 -9.88,23.11 -19.41,46.37 -28.38,69.86 -0.39,1.01 1.08,1.53 1.54,0.6"
         style="fill:#17282f;fill-opacity:1;fill-rule:nonzero;stroke:none"
         id="path202" />
      <path
         d="m 2509.42,2782.77 c -46.1,-17.5 -91.55,-37.22 -136.52,-57.83 -22.08,-10.12 -44.19,-20.25 -65.93,-31.21 -22.63,-11.41 -44.68,-24.18 -67.34,-35.42 -1.03,-0.51 -0.46,-2.16 0.59,-1.67 22.85,10.48 46.49,19.29 69.56,29.25 22.28,9.61 44.29,19.88 66.38,29.96 45.05,20.58 90.09,41.36 134.49,63.49 2.1,1.05 0.99,4.27 -1.23,3.43"
         style="fill:#17282f;fill-opacity:1;fill-rule:nonzero;stroke:none"
         id="path204" />
      <path
         d="m 2103.13,2465.62 c -75.3,54.3 -148.6,118.3 -211.8,188.5 -89.3,99.3 -66.3,159 24.7,148.7 l 187.1,-337.2"
         style="fill:#17282f;fill-opacity:1;fill-rule:nonzero;stroke:none"
         id="path206" />
      <path
         d="m 3451.89,1421.39 c -25.09,-9.09 -768.41,-23.74 -796.38,-6.67 -3.28,1.73 -15.39,247.65 -15.39,247.65 0.9,3.49 -11.53,27.2 -30.47,60.12 -53,92.49 -156.6,258.13 -156.6,258.13 l 441.14,133.4 181.24,-363.02 46.18,-92.63 c 0,0 101.32,-39.61 189.72,-79.11 l 0.24,-0.23 c 54.45,-24.22 101.81,-46.43 112.86,-54.72 28.43,-21.84 52.55,-94.05 27.46,-102.92"
         style="fill:#f26162;fill-opacity:1;fill-rule:nonzero;stroke:none"
         id="path208" />
      <path
         d="m 3451.89,1421.39 c -25.09,-9.09 -768.41,-23.74 -796.38,-6.67 -3.28,1.73 -15.39,247.65 -15.39,247.65 0.9,3.49 -11.53,27.2 -30.47,60.12 l 465.78,28.51 46.18,-92.63 c 0,0 101.32,-39.61 189.72,-79.11 l 0.24,-0.23 c 54.45,-24.22 101.81,-46.43 112.86,-54.72 28.43,-21.84 52.55,-94.05 27.46,-102.92"
         style="fill:#ffffff;fill-opacity:1;fill-rule:nonzero;stroke:none"
         id="path210" />
      <path
         d="m 3455.01,1418.62 c -25.85,-9.15 -770.13,-21.92 -798.83,-4.47 -10.92,6.57 -24.04,121.14 -16.03,248.21 l 479.86,7.65 c 0,0 277.89,-122.83 307.3,-145.34 29.26,-22.53 53.55,-96.91 27.7,-106.05"
         style="fill:#fabb1e;fill-opacity:1;fill-rule:nonzero;stroke:none"
         id="path212" />
      <path
         d="m 2637.98,1610.84 h -0.04 c 0.36,16.77 1.06,34.03 2.17,51.52 h 0.02 c 0,-0.03 0,-0.12 0.01,-0.26 -1.1,-17.4 -1.79,-34.57 -2.16,-51.26"
         style="fill:#e0e1de;fill-opacity:1;fill-rule:nonzero;stroke:none"
         id="path214" />
      <path
         d="m 2673.75,1410.76 c -9.4,0.96 -15.46,2.07 -17.6,3.34 -6.98,4.22 -14.89,52.78 -17.57,120.56 h 0.04 c 2.66,-67.75 10.56,-116.3 17.56,-120.51 2.13,-1.29 8.17,-2.41 17.57,-3.39"
         style="fill:#cccdcb;fill-opacity:1;fill-rule:nonzero;stroke:none"
         id="path216" />
      <path
         d="m 2638.62,1534.66 h -0.04 c -0.92,23.45 -1.22,49.18 -0.64,76.18 h 0.04 c -0.58,-27 -0.28,-52.73 0.64,-76.18"
         style="fill:#888b8b;fill-opacity:1;fill-rule:nonzero;stroke:none"
         id="path218" />
      <path
         d="m 2640.14,1662.1 c -0.01,0.14 -0.01,0.23 -0.01,0.26 l 11.71,0.24 0.05,-0.05 -11.74,-0.19 c 0,-0.09 -0.01,-0.18 -0.01,-0.26"
         style="fill:#e0e1de;fill-opacity:1;fill-rule:nonzero;stroke:none"
         id="path220" />
      <path
         d="m 2850.91,1405.72 c -80.99,0.37 -146.65,1.93 -177.16,5.04 -9.4,0.98 -15.44,2.1 -17.57,3.39 -7,4.21 -14.9,52.76 -17.56,120.51 -0.92,23.45 -1.22,49.18 -0.64,76.18 0.37,16.69 1.06,33.86 2.16,51.26 0,0.08 0.01,0.17 0.01,0.26 l 11.74,0.19 199.02,-256.83"
         style="fill:#f4ac12;fill-opacity:1;fill-rule:nonzero;stroke:none"
         id="path222" />
      <path
         d="m 3443.83,1448.21 c -124.82,0.92 -628.33,-7.13 -751.79,-15.71 -1.01,-0.06 -0.99,-0.75 0.02,-0.78 123.69,-3.62 627.13,8.52 751.81,14.44 2.62,0.12 2.59,2.03 -0.04,2.05"
         style="fill:#17282f;fill-opacity:1;fill-rule:nonzero;stroke:none"
         id="path224" />
      <path
         d="m 3378.98,1550.62 c -29.61,0.69 -58.29,-13.85 -74.12,-31.75 -15.2,-17.2 -28.06,-41.23 -26.74,-67.09 l 1.52,0.03 c 6.28,48.95 49.96,92.6 99.37,97.25 1,0.09 0.99,1.53 -0.03,1.56"
         style="fill:#17282f;fill-opacity:1;fill-rule:nonzero;stroke:none"
         id="path226" />
      <path
         d="m 3159.35,1658.18 c -49.95,-0.17 -107.54,-18.79 -137.87,-60.16 -1.17,-1.6 1.13,-3.25 2.59,-2.46 44.75,24.04 87.36,42.12 136.25,56.49 3.45,1 2.62,6.14 -0.97,6.13"
         style="fill:#17282f;fill-opacity:1;fill-rule:nonzero;stroke:none"
         id="path228" />
      <path
         d="m 3198.16,1643.81 c -49.95,-0.16 -107.54,-18.79 -137.87,-60.15 -1.18,-1.61 1.12,-3.26 2.59,-2.46 44.75,24.04 87.36,42.11 136.25,56.47 3.45,1.02 2.61,6.15 -0.97,6.14"
         style="fill:#17282f;fill-opacity:1;fill-rule:nonzero;stroke:none"
         id="path230" />
      <path
         d="m 3236.97,1629.44 c -49.95,-0.17 -107.54,-18.78 -137.87,-60.16 -1.18,-1.6 1.12,-3.24 2.59,-2.46 44.74,24.05 87.35,42.13 136.25,56.49 3.44,1.01 2.61,6.14 -0.97,6.13"
         style="fill:#17282f;fill-opacity:1;fill-rule:nonzero;stroke:none"
         id="path232" />
      <path
         d="m 3275.78,1615.07 c -49.95,-0.16 -107.54,-18.78 -137.87,-60.15 -1.17,-1.61 1.11,-3.26 2.59,-2.46 44.74,24.04 87.36,42.11 136.25,56.48 3.44,1.02 2.6,6.14 -0.97,6.13"
         style="fill:#17282f;fill-opacity:1;fill-rule:nonzero;stroke:none"
         id="path234" />
      <path
         d="m 2721.79,1551.55 c -56.02,-1.13 -54.38,-88.2 1.74,-87.06 56.03,1.12 54.38,88.19 -1.74,87.06"
         style="fill:#17282f;fill-opacity:1;fill-rule:nonzero;stroke:none"
         id="path236" />
      <path
         d="m 3151.59,1685.17 c -16.97,-12.82 -34.48,-24.72 -50.98,-38.16 8.49,25.04 15.86,50.31 26.87,74.48 5.26,11.52 10.88,23.27 17.66,33.99 10.57,16.69 58.87,59.27 64.77,5.02 3.25,-29.91 -38.09,-60.06 -58.32,-75.33 z m 59.45,107.18 c -25.63,20.53 -57.14,-0.5 -72.34,-22.53 -24.64,-35.68 -41.14,-85.38 -43.19,-128.48 -0.05,-1.05 0.77,-1.47 1.58,-1.39 1.13,-3.57 5.41,-6.5 9.05,-3.88 35.14,25.19 75.82,47.79 102.17,83.02 15.38,20.56 26.97,53.85 2.73,73.26"
         style="fill:#17282f;fill-opacity:1;fill-rule:nonzero;stroke:none"
         id="path238" />
      <path
         d="m 2941.12,1648.61 c -34.52,42.25 29.71,46.81 49.01,42.64 12.41,-2.68 24.71,-6.92 36.62,-11.26 24.95,-9.11 48.12,-21.59 71.93,-33.09 -21.15,-2.34 -41.91,-6.46 -62.96,-9.57 -25.09,-3.7 -75.57,-12.02 -94.6,11.28 z m 30.64,-27.9 c 43.59,-5.94 88.23,7.2 130.84,14.57 4.42,0.76 5.33,5.87 3.58,9.17 l 0.12,2.11 c -32.16,28.77 -79.15,51.87 -121.87,59.34 -26.37,4.61 -63.45,-3.08 -66.8,-35.75 -3.17,-30.9 28.68,-45.99 54.13,-49.44"
         style="fill:#17282f;fill-opacity:1;fill-rule:nonzero;stroke:none"
         id="path240" />
      <path
         d="m 2576.1,1727.29 523.36,79.32 c 0,0 -251.57,501.39 -407.3,773.48 -86.59,151.28 -323.45,158.68 -438.66,-22.57 -153.91,-242.15 -273.33,-469.04 -341.77,-594.84 l -118.73,-10.16 25.62,-193.95 394.54,-88.36 c 151.13,-18.09 257.2,250.97 259.67,246.42 19.12,-35.34 103.27,-189.34 103.27,-189.34"
         style="fill:#273e47;fill-opacity:1;fill-rule:nonzero;stroke:none"
         id="path242" />
      <path
         d="m 2475.6,1915.44 c -14.89,30.48 -26.49,62.83 -39.72,94.07 -12.79,30.21 -25.68,60.4 -38.37,90.65 -25.67,61.14 -52.27,121.99 -77.16,183.44 -13.98,34.5 -26.82,69.43 -39.87,104.29 l -1.34,-0.41 c 10.1,-32.93 20.61,-65.75 31.64,-98.39 -2.93,5.63 -5.84,11.27 -8.91,16.74 -8.4,15.03 -17.07,29.87 -25.78,44.72 l -0.88,-0.54 c 8.03,-14.91 16.07,-29.79 24.4,-44.53 4.15,-7.33 8.69,-14.57 13.07,-21.9 31.05,-91.39 66.23,-181.32 108.55,-268.18 16.64,-34.16 36.12,-66.85 52.78,-100.94 0.53,-1.09 2.12,-0.1 1.59,0.98"
         style="fill:#17282f;fill-opacity:1;fill-rule:nonzero;stroke:none"
         id="path244" />
      <path
         d="m 2587.79,1820.33 c -25.22,38.93 -85.32,156.78 -106.84,197.53 -43.54,82.41 -83.38,166.5 -121.04,251.73 -21.29,48.15 -41.19,96.75 -60.91,145.56 l -0.54,-0.17 c 29.64,-87.92 64.97,-174.05 103.29,-258.53 38.37,-84.59 162.16,-312.46 184.45,-337.11 0.81,-0.89 2.26,-0.02 1.59,0.99"
         style="fill:#17282f;fill-opacity:1;fill-rule:nonzero;stroke:none"
         id="path246" />
      <path
         d="m 2262.9,2350.06 c -45.1,-80.53 -91.19,-160.5 -136.48,-240.92 -22.89,-40.65 -45.76,-81.29 -68.41,-122.07 -10.65,-19.19 -21,-38.61 -32.05,-57.56 -10.46,-17.94 -22.94,-32.8 -41.36,-42.91 -20.27,-11.14 -43.59,-16.46 -65.62,-22.9 -25.46,-7.46 -50.75,-15.46 -76.32,-22.48 -1.16,-0.33 -0.63,-2.1 0.54,-1.8 22.8,6.1 45.82,11.35 68.74,17 20.81,5.13 42.2,9.46 62.37,16.83 18.27,6.66 34.08,16.58 46.26,31.93 13.06,16.46 22.35,35.74 32.38,54.08 45.25,82.71 90.02,165.69 134.48,248.82 25.28,47.26 50.32,94.64 75.88,141.75 l -0.41,0.23"
         style="fill:#17282f;fill-opacity:1;fill-rule:nonzero;stroke:none"
         id="path248" />
      <path
         d="m 2564.21,1800.74 c 31.35,5.7 63.47,8.42 95.09,12.49 31.7,4.08 63.41,8.17 95.11,12.31 63.24,8.26 278.53,42.55 294.78,47.94 1.02,0.34 0.67,2.01 -0.35,2.05 -15.41,0.48 -156.4,-18.29 -188.02,-22.95 -63.23,-9.3 -126.06,-20.52 -189.07,-31.15 -18,-3.04 -35.92,-6.45 -53.9,-9.65 -17.93,-3.17 -35.88,-7.04 -53.95,-9.35 -1.09,-0.15 -0.79,-1.9 0.31,-1.69"
         style="fill:#17282f;fill-opacity:1;fill-rule:nonzero;stroke:none"
         id="path250" />
      <path
         d="m 2878.03,1257.25 c -8.37,25.34 -457.04,618.14 -487.67,629.56 -3.52,1.5 -204.06,-141.23 -204.06,-141.23 -8.28,-11.03 -389.5,69.52 -389.5,69.52 l -3.8,-459.88 694.45,14.76 c 0,0 93.8,-55.14 179.59,-100.06 l 0.3,-0.05 c 52.79,-27.82 99.53,-51.27 112.86,-54.75 34.74,-8.9 106.36,16.93 97.83,42.13"
         style="fill:#f26162;fill-opacity:1;fill-rule:nonzero;stroke:none"
         id="path252" />
      <path
         d="m 2780.21,1215.13 c -13.39,3.43 -60.07,26.89 -112.84,54.76 h -0.33 c -85.74,44.92 -179.56,100.12 -179.56,100.12 l -154.56,-3.32 -241.96,390.43 c 53.11,-9.4 92.71,-15.05 95.37,-11.5 0,0 200.47,142.71 204.01,141.17 30.64,-11.4 479.27,-604.18 487.68,-629.51 8.51,-25.22 -63.06,-51.11 -97.81,-42.15"
         style="fill:#ffffff;fill-opacity:1;fill-rule:nonzero;stroke:none"
         id="path254" />
      <path
         d="m 2882.13,1256.47 c -8.82,25.97 -459.5,618.42 -490.97,630.16 -11.91,4.51 -110.02,-56.09 -204.86,-141.05 l 291.01,-381.61 c 0,0 268.49,-142.23 304.38,-151.4 35.8,-9.03 109.26,17.93 100.44,43.9"
         style="fill:#fabb1e;fill-opacity:1;fill-rule:nonzero;stroke:none"
         id="path256" />
      <path
         d="m 2851.96,1246.94 c -77.99,97.46 -383.33,497.9 -453.02,600.16 l 0.63,0.48 c 79.4,-94.91 381.5,-497.82 454.02,-599.41 1.54,-2.14 0.02,-3.29 -1.63,-1.23"
         style="fill:#17282f;fill-opacity:1;fill-rule:nonzero;stroke:none"
         id="path258" />
      <path
         d="m 2731.39,1234.48 c -18.87,22.82 -25.2,54.34 -20.94,77.86 4.09,22.59 15.01,47.56 36.14,62.53 l 0.91,-1.2 c -34.55,-35.25 -41.8,-96.57 -14.87,-138.26 l -1.24,-0.93"
         style="fill:#17282f;fill-opacity:1;fill-rule:nonzero;stroke:none"
         id="path260" />
      <path
         d="m 2510.96,1340.39 c -30.79,39.33 -51.81,96.09 -38.09,145.52 0.54,1.92 3.24,1.14 3.53,-0.51 8.82,-50.02 21,-94.68 39.98,-141.98 1.34,-3.33 -3.21,-5.85 -5.42,-3.03"
         style="fill:#17282f;fill-opacity:1;fill-rule:nonzero;stroke:none"
         id="path262" />
      <path
         d="m 2546.28,1318.8 c -30.79,39.34 -51.82,96.09 -38.1,145.53 0.53,1.91 3.24,1.12 3.53,-0.52 8.82,-50.02 20.99,-94.68 39.98,-141.97 1.34,-3.33 -3.21,-5.85 -5.41,-3.04"
         style="fill:#17282f;fill-opacity:1;fill-rule:nonzero;stroke:none"
         id="path264" />
      <path
         d="m 2581.58,1297.22 c -30.79,39.33 -51.82,96.09 -38.1,145.52 0.53,1.91 3.25,1.13 3.54,-0.52 8.81,-50.02 21,-94.68 39.98,-141.96 1.33,-3.33 -3.21,-5.86 -5.42,-3.04"
         style="fill:#17282f;fill-opacity:1;fill-rule:nonzero;stroke:none"
         id="path266" />
      <path
         d="m 2616.88,1275.63 c -30.78,39.34 -51.8,96.09 -38.09,145.53 0.53,1.91 3.25,1.13 3.53,-0.52 8.82,-50.02 21,-94.69 39.98,-141.97 1.34,-3.33 -3.21,-5.85 -5.42,-3.04"
         style="fill:#17282f;fill-opacity:1;fill-rule:nonzero;stroke:none"
         id="path268" />
      <path
         d="m 2323.86,1750.05 c -33.79,44.7 35.61,97.3 69.46,52.53 33.8,-44.7 -35.61,-97.3 -69.46,-52.53"
         style="fill:#17282f;fill-opacity:1;fill-rule:nonzero;stroke:none"
         id="path270" />
      <path
         d="m 2461.89,1237.35 c -46.25,-28.95 -42.7,35.34 -36.15,53.97 4.22,11.97 9.97,23.65 15.77,34.91 12.17,23.61 27.46,45.04 41.87,67.21 -0.34,-21.28 1.14,-42.39 1.58,-63.66 0.53,-25.34 2.44,-76.47 -23.07,-92.43 z m 31.54,26.89 c 11.35,42.5 3.91,88.44 1.96,131.63 -0.2,4.48 -5.15,6.03 -8.64,4.71 l -2.08,0.37 c -32.57,-28.28 -61.4,-72 -74.17,-113.44 -7.89,-25.58 -4.92,-63.34 27.08,-70.77 30.25,-7.02 49.22,22.68 55.85,47.5"
         style="fill:#17282f;fill-opacity:1;fill-rule:nonzero;stroke:none"
         id="path272" />
      <path
         d="m 2450.81,1450.39 c 10.58,-18.45 20.19,-37.3 31.45,-55.37 -23.77,11.58 -47.92,22.06 -70.51,36.02 -10.78,6.66 -21.72,13.7 -31.51,21.79 -15.22,12.57 -51.4,65.84 3.16,64.88 30.07,-0.53 54.79,-45.32 67.41,-67.32 z m -98.88,72.44 c -23.57,-22.85 -6.67,-56.74 13.28,-74.6 32.3,-28.92 79.54,-51.53 122.03,-58.98 1.06,-0.17 1.57,0.58 1.6,1.4 3.67,0.67 7.12,4.55 4.98,8.49 -20.6,38.02 -37.9,81.22 -69.54,111.78 -18.48,17.84 -50.03,33.53 -72.35,11.91"
         style="fill:#17282f;fill-opacity:1;fill-rule:nonzero;stroke:none"
         id="path274" />
      <path
         d="m 1996.09,1921.37 c 0,0 -672.42,133.6 -888.89,89.7 C 805.285,1949.84 749.844,1592.86 973.734,1459.84 1257.39,1291.29 2311.45,1323.93 2311.45,1323.93 l -272.88,462.5 c 0,0 -331.26,88.35 -711.92,75.54 l 672.76,-116.24 -3.32,175.64"
         style="fill:#273e47;fill-opacity:1;fill-rule:nonzero;stroke:none"
         id="path276" />
      <path
         d="m 2056.75,1756.6 -0.58,2.36 -0.47,1.92 c -0.37,1.51 -0.77,3 -1.19,4.49 -0.87,3.1 -1.99,6.05 -3.17,9.05 -1.18,2.99 -2.46,5.9 -3.83,8.81 -1.42,2.99 -3.32,5.41 -5.11,8.16 l -0.73,0.52 -0.49,0.33 -0.67,0.28 -0.69,0.29 c -46.16,8.59 -359.83,53.46 -406.47,58.79 -47.02,5.36 -241.53,25.51 -335.93,23.88 -8.84,-0.14 -17.68,-0.5 -26.52,-0.81 -1.87,0.63 -3.88,0.96 -5.81,1.43 -4.54,1.09 -9.04,2.21 -13.62,3.09 -8.51,1.63 -17.1,2.88 -25.67,4.19 -17.86,2.74 -35.78,4.62 -53.55,7.95 -1.08,0.21 -1.5,-1.42 -0.42,-1.67 17.87,-3.96 35.43,-9.13 53.31,-13.03 5.16,-1.13 10.32,-2.24 15.49,-3.28 -34.62,-1.81 -69.18,-4.49 -103.74,-7.61 -1.08,-0.1 -1.12,-1.79 0,-1.72 47.01,2.76 94.38,3.1 141.46,2.31 46.77,-0.79 240.52,-18.38 334.59,-28.22 52.78,-5.53 372.6,-52.2 425.62,-54.42 l 0.65,0.1 c 0.43,-1.21 0.87,-2.43 1.47,-3.62 1.44,-2.88 2.91,-5.72 4.48,-8.54 1.52,-2.72 3.01,-5.4 4.73,-7.98 0.86,-1.29 1.72,-2.58 2.6,-3.85 l 1.32,-1.91 1.38,-2 c 0.37,-1.18 2.2,-0.39 1.56,0.71"
         style="fill:#17282f;fill-opacity:1;fill-rule:nonzero;stroke:none"
         id="path278" />
      <path
         d="m 2213.03,1352.05 c -16.9,27.03 -31.3,55.86 -46.76,83.74 -15.51,27.95 -31.04,55.9 -46.6,83.82 -31.05,55.72 -142.48,243.07 -153.5,256.19 -0.69,0.83 -2.12,-0.12 -1.77,-1.09 5.25,-14.5 74.8,-138.55 90.81,-166.22 32.03,-55.31 65.67,-109.54 98.84,-164.17 9.47,-15.59 19.27,-31 28.88,-46.51 9.58,-15.48 19.81,-30.74 28.64,-46.66 0.53,-0.97 2.05,-0.04 1.46,0.9"
         style="fill:#17282f;fill-opacity:1;fill-rule:nonzero;stroke:none"
         id="path280" />
      <path
         d="m 1963.01,1729.17 c -27.85,6.68 -56.38,11.04 -84.52,16.37 -28.21,5.33 -56.43,10.64 -84.65,15.88 -56.47,10.48 -360.57,68.03 -614.93,90.76 -1.36,0.13 -1.32,-2.08 0.06,-2.15 114.85,-5.15 479.75,-71.01 591.95,-89.93 31.68,-5.34 63.34,-10.78 94.99,-16.26 32.13,-5.56 64.29,-12.43 96.64,-16.54 1.2,-0.15 1.71,1.58 0.46,1.87"
         style="fill:#17282f;fill-opacity:1;fill-rule:nonzero;stroke:none"
         id="path282" />
      <path
         d="m 2053.03,1927.49 c -12.53,-10.3 -717.11,61.93 -720.09,66.81 -8.09,13.3 138.69,447.74 233.53,608.9 121.61,206.64 176.96,219.65 210.12,228.69 42.41,11.57 111.74,2.34 143.58,-20.58 17.76,-12.79 65.38,-117.01 81.58,-199.39 32.54,-165.43 62.2,-675.36 51.28,-684.43"
         style="fill:#fabb1e;fill-opacity:1;fill-rule:nonzero;stroke:none"
         id="path284" />
      <path
         d="m 1971.63,1945.82 c -6.71,0 -12,5.41 -12,12.01 0,6.59 5.29,11.99 12,11.99 6.6,0 12,-5.4 12,-11.99 0,-6.6 -5.4,-12.01 -12,-12.01 z m 0,26.5 c -8,0 -14.5,-6.5 -14.5,-14.49 0,-8.01 6.5,-14.51 14.5,-14.51 8,0 14.5,6.5 14.5,14.51 0,7.99 -6.5,14.49 -14.5,14.49 z m 19.1,90.7 c -6.7,0 -12.1,5.4 -12.1,12 0,6.7 5.4,12.1 12.1,12.1 6.6,0 12,-5.4 12,-12.1 0,-6.6 -5.4,-12 -12,-12 z m 0,26.6 c -8,0 -14.6,-6.6 -14.6,-14.6 0,-7.99 6.6,-14.5 14.6,-14.5 8,0 14.5,6.51 14.5,14.5 0,8 -6.5,14.6 -14.5,14.6 z m -123,26.2 c -6.6,0 -12,5.41 -12,12.01 0,6.7 5.4,12.1 12,12.1 6.6,0 11.99,-5.4 11.99,-12.1 0,-6.6 -5.39,-12.01 -11.99,-12.01 z m 0,26.61 c -8.01,0 -14.5,-6.61 -14.5,-14.6 0,-8.01 6.49,-14.51 14.5,-14.51 8,0 14.49,6.5 14.49,14.51 0,7.99 -6.49,14.6 -14.49,14.6 z m 101.9,209.79 c -6.6,0 -12,5.4 -12,12.1 0,6.6 5.4,12 12,12 6.7,0 12.1,-5.4 12.1,-12 0,-6.7 -5.4,-12.1 -12.1,-12.1 z m 0,26.6 c -8,0 -14.5,-6.5 -14.5,-14.5 0,-8.1 6.5,-14.6 14.5,-14.6 8,0 14.6,6.5 14.6,14.6 0,8 -6.6,14.5 -14.6,14.5 z m -363.7,-361.2 c -6.7,0 -12.1,5.4 -12.1,12 0,6.7 5.4,12.1 12.1,12.1 6.6,0 12,-5.4 12,-12.1 0,-6.6 -5.4,-12 -12,-12 z m 0,26.6 c -8.1,0 -14.6,-6.6 -14.6,-14.6 0,-7.99 6.5,-14.5 14.6,-14.5 8,0 14.5,6.51 14.5,14.5 0,8 -6.5,14.6 -14.5,14.6 z m -83,244.6 c -6.6,0 -12,5.4 -12,12 0,6.6 5.4,12 12,12 6.6,0 11.99,-5.4 11.99,-12 0,-6.6 -5.39,-12 -11.99,-12 z m 0,26.5 c -8.01,0 -14.5,-6.5 -14.5,-14.5 0,-8 6.49,-14.5 14.5,-14.5 8,0 14.49,6.5 14.49,14.5 0,8 -6.49,14.5 -14.49,14.5 z m 110.9,289.9 c -6.61,0 -12,5.4 -12,12.1 0,6.6 5.39,12 12,12 6.7,0 12.1,-5.4 12.1,-12 0,-6.7 -5.4,-12.1 -12.1,-12.1 z m 0,26.6 c -8,0 -14.5,-6.5 -14.5,-14.5 0,-8 6.5,-14.6 14.5,-14.6 8,0 14.6,6.6 14.6,14.6 0,8 -6.6,14.5 -14.6,14.5 z m 23.3,-292.9 c -6.6,0 -12,5.4 -12,12.1 0,6.6 5.4,12 12,12 6.7,0 12.1,-5.4 12.1,-12 0,-6.7 -5.4,-12.1 -12.1,-12.1 z m 0,26.6 c -8,0 -14.5,-6.5 -14.5,-14.5 0,-8 6.5,-14.6 14.5,-14.6 8.1,0 14.6,6.6 14.6,14.6 0,8 -6.5,14.5 -14.6,14.5 z m 108.3,270.3 c -6.6,0 -12,5.4 -12,12 0,6.7 5.4,12.1 12,12.1 6.6,0 11.99,-5.4 11.99,-12.1 0,-6.6 -5.39,-12 -11.99,-12 z m 0,26.6 c -8.01,0 -14.5,-6.6 -14.5,-14.6 0,-8 6.49,-14.5 14.5,-14.5 8,0 14.49,6.5 14.49,14.5 0,8 -6.49,14.6 -14.49,14.6 z m 18.7,104.4 c -6.6,0 -12,5.4 -12,12 0,6.7 5.4,12.1 12,12.1 6.6,0 12,-5.4 12,-12.1 0,-6.6 -5.4,-12 -12,-12 z m 0,26.6 c -8,0 -14.5,-6.5 -14.5,-14.6 0,-8 6.5,-14.5 14.5,-14.5 8,0 14.5,6.5 14.5,14.5 0,8.1 -6.5,14.6 -14.5,14.6 z m 96.9,-210.4 c -6.7,0 -12.1,5.4 -12.1,12.1 0,6.6 5.4,12 12.1,12 6.6,0 12,-5.4 12,-12 0,-6.7 -5.4,-12.1 -12,-12.1 z m 0,26.6 c -8,0 -14.6,-6.5 -14.6,-14.5 0,-8.1 6.6,-14.6 14.6,-14.6 8,0 14.5,6.5 14.5,14.6 0,8 -6.5,14.5 -14.5,14.5 z m -26.6,-618.6 c -6.6,0 -12.01,5.4 -12.01,12.1 0,6.6 5.41,12 12.01,12 6.6,0 12,-5.4 12,-12 0,-6.7 -5.4,-12.1 -12,-12.1 z m 0,26.6 c -8,0 -14.51,-6.5 -14.51,-14.5 0,-8 6.51,-14.6 14.51,-14.6 7.99,0 14.5,6.6 14.5,14.6 0,8 -6.51,14.5 -14.5,14.5 z m -131.6,76.2 c -6.6,0 -12,5.4 -12,12 0,6.61 5.4,12.01 12,12.01 6.7,0 12,-5.4 12,-12.01 0,-6.6 -5.3,-12 -12,-12 z m 0,26.51 c -8,0 -14.5,-6.51 -14.5,-14.51 0,-7.99 6.5,-14.5 14.5,-14.5 8,0 14.5,6.51 14.5,14.5 0,8 -6.5,14.51 -14.5,14.51 z m 144.9,148.29 c -6.6,0 -12,5.4 -12,12.1 0,6.6 5.4,12 12,12 6.6,0 11.99,-5.4 11.99,-12 0,-6.7 -5.39,-12.1 -11.99,-12.1 z m 0,26.6 c -8.01,0 -14.5,-6.5 -14.5,-14.5 0,-8.1 6.49,-14.6 14.5,-14.6 8,0 14.49,6.5 14.49,14.6 0,8 -6.49,14.5 -14.49,14.5 z m 18.1,166 c -6.6,0 -12,5.3 -12,12 0,6.6 5.4,12 12,12 6.59,0 12,-5.4 12,-12 0,-6.7 -5.41,-12 -12,-12 z m 0,26.5 c -8,0 -14.5,-6.5 -14.5,-14.5 0,-8 6.5,-14.5 14.5,-14.5 8,0 14.5,6.5 14.5,14.5 0,8 -6.5,14.5 -14.5,14.5 z m 97.1,-277.6 c -6.6,0 -12,5.4 -12,12 0,6.6 5.4,12 12,12 6.7,0 11.99,-5.4 11.99,-12 0,-6.6 -5.29,-12 -11.99,-12 z m 0,26.5 c -8.01,0 -14.5,-6.5 -14.5,-14.5 0,-8 6.49,-14.5 14.5,-14.5 8,0 14.49,6.5 14.49,14.5 0,8 -6.49,14.5 -14.49,14.5 z m -204.2,128.9 c -6.7,0 -12.1,5.4 -12.1,12 0,6.7 5.4,12.1 12.1,12.1 6.6,0 12,-5.4 12,-12.1 0,-6.6 -5.4,-12 -12,-12 z m 0,26.6 c -8,0 -14.6,-6.6 -14.6,-14.6 0,-8 6.6,-14.5 14.6,-14.5 8,0 14.5,6.5 14.5,14.5 0,8 -6.5,14.6 -14.5,14.6 z m -293,42.7 -0.9,-2.4 c 2.5,-2.2 4,-5.4 4,-9 0,-6.6 -5.4,-12 -12,-12 l -0.7,0.1 -1,-2.4 1.7,-0.2 c 8,0 14.5,6.5 14.5,14.5 0,4.7 -2.2,8.9 -5.6,11.4 z m -51.2,-224.7 c -6.6,0 -12,5.4 -12,12 0,6.6 5.4,12 12,12 6.6,0 12,-5.4 12,-12 0,-6.6 -5.4,-12 -12,-12 z m 0,26.5 c -8,0 -14.5,-6.5 -14.5,-14.5 0,-8 6.5,-14.5 14.5,-14.5 8,0 14.5,6.5 14.5,14.5 0,8 -6.5,14.5 -14.5,14.5 z m 0,-237.7 c -8,0 -14.5,-6.49 -14.5,-14.5 l 0.1,-1.3 2.5,-0.29 -0.1,1.59 c 0,6.6 5.4,12 12,12 6.6,0 12,-5.4 12,-12 0,-1.5 -0.3,-2.9 -0.7,-4.2 l 2.5,-0.2 c 0.5,1.4 0.7,2.9 0.7,4.4 0,8.01 -6.5,14.5 -14.5,14.5 z m 288.3,-26.6 c -6.6,0 -12,5.4 -12,12.1 0,6.6 5.4,12 12,12 6.7,0 12,-5.4 12,-12 0,-6.7 -5.3,-12.1 -12,-12.1 z m 0,26.6 c -8,0 -14.5,-6.49 -14.5,-14.5 0,-8 6.5,-14.6 14.5,-14.6 8,0 14.5,6.6 14.5,14.6 0,8.01 -6.5,14.5 -14.5,14.5 z m -124.2,188.6 c -6.6,0 -12,5.3 -12,12 0,6.6 5.4,12 12,12 6.6,0 12,-5.4 12,-12 0,-6.7 -5.4,-12 -12,-12 z m 0,26.5 c -8,0 -14.5,-6.5 -14.5,-14.5 0,-8 6.5,-14.5 14.5,-14.5 8,0 14.5,6.5 14.5,14.5 0,8 -6.5,14.5 -14.5,14.5 z m 12,247.2 c -6.6,0 -12,5.3 -12,12 0,6.6 5.4,12 12,12 6.7,0 12.1,-5.4 12.1,-12 0,-6.7 -5.4,-12 -12.1,-12 z m 0,26.5 c -8,0 -14.5,-6.5 -14.5,-14.5 0,-8 6.5,-14.5 14.5,-14.5 8,0 14.6,6.5 14.6,14.5 0,8 -6.6,14.5 -14.6,14.5 z m -116.6,-385.2 c -6.61,0 -12,5.4 -12,12.1 0,6.61 5.39,12.01 12,12.01 6.7,0 12.1,-5.4 12.1,-12.01 0,-6.7 -5.4,-12.1 -12.1,-12.1 z m 0,26.61 c -8,0 -14.5,-6.51 -14.5,-14.51 0,-8.1 6.5,-14.6 14.5,-14.6 8,0 14.6,6.5 14.6,14.6 0,8 -6.6,14.51 -14.6,14.51 z m 237.4,88.19 c -6.71,0 -12.1,5.4 -12.1,12 0,6.6 5.39,12 12.1,12 6.6,0 12,-5.4 12,-12 0,-6.6 -5.4,-12 -12,-12 z m 0,26.5 c -8,0 -14.6,-6.5 -14.6,-14.5 0,-8 6.6,-14.5 14.6,-14.5 8,0 14.5,6.5 14.5,14.5 0,8 -6.5,14.5 -14.5,14.5 z m 13.2,269.1 c -6.6,0 -12,5.4 -12,12.1 0,6.6 5.4,12 12,12 6.7,0 12.1,-5.4 12.1,-12 0,-6.7 -5.4,-12.1 -12.1,-12.1 z m 0,26.6 c -8,0 -14.5,-6.5 -14.5,-14.5 0,-8 6.5,-14.6 14.5,-14.6 8.1,0 14.6,6.6 14.6,14.6 0,8 -6.5,14.5 -14.6,14.5 z m -80.8,208.3 -1.8,-2.2 c 5.9,-0.8 10.39,-5.8 10.39,-11.9 0,-6.7 -5.39,-12.1 -11.99,-12.1 -5.1,0 -9.4,3.2 -11.2,7.7 l -1.7,-2.2 c 2.39,-4.7 7.3,-8 12.9,-8 8,0 14.49,6.6 14.49,14.6 0,6.8 -4.69,12.5 -11.09,14.1 z m 243.39,-52.7 c -6.69,0 -11.99,5.4 -11.99,12 0,6.7 5.3,12 11.99,12 6.61,0 12.01,-5.3 12.01,-12 0,-6.6 -5.4,-12 -12.01,-12 z m 0,26.5 c -7.99,0 -14.49,-6.5 -14.49,-14.5 0,-8 6.5,-14.5 14.49,-14.5 8.01,0 14.51,6.5 14.51,14.5 0,8 -6.5,14.5 -14.51,14.5 z m 108.31,-200 c -1.4,-5 -6.1,-8.7 -11.6,-8.7 -6.6,0 -12,5.4 -12,12.1 0,6.6 5.4,12 12,12 4.4,0 8.29,-2.4 10.3,-5.9 -0.1,1.5 -0.3,3 -0.5,4.5 -2.6,2.5 -6,3.9 -9.8,3.9 -8,0 -14.5,-6.5 -14.5,-14.5 0,-8 6.5,-14.6 14.5,-14.6 5,0 9.5,2.6 12.2,6.6 -0.2,1.6 -0.4,3.1 -0.6,4.6"
         style="fill:#ffffff;fill-opacity:1;fill-rule:nonzero;stroke:none"
         id="path286" />
      <path
         d="m 1655.72,2716.81 c -118.92,-187.16 -331.23,-573.2 -270.34,-685.11 60.39,-110.96 426.41,-198.14 551.56,-225.85 41.21,-9.12 203.64,280.41 163.18,300.38 -68.7,33.89 -398.8,108.39 -408.45,131.39 -6.06,14.44 70.09,270.11 84.26,421.81 18.4,197.18 -83.27,115.52 -120.21,57.38"
         style="fill:#f26162;fill-opacity:1;fill-rule:nonzero;stroke:none"
         id="path288" />
      <path
         d="m 2064.25,2120.06 c 0,0 130.05,-23.75 214.36,-43.28 47.04,-10.9 126.03,-36.78 156.92,-60.58 46.22,-35.63 216.74,-214.11 174.36,-256.39 -38.37,-38.27 -165.4,133.68 -165.4,133.68 0,0 143.53,-162.18 88.86,-199.76 -54.68,-37.59 -172.38,175.77 -172.38,175.77 0,0 143.74,-169.94 81.23,-199.78 -47.24,-22.55 -164.73,164.68 -164.73,164.68 0,0 122.53,-146.92 74.95,-172.2 -52.58,-27.94 -171.87,138.09 -171.87,138.09 -131.76,-43.92 -212.47,-10.93 -267.09,19.37 -13.21,7.34 150.79,300.4 150.79,300.4"
         style="fill:#f26162;fill-opacity:1;fill-rule:nonzero;stroke:none"
         id="path290" />
      <path
         d="m 2398.45,1952.75 c 17.53,-18.44 35.43,-36.98 51.27,-56.92 15.85,-19.94 31.02,-40.44 44.95,-61.76 34.15,-52.3 47.35,-90.38 46.28,-88.12 -25.36,53.54 -80.98,125.78 -96.84,145.72 -15.82,19.9 -30.65,40.59 -46.45,60.5 l 0.79,0.58"
         style="fill:#17282f;fill-opacity:1;fill-rule:nonzero;stroke:none"
         id="path292" />
      <path
         d="m 2325.42,1896.83 c 21.38,-24.51 43.51,-48.07 63.83,-73.53 20.21,-25.35 37.17,-51.17 55.59,-77.83 1.42,-2.06 -0.15,-2.15 -1.66,-0.13 -19.47,25.9 -39.46,48.36 -59.23,74.04 -19.69,25.59 -38.55,52.14 -59.16,76.99 l 0.63,0.46"
         style="fill:#17282f;fill-opacity:1;fill-rule:nonzero;stroke:none"
         id="path294" />
      <path
         d="m 2254.11,1860.1 c 34.61,-35.79 62.57,-77.93 89,-119.91 1.32,-2.09 -0.72,-1.97 -2.19,0.09 -28.84,40.41 -51.17,72.32 -88.06,118.62 l 1.25,1.2"
         style="fill:#17282f;fill-opacity:1;fill-rule:nonzero;stroke:none"
         id="path296" />
      <path
         d="m 2076.37,2125.93 -279.75,-317.61 c 0,0 -380.88,104.42 -430.08,237.97 -49.19,133.56 151.98,494.48 260.96,642.8 108.98,148.32 173.82,141.82 154.42,-32.69 -17.37,-156.27 -86.09,-405.71 -80.39,-414.58 5.69,-8.87 374.84,-115.89 374.84,-115.89"
         style="fill:#fabb1e;fill-opacity:1;fill-rule:nonzero;stroke:none"
         id="path298" />
      <path
         d="m 1990.73,2063.02 c -6.7,0 -12.1,5.4 -12.1,12 0,6.7 5.4,12.1 12.1,12.1 6.6,0 12,-5.4 12,-12.1 0,-6.6 -5.4,-12 -12,-12 z m 0,26.6 c -8,0 -14.6,-6.6 -14.6,-14.6 0,-7.99 6.6,-14.5 14.6,-14.5 8,0 14.5,6.51 14.5,14.5 0,8 -6.5,14.6 -14.5,14.6 z m -123,26.2 c -6.6,0 -12,5.41 -12,12.01 0,6.7 5.4,12.1 12,12.1 6.6,0 11.99,-5.4 11.99,-12.1 0,-6.6 -5.39,-12.01 -11.99,-12.01 z m 0,26.61 c -8.01,0 -14.5,-6.61 -14.5,-14.6 0,-8.01 6.49,-14.51 14.5,-14.51 8,0 14.49,6.5 14.49,14.51 0,7.99 -6.49,14.6 -14.49,14.6 z m -261.8,-124.81 c -6.7,0 -12.1,5.4 -12.1,12 0,6.7 5.4,12.1 12.1,12.1 6.6,0 12,-5.4 12,-12.1 0,-6.6 -5.4,-12 -12,-12 z m 0,26.6 c -8.1,0 -14.6,-6.6 -14.6,-14.6 0,-7.99 6.5,-14.5 14.6,-14.5 8,0 14.5,6.51 14.5,14.5 0,8 -6.5,14.6 -14.5,14.6 z m -83,244.6 c -6.6,0 -12,5.4 -12,12 0,6.6 5.4,12 12,12 6.6,0 11.99,-5.4 11.99,-12 0,-6.6 -5.39,-12 -11.99,-12 z m 0,26.5 c -8.01,0 -14.5,-6.5 -14.5,-14.5 0,-8 6.49,-14.5 14.5,-14.5 8,0 14.49,6.5 14.49,14.5 0,8 -6.49,14.5 -14.49,14.5 z m 110.9,289.9 c -6.61,0 -12,5.4 -12,12.1 0,6.6 5.39,12 12,12 6.7,0 12.1,-5.4 12.1,-12 0,-6.7 -5.4,-12.1 -12.1,-12.1 z m 0,26.6 c -8,0 -14.5,-6.5 -14.5,-14.5 0,-8 6.5,-14.6 14.5,-14.6 8,0 14.6,6.6 14.6,14.6 0,8 -6.6,14.5 -14.6,14.5 z m 23.3,-292.9 c -6.6,0 -12,5.4 -12,12.1 0,6.6 5.4,12 12,12 6.7,0 12.1,-5.4 12.1,-12 0,-6.7 -5.4,-12.1 -12.1,-12.1 z m 0,26.6 c -8,0 -14.5,-6.5 -14.5,-14.5 0,-8 6.5,-14.6 14.5,-14.6 8.1,0 14.6,6.6 14.6,14.6 0,8 -6.5,14.5 -14.6,14.5 z m 108.3,270.3 c -6.6,0 -12,5.4 -12,12 0,6.7 5.4,12.1 12,12.1 6.6,0 11.99,-5.4 11.99,-12.1 0,-6.6 -5.39,-12 -11.99,-12 z m 0,26.6 c -8.01,0 -14.5,-6.6 -14.5,-14.6 0,-8 6.49,-14.5 14.5,-14.5 8,0 14.49,6.5 14.49,14.5 0,8 -6.49,14.6 -14.49,14.6 z m 12.1,106.4 -0.11,0.1 c -3.19,2.1 -5.29,5.8 -5.29,9.9 l 0.09,0.8 c -0.59,1.1 -1.29,2.1 -1.99,3 -0.4,-1.2 -0.6,-2.5 -0.6,-3.8 0,-6.1 3.7,-11.3 9.1,-13.5 -0.3,1.2 -0.7,2.4 -1.2,3.5 z m 28.7,-873.3 c -6.7,0 -12.1,5.4 -12.1,12 0,6.61 5.4,12.01 12.1,12.01 6.6,0 12,-5.4 12,-12.01 0,-6.6 -5.4,-12 -12,-12 z m 0,26.51 c -8,0 -14.6,-6.51 -14.6,-14.51 0,-7.99 6.6,-14.5 14.6,-14.5 8,0 14.5,6.51 14.5,14.5 0,8 -6.5,14.51 -14.5,14.51 z m 48.2,68.99 c -6.6,0 -12.01,5.4 -12.01,12.1 0,6.6 5.41,12 12.01,12 6.6,0 12,-5.4 12,-12 0,-6.7 -5.4,-12.1 -12,-12.1 z m 0,26.6 c -8,0 -14.51,-6.5 -14.51,-14.5 0,-8 6.51,-14.6 14.51,-14.6 7.99,0 14.5,6.6 14.5,14.6 0,8 -6.51,14.5 -14.5,14.5 z m -131.6,76.2 c -6.6,0 -12,5.4 -12,12 0,6.61 5.4,12.01 12,12.01 6.7,0 12,-5.4 12,-12.01 0,-6.6 -5.3,-12 -12,-12 z m 0,26.51 c -8,0 -14.5,-6.51 -14.5,-14.51 0,-7.99 6.5,-14.5 14.5,-14.5 8,0 14.5,6.51 14.5,14.5 0,8 -6.5,14.51 -14.5,14.51 z m -78.9,-244.91 c -6.71,0 -12.1,5.4 -12.1,12.01 0,6.7 5.39,12.1 12.1,12.1 6.6,0 12,-5.4 12,-12.1 0,-6.61 -5.4,-12.01 -12,-12.01 z m 0,26.61 c -8,0 -14.6,-6.51 -14.6,-14.6 0,-8.01 6.6,-14.51 14.6,-14.51 8,0 14.5,6.5 14.5,14.51 0,8.09 -6.5,14.6 -14.5,14.6 z m -167.1,535.99 -2.11,-0.2 c -0.49,-1 -0.99,-1.9 -1.49,-2.9 1.1,0.4 2.3,0.6 3.6,0.6 6.6,0 12,-5.4 12,-12.1 0,-6.6 -5.4,-12 -12,-12 -5.3,0 -9.8,3.4 -11.4,8.1 -0.51,-0.9 -1,-1.8 -1.4,-2.7 v -0.1 c 2.3,-4.6 7.2,-7.8 12.8,-7.8 8,0 14.5,6.5 14.5,14.5 0,8.1 -6.5,14.6 -14.5,14.6 z m -42.3,-227.9 c -6.6,0 -12,5.4 -12,12 0,6.6 5.4,12 12,12 6.6,0 12,-5.4 12,-12 0,-6.6 -5.4,-12 -12,-12 z m 0,26.5 c -8,0 -14.5,-6.5 -14.5,-14.5 0,-8 6.5,-14.5 14.5,-14.5 8,0 14.5,6.5 14.5,14.5 0,8 -6.5,14.5 -14.5,14.5 z m 0,-264.3 c -6.6,0 -12,5.4 -12,12.1 0,6.6 5.4,12 12,12 6.6,0 12,-5.4 12,-12 0,-6.7 -5.4,-12.1 -12,-12.1 z m 0,26.6 c -8,0 -14.5,-6.49 -14.5,-14.5 0,-3 0.9,-5.6 2.39,-7.9 v -0.1 l 0.11,-0.1 c 2.3,-1.79 4.6,-3.7 6.9,-5.5 h 0.1 c 1.6,-0.7 3.2,-1 5,-1 8,0 14.5,6.6 14.5,14.6 0,8.01 -6.5,14.5 -14.5,14.5 z m 288.3,-26.6 c -6.6,0 -12,5.4 -12,12.1 0,6.6 5.4,12 12,12 6.7,0 12,-5.4 12,-12 0,-6.7 -5.3,-12.1 -12,-12.1 z m 0,26.6 c -8,0 -14.5,-6.49 -14.5,-14.5 0,-8 6.5,-14.6 14.5,-14.6 8,0 14.5,6.6 14.5,14.6 0,8.01 -6.5,14.5 -14.5,14.5 z m -124.2,188.6 c -6.6,0 -12,5.3 -12,12 0,6.6 5.4,12 12,12 6.6,0 12,-5.4 12,-12 0,-6.7 -5.4,-12 -12,-12 z m 0,26.5 c -8,0 -14.5,-6.5 -14.5,-14.5 0,-8 6.5,-14.5 14.5,-14.5 8,0 14.5,6.5 14.5,14.5 0,8 -6.5,14.5 -14.5,14.5 z m 12,247.2 c -6.6,0 -12,5.3 -12,12 0,6.6 5.4,12 12,12 6.7,0 12.1,-5.4 12.1,-12 0,-6.7 -5.4,-12 -12.1,-12 z m 0,26.5 c -8,0 -14.5,-6.5 -14.5,-14.5 0,-8 6.5,-14.5 14.5,-14.5 8,0 14.6,6.5 14.6,14.5 0,8 -6.6,14.5 -14.6,14.5 z m -80.71,-571.9 c -6.59,0 -11.99,5.41 -11.99,12.1 0,6.61 5.4,12.01 11.99,12.01 6.61,0 12.01,-5.4 12.01,-12.01 0,-6.69 -5.4,-12.1 -12.01,-12.1 z m 0,26.61 c -7.99,0 -14.49,-6.51 -14.49,-14.51 0,-8.1 6.5,-14.6 14.49,-14.6 8.01,0 14.51,6.5 14.51,14.6 0,8 -6.5,14.51 -14.51,14.51 z m -35.89,160.09 c -6.61,0 -12,5.4 -12,12.1 0,6.61 5.39,12.01 12,12.01 6.7,0 12.1,-5.4 12.1,-12.01 0,-6.7 -5.4,-12.1 -12.1,-12.1 z m 0,26.61 c -8,0 -14.5,-6.51 -14.5,-14.51 0,-8.1 6.5,-14.6 14.5,-14.6 8,0 14.6,6.5 14.6,14.6 0,8 -6.6,14.51 -14.6,14.51 z m 249,97.19 c -1.3,-5.2 -6,-9 -11.6,-9 -6.71,0 -12.1,5.4 -12.1,12 0,1.7 0.3,3.2 0.9,4.7 l -2.2,0.8 c -0.81,-1.7 -1.2,-3.5 -1.2,-5.5 0,-8 6.6,-14.5 14.6,-14.5 6.7,0 12.3,4.5 13.9,10.7 z m 1.6,286.6 c -6.6,0 -12,5.4 -12,12.1 0,6.6 5.4,12 12,12 6.7,0 12.1,-5.4 12.1,-12 0,-6.7 -5.4,-12.1 -12.1,-12.1 z m 0,26.6 c -8,0 -14.5,-6.5 -14.5,-14.5 0,-8 6.5,-14.6 14.5,-14.6 8.1,0 14.6,6.6 14.6,14.6 0,8 -6.5,14.5 -14.6,14.5 z m -73.2,203.6 -1.71,-1.9 c 1.71,-2 2.7,-4.7 2.7,-7.5 0,-6.7 -5.39,-12.1 -11.99,-12.1 -2.3,0 -4.4,0.6 -6.2,1.8 l -1.6,-2 c 2.2,-1.4 4.9,-2.3 7.8,-2.3 8,0 14.49,6.6 14.49,14.6 0,3.6 -1.29,6.9 -3.49,9.4"
         style="fill:#ffffff;fill-opacity:1;fill-rule:nonzero;stroke:none"
         id="path300" />
      <path
         d="m 1970.96,2130.98 c -43.3,-42.69 -84.64,-87.45 -124.94,-132.92 -19.79,-22.32 -39.6,-44.68 -58.54,-67.73 -19.71,-24.01 -38.02,-49.19 -57.88,-73.04 -0.9,-1.07 0.65,-2.57 1.6,-1.49 20.47,23.12 42.75,44.82 63.77,67.49 20.28,21.86 39.92,44.32 59.73,66.62 40.42,45.47 80.71,91.16 119.54,137.98 1.83,2.22 -1.2,5.14 -3.28,3.09"
         style="fill:#17282f;fill-opacity:1;fill-rule:nonzero;stroke:none"
         id="path302" />
      <path
         d="m 2053.98,2133.15 c -29.55,3.66 -355.42,101.72 -355.83,101.86 -0.67,0.43 21.93,111.32 26.53,132.26 9.34,42.82 19.65,85.5 30.77,127.88 0.15,0.95 1.92,0.79 1.76,-0.17 -3.18,-26.01 -7.19,-52.01 -11.73,-77.72 4.43,11.11 9.12,22.22 14.5,32.91 0.42,0.95 1.91,0.24 1.62,-0.71 -6.79,-21.72 -14.4,-43.28 -22.02,-64.71 -1.19,-5.72 -1.97,-11.44 -3.16,-17.14 -4.47,-21.49 -9.22,-42.97 -14.23,-64.31 -2.51,-10.46 -12.39,-51.24 -14.78,-62.18 46.48,-11.19 320.33,-94.13 347.15,-105.79 0.95,-0.43 0.51,-2.34 -0.58,-2.18"
         style="fill:#17282f;fill-opacity:1;fill-rule:nonzero;stroke:none"
         id="path304" />
      <path
         d="m 1358.93,2087.12 c 1.4,-10.05 4.16,-19.61 7.33,-28.92 3.32,-9.26 7.16,-18.3 11.98,-26.84 4.84,-8.48 10,-16.87 16.16,-24.61 5.95,-7.9 12.61,-15.29 19.35,-22.94 -4.29,2.7 -8.47,5.63 -12.55,8.71 -3.78,3.39 -7.91,6.54 -11.25,10.43 -7.32,7.25 -13.08,15.92 -18.29,24.81 -9.66,18.08 -15.56,39.03 -12.73,59.36"
         style="fill:#17282f;fill-opacity:1;fill-rule:nonzero;stroke:none"
         id="path306" />
      <path
         d="m 1908.82,2683.05 c -40.54,-8.01 -107.24,55.96 -132.65,106.74 -1.71,3.49 4.85,39.27 10.78,83.11 3.49,26.62 6.74,56.34 7.76,83.68 0.18,5.62 169.91,-48.02 169.91,-48.02 0,0 -18.98,-56.68 -20.46,-104.35 -0.07,-3.99 0.18,-7.71 0.76,-11.26 l 0.19,-1.87 c 2.68,-21.44 2.89,-100.27 -36.29,-108.03"
         style="fill:#f26162;fill-opacity:1;fill-rule:nonzero;stroke:none"
         id="path308" />
      <path
         d="m 1805.22,2955.48 c 6.24,-46.52 30.84,-159.25 122.26,-164.72 6.36,-0.39 12.22,-0.29 17.58,0.3 l -0.15,1.89 c -0.54,3.58 -0.85,7.25 -0.8,11.23 1.49,47.75 20.51,104.42 20.51,104.42 0,0 -122.43,38.69 -159.4,46.88"
         style="fill:#17282f;fill-opacity:1;fill-rule:nonzero;stroke:none"
         id="path310" />
      <path
         d="m 1813.23,3182.81 c -32.45,-54.7 -42.89,-233.05 -10.15,-281.38 47.49,-70.06 145.98,-99.67 210.74,-37.85 62.77,59.92 72.27,292.6 33.75,338.65 -56.73,67.82 -186.4,61.39 -234.34,-19.42"
         style="fill:#f26162;fill-opacity:1;fill-rule:nonzero;stroke:none"
         id="path312" />
      <path
         d="m 1915.56,3068.83 c 5.16,1.97 10.25,2.91 15.55,4.33 5.99,1.6 10.59,3.49 16.71,1.39 3.27,-1.12 5.45,-5.73 4.66,-9.01 -1.84,-7.66 -8.68,-11.44 -15.81,-13.66 -7.73,-2.4 -14.3,-2.27 -21.8,0.75 -7.27,2.92 -6.11,13.6 0.69,16.2"
         style="fill:#17282f;fill-opacity:1;fill-rule:nonzero;stroke:none"
         id="path314" />
      <path
         d="m 2050.69,3037.73 c -3.71,4.1 -7.83,7.24 -11.92,10.9 -4.62,4.13 -7.86,7.89 -14.26,8.79 -3.44,0.48 -7.47,-2.64 -8.25,-5.94 -1.81,-7.66 2.59,-14.12 7.94,-19.31 5.81,-5.64 11.73,-8.5 19.79,-9.2 7.8,-0.68 11.6,9.38 6.7,14.76"
         style="fill:#17282f;fill-opacity:1;fill-rule:nonzero;stroke:none"
         id="path316" />
      <path
         d="m 1901.05,2916.91 c 2.53,-3.2 4.92,-7.46 9.26,-8.39 4.15,-0.89 9.33,0.37 13.37,1.37 l 0.44,-0.69 c -3.73,-4.22 -10.69,-6.29 -16.17,-4.59 -5.34,1.65 -7.44,6.73 -8.13,11.9 l 1.23,0.4"
         style="fill:#17282f;fill-opacity:1;fill-rule:nonzero;stroke:none"
         id="path318" />
      <path
         d="m 1927.53,2930.8 c 16.22,4.23 35.87,-0.19 48.26,-3.3 1.43,0.04 3.05,2.66 3.45,3.95 l 0.01,0.1 2.37,25.87 c 3.18,-2.11 19.52,-12.01 19.84,-7.12 2.51,40.44 5.32,85.41 -0.72,126.18 -0.14,1.36 -2.2,1.3 -2.25,-0.04 -3.95,-38.77 -1.06,-77.97 -4.41,-116.98 -5.26,2.77 -13.78,7.76 -18.66,8.25 -1.36,-0.22 -1.11,-27.52 -2.06,-31.63 0,0 -23.71,10.39 -45.37,0.06 -5.62,-2.68 -8.19,-7.36 -0.46,-5.34"
         style="fill:#17282f;fill-opacity:1;fill-rule:nonzero;stroke:none"
         id="path320" />
      <path
         d="m 2012.95,3018.83 0.68,-1.15 c -2.46,-11.12 -3.38,-24.27 6.05,-29.88 l -0.21,-0.61 c -12.04,4.05 -10.62,21.5 -6.52,31.64"
         style="fill:#17282f;fill-opacity:1;fill-rule:nonzero;stroke:none"
         id="path322" />
      <path
         d="m 2009.86,3004.13 c -0.02,-2.97 0.67,-6.15 2.41,-9.14 1.74,-2.98 5.15,-5.01 8.54,-5.66 3.5,-0.68 7.54,0.8 9.88,3.2 2.34,2.41 3.87,5.16 4.79,7.99 0.6,1.8 0.97,3.63 1.3,5.47 0.61,3.9 0.55,7.85 -0.64,11.56 -0.29,-2.87 -0.92,-5.64 -1.8,-8.25 -0.82,-2.5 -1.78,-4.82 -2.89,-7.06 -2.37,-4.62 -5.91,-8.23 -9.78,-7.33 -4.14,0.59 -6.62,4.43 -7.41,9.62 -0.82,5.08 -0.72,10.6 -0.48,16.21 -2.5,-5.06 -3.98,-10.67 -3.92,-16.61"
         style="fill:#17282f;fill-opacity:1;fill-rule:nonzero;stroke:none"
         id="path324" />
      <path
         d="m 1943.56,3029.36 -0.97,-0.91 c -0.77,-11.37 -3.56,-24.25 -14.18,-27 l 0.03,-0.64 c 12.68,0.52 16.22,17.67 15.12,28.55"
         style="fill:#17282f;fill-opacity:1;fill-rule:nonzero;stroke:none"
         id="path326" />
      <path
         d="m 1942.4,3014.38 c -0.81,-2.85 -2.35,-5.71 -4.86,-8.09 -2.51,-2.38 -6.36,-3.38 -9.8,-3.05 -3.54,0.33 -7,2.88 -8.58,5.84 -1.57,2.97 -2.27,6.04 -2.36,9.02 -0.07,1.89 0.08,3.75 0.29,5.6 0.5,3.93 1.67,7.7 3.84,10.92 -0.52,-2.83 -0.69,-5.66 -0.58,-8.41 0.08,-2.64 0.36,-5.14 0.81,-7.6 0.98,-5.1 3.36,-9.55 7.32,-9.77 4.15,-0.59 7.6,2.39 9.81,7.15 2.21,4.65 3.66,9.98 5.01,15.44 0.97,-5.56 0.83,-11.36 -0.9,-17.05"
         style="fill:#17282f;fill-opacity:1;fill-rule:nonzero;stroke:none"
         id="path328" />
      <path
         d="m 2077.35,3116.16 c -68.64,-31.67 -141.99,46.28 -141.99,46.28 -27.96,-44.67 -75.03,-30.77 -75.03,-30.77 0,0 -29.73,-101.91 -57.11,-97.07 -41.79,7.36 -30.66,151.32 -12.76,176.95 17.91,25.62 54.6,26.74 54.6,26.74 0,0 6.27,21.16 35.46,36.5 32.26,17 125.84,-29.12 125.84,-29.12 0,0 9.87,17.18 31.01,29.75 13.41,7.91 28.64,3.28 36.64,-9.73 -5.96,-6.02 -11.02,-14.07 -14.38,-23.93 -10.1,-29.6 14.81,-33.79 19.27,-6.15 1.97,12.3 -0.27,22.6 -4.89,30.08 15.34,15.97 36.4,18.44 46.95,6.71 19.12,-21.3 13.47,-129.93 -43.61,-156.24"
         style="fill:#17282f;fill-opacity:1;fill-rule:nonzero;stroke:none"
         id="path330" />
      <path
         d="m 2017.45,2867.34 c 7.45,7.89 12.44,17.64 16.89,27.39 4.5,9.77 8.22,19.89 11.42,30.16 6.25,20.59 11.12,41.62 14.32,62.91 3.58,21.26 5.5,42.77 7.04,64.3 1.41,21.55 2.31,43.16 2.31,64.83 1.85,-21.6 2.27,-43.33 1.53,-65.02 -0.75,-21.7 -2.72,-43.37 -5.95,-64.89 -3.64,-21.44 -8.5,-42.74 -15.62,-63.34 -7.47,-20.25 -16.22,-41.1 -31.94,-56.34"
         style="fill:#17282f;fill-opacity:1;fill-rule:nonzero;stroke:none"
         id="path332" />
      <path
         d="m 2008.16,3012.92 c -2.65,-23.48 6.81,-43.89 21.11,-45.51 14.3,-1.62 28.1,16.16 30.76,39.64 2.66,23.48 -6.82,43.89 -21.12,45.51 -14.3,1.62 -28.09,-16.16 -30.75,-39.64 z m -6.58,0.75 c 3.06,27.11 20.14,47.51 38.08,45.48 17.93,-2.03 30.03,-25.74 26.96,-52.85 -3.07,-27.11 -20.16,-47.51 -38.1,-45.48 -17.93,2.03 -30.02,25.74 -26.94,52.85"
         style="fill:#e7e8e5;fill-opacity:1;fill-rule:nonzero;stroke:none"
         id="path334" />
      <path
         d="m 1884.55,3026.91 c -2.66,-23.47 12.82,-44.57 34.51,-47.02 21.68,-2.45 41.48,14.65 44.14,38.12 2.65,23.48 -12.82,44.58 -34.5,47.03 -21.69,2.45 -41.49,-14.64 -44.15,-38.13 z m -6.59,0.75 c 3.07,27.11 26.17,46.84 51.49,43.97 25.31,-2.87 43.41,-27.26 40.34,-54.36 -3.07,-27.12 -26.16,-46.84 -51.48,-43.97 -25.32,2.87 -43.42,27.25 -40.35,54.36"
         style="fill:#e7e8e5;fill-opacity:1;fill-rule:nonzero;stroke:none"
         id="path336" />
      <path
         d="m 1968.08,3021.93 c 25.6,5.86 35.81,-3.45 35.89,-3.55 l 4.66,4.73 c -0.48,0.5 -12.51,12.05 -42.03,5.29 l 1.48,-6.47"
         style="fill:#e7e8e5;fill-opacity:1;fill-rule:nonzero;stroke:none"
         id="path338" />
      <path
         d="m 1881.76,3031.58 1.94,6.33 c -4.19,1.28 -102.42,31.17 -113.28,33.01 -11.43,2.11 -39.93,-10.04 -43.15,-11.4 l 2.6,-6.1 c 8.08,3.44 30.49,11.99 38.95,11.03 l 0.49,-0.07 c 8.35,-1.41 77.2,-22.08 112.45,-32.8"
         style="fill:#e7e8e5;fill-opacity:1;fill-rule:nonzero;stroke:none"
         id="path340" />
      <path
         d="m 1815.78,3034.76 c 0,0 -26.43,64.12 -54.68,55.89 -28.26,-8.22 -17.01,-95.13 10.1,-112.72 27.1,-17.58 43.87,7.19 43.87,7.19 l 0.71,49.64"
         style="fill:#f26162;fill-opacity:1;fill-rule:nonzero;stroke:none"
         id="path342" />
      <path
         d="m 1764.94,3065.82 -0.33,-0.76 c 18.85,-13.01 25.48,-34.65 28.68,-56.27 -4.45,9.04 -11.91,15.11 -23.81,10.06 l 0.31,-1.23 c 8.89,-0.07 14.69,-2.91 18.91,-10.98 2.98,-5.72 4.4,-12.43 6.07,-18.63 0.56,-2.07 4.12,-1.82 3.9,0.47 l -0.07,0.51 c 6.41,26.31 -5.89,67.85 -33.66,76.83"
         style="fill:#17282f;fill-opacity:1;fill-rule:nonzero;stroke:none"
         id="path344" />
      <path
         d="m 1953.97,2760.95 -0.54,-0.07 c 3.05,-32.8 7.97,-108.92 -43.7,-105.88 -20.82,1.23 -40.15,13.6 -56.35,25.81 -16.63,12.53 -31.55,27.22 -45.11,43 -15.04,17.51 -30.53,35.89 -42.48,55.67 l -1.23,-0.93 c 12.85,-19.7 23.68,-40.26 38.43,-58.75 14.19,-17.78 30.22,-34.25 48.7,-47.62 17.32,-12.52 37.88,-24.83 59.89,-25.08 20.94,-0.23 35.76,13.15 41.3,32.65 7.26,25.62 5.93,55.31 1.09,81.2"
         style="fill:#17282f;fill-opacity:1;fill-rule:nonzero;stroke:none"
         id="path346" />
      <path
         d="m 564.836,1037.98 c 2.949,43.11 8.223,86.28 18.242,128.36 9.055,38 21.891,76.86 45.863,108.27 21.899,28.69 53.34,51.54 89.891,56.01 35.203,4.31 68.27,-11.38 94.606,-33.56 32.625,-27.48 57.617,-63.86 81.074,-99.13 26.226,-39.44 48.547,-80.44 70.027,-122.57 0.707,-1.39 -1.422,-2.56 -2.113,-1.18 -17.715,35.62 -39.508,70.23 -62.629,102.57 -21.844,30.57 -45.18,61.02 -72.117,87.32 -24.164,23.58 -54.875,45.65 -89.895,46.76 -34.84,1.12 -66.996,-18.44 -87.972,-45.3 -23.454,-30.03 -35.379,-67.52 -44.317,-104.05 -9.812,-40.1 -14.711,-81.12 -18.058,-122.22 -6.883,-84.549 -8.743,-169.612 -10.657,-254.389 -1.086,-47.98 -1.734,-95.973 -2.168,-143.973 -0.218,-24.308 -0.418,-48.628 -0.597,-72.949 -0.168,-23.418 1.05,-47.168 -2.805,-70.32 -0.789,-4.731 -8.523,-4.27 -9.316,0.23 -3.864,21.911 -2.918,44.43 -3.223,66.641 -0.32,23.039 -0.613,46.09 -0.82,69.141 -0.403,44.8 -0.633,89.621 -0.5,134.418 0.257,89.91 1.343,180.203 7.484,269.921"
         style="fill:#17282f;fill-opacity:1;fill-rule:nonzero;stroke:none"
         id="path348" />
      <path
         d="m 790.738,1188.47 c 12.321,-7.84 -5.871,-53.36 -24.883,-39.57 -16.156,11.75 12.485,47.48 24.883,39.57 z m 244.692,-76.86 c 10.11,12.24 56.95,-23.74 43.41,-43.4 -13.55,-19.67 -56.46,27.73 -43.41,43.4 z m -349.778,-9.87 c 4.489,23.9 12.563,55.07 26.192,73.59 24.476,33.29 50.91,18.81 26.472,-18.05 -26.683,-40.24 -30.531,-72.04 -34.367,-90.89 0,0 41.153,-58.79 90.809,-87.718 -2.117,22.588 -8.5,57.358 -4.09,90.888 9.539,72.61 53.461,68.53 42.609,10.85 -8.726,-46.27 -12.312,-95.379 -9.949,-116.672 14.926,-11.297 40.352,-21.019 53.082,-26 -2.851,8.41 -5.875,18.524 -9.219,30.762 -17.625,65.11 25.782,85.43 27.168,48.79 1.059,-30.11 12.731,-76.778 16.891,-92.349 23.824,-8 43.566,-13.472 55.645,-17.722 50.175,-17.617 81.425,-55.629 81.425,-55.629 22.76,20.23 41.12,44.781 55.48,71.789 -15.17,13.062 -39.16,32.473 -72.45,55.973 -62.416,44.058 -40.713,99.708 8.81,65.108 35.74,-24.96 63.4,-71.222 75.96,-94.972 17.22,41.121 26.28,86.252 28.31,129.982 -49.03,46.01 -170.274,110.14 -133.72,110.14 32.88,0 106.47,-48.22 133.48,-66.82 -0.73,12.97 -2.13,25.61 -4.16,37.77 -46.18,30.27 -196.229,77.35 -172.323,90.89 26.27,14.85 130.953,-33.61 162.613,-48.95 -6.94,22.51 -16.32,42.1 -27.74,57.44 -63.8,85.43 -178.861,114.85 -229.057,98.57 -35.515,-11.51 -25.144,-101.64 -32.769,-98.57 -142.684,57.42 -207.57,16.84 -155.102,-158.2"
         style="fill:#fabb1e;fill-opacity:1;fill-rule:nonzero;stroke:none"
         id="path350" />
      <path
         d="m 809.422,1174.52 c 6.449,12.73 13.164,25.39 20.512,37.63 6.992,11.65 14.445,24.06 23.574,34.19 -2.035,2.49 -4.004,5.05 -6.098,7.51 -0.847,1 0.61,2.41 1.488,1.42 2.395,-2.73 4.668,-5.53 6.989,-8.29 l 0.992,-1.17 c 8.82,-10.57 17.125,-21.45 25.055,-32.56 14.015,-2.96 27.879,-7.46 41.445,-12.01 13.992,-4.68 27.859,-9.55 41.465,-15.29 1.426,-0.6 0.711,-2.94 -0.699,-2.31 -13.477,5.96 -27.149,11.74 -41.122,16.45 -13.21,4.47 -26.648,7.9 -40.043,11.69 4.356,-6.15 8.633,-12.35 12.743,-18.65 25.129,-7.23 49.715,-18.69 73.273,-29.88 24.762,-11.76 48.604,-25.44 72.314,-39.15 1.34,-0.79 0.07,-2.87 -1.27,-2.06 -23.22,13.9 -47.427,25.76 -71.923,37.22 -22.953,10.75 -46.707,19.57 -69.844,29.8 58.262,-90.93 93.223,-195.861 139.937,-293.001 0.67,-1.418 -1.53,-2.579 -2.12,-1.168 -14.27,34.07 -30.69,67.269 -46.223,100.777 -13.949,30.092 -27.558,60.342 -41.519,90.422 -4.086,8.81 -8.289,17.6 -12.563,26.37 2.547,-48.58 1.52,-97.98 9.477,-145.991 0.285,-1.719 -2.266,-2.02 -2.383,-0.258 -3.363,51.899 -12.516,102.989 -12.145,155.179 l 0.289,0.67 c -9.89,19.85 -20.425,39.43 -31.8,58.47 -19.313,-45.45 -39.606,-91.59 -48.61,-140.4 -0.277,-1.49 -2.722,-0.83 -2.312,0.7 13.125,48.93 25.293,97.91 48.859,143.13 -12.457,20.58 -26.039,40.41 -41.039,59.16 -6.465,-12.08 -14.781,-23.51 -22.141,-35.05 -7.191,-11.28 -14.25,-22.63 -20.894,-34.25 -14.211,-24.82 -26.695,-50.13 -36.445,-77.02 -0.539,-1.47 -2.922,-0.71 -2.317,0.69 11.098,25.88 22.367,51.9 35.098,77.03"
         style="fill:#17282f;fill-opacity:1;fill-rule:nonzero;stroke:none"
         id="path352" />
      <path
         d="m 350.109,1063.95 c 37.395,37.5 80.856,86.73 138.637,86.62 55.777,-0.09 96.828,-45 120.406,-91.33 24.661,-48.44 33.516,-103.33 40.485,-156.67 8.343,-63.859 12.968,-128.25 14.785,-192.629 1.016,-35.761 0.875,-71.57 -0.012,-107.332 -0.89,-36.078 -1.765,-72.687 -8.191,-108.289 -1.039,-5.781 -10.297,-6 -10.645,0.239 -1.683,30.109 -0.476,60.382 -0.312,90.511 0.16,29.692 -0.301,59.379 -1.391,89.039 -2.203,60.012 -6.566,119.93 -13.613,179.571 -6.153,52.09 -11.039,105.648 -26.637,155.97 -14.058,45.38 -40.414,97.3 -86.426,117.24 -62.789,27.2 -124.125,-22.49 -165.218,-64.47 -1.079,-1.11 -2.965,0.43 -1.868,1.53"
         style="fill:#17282f;fill-opacity:1;fill-rule:nonzero;stroke:none"
         id="path354" />
      <path
         d="m 338.992,919.629 c 15.785,6.312 40.453,-32.949 23.238,-41.938 -17.21,-8.98 -36.144,36.75 -23.238,41.938 z m 152.965,51.91 c 3.039,8.063 24.723,-1.121 22.746,-11.168 -2.703,-13.441 -25.711,3.098 -22.746,11.168 z m -277.066,81.921 c -3.157,14.81 29.234,19.04 34.629,7.05 4.492,-10.24 -31.547,-21.84 -34.629,-7.05 z m -55.551,-73.3 0.004,-0.09 c 0.285,-7.66 0.726,-15.23 1.242,-22.64 17.066,12 38.523,22.91 61.277,25.39 53.067,5.629 49.688,-34.718 14.235,-36.41 -33.821,-1.609 -56.5,-7.351 -72.821,-14.59 8.661,-70.082 27.934,-126.422 30.825,-127.179 2.894,-0.672 67.769,3.98 140.222,17.73 -13.187,28.117 -43.238,65.488 -27.937,68.5 15.695,3.117 32.074,-30.242 40.558,-65.93 34.95,7.059 70.938,16.289 101.985,28.059 -23.34,20.211 -59.426,45.352 -45.641,56.059 13.777,10.793 42.426,-24.68 59.586,-50.411 17.051,7.262 32.184,15.43 44.082,24.571 -31.449,46.199 -108.109,55.601 -98.105,89 10.214,34.061 81.726,-12.918 113.921,-74.77 37.825,39.211 48.899,94.719 44.918,142.141 -32.937,3.83 -96.316,-3.12 -91.73,20.54 4.316,22.51 50.387,19.15 87.879,5.34 -4.617,21.51 -12.438,39.84 -22.012,52.12 -34.715,44.58 -140.648,-12.1 -140.648,-12.1 0,0 11.332,106.49 -29.082,124.9 -23.289,10.56 -64.375,10.48 -105.61,-13.79 23.129,-1.92 51.086,-9.24 62.305,-25.29 14.375,-20.47 -8.293,-31.6 -22.711,-22.16 -10.121,6.71 -29.098,27.78 -63.293,30.55 -13.277,-11 -26.254,-25.02 -38.246,-42.34 -3.906,-5.49 -7.547,-11.3 -11.172,-17.6 33.32,13.84 77.418,20.93 124.024,-2.25 45.933,-22.8 20.273,-70.5 -19.243,-51.97 -39.101,18.31 -77.152,36.75 -119.043,26.25 -15.379,-35.45 -20.476,-77.43 -20.14,-118.751 15.711,11.371 38.91,24.981 68.031,32.661 45.664,11.98 59.465,-15.3 9.309,-20.38 -31.868,-3.25 -58.672,-14.902 -76.969,-25.16"
         style="fill:#fabb1e;fill-opacity:1;fill-rule:nonzero;stroke:none"
         id="path356" />
      <path
         d="m 200.289,812.738 c 23.801,39.782 47.32,79.782 72.309,118.852 11.636,18.191 23.832,36.019 36.48,53.512 -1.906,0.378 -3.812,0.949 -5.66,1.339 -3.152,0.661 -6.313,1.27 -9.48,1.821 -7.305,1.277 -14.676,2.328 -22.055,3.066 -6.949,0.723 -13.914,1.094 -20.899,1.172 -7.265,0.09 -15.195,0.34 -22.328,-1.172 l -0.191,1.184 c 7.437,-0.301 15.043,0.679 22.5,0.789 7.226,0.097 14.469,-0.09 21.683,-0.52 6.786,-0.402 13.532,-1.082 20.247,-2.113 3.71,-0.566 7.41,-1.207 11.093,-1.938 2.192,-0.429 4.516,-0.761 6.684,-1.41 12.891,17.72 26.266,35.1 40.098,52.11 -41.723,19.17 -84.649,34.96 -130.274,41.57 l 0.297,1.17 c 45.445,-7.26 91.031,-19 132.16,-40.08 7.606,9.33 15.258,18.64 22.953,27.89 8.614,10.35 17.817,20.46 25.606,31.46 l 0.968,-0.71 c -10.808,-11.53 -20.578,-24.25 -30.203,-36.98 l 0.219,-0.03 c 17.192,-11.5 32.984,-25.21 48.434,-38.9 15.828,-14.03 31.289,-28.55 46.289,-43.449 l -0.828,-0.883 c -14.844,14.762 -30.227,28.832 -46.321,42.202 -16.074,13.36 -32.996,25.63 -49.168,38.86 l -0.125,0.24 c -3.687,-4.89 -7.371,-9.77 -11.082,-14.58 -1.875,-2.42 -3.726,-4.87 -5.593,-7.3 l -0.403,-0.53 c -6.195,-8.06 -12.363,-16.13 -18.48,-24.25 7.488,-10.04 13.031,-21.892 18.39,-33.181 5.332,-11.23 9.973,-22.828 14.25,-34.488 8.848,-24.16 14.793,-49.371 19.848,-74.57 l -1.156,-0.34 c -4.77,25.078 -12.625,49.258 -21.676,73.09 -4.617,12.179 -9.883,24.027 -15.312,35.871 -4.942,10.758 -10.93,21.098 -15.559,31.978 -5.34,-7.1 -10.652,-14.22 -15.875,-21.4 -1.52,-2.09 -2.965,-4.211 -4.469,-6.309 l -0.523,-1.101 -0.242,0.011 c -16.352,-22.82 -31.915,-46.191 -47.047,-69.832 1.031,-1.519 1.468,-3.39 2.074,-5.179 0.973,-2.86 1.883,-5.758 2.73,-8.66 1.696,-5.84 3.067,-11.739 4.153,-17.711 1.011,-5.618 1.808,-11.27 2.367,-16.95 0.621,-6.25 0.023,-13.16 1.426,-19.257 0.218,-0.961 -1.328,-1.024 -1.164,-0.032 0.933,5.692 -0.528,12.309 -1.325,17.969 -0.863,6.16 -2.007,12.262 -3.425,18.301 -1.286,5.469 -2.754,10.91 -4.379,16.289 -0.817,2.699 -1.688,5.371 -2.606,8.031 -0.492,1.41 -1.179,2.899 -1.652,4.399 -7.086,-11.11 -14.109,-22.258 -21.016,-33.481 -13.695,-22.25 -27.277,-44.566 -40.941,-66.84 -0.692,-1.117 -2.477,-0.136 -1.801,1"
         style="fill:#17282f;fill-opacity:1;fill-rule:nonzero;stroke:none"
         id="path358" />
      <path
         d="m 567.313,507.18 c 0.617,22.55 4.191,45.261 6.617,67.679 2.441,22.532 5,45.051 7.406,67.582 4.633,43.418 7.223,87.821 17.437,130.387 8.786,36.621 24.911,71.703 53.04,97.512 14.234,13.051 32.328,23.762 52.023,24.832 20.144,1.078 38.723,-5.891 55.238,-17.031 18.817,-12.7 33.317,-30.692 46.449,-48.95 13.547,-18.812 25.524,-38.261 36.223,-58.812 l -1.234,-0.527 c -19.766,34.269 -47.012,63.82 -78.36,87.796 -14.437,11.051 -31.011,19.34 -49.406,20.59 -18.23,1.25 -34.492,-7.457 -47.891,-19.097 -26.296,-22.871 -41.515,-56.493 -50.582,-89.512 -10.746,-39.141 -14.222,-80.328 -19.582,-120.449 -3.187,-23.852 -6.23,-47.731 -9.378,-71.59 -3.137,-23.738 -5.114,-48.07 -10.153,-71.481 -1.09,-5.039 -7.984,-4 -7.847,1.071"
         style="fill:#17282f;fill-opacity:1;fill-rule:nonzero;stroke:none"
         id="path360" />
      <path
         d="m 758.25,702.871 c 12.219,-1.723 19.148,-45.391 -1.859,-44.531 -16.032,0.68 -8.493,46 1.859,44.531 z m 194.523,6.891 c -0.746,7.418 14.864,8.707 18.391,-0.621 2.363,-6.09 -17.766,-6.692 -18.391,0.621 z m -58.168,118.269 c -1.8,11.34 34.348,14.059 36.227,-0.492 2.168,-16.32 -34.394,-11.051 -36.227,0.492 z M 678.23,682.301 c 6.504,-9.082 14.809,-17.34 24.532,-25.051 -3.711,22 -8.199,61.102 2.914,81.91 17.246,32.34 37.668,16.219 27.394,-11.89 -14.824,-40.129 -16.761,-67.231 -16.613,-79.692 21.867,-14.379 48.246,-26.008 74.906,-35.328 -2.359,10.809 -3.851,24.238 -2.465,38.559 3.446,34.55 29.911,33.91 23.028,-2.047 -3.016,-15.543 -3.656,-30.492 -3.621,-42.211 60.355,-18.93 116.73,-26.332 116.73,-26.332 22.473,29.929 38.238,58.691 48.317,86.011 -28.125,7.051 -85.086,8.649 -83.868,28.75 1.621,27.051 56.793,6.219 89.071,-13.402 7.937,25.902 10.73,50.34 9.746,72.781 -12.602,4.129 -35.906,9.262 -77.578,12.852 -57.93,5.008 -55.078,37.848 -13.102,37.09 30.973,-0.571 70.137,-19.52 88.703,-29.371 -12.082,78.781 -72.183,129.269 -120.375,131.191 -81.004,3.27 -51.859,-97.551 -51.859,-97.551 0,0 -54.883,38.629 -106.692,37.61 -51.687,-1.11 -84.558,-86.821 -29.168,-163.879"
         style="fill:#fabb1e;fill-opacity:1;fill-rule:nonzero;stroke:none"
         id="path362" />
      <path
         d="m 775.145,654.379 c 2.015,5.441 3.812,10.961 5.527,16.5 -1.578,-5.598 -2.981,-11.25 -4.024,-16.91 -0.207,-1.11 -1.906,-0.66 -1.503,0.41"
         style="fill:#17282f;fill-opacity:1;fill-rule:nonzero;stroke:none"
         id="path364" />
      <path
         d="m 796.531,724.559 c 3.797,11.179 8.059,22.23 12.407,33.23 2.32,5.871 4.734,11.68 7.3,17.449 2.164,4.852 3.965,10.371 7.223,14.614 -2.484,4.636 -4.816,9.339 -6.559,14.136 l 0.739,0.43 c 6.179,-7.207 10.964,-16.289 15.785,-24.469 2.25,-3.82 4.39,-7.711 6.597,-11.558 4.543,-0.27 9.172,-1.301 13.625,-2.121 4.86,-0.879 9.7,-1.872 14.52,-2.961 4.816,-1.09 9.633,-2.188 14.437,-3.34 4.766,-1.149 9.524,-2.739 14.368,-3.469 1.121,-0.172 0.656,-1.941 -0.41,-1.512 -4.797,1.942 -10.114,2.864 -15.161,3.942 -4.652,1.011 -9.308,1.832 -14.019,2.511 -4.707,0.668 -9.43,1.25 -14.156,1.727 -3.539,0.352 -7.145,0.543 -10.715,0.871 1.929,-3.398 3.937,-6.758 5.816,-10.187 l 0.86,-1.641 c 3.89,0.32 7.8,-0.68 11.636,-1.371 4.184,-0.75 8.36,-1.551 12.516,-2.469 8.449,-1.859 16.863,-3.859 25.203,-6.191 17.527,-4.891 34.844,-10.489 52.141,-16.141 0.961,-0.309 0.347,-1.777 -0.61,-1.449 -17.152,5.859 -34.679,10.551 -52.367,14.531 -8.285,1.867 -16.566,3.77 -24.887,5.488 -4.164,0.871 -8.324,1.782 -12.484,2.672 -3.215,0.668 -6.578,1.047 -9.68,2.129 8.91,-16.469 17.317,-33.199 25.028,-50.269 16.796,-37.172 30.941,-75.461 45.347,-113.61 0.36,-0.953 -1.109,-1.57 -1.449,-0.609 -13.461,38.109 -30.473,74.797 -48.258,111.058 -3.234,6.598 -6.57,13.149 -9.844,19.731 -0.265,-1.34 -0.597,-2.68 -0.847,-4.043 -0.836,-4.5 -1.637,-9.008 -2.395,-13.52 -1.515,-9.039 -3.058,-18.078 -4.406,-27.136 -2.73,-18.332 -7.16,-37.703 -6.535,-56.301 0.039,-1.172 -1.738,-1.102 -1.559,0 1.453,8.98 1.453,18.348 2.02,27.418 0.59,9.492 1.289,18.961 2.387,28.402 1.058,9.09 2.222,18.188 3.726,27.219 0.75,4.52 1.547,9.031 2.379,13.539 0.598,3.281 0.738,6.992 2.543,9.801 -4.75,9.519 -9.449,19.058 -14.25,28.551 -4.5,8.91 -9.059,17.789 -13.688,26.621 -1.953,3.726 -4.082,7.508 -6.156,11.316 -1.183,-4.68 -3.574,-9.199 -5.375,-13.637 -2.07,-5.113 -4.16,-10.211 -6.261,-15.32 -4.641,-11.301 -8.961,-22.723 -13.282,-34.152 -6.121,-16.199 -12.886,-32.801 -17.937,-49.66 4.953,16.55 9.136,33.402 14.687,49.75"
         style="fill:#17282f;fill-opacity:1;fill-rule:nonzero;stroke:none"
         id="path366" />
      <path
         d="m 780.672,670.879 c 0.367,1.32 0.785,2.621 1.172,3.93 -0.387,-1.309 -0.774,-2.618 -1.172,-3.93"
         style="fill:#17282f;fill-opacity:1;fill-rule:nonzero;stroke:none"
         id="path368" />
      <path
         d="m 431.859,551.039 5.7,-120.598 14.66,-310.812 h 320.676 l 14.656,310.812 5.703,120.598 H 431.859"
         style="fill:#273e47;fill-opacity:1;fill-rule:nonzero;stroke:none"
         id="path370" />
      <path
         d="m 431.859,551.039 5.7,-120.598 h 349.992 l 5.703,120.598 H 431.859"
         style="fill:#17282f;fill-opacity:1;fill-rule:nonzero;stroke:none"
         id="path372" />
      <path
         d="m 409.055,502.281 h 406.992 v 97.508 H 409.055 v -97.508"
         style="fill:#273e47;fill-opacity:1;fill-rule:nonzero;stroke:none"
         id="path374" />
      <path
         d="M 690.637,119.621 V 68.5781 h 56.297 v 51.0429 h -56.297"
         style="fill:#273e47;fill-opacity:1;fill-rule:nonzero;stroke:none"
         id="path376" />
      <path
         d="M 746.934,119.621 H 690.637 V 94.1094 h 56.297 v 25.5116"
         style="fill:#17282f;fill-opacity:1;fill-rule:nonzero;stroke:none"
         id="path378" />
      <path
         d="M 478.176,119.621 V 68.5781 h 56.246 v 51.0429 h -56.246"
         style="fill:#273e47;fill-opacity:1;fill-rule:nonzero;stroke:none"
         id="path380" />
      <path
         d="M 478.176,119.621 V 94.1094 h 56.246 v 25.5116 h -56.246"
         style="fill:#17282f;fill-opacity:1;fill-rule:nonzero;stroke:none"
         id="path382" />
    </g>
  </g>
</svg>
