<?xml version="1.0" encoding="UTF-8" standalone="no"?>
<!-- Created with Inkscape (http://www.inkscape.org/) -->

<svg
   version="1.1"
   id="svg2"
   width="899.77521"
   height="904.61365"
   viewBox="0 0 899.77521 904.61365"
   sodipodi:docname="2606133_5613.eps"
   xmlns:inkscape="http://www.inkscape.org/namespaces/inkscape"
   xmlns:sodipodi="http://sodipodi.sourceforge.net/DTD/sodipodi-0.dtd"
   xmlns="http://www.w3.org/2000/svg"
   xmlns:svg="http://www.w3.org/2000/svg">
  <defs
     id="defs6" />
  <sodipodi:namedview
     id="namedview4"
     pagecolor="#ffffff"
     bordercolor="#000000"
     borderopacity="0.25"
     inkscape:showpageshadow="2"
     inkscape:pageopacity="0.0"
     inkscape:pagecheckerboard="0"
     inkscape:deskcolor="#d1d1d1"
     showgrid="false" />
  <g
     id="g10"
     inkscape:groupmode="layer"
     inkscape:label="Page 1"
     transform="matrix(1.3333333,0,0,-1.3333333,-298.112,1200.3066)">
    <path
       d="m 875.403,313.345 -2.833,2.843 -68.606,-68.599 1.67,-1.655 18.193,-18.165 c 11.656,-11.681 36.464,-5.781 55.424,13.151 18.944,18.967 24.838,43.771 13.182,55.424 l -17.001,17.001 h -0.029"
       style="fill:#96c2db;fill-opacity:1;fill-rule:nonzero;stroke:none;stroke-width:0.1"
       id="path16" />
    <path
       d="m 855.782,332.687 -68.607,-68.555 16.789,-16.543 68.606,68.599 -1.961,1.961 -0.055,-0.03 -14.772,14.568"
       style="fill:#cbe1ed;fill-opacity:1;fill-rule:nonzero;stroke:none;stroke-width:0.1"
       id="path18" />
    <path
       d="m 494.546,444.916 c -103.798,0 -187.97,84.147 -187.97,187.968 0,103.826 84.172,187.968 187.97,187.968 103.824,0 187.977,-84.142 187.977,-187.968 0,-103.821 -84.153,-187.968 -187.977,-187.968 z m -3.655,455.314 c -147.634,0 -267.307,-119.703 -267.307,-267.346 0,-147.637 119.673,-267.317 267.307,-267.317 54.735,0 105.542,16.474 147.937,44.695 l 148.347,-146.13 68.607,68.555 -147.38,145.158 c 31.253,43.748 49.833,97.184 49.833,155.039 0,147.643 -119.674,267.346 -267.344,267.346"
       style="fill:#96c2db;fill-opacity:1;fill-rule:nonzero;stroke:none;stroke-width:0.1"
       id="path20" />
    <path
       d="M 526.852,749.195 395.547,584.035 c -4.339,-5.492 -3.437,-13.473 2.051,-17.866 2.342,-1.834 5.132,-2.745 7.91,-2.745 3.716,0 7.445,1.625 9.95,4.8 l 131.288,165.17 c 4.376,5.492 3.437,13.465 -2.058,17.835 -5.489,4.333 -13.49,3.461 -17.836,-2.034"
       style="fill:#cbe1ed;fill-opacity:1;fill-rule:nonzero;stroke:none;stroke-width:0.1"
       id="path22" />
    <path
       d="M 581.92,694.134 450.608,528.967 c -4.369,-5.492 -3.438,-13.466 2.059,-17.863 2.341,-1.836 5.131,-2.744 7.897,-2.744 3.728,0 7.432,1.652 9.937,4.799 l 131.312,165.167 c 4.364,5.492 3.437,13.469 -2.058,17.862 -5.471,4.346 -13.49,3.435 -17.835,-2.054"
       style="fill:#cbe1ed;fill-opacity:1;fill-rule:nonzero;stroke:none;stroke-width:0.1"
       id="path24" />
  </g>
</svg>
