<?xml version="1.0" encoding="UTF-8" standalone="no"?>
<!-- Created with Inkscape (http://www.inkscape.org/) -->

<svg
   width="41.423203mm"
   height="31.20752mm"
   viewBox="0 0 41.423203 31.20752"
   version="1.1"
   id="svg5"
   xml:space="preserve"
   xmlns:inkscape="http://www.inkscape.org/namespaces/inkscape"
   xmlns:sodipodi="http://sodipodi.sourceforge.net/DTD/sodipodi-0.dtd"
   xmlns="http://www.w3.org/2000/svg"
   xmlns:svg="http://www.w3.org/2000/svg"><sodipodi:namedview
     id="namedview7"
     pagecolor="#ffffff"
     bordercolor="#000000"
     borderopacity="0.25"
     inkscape:showpageshadow="2"
     inkscape:pageopacity="0.0"
     inkscape:pagecheckerboard="0"
     inkscape:deskcolor="#d1d1d1"
     inkscape:document-units="mm"
     showgrid="false" /><defs
     id="defs2" /><g
     inkscape:label="Capa 1"
     inkscape:groupmode="layer"
     id="layer1"
     transform="translate(-70.714311,-176.48171)"><path
       style="fill:#4b616e;fill-opacity:1;stroke-width:0.264583"
       d="m 72.979316,207.40407 c -1.048492,-0.4181 -1.83582,-1.3051 -2.130799,-2.40057 -0.224994,-0.83557 -0.182293,-1.21672 0.244369,-2.18126 0.933974,-2.11141 -0.196616,-2.00022 20.327842,-1.99911 17.791232,0.001 18.223062,0.0131 19.079062,0.53496 1.6096,0.98135 2.05579,3.32403 0.92793,4.87203 -1.10051,1.51045 -0.58175,1.47267 -19.967693,1.45442 -11.180385,-0.0105 -18.065779,-0.11502 -18.480711,-0.28047 z m -0.711965,-12.42321 c -1.164132,-0.74569 -1.835507,-2.51107 -1.426392,-3.7507 0.164103,-0.49723 0.660578,-1.25112 1.103276,-1.67531 l 0.804906,-0.77125 18.305123,-0.0701 c 17.353286,-0.0664 18.352216,-0.0447 19.210726,0.41731 0.97449,0.52445 1.87252,1.91441 1.87252,2.89826 0,1.07903 -0.73928,2.41765 -1.63772,2.96541 -0.85625,0.52204 -1.2836,0.53389 -19.132069,0.5305 -17.931305,-0.003 -18.271274,-0.0131 -19.10037,-0.54417 z m -0.27398,-12.29979 c -2.139388,-1.68618 -1.410463,-5.20123 1.230745,-5.93494 0.581826,-0.16162 7.664566,-0.26311 18.408189,-0.26377 19.468605,-0.001 18.634855,-0.0776 19.904625,1.82318 1.00096,1.49835 0.64752,3.29608 -0.88502,4.50158 -0.69724,0.54844 -0.83939,0.5525 -19.253724,0.54959 l -18.551297,-0.003 z"
       id="path302"
       sodipodi:nodetypes="sssscssscssccsssccccscssccc" /></g></svg>
