<?xml version="1.0" encoding="UTF-8" standalone="no"?>
<!-- Created with Inkscape (http://www.inkscape.org/) -->

<svg
   version="1.1"
   id="svg5518"
   width="177.77333"
   height="177.78798"
   viewBox="0 0 177.77333 177.78798"
   sodipodi:docname="4077643_2118765.eps"
   xmlns:inkscape="http://www.inkscape.org/namespaces/inkscape"
   xmlns:sodipodi="http://sodipodi.sourceforge.net/DTD/sodipodi-0.dtd"
   xmlns="http://www.w3.org/2000/svg"
   xmlns:svg="http://www.w3.org/2000/svg">
  <defs
     id="defs5522" />
  <sodipodi:namedview
     id="namedview5520"
     pagecolor="#ffffff"
     bordercolor="#000000"
     borderopacity="0.25"
     inkscape:showpageshadow="2"
     inkscape:pageopacity="0.0"
     inkscape:pagecheckerboard="0"
     inkscape:deskcolor="#d1d1d1"
     showgrid="false" />
  <g
     id="g5526"
     inkscape:groupmode="layer"
     inkscape:label="Page 1"
     transform="matrix(1.3333333,0,0,-1.3333333,-174.31395,402.24739)">
    <path
       d="m 264.06547,235.01455 c 0,-21.899 -10.55,-41.329 -26.86,-53.479 l -0.01,-0.0102 c -3.57,-2.6508 -7.41,-4.9707 -11.4901,-6.8797 -0.01,0 -0.01,-0.0109 -0.0203,-0.0109 -0.6894,-0.3301 -1.3898,-0.6391 -2.0996,-0.9391 -0.7793,-0.3402 -1.5598,-0.6601 -2.3496,-0.95 h -0.01 c -1.5304,-0.6 -3.0801,-1.13 -4.6601,-1.6 l -0.0207,-0.0109 c -1.8895,-0.5691 -3.8192,-1.05 -5.7801,-1.4492 -2.9895,-0.6098 -6.0598,-1.0211 -9.1797,-1.2 -1.3898,-0.1008 -2.7793,-0.141 -4.1895,-0.141 -4.7707,0 -9.4308,0.5 -13.9199,1.4601 h -0.0207 c -0.7195,0.15 -1.4402,0.3199 -2.1492,0.5 -0.6211,0.15 -1.2305,0.311 -1.841,0.4809 h -0.01 c -2.5703,0.7101 -5.0594,1.5801 -7.5,2.589 -3.2,1.3211 -6.2703,2.8801 -9.1902,4.661 -19.209,11.7 -32.02931,32.839 -32.02931,56.979 0,36.82 29.83981,66.671 66.66011,66.671 36.8195,0 66.6695,-29.851 66.6695,-66.671"
       style="fill:#ffffff;fill-opacity:1;fill-rule:nonzero;stroke:none;stroke-width:0.1"
       id="path5748" />
    <path
       d="m 197.19487,186.81955 h -13.9289 v 15.065 h 13.9289 v -15.065"
       style="fill:#ffffff;fill-opacity:1;fill-rule:nonzero;stroke:none;stroke-width:0.1"
       id="path5750" />
    <path
       d="m 196.60577,187.40545 h -12.7605 v 13.8991 h 12.7605 z m -13.9207,15.0591 v -16.229 h 15.0906 v 16.229 h -15.0906"
       style="fill:#131112;fill-opacity:1;fill-rule:nonzero;stroke:none;stroke-width:0.1"
       id="path5752" />
    <path
       d="m 223.91557,173.14565 c -0.0996,0.17 -0.2102,0.35 -0.3301,0.55 -1.0402,1.7399 -2.6496,4.259 -4.6699,6.8297 -0.7199,0.9102 -1.4797,1.8301 -2.2805,2.7203 -1.409,1.57 -2.9598,3.0489 -4.5996,4.2688 -1,0.7611 -2.0301,1.4101 -3.0898,1.9311 -0.5098,0.25 -1.0301,0.469 -1.5497,0.66 -0.8906,0.309 -1.7902,0.519 -2.7003,0.599 -2.95,0.26 -5.2098,0.361 -6.92,0.371 h -0.58 c -0.2098,0 -0.4004,0 -0.5899,-0.01 -0.3906,0 -0.75,-0.011 -1.0801,-0.03 -0.7703,0.15 -6.08,0.24 -11.6804,-0.01 -0.1895,0 -0.3801,-0.011 -0.5801,-0.021 -0.1895,-0.009 -0.3801,-0.019 -0.5793,-0.029 -1.3008,-0.07 -2.5906,-0.16 -3.8406,-0.271 -1.3692,-0.12 -2.7297,-0.53 -4.0403,-1.15 -0.6699,-0.309 -1.3289,-0.689 -1.9793,-1.109 -1.7304,-1.1108 -3.38,-2.5311 -4.8898,-4.0901 -0.3008,-0.3109 -0.5906,-0.6301 -0.8906,-0.95 -1.6094,-1.7707 -3.0594,-3.6301 -4.2801,-5.3699 2.9207,-1.7809 5.9902,-3.3399 9.1902,-4.661 2.4406,-1.0089 4.9297,-1.8789 7.5,-2.589 h 0.01 l 1.4805,-0.0399 9.9796,-0.291 h 1.6805 l 10.1496,0.291 2.8906,0.0801 10.8993,0.309 0.0207,0.0109 7.3496,2"
       style="fill:#e5edf1;fill-opacity:1;fill-rule:nonzero;stroke:none;stroke-width:0.1"
       id="path5754" />
    <path
       d="m 212.03747,187.51365 c -9.6075,-6.1633 -25.8321,-12.7242 -39.2149,0.9319 0.6484,0.421 1.3078,0.796 1.9785,1.114 5.1282,-3.5932 18.0332,-10.1529 34.1446,-0.113 1.0566,-0.524 2.0918,-1.171 3.0918,-1.9329"
       style="fill:#96c2db;fill-opacity:1;fill-rule:nonzero;stroke:none;stroke-width:0.1"
       id="path5756" />
    <path
       d="m 218.91557,180.52535 c -1.2102,-1.0398 -4,-3.2797 -7.3594,-5.7097 -1.8508,-1.3301 -3.8809,-2.7102 -5.9102,-3.9899 -1.3703,-0.8504 -2.7304,-1.6512 -4.0605,-2.3402 -1.3898,-0.1008 -2.7793,-0.141 -4.1895,-0.141 -4.7707,0 -9.4308,0.5 -13.9199,1.4601 h -0.0207 c -0.7195,0.15 -1.4402,0.3199 -2.1492,0.5 l -0.3605,0.441 c -3.3204,1.559 -6.5899,4.0188 -9.67,7.6391 -1.6804,1.9809 -3.08,3.6406 -4.2304,5.0207 0.3,0.3199 0.5898,0.6391 0.8898,0.95 2.4004,-2.441 4.6707,-4.8301 4.6707,-4.8301 0,0 15.55,-15.1109 36.5695,-2 2.42,1.5102 4.9102,3.3992 7.4598,5.7203 l 2.2805,-2.7203"
       style="fill:#96c2db;fill-opacity:1;fill-rule:nonzero;stroke:none;stroke-width:0.1"
       id="path5758" />
    <path
       d="m 162.09017,233.00955 c 0,0 -8.243,7.818 -10.9442,0.285 -2.7003,-7.533 12.5067,-11.086 12.6493,-9.806 0.1425,1.278 -1.7051,9.521 -1.7051,9.521"
       style="fill:#ffffff;fill-opacity:1;fill-rule:nonzero;stroke:none;stroke-width:0.1"
       id="path5760" />
    <path
       d="m 153.20537,227.89555 c -1.6699,1.6 -2.1797,3.35 -1.5097,5.199 0.5695,1.591 1.4394,2.53 2.58,2.801 0.2598,0.059 0.5305,0.09 0.8,0.09 0.6797,0 1.3895,-0.17 2.0801,-0.45 h 0.01 c 1.1797,-0.451 2.2996,-1.18 3.1297,-1.8 0.2101,-0.16 0.4004,-0.311 0.5703,-0.45 0.2297,-0.18 0.4199,-0.34 0.5597,-0.46 0.01,-0.01 0.0204,-0.021 0.0204,-0.021 0.0402,-0.04 0.08,-0.069 0.1105,-0.1 0.25,-1.12 0.5391,-2.479 0.8094,-3.82 0.01,-0.01 0.01,-0.019 0.01,-0.029 0.1602,-0.78 0.3098,-1.54 0.4407,-2.25 v -0.03 c 0.2195,-1.22 0.3797,-2.231 0.3992,-2.76 -0.1797,-0.021 -0.4598,-0.011 -0.7996,0.019 -0.1895,0.031 -0.4004,0.061 -0.6399,0.101 -0.1902,0.04 -0.3906,0.079 -0.6101,0.119 -2.3,0.5 -5.7903,1.761 -7.9602,3.841 z m 9.4504,5.239 -0.0402,0.181 -0.1199,0.12 c -0.05,0.05 -0.42,0.39 -1.0098,0.859 -0.1699,0.13 -0.3606,0.281 -0.5703,0.441 -0.1699,0.12 -0.3594,0.25 -0.5598,0.389 -1.2098,0.821 -2.7996,1.701 -4.3906,1.951 -0.659,0.11 -1.3192,0.11 -1.9598,-0.04 -1.55,-0.371 -2.6992,-1.56 -3.4101,-3.54 -0.8,-2.231 -0.2395,-4.39 1.6199,-6.26 2.4406,-2.471 6.55,-3.96 9.2402,-4.42 0.2102,-0.04 0.4199,-0.07 0.6106,-0.09 0.2293,-0.03 0.4394,-0.051 0.6297,-0.061 0.1105,-0.009 0.2199,-0.009 0.3195,-0.009 0.3301,0 0.5906,0.03 0.7703,0.099 0.4797,0.16 0.5703,0.521 0.5898,0.67 0.1504,1.34 -1.53,8.861 -1.7195,9.71"
       style="fill:#131112;fill-opacity:1;fill-rule:nonzero;stroke:none;stroke-width:0.1"
       id="path5762" />
    <path
       d="m 162.23197,229.17255 c 0,0 -5.4004,5.685 -7.8164,3.127 -2.416,-2.558 8.2429,-8.386 8.3847,-6.395 0.1426,1.989 -0.5683,3.268 -0.5683,3.268"
       style="fill:#f2504e;fill-opacity:0.5;fill-rule:nonzero;stroke:none;stroke-width:0.1"
       id="path5764" />
    <path
       d="m 218.27567,232.67855 c 0,-19.1 -12.8535,-34.584 -28.7089,-34.584 -15.8555,0 -28.709,15.484 -28.709,34.584 0,19.1 12.8535,34.583 28.709,34.583 15.8554,0 28.7089,-15.483 28.7089,-34.583"
       style="fill:#ffffff;fill-opacity:1;fill-rule:nonzero;stroke:none;stroke-width:0.1"
       id="path5766" />
    <path
       d="m 197.77567,200.15555 c -0.1902,-0.071 -0.3797,-0.141 -0.58,-0.21 -0.1903,-0.061 -0.3895,-0.13 -0.5899,-0.191 -2.25,-0.7 -4.6101,-1.08 -7.0398,-1.08 -1.9602,0 -3.8703,0.24 -5.7207,0.71 -0.1895,0.051 -0.3899,0.101 -0.5801,0.151 -0.1895,0.049 -0.3899,0.11 -0.5801,0.169 -9.5195,2.901 -17.1191,11.691 -19.9894,22.96 -0.0606,0.191 -0.1004,0.38 -0.1395,0.581 -0.0605,0.19 -0.1008,0.389 -0.1406,0.589 -0.1301,0.55 -0.2403,1.101 -0.3301,1.661 -0.2598,1.419 -0.4395,2.86 -0.5293,4.339 v 0.01 c -0.0801,0.931 -0.1105,1.881 -0.1105,2.83 v 0.13 c 0,0.011 0,0.011 0,0.021 0,0.24 0,0.49 0.0195,0.729 -0.01,0.25 0,0.49 0.0207,0.74 0.6894,17.941 12.9394,32.29 27.9394,32.38 h 0.1407 c 15.5097,0 28.1297,-15.25 28.1297,-34 0,-5.689 -1.1602,-11.069 -3.2305,-15.79 -3.4598,-7.96 -9.4598,-14.059 -16.6895,-16.729 z m -8.03,67.689 h -0.5403 c -15.2996,-0.22 -27.8203,-14.609 -28.8496,-32.72 -0.0203,-0.229 -0.0301,-0.45 -0.0398,-0.679 -0.01,-0.241 -0.0207,-0.47 -0.0207,-0.71 -0.01,-0.21 -0.0196,-0.431 -0.01,-0.651 v -0.009 c -0.01,-0.14 -0.01,-0.26 -0.01,-0.401 0,-0.59 0.01,-1.179 0.0403,-1.769 0.0691,-1.741 0.25,-3.451 0.5293,-5.12 0.0898,-0.581 0.2,-1.161 0.3203,-1.731 0.0496,-0.21 0.0898,-0.42 0.1406,-0.63 0.0496,-0.21 0.0898,-0.41 0.1492,-0.609 2.9199,-12 11.0403,-21.37 21.2297,-24.32 0.1902,-0.06 0.3906,-0.111 0.5801,-0.161 0.1902,-0.049 0.3906,-0.099 0.5801,-0.139 1.8504,-0.45 3.7605,-0.681 5.7207,-0.681 2.4297,0 4.7898,0.36 7.0398,1.03 0.2004,0.05 0.3996,0.12 0.5899,0.191 0.2003,0.05 0.3898,0.12 0.58,0.189 7.3899,2.59 13.5801,8.59 17.3,16.49 0,0 0,0 0,0.01 2.4102,5.101 3.7801,10.981 3.7801,17.25 0,19.321 -13.0398,35.051 -29.1101,35.17"
       style="fill:#131112;fill-opacity:1;fill-rule:nonzero;stroke:none;stroke-width:0.1"
       id="path5768" />
    <path
       d="m 158.25227,234.57355 c 0.3437,-0.252 3.4113,-3.98 6.1113,0.284 2.7004,4.263 3.5528,15.492 4.9746,15.492 1.4211,0 11.7961,3.695 17.7657,11.796 5.9687,8.101 1.9894,17.339 -4.6903,17.624 -6.6797,0.284 -14.4972,-0.854 -17.339,-11.37 -2.8426,-10.518 -1.5633,-10.375 -4.8321,-12.934 -3.2695,-2.558 -9.5222,-15.349 -1.9902,-20.892"
       style="fill:#131112;fill-opacity:1;fill-rule:nonzero;stroke:none;stroke-width:0.1"
       id="path5770" />
    <path
       d="m 189.66167,238.83655 c 0,0 3.3972,-15.587 0.7586,-15.538 -2.6063,0.047 -5.6375,-0.095 -5.4481,-1.801 0.4649,-4.181 6.9637,-4.453 6.5848,-3.127 -0.3789,1.328 -4.1727,0.917 -3.9793,2.654 0.1894,1.705 5.3055,-0.379 5.3055,3.032 0,3.411 -2.2735,21.413 -3.2215,14.78"
       style="fill:#131112;fill-opacity:1;fill-rule:nonzero;stroke:none;stroke-width:0.1"
       id="path5772" />
    <path
       d="m 179.85497,213.53855 c 0,0 1.9903,-6.395 10.0907,-6.395 8.1015,0 10.091,6.395 10.9445,6.254 0.8523,-0.143 -0.7109,-7.533 -10.5176,-7.533 -11.2277,0 -12.6496,9.381 -10.5176,7.674"
       style="fill:#131112;fill-opacity:1;fill-rule:nonzero;stroke:none;stroke-width:0.1"
       id="path5774" />
    <path
       d="m 182.65067,238.74255 c 0,-2.355 -0.8914,-4.264 -1.9902,-4.264 -1.0984,0 -1.9891,1.909 -1.9891,4.264 0,2.355 0.8907,4.263 1.9891,4.263 1.0988,0 1.9902,-1.908 1.9902,-4.263"
       style="fill:#131112;fill-opacity:1;fill-rule:nonzero;stroke:none;stroke-width:0.1"
       id="path5776" />
    <path
       d="m 202.73777,238.74255 c 0,-2.355 -0.8918,-4.264 -1.9902,-4.264 -1.0988,0 -1.9894,1.909 -1.9894,4.264 0,2.355 0.8906,4.263 1.9894,4.263 1.0984,0 1.9902,-1.908 1.9902,-4.263"
       style="fill:#131112;fill-opacity:1;fill-rule:nonzero;stroke:none;stroke-width:0.1"
       id="path5778" />
    <path
       d="m 178.29247,230.87755 c 0,-2.511 -2.0371,-4.548 -4.5488,-4.548 -2.5117,0 -4.548,2.037 -4.548,4.548 0,2.512 2.0363,4.549 4.548,4.549 2.5117,0 4.5488,-2.037 4.5488,-4.549"
       style="fill:#f2504e;fill-opacity:0.5;fill-rule:nonzero;stroke:none;stroke-width:0.1"
       id="path5780" />
    <path
       d="m 212.21247,230.87755 c 0,-2.511 -2.0364,-4.548 -4.5481,-4.548 -2.5117,0 -4.5476,2.037 -4.5476,4.548 0,2.512 2.0359,4.549 4.5476,4.549 2.5117,0 4.5481,-2.037 4.5481,-4.549"
       style="fill:#f2504e;fill-opacity:0.5;fill-rule:nonzero;stroke:none;stroke-width:0.1"
       id="path5782" />
    <path
       d="m 188.66747,278.91555 c 0,0 -0.8535,-11.085 2.5575,-17.481 3.4113,-6.396 10.5175,-5.258 14.4972,-5.969 3.9793,-0.711 6.3953,-4.406 4.6903,-12.365 -1.7059,-7.959 -5.827,-12.364 0.8527,-21.176 6.6797,-8.811 4.832,-11.938 0.284,-20.181 -4.5477,-8.244 -7.1063,-20.1818 -0.5684,-26.4361 6.5371,-6.2528 30.2727,-1.9887 29.8457,19.0451 -0.427,21.034 -9.522,22.029 -3.268,37.095 6.252,15.064 7.39,36.809 -0.996,43.916 -8.3852,7.106 -12.0797,0.852 -16.486,2.842 -4.4062,1.99 -9.664,13.787 -19.0449,12.649 -9.3797,-1.137 -11.7957,-7.675 -12.3641,-11.939"
       style="fill:#131112;fill-opacity:1;fill-rule:nonzero;stroke:none;stroke-width:0.1"
       id="path5784" />
    <path
       d="m 189.56677,266.67855 c 0.3789,-0.364 0.664,-18.414 -19.9442,-14.292 l -0.2844,-2.037 c 0,0 20.0391,-4.643 21.7453,14.686 l -1.5167,1.643"
       style="fill:#131112;fill-opacity:1;fill-rule:nonzero;stroke:none;stroke-width:0.1"
       id="path5786" />
  </g>
</svg>
