<?xml version="1.0" encoding="UTF-8" standalone="no"?>
<!-- Created with Inkscape (http://www.inkscape.org/) -->

<svg
   version="1.1"
   id="svg2"
   width="1570.4851"
   height="1538.61"
   viewBox="0 0 1570.4851 1538.6099"
   sodipodi:docname="198566580_5d7a959f-ca55-45e6-9376-f847c1a55f74.eps"
   xmlns:inkscape="http://www.inkscape.org/namespaces/inkscape"
   xmlns:sodipodi="http://sodipodi.sourceforge.net/DTD/sodipodi-0.dtd"
   xmlns="http://www.w3.org/2000/svg"
   xmlns:svg="http://www.w3.org/2000/svg">
  <defs
     id="defs6" />
  <sodipodi:namedview
     id="namedview4"
     pagecolor="#ffffff"
     bordercolor="#000000"
     borderopacity="0.25"
     inkscape:showpageshadow="2"
     inkscape:pageopacity="0.0"
     inkscape:pagecheckerboard="0"
     inkscape:deskcolor="#d1d1d1"
     showgrid="false" />
  <g
     id="g10"
     inkscape:groupmode="layer"
     inkscape:label="Page 1"
     transform="matrix(1.3333333,0,0,-1.3333333,-675.43309,1726.7834)">
    <path
       d="m 1222.96,309.19 v -0.06 c -0.01,0.02 0.07,-0.08 -0.16,0.16 0.12,-0.02 0.15,-0.03 0.16,-0.1 z m 460.88,512.644 c 0.6,5.596 -1.62,11.196 -1.7,17.155 0.2,9.087 -0.79,18.582 -1.98,27.948 -0.32,2.341 -0.65,4.676 -0.97,6.997 -0.33,2.321 -0.58,4.638 -0.95,6.917 -0.71,4.566 -1.24,9.07 -1.66,13.451 -0.68,2.975 -1.35,5.953 -2.02,8.934 l -0.99,4.478 -1.12,4.457 c -0.72,2.977 -1.45,5.956 -2.18,8.938 -0.8,2.965 -1.61,5.932 -2.41,8.902 l -1.2,4.46 c -0.4,1.488 -0.88,2.954 -1.31,4.434 -0.88,2.956 -1.77,5.914 -2.65,8.874 -0.92,2.951 -1.93,5.873 -2.89,8.816 -0.97,2.941 -1.92,5.889 -3.02,8.787 l -3.2,8.741 c -1.11,2.899 -2.31,5.764 -3.47,8.649 l -1.75,4.321 c -0.59,1.437 -1.25,2.845 -1.88,4.269 l -3.81,8.518 -4.11,8.38 -2.08,4.18 -2.21,4.1 c -1.49,2.73 -2.96,5.48 -4.49,8.18 l -4.78,8 c -6.91,11.08 -14.13,21.97 -22.01,32.37 -7.82,10.43 -15.99,20.59 -24.7,30.27 l -3.23,3.66 -3.33,3.56 c -2.24,2.36 -4.42,4.78 -6.69,7.1 l -6.86,6.93 c -2.27,2.33 -4.67,4.51 -7,6.78 l -3.52,3.37 c -1.17,1.12 -2.4,2.19 -3.59,3.29 l -7.23,6.53 c -4.92,4.21 -9.8,8.51 -14.87,12.55 -40.22,32.78 -85.06,59.36 -132.04,80.43 -48.5,21.85 -100.03,37.64 -152.67,48.29 -52.66,10.65 -106.49,16.18 -160.4,17.09 -3.36,0.08 -6.73,0.09 -10.1,0.11 l -5.06,0.03 c -1.68,0.01 -3.37,0.02 -5.08,-0.04 l -20.45,-0.48 -5.11,-0.12 c -1.7,-0.08 -3.41,-0.22 -5.11,-0.32 l -10.22,-0.68 -10.21,-0.69 -2.55,-0.18 -2.55,-0.29 -5.096,-0.56 -10.185,-1.13 -5.091,-0.57 c -1.696,-0.2 -3.398,-0.34 -5.084,-0.63 -6.755,-1.05 -13.509,-2.1 -20.261,-3.15 -1.685,-0.29 -3.382,-0.49 -5.056,-0.84 l -5.029,-1.01 -10.054,-2.01 c -3.346,-0.7 -6.709,-1.3 -10.038,-2.07 l -9.957,-2.45 c -6.63,-1.66 -13.298,-3.15 -19.825,-5.19 l -9.833,-2.88 c -3.268,-0.99 -6.576,-1.84 -9.79,-3 -6.465,-2.2 -12.927,-4.39 -19.384,-6.58 -6.364,-2.46 -12.724,-4.92 -19.079,-7.37 -25.248,-10.26 -49.695,-22.31 -73.07,-35.97 -0.018,0.07 -0.041,0.16 -0.08,0.23 -15.827,-9.25 -31.13,-19.78 -46.209,-30.72 -7.379,-5.68 -14.916,-11.21 -22.031,-17.26 l -5.404,-4.45 -2.701,-2.23 c -0.898,-0.74 -1.754,-1.54 -2.634,-2.3 -3.492,-3.1 -6.984,-6.19 -10.472,-9.28 -1.764,-1.53 -3.451,-3.13 -5.133,-4.74 l -5.059,-4.81 -5.047,-4.81 c -1.693,-1.58 -3.272,-3.29 -4.91,-4.92 -3.241,-3.32 -6.477,-6.62 -9.705,-9.92 -3.118,-3.4 -6.229,-6.79 -9.331,-10.18 -3.145,-3.34 -6.063,-6.87 -9.044,-10.32 -2.957,-3.48 -5.962,-6.89 -8.749,-10.46 -2.825,-3.54 -5.639,-7.06 -8.44,-10.57 -2.691,-3.6 -5.37,-7.18 -8.036,-10.74 l 0.267,0.07 c -10.834,-14.34 -20.209,-27.72 -30.341,-41.92 0.436,0.54 0.903,0.99 1.429,1.24 -1.258,-1.94 -2.443,-3.94 -3.624,-5.94 -1.189,-1.99 -2.379,-3.99 -3.569,-5.99 0.019,0.82 0.296,1.62 0.721,2.46 -1.361,-2.4 -2.8,-4.74 -4.129,-7.15 -1.341,-2.41 -2.683,-4.81 -4.027,-7.22 -2.762,-4.78 -5.262,-9.767 -7.891,-14.749 -0.269,-2.233 -1.488,-5.888 -3.211,-9.531 -0.857,-1.825 -1.831,-3.655 -2.843,-5.328 -0.965,-1.705 -1.973,-3.252 -2.953,-4.471 -0.015,-1.87 -0.93,-4.699 -2.146,-7.484 -1.141,-2.831 -2.594,-5.616 -3.812,-7.315 l -0.017,0.033 c -0.072,-0.077 -0.125,-0.134 -0.188,-0.162 -0.171,-3.253 -1.552,-6.215 -3.289,-9.155 l -0.184,0.274 c -3.715,-10.011 -6.799,-20.217 -9.676,-30.464 -1.302,-5.156 -2.751,-10.282 -3.854,-15.48 l -1.745,-7.778 -1.523,-7.818 -0.758,-3.91 -0.646,-3.927 -1.286,-7.854 -1.067,-7.882 c -0.358,-2.627 -0.715,-5.255 -0.962,-7.893 l -0.823,-7.906 c -0.264,-2.636 -0.418,-5.28 -0.631,-7.92 -0.459,-5.279 -0.641,-10.571 -0.894,-15.859 -0.076,0.002 -0.16,0.03 -0.235,0.057 -0.51,-24.24 0.431,-48.515 3.462,-72.591 1.558,-12.025 3.463,-24.023 6.147,-35.863 2.64,-11.844 5.74,-23.597 9.652,-35.089 -0.039,0.277 -0.5,1.885 -1.177,4.168 -0.338,1.142 -0.726,2.455 -1.14,3.855 -0.383,1.408 -0.79,2.904 -1.198,4.406 -0.801,3.007 -1.685,6.019 -2.26,8.424 -0.586,2.402 -1.015,4.16 -1.124,4.61 l 0.517,0.051 c 2.341,-9.98 5.253,-19.835 8.313,-29.646 3.257,-9.752 6.645,-19.477 10.633,-28.989 3.847,-9.563 8.237,-18.918 12.837,-28.166 l 3.595,-6.869 c 0.606,-1.141 1.187,-2.295 1.814,-3.426 l 1.908,-3.378 3.824,-6.75 4.042,-6.63 c -0.609,0.139 -1.167,0.798 -1.72,1.576 3.328,-5.48 6.71,-10.488 10.055,-15.634 1.65,-2.58 3.396,-5.098 5.119,-7.631 l 5.16,-7.601 c 7.058,-10.015 14.167,-19.992 21.681,-29.657 7.401,-9.75 15.215,-19.167 23.117,-28.477 l 6.054,-6.869 3.028,-3.43 3.102,-3.361 6.208,-6.707 c 2.119,-2.187 4.236,-4.373 6.352,-6.557 16.953,-17.457 35.137,-33.537 54.122,-48.187 19.092,-14.51 39.03,-27.57 59.742,-38.5 1.264,-1.47 3.625,-2.84 5.592,-3.5 2.869,-2.53 6.498,-4.61 10.208,-6.65 3.752,-1.97 7.586,-3.9 10.87,-6.25 3.63,-2.37 7.724,-4.73 11.666,-5.56 l -0.062,0.29 c 26.138,-12.86 51.873,-25.61 79.121,-34.84 15.689,-5.17 32.093,-9.16 48.076,-13.49 28.824,-7.93 58.199,-13.81 87.858,-17.64 29.66,-3.85 59.6,-5.61 89.63,-5.22 15.01,0.18 30.04,0.93 45.08,2.3 15.03,1.34 30.07,3.34 45.1,6.04 1.88,0.32 3.75,0.71 5.63,1.06 l 2.82,0.55 2.72,0.57 9.91,2.13 c 0.01,0 0.01,0 0.01,0 l 0.97,-1.02 7.78,-8.2 1.95,-2.05 1.99,-2 4,-4 c 2.67,-2.65 5.3,-5.36 8.06,-7.92 0.13,0.11 0.26,0.22 0.41,0.32 2.25,-2.13 5.36,-5.07 8.45,-7.99 3.17,-2.86 6.32,-5.7 8.57,-7.73 l -0.01,-0.01 c 19.82,-17.16 41.07,-34.97 62.45,-48.71 1.82,-1.24 3.61,-2.51 5.44,-3.73 l 5.52,-3.63 c 3.68,-2.41 7.35,-4.87 11.12,-7.16 l 8.2,-5.1 c 1.77,-1.12 3.58,-2.12 5.37,-3.19 1.79,-1.07 3.58,-2.07 5.37,-3.06 7.18,-3.99 14.36,-7.98 21.54,-11.97 14.11,-7.18 28.19,-14.14 42.11,-20.84 l 21.25,-10.28 c 7.07,-3.41 14.7,-7.13 20.68,-9.89 -3.76,11.09 -7.51,22.14 -11.26,33.18 -2.01,5.68 -5.6,16.17 -10.34,30.12 -0.6,1.74 -1.21,3.54 -1.84,5.39 -0.56,1.79 -1.15,3.63 -1.75,5.52 -1.2,3.77 -2.46,7.74 -3.77,11.87 -0.66,2.06 -1.33,4.17 -2.01,6.32 -0.36,1.08 -0.63,2.13 -0.93,3.19 -0.29,1.07 -0.59,2.14 -0.89,3.23 -1.19,4.32 -2.43,8.8 -3.69,13.39 -0.63,2.3 -1.31,4.63 -1.91,6.97 -0.43,1.75 -0.87,3.51 -1.31,5.3 -0.59,2.36 -1.2,4.77 -1.82,7.23 -0.57,2.47 -1.16,4.98 -1.75,7.52 -0.6,2.54 -1.22,5.11 -1.76,7.72 -0.57,2.61 -1.15,5.23 -1.73,7.87 -0.54,2.65 -1.09,5.31 -1.64,7.97 -1.13,5.32 -2.08,10.68 -3.13,15.96 -3.97,21.15 -6.99,41.33 -9.68,55.21 -1.39,6.94 -2.61,12.3 -4,15.41 -1.38,3.1 -2.82,3.95 -4.34,1.84 -2.84,-3.81 -5.39,-7.74 -7.58,-12.05 -2.1,-4.31 -3.91,-9 -5.22,-14.32 -2.59,-10.64 -3.41,-23.83 -1.39,-41.44 0.41,-2.67 0.63,-5.24 0.74,-7.77 0.14,-2.52 0.2,-4.99 0.24,-7.46 0.04,-4.95 0.15,-9.87 0.96,-15.1 1.89,-11.84 5.09,-26.04 8.52,-36.17 0.1,-0.67 0.21,-1.34 0.31,-2.01 l 0.07,-0.49 0.03,-0.34 0.07,-0.69 c 0.08,-0.95 0.19,-1.86 0.3,-2.77 0.23,-1.83 0.57,-3.57 1.38,-5.54 1.93,-5.12 3.61,-11.02 5,-16.36 1.4,-5.37 2.45,-10.16 3.2,-13.86 l 0.09,-0.27 0.77,-2.37 0.04,-0.14 c 0.01,-0.03 0.02,-0.06 0.02,-0.07 l -0.07,0.03 -0.29,0.15 -0.59,0.29 -1.17,0.59 -4.67,2.32 c -3.12,1.5 -6.13,3.18 -9.18,4.76 -6.06,3.23 -12.02,6.62 -17.83,10.15 -1.47,0.86 -2.91,1.76 -4.32,2.67 l -5.4,3.43 -3.21,2.05 -3.16,2.12 -6.31,4.27 c -2.11,1.4 -4.18,2.88 -6.23,4.37 l -6.16,4.45 c -2.07,1.46 -4.07,3.01 -6.07,4.56 l -6,4.64 c -22.82,18.59 -45.03,37.61 -66.14,57.89 l -3.98,3.79 -3.89,3.87 -3.9,3.87 -1.96,1.93 -0.51,0.51 -0.74,0.78 -1.33,1.4 -10.52,11.07 -1.31,1.37 -0.65,0.68 c -0.06,0.05 -0.1,0.15 -0.17,0.15 l -0.23,-0.06 -0.47,-0.12 -3.75,-0.92 -7.45,-1.84 -7.37,-1.82 -5.97,-1.52 -5.38,-1.39 -2.69,-0.69 -2.67,-0.63 c -7.11,-1.71 -14.3,-3.18 -21.53,-4.52 -24.42,-3.14 -49.23,-4.9 -74.19,-5.29 -24.96,-0.39 -50.08,0.53 -75.11,2.94 -25.04,2.4 -49.996,6.27 -74.585,11.7 -24.593,5.43 -48.777,12.56 -72.247,21.28 0.026,0.07 0.074,0.13 0.1,0.21 -29.997,11.06 -58.379,22.91 -86.323,38.65 -2.477,-0.27 -5.016,0.8 -7.565,2.24 -2.541,1.46 -5.048,3.36 -7.569,4.63 -10.804,7.73 -21.668,15.21 -32.461,22.98 -10.774,7.78 -21.513,15.8 -32.039,24.45 -10.482,8.478 -20.597,17.466 -30.471,26.746 -9.891,9.267 -19.37,19.011 -28.561,29.035 -2.274,2.529 -4.617,4.996 -6.834,7.578 l -6.694,7.708 c -2.217,2.583 -4.356,5.234 -6.537,7.848 l -3.253,3.939 -3.165,4.01 c -8.517,10.634 -16.548,21.657 -24.301,32.852 0.12,0.129 0.243,0.254 0.373,0.367 -2.806,4.272 -5.679,8.495 -8.353,12.849 -2.717,4.325 -5.478,8.637 -7.985,13.006 -2.632,4.315 -5,8.785 -7.433,13.211 -1.226,2.208 -2.305,4.497 -3.467,6.738 -1.132,2.258 -2.319,4.486 -3.357,6.791 l -3.216,6.857 c -1.068,2.286 -2.021,4.627 -3.04,6.936 -2.073,4.603 -3.845,9.334 -5.743,14.008 -3.544,9.45 -6.954,18.953 -9.806,28.636 -0.076,-0.046 -0.142,-0.09 -0.224,-0.115 -0.22,0.927 -0.629,2.369 -1.178,4.196 -0.513,1.837 -1.136,4.068 -1.832,6.558 -0.71,2.485 -1.509,5.226 -2.214,8.124 -0.72,2.894 -1.546,5.895 -2.23,8.918 -0.661,3.028 -1.319,6.044 -1.945,8.911 -0.584,2.875 -1.028,5.623 -1.445,8.075 -0.862,4.901 -1.141,8.707 -1.014,10.244 -0.757,5.4 -1.224,10.841 -1.822,16.265 l -0.653,8.162 c -0.103,1.361 -0.231,2.719 -0.315,4.081 l -0.213,4.09 c -0.671,10.896 -0.746,21.821 -0.431,32.694 l 0.338,8.145 c 0.201,2.708 0.402,5.413 0.602,8.116 0.112,1.351 0.198,2.702 0.337,4.048 l 0.453,4.033 c 0.323,2.684 0.583,5.37 0.984,8.037 1.504,10.678 3.65,21.199 6.387,31.459 2.133,9.647 4.309,19.238 7.034,28.648 1.239,4.739 2.776,9.38 4.172,14.057 0.717,2.332 1.547,4.625 2.308,6.939 0.785,2.306 1.515,4.631 2.393,6.9 l 2.521,6.846 c 0.828,2.285 1.798,4.512 2.685,6.772 1.744,4.526 3.772,8.96 5.709,13.422 0.939,2.242 2.041,4.428 3.072,6.638 l 3.13,6.619 c 2.245,4.349 4.402,8.738 6.708,13.062 9.232,17.291 19.564,34.101 30.945,50.311 11.378,16.2 23.812,31.82 37.427,46.57 -0.079,0.04 -0.151,0.07 -0.215,0.13 2.518,2.71 5.216,5.26 7.812,7.9 2.628,2.62 5.174,5.32 7.823,7.92 2.672,2.58 5.329,5.19 7.974,7.81 l 3.967,3.93 4.079,3.83 c 2.702,2.57 5.408,5.15 8.117,7.73 2.736,2.55 5.553,5.01 8.318,7.54 l 4.161,3.79 2.079,1.89 2.143,1.83 c 2.853,2.44 5.709,4.88 8.565,7.32 22.918,19.47 47.693,37.16 74.217,51.44 -0.048,0.17 -0.095,0.33 -0.164,0.49 29.281,15.04 60.023,29.46 92.668,39.92 5.134,1.49 10.282,2.99 15.441,4.49 2.581,0.74 5.14,1.57 7.745,2.25 2.61,0.67 5.222,1.33 7.837,2 2.614,0.67 5.231,1.34 7.849,2.02 l 3.929,1.01 1.966,0.52 1.986,0.43 c 5.3,1.14 10.609,2.28 15.924,3.42 5.297,1.25 10.685,2.07 16.061,2.99 l 8.073,1.35 4.041,0.68 2.022,0.33 2.035,0.24 c 5.43,0.64 10.863,1.27 16.297,1.9 l 4.083,0.46 c 1.36,0.15 2.71,0.33 4.08,0.39 l 8.2,0.51 c 0.01,-0.08 -0.01,-0.16 -0.03,-0.24 4.51,0.29 9.04,0.57 13.59,0.87 1.13,0.06 2.27,0.18 3.41,0.2 l 3.42,0.09 c 2.28,0.06 4.57,0.13 6.86,0.19 4.57,0.15 9.15,0.31 13.73,0.46 2.29,0.12 4.6,0.1 6.9,0.14 2.31,0.03 4.61,0.06 6.91,0.09 18.4,0.2 36.69,0.12 54.42,-0.1 2.89,-0.72 6.46,-0.96 10.15,-1.05 1.85,-0.05 3.73,-0.11 5.57,-0.16 1.84,-0.08 3.64,-0.23 5.33,-0.47 1.79,-0.85 5.56,-0.76 7.94,-0.82 11.78,-2.32 24.6,-3.67 37.59,-5.35 13,-1.63 26.2,-3.35 38.62,-6.11 22.56,-4.97 46.6,-11.19 71.15,-18.69 12.25,-3.83 24.66,-7.89 37.03,-12.39 12.35,-4.53 24.74,-9.3 36.95,-14.53 12.19,-5.24 24.28,-10.75 36.07,-16.66 11.77,-5.93 23.3,-12.12 34.42,-18.62 11.08,-6.56 21.83,-13.29 32.04,-20.28 2.57,-1.72 5.04,-3.54 7.54,-5.29 1.25,-0.88 2.49,-1.76 3.73,-2.63 1.22,-0.91 2.43,-1.81 3.64,-2.7 2.41,-1.8 4.8,-3.59 7.18,-5.37 2.33,-1.83 4.64,-3.65 6.93,-5.45 0.03,0.07 0.06,0.15 0.11,0.21 35.67,-29.25 66.87,-64.47 90.45,-103.98 1.51,-2.44 2.88,-4.98 4.32,-7.46 1.43,-2.49 2.88,-4.97 4.19,-7.52 l 4.03,-7.603 c 1.29,-2.559 2.52,-5.146 3.78,-7.714 l 1.89,-3.855 1.76,-3.913 3.52,-7.82 3.24,-7.924 1.63,-3.957 1.49,-4.008 2.98,-8.002 c 0.91,-2.698 1.81,-5.394 2.72,-8.088 l 1.36,-4.036 1.23,-4.079 c 0.82,-2.716 1.64,-5.431 2.46,-8.143 2.98,-10.937 5.81,-21.884 7.94,-32.955 -0.07,-1.341 -0.02,-2.768 0.14,-4.257 0.07,-0.745 0.17,-1.505 0.29,-2.277 0.1,-0.776 0.21,-1.567 0.34,-2.366 0.51,-3.198 1.28,-6.544 2.04,-9.821 0.76,-3.279 1.36,-6.519 1.81,-9.434 0.41,-2.922 0.68,-5.52 0.31,-7.587 1.16,-5.265 1.09,-9.961 0.85,-14.212 -0.26,-4.26 -0.5,-8.056 0.66,-11.622 -0.72,-2.77 -0.49,-6.382 0.25,-9.301 -0.02,0.021 -0.05,0.064 -0.08,0.107 0.18,-16.419 -0.33,-32.874 -1.86,-49.186 -1.53,-16.316 -3.91,-32.518 -7.18,-48.5 l -1.28,-5.982 c -0.43,-1.991 -0.81,-3.994 -1.34,-5.962 l -2.95,-11.85 -3.37,-11.726 c -0.52,-1.962 -1.18,-3.887 -1.81,-5.817 l -1.88,-5.79 c -5.16,-15.393 -11.21,-30.44 -18.13,-45.046 -6.94,-14.597 -14.89,-28.669 -23.56,-42.25 -4.26,-6.837 -8.96,-13.387 -13.59,-19.964 l -7.29,-9.63 c -1.18,-1.626 -2.49,-3.166 -3.76,-4.726 l -3.82,-4.676 c -20.48,-24.858 -43.96,-47.202 -69.4,-67.145 -0.85,-0.871 -1.72,-1.744 -2.63,-2.619 -0.91,-0.867 -1.89,-1.688 -2.88,-2.536 -1.99,-1.684 -4.08,-3.372 -6.26,-5.063 -4.31,-3.456 -9.22,-6.6 -14.23,-9.855 -4.96,-3.31 -10.37,-6.26 -15.7,-9.36 l -4.02,-2.31 c -1.34,-0.76 -2.72,-1.46 -4.08,-2.2 -2.72,-1.47 -5.43,-2.93 -8.12,-4.38 -21.52,-11.66 -41.83,-22.1 -50.71,-35.5 -1.33,-3.93 1.73,-5.45 6.31,-6.01 4.56,-0.56 10.63,-0.15 15.16,-0.27 2.05,0.42 4.05,1.02 6.06,1.67 2,0.66 4.01,1.38 6.01,2.17 2,0.79 3.99,1.64 5.98,2.54 0.99,0.46 1.99,0.91 2.98,1.4 0.97,0.51 1.94,1.03 2.92,1.54 3.89,2.1 7.75,4.34 11.59,6.63 1.93,1.12 3.8,2.36 5.67,3.59 1.87,1.22 3.73,2.44 5.59,3.66 1.52,1.07 3.05,1.9 4.63,2.57 1.59,0.66 3.22,1.16 4.89,1.66 3.36,0.95 7.05,1.58 11.33,2.56 2.14,0.5 4.45,1.03 6.87,1.84 2.42,0.81 5.01,1.81 7.8,3.06 2.78,1.25 5.79,2.74 8.98,4.62 3.14,1.96 6.5,4.26 10.09,6.99 1.7,1.27 3.45,2.49 5.13,3.81 l 5.01,3.96 5.02,3.97 c 1.67,1.33 3.37,2.63 4.97,4.039 l 9.77,8.315 c 1.65,1.364 3.22,2.821 4.79,4.271 l 4.74,4.343 4.74,4.349 c 1.56,1.474 3.06,3.006 4.59,4.507 3.04,3.037 6.15,5.998 9.12,9.104 l 8.83,9.415 c 1.5,1.548 2.89,3.191 4.31,4.816 l 4.23,4.881 4.23,4.893 4.06,5.045 4.05,5.05 2.03,2.528 1.93,2.602 7.72,10.42 7.33,10.718 c 9.56,14.437 18.28,29.461 26.07,44.982 7.74,15.546 14.42,31.621 20.19,48.007 5.76,16.391 10.56,33.128 14.21,50.095 3.7,16.956 6.43,34.101 8.26,51.314 1.83,17.215 2.56,34.503 2.58,51.732 1.2,2.75 1.3,9.258 0.4,13.048"
       style="fill:#040606;fill-opacity:1;fill-rule:nonzero;stroke:none;stroke-width:0.1"
       id="path16" />
    <path
       d="m 570.539,1027.54 c -0.312,-0.39 -0.61,-0.81 -0.893,-1.25 0.301,0.42 0.594,0.83 0.893,1.25"
       style="fill:#040606;fill-opacity:1;fill-rule:nonzero;stroke:none;stroke-width:0.1"
       id="path18" />
    <path
       d="m 1165.71,761.175 c 1.49,1.876 2.93,3.751 4.95,4.976 6.95,10.337 17.61,18.239 26.19,28.309 2.23,2.712 4.5,5.328 6.79,8.058 l 3.45,4.039 3.47,4.112 1.74,2.047 1.73,2.103 3.48,4.19 3.44,4.32 1.73,2.157 1.68,2.231 3.38,4.471 3.27,4.64 1.63,2.328 c 0.54,0.781 1.04,1.606 1.57,2.408 l 3.11,4.857 c 1.96,3.353 3.84,6.8 5.76,10.229 1.76,3.492 3.36,7.069 5.04,10.635 6.54,14.852 10.43,31.028 11.68,47.444 1.24,16.429 -0.13,33.107 -3.87,49.272 -3.74,16.169 -9.87,31.841 -18.15,46.349 -8.25,14.52 -18.76,27.81 -30.59,39.26 0.06,0.05 0.12,0.11 0.18,0.16 -2.09,1.85 -4.14,3.78 -6.3,5.58 -2.21,1.74 -4.43,3.48 -6.66,5.23 -2.18,1.8 -4.57,3.32 -6.9,4.92 l -3.51,2.38 -1.76,1.18 -1.82,1.08 c -2.44,1.41 -4.87,2.82 -7.3,4.22 -1.2,0.73 -2.46,1.32 -3.71,1.93 -1.26,0.61 -2.51,1.22 -3.75,1.82 -1.25,0.6 -2.5,1.2 -3.74,1.79 -1.22,0.62 -2.53,1.05 -3.79,1.58 -2.54,1.01 -5.06,1.98 -7.57,2.93 v -0.19 c -2.57,1.07 -5.06,1.96 -7.47,3.05 -1.21,0.53 -2.4,1.1 -3.59,1.72 -1.05,0.55 -2.13,1.04 -3.2,1.61 0.17,-0.14 0.3,-0.33 0.35,-0.66 -1.34,0.38 -2.68,0.77 -4.03,1.15 0.32,0.33 0.61,0.43 0.89,0.41 -3.23,0.77 -6.34,1.88 -9.67,2.55 -1.6,-1.35 -4.79,-0.77 -6.26,1.2 -0.63,-0.63 -1.54,-0.73 -2.43,-0.58 -0.89,0.14 -1.76,0.57 -2.28,1.15 l 0.01,0.03 c -0.02,0.04 -0.04,0.07 -0.05,0.12 -1.07,-0.95 -1.98,-0.52 -2.88,0.25 l 0.09,0.26 c -6.26,1 -12.64,1.27 -18.99,1.62 l -9.58,-0.06 c -0.8,-0.01 -1.59,0 -2.39,-0.04 l -2.4,-0.18 -4.79,-0.38 c -0.01,0.08 -0.01,0.17 -0.01,0.24 -1.82,-0.25 -3.64,-0.4 -5.46,-0.68 l -5.46,-0.87 -5.47,-0.8 c -1.81,-0.32 -3.61,-0.75 -5.41,-1.12 -3.6,-0.79 -7.24,-1.49 -10.71,-2.71 -1.75,-0.56 -3.49,-1.14 -5.22,-1.76 l -2.58,-0.94 c -0.84,-0.36 -1.67,-0.76 -2.49,-1.15 0.09,-0.01 0.57,0.15 1.24,0.39 0.34,0.13 0.72,0.27 1.13,0.42 0.42,0.13 0.87,0.27 1.32,0.41 1.79,0.57 3.61,1.15 3.87,1.23 l 0.14,-0.49 -4.42,-1.4 c -1.47,-0.48 -2.88,-1.1 -4.32,-1.64 l -4.3,-1.71 -2.15,-0.86 c -0.72,-0.28 -1.43,-0.58 -2.12,-0.92 l -8.3,-4.01 c -1.4,-0.64 -2.73,-1.41 -4.06,-2.17 l -3.99,-2.27 c -0.11,0.45 0.04,0.69 0.25,0.89 -12.725,-7.85 -25.289,-15.99 -36.385,-25.88 -11.036,-9.85 -20.615,-21.47 -25.948,-34.94 -0.817,-0.15 -1.248,-0.86 -1.183,-1.63 -2.448,-1.21 -2.491,-4.43 -4.538,-6.08 -1.026,-0.95 -1.902,-2.13 -1.548,-3.65 l 0.239,-0.06 c -0.937,-2.02 -1.918,-4.017 -2.993,-5.959 -1.047,-1.957 -2.236,-3.843 -3.275,-5.809 -1.004,-1.982 -2.011,-3.97 -2.96,-5.986 -0.475,-1.008 -0.936,-2.023 -1.374,-3.046 -0.214,-0.514 -0.444,-1.021 -0.629,-1.547 l -0.503,-1.597 c -1.324,-4.99 -2.175,-10.13 -3.479,-15.202 -2.608,-9.044 -4.34,-18.359 -5.129,-27.867 -0.796,-9.504 -0.628,-19.215 0.754,-28.995 1.365,-9.77 3.895,-19.621 7.874,-29.197 3.968,-9.565 9.428,-18.849 16.372,-27.151 l 0.409,0.314 c 1.501,-1.662 4.036,-4.544 5.634,-6.152 l -0.007,-0.007 c 3.734,-3.426 7.585,-6.777 11.621,-9.776 4.027,-3.004 8.284,-5.547 12.637,-7.248 6.72,-3.307 13.746,-5.904 21.005,-7.61 7.252,-1.715 14.726,-2.63 22.276,-2.408 2.08,0.208 7.87,0.316 15.29,1.74 1.85,0.315 3.81,0.847 5.82,1.336 2.01,0.608 4.08,1.172 6.16,1.987 4.17,1.493 8.39,3.539 12.28,5.944 3.9,2.361 7.42,5.257 10.31,8.137 2.86,2.948 5.1,5.921 6.48,8.633 1.43,2.677 2.01,5.062 1.86,6.78 -0.15,1.727 -1.07,2.815 -2.83,3.231 -3.25,0.836 -6.14,1.596 -8.81,2.231 -1.35,0.33 -2.62,0.619 -3.84,0.853 -1.2,0.228 -2.36,0.411 -3.49,0.569 -1.12,0.145 -2.19,0.222 -3.2,0.221 -1.05,0.038 -2.05,-0.003 -3.02,-0.14 -1.96,-0.236 -3.82,-0.774 -5.76,-1.678 -1.11,-0.711 -2.48,-0.69 -3.82,-0.55 -1.36,0.172 -2.65,0.375 -3.84,0.1 -2.65,-0.755 -5.74,-1.917 -8.06,-3.262 -1.32,0.019 -2.7,0.919 -3.93,0.097 -3.37,-1.56 -7.89,-0.804 -11.33,0.517 -4.84,0.53 -9.726,1.427 -14.381,3.043 -4.636,1.624 -9.092,3.839 -12.804,6.872 -2.6,2.345 -5.087,4.582 -7.477,6.849 -0.578,0.588 -1.175,1.137 -1.775,1.715 -0.586,0.636 -1.183,1.26 -1.793,1.875 -0.609,0.615 -1.231,1.221 -1.866,1.821 -0.597,0.632 -1.158,1.301 -1.757,1.941 -4.765,5.118 -9.313,10.886 -12.83,17.533 -1.804,5.978 -3.111,12.15 -4.172,18.423 -0.589,3.13 -0.885,6.328 -1.29,9.525 l -0.357,4.839 c -0.083,0.808 -0.107,1.619 -0.119,2.432 l -0.065,2.441 -0.068,2.447 0.061,2.451 0.058,2.456 0.028,1.231 0.097,1.226 0.389,4.916 0.671,4.89 c 0.187,1.641 0.594,3.236 0.9,4.854 l 0.501,2.419 c 0.209,0.798 0.447,1.591 0.672,2.385 l 1.404,4.753 0.729,2.366 c 0.287,0.773 0.612,1.533 0.922,2.298 l 0.213,-0.084 c 0.758,1.964 1.441,3.932 2.087,5.909 0.169,0.491 0.304,0.996 0.494,1.477 l 0.578,1.443 1.137,2.895 1.135,2.906 c 0.382,0.97 0.747,1.952 1.239,2.874 0.927,1.874 1.889,3.749 2.917,5.613 -1.007,1.211 -0.932,2.024 -0.561,2.717 0.361,0.701 1.122,1.216 1.354,1.956 1.394,1.23 2.642,2.52 3.794,3.87 0.577,0.68 1.129,1.37 1.664,2.07 l 1.699,2.04 c 1.115,1.38 2.184,2.8 3.253,4.24 0.543,0.71 1.048,1.45 1.627,2.14 0.592,0.68 1.187,1.36 1.784,2.05 9.099,11.13 20.149,20.91 32.318,28.82 l 0.3,-0.42 c 1.18,0.68 2.34,1.39 3.52,2.05 l 3.65,1.81 3.63,1.82 c 0.6,0.29 1.19,0.63 1.81,0.89 l 1.87,0.79 c 2.46,1.07 4.93,2.14 7.4,3.21 2.52,0.92 5.02,1.87 7.5,2.87 -0.03,0.08 -0.06,0.15 -0.09,0.23 0.99,0.23 4.11,1.37 7.21,2.49 0.78,0.28 1.55,0.54 2.29,0.78 0.74,0.25 1.45,0.45 2.11,0.53 1.31,0.22 2.34,0.26 2.81,-0.03 5.7,0.92 11.42,1.63 17.14,1.9 2.87,-0.01 5.73,-0.1 8.56,-0.37 2.85,-0.47 5.66,-1.14 8.38,-2.07 10.22,-1.51 20.15,-2.81 30.07,-4.96 9.85,-2.29 19.62,-5.54 28.63,-10.62 0.04,0.08 0.07,0.15 0.1,0.22 3.06,-2.39 6.38,-4.23 9.59,-6.3 1.63,-0.98 3.33,-1.88 5.02,-2.8 1.63,-1 3.29,-1.97 4.97,-2.93 l 2.54,-1.42 c 0.86,-0.46 1.63,-1.04 2.45,-1.56 l 4.87,-3.22 1.2,-0.83 1.13,-0.91 2.23,-1.87 c 1.46,-1.28 2.96,-2.53 4.27,-3.95 0.13,0.12 0.24,0.22 0.37,0.34 1.3,-1.71 2.68,-3.33 4.13,-4.91 0.7,-0.8 1.51,-1.53 2.18,-2.37 0.69,-0.82 1.39,-1.64 2.09,-2.46 0.72,-0.81 1.43,-1.63 2.15,-2.44 0.7,-0.83 1.5,-1.59 2.12,-2.49 1.31,-1.75 2.62,-3.51 3.89,-5.31 l 1.15,-1.713 1.06,-1.782 c 0.72,-1.186 1.45,-2.361 2.21,-3.533 0.73,-1.183 1.57,-2.309 2.26,-3.531 0.69,-1.219 1.39,-2.441 2.08,-3.664 l 2.11,-3.683 c 0.68,-1.245 1.23,-2.554 1.84,-3.839 0.59,-1.292 1.17,-2.592 1.73,-3.9 0.27,-0.659 0.58,-1.299 0.8,-1.979 l 0.64,-2.039 c -0.07,-0.021 -0.15,-0.045 -0.23,-0.066 0.69,-2.245 1.45,-4.49 2.27,-6.727 0.67,-2.282 1.38,-4.565 2.17,-6.828 0.37,-1.138 0.87,-2.247 1.19,-3.397 0.35,-1.143 0.71,-2.281 1.1,-3.413 0.39,-1.133 0.8,-2.26 1.23,-3.381 l 0.65,-1.678 c 0.21,-0.56 0.38,-1.125 0.58,-1.685 -0.93,-1.672 0.81,-3.688 0.69,-5.509 -0.61,-0.553 -0.05,-1.484 0.2,-2.09 -0.79,-3.217 -0.61,-6.56 -0.13,-9.987 0.3,-3.421 0.63,-6.936 0.28,-10.265 -1.92,-12.045 -4.92,-25.578 -9.76,-38.461 -1.35,-3.158 -2.57,-6.367 -3.93,-9.488 -0.75,-1.527 -1.49,-3.049 -2.23,-4.563 -0.37,-0.759 -0.73,-1.516 -1.1,-2.27 -0.35,-0.758 -0.71,-1.51 -1.14,-2.236 -0.82,-1.468 -1.63,-2.926 -2.43,-4.369 -0.39,-0.729 -0.81,-1.441 -1.25,-2.138 -0.43,-0.702 -0.86,-1.401 -1.28,-2.096 -1.64,-2.803 -3.46,-5.459 -5.16,-8.051 0.06,-0.04 0.14,-0.086 0.2,-0.126 -14.9,-19.741 -35.29,-36.292 -52.45,-56.588 -1.01,-0.161 -1.79,-0.69 -2.42,-1.408 -0.63,-0.735 -1.12,-1.651 -1.59,-2.558 -0.93,-1.816 -1.74,-3.589 -3.36,-3.853 -0.93,-3.315 -5.44,-2.949 -5.33,-5.756 -1.23,-0.122 -1.76,-1.13 -1.79,-2.204 -0.01,0.017 -0.02,0.044 -0.04,0.071 -1.61,-1.935 -3.3,-3.809 -4.87,-5.819 l -4.73,-6.06 c -1.55,-2.046 -2.99,-4.17 -4.49,-6.269 -0.73,-1.059 -1.51,-2.098 -2.21,-3.183 l -2.09,-3.261 c -2.87,-4.322 -5.37,-8.855 -7.95,-13.397 -2.38,-4.626 -4.81,-9.273 -6.86,-14.092 -4.24,-9.586 -7.83,-19.545 -10.4,-29.803 -0.33,-1.281 -0.7,-2.554 -0.98,-3.847 l -0.83,-3.881 c -0.52,-2.594 -1.13,-5.182 -1.49,-7.808 -0.4,-2.619 -0.8,-5.243 -1.16,-7.873 -0.26,-2.64 -0.51,-5.284 -0.74,-7.93 0.46,-1.604 0.7,-3.32 0.75,-5.122 0.04,-1.802 -0.12,-3.69 -0.38,-5.636 -0.3,-1.945 -0.5,-3.953 -0.8,-5.98 -0.28,-2.027 -0.58,-4.076 -0.74,-6.095 -0.19,-4.034 -0.08,-7.972 1.34,-11.287 1.45,-3.312 4.02,-5.998 8.42,-7.512 3.04,-0.452 5.63,0.625 7.94,2.113 2.31,1.494 4.34,3.405 6.25,4.777 0.83,1.253 1.34,2.49 1.63,3.721 0.29,1.231 0.44,2.465 0.41,3.696 -0.03,1.231 -0.19,2.463 -0.42,3.696 -0.22,1.233 -0.52,2.466 -0.69,3.699 -0.59,2.054 2.27,3.736 5.23,5.993 0.74,0.565 1.48,1.167 2.18,1.823 0.73,0.656 1.41,1.365 2,2.147 1.18,1.564 1.98,3.411 1.97,5.734 0.81,8.752 2.14,17.459 4.05,26.036 2,8.561 4.53,16.977 7.56,25.179 3.13,8.173 6.79,16.095 10.89,23.722 4.14,7.618 8.86,14.811 13.91,21.713 1.44,-0.146 2.43,1.112 2.43,2.266 1.5,0.623 0.59,3.003 1.87,3.945 2.04,1.343 3.4,3.265 4.88,5.143"
       style="fill:#040606;fill-opacity:1;fill-rule:nonzero;stroke:none;stroke-width:0.1"
       id="path20" />
    <path
       d="m 1136.3,1090.6 c -0.13,0.1 -0.28,0.17 -0.43,0.23 0.14,-0.08 0.29,-0.16 0.43,-0.23"
       style="fill:#040606;fill-opacity:1;fill-rule:nonzero;stroke:none;stroke-width:0.1"
       id="path22" />
    <path
       d="m 1076.05,576.87 c 0.08,0.003 0.15,0.005 0.22,0.008 -0.08,0.019 -0.15,0.012 -0.22,-0.008"
       style="fill:#040606;fill-opacity:1;fill-rule:nonzero;stroke:none;stroke-width:0.1"
       id="path24" />
    <path
       d="m 1137.2,528.163 c -0.08,-0.664 -0.16,-1.331 -0.24,-2.002 -0.13,-0.799 -0.26,-1.601 -0.39,-2.404 l -0.47,-2.358 c -0.67,-3.102 -1.49,-5.982 -2.02,-8.718 -2.27,-0.295 0.75,-1.853 -1.08,-2.039 0.87,-0.847 -2.28,-0.647 -0.99,-1.345 -0.74,0.004 -0.7,-0.211 -0.27,-0.485 -0.02,0.005 -0.04,0.012 -0.06,0.02 -2.44,-3.302 -5.41,-5.701 -8.21,-7.373 -2.83,-1.7 -5.46,-2.773 -7.88,-4.24 0.22,-0.97 -0.26,-1.246 -0.92,-1.265 -0.68,-0.009 -1.47,0.198 -2.18,0.255 -0.74,0.057 -1.25,-0.137 -1.24,-1.177 -0.26,0.017 -0.53,0.038 -0.79,0.044 -0.61,0.03 -1.22,0.044 -1.83,0.093 -0.62,0.113 -1.23,0.243 -1.83,0.417 -0.6,0.178 -1.19,0.361 -1.76,0.743 -0.79,0.681 -1.58,1.029 -2.41,1.252 -0.82,0.278 -1.69,0.355 -2.61,0.322 -1.79,0.071 -3.84,-0.261 -5.83,-0.086 -0.31,0.255 -0.63,0.491 -0.95,0.712 -0.31,0.244 -0.61,0.493 -0.93,0.717 -0.63,0.46 -1.31,0.832 -1.98,1.228 -1.28,0.865 -2.73,1.522 -4.04,2.407 -1.41,0.772 -2.63,1.777 -3.91,2.771 -0.57,0.55 -1.11,1.136 -1.64,1.733 -0.25,0.306 -0.54,0.59 -0.73,0.931 -0.21,0.336 -0.4,0.678 -0.59,1.025 l 0.16,0.097 c -0.53,0.84 -1.28,1.531 -1.89,2.352 -0.33,0.396 -0.66,0.796 -0.97,1.212 -0.28,0.432 -0.52,0.891 -0.73,1.369 -2.29,-0.618 -1.27,0.291 -1.71,0.524 0.44,1.11 0.48,2.021 0.28,2.876 -0.17,0.858 -0.43,1.707 -0.62,2.585 -0.93,3.451 -1.17,7.156 -0.89,10.802 l 0.41,-0.023 c 0.69,2.688 1.62,5.23 2.31,7.798 -0.07,0.016 -0.13,0.031 -0.2,0.047 0.27,0.189 0.23,1.061 0.43,1.863 0.17,0.808 0.44,1.58 1.08,1.558 0.44,0.605 0.87,1.2 1.24,1.813 0.37,0.615 0.78,1.209 1.26,1.749 0.75,0.79 1.91,1.475 3.58,1.307 0.43,0.207 0.8,0.422 1.13,0.665 0.16,0.117 0.31,0.255 0.46,0.372 0.21,0.068 0.4,0.142 0.59,0.223 0.75,0.333 1.42,0.711 2.09,1.119 l 1.04,0.584 c 0.4,0.192 1,0.453 1.54,0.674 1.12,0.41 2.28,0.742 3.52,0.774 -0.02,0.066 -0.04,0.124 -0.06,0.19 2.01,-0.623 3.59,-0.025 5.27,0.793 1.66,0.759 3.45,1.729 5.26,1.521 0,0.137 0,0.263 0.01,0.404 1.95,-0.713 4,0 6.04,-0.304 2.43,-0.608 5.32,-0.037 7.69,-1.205 -0.02,-0.055 -0.05,-0.118 -0.07,-0.174 1.93,-0.942 4.09,-1.508 6.9,-1.369 -0.19,-0.919 0.91,-0.286 1.12,-0.749 -0.23,-0.504 0.17,-0.354 0.38,-0.335 0.12,-1.088 0.76,-1.542 1.54,-1.914 0.38,-0.187 0.81,-0.335 1.17,-0.554 0.36,-0.227 0.67,-0.498 0.88,-0.868 1.34,-2.793 2.9,-5.668 4.22,-8.566 1.33,-2.889 2.42,-5.79 3.13,-8.4 0.05,0.014 0.12,0.029 0.18,0.043 0.02,-0.681 0.05,-1.357 0.01,-2.031 z m 21.14,-14.573 c 0.11,0.51 0.24,1.019 0.37,1.531 0.56,2.057 1.07,4.116 1.02,6.169 -0.09,1.061 -0.14,2.123 -0.16,3.183 -0.05,1.042 -0.06,2.059 -0.06,3.128 -0.05,1.282 -0.1,2.567 -0.15,3.859 -0.11,1.28 -0.22,2.566 -0.33,3.859 -0.56,5.138 -1.65,10.279 -3.44,15.224 -1.76,5.153 -4.67,9.912 -8.34,14.007 -3.68,4.101 -8.12,7.553 -13.04,10.261 -2.45,1.362 -5.04,2.522 -7.71,3.505 -2.7,0.982 -5.39,1.763 -8.09,2.332 -5.41,1.169 -10.82,1.65 -16.14,1.73 0,0.061 0,0.129 0,0.19 -7.18,-0.437 -14.6,-1.807 -20.79,-4.723 l 0.06,-0.123 c -0.85,-0.235 -1.65,-0.489 -2.49,-0.64 -0.43,-0.079 -0.82,-0.114 -1.32,-0.147 -0.44,-0.017 -0.93,-0.036 -1.46,-0.057 0.11,-0.025 0.23,-0.101 0.39,-0.302 -0.54,-0.24 -1.09,-0.481 -1.63,-0.722 -0.06,0.325 -0.03,0.495 0.06,0.587 -1.24,-0.701 -2.6,-1.164 -3.87,-1.858 0.21,-1.389 -0.9,-2.081 -2.34,-1.394 0.3,-1.166 -0.71,-1.507 -1.66,-1.144 l -0.01,0.02 c -0.03,0.017 -0.05,0.031 -0.08,0.058 0.21,-0.885 -0.28,-0.897 -0.98,-0.72 l -0.12,0.177 -1.75,-1.042 -0.43,-0.26 c -0.14,-0.095 -0.2,-0.27 -0.31,-0.401 l -0.56,-0.849 -2.24,-3.395 c -0.72,-1.147 -1.41,-2.316 -2.12,-3.473 -0.7,-1.176 -1.41,-2.267 -2.02,-3.58 -0.05,0.031 -0.11,0.065 -0.17,0.095 -0.27,-0.689 -0.55,-1.365 -0.82,-2.041 -0.22,-0.543 -0.49,-1.071 -0.7,-1.616 -0.46,-1.08 -0.96,-2.147 -1.44,-3.222 -0.87,-2.177 -1.71,-4.399 -1.86,-6.781 0.17,0.067 0.68,2.264 0.76,2.427 l 0.39,-0.125 c -1.08,-3.777 -1.96,-7.635 -2.35,-11.584 -0.35,0.082 -0.45,0.176 -0.49,0.273 -0.19,-4.851 -1.18,-9.712 -1.1,-14.765 0.06,-4.994 1.2,-10.165 4.74,-14.065 -0.39,-0.347 -0.25,-0.6 0.15,-0.674 -0.85,-1.176 0.66,-1.613 0.26,-2.691 -0.15,-0.558 -0.1,-1.09 0.86,-1.108 l 0.16,0.097 c 0.79,-1.333 1.16,-2.835 1.61,-4.356 0.52,-1.507 1.05,-3.048 1.93,-4.369 0.53,-0.751 1.26,-1.331 1.93,-1.955 0.68,-0.619 1.33,-1.251 1.81,-2.011 3.42,-5.498 7.87,-10.284 12.97,-14.147 5.12,-3.826 10.9,-6.691 17.07,-8.559 l 0.11,0.394 c 0.64,-0.169 1.76,-0.468 2.39,-0.635 v -0.007 c 1.38,-0.203 2.78,-0.534 4.18,-0.879 1.4,-0.316 2.79,-0.666 4.21,-0.436 2.21,-0.16 4.4,-0.47 6.69,-0.4 1.14,0.01 2.27,0.03 3.41,0.1 1.13,0.07 2.28,0.29 3.41,0.493 0.31,0.123 0.89,0.255 1.68,0.419 0.39,0.081 0.83,0.173 1.31,0.272 0.48,0.137 1,0.286 1.55,0.444 1.1,0.327 2.31,0.717 3.53,1.181 1.22,0.442 2.44,1.155 3.59,1.833 1.14,0.729 2.22,1.418 3.08,2.361 0.81,0.85 1.45,1.743 1.88,2.654 4.57,2.857 8.95,6.478 12.64,10.894 3.91,4.652 7,10.112 9.13,15.77 1.04,-0.025 1.25,0.52 0.82,0.968 0.8,0.314 -0.72,1.174 -0.25,1.595 0.41,0.313 0.66,0.675 0.83,1.058 0.15,0.382 0.22,0.784 0.29,1.185 0.13,0.802 0.26,1.59 1.02,2.245 -0.04,1.075 -0.01,2.099 0.19,3.133 0.09,0.515 0.21,1.03 0.34,1.545"
       style="fill:#040606;fill-opacity:1;fill-rule:nonzero;stroke:none;stroke-width:0.1"
       id="path26" />
  </g>
</svg>
