<?xml version="1.0" encoding="UTF-8" standalone="no"?>
<!-- Created with Inkscape (http://www.inkscape.org/) -->

<svg
   version="1.1"
   id="svg6850"
   width="604.30396"
   height="596.16803"
   viewBox="0 0 604.30395 596.16803"
   sodipodi:docname="360534168_11453337.eps"
   xmlns:inkscape="http://www.inkscape.org/namespaces/inkscape"
   xmlns:sodipodi="http://sodipodi.sourceforge.net/DTD/sodipodi-0.dtd"
   xmlns="http://www.w3.org/2000/svg"
   xmlns:svg="http://www.w3.org/2000/svg">
  <defs
     id="defs6854" />
  <sodipodi:namedview
     id="namedview6852"
     pagecolor="#ffffff"
     bordercolor="#000000"
     borderopacity="0.25"
     inkscape:showpageshadow="2"
     inkscape:pageopacity="0.0"
     inkscape:pagecheckerboard="0"
     inkscape:deskcolor="#d1d1d1"
     showgrid="false" />
  <g
     id="g6858"
     inkscape:groupmode="layer"
     inkscape:label="Page 1"
     transform="matrix(1.3333333,0,0,-1.3333333,0,596.16799)">
    <path
       d="m 418.834,102.062 c -4.183,-2.4651 -8.532,-7.8921 -11.273,-12.7429 -0.976,-1.7269 -2.013,-4.7949 -2.49,-6.6031 -1.191,-4.5211 -1.236,-9.8941 -0.717,-10.1898 1.104,-0.6282 6.087,5.2527 7.288,6.9777 3.339,4.7961 6.036,9.043 7.146,14.5602 0.213,1.0601 1.407,8.7999 0.046,7.9979"
       style="fill:#dc4947;fill-opacity:1;fill-rule:nonzero;stroke:none;stroke-width:0.1"
       id="path6862"
       inkscape:export-filename="../PycharmProjects/labcsi/static/images/quizzLog.svg"
       inkscape:export-xdpi="96"
       inkscape:export-ydpi="96" />
    <path
       d="m 424.603,72.475 c -4.168,-0.616 -9.642,-3.5 -13.661,-6.4379 -1.431,-1.0461 -3.443,-3.1219 -4.526,-4.3879 -2.708,-3.166 -4.881,-7.3601 -4.603,-7.7543 0.591,-0.8379 6.729,2.2012 8.331,3.175 4.453,2.7071 8.198,5.1852 11.24,9.1571 0.586,0.7621 4.576,6.448 3.219,6.248"
       style="fill:#dc4947;fill-opacity:1;fill-rule:nonzero;stroke:none;stroke-width:0.1"
       id="path6864" />
    <path
       d="m 392.528,84.3059 c -1.26,-3.059 -1.048,-8.0407 -0.155,-12.077 0.318,-1.4367 1.311,-3.7379 1.978,-5.0449 1.67,-3.2688 4.498,-6.6578 4.973,-6.6559 1.011,0.0051 0.948,5.5 0.77,7.0168 -0.497,4.2192 -1.097,7.8602 -3.346,11.725 -0.432,0.7422 -3.81,6.0321 -4.22,5.036"
       style="fill:#dc4947;fill-opacity:1;fill-rule:nonzero;stroke:none;stroke-width:0.1"
       id="path6866" />
    <path
       d="m 405.359,74.3949 c 0,0 -2.707,-6.6879 -4.373,-14.7918 -1.96,-9.539 -2.767,-19.9172 -2.767,-19.9172"
       style="fill:none;stroke:#dc4947;stroke-width:2;stroke-linecap:round;stroke-linejoin:round;stroke-miterlimit:11.9056;stroke-dasharray:none;stroke-opacity:1"
       id="path6868" />
    <path
       d="M 1,39.6859 H 452.228"
       style="fill:none;stroke:#17282f;stroke-width:2;stroke-linecap:round;stroke-linejoin:round;stroke-miterlimit:11.9056;stroke-dasharray:none;stroke-opacity:1"
       id="path6870" />
    <path
       d="m 424.883,222.361 v -3.82"
       style="fill:none;stroke:#17282f;stroke-width:2;stroke-linecap:round;stroke-linejoin:round;stroke-miterlimit:11.9056;stroke-dasharray:none;stroke-opacity:1"
       id="path6872" />
    <path
       d="m 424.883,214.234 v -3.82"
       style="fill:none;stroke:#17282f;stroke-width:2;stroke-linecap:round;stroke-linejoin:round;stroke-miterlimit:11.9056;stroke-dasharray:none;stroke-opacity:1"
       id="path6874" />
    <path
       d="m 430.856,216.387 h -3.82"
       style="fill:none;stroke:#17282f;stroke-width:2;stroke-linecap:round;stroke-linejoin:round;stroke-miterlimit:11.9056;stroke-dasharray:none;stroke-opacity:1"
       id="path6876" />
    <path
       d="M 422.729,216.387 H 418.91"
       style="fill:none;stroke:#17282f;stroke-width:2;stroke-linecap:round;stroke-linejoin:round;stroke-miterlimit:11.9056;stroke-dasharray:none;stroke-opacity:1"
       id="path6878" />
    <path
       d="m 23.9145,298.939 v -3.82"
       style="fill:none;stroke:#17282f;stroke-width:2;stroke-linecap:round;stroke-linejoin:round;stroke-miterlimit:11.9056;stroke-dasharray:none;stroke-opacity:1"
       id="path6880" />
    <path
       d="m 23.9145,290.812 v -3.82"
       style="fill:none;stroke:#17282f;stroke-width:2;stroke-linecap:round;stroke-linejoin:round;stroke-miterlimit:11.9056;stroke-dasharray:none;stroke-opacity:1"
       id="path6882" />
    <path
       d="M 29.8879,292.966 H 26.068"
       style="fill:none;stroke:#17282f;stroke-width:2;stroke-linecap:round;stroke-linejoin:round;stroke-miterlimit:11.9056;stroke-dasharray:none;stroke-opacity:1"
       id="path6884" />
    <path
       d="M 21.7609,292.966 H 17.941"
       style="fill:none;stroke:#17282f;stroke-width:2;stroke-linecap:round;stroke-linejoin:round;stroke-miterlimit:11.9056;stroke-dasharray:none;stroke-opacity:1"
       id="path6886" />
    <path
       d="m 212.079,240.03 v -3.819"
       style="fill:none;stroke:#17282f;stroke-width:2;stroke-linecap:round;stroke-linejoin:round;stroke-miterlimit:11.9056;stroke-dasharray:none;stroke-opacity:1"
       id="path6888" />
    <path
       d="m 212.079,231.904 v -3.82"
       style="fill:none;stroke:#17282f;stroke-width:2;stroke-linecap:round;stroke-linejoin:round;stroke-miterlimit:11.9056;stroke-dasharray:none;stroke-opacity:1"
       id="path6890" />
    <path
       d="m 218.052,234.057 h -3.82"
       style="fill:none;stroke:#17282f;stroke-width:2;stroke-linecap:round;stroke-linejoin:round;stroke-miterlimit:11.9056;stroke-dasharray:none;stroke-opacity:1"
       id="path6892" />
    <path
       d="m 209.925,234.057 h -3.82"
       style="fill:none;stroke:#17282f;stroke-width:2;stroke-linecap:round;stroke-linejoin:round;stroke-miterlimit:11.9056;stroke-dasharray:none;stroke-opacity:1"
       id="path6894" />
    <path
       d="m 190.907,436.683 v -3.82"
       style="fill:none;stroke:#17282f;stroke-width:2;stroke-linecap:round;stroke-linejoin:round;stroke-miterlimit:11.9056;stroke-dasharray:none;stroke-opacity:1"
       id="path6896" />
    <path
       d="m 190.907,428.555 v -3.819"
       style="fill:none;stroke:#17282f;stroke-width:2;stroke-linecap:round;stroke-linejoin:round;stroke-miterlimit:11.9056;stroke-dasharray:none;stroke-opacity:1"
       id="path6898" />
    <path
       d="m 196.881,430.709 h -3.82"
       style="fill:none;stroke:#17282f;stroke-width:2;stroke-linecap:round;stroke-linejoin:round;stroke-miterlimit:11.9056;stroke-dasharray:none;stroke-opacity:1"
       id="path6900" />
    <path
       d="m 188.754,430.709 h -3.82"
       style="fill:none;stroke:#17282f;stroke-width:2;stroke-linecap:round;stroke-linejoin:round;stroke-miterlimit:11.9056;stroke-dasharray:none;stroke-opacity:1"
       id="path6902" />
    <path
       d="m 267.389,404.493 c 0,0 2.786,-4.248 7.514,-5.925 4.628,-1.641 12.157,-0.707 12.157,-0.707 0,0 -2.131,0.05 -7.171,3.293 -3.173,2.041 -4.898,6.796 -4.898,6.796 l -0.027,-0.011 c 5.3,3.83 8.749,10.063 8.749,17.102 0,11.645 -9.44,21.085 -21.085,21.085 -11.645,0 -21.085,-9.44 -21.085,-21.085 0,-11.645 9.44,-21.086 21.085,-21.086 1.614,0 3.186,0.182 4.696,0.525 z"
       style="fill:none;stroke:#17282f;stroke-width:2;stroke-linecap:round;stroke-linejoin:round;stroke-miterlimit:11.9056;stroke-dasharray:none;stroke-opacity:1"
       id="path6904" />
    <path
       d="m 260.702,414.115 c -0.32,0.321 -0.463,0.785 -0.463,1.355 v 0.535 c 0,0.606 0.143,1.034 0.463,1.354 0.321,0.321 0.785,0.464 1.355,0.464 h 0.392 c 0.607,0 1.034,-0.143 1.355,-0.464 0.321,-0.32 0.463,-0.784 0.463,-1.354 v -0.535 c 0,-0.606 -0.142,-1.034 -0.463,-1.355 -0.321,-0.321 -0.784,-0.463 -1.355,-0.463 h -0.392 c -0.57,-0.036 -1.034,0.142 -1.355,0.463 z m 0.214,10.589 c 0.357,0.357 0.785,0.535 1.32,0.535 1.355,0 2.424,0.321 3.244,0.963 0.82,0.642 1.248,1.604 1.248,2.959 0,1.034 -0.357,1.89 -1.106,2.567 -0.748,0.677 -1.675,0.999 -2.78,0.999 -1.141,0 -2.14,-0.393 -2.995,-1.141 -0.499,-0.464 -0.999,-0.678 -1.533,-0.678 -0.393,0 -0.749,0.107 -1.035,0.357 -0.534,0.392 -0.784,0.891 -0.784,1.462 0,0.463 0.179,0.891 0.57,1.283 0.749,0.749 1.605,1.355 2.603,1.783 0.999,0.428 2.069,0.642 3.174,0.642 1.39,0 2.674,-0.321 3.814,-0.963 1.141,-0.642 2.069,-1.497 2.746,-2.638 0.678,-1.106 0.998,-2.354 0.998,-3.673 0,-1.961 -0.57,-3.53 -1.675,-4.67 -1.141,-1.141 -2.639,-1.855 -4.493,-2.14 -0.107,-0.035 -0.142,-0.107 -0.142,-0.142 v -1.141 c 0,-0.535 -0.179,-0.963 -0.535,-1.355 -0.357,-0.357 -0.785,-0.535 -1.319,-0.535 -0.535,0 -0.963,0.178 -1.32,0.535 -0.356,0.357 -0.534,0.82 -0.534,1.355 v 2.353 c 0,0.463 0.178,0.891 0.534,1.283"
       style="fill:#dc4947;fill-opacity:1;fill-rule:nonzero;stroke:none;stroke-width:0.1"
       id="path6906" />
    <path
       d="m 150.678,235.29 c 7.149,1.922 10.283,17.725 6.808,27.599 -3.474,9.874 -8.851,2.121 -8.851,2.121 l 2.043,-29.72"
       style="fill:#96c2db;fill-opacity:1;fill-rule:nonzero;stroke:none;stroke-width:0.1"
       id="path6908" />
    <path
       d="M 70.4738,74.0379 68.2605,78.8211 105.077,95.857 116.42,71.3449 53.6953,42.3199 c -4.5648,9.8653 16.7785,31.718 16.7785,31.718"
       style="fill:#ffffff;fill-opacity:1;fill-rule:nonzero;stroke:none;stroke-width:0.1"
       id="path6910" />
    <path
       d="M 107.611,90.3801 116.42,71.3449 53.6953,42.3199 c -4.5648,9.8653 16.7785,31.718 16.7785,31.718"
       style="fill:none;stroke:#17282f;stroke-width:2;stroke-linecap:round;stroke-linejoin:round;stroke-miterlimit:11.9056;stroke-dasharray:none;stroke-opacity:1"
       id="path6912" />
    <path
       d="m 67.6879,63.9391 -11.668,0.7668"
       style="fill:none;stroke:#dc4947;stroke-width:2;stroke-linecap:round;stroke-linejoin:round;stroke-miterlimit:11.9056;stroke-dasharray:none;stroke-opacity:1"
       id="path6914" />
    <path
       d="m 64.8328,60.3129 -11.668,0.7672"
       style="fill:none;stroke:#dc4947;stroke-width:2;stroke-linecap:round;stroke-linejoin:round;stroke-miterlimit:11.9056;stroke-dasharray:none;stroke-opacity:1"
       id="path6916" />
    <path
       d="m 105.888,61.257 v 5.2711 h 40.567 V 39.518 H 77.3406 c 0,10.8699 28.5474,21.739 28.5474,21.739"
       style="fill:#ffffff;fill-opacity:1;fill-rule:nonzero;stroke:none;stroke-width:0.1"
       id="path6918" />
    <path
       d="M 146.455,60.4922 V 39.518 H 77.3406 c 0,10.8699 28.5474,21.739 28.5474,21.739"
       style="fill:none;stroke:#17282f;stroke-width:2;stroke-linecap:round;stroke-linejoin:round;stroke-miterlimit:11.9056;stroke-dasharray:none;stroke-opacity:1"
       id="path6920" />
    <path
       d="M 99.1184,53.2621 88.8512,58.8582"
       style="fill:none;stroke:#dc4947;stroke-width:2;stroke-linecap:round;stroke-linejoin:round;stroke-miterlimit:11.9056;stroke-dasharray:none;stroke-opacity:1"
       id="path6922" />
    <path
       d="M 95.0043,51.1699 84.7375,56.7672"
       style="fill:none;stroke:#dc4947;stroke-width:2;stroke-linecap:round;stroke-linejoin:round;stroke-miterlimit:11.9056;stroke-dasharray:none;stroke-opacity:1"
       id="path6924" />
    <path
       d="m 129.893,53.2621 c 0,2.3578 1.913,4.2699 4.271,4.2699 2.358,0 4.27,-1.9121 4.27,-4.2699 0,-2.359 -1.912,-4.2711 -4.27,-4.2711 -2.358,0 -4.271,1.9121 -4.271,4.2711 z"
       style="fill:none;stroke:#17282f;stroke-width:2;stroke-linecap:round;stroke-linejoin:round;stroke-miterlimit:11.9056;stroke-dasharray:none;stroke-opacity:1"
       id="path6926" />
    <path
       d="m 103.342,221.993 -16.4596,-36.77 15.9966,-63.192 z m -24.9291,61.79 75.8391,1.177 -4.357,-221.1459 -47.313,-0.3379 0.142,25.282 L 68.2094,73.725 c 0,0 -32.8024,88.441 -32.8629,113.653 -0.0524,21.549 43.0664,96.405 43.0664,96.405"
       style="fill:#96c2db;fill-opacity:1;fill-rule:nonzero;stroke:none;stroke-width:0.1"
       id="path6928" />
    <path
       d="M 138.434,70.9031 143.87,265.478"
       style="fill:none;stroke:#17282f;stroke-width:2;stroke-linecap:round;stroke-linejoin:round;stroke-miterlimit:11.9056;stroke-dasharray:none;stroke-opacity:1"
       id="path6930" />
    <path
       d="M 102.724,63.491 105,265.478"
       style="fill:none;stroke:#17282f;stroke-width:2;stroke-linecap:round;stroke-linejoin:round;stroke-miterlimit:11.9056;stroke-dasharray:none;stroke-opacity:1"
       id="path6932" />
    <path
       d="m 97.5734,265.478 c 0,0 -0.8359,-14.679 0.9704,-18.893 1.8062,-4.213 5.7462,-4.815 5.7462,-4.815"
       style="fill:none;stroke:#17282f;stroke-width:2;stroke-linecap:round;stroke-linejoin:round;stroke-miterlimit:11.9056;stroke-dasharray:none;stroke-opacity:1"
       id="path6934" />
    <path
       d="m 180.264,375.127 -8.71,-18.34 -12.05,-8.64 -6.59,-4.73 -0.42,-6.35 -2.14,-32.82 -2.34,-35.74 H 64.8438 l 8.4902,38.65 6.1,27.79 -3.05,0.28 -11.8102,1.1 -18.43,1.73 c 0,0 4.8101,17.82 21.83,32.14 6.55,5.51 13.2903,8.09 22.2403,10.47 4.2199,1.12 8.3699,0.92 9.5,0.83 0.1898,-0.01 0.2999,-0.02 0.2999,-0.02 0,0 0.6,-11.61 9.91,-11.62 7.57,-0.02 12.68,8.83 14.33,12.15 0.38,0.76 0.58,1.23 0.58,1.23 0,0 7.8,-0.36 11.67,-0.7 26.23,-2.31 43.76,-7.41 43.76,-7.41"
       style="fill:#f2504e;fill-opacity:1;fill-rule:nonzero;stroke:none;stroke-width:0.1"
       id="path6936" />
    <path
       d="m 161.334,334.947 c 0,-11.66 -4.12,-22.35 -10.98,-30.7 -8.88,-10.8 -22.34,-17.69 -37.41,-17.69 -16.3901,0 -30.8702,8.14 -39.61,20.6 -5.5301,7.86 -8.7801,17.44 -8.7801,27.79 0,0.46 0.0102,0.92 0.0199,1.38 0.6,21.54 15.27,39.55 35.1403,45.17 0.1898,-0.01 0.2999,-0.02 0.2999,-0.02 0,0 0.6,-11.61 9.91,-11.62 7.57,-0.02 12.68,8.83 14.33,12.15 17.01,-4.07 30.52,-17.12 35.25,-33.86 1.19,-4.19 1.83,-8.62 1.83,-13.2"
       style="fill:#f2504e;fill-opacity:1;fill-rule:nonzero;stroke:none;stroke-width:0.1"
       id="path6938" />
    <path
       d="M 161.284,337.277 V 260.021 H 64.5539 v 74.926 l 11.8301,0.28 76.11,1.84 8.79,0.21"
       style="fill:#f2504e;fill-opacity:1;fill-rule:nonzero;stroke:none;stroke-width:0.1"
       id="path6940" />
    <path
       d="m 117.373,434.609 c -0.827,0.236 -2.126,0.436 -2.785,0.233 -2.484,-0.765 -2.851,-3.149 -2.039,-5.442 -6.102,1.685 -13.815,1.188 -15.317,-1.845 -1.7468,-3.527 2.4438,-6.807 2.4438,-6.807 0,0 -5.6781,-0.023 -6.8371,-3.875 -1.1594,-3.852 4.6578,-6.263 4.6578,-6.263 l 4.4745,6.361 c 0,0 3.795,-1.128 7.818,-0.344 4.024,0.785 8.052,2.518 8.052,2.518 0,0 -1.291,-5.65 2.258,-11.115 3.548,-5.465 6.863,-8.102 6.863,-8.102 l -2.812,-5.38 c 0,0 7.046,2.014 11.079,9.675 4.033,7.661 0.178,13.434 -3.967,16.206 -1.76,1.176 -3.635,1.686 -5.281,1.954 -0.061,1.428 -0.297,4.01 -1.828,6.742 -1.427,2.55 -4.297,4.779 -6.78,5.484"
       style="fill:#17282f;fill-opacity:1;fill-rule:nonzero;stroke:none;stroke-width:0.1"
       id="path6942" />
    <path
       d="m 125.665,421.088 2.93,7.088"
       style="fill:none;stroke:#17282f;stroke-width:2;stroke-linecap:round;stroke-linejoin:round;stroke-miterlimit:11.9056;stroke-dasharray:none;stroke-opacity:1"
       id="path6944" />
    <path
       d="M 125.665,421.088 133,427.492"
       style="fill:none;stroke:#17282f;stroke-width:2;stroke-linecap:round;stroke-linejoin:round;stroke-miterlimit:11.9056;stroke-dasharray:none;stroke-opacity:1"
       id="path6946" />
    <path
       d="m 175.536,45.916 c -4.271,4.2711 -6.169,10.4399 -6.169,18.0332 v 7.1188 c 0,8.0672 1.898,13.7621 6.169,18.0332 4.272,4.2718 10.441,6.1699 18.034,6.1699 h 5.221 c 8.067,0 13.761,-1.8981 18.033,-6.1699 4.271,-4.2711 6.169,-10.4403 6.169,-18.0332 v -7.1188 c 0,-8.0672 -1.898,-13.7621 -6.169,-18.0332 -4.272,-4.2711 -10.441,-6.1699 -18.033,-6.1699 h -5.221 c -7.593,-0.475 -13.762,1.8988 -18.034,6.1699 z m 2.848,140.947 c 4.745,4.746 10.441,7.118 17.559,7.118 18.034,0 32.27,4.272 43.186,12.814 10.915,8.542 16.61,21.356 16.61,39.389 0,13.763 -4.746,25.152 -14.712,34.169 -9.966,9.017 -22.304,13.288 -37.016,13.288 -15.186,0 -28.475,-5.22 -39.864,-15.186 -6.645,-6.169 -13.288,-9.017 -20.407,-9.017 -5.22,0 -9.966,1.424 -13.762,4.746 -7.119,5.22 -10.441,11.864 -10.441,19.457 0,6.17 2.372,11.864 7.593,17.085 9.966,9.965 21.356,18.034 34.643,23.728 13.289,5.695 27.526,8.543 42.238,8.543 18.507,0 35.592,-4.271 50.779,-12.814 15.186,-8.543 27.524,-19.932 36.541,-35.118 9.017,-14.712 13.289,-31.322 13.289,-48.881 0,-26.101 -7.594,-46.982 -22.306,-62.169 -15.186,-15.186 -35.118,-24.677 -59.796,-28.474 -1.423,-0.475 -1.898,-1.424 -1.898,-1.898 v -15.186 c 0,-7.118 -2.373,-12.814 -7.119,-18.034 -4.745,-4.745 -10.44,-7.118 -17.558,-7.118 -7.118,0 -12.814,2.373 -17.559,7.118 -4.746,4.745 -7.119,10.916 -7.119,18.034 v 31.321 c 0,6.169 2.373,11.865 7.119,17.085"
       style="fill:#dc4947;fill-opacity:1;fill-rule:nonzero;stroke:none;stroke-width:0.1"
       id="path6948" />
    <path
       d="m 97.6238,402.144 c -2.1558,8.461 2.9552,17.068 11.4162,19.224 8.462,2.156 17.069,-2.956 19.224,-11.417 2.156,-8.461 -2.956,-17.068 -11.417,-19.224 -8.461,-2.156 -17.0673,2.956 -19.2232,11.417 z"
       style="fill:none;stroke:#17282f;stroke-width:2;stroke-linecap:round;stroke-linejoin:round;stroke-miterlimit:11.9056;stroke-dasharray:none;stroke-opacity:1"
       id="path6950" />
    <path
       d="m 115.707,404.675 c -0.041,0.984 0.716,1.814 1.689,1.854 0.974,0.04 1.795,-0.725 1.836,-1.708 0.041,-0.983 -0.716,-1.814 -1.689,-1.854 -0.974,-0.04 -1.796,0.725 -1.836,1.708"
       style="fill:#dc4947;fill-opacity:1;fill-rule:nonzero;stroke:none;stroke-width:0.1"
       id="path6952" />
    <path
       d="m 111.387,407.688 c -0.218,0.932 0.361,1.865 1.295,2.083 0.932,0.217 1.865,-0.362 2.082,-1.295 0.218,-0.933 -0.362,-1.865 -1.294,-2.083 -0.933,-0.217 -1.865,0.362 -2.083,1.295"
       style="fill:#17282f;fill-opacity:1;fill-rule:nonzero;stroke:none;stroke-width:0.1"
       id="path6954" />
    <path
       d="m 101.802,407.622 c -0.217,0.933 0.362,1.866 1.295,2.083 0.932,0.218 1.865,-0.362 2.082,-1.294 0.218,-0.933 -0.362,-1.865 -1.294,-2.083 -0.933,-0.218 -1.865,0.361 -2.083,1.294"
       style="fill:#17282f;fill-opacity:1;fill-rule:nonzero;stroke:none;stroke-width:0.1"
       id="path6956" />
    <path
       d="m 108.48,409.056 -2.11,-6.03 3.552,0.133"
       style="fill:none;stroke:#17282f;stroke-width:2;stroke-linecap:round;stroke-linejoin:round;stroke-miterlimit:11.9056;stroke-dasharray:none;stroke-opacity:1"
       id="path6958" />
    <path
       d="m 110.424,399.117 c 0,0 1.037,0.765 2.712,1.46 1.674,0.696 3.735,-0.326 3.735,-0.326"
       style="fill:none;stroke:#17282f;stroke-width:2;stroke-linecap:round;stroke-linejoin:round;stroke-miterlimit:11.9056;stroke-dasharray:none;stroke-opacity:1"
       id="path6960" />
    <path
       d="m 97.6762,370.497 c 0,0 6.0168,-6.422 15.2678,-4.923 9.25,1.5 15.651,15.09 15.651,15.09"
       style="fill:none;stroke:#17282f;stroke-width:2;stroke-linecap:round;stroke-linejoin:round;stroke-miterlimit:11.9056;stroke-dasharray:none;stroke-opacity:1"
       id="path6962" />
    <path
       d="m 171.849,357.013 c 0,0 -6.24,-3.295 -16.56,-10.934 -12.746,-9.434 -23.164,-19.206 -27.263,-23.969 -2.986,-3.468 -5.495,-9.704 -5.45,-15.157 0.045,-5.453 3.615,-9.185 5.17,-8.951 1.556,0.235 0.004,3.093 0.41,6.631 0.407,3.538 1.216,7.522 1.216,7.522 0,0 -0.298,-2.078 -0.838,-5.239 -0.658,-3.85 -0.409,-6.344 0.807,-9.002 1.723,-3.762 4.128,-3.914 4.697,-1.693 0.655,2.56 -0.341,3.26 -0.02,9.17 0.102,1.87 0.936,5.609 0.936,5.609 0,0 -0.385,-1.975 -0.782,-5.297 -0.397,-3.32 2.051,-8.699 3.672,-8.293 1.62,0.406 1.727,3.15 1.841,6.101 0.115,2.951 0.705,6.571 0.705,6.571 0,0 2.597,0.467 6.883,4.341 4.285,3.876 5.9,6.16 5.9,6.16 0,0 29.489,12.504 38.465,16.459 8.976,3.955 23.213,10.445 19.968,21.962 -3.246,11.516 -31.339,16.122 -31.339,16.122 l -8.418,-18.113"
       style="fill:#ffffff;fill-opacity:1;fill-rule:nonzero;stroke:none;stroke-width:0.1"
       id="path6964" />
    <path
       d="m 60.7457,337.145 c 0,0 1.3461,2.142 8.0996,13.543 6.7535,11.402 19.4016,28.307 19.4016,28.307 0,0 1.1015,7.661 2.4238,11.201 1.3231,3.54 3.1168,14.541 5.4531,14.552 2.3364,0.011 3.0282,-3.081 3.2024,-5.349 0.173,-2.268 -0.0817,-8.552 -0.0817,-8.552 0,0 4.4065,1.274 9.6235,2.901 4.276,1.333 9.519,1.802 10.234,0.358 1.627,-3.288 -12.338,-7.765 -12.338,-7.765 0,0 6.202,1.393 7.034,-1.402 0.832,-2.794 -4.554,-4.728 -4.554,-4.728 0,0 5.474,1.711 6.046,-1.014 0.572,-2.725 -4.222,-4.66 -7.143,-5.676 -2.922,-1.015 -7.697,-2.11 -7.697,-2.11 0,0 -6.3449,-17.308 -13.9027,-37.925 C 79.657,314.687 69.5266,304.878 58.5211,306.792 40.123,309.992 47.6824,338.32 47.6824,338.32 l 13.0633,-1.175"
       style="fill:#ffffff;fill-opacity:1;fill-rule:nonzero;stroke:none;stroke-width:0.1"
       id="path6966" />
    <path
       d="m 58.8469,331.795 c 0,0 3.2449,7.492 9.9984,18.893 6.7535,11.402 19.4016,28.307 19.4016,28.307 0,0 1.1015,7.661 2.4238,11.201 1.3231,3.54 3.1168,14.541 5.4531,14.552 2.3364,0.011 3.0282,-3.081 3.2024,-5.349 0.173,-2.268 -0.0817,-8.552 -0.0817,-8.552 0,0 4.4065,1.274 9.6235,2.901 4.276,1.333 9.519,1.802 10.234,0.358 1.627,-3.288 -12.338,-7.765 -12.338,-7.765 0,0 6.202,1.393 7.034,-1.402 0.832,-2.794 -4.554,-4.728 -4.554,-4.728 0,0 5.474,1.711 6.046,-1.014 0.572,-2.725 -4.222,-4.66 -7.143,-5.676 -2.922,-1.015 -7.697,-2.11 -7.697,-2.11 0,0 -6.3449,-17.308 -13.9027,-37.925 -6.8903,-18.799 -17.0207,-28.608 -28.0262,-26.694 -18.3981,3.2 -10.4809,33.464 -10.4809,33.464"
       style="fill:none;stroke:#17282f;stroke-width:2;stroke-linecap:round;stroke-linejoin:round;stroke-miterlimit:11.9056;stroke-dasharray:none;stroke-opacity:1"
       id="path6968" />
    <path
       d="m 175.748,359.329 c 0,0 -10.139,-5.611 -20.459,-13.25 -12.746,-9.434 -23.164,-19.206 -27.263,-23.969 -2.986,-3.468 -5.495,-9.704 -5.45,-15.157 0.045,-5.453 3.615,-9.185 5.17,-8.951 1.556,0.235 0.004,3.093 0.41,6.631 0.407,3.538 1.216,7.522 1.216,7.522 0,0 -0.298,-2.078 -0.838,-5.239 -0.658,-3.85 -0.409,-6.344 0.807,-9.002 1.723,-3.762 4.128,-3.914 4.697,-1.693 0.655,2.56 -0.341,3.26 -0.02,9.17 0.102,1.87 0.936,5.609 0.936,5.609 0,0 -0.385,-1.975 -0.782,-5.297 -0.397,-3.32 2.051,-8.699 3.672,-8.293 1.62,0.406 1.727,3.15 1.841,6.101 0.115,2.951 0.705,6.571 0.705,6.571 0,0 2.597,0.467 6.883,4.341 4.285,3.876 5.9,6.16 5.9,6.16 0,0 29.489,12.504 38.465,16.459 8.976,3.955 23.213,10.445 19.968,21.962 -3.246,11.516 -34.339,16.122 -34.339,16.122"
       style="fill:none;stroke:#17282f;stroke-width:2;stroke-linecap:round;stroke-linejoin:round;stroke-miterlimit:11.9056;stroke-dasharray:none;stroke-opacity:1"
       id="path6970" />
    <path
       d="m 381.711,373.776 c -4.13,-1.024 -23.579,-1.585 -27.08,1.43 -3.5,3.015 4.217,4.903 9.29,5.503 -3.897,1.54 -17,0.041 -16.525,4.19 0.329,2.871 10.023,4.045 10.023,4.045 -4.945,1.557 -11.031,1.843 -10.283,5.087 0.747,3.244 13.035,1.272 14.707,0.524 -3.553,2.35 -8.095,4.317 -5.785,6.625 2.31,2.308 18.803,-0.179 29.109,-9.601"
       style="fill:#ffffff;fill-opacity:1;fill-rule:nonzero;stroke:none;stroke-width:0.1"
       id="path6972" />
    <path
       d="m 381.711,373.776 c -4.13,-1.024 -23.579,-1.585 -27.08,1.43 -3.5,3.015 4.217,4.903 9.29,5.503 -3.897,1.54 -17,0.041 -16.525,4.19 0.329,2.871 10.023,4.045 10.023,4.045 -4.945,1.557 -11.031,1.843 -10.283,5.087 0.747,3.244 13.035,1.272 14.707,0.524 -3.553,2.35 -8.095,4.317 -5.785,6.625 2.31,2.308 18.803,-0.179 29.109,-9.601"
       style="fill:none;stroke:#17282f;stroke-width:2;stroke-linecap:round;stroke-linejoin:round;stroke-miterlimit:11.9056;stroke-dasharray:none;stroke-opacity:1"
       id="path6974" />
    <path
       d="m 363.921,380.709 c 2.647,2.695 8.207,5.299 11.122,3.948"
       style="fill:#ffffff;fill-opacity:1;fill-rule:nonzero;stroke:none;stroke-width:0.1"
       id="path6976" />
    <path
       d="m 363.921,380.709 c 2.647,2.695 8.207,5.299 11.122,3.948"
       style="fill:none;stroke:#17282f;stroke-width:2;stroke-linecap:round;stroke-linejoin:round;stroke-miterlimit:11.9056;stroke-dasharray:none;stroke-opacity:1"
       id="path6978" />
    <path
       d="m 361.843,394.555 4.426,-1.512"
       style="fill:#ffffff;fill-opacity:1;fill-rule:nonzero;stroke:none;stroke-width:0.1"
       id="path6980" />
    <path
       d="m 361.843,394.555 4.426,-1.512"
       style="fill:none;stroke:#17282f;stroke-width:2;stroke-linecap:round;stroke-linejoin:round;stroke-miterlimit:11.9056;stroke-dasharray:none;stroke-opacity:1"
       id="path6982" />
    <path
       d="m 357.419,388.944 5.154,-0.631"
       style="fill:#ffffff;fill-opacity:1;fill-rule:nonzero;stroke:none;stroke-width:0.1"
       id="path6984" />
    <path
       d="m 357.419,388.944 5.154,-0.631"
       style="fill:none;stroke:#17282f;stroke-width:2;stroke-linecap:round;stroke-linejoin:round;stroke-miterlimit:11.9056;stroke-dasharray:none;stroke-opacity:1"
       id="path6986" />
    <path
       d="m 334.691,404.748 c -12.766,0 -30.295,-11.512 -29.617,-28.768 0,-4.255 -0.83,-6.021 -5.872,-9.021 7.404,0 15.574,0 15.574,0 l 0.468,2.213 0.426,-2.213 h 48.127 c 2.554,6.383 0.402,11.892 -3.245,15.776 -3.648,3.884 -6.457,21.249 -25.861,22.013"
       style="fill:#dc4947;fill-opacity:1;fill-rule:nonzero;stroke:none;stroke-width:0.1"
       id="path6988" />
    <path
       d="m 368.703,23.1211 v 0.8031 H 328.136 V 1.38086 h 69.114 c 0,10.87034 -28.547,21.74024 -28.547,21.74024"
       style="fill:#ffffff;fill-opacity:1;fill-rule:nonzero;stroke:none;stroke-width:0.1"
       id="path6990" />
    <path
       d="M 328.136,22.3563 V 1.38086 h 69.114 c 0,10.87034 -28.547,21.74024 -28.547,21.74024"
       style="fill:none;stroke:#17282f;stroke-width:2;stroke-linecap:round;stroke-linejoin:round;stroke-miterlimit:11.9056;stroke-dasharray:none;stroke-opacity:1"
       id="path6992" />
    <path
       d="m 375.472,15.125 10.267,5.5961"
       style="fill:none;stroke:#dc4947;stroke-width:2;stroke-linecap:round;stroke-linejoin:round;stroke-miterlimit:11.9056;stroke-dasharray:none;stroke-opacity:1"
       id="path6994" />
    <path
       d="m 379.586,13.034 10.267,5.5961"
       style="fill:none;stroke:#dc4947;stroke-width:2;stroke-linecap:round;stroke-linejoin:round;stroke-miterlimit:11.9056;stroke-dasharray:none;stroke-opacity:1"
       id="path6996" />
    <path
       d="m 333.548,22.7402 v 5.27 H 292.981 V 1 h 69.114 c 0,10.8699 -28.547,21.7402 -28.547,21.7402"
       style="fill:#ffffff;fill-opacity:1;fill-rule:nonzero;stroke:none;stroke-width:0.1"
       id="path6998" />
    <path
       d="M 292.981,21.975 V 1 h 69.114 c 0,10.8699 -28.547,21.7402 -28.547,21.7402"
       style="fill:none;stroke:#17282f;stroke-width:2;stroke-linecap:round;stroke-linejoin:round;stroke-miterlimit:11.9056;stroke-dasharray:none;stroke-opacity:1"
       id="path7000" />
    <path
       d="m 340.317,14.7441 10.267,5.5957"
       style="fill:none;stroke:#dc4947;stroke-width:2;stroke-linecap:round;stroke-linejoin:round;stroke-miterlimit:11.9056;stroke-dasharray:none;stroke-opacity:1"
       id="path7002" />
    <path
       d="m 344.431,12.6531 10.267,5.5961"
       style="fill:none;stroke:#dc4947;stroke-width:2;stroke-linecap:round;stroke-linejoin:round;stroke-miterlimit:11.9056;stroke-dasharray:none;stroke-opacity:1"
       id="path7004" />
    <path
       d="m 351.644,382.735 c 0,-9.37 -7.59,-16.95 -16.95,-16.95 -5.16,0 -9.78,2.3 -12.89,5.94 -2.53,2.96 -4.06,6.81 -4.06,11.01 0,9.36 7.59,16.95 16.95,16.95 7.93,0 14.58,-5.44 16.44,-12.79 0.33,-1.33 0.51,-2.73 0.51,-4.16"
       style="fill:#ffffff;fill-opacity:1;fill-rule:nonzero;stroke:none;stroke-width:0.1"
       id="path7006" />
    <path
       d="m 387.454,302.365 c 0,-24.39 -16.54,-44.91 -39.02,-50.95 -4.38,-1.18 -8.99,-1.81 -13.74,-1.81 -29.14,0 -52.76,23.62 -52.76,52.76 0,18.94 9.98,35.55 24.97,44.85 5.28,3.29 11.19,5.66 17.51,6.91 l 4.49,-3.55 1.11,-0.88 8.76,-18.68 3.9,15.25 0.96,3.73 3.04,3.77 c 3.11,-0.73 6.11,-1.73 8.98,-2.98 0.01,0 0.01,0 0.01,0 15.35,-6.65 26.91,-20.38 30.56,-37.08 0,0 0,0 0.01,0 0.8,-3.65 1.22,-7.45 1.22,-11.34"
       style="fill:#96c2db;fill-opacity:1;fill-rule:nonzero;stroke:none;stroke-width:0.1"
       id="path7008" />
    <path
       d="m 372.989,260.586 c 0,0 -2.187,-110.946 -1.676,-122.105 0.511,-11.159 -5.728,-110.4208 -5.728,-110.4208 h -29.617 l 3.846,93.6058 0.862,20.964 3.206,69.35 13.537,12.905 15.57,35.701"
       style="fill:#f2504e;fill-opacity:1;fill-rule:nonzero;stroke:none;stroke-width:0.1"
       id="path7010" />
    <path
       d="m 366.896,260.586 c -1.056,-0.35 -71.102,0 -71.102,0 -14.774,-14.393 -22.252,-44.339 -5.401,-59.807 -3.064,-16.489 0,-172.7188 0,-172.7188 h 45.575 l 7.914,183.9198 26.723,19.56 c 0,0 -2.654,29.397 -3.709,29.046"
       style="fill:#f2504e;fill-opacity:1;fill-rule:nonzero;stroke:none;stroke-width:0.1"
       id="path7012" />
    <path
       d="m 290.393,28.0602 h 45.575 l 7.914,183.9198 12.493,9.145"
       style="fill:none;stroke:#17282f;stroke-width:2;stroke-linecap:round;stroke-linejoin:round;stroke-miterlimit:11.9056;stroke-dasharray:none;stroke-opacity:1"
       id="path7014" />
    <path
       d="m 334.764,312.484 47.938,-8.911 -12.921,-69.516 -47.875,19.435 6.35,23.978 6.508,35.014"
       style="fill:#ffffff;fill-opacity:1;fill-rule:nonzero;stroke:none;stroke-width:0.1"
       id="path7016" />
    <path
       d="m 345.153,306.617 47.938,-8.912 -12.921,-69.515 -47.875,7.506 6.349,35.906 6.509,35.015"
       style="fill:#dc4947;fill-opacity:1;fill-rule:nonzero;stroke:none;stroke-width:0.1"
       id="path7018" />
    <path
       d="m 358.199,252.869 c -12.213,0.478 -23.522,2.47 -23.522,2.47 l -5.516,18.272 c 5.289,2.089 13.356,7.376 19.513,8.184 6.158,0.809 15.156,2.546 17.485,2.803 4.747,0.523 3.332,-4.801 0.374,-6.615 -2.958,-1.814 -10.491,-1.444 -10.365,-3.188 0.125,-1.745 15.934,1.394 18.736,2.516 2.314,0.925 4.55,-2.96 2.3,-5.922 1.961,0.708 3.582,2.39 4.341,1.437 0.759,-0.953 2.441,-5.438 -3.782,-9.137 0.841,0.056 0.835,0.198 1.956,0.423 1.121,0.224 2.516,-4.08 -4.564,-8 -6.783,-3.756 -11.051,-3.473 -16.956,-3.243"
       style="fill:#ffffff;fill-opacity:1;fill-rule:nonzero;stroke:none;stroke-width:0.1"
       id="path7020" />
    <path
       d="m 358.199,252.869 c -12.213,0.478 -23.522,2.47 -23.522,2.47 l -5.516,18.272 c 5.289,2.089 13.356,7.376 19.513,8.184 6.158,0.809 15.156,2.546 17.485,2.803 4.747,0.523 3.332,-4.801 0.374,-6.615 -2.958,-1.814 -10.491,-1.444 -10.365,-3.188 0.125,-1.745 15.934,1.394 18.736,2.516 2.314,0.925 4.55,-2.96 2.3,-5.922 1.961,0.708 3.582,2.39 4.341,1.437 0.759,-0.953 2.441,-5.438 -3.782,-9.137 0.841,0.056 0.835,0.198 1.956,0.423 1.121,0.224 2.516,-4.08 -4.564,-8 -6.783,-3.756 -11.051,-3.473 -16.956,-3.243 z"
       style="fill:none;stroke:#17282f;stroke-width:2;stroke-linecap:round;stroke-linejoin:round;stroke-miterlimit:11.9056;stroke-dasharray:none;stroke-opacity:1"
       id="path7022" />
    <path
       d="m 377.204,271.389 c -2.412,-1.254 -6.84,-2.992 -11.045,-2.936"
       style="fill:#ffffff;fill-opacity:1;fill-rule:nonzero;stroke:none;stroke-width:0.1"
       id="path7024" />
    <path
       d="m 377.204,271.389 c -2.412,-1.254 -6.84,-2.992 -11.045,-2.936"
       style="fill:none;stroke:#17282f;stroke-width:2;stroke-linecap:round;stroke-linejoin:round;stroke-miterlimit:11.9056;stroke-dasharray:none;stroke-opacity:1"
       id="path7026" />
    <path
       d="m 377.763,263.689 c -2.971,-1.29 -5.456,-2.187 -9.548,-2.523"
       style="fill:#ffffff;fill-opacity:1;fill-rule:nonzero;stroke:none;stroke-width:0.1"
       id="path7028" />
    <path
       d="m 377.763,263.689 c -2.971,-1.29 -5.456,-2.187 -9.548,-2.523"
       style="fill:none;stroke:#17282f;stroke-width:2;stroke-linecap:round;stroke-linejoin:round;stroke-miterlimit:11.9056;stroke-dasharray:none;stroke-opacity:1"
       id="path7030" />
    <path
       d="m 324.414,354.125 4.49,-3.55 -0.38,-0.88 -33.55,-79.31 43.46,10.36 10,-29.33 0.21,-0.63 c 0,0 -85.95,-40.85 -90.04,-3.59 -3.43,31.3 7.92,86.18 49.17,102.93 4.98,2.02 10.39,3.49 16.27,4.29 l 0.37,-0.29"
       style="fill:#96c2db;fill-opacity:1;fill-rule:nonzero;stroke:none;stroke-width:0.1"
       id="path7032" />
    <path
       d="m 346.674,353.765 -3.04,-3.77 -0.96,-3.73 41.529,-25.656 c 0,0 2.021,-6.904 2.031,-6.904 3.606,1.169 36.968,16.063 50.414,32.914 25.325,31.736 -49.759,49.518 -49.759,49.518 l -6.57,-25.933 23.989,-12.189 c 0,0 -8.464,-0.03 -41.104,-2.08 -4.59,-0.29 -9.66,-0.52 -15.3,-0.65 h -0.01 l -1.22,-1.52"
       style="fill:#96c2db;fill-opacity:1;fill-rule:nonzero;stroke:none;stroke-width:0.1"
       id="path7034" />
    <path
       d="m 258.606,247.195 c 4.085,-37.257 90.042,3.594 90.042,3.594 l -10.212,29.957 -43.465,-10.361"
       style="fill:none;stroke:#17282f;stroke-width:2;stroke-linecap:round;stroke-linejoin:round;stroke-miterlimit:11.9056;stroke-dasharray:none;stroke-opacity:1"
       id="path7036" />
    <path
       d="m 300.76,271.765 5.933,26.329"
       style="fill:none;stroke:#17282f;stroke-width:2;stroke-linecap:round;stroke-linejoin:round;stroke-miterlimit:11.9056;stroke-dasharray:none;stroke-opacity:1"
       id="path7038" />
    <path
       d="m 330.014,349.695 c 0,0 -0.57,0.02 -1.49,0 -2.59,-0.05 -7.99,-0.42 -11.54,-2.44 -4.81,-2.74 -9.22,-9.03 -9.22,-9.03 0,0 -1.64,4.46 -0.86,8.99 0.16,0.98 0.44,1.97 0.87,2.91 0.18,0.39 0.38,0.77 0.62,1.15 3.42,5.45 11.1,6.74 11.1,6.74 l 4.55,-3.6 0.37,-0.29 4.49,-3.55 z"
       style="fill:none;stroke:#17282f;stroke-width:2;stroke-linecap:round;stroke-linejoin:round;stroke-miterlimit:11.9056;stroke-dasharray:none;stroke-opacity:1"
       id="path7040" />
    <path
       d="m 365.144,345.925 c 0,0 -2.96,2.95 -8.27,4.56 -0.39,0.12 -0.79,0.22 -1.21,0.3 0,0 0,0 -0.01,0 -5.21,1.01 -12.02,-0.79 -12.02,-0.79 l 3.04,3.77 1.22,1.52 h 0.01 l 4.15,5.15 c 0,0 6.1,0.62 10.64,-3.94 0.18,-0.18 0.35,-0.37 0.51,-0.56 3.86,-4.48 1.94,-10.01 1.94,-10.01 z"
       style="fill:none;stroke:#17282f;stroke-width:2;stroke-linecap:round;stroke-linejoin:round;stroke-miterlimit:11.9056;stroke-dasharray:none;stroke-opacity:1"
       id="path7042" />
    <path
       d="m 330.014,349.695 8.76,-18.68 3.9,15.25 0.96,3.73"
       style="fill:none;stroke:#17282f;stroke-width:2;stroke-linecap:round;stroke-linejoin:round;stroke-miterlimit:11.9056;stroke-dasharray:none;stroke-opacity:1"
       id="path7044" />
    <path
       d="m 343.63,321.176 c 0,-1.975 -1.602,-3.577 -3.577,-3.577 -1.976,0 -3.577,1.602 -3.577,3.577 0,1.976 1.601,3.577 3.577,3.577 1.975,0 3.577,-1.601 3.577,-3.577"
       style="fill:#17282f;fill-opacity:1;fill-rule:nonzero;stroke:none;stroke-width:0.1"
       id="path7046" />
    <path
       d="m 351.134,386.895 c -1.49,0.35 -4.68,1.24 -7.05,2.66 -3.64,2.18 -6.09,5.31 -6.09,5.31 0,0 -2.24,-4.9 -7.36,-9.43 -4.8,-4.25 -11.62,-6.99 -11.62,-6.99 l 2.79,-6.72 c -2.53,2.96 -4.06,6.81 -4.06,11.01 0,9.36 7.59,16.95 16.95,16.95 7.93,0 14.58,-5.44 16.44,-12.79"
       style="fill:#dc4947;fill-opacity:1;fill-rule:nonzero;stroke:none;stroke-width:0.1"
       id="path7048" />
    <path
       d="m 351.644,382.735 c 0,-9.37 -7.59,-16.95 -16.95,-16.95 -5.16,0 -9.78,2.3 -12.89,5.94 -2.53,2.96 -4.06,6.81 -4.06,11.01 0,9.36 7.59,16.95 16.95,16.95 7.93,0 14.58,-5.44 16.44,-12.79 0.33,-1.33 0.51,-2.73 0.51,-4.16 z"
       style="fill:none;stroke:#17282f;stroke-width:2;stroke-linecap:round;stroke-linejoin:round;stroke-miterlimit:11.9056;stroke-dasharray:none;stroke-opacity:1"
       id="path7050" />
    <path
       d="m 377.221,333.59 c 6.431,-8.743 10.23,-19.541 10.23,-31.227"
       style="fill:none;stroke:#17282f;stroke-width:2;stroke-linecap:round;stroke-linejoin:round;stroke-miterlimit:11.9056;stroke-dasharray:none;stroke-opacity:1"
       id="path7052" />
    <path
       d="m 317.744,228.19 c -5.521,-12.125 -21.862,-12.369 -21.862,-12.369"
       style="fill:none;stroke:#17282f;stroke-width:2;stroke-linecap:round;stroke-linejoin:round;stroke-miterlimit:11.9056;stroke-dasharray:none;stroke-opacity:1"
       id="path7054" />
    <path
       d="M 303.726,38.8742 V 216.387"
       style="fill:none;stroke:#17282f;stroke-width:2;stroke-linecap:round;stroke-linejoin:round;stroke-miterlimit:11.9056;stroke-dasharray:none;stroke-opacity:1"
       id="path7056" />
    <path
       d="m 330.073,377.114 c -0.047,1.049 -0.927,1.862 -1.965,1.816 -1.038,-0.047 -1.842,-0.935 -1.795,-1.984 0.047,-1.049 0.927,-1.862 1.965,-1.816 1.039,0.047 1.842,0.935 1.795,1.984"
       style="fill:#dc4947;fill-opacity:1;fill-rule:nonzero;stroke:none;stroke-width:0.1"
       id="path7058" />
    <path
       d="m 334.389,380.712 c 0.146,1.011 -0.555,1.949 -1.567,2.095 -1.011,0.147 -1.949,-0.555 -2.095,-1.566 -0.146,-1.012 0.556,-1.95 1.567,-2.096 1.011,-0.146 1.949,0.555 2.095,1.567"
       style="fill:#17282f;fill-opacity:1;fill-rule:nonzero;stroke:none;stroke-width:0.1"
       id="path7060" />
    <path
       d="m 345.604,381.543 c 0.145,1.012 -0.555,1.95 -1.566,2.096 -1.012,0.146 -1.95,-0.556 -2.097,-1.567 -0.146,-1.011 0.556,-1.949 1.567,-2.095 1.012,-0.147 1.95,0.555 2.096,1.566"
       style="fill:#17282f;fill-opacity:1;fill-rule:nonzero;stroke:none;stroke-width:0.1"
       id="path7062" />
    <path
       d="m 335.468,371.79 c 0.146,1.012 -0.555,1.949 -1.567,2.096 -1.011,0.145 -1.95,-0.556 -2.095,-1.567 -0.146,-1.012 0.556,-1.949 1.567,-2.096 1.011,-0.146 1.949,0.556 2.095,1.567"
       style="fill:#17282f;fill-opacity:1;fill-rule:nonzero;stroke:none;stroke-width:0.1"
       id="path7064" />
    <path
       d="m 338.375,382.456 2.794,-6.217 -3.789,-0.184"
       style="fill:none;stroke:#17282f;stroke-width:2;stroke-linecap:round;stroke-linejoin:round;stroke-miterlimit:11.9056;stroke-dasharray:none;stroke-opacity:1"
       id="path7066" />
  </g>
</svg>
