<?xml version="1.0" encoding="UTF-8" standalone="no"?>
<!-- Created with Inkscape (http://www.inkscape.org/) -->

<svg
   version="1.1"
   id="svg3956"
   width="567.3053"
   height="587.76312"
   viewBox="0 0 567.3053 587.76312"
   sodipodi:docname="82636914_9931653.eps"
   xmlns:inkscape="http://www.inkscape.org/namespaces/inkscape"
   xmlns:sodipodi="http://sodipodi.sourceforge.net/DTD/sodipodi-0.dtd"
   xmlns="http://www.w3.org/2000/svg"
   xmlns:svg="http://www.w3.org/2000/svg">
  <defs
     id="defs3960" />
  <sodipodi:namedview
     id="namedview3958"
     pagecolor="#ffffff"
     bordercolor="#000000"
     borderopacity="0.25"
     inkscape:showpageshadow="2"
     inkscape:pageopacity="0.0"
     inkscape:pagecheckerboard="0"
     inkscape:deskcolor="#d1d1d1"
     showgrid="false"
     showguides="true" />
  <g
     id="g3964"
     inkscape:groupmode="layer"
     inkscape:label="Page 1"
     transform="matrix(1.3333333,0,0,-1.3333333,0,587.76399)">
    <path
       d="m 209.659,10.7441 c 0,-5.27926 -43.224,-9.55816 -96.545,-9.55816 -53.3199,0 -96.5445,4.2789 -96.5445,9.55816 0,5.2789 43.2246,9.5579 96.5445,9.5579 53.321,0 96.545,-4.279 96.545,-9.5579"
       style="fill:#17282f;fill-opacity:1;fill-rule:nonzero;stroke:none;stroke-width:0.1"
       id="path3968" />
    <path
       d="m 209.659,10.7441 c 0,-5.27926 -43.224,-9.55816 -96.545,-9.55816 -53.3199,0 -96.5445,4.2789 -96.5445,9.55816 0,5.2789 43.2246,9.5579 96.5445,9.5579 53.321,0 96.545,-4.279 96.545,-9.5579 z"
       style="fill:none;stroke:#17282f;stroke-width:2.37057;stroke-linecap:round;stroke-linejoin:round;stroke-miterlimit:10;stroke-dasharray:none;stroke-opacity:1"
       id="path3970" />
    <path
       d="m 410.258,13.2648 c 0,-2.2328 -14.855,-4.04371 -33.18,-4.04371 -18.324,0 -33.18,1.81091 -33.18,4.04371 0,2.2332 14.856,4.0442 33.18,4.0442 18.325,0 33.18,-1.811 33.18,-4.0442"
       style="fill:#17282f;fill-opacity:1;fill-rule:nonzero;stroke:none;stroke-width:0.1"
       id="path3972" />
    <path
       d="M 1.25,29.6969 H 424.229"
       style="fill:none;stroke:#17282f;stroke-width:2.5;stroke-linecap:round;stroke-linejoin:round;stroke-miterlimit:10;stroke-dasharray:none;stroke-opacity:1"
       id="path3974" />
    <path
       d="m 383.569,12.5422 h -14.852 c -10.562,0 -19.124,8.5629 -19.124,19.125 V 58.282 h 53.1 V 31.6672 c 0,-10.5621 -8.562,-19.125 -19.124,-19.125"
       style="fill:#ffffff;fill-opacity:1;fill-rule:nonzero;stroke:none;stroke-width:0.1"
       id="path3976" />
    <path
       d="m 383.569,12.5422 h -14.852 c -10.562,0 -19.124,8.5629 -19.124,19.125 V 58.282 h 53.1 V 31.6672 c 0,-10.5621 -8.562,-19.125 -19.124,-19.125 z"
       style="fill:none;stroke:#17282f;stroke-width:2.5;stroke-linecap:round;stroke-linejoin:round;stroke-miterlimit:10;stroke-dasharray:none;stroke-opacity:1"
       id="path3978" />
    <path
       d="m 349.62,43.109 h 53.045"
       style="fill:none;stroke:#17282f;stroke-width:2.5;stroke-linecap:round;stroke-linejoin:round;stroke-miterlimit:10;stroke-dasharray:none;stroke-opacity:1"
       id="path3980" />
    <path
       d="m 367.51,97.8621 c 2.506,-2.6039 6.646,-2.743 8.305,0.634 0.632,1.2867 0.83,3.9129 0,6.2089 -2.658,7.35 -10.374,8.766 -11.959,6.59 -1.66,-2.281 -0.248,-9.376 3.654,-13.4329"
       style="fill:#96c2db;fill-opacity:1;fill-rule:nonzero;stroke:none;stroke-width:0.1"
       id="path3982" />
    <path
       d="m 367.51,97.8621 c 2.506,-2.6039 6.646,-2.743 8.305,0.634 0.632,1.2867 0.83,3.9129 0,6.2089 -2.658,7.35 -10.374,8.766 -11.959,6.59 -1.66,-2.281 -0.248,-9.376 3.654,-13.4329 z"
       style="fill:none;stroke:#17282f;stroke-width:2.5;stroke-linecap:round;stroke-linejoin:round;stroke-miterlimit:10;stroke-dasharray:none;stroke-opacity:1"
       id="path3984" />
    <path
       d="m 390.149,87.65 c -3.398,-2.959 -8.638,-2.6398 -10.429,1.7801 -0.682,1.684 -0.696,4.9918 0.559,7.7648 4.016,8.8761 13.886,9.7301 15.692,6.8191 1.892,-3.05 -0.53,-11.7558 -5.822,-16.364"
       style="fill:#96c2db;fill-opacity:1;fill-rule:nonzero;stroke:none;stroke-width:0.1"
       id="path3986" />
    <path
       d="m 390.149,87.65 c -3.398,-2.959 -8.638,-2.6398 -10.429,1.7801 -0.682,1.684 -0.696,4.9918 0.559,7.7648 4.016,8.8761 13.886,9.7301 15.692,6.8191 1.892,-3.05 -0.53,-11.7558 -5.822,-16.364 z"
       style="fill:none;stroke:#17282f;stroke-width:2.5;stroke-linecap:round;stroke-linejoin:round;stroke-miterlimit:10;stroke-dasharray:none;stroke-opacity:1"
       id="path3988" />
    <path
       d="m 375.15,71.632 c 0,0.3801 -0.885,5.195 -8.968,6.9692 -8.083,1.7738 -14.948,-4.3082 -11.959,-7.8563 2.99,-3.5488 13.066,0.2531 15.834,0.2531 2.768,0 5.093,0.634 5.093,0.634"
       style="fill:#96c2db;fill-opacity:1;fill-rule:nonzero;stroke:none;stroke-width:0.1"
       id="path3990" />
    <path
       d="m 375.15,71.632 c 0,0.3801 -0.885,5.195 -8.968,6.9692 -8.083,1.7738 -14.948,-4.3082 -11.959,-7.8563 2.99,-3.5488 13.066,0.2531 15.834,0.2531 2.768,0 5.093,0.634 5.093,0.634 z"
       style="fill:none;stroke:#17282f;stroke-width:2.5;stroke-linecap:round;stroke-linejoin:round;stroke-miterlimit:10;stroke-dasharray:none;stroke-opacity:1"
       id="path3992" />
    <path
       d="m 376.37,75.9398 c 0,0.3801 1.661,3.4211 9.744,5.1961 8.083,1.7743 14.172,-2.5347 11.183,-6.0828 -2.99,-3.548 -12.955,1.9008 -15.723,1.9008 -2.768,0 -5.204,-1.0141 -5.204,-1.0141"
       style="fill:#96c2db;fill-opacity:1;fill-rule:nonzero;stroke:none;stroke-width:0.1"
       id="path3994" />
    <path
       d="m 376.37,75.9398 c 0,0.3801 1.661,3.4211 9.744,5.1961 8.083,1.7743 14.172,-2.5347 11.183,-6.0828 -2.99,-3.548 -12.955,1.9008 -15.723,1.9008 -2.768,0 -5.204,-1.0141 -5.204,-1.0141 z"
       style="fill:none;stroke:#17282f;stroke-width:2.5;stroke-linecap:round;stroke-linejoin:round;stroke-miterlimit:10;stroke-dasharray:none;stroke-opacity:1"
       id="path3996" />
    <path
       d="m 371.275,90.766 c 0,0 -2.325,-1.6469 -5.425,-0.7601 -3.101,0.8871 -6.976,3.4211 -9.301,-0.127 -2.326,-3.548 -3.544,-9.884 2.989,-9.1238 6.533,0.7609 12.401,10.2648 12.401,10.2648"
       style="fill:#96c2db;fill-opacity:1;fill-rule:nonzero;stroke:none;stroke-width:0.1"
       id="path3998" />
    <path
       d="m 371.275,90.766 c 0,0 -2.325,-1.6469 -5.425,-0.7601 -3.101,0.8871 -6.976,3.4211 -9.301,-0.127 -2.326,-3.548 -3.544,-9.884 2.989,-9.1238 6.533,0.7609 12.401,10.2648 12.401,10.2648"
       style="fill:none;stroke:#17282f;stroke-width:2.5;stroke-linecap:round;stroke-linejoin:round;stroke-miterlimit:10;stroke-dasharray:none;stroke-opacity:1"
       id="path4000" />
    <path
       d="m 375.638,58.1 c 0.864,13.0461 2.857,28.2531 12.024,37.1012"
       style="fill:none;stroke:#17282f;stroke-width:2.5;stroke-linecap:round;stroke-linejoin:round;stroke-miterlimit:10;stroke-dasharray:none;stroke-opacity:1"
       id="path4002" />
    <path
       d="m 376.59,70.2379 c 0,8.6851 -2.215,15.3332 -6.754,17.6141"
       style="fill:none;stroke:#17282f;stroke-width:2.5;stroke-linecap:round;stroke-linejoin:round;stroke-miterlimit:10;stroke-dasharray:none;stroke-opacity:1"
       id="path4004" />
    <path
       d="m 376.7,73.7859 c 0,12.3969 -0.775,24.7102 -6.2,30.1591"
       style="fill:none;stroke:#17282f;stroke-width:2.5;stroke-linecap:round;stroke-linejoin:round;stroke-miterlimit:10;stroke-dasharray:none;stroke-opacity:1"
       id="path4006" />
    <path
       d="m 377.918,77.5871 c 0,0.5609 5.151,1.0141 11.516,1.0141"
       style="fill:none;stroke:#17282f;stroke-width:2.5;stroke-linecap:round;stroke-linejoin:round;stroke-miterlimit:10;stroke-dasharray:none;stroke-opacity:1"
       id="path4008" />
    <path
       d="m 376.59,70.2379 c 0,0.2801 -4.983,6.4621 -14.948,3.4211"
       style="fill:none;stroke:#17282f;stroke-width:2.5;stroke-linecap:round;stroke-linejoin:round;stroke-miterlimit:10;stroke-dasharray:none;stroke-opacity:1"
       id="path4010" />
    <path
       d="m 360.535,85.8238 c 2.657,3.675 4.982,4.1821 4.872,4.3094"
       style="fill:none;stroke:#17282f;stroke-width:2.5;stroke-linecap:round;stroke-linejoin:round;stroke-miterlimit:10;stroke-dasharray:none;stroke-opacity:1"
       id="path4012" />
    <path
       d="m 275.495,92.2551 c 0,-5.7641 -4.666,-10.4301 -10.522,-10.4301 -5.764,0 -10.43,4.666 -10.43,10.4301 0,5.8558 4.666,10.5219 10.43,10.5219 5.856,0 10.522,-4.6661 10.522,-10.5219 z M 255.65,117.643 c 2.884,1.059 6,1.635 9.251,1.635 15.079,0 27.095,-12.016 27.095,-27.0952 0,-9.2769 -4.693,-17.4496 -11.895,-22.275 m -15.2,-4.5848 c -10.068,0 -18.836,5.529 -23.435,13.7192 m -3.222,9.8219 c -0.134,1.0879 -0.203,2.1949 -0.203,3.3187 0,7.9842 3.369,15.1092 8.742,20.0472 m 28.239,20.948 c 18.526,-4.502 32.085,-21.054 32.085,-41.0608 0,-1.0953 -0.042,-2.1793 -0.124,-3.2524 M 304.519,77.5859 C 298.602,61.5988 283.17,50.2121 264.835,50.2121 c -6.925,0 -13.456,1.677 -19.21,4.6469 m -10.556,7.7519 c -7.505,7.5711 -12.138,17.993 -12.138,29.5063 0,23.5248 18.746,42.2718 41.904,42.2718 m 11.192,12.038 c 25.397,-5.132 44.236,-27.349 44.236,-54.368 0,-30.3961 -24.606,-55.0031 -55.485,-55.0031 -11.814,0 -22.754,3.7179 -31.714,10.0472 m -11.599,11.0348 c -7.325,9.343 -11.69,21.118 -11.69,33.9211 0,30.879 24.606,55.486 55.003,55.486 m 58.547,134.663 c 18.776,19.607 26.887,49.56 14.391,75.246 -10.023,20.603 -29.943,32.497 -53.603,35.767 m -13.541,0.931 c -6.479,0.018 -13.134,-0.55 -19.856,-1.702 -26.905,-4.612 -51.972,-22.193 -56.142,-38.496 l -16.8,9.631 c 0,0.657 2.158,6.643 7.956,14.249 m 9.826,10.605 c 6.855,6.15 16.057,12.3 28.207,16.951 m 15.157,4.568 c 8.34,1.898 17.733,3.108 28.296,3.345 29.712,0.666 55.543,-8.529 73.435,-25.089 m 17.793,-24.056 c 4.659,-9.707 7.481,-20.625 8.129,-32.545 m -0.623,-14.881 c -1.979,-12.054 -7.719,-22.517 -16.332,-31.811 m -11.279,-10.32 c -10.415,-8.217 -23.221,-15.482 -37.6,-22.182 -3.92,-1.827 -14.523,-4.256 -21.523,-14.632 h -21.442 c -0.725,10.93 22.768,21.741 47.277,31.599 h -28.048 c -2.077,-0.977 -4.222,-1.922 -6.436,-2.833 -10.889,-4.48 -34.518,-11.109 -31.852,-41.806 l 16.842,-0.329 v -30.937 l 21.508,0.616 v 21.231 c 0,2.743 0.019,5.394 0.183,7.923 l 14.933,0.001 c -1.993,-5.621 -2.102,-12.233 -2.102,-19.394 v -8.571 m 0,-15.475 -15.702,-0.166 m -18.669,-0.197 -15.934,-0.168 v 31.983 h -14.56 v -46.706 h 79.61 v 4.396 m 0,11.667 v 10.956 c 0,15.922 0.482,29.431 16.886,36.668 46.319,19.782 81.54,48.731 81.54,96.015 0,68.03 -64.653,115.313 -137.025,115.313 -107.594,0 -128.341,-88.777 -128.341,-91.189 l 70.926,-34.256 c 5.307,20.746 22.194,49.695 56.933,49.695 21.711,0 39.081,-16.404 39.081,-39.563 0,-34.257 -27.501,-35.704 -56.933,-54.521 -8.938,-5.76 -14.36,-12.092 -17.646,-19.03 -0.803,-1.695 -5.53,-10.952 -4.53,-25.962 m 79.392,11.744 c 19.475,8.318 39.196,18.429 54.583,31.22 m 14.403,14.497 c 7.501,9.412 11.742,20.587 13.956,36.08 m -0.24,16.057 c -7.31,53.744 -61.241,90.097 -121.106,90.097 -39.18,0 -64.627,-10.812 -81.019,-23.736 m -15.223,-15.435 c -10.668,-14.015 -13.236,-26.629 -13.236,-27.558 l 45.654,-24.918 c 4.723,18.464 20.197,39.005 50.668,44.227 42.227,7.238 63.047,-21.751 66.893,-42 3.605,-18.974 -3.391,-36.561 -19.833,-50.711"
       style="fill:none;stroke:#17282f;stroke-width:2.5;stroke-linecap:round;stroke-linejoin:round;stroke-miterlimit:10;stroke-dasharray:none;stroke-opacity:1"
       id="path4014" />
    <path
       d="m 300.739,305.166 h 16.142"
       style="fill:none;stroke:#17282f;stroke-width:2.5;stroke-linecap:round;stroke-linejoin:round;stroke-miterlimit:10;stroke-dasharray:none;stroke-opacity:1"
       id="path4016" />
    <path
       d="m 360.205,299.667 39.607,0.259"
       style="fill:none;stroke:#17282f;stroke-width:2.5;stroke-linecap:round;stroke-linejoin:round;stroke-miterlimit:10;stroke-dasharray:none;stroke-opacity:1"
       id="path4018" />
    <path
       d="m 344.716,337.954 h 21.231"
       style="fill:none;stroke:#17282f;stroke-width:2.5;stroke-linecap:round;stroke-linejoin:round;stroke-miterlimit:10;stroke-dasharray:none;stroke-opacity:1"
       id="path4020" />
    <path
       d="m 307.701,255.772 h 35.311"
       style="fill:none;stroke:#17282f;stroke-width:2.5;stroke-linecap:round;stroke-linejoin:round;stroke-miterlimit:10;stroke-dasharray:none;stroke-opacity:1"
       id="path4022" />
    <path
       d="m 256.712,391.449 0.495,-13.365"
       style="fill:none;stroke:#17282f;stroke-width:2.5;stroke-linecap:round;stroke-linejoin:round;stroke-miterlimit:10;stroke-dasharray:none;stroke-opacity:1"
       id="path4024" />
    <path
       d="m 196.699,406.647 8.204,-10.958"
       style="fill:none;stroke:#17282f;stroke-width:2.5;stroke-linecap:round;stroke-linejoin:round;stroke-miterlimit:10;stroke-dasharray:none;stroke-opacity:1"
       id="path4026" />
    <path
       d="m 242.181,410.701 2.531,-19.252"
       style="fill:none;stroke:#17282f;stroke-width:2.5;stroke-linecap:round;stroke-linejoin:round;stroke-miterlimit:10;stroke-dasharray:none;stroke-opacity:1"
       id="path4028" />
    <path
       d="M 264.901,119.278 V 102.777"
       style="fill:none;stroke:#17282f;stroke-width:2.5;stroke-linecap:round;stroke-linejoin:round;stroke-miterlimit:10;stroke-dasharray:none;stroke-opacity:1"
       id="path4030" />
    <path
       d="m 230.083,115.83 11.885,-7.743"
       style="fill:none;stroke:#17282f;stroke-width:2.5;stroke-linecap:round;stroke-linejoin:round;stroke-miterlimit:10;stroke-dasharray:none;stroke-opacity:1"
       id="path4032" />
    <path
       d="M 299.766,116.08 288.822,105.014"
       style="fill:none;stroke:#17282f;stroke-width:2.5;stroke-linecap:round;stroke-linejoin:round;stroke-miterlimit:10;stroke-dasharray:none;stroke-opacity:1"
       id="path4034" />
    <path
       d="m 250.541,145.686 2.96,-12.847"
       style="fill:none;stroke:#17282f;stroke-width:2.5;stroke-linecap:round;stroke-linejoin:round;stroke-miterlimit:10;stroke-dasharray:none;stroke-opacity:1"
       id="path4036" />
    <path
       d="M 254.326,67.4852 247.471,53.9629"
       style="fill:none;stroke:#17282f;stroke-width:2.5;stroke-linecap:round;stroke-linejoin:round;stroke-miterlimit:10;stroke-dasharray:none;stroke-opacity:1"
       id="path4038" />
    <path
       d="m 212.739,77.459 12.144,1.9691"
       style="fill:none;stroke:#17282f;stroke-width:2.5;stroke-linecap:round;stroke-linejoin:round;stroke-miterlimit:10;stroke-dasharray:none;stroke-opacity:1"
       id="path4040" />
    <path
       d="M 276.664,51.8602 280.908,39.393"
       style="fill:none;stroke:#17282f;stroke-width:2.5;stroke-linecap:round;stroke-linejoin:round;stroke-miterlimit:10;stroke-dasharray:none;stroke-opacity:1"
       id="path4042" />
    <path
       d="m 216.748,228.074 7.468,-10.889 h 7.5 c 0,0 0,16.885 4,28.327 4,11.442 13.367,17.145 32.5,27.156 12.5,6.54 15,5.802 15,5.802 h 25.594 c 0,0 32.925,25.743 23.239,64.484 -9.333,37.334 -55.975,42.313 -55.975,42.313 l -0.894,17.755 c 0,0 27.867,-1.577 41.701,-10.572 13.835,-8.996 26.131,-22.875 26.131,-22.875 l 14.704,10.379 c 0,0 -16.387,24.212 -50.015,33.349 -40.998,11.139 -76.485,1.798 -76.485,1.798 l 7,-16.586 -3.352,-1.093 c -12.945,-4.222 -24.73,-11.401 -34.421,-20.968 v 0 l -26.942,19.908 c 0,0 21.715,24.092 50.215,30.592 28.5,6.5 62,9.667 101.64,-7.109 23.125,-9.787 44.181,-26.805 55.361,-44.391 16,-25.166 13.999,-49.5 13.999,-49.5 l -39.385,0.464 c 0,0 3.334,-7.309 -7.282,-28.886 -5.461,-11.1 -12.333,-16.578 -12.333,-16.578 l 42,-6.344 c 0,0 -30.5,-26.545 -42.5,-31.6 -12,-5.056 -31.954,-14.1 -34.477,-23.078 -2.523,-8.978 -3.523,-32.978 -3.523,-32.978 h -34.253 v -13.557 h 60.253"
       style="fill:none;stroke:#96c2db;stroke-width:2.5;stroke-linecap:round;stroke-linejoin:round;stroke-miterlimit:10;stroke-dasharray:none;stroke-opacity:1"
       id="path4044" />
    <path
       d="m 326.134,172.699 12.311,-9.227 v -6.212 c 0,-3.176 2.574,-5.75 5.75,-5.75 h 57.407 c 3.176,0 5.75,2.574 5.75,5.75 v 36.127 c 0,3.175 -2.574,5.75 -5.75,5.75 h -57.407 c -3.176,0 -5.75,-2.575 -5.75,-5.75 v -9.403 l -13.646,-9.055 c -0.7,-1.008 0.116,-2.371 1.335,-2.23"
       style="fill:#ffffff;fill-opacity:1;fill-rule:nonzero;stroke:none;stroke-width:0.1"
       id="path4046" />
    <path
       d="m 326.134,172.699 12.311,-9.227 v -6.212 c 0,-3.176 2.574,-5.75 5.75,-5.75 h 57.407 c 3.176,0 5.75,2.574 5.75,5.75 v 36.127 c 0,3.175 -2.574,5.75 -5.75,5.75 h -57.407 c -3.176,0 -5.75,-2.575 -5.75,-5.75 v -9.403 l -13.646,-9.055 c -0.7,-1.008 0.116,-2.371 1.335,-2.23 z"
       style="fill:none;stroke:#17282f;stroke-width:2.5;stroke-linecap:round;stroke-linejoin:round;stroke-miterlimit:10;stroke-dasharray:none;stroke-opacity:1"
       id="path4048" />
    <path
       d="m 363.405,175.995 c 0,5.524 4.683,9.954 10.296,9.536 4.773,-0.355 8.586,-4.275 8.82,-9.056 0.16,-3.28 -1.334,-6.219 -3.72,-8.058 -1.219,-0.939 -1.92,-2.401 -1.92,-3.939 v -0.001 c 0,-0.863 -0.7,-1.563 -1.563,-1.563 h -4.699 c -0.863,0 -1.563,0.7 -1.563,1.563 v 0 c 0,1.559 -0.736,3.017 -1.965,3.976 -2.243,1.749 -3.686,4.476 -3.686,7.542"
       style="fill:#ffffff;fill-opacity:1;fill-rule:nonzero;stroke:none;stroke-width:0.1"
       id="path4050" />
    <path
       d="m 363.405,175.995 c 0,5.524 4.683,9.954 10.296,9.536 4.773,-0.355 8.586,-4.275 8.82,-9.056 0.16,-3.28 -1.334,-6.219 -3.72,-8.058 -1.219,-0.939 -1.92,-2.401 -1.92,-3.939 v -0.001 c 0,-0.863 -0.7,-1.563 -1.563,-1.563 h -4.699 c -0.863,0 -1.563,0.7 -1.563,1.563 v 0 c 0,1.559 -0.736,3.017 -1.965,3.976 -2.243,1.749 -3.686,4.476 -3.686,7.542 z"
       style="fill:none;stroke:#96c2db;stroke-width:2.5;stroke-linecap:round;stroke-linejoin:round;stroke-miterlimit:10;stroke-dasharray:none;stroke-opacity:1"
       id="path4052" />
    <path
       d="m 371.441,158.752 h 3.055 c 0.703,0 1.273,0.57 1.273,1.273 v 2.889 h -5.601 v -2.889 c 0,-0.703 0.57,-1.273 1.273,-1.273"
       style="fill:#96c2db;fill-opacity:1;fill-rule:nonzero;stroke:none;stroke-width:0.1"
       id="path4054" />
    <path
       d="m 371.441,158.752 h 3.055 c 0.703,0 1.273,0.57 1.273,1.273 v 2.889 h -5.601 v -2.889 c 0,-0.703 0.57,-1.273 1.273,-1.273 z"
       style="fill:none;stroke:#96c2db;stroke-width:2.5;stroke-linecap:round;stroke-linejoin:round;stroke-miterlimit:10;stroke-dasharray:none;stroke-opacity:1"
       id="path4056" />
    <path
       d="m 373.112,191.894 v -3.168"
       style="fill:none;stroke:#96c2db;stroke-width:2.5;stroke-linecap:round;stroke-linejoin:round;stroke-miterlimit:10;stroke-dasharray:none;stroke-opacity:1"
       id="path4058" />
    <path
       d="m 388.836,175.999 h -3.169"
       style="fill:none;stroke:#96c2db;stroke-width:2.5;stroke-linecap:round;stroke-linejoin:round;stroke-miterlimit:10;stroke-dasharray:none;stroke-opacity:1"
       id="path4060" />
    <path
       d="m 385.335,186.529 -2.505,-1.94"
       style="fill:none;stroke:#96c2db;stroke-width:2.5;stroke-linecap:round;stroke-linejoin:round;stroke-miterlimit:10;stroke-dasharray:none;stroke-opacity:1"
       id="path4062" />
    <path
       d="m 361.663,186.529 2.504,-1.94"
       style="fill:none;stroke:#96c2db;stroke-width:2.5;stroke-linecap:round;stroke-linejoin:round;stroke-miterlimit:10;stroke-dasharray:none;stroke-opacity:1"
       id="path4064" />
    <path
       d="m 360.438,175.999 h -3.169"
       style="fill:none;stroke:#96c2db;stroke-width:2.5;stroke-linecap:round;stroke-linejoin:round;stroke-miterlimit:10;stroke-dasharray:none;stroke-opacity:1"
       id="path4066" />
    <path
       d="m 22.9906,413.873 h 64.1086 c 3.5465,0 6.4211,-2.961 6.4211,-6.615 v -41.567 c 0,-3.653 -2.8746,-6.615 -6.4211,-6.615 H 66.4918 l 2.1086,-15.26 c 0.193,-1.398 -1.3043,-2.378 -2.45,-1.603 L 41.2215,359.076 H 22.9906 c -3.5461,0 -6.4211,2.962 -6.4211,6.615 v 41.567 c 0,3.654 2.875,6.615 6.4211,6.615"
       style="fill:#ffffff;fill-opacity:1;fill-rule:nonzero;stroke:none;stroke-width:0.1"
       id="path4068" />
    <path
       d="m 22.9906,413.873 h 64.1086 c 3.5465,0 6.4211,-2.961 6.4211,-6.615 v -41.567 c 0,-3.653 -2.8746,-6.615 -6.4211,-6.615 H 66.4918 l 2.1086,-15.26 c 0.193,-1.398 -1.3043,-2.378 -2.45,-1.603 L 41.2215,359.076 H 22.9906 c -3.5461,0 -6.4211,2.962 -6.4211,6.615 v 41.567 c 0,3.654 2.875,6.615 6.4211,6.615 z"
       style="fill:none;stroke:#17282f;stroke-width:2.5;stroke-linecap:round;stroke-linejoin:round;stroke-miterlimit:10;stroke-dasharray:none;stroke-opacity:1"
       id="path4070" />
    <path
       d="m 73.8047,382.884 c 0,2.768 -1.807,5.111 -4.3047,5.922 0.2063,0.657 0.3242,1.362 0.3242,2.099 0,3.464 -2.4758,6.272 -5.5297,6.272 -0.4664,0 -0.9168,-0.072 -1.3496,-0.196 -0.0929,3.28 -3.373,5.917 -7.4144,5.917 -2.925,0 -5.4473,-1.384 -6.6571,-3.391 -0.9316,0.49 -1.991,0.77 -3.1164,0.77 -3.7086,0 -6.7148,-3.006 -6.7148,-6.714 0,-0.343 0.034,-0.677 0.0836,-1.006 -3.5438,-1.153 -6.1137,-4.464 -6.1539,-8.382 -0.05,-4.854 3.9176,-8.931 8.7715,-9.006 1.7351,-0.027 3.3589,0.442 4.739,1.275 1.1449,-1.414 3.5324,-2.39 6.3012,-2.39 1.7742,0 3.3902,0.403 4.6269,1.062 1.0809,-0.902 2.4708,-1.446 3.9887,-1.446 0.2434,0 0.4836,0.014 0.7196,0.042 2.3335,0.271 4.525,-1.303 4.7468,-3.641 0.0223,-0.236 0.0344,-0.475 0.036,-0.718 0.0062,-1.065 0.8332,-1.989 1.8972,-2.038 1.1422,-0.053 2.0848,0.858 2.0848,1.989 0,0.896 -0.0988,1.766 -0.2848,2.597 -0.5406,2.415 -0.0367,4.984 1.6157,6.826 0.9886,1.103 1.5902,2.559 1.5902,4.157 z"
       style="fill:none;stroke:#96c2db;stroke-width:2.5;stroke-linecap:round;stroke-linejoin:round;stroke-miterlimit:10;stroke-dasharray:none;stroke-opacity:1"
       id="path4072" />
    <path
       d="m 45.7945,391.173 c -2.373,2.566 -7.0828,2.061 -10.53,-1.128"
       style="fill:none;stroke:#96c2db;stroke-width:2.5;stroke-linecap:round;stroke-linejoin:round;stroke-miterlimit:10;stroke-dasharray:none;stroke-opacity:1"
       id="path4074" />
    <path
       d="m 59.3047,381.252 c 0,-3.979 -2.9168,-7.198 -6.5211,-7.198"
       style="fill:none;stroke:#96c2db;stroke-width:2.5;stroke-linecap:round;stroke-linejoin:round;stroke-miterlimit:10;stroke-dasharray:none;stroke-opacity:1"
       id="path4076" />
    <path
       d="m 59.0195,392.443 c 0,2.745 2.061,4.623 6.2969,4.623"
       style="fill:none;stroke:#96c2db;stroke-width:2.5;stroke-linecap:round;stroke-linejoin:round;stroke-miterlimit:10;stroke-dasharray:none;stroke-opacity:1"
       id="path4078" />
    <path
       d="m 51.6168,394.18 c 0.1227,3.091 -1.7957,5.672 -4.2891,5.772"
       style="fill:none;stroke:#96c2db;stroke-width:2.5;stroke-linecap:round;stroke-linejoin:round;stroke-miterlimit:10;stroke-dasharray:none;stroke-opacity:1"
       id="path4080" />
    <path
       d="m 63.1367,383.702 c 0.4391,3.079 3.6117,5.17 7.0938,4.674"
       style="fill:none;stroke:#96c2db;stroke-width:2.5;stroke-linecap:round;stroke-linejoin:round;stroke-miterlimit:10;stroke-dasharray:none;stroke-opacity:1"
       id="path4082" />
    <path
       d="m 48.8047,381.568 c 0.1906,-2.95 -1.9219,-5.037 -4.5,-6.066"
       style="fill:none;stroke:#96c2db;stroke-width:2.5;stroke-linecap:round;stroke-linejoin:round;stroke-miterlimit:10;stroke-dasharray:none;stroke-opacity:1"
       id="path4084" />
    <path
       d="m 55.0434,381.177 c 0,-2.501 1.8441,-3.524 2.8863,-3.524"
       style="fill:none;stroke:#96c2db;stroke-width:2.5;stroke-linecap:round;stroke-linejoin:round;stroke-miterlimit:10;stroke-dasharray:none;stroke-opacity:1"
       id="path4086" />
    <path
       d="m 47.3277,396.356 c 0,1.987 0.9606,3.596 2.1473,3.596"
       style="fill:none;stroke:#96c2db;stroke-width:2.5;stroke-linecap:round;stroke-linejoin:round;stroke-miterlimit:10;stroke-dasharray:none;stroke-opacity:1"
       id="path4088" />
    <path
       d="m 42.9297,386.075 c 0,2.613 2.9273,4.728 6.5453,4.728"
       style="fill:none;stroke:#96c2db;stroke-width:2.5;stroke-linecap:round;stroke-linejoin:round;stroke-miterlimit:10;stroke-dasharray:none;stroke-opacity:1"
       id="path4090" />
    <path
       d="m 65.0703,322.692 c 0.4938,-1.233 -0.964,-2.433 -2.0734,-1.703 -2.7176,1.788 -7.2746,4.438 -10.4797,4.488 -4.8449,0.074 -5.4141,2.82 -3.1192,3.991 2.295,1.171 10.4411,-0.828 13.7321,-4.008 1.0082,-0.975 1.6015,-1.922 1.9402,-2.768"
       style="fill:#17282f;fill-opacity:1;fill-rule:nonzero;stroke:none;stroke-width:0.1"
       id="path4092" />
    <path
       d="m 65.0703,322.692 c 0.4938,-1.233 -0.964,-2.433 -2.0734,-1.703 -2.7176,1.788 -7.2746,4.438 -10.4797,4.488 -4.8449,0.074 -5.4141,2.82 -3.1192,3.991 2.295,1.171 10.4411,-0.828 13.7321,-4.008 1.0082,-0.975 1.6015,-1.922 1.9402,-2.768 z"
       style="fill:none;stroke:#17282f;stroke-width:2.5;stroke-linecap:round;stroke-linejoin:round;stroke-miterlimit:10;stroke-dasharray:none;stroke-opacity:1"
       id="path4094" />
    <path
       d="m 42.6984,324.339 c -0.8207,0.236 -1.2691,1.057 -1.0019,1.835 0.2672,0.777 1.1492,1.216 1.9695,0.98 0.8207,-0.236 1.2692,-1.058 1.002,-1.835 -0.2676,-0.777 -1.1492,-1.216 -1.9696,-0.98"
       style="fill:#17282f;fill-opacity:1;fill-rule:nonzero;stroke:none;stroke-width:0.1"
       id="path4096" />
    <path
       d="m 42.6984,324.339 c -0.8207,0.236 -1.2691,1.057 -1.0019,1.835 0.2672,0.777 1.1492,1.216 1.9695,0.98 0.8207,-0.236 1.2692,-1.058 1.002,-1.835 -0.2676,-0.777 -1.1492,-1.216 -1.9696,-0.98 z"
       style="fill:none;stroke:#17282f;stroke-width:2.5;stroke-linecap:round;stroke-linejoin:round;stroke-miterlimit:10;stroke-dasharray:none;stroke-opacity:1"
       id="path4098" />
    <path
       d="m 141.409,245.748 11.128,-4.243 c 0,0 4.847,-5.075 9.345,-16.469 9.491,8.276 16.726,28.064 16.726,28.064 1.115,3.194 3.527,5.77 6.643,7.088 1.86,0.787 3.575,1.504 3.728,1.516 l 3.881,0.315 c 9.508,0.617 7.583,-2.893 7.583,-6.992 v 0 c 0,0 12.908,3.59 15.565,-0.723 3.805,-6.175 -8.306,-8.792 -8.306,-8.792 l 2.33,-9.507 c 2.851,-3.581 -5.072,-13.331 -12.739,-16.202 0,0 -27.53,-42.385 -44.384,-34.385 -2.979,1.414 -5.001,3.52 -6.299,6.05 -3.372,4.321 -2.588,5.812 -3.251,6.254 -1.361,0.906 -13.105,36.161 -13.105,36.161 l 11.155,11.865"
       style="fill:#fbc6b4;fill-opacity:1;fill-rule:nonzero;stroke:none;stroke-width:0.1"
       id="path4100" />
    <path
       d="m 216.008,254.304 c -2.657,4.313 -15.564,0.723 -15.564,0.723 0,4.099 1.924,7.609 -7.584,6.992 l -3.881,-0.315 c -0.153,-0.012 -1.868,-0.729 -3.728,-1.516 -3.116,-1.318 -5.528,-3.894 -6.643,-7.088 0,0 -7.235,-19.788 -16.726,-28.064 -0.711,1.799 -1.428,3.423 -2.135,4.912 -1.229,-1.005 -2.547,-1.901 -3.929,-2.681 1.445,-2.501 -1.585,-5.166 0,-9.184 15.146,3 26.035,31.746 26.035,31.746 1.115,3.194 3.527,5.77 6.643,7.088 1.86,0.787 3.575,1.504 3.729,1.516 l 3.88,0.316 c 9.508,0.616 2.931,-7.127 2.931,-11.225 0,0 10.648,2.959 14.592,0.271 2.387,1.428 4.196,3.563 2.38,6.509"
       style="fill:#ffffff;fill-opacity:1;fill-rule:nonzero;stroke:none;stroke-width:0.1"
       id="path4102" />
    <path
       d="m 141.409,245.748 11.128,-4.243 c 0,0 4.847,-5.075 9.345,-16.469 9.491,8.276 16.726,28.064 16.726,28.064 1.115,3.194 3.527,5.77 6.643,7.088 1.86,0.787 3.575,1.504 3.728,1.516 l 3.881,0.315 c 9.508,0.617 7.583,-2.893 7.583,-6.992 v 0 c 0,0 12.908,3.59 15.565,-0.723 3.805,-6.175 -8.306,-8.792 -8.306,-8.792 l 2.33,-9.507 c 2.851,-3.581 -5.072,-13.331 -12.739,-16.202 0,0 -27.53,-42.385 -44.384,-34.385 -2.979,1.414 -5.001,3.52 -6.299,6.05 -3.372,4.321 -2.588,5.812 -3.251,6.254 -1.361,0.906 -13.105,36.161 -13.105,36.161 z"
       style="fill:none;stroke:#17282f;stroke-width:2.5;stroke-linecap:round;stroke-linejoin:round;stroke-miterlimit:10;stroke-dasharray:none;stroke-opacity:1"
       id="path4104" />
    <path
       d="m 81.8781,176.157 c 0,0 9.6731,0.302 2.5063,-32.865 C 77.373,110.843 61.5547,122.459 61.5547,122.459 v 0 c -1.9945,-4.447 1.7273,-9.371 6.5402,-8.607 4.3551,0.692 9.693,3.392 14.9563,10.773 12.1218,17 13.4433,65.685 13.4433,65.685 v 0 C 91.868,188.443 81.8781,181.146 81.8781,176.157 v 0"
       style="fill:#85b8e6;fill-opacity:1;fill-rule:nonzero;stroke:none;stroke-width:0.1"
       id="path4106" />
    <path
       d="m 81.8781,176.157 c 0,0 9.6731,0.302 2.5063,-32.865 C 77.373,110.843 61.5547,122.459 61.5547,122.459 v 0 c -1.9945,-4.447 1.7273,-9.371 6.5402,-8.607 4.3551,0.692 9.693,3.392 14.9563,10.773 12.1218,17 13.4433,65.685 13.4433,65.685 v 0 C 91.868,188.443 81.8781,181.146 81.8781,176.157 v 0"
       style="fill:#85b8e6;fill-opacity:1;fill-rule:nonzero;stroke:none;stroke-width:0.1"
       id="path4108" />
    <path
       d="m 197.293,250.707 c 0,0 -10.075,-1.785 -9.408,-5.592 0.666,-3.807 9.408,-4.798 9.408,-4.798"
       style="fill:#fbc6b4;fill-opacity:1;fill-rule:nonzero;stroke:none;stroke-width:0.1"
       id="path4110" />
    <path
       d="m 197.293,250.707 c 0,0 -10.075,-1.785 -9.408,-5.592 0.666,-3.807 9.408,-4.798 9.408,-4.798"
       style="fill:none;stroke:#17282f;stroke-width:2.5;stroke-linecap:round;stroke-linejoin:round;stroke-miterlimit:10;stroke-dasharray:none;stroke-opacity:1"
       id="path4112" />
    <path
       d="m 200.443,241.779 c 0,0 -10.075,-1.785 -9.408,-5.593 0.667,-3.807 9.408,-4.798 9.408,-4.798"
       style="fill:#fbc6b4;fill-opacity:1;fill-rule:nonzero;stroke:none;stroke-width:0.1"
       id="path4114" />
    <path
       d="m 200.443,241.779 c 0,0 -10.075,-1.785 -9.408,-5.593 0.667,-3.807 9.408,-4.798 9.408,-4.798"
       style="fill:none;stroke:#17282f;stroke-width:2.5;stroke-linecap:round;stroke-linejoin:round;stroke-miterlimit:10;stroke-dasharray:none;stroke-opacity:1"
       id="path4116" />
    <path
       d="M 44.823,36.816 40.0129,23.8648 83.0961,9.35313 74.6734,25.2422 44.823,36.816"
       style="fill:#96c2db;fill-opacity:1;fill-rule:nonzero;stroke:none;stroke-width:0.1"
       id="path4118" />
    <path
       d="M 44.823,36.816 40.0129,23.8648 83.0961,9.35313 74.6734,25.2422 Z"
       style="fill:none;stroke:#17282f;stroke-width:2.5;stroke-linecap:round;stroke-linejoin:round;stroke-miterlimit:10;stroke-dasharray:none;stroke-opacity:1"
       id="path4120" />
    <path
       d="m 132.843,24.9559 1.965,-11.6129 45.677,3.0679 -24.012,11.2153 -23.63,-2.6703"
       style="fill:#96c2db;fill-opacity:1;fill-rule:nonzero;stroke:none;stroke-width:0.1"
       id="path4122" />
    <path
       d="m 132.843,24.9559 1.965,-11.6129 45.677,3.0679 -24.012,11.2153 z"
       style="fill:none;stroke:#17282f;stroke-width:2.5;stroke-linecap:round;stroke-linejoin:round;stroke-miterlimit:10;stroke-dasharray:none;stroke-opacity:1"
       id="path4124" />
    <path
       d="m 161.268,229.839 c 0.01,-1.61 -0.18,-2.65 -0.54,-3.28 -2.59,0.22 -5.23,0.35 -7.75,0.18 -0.13,-0.01 -0.26,-0.03 -0.4,-0.05 -2.05,-0.29 -4,-1.83 -5.78,-3.54 -0.02,-0.02 -0.04,-0.04 -0.06,-0.06 -1.45,-1.4 -2.78,-2.91 -3.93,-3.94 -0.34,-0.3 -2.14,-2.02 -2.86,-2.81 -0.18,-0.2 -0.29,-0.34 -0.29,-0.38 0.25,-0.67 0.49,-1.32 0.72,-1.96 3.82,-10.64 5.39,-17.11 5.75,-21.88 0.04,-0.59 0.08,-1.43 0.08,-2.47 v -0.1 c 0.04,-2.03 0.45,-3.78 1.03,-5.45 0.24,-1.42 0.47,-2.84 0.67,-4.26 0.27,-1.85 0.51,-3.71 0.73,-5.58 -0.49,-2.14 -1.52,-4.15 -3.05,-5.84 -0.54,-0.93 -1.37,-1.66 -2.37,-2.06 -15.52,-6.17 -32.72,-6.53 -48.6602,-1.4 l -2.0398,0.66 c -8.95,2.88 -18.3703,3.97 -27.7403,3.23 l -1.35,-0.11 -1.7519,-0.139 c -5.0625,-0.402 -8.461,5.18 -5.6914,9.437 0.0433,0.067 0.0879,0.134 0.1336,0.202 3.8097,5.69 3.85,24.69 0.1898,37.66 -1.0301,3.66 -11.55,-2.75 -12.3,0.02 1.5301,3.01 5.1,11.3 5.1199,14.93 l -0.0797,2.44 c -0.0101,-1.01 -0.05,-1.85 -0.1101,-1.29 -2.1899,19.47 15.0098,34.96 30.8,35.98 4.6098,0.3 12.9301,5.29 12.9301,5.29 l 11.58,5.2 c 0,0 0.12,-0.05 0.33,-0.15 2.46,-1.16 9.32,-6.56 13.21,-6.76 24.06,-1.15 28.14,-9.61 31.83,-24.71 0.01,-0.06 0.02,-0.12 0.06,-0.18 0.98,-2.79 10.22,-6.12 11.45,-15 0.08,-0.6 0.14,-1.22 0.14,-1.83"
       style="fill:#96c2db;fill-opacity:1;fill-rule:nonzero;stroke:none;stroke-width:0.1"
       id="path4126" />
    <path
       d="m 147.636,241.581 c -0.04,0.06 -0.051,1.121 -0.06,1.181 -3.69,15.1 -7.77,23.561 -31.83,24.711 -3.89,0.2 -12.752,4.598 -15.212,5.758 -0.21,0.1 -0.33,0.15 -0.33,0.15 l -11.5798,-5.2 c 0,0 -8.3199,-4.99 -12.9297,-5.29 -7.2609,-0.469 -14.8148,-4.638 -20.6496,-10.891 6.0567,9.015 15.6028,15.393 24.6895,15.98 4.6101,0.3 12.9301,5.29 12.9301,5.29 l 11.5805,5.2 c 0,0 0.119,-0.05 0.329,-0.15 2.461,-1.16 9.321,-6.558 13.211,-6.758 24.06,-1.15 28.139,-9.612 31.829,-24.712 0.01,-0.06 0.02,-0.12 0.06,-0.18 0.98,-2.79 10.22,-6.117 11.45,-14.997 0.08,-0.6 0.141,-1.22 0.141,-1.83 0.01,-1.61 -0.18,-2.65 -0.541,-3.28 -1.221,0.104 -1.453,0.184 -2.679,0.226 -1.343,8.786 -9.437,12.024 -10.409,14.792"
       style="fill:#ffffff;fill-opacity:1;fill-rule:nonzero;stroke:none;stroke-width:0.1"
       id="path4128" />
    <path
       d="m 161.268,229.839 c 0.01,-1.61 -0.18,-2.65 -0.54,-3.28 -2.59,0.22 -5.23,0.35 -7.75,0.18 -0.13,-0.01 -0.26,-0.03 -0.4,-0.05 -1.67,-0.3 -3.75,-1.77 -5.78,-3.54 -0.02,-0.02 -0.04,-0.04 -0.06,-0.06 -2.7,-2.36 -5.31,-5.24 -6.78,-6.55 -0.02,-0.02 -0.02,-0.08 -0.01,-0.2 0.02,-0.36 0.18,-1.19 0.43,-2.34 0.68,-3.12 2.04,-8.64 3.28,-13.63 0.02,-0.08 0.04,-0.15 0.06,-0.23 0.69,-2.8 1.34,-5.43 1.81,-7.35 0.04,-0.14 0.07,-0.29 0.1,-0.45 0.36,-1.51 0.58,-2.5 0.58,-2.69 v -0.1 c 0.04,-2.03 0.45,-3.78 1.03,-5.45 0.24,-1.42 0.47,-2.84 0.67,-4.26 0.27,-1.85 0.51,-3.71 0.73,-5.58 -0.49,-2.14 -1.52,-4.15 -3.05,-5.84 -0.54,-0.93 -1.37,-1.66 -2.37,-2.06 -15.52,-6.17 -32.72,-6.53 -48.6602,-1.4 l -2.0398,0.66 c -8.95,2.88 -18.3703,3.97 -27.7403,3.23 l -1.35,-0.11 -1.7519,-0.139 c -5.0625,-0.402 -8.461,5.18 -5.6914,9.437 0.0433,0.067 0.0879,0.134 0.1336,0.202 3.8097,5.69 3.85,24.69 0.1898,37.66 -1.0301,3.66 -11.55,-2.75 -12.3,0.02 1.5301,3.01 5.1,11.3 5.1199,14.93 l -0.0797,2.44 c -0.0101,-1.01 -0.05,-1.85 -0.1101,-1.29 -2.1899,19.47 15.0098,34.96 30.8,35.98 4.6098,0.3 12.9301,5.29 12.9301,5.29 l 11.58,5.2 c 0,0 0.12,-0.05 0.33,-0.15 2.46,-1.16 9.32,-6.56 13.21,-6.76 24.06,-1.15 28.14,-9.61 31.83,-24.71 0.01,-0.06 0.02,-0.12 0.06,-0.18 0.98,-2.79 10.22,-6.12 11.45,-15 0.08,-0.6 0.14,-1.22 0.14,-1.83 z"
       style="fill:none;stroke:#17282f;stroke-width:2.5;stroke-linecap:round;stroke-linejoin:round;stroke-miterlimit:10;stroke-dasharray:none;stroke-opacity:1"
       id="path4130" />
    <path
       d="m 165.888,26.4988 c -0.01,-0.0199 -0.02,-0.0297 -0.04,-0.0398 -0.04,-0.0301 -0.08,-0.0602 -0.12,-0.0801 -0.89,0.1703 -2.14,0.5199 -3.81,0.4203 -0.01,0 -0.01,0 -0.02,0 -1.36,-0.0703 -3.01,-0.4402 -4.96,-1.4301 -3.59,-1.8199 -7.39,-2.6101 -11.24,-3.0902 -6.87,-0.8598 -13.86,-0.7398 -19.98,-3.7801 -0.65,-0.3199 -1.25,-0.4699 -1.82,-0.4199 -0.6,1.6203 1.37,8.1602 -3.32,16.9301 -4.66,8.7 -12.23,25.4199 -9.91,40.9699 2.72,18.2402 0.21,25.8101 -1.22,30.2601 0.18,1.88 0.34,3.34 0.47,4.3 -0.29,-1.07 -0.57,-2.1 -0.84,-3.08 -1.1,-3.91 -2.07,-7.03 -2.83,-8.9 -4.71,-11.6699 -23.7,-67.4801 -23.6101,-72.1602 0.0398,-2.5398 -5.7902,-3.6398 -12.1102,-3.1898 -0.05,-0.0098 -0.0898,-0.0098 -0.13,0 -5.3,0.4 -10.9098,1.8801 -13.6899,4.5101 -8.4301,7.9899 -14.4199,6.7899 -15.95,8 -0.3898,0.3098 -0.6699,-0.0703 -0.8398,-0.1902 -0.0703,-0.0699 -0.12,-0.0699 -0.1403,0.0801 0,0.3601 5.4801,9.2699 5.4801,11.35 0,8.8898 2.1102,21.7699 4.6699,31.5902 3.77,14.4399 14.1801,22.0198 13.1801,25.3498 -1,3.34 3.4402,35.66 1.1,48.99 -1.3699,7.83 -1.3801,12.35 -1.15,14.76 0.0399,0.4 0.1699,0.77 0.3699,1.09 0.45,0.75 1.2903,1.24 2.22,1.24 6.53,1.08 12.63,3.61 17.9203,7.3 5.2898,3.7 9.7699,8.57 13.0199,14.33 l 15.3001,27.07 c 6.54,16.75 7.6,35.15 3.02,52.55 h 4.06 l 1.69,-2.63 c 9.73,-15.16 15.64,-32.46 17.23,-50.41 l 10.02,-38.35 c 0.27,-1.85 0.51,-3.71 0.73,-5.58 0.21,-1.84 0.39,-3.69 0.54,-5.54 0.15,-4.28 0.38,-9.66 0.75,-14.39 2.98,-12.67 8.07,-38.46 9.78,-49.35 0.03,-0.2 0.06,-0.4 0.09,-0.59 0.02,-0.17 0.05,-0.33 0.07,-0.49 2.49,-16.7201 1.4,-62.19 6.34,-74.7201 0.59,-1.5 0.11,-2.35 -0.32,-2.6801"
       style="fill:#f2504e;fill-opacity:1;fill-rule:nonzero;stroke:none;stroke-width:0.1"
       id="path4132" />
    <path
       d="m 114.188,126.714 c 0.169,1.763 -6.98,-14.41 -7.892,-15.648 l -0.148,-0.257 C 104.073,104.008 101.216,97.7828 100.464,95.932 95.7539,84.2621 78.6598,34.377 78.7496,29.6969 78.7801,27.791 72.7543,23.6422 68.4449,23.4051 c 0.6516,-0.0821 1.3047,-0.1469 1.9528,-0.1961 0.0402,-0.0098 0.08,-0.0098 0.1304,0 6.3199,-0.45 12.1496,0.65 12.1098,3.1898 -0.0836,4.3543 16.3484,52.9672 22.4291,69.1102 -0.417,5.32 9.886,28.825 9.121,31.205"
       style="fill:#ffffff;fill-opacity:1;fill-rule:nonzero;stroke:none;stroke-width:0.1"
       id="path4134" />
    <path
       d="m 166.208,29.1789 c -4.94,12.5301 -3.85,58 -6.34,74.7201 -0.02,0.16 -0.05,0.32 -0.07,0.49 -0.03,0.19 -0.06,0.39 -0.09,0.59 -1.71,10.89 -6.8,36.68 -9.78,49.35 -0.37,4.73 -0.6,10.11 -0.75,14.39 -0.15,1.85 -0.33,3.7 -0.54,5.54 -0.22,1.87 -0.46,3.73 -0.73,5.58 l -10.02,38.35 c -1.59,17.95 -7.5,35.25 -17.23,50.41 l -1.69,2.63 h -4.06 c 6.4,-6.081 17.592,-37.545 19.056,-54.072 l 9.533,-32.744 c 0.27,-1.85 1.497,-9.146 1.717,-11.016 0.21,-1.84 0.85,-5.589 1,-7.439 0.15,-4.28 -0.62,-7.52 -0.25,-12.25 2.98,-12.67 7.671,-37.11 9.381,-48 0.03,-0.2 1.679,-62.9701 6.619,-75.4998 0.59,-1.5 -2.282,-3.134 -2.712,-3.4641 -0.01,-0.0203 -0.02,-0.03 -0.04,-0.0402 0.053,-0.1187 0.111,-0.2348 0.163,-0.3551 0.929,0.2762 1.772,0.4114 2.523,0.4504 0.01,0 0.01,0 0.02,0 1.67,0.0996 2.92,-0.25 3.81,-0.4203 0.04,0.0199 0.08,0.05 0.12,0.0801 0.02,0.0101 0.03,0.0199 0.04,0.0398 0.43,0.3301 0.91,1.1801 0.32,2.6801"
       style="fill:#ffffff;fill-opacity:1;fill-rule:nonzero;stroke:none;stroke-width:0.1"
       id="path4136" />
    <path
       d="m 165.039,26.5199 c 0.249,-0.0508 0.481,-0.1019 0.689,-0.141 0.04,0.0199 0.08,0.05 0.12,0.0801 0.02,0.0101 0.03,0.0199 0.04,0.0398 0.073,0.0563 0.146,0.1332 0.216,0.2203 -0.339,-0.0461 -0.694,-0.1109 -1.065,-0.1992"
       style="fill:#ffffff;fill-opacity:1;fill-rule:nonzero;stroke:none;stroke-width:0.1"
       id="path4138" />
    <path
       d="m 165.888,26.4988 c -0.01,-0.0199 -0.02,-0.0297 -0.04,-0.0398 -0.04,-0.0301 -0.08,-0.0602 -0.12,-0.0801 -0.89,0.1703 -2.14,0.5199 -3.81,0.4203 -0.01,0 -0.01,0 -0.02,0 -1.36,-0.0703 -3.01,-0.4402 -4.96,-1.4301 -3.59,-1.8199 -7.39,-2.6101 -11.24,-3.0902 -6.87,-0.8598 -13.86,-0.7398 -19.98,-3.7801 -0.65,-0.3199 -1.25,-0.4699 -1.82,-0.4199 -0.6,1.6203 1.37,8.1602 -3.32,16.9301 -4.66,8.7 -12.23,25.4199 -9.91,40.9699 2.72,18.2402 0.21,25.8101 -1.22,30.2601 0.18,1.88 0.34,3.34 0.47,4.3 -0.29,-1.07 -0.57,-2.1 -0.84,-3.08 -1.1,-3.91 -2.07,-7.03 -2.83,-8.9 -4.71,-11.6699 -23.7,-67.4801 -23.6101,-72.1602 0.0398,-2.5398 -5.7902,-3.6398 -12.1102,-3.1898 -0.05,-0.0098 -0.0898,-0.0098 -0.13,0 -5.3,0.4 -10.9098,1.8801 -13.6899,4.5101 -8.4301,7.9899 -14.4199,6.7899 -15.95,8 -0.3898,0.3098 -0.6699,-0.0703 -0.8398,-0.1902 -0.0703,-0.0699 -0.12,-0.0699 -0.1403,0.0801 0,0.3601 5.4801,9.2699 5.4801,11.35 0,8.8898 2.1102,21.7699 4.6699,31.5902 3.77,14.4399 14.1801,22.0198 13.1801,25.3498 -1,3.34 3.4402,35.66 1.1,48.99 -1.3699,7.83 -1.3801,12.35 -1.15,14.76 0.0399,0.4 0.1699,0.77 0.3699,1.09 0.45,0.75 1.2903,1.24 2.22,1.24 6.53,1.08 12.63,3.61 17.9203,7.3 5.2898,3.7 9.7699,8.57 13.0199,14.33 l 15.3001,27.07 c 6.54,16.75 7.6,35.15 3.02,52.55 h 4.06 l 1.69,-2.63 c 9.73,-15.16 15.64,-32.46 17.23,-50.41 l 2.44,-7.04 c 1.24,-3.56 2.34,-7.16 3.33,-10.78 0.02,-0.08 0.04,-0.15 0.06,-0.23 0.66,-2.44 1.27,-4.89 1.81,-7.35 0.04,-0.14 0.07,-0.29 0.1,-0.45 0.21,-0.93 0.41,-1.86 0.58,-2.79 0.38,-1.81 0.72,-3.62 1.03,-5.45 0.24,-1.42 0.47,-2.84 0.67,-4.26 0.27,-1.85 0.51,-3.71 0.73,-5.58 0.21,-1.84 0.39,-3.69 0.54,-5.54 0.34,-4.04 0.55,-8.1 0.64,-12.16 0.02,-0.78 0.05,-1.52 0.11,-2.23 2.98,-12.67 8.07,-38.46 9.78,-49.35 0.03,-0.2 0.06,-0.4 0.09,-0.59 0.02,-0.17 0.05,-0.33 0.07,-0.49 2.49,-16.7201 1.4,-62.19 6.34,-74.7201 0.59,-1.5 0.11,-2.35 -0.32,-2.6801 z"
       style="fill:none;stroke:#17282f;stroke-width:2.5;stroke-linecap:round;stroke-linejoin:round;stroke-miterlimit:10;stroke-dasharray:none;stroke-opacity:1"
       id="path4140" />
    <path
       d="m 44.0758,215.748 c -0.027,0.053 -0.0543,0.106 -0.0711,0.168 0.2277,0.448 0.5043,0.856 0.8043,1.241 -0.177,-0.512 -0.4289,-0.976 -0.7332,-1.409"
       style="fill:#ffffff;fill-opacity:1;fill-rule:nonzero;stroke:none;stroke-width:0.1"
       id="path4142" />
    <path
       d="m 110.719,268.71 c -0.838,-3.528 -4.575,-4.506 -8.813,-2.615 -0.512,0.232 -1.033,0.508 -1.561,0.819 -0.156,0.099 -0.317,0.194 -0.4786,0.299 -0.3644,0.237 -0.7355,0.5 -1.0809,0.763 -4.3968,3.356 -7.1492,8.749 -6.2496,12.526 0.5368,2.254 2.2508,3.478 4.5196,3.567 0.1086,0.004 0.2218,0.003 0.3406,-0.005 0.1566,0.002 0.323,-0.008 0.4898,-0.019 1.6664,-0.112 3.5681,-0.784 5.5011,-2.036 5.018,-3.263 8.305,-9.212 7.332,-13.299"
       style="fill:#17282f;fill-opacity:1;fill-rule:nonzero;stroke:none;stroke-width:0.1"
       id="path4144" />
    <path
       d="m 110.719,268.71 c -0.838,-3.528 -4.575,-4.506 -8.813,-2.615 -0.512,0.232 -1.033,0.508 -1.561,0.819 -0.156,0.099 -0.317,0.194 -0.4786,0.299 -0.3644,0.237 -0.7355,0.5 -1.0809,0.763 -4.3968,3.356 -7.1492,8.749 -6.2496,12.526 0.5368,2.254 2.2508,3.478 4.5196,3.567 0.1086,0.004 0.2218,0.003 0.3406,-0.005 0.1566,0.002 0.323,-0.008 0.4898,-0.019 1.6664,-0.112 3.5681,-0.784 5.5011,-2.036 5.018,-3.263 8.305,-9.212 7.332,-13.299 z"
       style="fill:none;stroke:#17282f;stroke-width:2.5;stroke-linecap:round;stroke-linejoin:round;stroke-miterlimit:10;stroke-dasharray:none;stroke-opacity:1"
       id="path4146" />
    <path
       d="m 110.876,275.364 c -0.31,-0.32 -0.64,-0.63 -0.98,-0.91 v -0.01 c -0.08,-0.07 -0.17,-0.14 -0.25,-0.21 -0.09,-0.07 -0.18,-0.14 -0.27,-0.21 -0.11,-0.09 -0.22,-0.18 -0.33,-0.25 -0.07,-0.05 -0.15,-0.11 -0.22,-0.16 -0.04,-0.03 -0.09,-0.06 -0.14,-0.09 -0.16,-0.11 -0.33,-0.22 -0.5,-0.32 -0.04,-0.03 -0.08,-0.06 -0.12,-0.08 -0.09,-0.05 -0.19,-0.11 -0.28,-0.16 -0.48,-0.28 -0.97,-0.52 -1.48,-0.72 -0.24,-0.1 -0.48,-0.19 -0.73,-0.27 -0.13,-0.05 -0.25,-0.09 -0.38,-0.12 -0.28,-0.1 -0.56,-0.17 -0.85,-0.24 -2.96,-0.71 -6.1601,-0.43 -9.18,0.76 -0.2301,0.09 -0.4601,0.19 -0.6801,0.29 -0.0097,0 -0.0097,0 -0.0097,0 -1.6801,0.75 -3.2801,1.78 -4.75,3.07 -0.1801,0.16 -0.3602,0.33 -0.5403,0.49 -0.5199,0.51 -1.03,1.05 -1.5199,1.63 -0.1898,0.24 -0.3898,0.47 -0.5801,0.72 -0.0699,0.1 -0.15,0.2 -0.2199,0.3 -0.1301,0.18 -0.2597,0.36 -0.3898,0.55 -0.1004,0.15 -0.2,0.3 -0.3004,0.45 -0.1,0.15 -0.1996,0.3 -0.2899,0.45 -0.25,0.4 -0.48,0.81 -0.7,1.22 v 0.01 c -2.2,4.23 -2.75,8.93 -1.7,13.05 0.6204,2.42 1.7903,4.63 3.5102,6.42 0.2,0.2 0.3898,0.39 0.6,0.58 0.2,0.2 0.4098,0.38 0.6199,0.55 h 0.0102 c 0.0097,0.01 0.0199,0.02 0.0297,0.03 0.15,0.11 0.2902,0.23 0.4402,0.34 0.9598,0.72 1.9898,1.28 3.0699,1.7 0.0102,0 0.0199,0.01 0.0199,0.01 0.8899,0.35 1.8102,0.6 2.7602,0.75 2.1,0.34 4.3,0.2 6.4399,-0.39 h 0.01 c 0.22,-0.06 0.42,-0.13 0.64,-0.21 0.3,-0.09 0.61,-0.2 0.92,-0.32 0.47,-0.18 0.94,-0.38 1.4,-0.61 0.15,-0.08 0.31,-0.16 0.46,-0.24 0.5,-0.25 1,-0.54 1.48,-0.86 0.09,-0.04 0.17,-0.1 0.26,-0.16 0.28,-0.18 0.55,-0.37 0.82,-0.57 0.01,-0.01 0.01,-0.01 0.02,-0.02 0.25,-0.19 0.49,-0.38 0.74,-0.59 0.09,-0.07 0.17,-0.14 0.26,-0.22 0.2,-0.17 0.41,-0.36 0.6,-0.54 0.78,-0.73 1.51,-1.54 2.19,-2.43 0.52,-0.68 0.99,-1.38 1.41,-2.09 0.56,-0.95 1.03,-1.93 1.41,-2.93 0.19,-0.5 0.36,-1 0.52,-1.5 1.72,-5.8 0.6,-11.93 -3.25,-15.94"
       style="fill:#fbc6b4;fill-opacity:1;fill-rule:nonzero;stroke:none;stroke-width:0.1"
       id="path4148" />
    <path
       d="m 110.876,275.364 c -0.3,-0.32 -0.63,-0.64 -0.98,-0.92 -0.08,-0.08 -0.17,-0.15 -0.25,-0.22 -0.09,-0.07 -0.18,-0.14 -0.27,-0.2 -0.11,-0.09 -0.22,-0.18 -0.33,-0.25 -0.06,-0.05 -0.12,-0.09 -0.18,-0.14 -0.01,-0.01 -0.02,-0.02 -0.04,-0.02 -0.04,-0.03 -0.09,-0.06 -0.14,-0.09 v -0.01 c -0.16,-0.11 -0.33,-0.21 -0.5,-0.31 -0.04,-0.03 -0.08,-0.06 -0.12,-0.08 -0.09,-0.06 -0.19,-0.11 -0.28,-0.16 -0.48,-0.28 -0.97,-0.52 -1.48,-0.72 1.19,1.01 2.18,2.18 2.96,3.49 0,0 0,0 0,0.01 3.38,5.67 2.79,13.74 -1.97,19.97 -1.16,1.51 -2.48,2.8 -3.9,3.85 -1.37,1.02 -2.83,1.82 -4.33,2.39 -0.3101,0.11 -0.6199,0.23 -0.9199,0.32 -0.2203,0.08 -0.4402,0.15 -0.65,0.21 -3.1898,0.88 -6.5,0.73 -9.45,-0.49 0.05,0.06 0.1098,0.1 0.1699,0.16 h 0.0102 c 0.0097,0.01 0.0199,0.02 0.0297,0.03 0.15,0.11 0.2902,0.23 0.4402,0.34 0.9699,0.71 2,1.28 3.0699,1.7 0.0102,0 0.0199,0.01 0.0199,0.01 0.9,0.34 1.8204,0.59 2.7602,0.75 2.1,0.34 4.3,0.2 6.4399,-0.39 h 0.01 c 0.22,-0.06 0.42,-0.13 0.64,-0.21 0.3,-0.09 0.61,-0.2 0.92,-0.32 0.47,-0.18 0.94,-0.38 1.4,-0.61 0.66,-0.31 1.31,-0.68 1.95,-1.08 0.08,-0.06 0.16,-0.12 0.25,-0.18 0.28,-0.18 0.55,-0.37 0.82,-0.57 0.01,-0.01 0.01,-0.01 0.02,-0.02 0.25,-0.19 0.49,-0.38 0.74,-0.59 0.09,-0.07 0.17,-0.14 0.26,-0.22 0.2,-0.17 0.41,-0.36 0.6,-0.54 0.78,-0.73 1.52,-1.54 2.2,-2.43 0.52,-0.67 0.98,-1.37 1.4,-2.09 0.56,-0.95 1.03,-1.93 1.41,-2.93 0.2,-0.5 0.37,-1 0.52,-1.5 1.72,-5.8 0.6,-11.93 -3.25,-15.94"
       style="fill:#ffffff;fill-opacity:1;fill-rule:nonzero;stroke:none;stroke-width:0.1"
       id="path4150" />
    <path
       d="m 110.876,275.364 c -0.3,-0.32 -0.63,-0.64 -0.98,-0.92 -0.08,-0.08 -0.17,-0.15 -0.25,-0.22 -0.25,-0.21 -0.51,-0.4 -0.78,-0.59 -0.01,-0.01 -0.02,-0.02 -0.04,-0.02 -0.04,-0.04 -0.09,-0.07 -0.14,-0.1 -0.2,-0.14 -0.41,-0.27 -0.62,-0.39 -0.09,-0.06 -0.19,-0.11 -0.28,-0.16 -0.48,-0.28 -0.97,-0.52 -1.48,-0.72 -0.24,-0.1 -0.48,-0.19 -0.73,-0.27 -0.13,-0.05 -0.25,-0.09 -0.38,-0.12 -0.28,-0.1 -0.56,-0.17 -0.85,-0.24 -2.96,-0.71 -6.1601,-0.43 -9.18,0.76 -0.2301,0.09 -0.4601,0.19 -0.6801,0.29 -0.0097,0 -0.0097,0 -0.0097,0 -1.6801,0.75 -3.2801,1.78 -4.75,3.07 -0.1801,0.16 -0.3602,0.33 -0.5403,0.49 -0.53,0.52 -1.03,1.06 -1.5199,1.63 -0.1898,0.24 -0.3898,0.47 -0.5801,0.72 -0.0699,0.1 -0.15,0.2 -0.2199,0.3 -0.1301,0.18 -0.2597,0.36 -0.3898,0.55 -0.1004,0.15 -0.2,0.3 -0.3004,0.45 -0.1,0.15 -0.1996,0.3 -0.2899,0.45 -0.25,0.4 -0.48,0.81 -0.7,1.22 v 0.01 c -2.2,4.23 -2.75,8.93 -1.7,13.05 0.6204,2.42 1.8,4.63 3.5102,6.42 0.2,0.2 0.3898,0.39 0.6,0.58 0.1398,0.14 0.2898,0.27 0.45,0.39 0.05,0.06 0.1098,0.1 0.1699,0.16 h 0.0102 c 0.0097,0.01 0.0199,0.02 0.0297,0.03 0.15,0.11 0.2902,0.23 0.4402,0.34 0.9699,0.71 2,1.28 3.0699,1.7 0.0102,0 0.0199,0.01 0.0199,0.01 0.9,0.34 1.8204,0.59 2.7602,0.75 2.1,0.34 4.3,0.2 6.4399,-0.39 h 0.01 c 0.22,-0.06 0.42,-0.13 0.64,-0.21 0.3,-0.09 0.61,-0.2 0.92,-0.32 0.47,-0.18 0.94,-0.38 1.4,-0.61 0.66,-0.31 1.31,-0.68 1.95,-1.08 0.08,-0.06 0.16,-0.12 0.25,-0.18 0.28,-0.18 0.55,-0.37 0.82,-0.57 0.01,-0.01 0.01,-0.01 0.02,-0.02 0.25,-0.19 0.49,-0.38 0.74,-0.59 0.09,-0.07 0.17,-0.14 0.26,-0.22 0.2,-0.17 0.41,-0.36 0.6,-0.54 0.78,-0.73 1.52,-1.54 2.2,-2.43 0.52,-0.67 0.98,-1.37 1.4,-2.09 0.56,-0.95 1.03,-1.93 1.41,-2.93 0.2,-0.5 0.37,-1 0.52,-1.5 1.72,-5.8 0.6,-11.93 -3.25,-15.94 z"
       style="fill:none;stroke:#17282f;stroke-width:2.5;stroke-linecap:round;stroke-linejoin:round;stroke-miterlimit:10;stroke-dasharray:none;stroke-opacity:1"
       id="path4152" />
    <path
       d="m 139.847,234.728 c -0.055,-0.816 0.266,-3.953 0,-4.774 -2.756,-8.5 0.473,-15.711 0.473,-15.711"
       style="fill:none;stroke:#17282f;stroke-width:2.5;stroke-linecap:round;stroke-linejoin:round;stroke-miterlimit:10;stroke-dasharray:none;stroke-opacity:1"
       id="path4154" />
    <path
       d="m 58.4145,209.405 c 0,0 -15.9629,3.608 -14.9618,4.986 1.0008,1.379 12.8575,1.505 12.8575,1.505 l 2.1043,-6.491"
       style="fill:#17282f;fill-opacity:1;fill-rule:nonzero;stroke:none;stroke-width:0.1"
       id="path4156" />
    <path
       d="m 58.4145,209.405 c 0,0 -15.9629,3.608 -14.9618,4.986 1.0008,1.379 12.8575,1.505 12.8575,1.505 z"
       style="fill:none;stroke:#17282f;stroke-width:2.5;stroke-linecap:round;stroke-linejoin:round;stroke-miterlimit:10;stroke-dasharray:none;stroke-opacity:1"
       id="path4158" />
    <path
       d="m 86.2883,266.553 c -2.8348,0.924 -5.8594,1.101 -8.8207,1.16"
       style="fill:none;stroke:#17282f;stroke-width:2.5;stroke-linecap:round;stroke-linejoin:round;stroke-miterlimit:10;stroke-dasharray:none;stroke-opacity:1"
       id="path4160" />
    <path
       d="m 139.654,223.006 c 1.628,2.19 2.947,5.497 3.843,8.067"
       style="fill:none;stroke:#17282f;stroke-width:2.5;stroke-linecap:round;stroke-linejoin:round;stroke-miterlimit:10;stroke-dasharray:none;stroke-opacity:1"
       id="path4162" />
    <path
       d="m 62.9578,229.381 c 3.6219,-1.835 7.8024,-2.591 11.8199,-2.871"
       style="fill:none;stroke:#17282f;stroke-width:2.5;stroke-linecap:round;stroke-linejoin:round;stroke-miterlimit:10;stroke-dasharray:none;stroke-opacity:1"
       id="path4164" />
    <path
       d="m 62.2406,235.136 c 1.2907,-0.818 2.7141,-1.406 4.1809,-1.824"
       style="fill:none;stroke:#17282f;stroke-width:2.5;stroke-linecap:round;stroke-linejoin:round;stroke-miterlimit:10;stroke-dasharray:none;stroke-opacity:1"
       id="path4166" />
    <path
       d="m 111.525,259.836 c -2.644,-2.54 -6.591,-2.786 -9.759,-1.101"
       style="fill:none;stroke:#17282f;stroke-width:2.5;stroke-linecap:round;stroke-linejoin:round;stroke-miterlimit:10;stroke-dasharray:none;stroke-opacity:1"
       id="path4168" />
    <path
       d="m 43.4547,214.396 c 8.4433,3.618 17.8211,8.306 26.6777,8.971"
       style="fill:none;stroke:#17282f;stroke-width:2.5;stroke-linecap:round;stroke-linejoin:round;stroke-miterlimit:10;stroke-dasharray:none;stroke-opacity:1"
       id="path4170" />
    <path
       d="m 48.9344,232.002 0.05,3.515 v -0.14 l 0.1402,-4.527 c -0.0199,-3.63 -3.5902,-11.924 -5.1199,-14.934 -0.1902,-0.37 -0.35,-0.78 -0.4703,-1.22 l -0.0797,-0.3 c -0.0102,-0.02 -0.0102,-0.02 -0.0102,-0.02"
       style="fill:none;stroke:#17282f;stroke-width:2.5;stroke-linecap:round;stroke-linejoin:round;stroke-miterlimit:10;stroke-dasharray:none;stroke-opacity:1"
       id="path4172" />
    <path
       d="m 105.906,302.374 c -0.01,-0.01 -0.01,-0.01 -0.01,-0.02 -0.35,-0.46 -0.76,-0.87 -1.21,-1.22 -0.39,-0.56 -0.82,-1.08 -1.29,-1.57 -2.09,-2.22 -4.8499,-3.71 -7.3698,-4.36 -0.0801,-0.02 -1.1301,-0.52 -2.0903,-1.42 -1.0898,-1.02 -1.5101,-2.61 -1.0199,-4.01 1.05,-3 -0.1898,-6.61 -3.7101,-8.13 -0.6797,-0.29 -1.45,-0.39 -2.1899,-0.32 -0.85,0.07 -1,0.09 -1.5199,0.18 -0.1,0.02 -0.2102,0.04 -0.3102,0.04 v 0.01 c -2.2,4.23 -2.75,8.93 -1.7,13.05 0.6204,2.42 1.7903,4.63 3.5102,6.42 0.2,0.2 0.3898,0.39 0.6,0.58 0.2,0.2 0.4098,0.38 0.6199,0.55 h 0.0102 c 0.0097,0.01 0.0199,0.02 0.0297,0.03 0.15,0.11 0.2902,0.23 0.4402,0.34 0.9598,0.72 1.9898,1.28 3.0699,1.7 0.0102,0 0.0199,0.01 0.0199,0.01 0.8899,0.35 1.8102,0.6 2.7602,0.75 2.1,0.34 4.3,0.2 6.4399,-0.39 h 0.01 c 0.22,-0.06 0.42,-0.13 0.64,-0.21 0.3,-0.09 0.61,-0.2 0.92,-0.32 0.47,-0.18 0.94,-0.38 1.4,-0.61 0.66,-0.31 1.31,-0.68 1.95,-1.08"
       style="fill:#17282f;fill-opacity:1;fill-rule:nonzero;stroke:none;stroke-width:0.1"
       id="path4174" />
    <path
       d="m 105.906,302.374 c -0.01,-0.01 -0.01,-0.01 -0.01,-0.02 -0.35,-0.46 -0.76,-0.87 -1.21,-1.22 -0.39,-0.56 -0.82,-1.08 -1.29,-1.57 -2.09,-2.22 -4.8499,-3.71 -7.3698,-4.36 -0.0801,-0.02 -1.1301,-0.52 -2.0903,-1.42 -1.0898,-1.02 -1.5101,-2.61 -1.0199,-4.01 1.05,-3 -0.1898,-6.61 -3.7101,-8.13 -0.6797,-0.29 -1.45,-0.39 -2.1899,-0.32 -0.85,0.07 -1,0.09 -1.5199,0.18 -0.1,0.02 -0.2102,0.04 -0.3102,0.04 v 0.01 c -2.2,4.23 -2.75,8.93 -1.7,13.05 0.6204,2.42 1.7903,4.63 3.5102,6.42 0.2,0.2 0.3898,0.39 0.6,0.58 0.2,0.2 0.4098,0.38 0.6199,0.55 h 0.0102 c 0.0097,0.01 0.0199,0.02 0.0297,0.03 0.15,0.11 0.2902,0.23 0.4402,0.34 0.9598,0.72 1.9898,1.28 3.0699,1.7 0.0102,0 0.0199,0.01 0.0199,0.01 0.8899,0.35 1.8102,0.6 2.7602,0.75 2.1,0.34 4.3,0.2 6.4399,-0.39 h 0.01 c 0.22,-0.06 0.42,-0.13 0.64,-0.21 0.3,-0.09 0.61,-0.2 0.92,-0.32 0.47,-0.18 0.94,-0.38 1.4,-0.61 0.66,-0.31 1.31,-0.68 1.95,-1.08 z"
       style="fill:none;stroke:#17282f;stroke-width:2.5;stroke-linecap:round;stroke-linejoin:round;stroke-miterlimit:10;stroke-dasharray:none;stroke-opacity:1"
       id="path4176" />
    <path
       d="m 111.525,199.137 c 0,-1.672 15.428,-2.828 23.342,0.309 0.785,0.311 9.064,-41.706 -6.149,-40.737"
       style="fill:none;stroke:#17282f;stroke-width:2.5;stroke-linecap:round;stroke-linejoin:round;stroke-miterlimit:10;stroke-dasharray:none;stroke-opacity:1"
       id="path4178" />
    <path
       d="m 148.643,262.405 c 4.247,-1.779 4.825,-6.217 4.825,-9.489"
       style="fill:none;stroke:#17282f;stroke-width:2.5;stroke-linecap:round;stroke-linejoin:round;stroke-miterlimit:10;stroke-dasharray:none;stroke-opacity:1"
       id="path4180" />
    <path
       d="m 153.652,265.272 c 1.532,-0.638 2.792,-1.775 3.573,-3.24"
       style="fill:none;stroke:#17282f;stroke-width:2.5;stroke-linecap:round;stroke-linejoin:round;stroke-miterlimit:10;stroke-dasharray:none;stroke-opacity:1"
       id="path4182" />
    <path
       d="m 163.123,226.563 -7.685,-7.113"
       style="fill:none;stroke:#17282f;stroke-width:2.5;stroke-linecap:round;stroke-linejoin:round;stroke-miterlimit:10;stroke-dasharray:none;stroke-opacity:1"
       id="path4184" />
    <path
       d="m 200.443,259.126 c 0,-4.682 0.672,-3.423 -9.78,-6.707"
       style="fill:none;stroke:#17282f;stroke-width:2.5;stroke-linecap:round;stroke-linejoin:round;stroke-miterlimit:10;stroke-dasharray:none;stroke-opacity:1"
       id="path4186" />
    <path
       d="m 188.979,261.704 c 0,-1.425 4.594,-5.056 11.464,-2.578"
       style="fill:none;stroke:#17282f;stroke-width:2.5;stroke-linecap:round;stroke-linejoin:round;stroke-miterlimit:10;stroke-dasharray:none;stroke-opacity:1"
       id="path4188" />
    <path
       d="m 184.101,283.964 c 3.427,1.979 7.81,0.805 9.789,-2.623 l 16.534,-27.1 2.459,-14.321 -14.872,7.154 -3.702,6.413 c 0.319,0.05 0.637,0.098 0.957,0.161 2.465,0.488 7.357,3.201 6.731,5.478 -0.696,2.535 -6.742,3.936 -9.193,3.452 -1.166,-0.231 -2.366,-0.295 -3.573,-0.296 l -7.754,11.893 c -1.979,3.427 -0.804,7.81 2.624,9.789"
       style="fill:#ffffff;fill-opacity:1;fill-rule:nonzero;stroke:none;stroke-width:0.1"
       id="path4190" />
    <path
       d="m 184.101,283.964 c 3.427,1.979 7.81,0.805 9.789,-2.623 l 16.534,-27.1 2.459,-14.321 -14.872,7.154 -3.702,6.413 c 0.319,0.05 0.637,0.098 0.957,0.161 2.465,0.488 7.357,3.201 6.731,5.478 -0.696,2.535 -6.742,3.936 -9.193,3.452 -1.166,-0.231 -2.366,-0.295 -3.573,-0.296 l -7.754,11.893 c -1.979,3.427 -0.804,7.81 2.624,9.789 z"
       style="fill:none;stroke:#17282f;stroke-width:2.5;stroke-linecap:round;stroke-linejoin:round;stroke-miterlimit:10;stroke-dasharray:none;stroke-opacity:1"
       id="path4192" />
    <path
       d="m 194.503,280.125 c -4.304,-2.076 -8.525,-4.255 -12.631,-6.634 l -0.395,0.684 c -1.979,3.427 -0.804,7.81 2.624,9.789 3.427,1.979 7.81,0.805 9.789,-2.623 l 0.684,-1.185 c -0.023,-0.011 -0.047,-0.019 -0.071,-0.031"
       style="fill:#f2504e;fill-opacity:1;fill-rule:nonzero;stroke:none;stroke-width:0.1"
       id="path4194" />
    <path
       d="m 194.503,280.125 c -4.304,-2.076 -8.525,-4.255 -12.631,-6.634 l -0.395,0.684 c -1.979,3.427 -0.804,7.81 2.624,9.789 3.427,1.979 7.81,0.805 9.789,-2.623 l 0.684,-1.185 c -0.023,-0.011 -0.047,-0.019 -0.071,-0.031 z"
       style="fill:none;stroke:#17282f;stroke-width:2.5;stroke-linecap:round;stroke-linejoin:round;stroke-miterlimit:10;stroke-dasharray:none;stroke-opacity:1"
       id="path4196" />
    <path
       d="m 185.729,266.897 3.55,-4.62 c 1.19,0.01 2.381,0.07 3.52,0.3 2.46,0.49 8.498,-0.921 9.198,-3.451 0.63,-2.28 -4.268,-4.989 -6.728,-5.479 -0.31,-0.06 -0.609,-0.1 -0.909,-0.15 l 11.49,-19.91 6.889,-4.96 7.29,-5.26 -0.889,8.73 -0.881,8.66 -20.11,33.31 -12.42,-7.17"
       style="fill:#ffffff;fill-opacity:1;fill-rule:nonzero;stroke:none;stroke-width:0.1"
       id="path4198" />
    <path
       d="m 185.729,266.897 3.55,-4.62 c 1.19,0.01 2.381,0.07 3.52,0.3 2.46,0.49 8.498,-0.921 9.198,-3.451 0.63,-2.28 -4.268,-4.989 -6.728,-5.479 -0.31,-0.06 -0.609,-0.1 -0.909,-0.15 l 11.49,-19.91 6.889,-4.96 7.29,-5.26 -0.889,8.73 -0.881,8.66 -20.11,33.31 z"
       style="fill:none;stroke:#17282f;stroke-width:2.5;stroke-linecap:round;stroke-linejoin:round;stroke-miterlimit:10;stroke-dasharray:none;stroke-opacity:1"
       id="path4200" />
    <path
       d="m 195.266,253.648 c 2.465,0.488 7.357,3.201 6.731,5.478 -0.696,2.535 -6.742,3.936 -9.193,3.452 -1.149,-0.228 -2.331,-0.293 -3.52,-0.296 l -3.552,4.615 12.413,7.167 20.118,-33.307 -12.413,-7.167 -11.493,19.905 c 0.303,0.048 0.606,0.093 0.909,0.153"
       style="fill:#f2504e;fill-opacity:1;fill-rule:nonzero;stroke:none;stroke-width:0.1"
       id="path4202" />
    <path
       d="m 195.266,253.648 c 2.465,0.488 7.357,3.201 6.731,5.478 -0.696,2.535 -6.742,3.936 -9.193,3.452 -1.149,-0.228 -2.331,-0.293 -3.52,-0.296 l -3.552,4.615 12.413,7.167 20.118,-33.307 -12.413,-7.167 -11.493,19.905 c 0.303,0.048 0.606,0.093 0.909,0.153 z"
       style="fill:none;stroke:#17282f;stroke-width:2.5;stroke-linecap:round;stroke-linejoin:round;stroke-miterlimit:10;stroke-dasharray:none;stroke-opacity:1"
       id="path4204" />
    <path
       d="m 212.739,228.627 7.29,-5.26 -0.889,8.73 c -2.381,-0.85 -4.54,-2.02 -6.401,-3.47"
       style="fill:#f2504e;fill-opacity:1;fill-rule:nonzero;stroke:none;stroke-width:0.1"
       id="path4206" />
    <path
       d="m 212.739,228.627 7.29,-5.26 -0.889,8.73 c -2.381,-0.85 -4.54,-2.02 -6.401,-3.47 z"
       style="fill:none;stroke:#17282f;stroke-width:2.5;stroke-linecap:round;stroke-linejoin:round;stroke-miterlimit:10;stroke-dasharray:none;stroke-opacity:1"
       id="path4208" />
    <path
       d="m 116.529,144.894 c 0.476,-12.406 -5.004,-27.185 -9.303,-43.607 -0.674,-2.5749 -3.565,-10.146 -5.351,-14.5448 -1.711,-4.2152 -4.6441,-12.6621 -5.3805,-15.4613"
       style="fill:none;stroke:#17282f;stroke-width:2.5;stroke-linecap:round;stroke-linejoin:round;stroke-miterlimit:10;stroke-dasharray:none;stroke-opacity:1"
       id="path4210" />
    <path
       d="m 82.034,161.272 c -1.3738,-7.428 -7.0289,-12.598 -12.6434,-11.56"
       style="fill:none;stroke:#17282f;stroke-width:2.5;stroke-linecap:round;stroke-linejoin:round;stroke-miterlimit:10;stroke-dasharray:none;stroke-opacity:1"
       id="path4212" />
    <path
       d="m 125.803,144.582 c -2.134,-3.463 -5.389,-8.173 -8.99,-10.008"
       style="fill:none;stroke:#17282f;stroke-width:2.5;stroke-linecap:round;stroke-linejoin:round;stroke-miterlimit:10;stroke-dasharray:none;stroke-opacity:1"
       id="path4214" />
    <path
       d="m 70.5363,216.766 0.0836,-1.261 c -0.0051,0 -0.0379,0.507 -0.0836,1.261 z"
       style="fill:none;stroke:#17282f;stroke-width:2.5;stroke-linecap:round;stroke-linejoin:round;stroke-miterlimit:10;stroke-dasharray:none;stroke-opacity:1"
       id="path4216" />
    <path
       d="m 54.3348,318.968 c -6.9047,1.873 -14.32,-1.926 -16.8414,-8.621 -2.8368,-7.532 0.9125,-16.865 8.7441,-18.346 13.3234,-2.521 15.0602,5.413 21.4727,0.821 2.4617,-1.762 3.3718,-5.168 6.4793,-6.181 5.2308,-1.706 11.0703,1.127 12.9597,6.294 2.0203,5.525 -0.9359,11.585 -6.4785,13.422 -3.1133,1.032 -6.4387,0.96 -9.45,0.524 -6.0074,-0.87 -11.5144,10.63 -16.8859,12.087"
       style="fill:#17282f;fill-opacity:1;fill-rule:nonzero;stroke:none;stroke-width:0.1"
       id="path4218" />
    <path
       d="m 54.3348,318.968 c -6.9047,1.873 -14.32,-1.926 -16.8414,-8.621 -2.8368,-7.532 0.9125,-16.865 8.7441,-18.346 13.3234,-2.521 15.0602,5.413 21.4727,0.821 2.4617,-1.762 3.3718,-5.168 6.4793,-6.181 5.2308,-1.706 11.0703,1.127 12.9597,6.294 2.0203,5.525 -0.9359,11.585 -6.4785,13.422 -3.1133,1.032 -6.4387,0.96 -9.45,0.524 -6.0074,-0.87 -11.5144,10.63 -16.8859,12.087 z"
       style="fill:none;stroke:#17282f;stroke-width:2.5;stroke-linecap:round;stroke-linejoin:round;stroke-miterlimit:10;stroke-dasharray:none;stroke-opacity:1"
       id="path4220" />
    <path
       d="m 81.8781,176.157 c 0,0 9.6731,0.302 2.5063,-32.865 C 77.373,110.843 61.5547,122.459 61.5547,122.459 v 0 c -1.9945,-4.447 1.7273,-9.371 6.5402,-8.607 4.3551,0.692 9.693,3.392 14.9563,10.773 12.1218,17 13.4433,65.685 13.4433,65.685 v 0 C 91.868,188.443 81.8781,181.146 81.8781,176.157 v 0"
       style="fill:#f2504e;fill-opacity:1;fill-rule:nonzero;stroke:none;stroke-width:0.1"
       id="path4222" />
    <path
       d="m 81.8781,176.157 c 0,0 9.6731,0.302 2.5063,-32.865 C 77.373,110.843 61.5547,122.459 61.5547,122.459 v 0 c -1.9945,-4.447 1.7273,-9.371 6.5402,-8.607 4.3551,0.692 9.693,3.392 14.9563,10.773 12.1218,17 13.4433,65.685 13.4433,65.685 v 0 C 91.868,188.443 81.8781,181.146 81.8781,176.157 Z"
       style="fill:none;stroke:#17282f;stroke-width:2.5;stroke-linecap:round;stroke-linejoin:round;stroke-miterlimit:10;stroke-dasharray:none;stroke-opacity:1"
       id="path4224" />
    <path
       d="m 70.5363,216.766 0.0836,-1.261 c -0.0051,0 -0.0379,0.507 -0.0836,1.261 z m 45.1147,29.428 c 0.666,3.387 -0.32,6.911 -2.715,9.398 -1.137,1.18 -2.309,2.261 -3.216,2.994 -4.407,3.558 2.768,-4.742 2.038,3.697 -0.334,3.86 -10.976,12.948 -11.675,9.394 -0.2346,-1.193 1.379,5.098 -4.0916,1.578 -2.6457,-1.703 -4.5934,-4.555 -4.5934,-4.555 -0.3375,-0.832 5.752,9.918 2.5094,9.706 -7.5379,-0.491 -14.0281,-16.264 -9.1301,-23.303 L 91.334,244.35 70.0984,223.362 c -4.1437,-0.449 -12.8097,-3.43 -17.6668,-7.25 1.8778,-7.357 4.4903,-28.075 31.9387,-26.581 9.125,0.496 31.2807,56.663 31.2807,56.663"
       style="fill:#fbc6b4;fill-opacity:1;fill-rule:nonzero;stroke:none;stroke-width:0.1"
       id="path4226" />
    <path
       d="m 68.3547,213.67 -0.0836,1.262 c 0.0461,-0.754 0.0785,-1.262 0.0836,-1.262"
       style="fill:#ffffff;fill-opacity:1;fill-rule:nonzero;stroke:none;stroke-width:0.1"
       id="path4228" />
    <path
       d="m 90.7855,274.869 c 1.0657,0.069 1.2454,-0.8 1.0086,-1.991 0.4747,-0.251 0.9418,-0.513 1.4024,-0.786 1.3269,2.857 2.5969,6.437 0.7109,6.314 -1.8812,-0.122 -3.6969,-1.197 -5.2867,-2.85 0.9699,0.583 1.1281,-0.755 2.1648,-0.687"
       style="fill:#ffffff;fill-opacity:1;fill-rule:nonzero;stroke:none;stroke-width:0.1"
       id="path4230" />
    <path
       d="m 112.936,255.592 c -1.046,1.085 -2.112,2.074 -2.983,2.797 1.034,-0.233 2.11,0.366 1.805,3.894 -0.333,3.853 -10.932,12.91 -11.669,9.412 0.118,0.842 0.324,4.405 -4.0976,1.56 -0.8344,-0.537 -3.9371,-3.915 -4.5934,-4.555 4.411,2.833 6.5434,2.002 6.4258,1.161 0.7371,3.498 11.3362,-5.56 11.6692,-9.413 0.305,-3.528 -2.553,-0.689 -3.587,-0.455 0.871,-0.724 3.719,-5.15 4.765,-6.236 2.395,-2.486 3.381,-6.01 2.715,-9.398 0,0 -17.2672,-43.77 -27.5922,-54.369 9.8085,5.38 29.8572,56.204 29.8572,56.204 0.667,3.387 -0.32,6.911 -2.715,9.398"
       style="fill:#ffffff;fill-opacity:1;fill-rule:nonzero;stroke:none;stroke-width:0.1"
       id="path4232" />
    <path
       d="m 115.651,246.194 c 0.666,3.387 -0.32,6.911 -2.715,9.398 -1.137,1.18 -2.309,2.261 -3.216,2.994 -4.407,3.558 2.768,-4.742 2.038,3.697 -0.334,3.86 -10.976,12.948 -11.675,9.394 -0.2346,-1.193 1.395,2.933 -4.0916,1.578 -3.0543,-0.755 -4.0379,-3.468 -4.0379,-3.468 -0.3375,-0.831 5.1965,8.831 1.9539,8.619 -7.5379,-0.491 -14.0281,-16.264 -9.1301,-23.303 L 91.334,244.35 70.0984,223.362 c -4.1437,-0.449 -12.8097,-3.43 -17.6668,-7.25 1.8778,-7.357 4.4903,-28.075 31.9387,-26.581 9.125,0.496 31.2807,56.663 31.2807,56.663 z"
       style="fill:none;stroke:#17282f;stroke-width:2.5;stroke-linecap:round;stroke-linejoin:round;stroke-miterlimit:10;stroke-dasharray:none;stroke-opacity:1"
       id="path4234" />
    <path
       d="m 62.9578,214.396 c 1.1711,2.056 7.1406,8.966 7.1406,8.966"
       style="fill:none;stroke:#17282f;stroke-width:2.5;stroke-linecap:round;stroke-linejoin:round;stroke-miterlimit:10;stroke-dasharray:none;stroke-opacity:1"
       id="path4236" />
    <path
       d="m 100.083,271.677 c -3.0568,-5.189 -2.8881,-9.184 -2.8881,-9.184"
       style="fill:none;stroke:#17282f;stroke-width:2.5;stroke-linecap:round;stroke-linejoin:round;stroke-miterlimit:10;stroke-dasharray:none;stroke-opacity:1"
       id="path4238" />
    <path
       d="m 105.906,260.814 c 6.181,-2.949 7.03,-5.222 7.03,-5.222"
       style="fill:none;stroke:#17282f;stroke-width:2.5;stroke-linecap:round;stroke-linejoin:round;stroke-miterlimit:10;stroke-dasharray:none;stroke-opacity:1"
       id="path4240" />
    <path
       d="M 93.9449,273.424 C 90.8879,268.236 89.575,261.549 89.575,261.549"
       style="fill:none;stroke:#17282f;stroke-width:2.5;stroke-linecap:round;stroke-linejoin:round;stroke-miterlimit:10;stroke-dasharray:none;stroke-opacity:1"
       id="path4242" />
    <path
       d="m 94.2715,276.915 c -0.5789,-2.943 -4.343,-5.79 -6.9723,-5.273"
       style="fill:none;stroke:#17282f;stroke-width:2.5;stroke-linecap:round;stroke-linejoin:round;stroke-miterlimit:10;stroke-dasharray:none;stroke-opacity:1"
       id="path4244" />
  </g>
</svg>
