<?xml version="1.0" encoding="UTF-8" standalone="no"?>
<!-- Created with Inkscape (http://www.inkscape.org/) -->

<svg
   version="1.1"
   id="svg2"
   width="666.66669"
   height="666.66669"
   viewBox="0 0 666.66669 666.66669"
   sodipodi:docname="54048102_9336279.eps"
   xmlns:inkscape="http://www.inkscape.org/namespaces/inkscape"
   xmlns:sodipodi="http://sodipodi.sourceforge.net/DTD/sodipodi-0.dtd"
   xmlns="http://www.w3.org/2000/svg"
   xmlns:svg="http://www.w3.org/2000/svg">
  <defs
     id="defs6">
    <clipPath
       clipPathUnits="userSpaceOnUse"
       id="clipPath40">
      <path
         d="m 4094.96,2128.01 c -31.08,-553.46 -217.6,-1560.701 -24.86,-1691.26 192.75,-130.57 404.14,119.82 335.74,600.84 -68.38,481 -186.52,824.51 -130.56,1032.03 55.95,207.52 309.38,108.13 337.12,336.76 27.72,228.62 -83.2,1206.32 -189.48,1574.76 -106.3,368.44 -180.25,386.36 -268.05,315.01 -87.81,-71.35 23.1,-747.53 -4.63,-1130.39 -27.73,-382.87 -55.28,-1037.75 -55.28,-1037.75"
         id="path38" />
    </clipPath>
    <clipPath
       clipPathUnits="userSpaceOnUse"
       id="clipPath94">
      <path
         d="m 2079.26,513.762 1.52,-214.953 c 0,0 -484.42,-67.727 -507.97,14.722 -23.57,82.449 29.44,129.571 100.1,138.391 70.68,8.84 322.48,88.34 322.48,88.34 l 83.87,-26.5"
         id="path92" />
    </clipPath>
    <clipPath
       clipPathUnits="userSpaceOnUse"
       id="clipPath122">
      <path
         d="m 2309.22,513.762 -1.51,-214.953 c 0,0 484.41,-67.727 507.97,14.722 23.56,82.449 -29.44,129.571 -100.11,138.391 -70.67,8.84 -322.47,88.34 -322.47,88.34 l -83.88,-26.5"
         id="path120" />
    </clipPath>
    <clipPath
       clipPathUnits="userSpaceOnUse"
       id="clipPath224">
      <path
         d="m 2143.96,3186.24 c -23.14,10.87 -52.51,-3.96 -63.62,-26.98 -11.12,-23.01 -7.25,-50.83 3.08,-74.21 24.95,-56.47 88.31,-93.37 149.75,-87.23 30.42,3.04 60.2,16.13 81.12,38.42 20.93,22.3 32.21,54.03 27.44,84.23 -3.71,23.56 -21.26,47.86 -45.1,47.6 -29.97,-0.33 -46.77,-34.03 -76.86,-33.99 -37.24,0.05 -46.96,38.62 -75.81,52.16"
         id="path222" />
    </clipPath>
  </defs>
  <sodipodi:namedview
     id="namedview4"
     pagecolor="#ffffff"
     bordercolor="#000000"
     borderopacity="0.25"
     inkscape:showpageshadow="2"
     inkscape:pageopacity="0.0"
     inkscape:pagecheckerboard="0"
     inkscape:deskcolor="#d1d1d1"
     showgrid="false" />
  <g
     id="g10"
     inkscape:groupmode="layer"
     inkscape:label="Page 1"
     transform="matrix(1.3333333,0,0,-1.3333333,0,666.66667)">
    <g
       id="g12"
       transform="scale(0.1)">
      <path
         d="M 0.00390625,0 H 5000.0039 V 5000 H 0.00390625 Z"
         style="fill:#fbc4e4;fill-opacity:1;fill-rule:nonzero;stroke:none"
         id="path14" />
      <path
         d="M 632.152,473.949 C 371.332,616.262 280.348,971.02 373.344,1253.2 c 50.879,154.41 147.922,300.98 138.828,463.29 -9.688,172.75 -136.895,314.08 -195.82,476.74 -55.243,152.51 -47.676,326.72 20.593,473.86 28.227,60.81 66.457,117.57 84.477,182.15 48.34,173.37 -57.317,346.9 -115.762,517.13 -63.461,184.78 -70.961,392.19 0.516,574.01 71.476,181.83 226.867,333.62 416.574,380.31 256.426,63.13 402.51,375.44 665.68,397.28 137.76,11.42 262.77,-77.16 398.33,-104.13 175.19,-34.84 351.78,34.79 522.17,88.37 170.39,53.58 366.76,89.05 519.01,-4.35 74.56,-45.74 129.93,-118.06 204.46,-163.84 146.18,-89.79 335.44,-61.01 497.59,-5.01 162.16,56 320.23,136.99 491.63,144.32 174.6,7.45 350.93,-67.87 466.35,-199.09 115.43,-131.21 167.65,-315.65 138.27,-487.92 -38.54,-226 -207.03,-424.05 -199.81,-653.2 7.41,-235.04 195.62,-421.47 276.38,-642.33 65.32,-178.64 56.79,-383.05 -23.19,-555.62 -46.1,-99.47 -115.56,-191.21 -131.5,-299.69 -32.98,-224.49 168.29,-410.99 231.31,-628.96 C 4855.74,942.559 4721.77,666.5 4575.3,434.031 L 632.152,473.949"
         style="fill:#ffffff;fill-opacity:1;fill-rule:nonzero;stroke:none"
         id="path16" />
      <path
         d="M 0.00390625,0 H 5000.0039 V 654.629 H 0.00390625 Z"
         style="fill:#f57cc4;fill-opacity:1;fill-rule:nonzero;stroke:none"
         id="path18" />
      <path
         d="M 0.00390625,644.629 H 5000.0039 v 20 H 0.00390625 Z"
         style="fill:#040606;fill-opacity:1;fill-rule:nonzero;stroke:none"
         id="path20" />
      <path
         d="m 2705.13,196.57 c -1086.11,0 -1966.591,73.16 -1966.591,163.399 0,90.242 880.481,163.402 1966.591,163.402 1086.12,0 1966.59,-73.16 1966.59,-163.402 0,-90.239 -880.47,-163.399 -1966.59,-163.399"
         style="fill:#f469bb;fill-opacity:1;fill-rule:nonzero;stroke:none"
         id="path22" />
      <path
         d="m 3307.6,2318.7 c 60.61,-149.82 138.06,-299.55 268.18,-400.79 122.54,-95.35 290.97,-139.4 439.1,-80.55 42.5,16.9 23.96,86.5 -19.12,69.37 -133.73,-53.15 -283.06,-11.64 -390.36,79.31 -108.53,92 -175.9,221.92 -228.43,351.78 -17.14,42.37 -86.75,23.85 -69.37,-19.12"
         style="fill:#fbd03c;fill-opacity:1;fill-rule:nonzero;stroke:none"
         id="path24" />
      <path
         d="m 3307.6,2318.7 -9.27,-3.75 c 60.86,-150.36 138.9,-301.84 271.31,-404.93 86.14,-67 194.46,-109.23 303.56,-109.26 49.03,0 98.19,8.56 145.37,27.31 10.32,4.07 18.18,11.02 23.14,19.15 4.99,8.13 7.21,17.3 7.21,26.21 -0.03,11.23 -3.45,22.23 -10.18,30.98 -6.64,8.72 -17.34,15.08 -29.91,15.01 -5.43,0 -11.08,-1.13 -16.77,-3.4 -39.24,-15.59 -79.85,-22.79 -120.4,-22.79 -93.4,-0.03 -186.59,38.36 -259.79,100.43 -106.53,90.25 -173.36,218.61 -225.63,347.91 -4.13,10.28 -11.12,18.1 -19.26,23.03 -8.15,4.96 -17.32,7.17 -26.23,7.17 -11.21,-0.02 -22.19,-3.41 -30.92,-10.11 -8.7,-6.59 -15.06,-17.25 -14.99,-29.77 -0.01,-5.48 1.16,-11.2 3.49,-16.94 l 9.27,3.75 9.27,3.75 c -1.48,3.67 -2.03,6.78 -2.03,9.44 0.07,5.92 2.53,10.21 7.21,13.94 4.66,3.64 11.64,5.97 18.7,5.94 5.62,0 11.18,-1.41 15.82,-4.24 4.64,-2.87 8.5,-7.03 11.13,-13.46 52.78,-130.42 120.7,-261.91 231.24,-355.66 76.45,-64.78 173.8,-105.15 272.72,-105.18 42.91,0 86.1,7.63 127.79,24.21 3.63,1.44 6.73,1.98 9.38,1.98 5.99,-0.07 10.34,-2.56 14.1,-7.26 3.67,-4.68 6.02,-11.68 5.99,-18.73 0,-5.6 -1.41,-11.14 -4.25,-15.74 -2.87,-4.61 -7.03,-8.44 -13.49,-11.03 -44.68,-17.76 -91.28,-25.9 -137.98,-25.9 -103.88,-0.04 -208.33,40.47 -291.28,105.04 -127.83,99.39 -204.7,247.36 -265.05,396.65 l -9.27,-3.75"
         style="fill:#040606;fill-opacity:1;fill-rule:nonzero;stroke:none"
         id="path26" />
      <path
         d="m 4007.83,1957.43 c 0,0 -8.22,31.26 -37.02,21.39 -28.8,-9.86 -27.16,-223.78 7.4,-230.36 34.55,-6.59 29.62,29.62 29.62,29.62 l 174.41,-39.5 v 228.72 l -174.41,-9.87"
         style="fill:#ffffff;fill-opacity:1;fill-rule:nonzero;stroke:none"
         id="path28" />
      <path
         d="m 4007.83,1957.43 9.67,2.54 c -0.2,0.66 -1.93,7.4 -7.06,14.83 -2.58,3.71 -6.09,7.63 -10.93,10.73 -4.81,3.11 -11.04,5.24 -18.04,5.22 -4.41,0 -9.07,-0.81 -13.91,-2.47 -4.15,-1.45 -7.09,-4.15 -9.33,-6.98 -3.88,-5.04 -6.3,-11.07 -8.47,-18.3 -3.17,-10.8 -5.39,-24.3 -6.9,-39.51 -1.49,-15.19 -2.23,-32.04 -2.23,-49.19 0,-30.16 2.27,-61.17 7.03,-85.73 2.4,-12.31 5.36,-22.98 9.38,-31.56 2.03,-4.29 4.33,-8.1 7.34,-11.37 2.97,-3.22 6.95,-6.05 11.96,-7.01 3.41,-0.65 6.64,-0.97 9.71,-0.97 6.37,-0.02 12.15,1.47 16.82,4.26 7.1,4.19 10.97,10.78 12.89,16.55 1.95,5.84 2.29,11.24 2.31,15.12 0,3.3 -0.29,5.5 -0.33,5.83 l -9.91,-1.34 -2.21,-9.76 174.41,-39.49 c 2.96,-0.67 6.08,0.05 8.45,1.94 2.37,1.9 3.76,4.78 3.76,7.81 v 228.72 c 0,2.75 -1.13,5.39 -3.13,7.27 -2,1.89 -4.69,2.87 -7.43,2.72 l -174.42,-9.87 0.57,-9.99 9.67,2.54 -9.67,-2.54 0.56,-9.98 163.85,9.27 V 1751.1 l -162.2,36.73 c -3.2,0.72 -6.55,-0.17 -8.97,-2.38 -2.41,-2.21 -3.59,-5.47 -3.15,-8.72 l 3.64,0.5 -3.65,-0.45 0.01,-0.05 3.64,0.5 -3.65,-0.45 c 0.01,-0.07 0.16,-1.35 0.16,-3.19 0.05,-3.31 -0.64,-8.35 -2.36,-11.24 -0.85,-1.48 -1.75,-2.46 -3.03,-3.23 -1.3,-0.75 -3.18,-1.44 -6.63,-1.46 -1.65,0 -3.63,0.17 -5.97,0.62 l -0.14,-0.74 0.28,0.7 -0.14,0.04 -0.14,-0.74 0.28,0.7 -0.49,0.34 c -1.38,0.97 -4.49,5.58 -6.95,12.72 -3.84,10.7 -7,26.68 -9.05,44.76 -2.07,18.1 -3.11,38.4 -3.1,58.24 -0.01,25.23 1.69,49.81 4.92,68.07 1.59,9.11 3.62,16.66 5.68,21.54 1.02,2.44 2.05,4.18 2.73,5.03 l 0.61,0.67 -0.47,0.61 0.37,-0.68 0.1,0.07 -0.47,0.61 0.37,-0.68 -1.25,2.24 0.83,-2.42 0.42,0.18 -1.25,2.24 0.83,-2.42 c 3.02,1.03 5.45,1.38 7.42,1.39 3.12,-0.03 5.24,-0.81 7.27,-2.07 2.99,-1.87 5.59,-5.33 7.22,-8.51 0.82,-1.56 1.41,-3.01 1.77,-4 l 0.37,-1.1 0.07,-0.22 2.12,0.6 -2.14,-0.56 0.02,-0.04 2.12,0.6 -2.14,-0.56 c 1.22,-4.61 5.48,-7.71 10.24,-7.44 l -0.56,9.98"
         style="fill:#040606;fill-opacity:1;fill-rule:nonzero;stroke:none"
         id="path30" />
      <path
         d="M 4094.97,2128.01 C 4063.88,1574.55 3877.36,567.309 4070.1,436.75 c 192.75,-130.57 404.14,119.82 335.74,600.84 -68.38,481 -186.52,824.51 -130.56,1032.03 55.96,207.52 309.38,108.13 337.12,336.76 27.72,228.62 -83.2,1206.33 -189.49,1574.76 -106.29,368.44 -180.24,386.36 -268.04,315.01 -87.81,-71.35 23.1,-747.53 -4.63,-1130.39 -27.73,-382.87 -55.27,-1037.75 -55.27,-1037.75"
         style="fill:#8992d1;fill-opacity:1;fill-rule:nonzero;stroke:none"
         id="path32" />
      <g
         id="g34">
        <g
           id="g36"
           clip-path="url(#clipPath40)">
          <path
             d="m 4335.18,4318.73 c -51.29,5.72 -99.6,-35.33 -115.17,-84.53 -15.56,-49.21 -4.31,-103.3 16.38,-150.57 20.7,-47.29 50.4,-90.04 74.01,-135.92 35.26,-68.58 56.71,-144.22 62.71,-221.11 1.63,-20.96 1.99,-42.76 -6.18,-62.13 -17.44,-41.32 -66.3,-58.01 -98.62,-89.08 -39.63,-38.1 -52.55,-98.34 -42.69,-152.41 9.86,-54.07 39.79,-102.61 75.29,-144.57 38.6,-45.62 85.43,-86.81 106.93,-142.56 36.53,-94.79 -12.24,-203.08 -82.41,-276.53 -50.26,-52.63 -117.42,-109.98 -103.96,-181.51 19.29,-102.41 187.89,-126.22 196.27,-230.1 4.03,-50.01 -33.83,-94.07 -40.16,-143.84 -7.86,-61.85 34.89,-120.07 86.31,-155.33 114.66,-78.61 282.32,-68.33 386.52,23.7"
             style="fill:#f14f21;fill-opacity:1;fill-rule:nonzero;stroke:none"
             id="path42" />
          <path
             d="m 4336.29,4328.67 c -3.59,0.4 -7.17,0.6 -10.73,0.6 -26.58,-0.02 -51.48,-10.84 -71.56,-27.56 -20.09,-16.76 -35.59,-39.5 -43.52,-64.5 -5.39,-17.04 -7.74,-34.55 -7.74,-52.03 0.02,-36.43 10.12,-72.72 24.49,-105.57 21.26,-48.46 51.11,-91.36 74.27,-136.48 34.65,-67.38 55.75,-141.76 61.64,-217.31 0.53,-6.78 0.91,-13.53 0.91,-20.14 0,-13.42 -1.59,-26.1 -6.33,-37.32 -7.53,-17.92 -22.34,-31.25 -40.35,-44.14 -17.92,-12.9 -38.64,-24.99 -56,-41.62 -33.6,-32.37 -48.9,-78.77 -48.91,-124.57 0,-12.39 1.12,-24.76 3.32,-36.85 10.36,-56.59 41.37,-106.5 77.5,-149.23 19.63,-23.19 40.97,-44.88 59.84,-67.44 18.88,-22.56 35.23,-45.9 45.39,-72.26 8.1,-21.03 11.78,-42.77 11.78,-64.77 0.13,-71.64 -39.66,-146.48 -92.09,-201.26 -22.66,-23.75 -49.35,-48.91 -70.73,-76.62 -10.69,-13.87 -20.06,-28.42 -26.84,-43.9 -6.77,-15.47 -10.91,-31.94 -10.91,-49.29 0,-6.71 0.62,-13.53 1.92,-20.45 5.31,-28.23 20.96,-50.78 40.46,-69.84 29.32,-28.61 67.71,-50.58 98.8,-74.85 15.55,-12.09 29.23,-24.66 39.17,-38.39 9.95,-13.77 16.27,-28.51 17.7,-45.97 0.18,-2.24 0.27,-4.48 0.27,-6.71 0.05,-20.97 -7.85,-42.02 -17.2,-64.18 -9.25,-22.14 -19.87,-45.24 -23.18,-70.89 -0.68,-5.39 -1.01,-10.76 -1.01,-16.09 0,-30.52 10.82,-59.41 27.54,-84.69 16.75,-25.31 39.44,-47.17 64.05,-64.05 53.49,-36.67 117.83,-54.53 182.17,-54.53 78.51,0.01 157.27,26.58 216.62,78.97 4.14,3.66 4.54,9.98 0.88,14.12 -3.66,4.14 -9.98,4.53 -14.11,0.87 -55.21,-48.78 -129.35,-73.98 -203.39,-73.96 -60.66,-0.01 -121.09,16.88 -170.86,51.02 -22.69,15.55 -43.63,35.81 -58.68,58.59 -15.07,22.81 -24.23,47.96 -24.22,73.66 0,4.5 0.27,9.02 0.85,13.57 2.71,21.61 12.31,43.2 21.78,65.67 9.39,22.46 18.71,45.94 18.76,71.92 0,2.75 -0.11,5.52 -0.33,8.32 -2.28,28.72 -15.91,52.01 -34.17,71.41 -27.44,29.16 -65.44,51.2 -97.71,75.46 -16.13,12.09 -30.8,24.64 -42.07,38.4 -11.29,13.79 -19.2,28.6 -22.46,45.87 -1.08,5.7 -1.58,11.27 -1.58,16.75 0.01,14.15 3.35,27.79 9.24,41.28 8.81,20.2 23.47,39.9 40.37,58.98 16.89,19.09 35.96,37.55 53.34,55.74 54.95,57.64 97.49,136.02 97.62,215.07 0,24.23 -4.07,48.49 -13.12,71.97 -11.34,29.39 -29.16,54.52 -48.71,77.9 -19.58,23.38 -40.95,45.09 -59.91,67.52 -34.87,41.19 -63.72,88.35 -73.09,139.9 -1.99,10.9 -3,22.08 -3,33.26 -0.02,41.47 13.97,82.53 42.78,110.15 14.96,14.45 34.83,26.24 53.79,39.78 18.85,13.55 37.19,29.22 47.11,52.62 6.2,14.73 7.9,30.17 7.91,45.1 0,7.37 -0.42,14.64 -0.97,21.7 -6.1,78.22 -27.92,155.13 -63.79,224.9 -24.04,46.66 -53.59,89.25 -73.74,135.35 -13.6,31.04 -22.83,64.87 -22.81,97.55 0,15.7 2.1,31.13 6.81,46 6.66,21.12 20.12,40.91 37.25,55.16 17.15,14.28 37.73,22.94 58.76,22.93 2.82,0 5.66,-0.16 8.51,-0.48 5.49,-0.61 10.44,3.34 11.05,8.83 0.61,5.49 -3.34,10.43 -8.83,11.05"
             style="fill:#040606;fill-opacity:1;fill-rule:nonzero;stroke:none"
             id="path44" />
          <path
             d="m 4333.38,2057.74 c -50.58,-27.54 -110.19,-35.8 -167.54,-30.44 -57.35,5.38 -112.8,23.73 -165.61,46.72 l -16.26,-147.82 c 0,0 51.21,-54.26 186.97,-56.76 135.77,-2.49 203.65,36.3 203.65,36.3 l -41.21,152"
             style="fill:#ffffff;fill-opacity:1;fill-rule:nonzero;stroke:none"
             id="path46" />
          <path
             d="m 4333.38,2057.74 -4.78,8.79 c -39.23,-21.38 -84.51,-30.77 -130,-30.77 -10.63,0 -21.26,0.51 -31.83,1.5 -55.83,5.22 -110.3,23.17 -162.55,45.93 -2.91,1.27 -6.26,1.08 -9.01,-0.51 -2.74,-1.6 -4.57,-4.41 -4.92,-7.56 l -16.26,-147.83 c -0.32,-2.91 0.66,-5.82 2.67,-7.95 1.38,-1.62 55.62,-57.44 194.06,-59.89 4.28,-0.08 8.5,-0.12 12.65,-0.12 129.39,-0.01 194.92,37.01 196.15,37.73 3.95,2.26 5.88,6.9 4.69,11.3 l -41.22,152 c -0.8,2.97 -2.89,5.37 -5.72,6.58 -2.82,1.21 -6.01,1.06 -8.71,-0.41 l 4.78,-8.79 -9.65,-2.61 41.21,-152 9.65,2.61 -4.96,8.68 1.04,-1.82 -1.02,1.83 -0.02,-0.01 1.04,-1.82 -1.02,1.83 c -0.75,-0.4 -62.67,-35.09 -186.24,-35.1 -4.03,0 -8.12,0.04 -12.29,0.11 -66.57,1.24 -111.84,15.11 -140.35,28.38 -14.25,6.65 -24.31,13.15 -30.73,17.9 -3.2,2.37 -5.5,4.31 -6.94,5.6 l -1.54,1.43 -0.31,0.31 -0.01,0.01 -7.27,-6.87 9.94,-1.09 16.26,147.82 -9.94,1.09 -3.99,-9.16 c 53.37,-23.24 109.8,-41.99 168.67,-47.51 11.17,-1.05 22.42,-1.59 33.69,-1.59 48.2,0.01 96.79,9.92 139.57,33.2 l -4.79,8.78 -9.65,-2.61 9.65,2.61"
             style="fill:#040606;fill-opacity:1;fill-rule:nonzero;stroke:none"
             id="path48" />
        </g>
      </g>
      <path
         d="m 4094.97,2128.01 -9.99,0.56 c -10.35,-184.46 -38.09,-420.04 -63.25,-656.76 -25.15,-236.76 -47.75,-474.638 -47.76,-664.451 0.01,-94.211 5.55,-176.57 19.32,-241.5 6.9,-32.468 15.85,-60.609 27.45,-83.789 11.59,-23.16 25.91,-41.488 43.75,-53.601 35.58,-24.117 72.42,-36.09 108.39,-36.078 34.99,-0.02 68.89,11.339 99.55,32.73 46.03,32.121 85.02,86.469 112.66,159.84 27.62,73.41 43.89,165.988 43.9,275.238 0,55.422 -4.19,115.129 -13.25,178.801 -28.02,197.1 -64.36,371.06 -93.64,521.79 -29.3,150.7 -51.45,278.25 -51.42,382 -0.01,46.16 4.36,87.57 14.25,124.23 13.53,49.82 38.09,80.1 68.63,102.54 22.93,16.78 49.42,28.87 76.91,40.11 41.18,16.93 84.6,31.75 120.52,59.63 17.93,13.94 33.89,31.25 46.23,53.46 12.36,22.21 21.08,49.21 25.1,82.41 3.01,24.86 4.39,57.7 4.39,97.28 -0.01,167.15 -24.74,454.53 -61.34,741.77 -36.62,287.25 -85.03,573.86 -132.85,739.69 -38.26,132.56 -72.32,220.16 -105.02,275.54 -16.38,27.68 -32.45,47.4 -49.06,60.52 -16.54,13.11 -34,19.44 -51.39,19.39 -13.68,0 -27.03,-3.78 -39.99,-10.03 -12.99,-6.27 -25.69,-15.02 -38.5,-25.42 -8.47,-6.94 -14.47,-16.99 -19.32,-29.39 -7.2,-18.64 -11.77,-43.07 -14.72,-72.71 -2.93,-29.62 -4.14,-64.39 -4.14,-103.24 0.02,-206.9 34.46,-530.66 34.44,-788.43 0,-50.98 -1.35,-99.36 -4.56,-143.66 -27.74,-383.15 -55.28,-1038 -55.29,-1038.05 l 10,-0.42 -9.99,0.56 9.99,-0.56 9.99,-0.42 c 0,0.03 0.43,10.22 1.23,28.87 5.65,130.54 29.78,673.82 54.02,1008.58 3.26,44.94 4.61,93.76 4.61,145.1 -0.02,259.29 -34.47,583.4 -34.44,788.43 -0.01,51.23 2.16,94.99 7.42,127.98 2.61,16.48 6.01,30.25 10.09,40.74 4.05,10.51 8.82,17.53 13.28,21.1 12.02,9.77 23.58,17.63 34.57,22.92 11.01,5.31 21.35,8.05 31.31,8.05 12.62,-0.05 25.12,-4.22 39.01,-15.1 20.77,-16.28 43.7,-48.25 68.13,-101.01 24.47,-52.73 50.61,-126.07 79.12,-224.88 47.23,-163.64 95.72,-450.09 132.22,-736.68 36.54,-286.6 61.19,-573.84 61.18,-739.24 0,-39.09 -1.38,-71.36 -4.24,-94.87 -6.81,-55.3 -26.54,-89.1 -53.33,-113.71 -20.14,-18.42 -44.71,-31.58 -71.32,-43.22 -39.87,-17.51 -84.16,-31.36 -123.26,-56.21 -19.52,-12.44 -37.73,-27.72 -53.06,-47.61 -15.33,-19.87 -27.71,-44.29 -35.88,-74.61 -10.48,-38.88 -14.94,-82.02 -14.94,-129.43 0.02,-106.54 22.48,-234.86 51.79,-385.82 29.32,-150.93 65.56,-324.44 93.47,-520.79 8.93,-62.789 13.05,-121.559 13.05,-175.981 0.03,-143.008 -28.53,-255.867 -72.5,-332.168 -21.97,-38.16 -47.74,-67.16 -75.5,-86.5 -27.79,-19.34 -57.46,-29.121 -88.11,-29.14 -31.5,0.007 -64.29,10.379 -97.17,32.64 -14.11,9.539 -26.54,24.899 -37.09,45.989 -15.84,31.582 -27.17,75.699 -34.34,129.378 -7.19,53.684 -10.31,116.911 -10.31,186.961 0,188.282 22.51,425.771 47.65,662.331 25.14,236.61 52.91,472.3 63.33,657.76 l 0.01,0.14 -9.99,0.42"
         style="fill:#040606;fill-opacity:1;fill-rule:nonzero;stroke:none"
         id="path50" />
      <path
         d="m 4265.18,4219.93 c -5.19,-16.73 -7.69,-34.14 -7.69,-51.53 0.02,-45.94 17.36,-91.86 49.4,-125.33 3.82,-3.99 10.15,-4.12 14.14,-0.3 3.98,3.82 4.12,10.15 0.3,14.14 -28.2,29.37 -43.87,70.58 -43.84,111.49 0,15.48 2.22,30.89 6.79,45.6 1.64,5.27 -1.31,10.88 -6.58,12.51 -5.28,1.64 -10.88,-1.31 -12.52,-6.58"
         style="fill:#ffffff;fill-opacity:1;fill-rule:nonzero;stroke:none"
         id="path52" />
      <path
         d="m 4276.91,3524 c -11.57,-22.63 -17.45,-47.93 -17.46,-73.24 0,-14.71 2,-29.44 6.06,-43.65 11.07,-38.65 37.02,-72.5 71.46,-93.22 4.74,-2.85 10.88,-1.31 13.73,3.42 2.84,4.73 1.31,10.88 -3.43,13.72 -29.99,17.99 -52.95,47.93 -62.53,81.57 -3.54,12.36 -5.29,25.25 -5.29,38.16 0,22.21 5.19,44.45 15.27,64.13 2.51,4.91 0.57,10.94 -4.35,13.46 -4.92,2.51 -10.94,0.56 -13.46,-4.35"
         style="fill:#ffffff;fill-opacity:1;fill-rule:nonzero;stroke:none"
         id="path54" />
      <path
         d="m 4361.95,3958.07 c 76.75,-398.13 132.27,-800.36 166.25,-1204.39 0.47,-5.5 5.3,-9.59 10.81,-9.12 5.5,0.46 9.59,5.3 9.12,10.8 -34.04,404.74 -89.65,807.67 -166.54,1206.49 -1.04,5.43 -6.29,8.98 -11.71,7.93 -5.42,-1.05 -8.97,-6.29 -7.93,-11.71"
         style="fill:#ffffff;fill-opacity:1;fill-rule:nonzero;stroke:none"
         id="path56" />
      <path
         d="m 4529.22,2620.77 c 1.1,-13.11 1.64,-26.26 1.64,-39.42 0,-34.16 -3.69,-68.34 -11.02,-101.7 -1.19,-5.4 2.22,-10.73 7.62,-11.92 5.39,-1.18 10.73,2.23 11.91,7.62 7.64,34.79 11.49,70.4 11.49,106 0,13.71 -0.57,27.42 -1.71,41.09 -0.46,5.5 -5.3,9.59 -10.8,9.13 -5.5,-0.46 -9.59,-5.3 -9.13,-10.8"
         style="fill:#ffffff;fill-opacity:1;fill-rule:nonzero;stroke:none"
         id="path58" />
      <path
         d="m 4264.18,2690.66 c 16.76,-45.78 57.09,-81.44 104.58,-92.47 5.38,-1.24 10.75,2.12 11.99,7.5 1.24,5.39 -2.12,10.75 -7.5,11.99 -40.59,9.28 -76.1,40.68 -90.28,79.82 -1.89,5.19 -7.63,7.87 -12.81,5.98 -5.19,-1.89 -7.87,-7.63 -5.98,-12.82"
         style="fill:#ffffff;fill-opacity:1;fill-rule:nonzero;stroke:none"
         id="path60" />
      <path
         d="m 4255.08,1926.23 c -36.84,-0.11 -66.76,15.07 -66.8,33.89 -0.06,18.83 29.76,34.17 66.6,34.27 36.84,0.12 66.76,-15.05 66.81,-33.87 0.06,-18.83 -29.76,-34.18 -66.61,-34.29"
         style="fill:#ffffff;fill-opacity:1;fill-rule:nonzero;stroke:none"
         id="path62" />
      <path
         d="m 4255.08,1926.23 -0.02,10 h -0.37 c -16.94,-0.03 -32.21,3.59 -42.39,8.82 -5.1,2.59 -8.88,5.56 -11.09,8.25 -2.23,2.73 -2.91,4.86 -2.93,6.84 l -0.01,0.14 -6.61,-0.11 h 6.62 l -0.01,0.11 -6.61,-0.11 h 6.62 c 0.01,2 0.7,4.14 2.94,6.9 3.3,4.09 10.25,8.72 19.7,11.96 9.43,3.29 21.22,5.33 33.99,5.36 l 0.39,0.01 c 16.94,0.02 32.19,-3.59 42.37,-8.82 5.1,-2.59 8.87,-5.56 11.08,-8.25 2.23,-2.73 2.92,-4.86 2.94,-6.84 v 0.03 h 6.68 l -6.68,0.05 v -0.05 h 6.68 l -6.68,0.05 v -0.11 c -0.01,-1.99 -0.7,-4.13 -2.94,-6.9 -3.3,-4.09 -10.25,-8.72 -19.7,-11.96 -9.43,-3.29 -21.23,-5.34 -34,-5.37 l 0.03,-10 0.03,-10 c 19.8,0.09 37.78,4.12 51.65,11.21 6.93,3.58 12.89,7.94 17.41,13.39 4.5,5.4 7.54,12.22 7.52,19.63 H 4325 l 6.69,-0.05 v 0.05 H 4325 l 6.69,-0.05 v 0.11 0.03 c 0,7.39 -3.05,14.18 -7.55,19.55 -6.8,8.11 -16.71,13.87 -28.48,17.97 -11.8,4.06 -25.58,6.32 -40.36,6.33 l -0.46,-0.01 c -19.78,-0.08 -37.76,-4.11 -51.63,-11.2 -6.93,-3.57 -12.9,-7.93 -17.42,-13.39 -4.49,-5.4 -7.53,-12.22 -7.51,-19.63 v -0.22 l 10,0.17 -10,-0.03 c 0,-7.39 3.04,-14.19 7.54,-19.56 6.81,-8.12 16.72,-13.88 28.5,-17.98 11.8,-4.05 25.59,-6.31 40.37,-6.32 h 0.42 l -0.03,10"
         style="fill:#040606;fill-opacity:1;fill-rule:nonzero;stroke:none"
         id="path64" />
      <path
         d="m 4255.28,1859.13 c -36.84,-0.11 -66.75,15.07 -66.81,33.89 -0.06,18.83 29.77,34.17 66.61,34.28 36.85,0.11 66.76,-15.06 66.81,-33.88 0.06,-18.83 -29.77,-34.17 -66.61,-34.29"
         style="fill:#ffffff;fill-opacity:1;fill-rule:nonzero;stroke:none"
         id="path66" />
      <path
         d="m 4255.28,1859.13 -0.03,10 h -0.36 c -16.94,-0.03 -32.2,3.59 -42.39,8.82 -5.1,2.59 -8.88,5.56 -11.09,8.25 -2.23,2.74 -2.92,4.86 -2.94,6.85 v 0.13 l -6.61,-0.11 h 6.61 v 0.11 l -6.61,-0.11 h 6.61 c 0.02,2 0.7,4.14 2.94,6.9 3.31,4.09 10.26,8.72 19.71,11.97 9.43,3.29 21.23,5.33 33.99,5.36 l 0.36,0.01 c 16.95,0.02 32.21,-3.59 42.4,-8.82 5.1,-2.59 8.87,-5.56 11.08,-8.25 2.23,-2.74 2.92,-4.86 2.94,-6.85 v 0.03 h 6.67 l -6.67,0.05 v -0.05 h 6.67 l -6.67,0.05 v -0.11 c -0.02,-1.99 -0.7,-4.13 -2.94,-6.9 -3.31,-4.09 -10.26,-8.71 -19.71,-11.96 -9.43,-3.29 -21.23,-5.33 -33.99,-5.37 l 0.03,-10 0.03,-10 c 19.79,0.09 37.77,4.12 51.65,11.22 6.93,3.57 12.89,7.93 17.41,13.38 4.5,5.4 7.54,12.22 7.52,19.63 h -6.69 l 6.69,-0.05 v 0.05 h -6.69 l 6.69,-0.05 v 0.11 0.02 c 0,7.39 -3.05,14.19 -7.55,19.57 -6.8,8.11 -16.72,13.87 -28.5,17.97 -11.8,4.06 -25.58,6.32 -40.37,6.33 l -0.42,-0.01 c -19.79,-0.09 -37.77,-4.12 -51.65,-11.21 -6.93,-3.57 -12.89,-7.93 -17.41,-13.39 -4.5,-5.4 -7.54,-12.22 -7.52,-19.63 v -0.22 l 10,0.17 -10,-0.03 c 0.01,-7.39 3.05,-14.19 7.55,-19.56 6.81,-8.11 16.72,-13.88 28.5,-17.98 11.8,-4.05 25.59,-6.31 40.37,-6.32 h 0.41 l -0.02,10"
         style="fill:#040606;fill-opacity:1;fill-rule:nonzero;stroke:none"
         id="path68" />
      <path
         d="m 4255.48,1792.04 c -36.84,-0.12 -66.75,15.06 -66.81,33.88 -0.05,18.83 29.76,34.18 66.61,34.29 36.84,0.1 66.76,-15.07 66.81,-33.89 0.05,-18.83 -29.77,-34.17 -66.61,-34.28"
         style="fill:#ffffff;fill-opacity:1;fill-rule:nonzero;stroke:none"
         id="path70" />
      <path
         d="m 4255.48,1792.04 -0.02,10 h -0.4 c -16.94,-0.03 -32.19,3.59 -42.38,8.82 -5.09,2.59 -8.86,5.56 -11.07,8.24 -2.23,2.74 -2.92,4.86 -2.94,6.85 l -0.01,0.16 -7.63,-0.15 h 7.64 l -0.01,0.15 -7.63,-0.15 h 7.64 c 0.01,2 0.7,4.15 2.94,6.91 3.3,4.1 10.25,8.72 19.7,11.97 9.43,3.29 21.23,5.33 34,5.37 h 0.02 0.34 c 16.94,0.02 32.21,-3.59 42.39,-8.82 5.11,-2.59 8.88,-5.56 11.09,-8.25 2.23,-2.74 2.92,-4.87 2.94,-6.85 v 0.03 h 7.75 l -7.75,0.08 v -0.08 h 7.75 l -7.75,0.08 v -0.13 c -0.01,-1.99 -0.7,-4.14 -2.94,-6.9 -3.3,-4.09 -10.26,-8.72 -19.7,-11.96 -9.43,-3.29 -21.23,-5.34 -34,-5.37 l 0.03,-10 0.03,-10 c 19.79,0.09 37.78,4.12 51.65,11.21 6.93,3.58 12.89,7.94 17.41,13.39 4.5,5.4 7.54,12.22 7.52,19.63 h -7.72 l 7.72,-0.07 v 0.07 h -7.72 l 7.72,-0.07 v 0.12 0.03 c 0,7.39 -3.05,14.19 -7.55,19.56 -6.81,8.11 -16.72,13.87 -28.5,17.97 -11.8,4.06 -25.59,6.32 -40.37,6.33 h -0.44 0.02 c -19.8,-0.09 -37.78,-4.12 -51.66,-11.22 -6.93,-3.58 -12.89,-7.94 -17.41,-13.39 -4.49,-5.4 -7.53,-12.23 -7.51,-19.64 v -0.24 l 10,0.2 -10,-0.03 c 0,-7.39 3.05,-14.19 7.54,-19.56 6.81,-8.11 16.72,-13.87 28.49,-17.97 11.8,-4.05 25.58,-6.31 40.36,-6.32 h 0.44 l -0.02,10"
         style="fill:#040606;fill-opacity:1;fill-rule:nonzero;stroke:none"
         id="path72" />
      <path
         d="m 4255.68,1724.94 c -36.85,-0.11 -66.76,15.06 -66.81,33.89 -0.06,18.82 29.77,34.17 66.6,34.28 36.85,0.1 66.76,-15.06 66.82,-33.89 0.06,-18.82 -29.77,-34.17 -66.61,-34.28"
         style="fill:#ffffff;fill-opacity:1;fill-rule:nonzero;stroke:none"
         id="path74" />
      <path
         d="m 4255.68,1724.94 -0.03,10 h -0.36 c -16.95,-0.03 -32.21,3.59 -42.4,8.82 -5.1,2.59 -8.87,5.56 -11.08,8.24 -2.23,2.74 -2.92,4.86 -2.94,6.85 v 0.14 l -6.62,-0.11 h 6.62 v 0.11 l -6.62,-0.11 h 6.62 c 0.02,1.99 0.7,4.14 2.94,6.9 3.31,4.09 10.26,8.72 19.71,11.96 9.42,3.29 21.22,5.34 33.98,5.37 h 0.02 0.34 c 16.95,0.02 32.21,-3.59 42.4,-8.82 5.1,-2.59 8.88,-5.56 11.09,-8.25 2.23,-2.74 2.92,-4.86 2.94,-6.85 v 0.03 h 6.75 l -6.75,0.06 v -0.06 h 6.75 l -6.75,0.06 v -0.12 c -0.02,-1.99 -0.7,-4.13 -2.94,-6.89 -3.31,-4.09 -10.26,-8.72 -19.71,-11.96 -9.43,-3.29 -21.23,-5.34 -33.99,-5.37 l 0.03,-10 0.03,-10 c 19.79,0.09 37.77,4.12 51.65,11.21 6.93,3.58 12.89,7.94 17.41,13.39 4.5,5.4 7.54,12.22 7.52,19.62 h -6.73 l 6.73,-0.05 v 0.05 h -6.73 l 6.73,-0.05 v 0.11 0.03 c -0.01,7.39 -3.05,14.19 -7.55,19.56 -6.81,8.12 -16.73,13.88 -28.51,17.98 -11.8,4.05 -25.58,6.31 -40.37,6.32 h -0.43 0.01 c -19.79,-0.09 -37.77,-4.12 -51.64,-11.21 -6.93,-3.58 -12.89,-7.94 -17.41,-13.39 -4.5,-5.4 -7.54,-12.22 -7.52,-19.63 v -0.22 l 10,0.17 -10,-0.03 c 0,-7.39 3.05,-14.19 7.55,-19.57 6.8,-8.11 16.72,-13.87 28.5,-17.97 11.8,-4.05 25.58,-6.31 40.37,-6.32 h 0.41 l -0.02,10"
         style="fill:#040606;fill-opacity:1;fill-rule:nonzero;stroke:none"
         id="path76" />
      <path
         d="m 4005.4,1959.52 c 17.53,14.67 36.04,28.18 55.38,40.39 19.04,12.03 39.69,23.07 62.16,24.67 32.3,2.29 91.13,-15 118.86,-31.7 8.33,-5.02 17.49,-11.22 19.04,-20.82 2.26,-13.99 -13.51,-24.67 -27.64,-25.7 -14.14,-1.04 -57.2,3.45 -71.18,1.11 -2.73,-0.45 -5.55,-1.25 -7.49,-3.21 -1.97,-1.97 -2.72,-4.81 -3.51,-7.47 -7.27,-24.32 -24.51,-45.49 -46.87,-57.51 -22.34,-12.01 -49.52,-14.73 -73.8,-7.38"
         style="fill:#ffffff;fill-opacity:1;fill-rule:nonzero;stroke:none"
         id="path78" />
      <path
         d="m 4011.81,1951.85 c 17.2,14.39 35.35,27.63 54.31,39.61 18.63,11.82 37.95,21.81 57.53,23.15 1.69,0.12 3.51,0.18 5.43,0.18 15.01,0.03 36.13,-3.83 56.24,-9.68 20.12,-5.8 39.53,-13.66 51.32,-20.8 3.99,-2.38 7.77,-4.89 10.31,-7.34 2.58,-2.5 3.7,-4.53 4.02,-6.51 l 0.09,-1.08 c -0.01,-1.22 -0.31,-2.35 -1.11,-3.72 -1.16,-2.02 -3.65,-4.39 -6.92,-6.15 -3.24,-1.79 -7.17,-2.94 -10.56,-3.18 -1.13,-0.08 -2.76,-0.13 -4.69,-0.13 -6.23,0 -15.53,0.47 -25.2,0.97 -9.7,0.49 -19.83,0.99 -28.3,0.99 -5.31,-0.01 -9.87,-0.16 -13.92,-0.83 l 0.03,0.01 c -3.42,-0.63 -8.41,-1.59 -12.97,-6.05 l 0.02,0.02 c -2.24,-2.25 -3.51,-4.69 -4.35,-6.71 -0.83,-2.03 -1.28,-3.73 -1.66,-4.97 l 0.01,0.02 c -6.45,-21.69 -22.08,-40.87 -42.02,-51.57 -12.54,-6.74 -26.93,-10.25 -41.29,-10.24 -8.44,0 -16.87,1.21 -24.89,3.64 -5.28,1.6 -10.86,-1.39 -12.46,-6.68 -1.6,-5.28 1.38,-10.87 6.67,-12.47 9.97,-3.01 20.33,-4.49 30.68,-4.49 17.59,0 35.16,4.25 50.76,12.63 24.76,13.35 43.63,36.52 51.71,63.45 l 0.01,0.02 c 0.41,1.43 0.73,2.48 0.97,3.02 l 0.2,0.44 -0.95,0.59 0.78,-0.79 0.17,0.2 -0.95,0.59 0.78,-0.79 0.02,0.02 -0.97,0.96 0.72,-1.17 0.25,0.21 -0.97,0.96 0.72,-1.17 0.55,0.21 1.71,0.38 0.03,0.01 c 1.88,0.33 5.87,0.56 10.61,0.55 7.7,0 17.63,-0.48 27.29,-0.97 9.69,-0.49 19.06,-0.99 26.21,-0.99 2.24,0 4.27,0.05 6.15,0.18 8.67,0.68 17.17,3.83 24.22,9.15 3.51,2.68 6.66,5.96 9.03,9.97 2.36,3.98 3.89,8.77 3.88,13.88 0,1.41 -0.11,2.84 -0.34,4.27 -1.24,7.63 -5.47,13.5 -9.94,17.76 -4.51,4.3 -9.48,7.41 -13.82,10.04 -14.27,8.56 -34.64,16.64 -56.08,22.87 -21.44,6.18 -43.65,10.43 -61.8,10.47 -2.35,0 -4.63,-0.08 -6.85,-0.24 -25.35,-1.87 -47.34,-13.94 -66.8,-26.18 -19.71,-12.46 -38.57,-26.23 -56.45,-41.18 -4.24,-3.54 -4.8,-9.85 -1.26,-14.08 3.55,-4.24 9.85,-4.8 14.09,-1.26"
         style="fill:#040606;fill-opacity:1;fill-rule:nonzero;stroke:none"
         id="path80" />
      <path
         d="m 2079.26,513.762 19.18,1026.738 -89.67,20.92 -13.38,-1021.158 83.87,-26.5"
         style="fill:#f7980f;fill-opacity:1;fill-rule:nonzero;stroke:none"
         id="path82" />
      <path
         d="m 2079.26,513.762 10,-0.192 19.18,1026.74 c 0.09,4.71 -3.14,8.86 -7.73,9.93 l -89.66,20.91 c -2.96,0.69 -6.05,0.01 -8.44,-1.86 -2.39,-1.87 -3.8,-4.71 -3.84,-7.74 L 1985.39,540.391 c -0.06,-4.399 2.78,-8.332 6.98,-9.661 l 83.88,-26.511 c 2.99,-0.938 6.3,-0.41 8.85,1.422 2.55,1.828 4.1,4.789 4.16,7.929 l -10,0.192 3.02,9.539 -76.8,24.258 13.13,1001.291 69.68,-16.25 -19.03,-1018.651 10,-0.187 3.02,9.539 -3.02,-9.539"
         style="fill:#040606;fill-opacity:1;fill-rule:nonzero;stroke:none"
         id="path84" />
      <path
         d="m 2079.26,513.762 1.52,-214.953 c 0,0 -484.42,-67.727 -507.97,14.73 -23.57,82.441 29.44,129.563 100.1,138.383 70.68,8.84 322.48,88.34 322.48,88.34 l 83.87,-26.5"
         style="fill:#f14f21;fill-opacity:1;fill-rule:nonzero;stroke:none"
         id="path86" />
      <g
         id="g88">
        <g
           id="g90"
           clip-path="url(#clipPath94)">
          <path
             d="m 2135.47,228.121 c 4.86,44.168 -2.3,94.777 2.54,138.949 -206.33,-51.261 -422.71,-61.691 -633.02,-30.519 2.93,-34.051 21.41,-76.071 32.68,-108.34"
             style="fill:#ffffff;fill-opacity:1;fill-rule:nonzero;stroke:none"
             id="path96" />
          <path
             d="m 2145.41,227.02 c 1.42,12.941 1.84,26.21 1.84,39.562 0,20.84 -1.02,41.898 -1.01,62.078 0,12.91 0.41,25.461 1.71,37.32 0.36,3.262 -0.89,6.461 -3.36,8.622 -2.46,2.16 -5.81,2.968 -8.99,2.179 -127.96,-31.793 -259.83,-47.793 -391.69,-47.793 -79.44,0 -158.87,5.813 -237.45,17.453 -3.04,0.457 -6.08,-0.5 -8.32,-2.601 -2.23,-2.11 -3.37,-5.078 -3.11,-8.141 1.61,-18.449 7.21,-38.058 13.71,-57.207 6.51,-19.121 13.97,-37.762 19.49,-53.57 1.82,-5.223 7.52,-7.973 12.74,-6.152 5.21,1.82 7.96,7.531 6.14,12.742 -5.75,16.449 -13.16,34.949 -19.44,53.418 -6.29,18.449 -11.39,36.871 -12.71,52.48 l -9.97,-0.859 -1.46,-9.891 C 1583.08,314.871 1663.5,309 1743.91,309 c 133.48,0 266.96,16.18 396.51,48.371 l -2.41,9.699 -9.94,1.09 c -1.41,-12.922 -1.83,-26.16 -1.83,-39.5 0,-20.828 1.01,-41.89 1.01,-62.078 0,-12.934 -0.41,-25.492 -1.72,-37.371 -0.6,-5.492 3.36,-10.43 8.85,-11.031 5.49,-0.61 10.43,3.351 11.03,8.84"
             style="fill:#040606;fill-opacity:1;fill-rule:nonzero;stroke:none"
             id="path98" />
          <path
             d="m 1655.58,496.941 c 46.4,-23.461 78.06,-67.75 107.84,-110.382 63.38,27.992 115.75,49.89 182.59,68.089 -19.88,32.934 -50.01,63.004 -78.9,88.403"
             style="fill:#ffffff;fill-opacity:1;fill-rule:nonzero;stroke:none"
             id="path100" />
          <path
             d="m 1651.07,488.02 c 43.46,-21.86 74.45,-64.528 104.15,-107.188 2.74,-3.902 7.88,-5.34 12.24,-3.422 63.31,27.961 115.05,49.582 181.18,67.59 3.03,0.832 5.49,3.02 6.65,5.93 1.17,2.922 0.9,6.199 -0.72,8.89 -20.82,34.422 -51.62,65 -80.85,90.739 -4.15,3.64 -10.47,3.242 -14.12,-0.911 -3.64,-4.148 -3.24,-10.468 0.91,-14.109 28.54,-25.07 57.99,-54.617 76.94,-86.059 l 8.56,5.168 -2.63,9.653 c -67.54,-18.391 -120.55,-40.571 -184,-68.59 l 4.04,-9.152 8.2,5.73 c -29.86,42.602 -62.19,88.512 -111.53,113.582 -4.92,2.488 -10.94,0.52 -13.43,-4.41 -2.5,-4.93 -0.52,-10.949 4.41,-13.441"
             style="fill:#040606;fill-opacity:1;fill-rule:nonzero;stroke:none"
             id="path102" />
          <path
             d="m 1820.33,415 c -13.52,28.391 -29.62,55.559 -48.03,81.059 -3.23,4.48 -9.48,5.492 -13.96,2.25 -4.48,-3.227 -5.49,-9.477 -2.25,-13.957 17.7,-24.52 33.18,-50.653 46.18,-77.95 2.38,-4.98 8.35,-7.101 13.33,-4.722 4.99,2.371 7.11,8.34 4.73,13.32"
             style="fill:#040606;fill-opacity:1;fill-rule:nonzero;stroke:none"
             id="path104" />
          <path
             d="m 1879.76,448.391 c -18.9,34.078 -39.01,67.488 -60.31,100.129 -3.01,4.628 -9.21,5.929 -13.84,2.91 -4.62,-3.02 -5.92,-9.211 -2.91,-13.84 21.03,-32.238 40.9,-65.231 59.56,-98.891 2.68,-4.828 8.77,-6.578 13.6,-3.898 4.83,2.679 6.57,8.758 3.9,13.59"
             style="fill:#040606;fill-opacity:1;fill-rule:nonzero;stroke:none"
             id="path106" />
        </g>
      </g>
      <path
         d="m 2079.26,513.762 -10,-0.071 1.52,-214.953 10,0.071 -1.39,9.902 c -0.01,0 -2.88,-0.402 -8.26,-1.109 -37.61,-4.993 -196.9,-24.973 -324.84,-24.961 -44.46,-0.012 -85.16,2.441 -115.03,8.55 -14.92,3.02 -27.1,7 -35.4,11.571 -4.15,2.258 -7.3,4.648 -9.45,6.929 -2.17,2.309 -3.36,4.418 -3.99,6.59 -3.64,12.758 -5.29,24.418 -5.29,35.008 0.1,26.902 10.28,47 27.37,62.231 17.11,15.16 41.66,25 69.65,28.48 18.67,2.352 47.72,9.039 81.48,17.781 101.05,26.199 242.68,70.918 242.77,70.949 l -3.01,9.532 -3.02,-9.532 83.88,-26.511 3.01,9.543 -10,-0.071 10,0.071 3.02,9.539 -83.88,26.5 c -1.95,0.621 -4.08,0.621 -6.03,0 -0.01,0 -3.91,-1.242 -10.92,-3.422 -24.54,-7.66 -86.9,-26.938 -150.78,-45.238 -31.93,-9.149 -64.25,-18.059 -92.35,-25.149 -28.06,-7.082 -52.08,-12.332 -66.65,-14.14 -31.06,-3.903 -59.4,-14.813 -80.42,-33.34 -21.03,-18.461 -34.21,-44.992 -34.12,-77.223 0,-12.66 1.97,-26.18 6.06,-40.5 1.6,-5.629 4.7,-10.637 8.69,-14.84 7.02,-7.359 16.56,-12.578 27.96,-16.828 17.14,-6.301 38.81,-10.312 63.74,-12.883 24.92,-2.547 53.05,-3.597 82.71,-3.597 148.38,0.019 335.64,26.25 335.87,26.269 4.96,0.692 8.65,4.961 8.62,9.969 l -1.52,214.953 c -0.03,4.348 -2.84,8.16 -6.98,9.469 l -3.02,-9.539"
         style="fill:#040606;fill-opacity:1;fill-rule:nonzero;stroke:none"
         id="path108" />
      <path
         d="m 2309.22,513.762 -19.18,1026.738 89.67,20.92 13.39,-1021.158 -83.88,-26.5"
         style="fill:#f7980f;fill-opacity:1;fill-rule:nonzero;stroke:none"
         id="path110" />
      <path
         d="m 2309.22,513.762 10,0.187 -19.03,1018.651 69.69,16.25 13.12,-1001.291 -76.79,-24.258 3.01,-9.539 10,0.187 -10,-0.187 3.02,-9.543 83.87,26.511 c 4.21,1.329 7.05,5.262 6.99,9.661 l -13.39,1021.159 c -0.04,3.03 -1.44,5.87 -3.83,7.74 -2.39,1.87 -5.48,2.55 -8.44,1.86 l -89.67,-20.91 c -4.59,-1.07 -7.81,-5.22 -7.73,-9.93 l 19.18,-1026.74 c 0.06,-3.14 1.62,-6.101 4.17,-7.929 2.55,-1.832 5.85,-2.36 8.85,-1.422 l -3.02,9.543"
         style="fill:#040606;fill-opacity:1;fill-rule:nonzero;stroke:none"
         id="path112" />
      <path
         d="m 2309.22,513.762 -1.51,-214.953 c 0,0 484.41,-67.727 507.97,14.73 23.56,82.441 -29.45,129.563 -100.11,138.383 -70.67,8.84 -322.47,88.34 -322.47,88.34 l -83.88,-26.5"
         style="fill:#f14f21;fill-opacity:1;fill-rule:nonzero;stroke:none"
         id="path114" />
      <g
         id="g116">
        <g
           id="g118"
           clip-path="url(#clipPath122)">
          <path
             d="m 2253.01,228.121 c -4.85,44.168 2.31,94.777 -2.54,138.949 206.33,-51.261 422.72,-61.691 633.02,-30.519 -2.93,-34.051 -21.41,-76.071 -32.68,-108.34"
             style="fill:#ffffff;fill-opacity:1;fill-rule:nonzero;stroke:none"
             id="path124" />
          <path
             d="m 2262.95,229.211 c -1.3,11.879 -1.72,24.437 -1.72,37.371 0,20.188 1.01,41.25 1.02,62.078 -0.01,13.332 -0.42,26.578 -1.84,39.5 l -9.94,-1.09 -2.41,-9.699 C 2377.62,325.18 2511.1,309 2644.57,309 c 80.42,0 160.83,5.871 240.39,17.66 l -1.47,9.891 -9.96,0.859 c -1.32,-15.609 -6.43,-34.031 -12.72,-52.48 -6.28,-18.469 -13.69,-36.969 -19.44,-53.418 -1.82,-5.211 0.93,-10.922 6.15,-12.742 5.21,-1.821 10.91,0.929 12.74,6.152 5.52,15.808 12.98,34.449 19.49,53.57 6.49,19.149 12.1,38.758 13.7,57.207 0.27,3.063 -0.87,6.031 -3.11,8.141 -2.24,2.101 -5.28,3.058 -8.32,2.601 -78.57,-11.64 -158.01,-17.453 -237.45,-17.453 -131.86,0 -263.73,16 -391.69,47.793 -3.18,0.789 -6.52,-0.019 -8.99,-2.179 -2.47,-2.161 -3.71,-5.36 -3.36,-8.622 1.3,-11.859 1.72,-24.41 1.72,-37.32 0,-20.18 -1.01,-41.238 -1.02,-62.078 0,-13.352 0.42,-26.621 1.84,-39.562 0.6,-5.489 5.54,-9.45 11.03,-8.84 5.49,0.601 9.46,5.539 8.85,11.031"
             style="fill:#040606;fill-opacity:1;fill-rule:nonzero;stroke:none"
             id="path126" />
          <path
             d="m 2732.9,496.941 c -46.39,-23.461 -78.05,-67.75 -107.84,-110.382 -63.38,27.992 -115.75,49.89 -182.59,68.089 19.89,32.934 50.01,63.004 78.9,88.403"
             style="fill:#ffffff;fill-opacity:1;fill-rule:nonzero;stroke:none"
             id="path128" />
          <path
             d="m 2728.39,505.871 c -49.33,-25.07 -81.66,-70.98 -111.52,-113.582 l 8.19,-5.73 4.04,9.152 c -63.45,28.019 -116.46,50.199 -184,68.59 l -2.63,-9.653 8.57,-5.168 c 18.94,31.442 48.39,60.989 76.93,86.059 4.15,3.641 4.56,9.961 0.91,14.109 -3.65,4.153 -9.96,4.551 -14.11,0.911 -29.23,-25.739 -60.04,-56.317 -80.86,-90.739 -1.62,-2.691 -1.89,-5.968 -0.72,-8.89 1.17,-2.91 3.63,-5.098 6.66,-5.93 66.13,-18.008 117.86,-39.629 181.17,-67.59 4.37,-1.918 9.51,-0.48 12.24,3.422 29.71,42.66 60.7,85.328 104.16,107.188 4.93,2.492 6.9,8.511 4.41,13.441 -2.49,4.93 -8.51,6.898 -13.44,4.41"
             style="fill:#040606;fill-opacity:1;fill-rule:nonzero;stroke:none"
             id="path130" />
          <path
             d="m 2586.21,406.402 c 13,27.297 28.49,53.43 46.19,77.95 3.23,4.48 2.22,10.73 -2.26,13.957 -4.47,3.242 -10.72,2.23 -13.96,-2.25 -18.41,-25.5 -34.5,-52.668 -48.03,-81.059 -2.37,-4.98 -0.25,-10.949 4.73,-13.32 4.99,-2.379 10.95,-0.258 13.33,4.722"
             style="fill:#040606;fill-opacity:1;fill-rule:nonzero;stroke:none"
             id="path132" />
          <path
             d="m 2526.22,438.699 c 18.66,33.66 38.53,66.653 59.56,98.891 3.02,4.629 1.72,10.82 -2.91,13.84 -4.63,3.019 -10.82,1.718 -13.84,-2.91 -21.29,-32.641 -41.41,-66.051 -60.3,-100.129 -2.68,-4.832 -0.93,-10.911 3.9,-13.59 4.83,-2.68 10.91,-0.93 13.59,3.898"
             style="fill:#040606;fill-opacity:1;fill-rule:nonzero;stroke:none"
             id="path134" />
        </g>
      </g>
      <path
         d="m 2309.22,513.762 -10,0.07 -1.51,-214.953 c -0.04,-5.008 3.65,-9.277 8.61,-9.969 0.24,-0.019 187.49,-26.25 335.88,-26.269 45.21,0.011 86.8,2.398 119.02,8.949 16.13,3.301 29.94,7.59 41,13.621 5.53,3.031 10.39,6.519 14.39,10.738 3.98,4.203 7.08,9.211 8.68,14.84 4.1,14.32 6.06,27.84 6.06,40.5 0.1,32.231 -13.08,58.762 -34.12,77.223 -21.02,18.527 -49.36,29.437 -80.42,33.34 -16.67,2.058 -45.6,8.628 -78.93,17.289 -50.09,12.98 -110.58,30.66 -158.5,45.078 -23.96,7.211 -44.79,13.613 -59.62,18.203 -14.83,4.59 -23.63,7.367 -23.65,7.379 -1.95,0.621 -4.07,0.621 -6.02,0 l -83.88,-26.5 c -4.15,-1.321 -6.96,-5.121 -6.99,-9.469 l 10,-0.07 3.02,-9.543 83.87,26.511 -3.01,9.532 -3.01,-9.532 c 0.04,-0.011 63.04,-19.91 134.94,-40.921 35.95,-10.508 74.13,-21.297 107.83,-30.028 33.76,-8.742 62.81,-15.429 81.47,-17.781 28,-3.48 52.55,-13.32 69.66,-28.48 17.08,-15.231 27.27,-35.329 27.36,-62.231 0,-10.59 -1.64,-22.25 -5.29,-35.008 -0.62,-2.172 -1.81,-4.281 -3.98,-6.59 -3.75,-4.011 -10.68,-8.261 -20.37,-11.8 -14.52,-5.391 -34.91,-9.309 -58.85,-11.75 -23.95,-2.461 -51.48,-3.5 -80.66,-3.5 -73.08,0 -156.48,6.507 -221.49,13.031 -32.51,3.269 -60.44,6.527 -80.23,8.969 -9.89,1.23 -17.75,2.25 -23.13,2.961 -5.38,0.707 -8.25,1.109 -8.26,1.109 l -1.38,-9.902 10,-0.071 1.51,214.953 -10,0.071 3.02,-9.543 -3.02,9.543"
         style="fill:#040606;fill-opacity:1;fill-rule:nonzero;stroke:none"
         id="path136" />
      <path
         d="m 914.418,2691.59 c 0,0 -737.52,467.04 -88.301,1184.05 649.213,717 2540.363,428.03 2860.913,-201.08 291.8,-572.67 -255.25,-914.59 -255.25,-914.59 l 130.59,-1564.88 v -134.84 c 0,0 -383.48,-220.738 -1309.76,-221.73 -926.29,-1 -1374.215,145.082 -1374.215,145.082 v 134.838 l 36.023,1573.15"
         style="fill:#f14f21;fill-opacity:1;fill-rule:nonzero;stroke:none"
         id="path138" />
      <path
         d="m 914.418,2691.59 5.352,8.45 -0.918,0.59 c -9.899,6.42 -97.821,65.03 -182.887,167.02 -85.129,102.04 -167.172,247.04 -167.152,426.83 0.042,163.38 67.511,356.56 264.718,574.44 132.422,146.28 317.669,250.67 531.519,318.42 213.82,67.75 456.1,98.82 701.94,98.81 349.76,0.01 706.73,-62.88 999.17,-171.63 146.21,-54.36 276.28,-120.18 381.22,-195.12 104.97,-74.93 184.69,-158.95 230.75,-249.38 60.79,-119.34 84.58,-228.02 84.59,-325.46 0.02,-182.57 -83.78,-326.48 -168.07,-425.11 -42.12,-49.27 -84.29,-87.12 -115.87,-112.6 -15.8,-12.73 -28.94,-22.38 -38.1,-28.82 -4.58,-3.21 -8.16,-5.63 -10.59,-7.23 -1.21,-0.81 -2.13,-1.4 -2.74,-1.79 l -0.87,-0.56 c -3.16,-1.98 -4.97,-5.59 -4.66,-9.31 l 130.55,-1564.47 v -134.42 h 10 l -4.99,8.67 -0.21,-0.12 c -10.35,-5.82 -394.32,-219.288 -1304.57,-220.28 -3.14,-0.008 -6.28,-0.008 -9.41,-0.008 -459.43,0 -800.09,36.23 -1025.78,72.418 -112.84,18.101 -196.94,36.179 -252.773,49.718 -27.914,6.774 -48.758,12.411 -62.598,16.34 -6.918,1.973 -12.086,3.504 -15.508,4.551 -1.711,0.52 -2.984,0.922 -3.824,1.18 l -1.215,0.39 -3.097,-9.507 h 10 v 134.718 l 36.019,1573.04 c 0.082,3.51 -1.684,6.8 -4.644,8.68 l -5.352,-8.45 -9.996,0.23 -36.027,-1573.15 v -0.23 -134.838 c 0,-4.321 2.793,-8.161 6.898,-9.5 0.965,-0.321 446.937,-145.59 1367.897,-145.59 3.14,0 6.28,0 9.43,0.008 927.86,0.972 1313.23,222.18 1314.74,223.07 3.09,1.78 5.01,5.09 5.01,8.66 v 134.84 l -0.04,0.83 -130.58,1564.88 -9.97,-0.83 5.3,-8.48 c 0.55,0.36 86.53,54.11 172.77,154.97 86.18,100.79 172.86,249.17 172.87,438.1 0.01,100.72 -24.69,212.73 -86.77,334.54 -48.07,94.29 -130.18,180.33 -236.94,256.58 -160.19,114.35 -376.11,206.82 -618.04,270.87 -241.93,64.04 -509.86,99.59 -773.98,99.6 -247.52,-0.01 -491.69,-31.23 -707.98,-99.74 -216.26,-68.53 -404.768,-174.39 -540.307,-324.06 -199.625,-220.38 -269.93,-418.77 -269.887,-587.87 0.024,-192.12 90.395,-345.02 180.215,-449.6 89.887,-104.63 179.508,-161.39 180.039,-161.74 l 5.348,8.45 -9.996,0.23 9.996,-0.23"
         style="fill:#040606;fill-opacity:1;fill-rule:nonzero;stroke:none"
         id="path140" />
      <path
         d="m 914.418,2826.43 c 0,0 -737.52,467.04 -88.301,1184.05 649.213,717 2540.363,428.04 2860.913,-201.09 291.8,-572.66 -255.25,-914.59 -255.25,-914.59 l 130.59,-1699.71 c 0,0 -383.48,-220.738 -1309.76,-221.731 -926.29,-1 -1374.215,145.081 -1374.215,145.081 l 36.023,1707.99"
         style="fill:#f7980f;fill-opacity:1;fill-rule:nonzero;stroke:none"
         id="path142" />
      <path
         d="m 914.418,2826.43 5.352,8.44 -0.918,0.6 c -9.899,6.42 -97.821,65.02 -182.887,167.01 -85.129,102.05 -167.172,247.04 -167.152,426.84 0.042,163.38 67.511,356.56 264.718,574.45 132.422,146.27 317.669,250.66 531.519,318.41 213.82,67.75 456.1,98.82 701.94,98.81 349.76,0.01 706.73,-62.88 999.16,-171.63 146.22,-54.36 276.29,-120.18 381.23,-195.12 104.97,-74.93 184.69,-158.95 230.75,-249.39 60.79,-119.33 84.58,-228.01 84.59,-325.45 0.02,-182.57 -83.78,-326.49 -168.07,-425.11 -42.12,-49.28 -84.29,-87.13 -115.87,-112.6 -15.8,-12.74 -28.94,-22.38 -38.1,-28.82 -4.58,-3.22 -8.16,-5.64 -10.59,-7.24 -1.21,-0.8 -2.13,-1.4 -2.74,-1.79 l -0.87,-0.56 c -3.16,-1.97 -4.96,-5.52 -4.67,-9.24 l 130.59,-1699.72 9.97,0.77 -4.99,8.67 -0.21,-0.12 c -10.35,-5.83 -394.32,-219.288 -1304.57,-220.281 -3.14,0 -6.28,0 -9.41,0 -459.43,0 -800.09,36.221 -1025.78,72.411 -112.84,18.09 -196.94,36.18 -252.773,49.72 -27.914,6.77 -48.758,12.4 -62.598,16.33 -6.918,1.97 -12.086,3.51 -15.508,4.55 -1.711,0.52 -2.984,0.92 -3.824,1.19 l -1.215,0.38 -3.097,-9.5 9.996,-0.21 36.023,1707.98 c 0.074,3.51 -1.684,6.79 -4.644,8.66 l -5.352,-8.44 -9.996,0.21 -36.027,-1707.99 c -0.094,-4.41 2.707,-8.35 6.898,-9.72 0.965,-0.32 446.937,-145.578 1367.897,-145.571 3.13,0 6.28,0 9.43,0 927.86,0.973 1313.23,222.171 1314.74,223.061 3.34,1.93 5.27,5.59 4.98,9.43 l -130.59,1699.72 -9.97,-0.77 5.3,-8.47 c 0.55,0.35 86.53,54.1 172.77,154.96 86.18,100.8 172.86,249.18 172.87,438.11 0.01,100.72 -24.69,212.72 -86.77,334.53 -48.07,94.3 -130.18,180.34 -236.94,256.59 -160.19,114.36 -376.11,206.82 -618.04,270.87 -241.93,64.04 -509.86,99.59 -773.98,99.6 v -0.01 c -247.52,0 -491.69,-31.22 -707.98,-99.73 -216.26,-68.53 -404.768,-174.39 -540.307,-324.06 -199.625,-220.38 -269.93,-418.77 -269.887,-587.87 0.024,-192.12 90.395,-345.03 180.215,-449.6 89.887,-104.64 179.508,-161.39 180.039,-161.74 l 5.348,8.45 -9.996,0.21 9.996,-0.21"
         style="fill:#040606;fill-opacity:1;fill-rule:nonzero;stroke:none"
         id="path144" />
      <path
         d="m 997.965,2852.78 c 0,0 -689.356,436.55 -82.531,1106.72 606.816,670.19 2374.476,400.09 2674.096,-187.95 272.74,-535.27 -238.59,-854.86 -238.59,-854.86 L 3473,1327.97 c 0,0 -358.44,-206.33 -1224.23,-207.26 -865.8,-0.92 -1284.469,135.62 -1284.469,135.62 l 33.664,1596.45"
         style="fill:#fceba6;fill-opacity:1;fill-rule:nonzero;stroke:none"
         id="path146" />
      <path
         d="m 997.965,2852.78 5.345,8.45 -0.85,0.55 c -9.214,5.98 -91.347,60.73 -170.796,155.98 -79.508,95.31 -156.101,230.7 -156.078,398.54 0.039,152.53 63.012,332.92 247.262,536.49 123.672,136.62 296.722,234.14 496.522,297.44 199.78,63.3 426.17,92.33 655.91,92.32 326.84,0.02 660.43,-58.76 933.69,-160.37 136.62,-50.8 258.15,-112.3 356.18,-182.3 98.04,-70 172.48,-148.47 215.47,-232.87 56.78,-111.46 78.99,-212.94 79,-303.91 0.01,-170.43 -78.22,-304.81 -156.94,-396.92 -39.34,-46.02 -78.73,-81.37 -108.22,-105.16 -14.75,-11.9 -27.02,-20.9 -35.58,-26.91 -4.27,-3.01 -7.62,-5.26 -9.88,-6.76 -1.13,-0.75 -1.98,-1.3 -2.55,-1.67 l -0.81,-0.51 c -3.16,-1.98 -4.95,-5.52 -4.67,-9.25 l 122.06,-1588.72 9.97,0.77 -4.99,8.67 -0.19,-0.11 c -9.57,-5.39 -368.35,-204.89 -1219.06,-205.82 -2.92,0 -5.85,0 -8.77,0 -429.4,0 -747.78,33.86 -958.7,67.68 -105.46,16.91 -184.05,33.81 -236.22,46.47 -26.09,6.32 -45.562,11.59 -58.488,15.26 -6.465,1.84 -11.289,3.28 -14.484,4.25 -1.594,0.49 -2.785,0.86 -3.571,1.11 l -1.125,0.36 -3.101,-9.51 9.996,-0.21 33.663,1596.45 c 0.08,3.51 -1.68,6.78 -4.65,8.66 l -5.345,-8.45 -10,0.21 -33.66,-1596.45 c -0.094,-4.41 2.703,-8.35 6.894,-9.72 0.969,-0.32 417.891,-136.11 1278.791,-136.11 2.93,0 5.86,0 8.79,0 867.38,0.91 1227.71,207.71 1229.21,208.59 3.34,1.93 5.28,5.59 4.98,9.44 l -122.06,1588.71 -9.97,-0.76 5.3,-8.48 c 0.55,0.36 80.97,50.63 161.64,144.98 80.62,94.28 161.72,233.12 161.74,409.91 0.01,94.25 -23.11,199.05 -81.18,312.99 -45,88.26 -121.82,168.75 -221.67,240.07 -149.82,106.95 -351.7,193.39 -577.89,253.28 -226.19,59.87 -476.67,93.11 -723.61,93.11 -231.41,0 -459.69,-29.19 -661.94,-93.25 -202.21,-64.08 -378.52,-163.08 -505.31,-303.09 -186.668,-206.07 -252.477,-391.67 -252.438,-549.91 0.027,-179.78 84.59,-322.85 168.606,-420.66 84.082,-97.87 167.898,-150.95 168.425,-151.31 l 5.352,8.45 -10,0.21 10,-0.21"
         style="fill:#040606;fill-opacity:1;fill-rule:nonzero;stroke:none"
         id="path148" />
      <path
         d="m 907.027,2475.93 c -206.269,-2.74 -455.703,-177.96 -426.875,-395.34 30.828,-232.54 253.446,-348.05 454.832,-411.85 44.141,-13.98 63.625,55.26 19.446,69.27 -164.551,52.13 -350.938,136.61 -396.965,320.17 -20.652,82.39 -3.555,163.96 55.879,225.97 63.664,66.42 199.238,115.99 292.109,117.22 l 1.574,74.56"
         style="fill:#f7980f;fill-opacity:1;fill-rule:nonzero;stroke:none"
         id="path150" />
      <path
         d="m 907.027,2475.93 -0.132,10 c -100.239,-1.4 -209.184,-42.05 -293.825,-108.1 -42.297,-33.05 -78.515,-72.51 -104.254,-116.87 -25.734,-44.34 -40.957,-93.65 -40.953,-145.9 v 0 c 0,-11.79 0.778,-23.73 2.375,-35.79 v 0 c 15.758,-119.29 81.114,-208.84 167.227,-275.78 86.156,-67.03 193.168,-112.16 294.5,-144.28 4.906,-1.56 9.75,-2.32 14.414,-2.32 13.293,-0.06 24.605,6.38 31.832,15.33 7.297,8.97 11.148,20.35 11.176,31.9 0,8.86 -2.344,17.94 -7.657,25.81 -5.281,7.87 -13.605,14.26 -24.281,17.61 -81.832,25.91 -168.695,59.82 -240.25,109.48 -71.605,49.74 -127.703,114.66 -150.035,203.6 -5.371,21.42 -8.082,42.72 -8.082,63.54 0.051,56.55 19.824,109.54 61.481,153.07 30.222,31.61 79.015,60.23 131.515,80.66 52.473,20.49 108.75,32.92 153.508,33.48 5.402,0.07 9.754,4.39 9.863,9.79 l 1.574,74.56 c 0.059,2.71 -0.992,5.33 -2.898,7.25 -1.91,1.92 -4.523,2.99 -7.23,2.96 l 0.132,-10 -10,0.21 -1.57,-74.56 9.996,-0.21 -0.133,10 c -48.113,-0.67 -106.058,-13.64 -160.507,-34.85 -54.422,-21.27 -105.247,-50.64 -138.688,-85.45 -45.219,-47.11 -67.094,-105.66 -67.043,-166.91 0,-22.56 2.938,-45.49 8.684,-68.41 23.695,-94.63 83.804,-163.73 158.035,-215.16 74.281,-51.5 162.887,-85.89 245.605,-112.11 6.766,-2.19 10.918,-5.62 13.758,-9.76 2.805,-4.14 4.219,-9.23 4.223,-14.6 0.027,-6.98 -2.508,-14.22 -6.657,-19.23 -4.218,-5.04 -9.406,-7.95 -16.351,-8 -2.484,0 -5.258,0.4 -8.375,1.38 -100.055,31.68 -205.043,76.2 -288.25,141.01 -83.25,64.9 -144.621,149.37 -159.691,262.62 -1.481,11.18 -2.2,22.24 -2.2,33.16 0.008,48.33 14.024,94.09 38.25,135.86 36.313,62.65 95.762,116.12 164.168,153.98 68.375,37.89 145.629,60.11 216.875,61.03 l -0.129,10 -10,0.21 10,-0.21"
         style="fill:#040606;fill-opacity:1;fill-rule:nonzero;stroke:none"
         id="path152" />
      <path
         d="m 1022.24,1734.62 c 22.67,-8.18 45.33,-16.38 68,-24.56 12.37,-4.47 43.77,-10.72 46.74,8.9 3.51,23.3 -66.57,63.52 -104.93,68.77 -38.382,5.27 -84.683,-8.82 -84.683,-8.82 0,0 5.762,30.15 -18.926,35.49 -24.675,5.34 -132.031,-138.61 -124.57,-165.04 7.453,-26.44 47.09,-12.97 47.09,-12.97 0,0 88.672,-132.71 134.348,-137.01 45.671,-4.3 22.231,31.33 22.231,31.33 0,0 26.13,-11.44 42.86,13.3 16.75,24.75 -12.46,42.33 -12.46,42.33 0,0 30.27,-18.25 46.54,10.14 16.27,28.4 -12.18,48.03 -12.18,48.03 0,0 31.06,-14.1 43.19,19.75 12.13,33.85 -27.59,46.53 -27.59,46.53 0,0 7.78,-2.59 17.16,-3.97"
         style="fill:#ffffff;fill-opacity:1;fill-rule:nonzero;stroke:none"
         id="path154" />
      <path
         d="m 1018.84,1725.21 c 22.67,-8.18 45.33,-16.37 68,-24.56 v 0 c 6.87,-2.44 17.52,-5.15 28.62,-5.2 6.21,0.03 12.67,0.81 18.82,4.05 3.04,1.63 5.97,3.98 8.23,7.09 2.27,3.1 3.76,6.88 4.35,10.87 0.17,1.08 0.24,2.16 0.24,3.22 -0.02,5.38 -1.84,10.13 -4.33,14.45 -4.42,7.53 -11.2,14.28 -19.4,20.92 -12.32,9.88 -27.98,19.19 -43.95,26.65 -16.01,7.44 -32.13,13.01 -46.02,14.94 v 0 c -6.58,0.9 -13.26,1.27 -19.85,1.27 -35.23,-0.05 -68.593,-10.32 -69.093,-10.44 l 2.91,-9.56 9.824,-1.88 c 0.079,0.43 0.754,4.04 0.758,9.27 -0.027,5.59 -0.703,13.14 -4.543,20.73 -1.926,3.77 -4.73,7.52 -8.593,10.58 -3.852,3.08 -8.704,5.38 -14.258,6.57 h 0.004 c -1.215,0.26 -2.403,0.37 -3.543,0.37 -3.711,-0.03 -6.805,-1.03 -9.774,-2.33 -5.519,-2.5 -10.863,-6.36 -16.73,-11.31 -10.18,-8.66 -21.633,-20.77 -33.364,-34.64 -17.562,-20.8 -35.589,-45.47 -49.418,-67.74 -6.914,-11.15 -12.777,-21.68 -17.035,-31 -2.125,-4.67 -3.855,-9.04 -5.109,-13.16 -1.242,-4.13 -2.066,-7.96 -2.086,-11.98 0.004,-1.84 0.188,-3.75 0.746,-5.75 2.43,-9.02 8.539,-15.81 15.356,-19.25 6.812,-3.53 13.925,-4.41 20.304,-4.43 12.989,0.05 23.707,3.81 24.274,3.96 l -3.219,9.47 -8.313,-5.56 c 0.11,-0.16 22.395,-33.53 50.653,-67.71 14.144,-17.09 29.754,-34.39 45.117,-48 7.695,-6.81 15.324,-12.71 22.895,-17.21 7.578,-4.47 15.101,-7.69 23.058,-8.48 2.875,-0.27 5.563,-0.41 8.09,-0.41 9.579,0.03 17.249,1.86 23.109,6.57 2.88,2.32 5.04,5.36 6.29,8.46 1.27,3.12 1.7,6.23 1.7,9.06 -0.06,6.59 -2.1,11.99 -3.89,16.08 -1.83,4.05 -3.58,6.72 -3.77,7.02 l -8.36,-5.5 -4.01,-9.16 c 0.77,-0.3 7.88,-3.44 18.17,-3.48 5.55,0 12.1,0.98 18.69,4.12 6.59,3.12 13.06,8.44 18.3,16.22 4.69,6.88 6.92,14.19 6.9,20.96 0,5.91 -1.61,11.21 -3.82,15.6 -3.34,6.6 -7.93,11.37 -11.64,14.65 -3.73,3.28 -6.67,5.06 -7.03,5.29 -4.73,2.84 -10.87,1.32 -13.72,-3.41 -2.85,-4.73 -1.33,-10.87 3.4,-13.73 0.8,-0.36 11.35,-7.06 26.01,-7.21 5.69,0 12.12,1.16 18.26,4.53 6.16,3.35 11.79,8.85 16.1,16.42 4.41,7.66 6.37,15.4 6.35,22.5 -0.03,12.51 -5.69,22.2 -10.84,28.54 -5.21,6.4 -10.18,9.83 -10.68,10.19 l -5.68,-8.23 -4.13,-9.1 c 0.74,-0.3 8.17,-3.75 18.69,-3.81 6.27,-0.01 13.88,1.38 20.99,6.05 7.12,4.64 13.22,12.41 17.06,23.23 1.95,5.45 2.89,10.73 2.89,15.73 0.02,8.21 -2.58,15.46 -6.27,21.14 -5.55,8.57 -13.15,13.94 -19.25,17.42 -6.12,3.46 -10.9,5 -11.34,5.15 -5.24,1.67 -10.85,-1.21 -12.55,-6.43 -1.7,-5.22 1.14,-10.86 6.35,-12.59 0.33,-0.1 8.51,-2.84 18.86,-4.38 5.46,-0.8 10.55,2.97 11.36,8.43 0.8,5.47 -2.97,10.55 -8.44,11.36 -4.2,0.62 -8.16,1.53 -11.02,2.29 -1.43,0.37 -2.58,0.71 -3.35,0.94 l -0.87,0.27 -0.23,0.07 -3.15,-9.49 -3.05,-9.53 0.76,2.38 -0.79,-2.37 0.03,-0.01 0.76,2.38 -0.79,-2.37 c 0.27,-0.06 6.89,-2.39 12.69,-6.82 2.91,-2.2 5.57,-4.87 7.38,-7.8 1.81,-2.96 2.89,-6.05 2.91,-10.04 -0.01,-2.52 -0.46,-5.46 -1.72,-8.98 -2.78,-7.63 -6.11,-11.19 -9.21,-13.27 -3.12,-2.04 -6.52,-2.75 -10.01,-2.76 -2.88,-0.01 -5.68,0.54 -7.66,1.09 -0.99,0.28 -1.77,0.55 -2.26,0.73 l -0.51,0.2 v 0 c -4.72,2.14 -10.28,0.33 -12.83,-4.18 -2.56,-4.52 -1.25,-10.21 3.02,-13.16 l 0.07,0.11 -0.07,-0.11 v 0 l 0.07,0.11 -0.07,-0.11 c 0.44,-0.3 4.01,-3.02 7.15,-7.14 3.19,-4.16 5.75,-9.38 5.73,-15.13 -0.02,-3.56 -0.87,-7.58 -3.7,-12.55 -2.8,-4.85 -5.63,-7.31 -8.35,-8.82 -2.72,-1.49 -5.58,-2.07 -8.66,-2.08 -3.92,-0.01 -8.06,1.07 -11.1,2.24 -1.52,0.58 -2.76,1.16 -3.57,1.57 l -0.88,0.46 -0.17,0.09 -1.21,-2.09 1.25,2.07 -0.04,0.02 -1.21,-2.09 1.25,2.07 c -2.29,1.38 -4.98,1.79 -7.57,1.14 -2.6,-0.64 -4.78,-2.25 -6.16,-4.54 -1.38,-2.29 -1.79,-4.98 -1.14,-7.57 0.64,-2.6 2.26,-4.78 4.55,-6.16 l 0.01,-0.01 c 0.47,-0.28 4.16,-2.74 7.31,-6.32 1.58,-1.77 3.02,-3.8 3.98,-5.85 0.97,-2.07 1.49,-4.09 1.5,-6.22 -0.03,-2.6 -0.7,-5.61 -3.47,-9.75 -3.45,-5.08 -6.94,-7.73 -10.34,-9.37 -3.39,-1.62 -6.85,-2.18 -10.08,-2.18 -2.98,0 -5.7,0.5 -7.59,1 -0.95,0.24 -1.68,0.49 -2.13,0.65 l -0.45,0.17 -0.05,0.02 -2.03,-4.84 2.11,4.8 -0.08,0.04 -2.03,-4.84 2.11,4.8 c -4.07,1.78 -8.8,0.69 -11.658,-2.71 -2.863,-3.39 -3.152,-8.23 -0.714,-11.94 l 0.852,0.55 -0.86,-0.54 0.008,-0.01 0.852,0.55 -0.86,-0.54 c 0.136,-0.21 1.38,-2.21 2.47,-4.75 1.12,-2.51 1.95,-5.62 1.91,-7.37 l -0.22,-1.5 c -0.19,-0.28 0.01,-0.35 -1.3,-1.07 -1.3,-0.66 -4.349,-1.53 -9.579,-1.52 -1.82,0 -3.887,0.1 -6.215,0.32 -3.465,0.29 -8.703,2.15 -14.715,5.76 -10.574,6.25 -23.343,17.43 -36.031,30.58 -19.09,19.74 -38.25,43.9 -52.535,63.05 -7.149,9.58 -13.086,17.91 -17.231,23.83 -2.074,2.96 -3.695,5.32 -4.796,6.93 -1.102,1.61 -1.661,2.45 -1.661,2.45 -2.519,3.77 -7.242,5.37 -11.531,3.92 l -0.016,-0.01 c -0.589,-0.23 -9.457,-2.94 -17.824,-2.89 -4.375,-0.03 -8.433,0.75 -11.027,2.15 -2.59,1.48 -4.117,2.89 -5.383,6.96 l -1.289,-0.36 1.316,0.25 -0.027,0.11 -1.289,-0.36 1.316,0.25 -0.023,0.43 c -0.078,1.59 0.984,6.46 3.492,12.45 4.321,10.61 12.485,25.23 22.559,40.74 15.109,23.32 34.566,48.92 52.09,68.35 8.742,9.72 17.039,17.9 23.785,23.37 3.359,2.73 6.34,4.77 8.547,5.95 1.093,0.59 1.992,0.97 2.554,1.15 l 0.563,0.15 h 0.051 l -0.125,1.29 v -1.29 h 0.125 l -0.125,1.29 v -1.29 3.28 l -0.692,-3.2 0.692,-0.08 v 3.28 l -0.692,-3.2 h 0.004 c 2.86,-0.63 4.656,-1.59 6.043,-2.68 2.031,-1.62 3.387,-3.82 4.324,-6.7 0.926,-2.84 1.266,-6.19 1.254,-8.95 0.004,-1.72 -0.113,-3.21 -0.226,-4.21 l -0.149,-1.11 -0.035,-0.22 1.652,-0.29 -1.644,0.31 -0.008,-0.02 1.652,-0.29 -1.644,0.31 c -0.66,-3.44 0.527,-6.97 3.137,-9.31 2.609,-2.35 6.242,-3.15 9.597,-2.13 l 0.289,0.09 c 3.235,0.98 33.563,9.53 62.98,9.48 5.85,0 11.64,-0.33 17.14,-1.08 v 0 c 8.12,-1.1 18.77,-4.22 29.82,-8.7 16.59,-6.69 34.24,-16.43 47.2,-26.23 6.47,-4.88 11.76,-9.8 15.1,-13.98 1.67,-2.09 2.84,-3.97 3.5,-5.43 0.67,-1.46 0.8,-2.42 0.79,-2.81 l -0.01,-0.23 c -0.19,-1.19 -0.47,-1.69 -0.75,-2.1 -0.42,-0.55 -1.17,-1.23 -3.07,-1.88 -1.85,-0.63 -4.64,-1.04 -7.81,-1.03 -7.54,-0.05 -17.03,2.25 -21.82,4.02 h -0.01 c -22.66,8.19 -45.32,16.38 -67.99,24.56 -5.2,1.88 -10.93,-0.81 -12.81,-6 -1.87,-5.2 0.82,-10.93 6.01,-12.81"
         style="fill:#040606;fill-opacity:1;fill-rule:nonzero;stroke:none"
         id="path156" />
      <path
         d="M 982.984,3881.97 C 878.492,3753.18 856.188,3550.81 962.242,3423.31 902.25,3417.78 856.598,3356.54 856.598,3296.3 856.586,3039.21 1137.1,2944.04 1137.1,2944.04 c 0,0 -59.69,-107.04 -45.73,-241.87 13.97,-134.84 67.02,-179.62 67.02,-179.62 0,0 -111.71,-134.04 -3.2,-245.88 -106.49,-82.14 -18.04,-253.8 89.22,-334.93 -75.55,-144.63 -114.95,-355.78 -26.39,-492.82 88.58,-137.05 186.25,-212.12 383.81,-184.51 63.11,8.83 207.29,19.89 270.92,16.29 122.33,-6.89 238.01,-88.4 358.48,-66.02 105.57,19.61 190.59,116.41 297.94,113.89 80.98,-1.89 152.88,-61.28 233.87,-60.21 72.52,0.96 140.53,57.4 154.84,128.5 83.71,-35.71 124.61,-59.31 215.24,-51.16 90.63,8.15 182.73,69.82 196.39,159.79 18.21,120.03 -53.7,209.76 -66.79,330.46 -6.56,60.49 14.45,120.16 22.14,180.51 7.68,60.36 -2.99,130.99 -53.85,164.39 96.31,105.01 62.78,269.27 35.82,409.17 -25.63,132.99 -38.16,277.5 24.05,397.78 51.79,100.14 148.54,169.61 209.39,264.5 60.86,94.9 68.27,246.08 -31.49,298.59 65.65,68.18 55.29,186.43 -5.07,259.33 -60.38,72.91 -157.53,154.14 -251.88,161.76 -37.93,3.08 -77.58,2.91 -111.6,19.96 -26.09,13.06 -46.35,35.04 -67.92,54.68 -76.67,69.75 -176.78,113.26 -280.07,121.75 -47.34,3.89 -94.9,0.64 -142.43,-2.6 -53.23,-3.64 -106.42,-7.27 -159.24,-0.89 -120.58,14.58 -228.55,31.85 -344.94,66.58 -116.39,34.72 -262.07,29.36 -335.2,-67.62 0,0 -104.83,74.59 -204.76,30.34 -67.54,-29.89 -103.42,-73.91 -163.59,-102.52 -69.04,-32.84 -157.22,-31.89 -229.6,-65.78 -72.47,-33.94 -138.87,-81.51 -189.496,-143.91"
         style="fill:#f14f21;fill-opacity:1;fill-rule:nonzero;stroke:none"
         id="path158" />
      <path
         d="m 982.984,3881.97 -7.765,6.3 c -59.035,-72.82 -92.348,-168.02 -92.379,-261.15 -0.012,-75.99 22.324,-150.82 71.715,-210.2 l 7.687,6.39 -0.918,9.96 c -33.207,-3.08 -61.929,-21.45 -82.195,-46.68 -20.281,-25.28 -32.5,-57.63 -32.531,-90.29 v 0.09 -0.1 c -0.02,-66.11 18.097,-122.14 45.191,-168.54 40.66,-69.63 101.141,-117.72 151.331,-148.56 50.21,-30.83 90.28,-44.45 90.77,-44.62 l 3.21,9.47 -8.73,4.87 c -0.41,-0.83 -49.04,-87.87 -49.12,-205.39 0,-13.74 0.67,-27.9 2.18,-42.38 14.12,-137.22 68.73,-184.85 70.51,-186.23 l 6.45,7.64 -7.68,6.4 c -0.32,-0.39 -13.37,-16.07 -26.5,-41.39 -13.1,-25.31 -26.4,-60.33 -26.43,-99.55 -0.09,-38.06 12.99,-80.04 50.23,-118.3 l 7.18,6.96 -6.11,7.92 c -18.19,-14.01 -31.34,-30.76 -39.78,-49.17 -8.46,-18.41 -12.23,-38.39 -12.23,-58.89 0.05,-43.8 16.89,-90.13 42.74,-132.75 25.9,-42.61 60.94,-81.54 98.57,-110.02 l 6.03,7.98 -8.87,4.63 c -45.63,-87.43 -78.21,-198.28 -78.25,-303.9 0,-71.82 15.14,-141.4 52.33,-198.98 38.55,-59.63 79.19,-108.34 129.65,-142.25 50.43,-33.93 110.54,-52.55 186.11,-52.5 24.25,0 50.12,1.9 77.83,5.77 54.03,7.58 169.84,16.91 240.3,16.89 10.78,0 20.49,-0.22 28.67,-0.68 52.03,-2.9 103.81,-20 156.1,-36.76 52.28,-16.71 105.12,-33.12 159.74,-33.16 14.9,0 29.92,1.24 45.04,4.05 54.53,10.2 102.43,39.43 149.46,65.3 23.51,12.98 46.77,25.16 70.33,34.03 23.57,8.88 47.36,14.44 72.2,14.44 1.3,0 2.59,-0.01 3.88,-0.04 37.73,-0.83 74.58,-15.25 112.5,-30.14 37.9,-14.78 76.9,-30.04 119.44,-30.09 l 2.29,0.01 h 0.01 c 38.84,0.53 76.05,15.82 105.51,40.25 29.44,24.45 51.32,58.2 59.01,96.27 l -9.81,1.98 -3.92,-9.2 c 36.07,-15.38 64.43,-28.66 92.91,-38.26 28.45,-9.6 57.03,-15.33 92.29,-15.31 10.9,0 22.45,0.54 34.85,1.65 47.25,4.27 94.56,22.33 132.26,51.24 37.65,28.87 65.83,68.98 73.12,117.01 2.11,13.87 3.05,27.36 3.05,40.53 -0.01,52.63 -15.03,99.83 -31.03,146.73 -16.05,46.93 -33.11,93.66 -38.75,145.78 -0.82,7.58 -1.19,15.18 -1.19,22.81 -0.1,50.22 16.39,101.74 23.31,155.36 1.49,11.76 2.32,23.9 2.32,36.12 -0.01,26.35 -3.81,53.12 -13.25,77.28 -9.42,24.12 -24.69,45.74 -47.35,60.61 l -5.49,-8.36 7.37,-6.76 c 25.4,27.68 42.18,59.41 52.49,93.32 10.33,33.92 14.28,70.03 14.28,106.95 -0.02,72.48 -15.17,148.28 -28.5,217.55 -11.9,61.69 -20.89,125.63 -20.88,188.09 0,71.48 11.74,140.87 44,203.21 25.13,48.64 61.59,90.42 99.78,132.05 38.15,41.65 77.99,83.11 109.14,131.65 29.19,45.59 46.36,102.99 46.41,157.7 -0.01,31.83 -5.87,62.82 -19.05,89.89 -13.14,27.04 -33.81,50.11 -62.61,65.24 l -4.66,-8.85 7.21,-6.94 c 32.92,34.21 47.7,79.95 47.68,126.23 -0.03,52.33 -18.67,105.79 -52.26,146.42 -30.71,37.07 -70.63,76.16 -115.19,107.19 -44.56,30.99 -93.82,54.09 -143.58,58.16 -19.26,1.55 -38.49,2.29 -56.78,4.69 -18.3,2.39 -35.56,6.42 -51.15,14.24 l -0.01,0.01 c -23.92,11.88 -43.69,33.02 -65.66,53.13 v 0 c -78.36,71.25 -180.44,115.63 -285.98,124.32 -15.73,1.29 -31.44,1.8 -47.1,1.8 -64.93,-0.02 -129.2,-8.78 -192.21,-8.75 -20.8,0 -41.47,0.94 -61.98,3.42 -120.36,14.56 -227.66,31.73 -343.28,66.23 -41.96,12.51 -87.58,19.93 -132.6,19.94 -41.24,-0.01 -81.99,-6.23 -118.83,-20.74 -36.81,-14.49 -69.74,-37.38 -94.61,-70.38 l 7.98,-6.02 5.8,8.14 c -0.39,0.28 -16.47,11.7 -42.2,23.18 -25.73,11.45 -61.14,23.02 -100.33,23.05 -23.23,0 -47.8,-4.13 -72.08,-14.89 -34.84,-15.42 -61.44,-34.46 -86.43,-52.82 -25.02,-18.39 -48.43,-36.04 -77.4,-49.81 -32.98,-15.72 -71.52,-23.65 -111.26,-31.73 -39.72,-8.12 -80.64,-16.42 -118.29,-34.03 -73.58,-34.45 -141.26,-82.86 -193.021,-146.66 l 7.765,-6.3 7.762,-6.3 c 49.484,61.01 114.624,107.74 185.984,141.15 34.72,16.29 74.08,24.47 113.8,32.55 39.71,8.12 79.78,16.14 115.85,33.26 31.2,14.85 55.8,33.51 80.65,51.75 24.87,18.28 49.99,36.18 82.69,50.66 21.44,9.49 43.1,13.16 63.98,13.17 35.19,0.02 68.14,-10.58 92.19,-21.32 12.02,-5.36 21.8,-10.72 28.53,-14.72 3.37,-1.99 5.97,-3.65 7.71,-4.79 l 1.94,-1.3 0.46,-0.31 0.11,-0.08 c 4.4,-3.13 10.53,-2.19 13.78,2.13 22.44,29.74 52.01,50.42 85.97,63.81 33.95,13.38 72.27,19.35 111.5,19.35 42.81,0 86.66,-7.1 126.88,-19.1 117.15,-34.97 225.81,-52.32 346.6,-66.92 21.5,-2.6 42.97,-3.57 64.38,-3.57 64.83,0.02 129.09,8.78 192.21,8.75 15.22,0 30.38,-0.5 45.46,-1.74 101.04,-8.28 199.17,-50.94 274.16,-119.18 v 0.01 c 21.17,-19.18 41.93,-42 70.17,-56.23 v 0 c 18.43,-9.23 38,-13.63 57.52,-16.19 19.52,-2.55 39.08,-3.27 57.75,-4.79 44.58,-3.56 91.08,-24.88 133.78,-54.64 42.69,-29.71 81.54,-67.69 111.2,-103.53 30.44,-36.71 47.71,-86.11 47.67,-133.67 -0.01,-42.16 -13.37,-82.53 -42.09,-112.36 -2.18,-2.26 -3.17,-5.42 -2.67,-8.52 0.5,-3.1 2.44,-5.8 5.22,-7.26 24.86,-13.12 42.35,-32.58 53.94,-56.3 11.57,-23.71 17.03,-51.74 17.03,-81.13 0.04,-50.49 -16.2,-104.81 -43.25,-146.91 -29.71,-46.35 -68.66,-87.08 -107.05,-128.92 -38.34,-41.86 -76.15,-84.89 -102.8,-136.38 -34.14,-66.02 -46.23,-138.79 -46.23,-212.4 0,-64.37 9.22,-129.5 21.24,-191.87 13.38,-69.32 28.16,-144.07 28.14,-213.77 0,-35.5 -3.82,-69.65 -13.41,-101.13 -9.6,-31.49 -24.89,-60.31 -48.1,-85.62 -1.98,-2.16 -2.92,-5.09 -2.55,-8 0.36,-2.9 1.98,-5.51 4.43,-7.12 18.62,-12.24 31.4,-30 39.7,-51.18 8.29,-21.13 11.89,-45.57 11.88,-69.99 0,-11.32 -0.77,-22.63 -2.16,-33.59 -6.43,-51.16 -23.38,-103.41 -23.47,-157.89 0,-8.28 0.4,-16.6 1.31,-24.97 6,-55.15 23.8,-103.46 39.7,-150.08 15.96,-46.67 29.98,-91.55 29.96,-140.27 0,-12.21 -0.87,-24.68 -2.82,-37.53 -6.36,-41.94 -31.05,-77.66 -65.53,-104.15 -34.42,-26.45 -78.48,-43.3 -121.87,-47.18 -11.87,-1.06 -22.82,-1.57 -33.06,-1.57 -33.14,0.02 -58.95,5.21 -85.91,14.27 -26.94,9.05 -55.02,22.15 -91.44,37.69 -2.76,1.18 -5.93,1.05 -8.58,-0.35 -2.66,-1.39 -4.56,-3.93 -5.15,-6.87 -6.63,-33.02 -25.91,-63.04 -52.18,-84.83 -26.25,-21.8 -59.31,-35.22 -92.99,-35.64 h 0.01 l -2.05,-0.01 c -37.57,-0.06 -74.29,13.85 -112.15,28.72 -37.84,14.76 -76.78,30.45 -119.31,31.5 -1.46,0.04 -2.91,0.05 -4.36,0.05 -27.86,0 -54.13,-6.26 -79.25,-15.72 -37.69,-14.22 -73,-35.57 -108.39,-54.89 -35.38,-19.35 -70.74,-36.6 -108,-43.5 -13.82,-2.56 -27.59,-3.71 -41.39,-3.71 -50.52,-0.03 -101.49,15.47 -153.65,32.2 -52.15,16.67 -105.43,34.52 -161.06,37.69 -8.71,0.49 -18.75,0.71 -29.8,0.71 -72.08,-0.02 -187.64,-9.35 -243.07,-17.08 -26.91,-3.76 -51.85,-5.58 -75.06,-5.58 -72.38,0.05 -127.78,17.47 -174.96,49.11 -47.16,31.65 -86.22,78.03 -124,136.49 -34.52,53.39 -49.14,119.06 -49.13,188.13 -0.05,101.48 31.69,209.92 75.98,294.64 2.27,4.33 1.07,9.65 -2.83,12.6 -35.4,26.76 -69.03,64.06 -93.54,104.45 -24.56,40.37 -39.88,83.81 -39.83,122.37 0.01,18.08 3.3,35.08 10.4,50.54 7.12,15.46 18.03,29.48 33.83,41.68 2.26,1.75 3.66,4.35 3.86,7.2 0.21,2.85 -0.8,5.63 -2.79,7.68 -33.7,34.86 -44.5,70.74 -44.59,104.38 -0.03,34.59 11.98,66.84 24.18,90.35 6.09,11.74 12.2,21.29 16.74,27.85 2.28,3.28 4.16,5.81 5.45,7.5 l 1.48,1.89 0.36,0.44 0.09,0.11 c 3.51,4.22 2.96,10.5 -1.24,14.04 l -0.34,-0.41 0.35,0.4 -0.01,0.01 -0.34,-0.41 0.35,0.4 c -1.4,1.35 -50.16,44.7 -63.53,173.02 -1.43,13.76 -2.07,27.23 -2.07,40.32 0,55.97 11.7,105.08 23.41,140.11 5.86,17.52 11.71,31.51 16.07,41.06 2.18,4.78 3.98,8.45 5.23,10.91 0.62,1.22 1.11,2.14 1.43,2.74 l 0.35,0.66 0.1,0.17 c 1.44,2.59 1.66,5.7 0.6,8.47 -1.07,2.76 -3.31,4.92 -6.12,5.87 l -0.68,0.24 c -7.57,2.66 -76.57,28.08 -142.988,83.05 -33.222,27.48 -65.773,62.27 -89.957,105.16 -24.175,42.9 -40.082,93.84 -40.097,154.33 h -8.461 l 8.461,-0.08 v 0.08 h -8.461 l 8.461,-0.08 v 0.09 c -0.035,27.59 10.578,55.98 28.121,77.76 17.558,21.83 41.652,36.84 68.437,39.29 3.688,0.34 6.907,2.72 8.324,6.14 1.415,3.41 0.817,7.37 -1.55,10.22 -45.946,55.23 -67.082,125.25 -67.09,197.41 -0.035,88.35 31.887,179.56 87.906,248.55 l -7.762,6.3"
         style="fill:#040606;fill-opacity:1;fill-rule:nonzero;stroke:none"
         id="path160" />
      <path
         d="m 1102.66,3607.23 c -1.01,0 -2.05,0.04 -3.1,0.13 -18.24,1.62 -31.23,18.3 -39.51,34.64 -27.46,54.21 -27.79,121.36 -0.86,175.84 27.98,56.59 94.66,105.74 155.95,105.74 34.64,0 67.57,-15.72 90.79,-54.68 16.11,-27.03 24.72,-59.11 20.68,-90.3 -4.05,-31.2 -21.64,-61.12 -48.83,-76.94 -34.22,-19.9 -79.84,-16.73 -110.02,-42.34 -21.83,-18.52 -37.49,-52.1 -65.1,-52.09"
         style="fill:#ef3820;fill-opacity:1;fill-rule:nonzero;stroke:none"
         id="path162" />
      <path
         d="m 3277.93,3614.18 c -24.47,0 -48.96,9.76 -66.37,27.01 -10.15,10.06 -18.14,22.55 -30.18,30.23 -21.97,14.01 -52.95,9.17 -73.11,25.67 -13.96,11.43 -19.15,30.38 -21.12,48.3 -8,72.81 46.42,149.95 119.46,149.95 10.6,0 21.59,-1.62 32.83,-5.11 79.46,-24.7 162.33,-143.72 121.32,-224.82 -13.25,-26.18 -39.48,-45.37 -68.44,-50.08 -4.76,-0.77 -9.57,-1.15 -14.39,-1.15"
         style="fill:#ef3820;fill-opacity:1;fill-rule:nonzero;stroke:none"
         id="path164" />
      <path
         d="m 1691.41,2406.38 c -53.07,0 -106.41,23.18 -139.54,64.79 -16.85,21.17 -29.63,47.19 -53.28,60.33 -25.62,14.25 -58.38,9.98 -84.14,23.96 -27.89,15.12 -41.24,48.64 -42.8,80.33 -2.34,47.38 17.92,95.38 53.52,126.75 31.41,27.68 61.37,34.39 94.51,34.39 16.34,0 33.45,-1.63 51.9,-3.18 65.4,-5.51 128.2,4.29 189.67,-26.28 66.17,-32.89 111.41,-105.09 110.11,-178.97 -1.29,-73.88 -50.16,-145.26 -119.3,-171.31 -19.38,-7.3 -39.99,-10.81 -60.65,-10.81"
         style="fill:#ef3820;fill-opacity:1;fill-rule:nonzero;stroke:none"
         id="path166" />
      <path
         d="m 2261.07,2161.01 c -35.39,0.01 -71.3,14.16 -103.15,31.22 -23.97,12.84 -47.03,27.39 -68.93,43.5 -24.92,18.34 -49.8,41.09 -55.74,71.45 -4.78,24.37 3.94,50.06 19.19,69.67 15.24,19.61 36.44,33.79 58.56,45.07 18.89,9.64 42.71,13.91 67.96,13.91 52.48,0 111.15,-18.45 144.57,-45.49 35.94,-29.07 57.86,-75.93 53.33,-121.92 -4.52,-46.01 -37.07,-89.02 -81.3,-102.44 -11.33,-3.44 -22.88,-4.97 -34.49,-4.97"
         style="fill:#ef3820;fill-opacity:1;fill-rule:nonzero;stroke:none"
         id="path168" />
      <path
         d="m 1682.46,1724.39 c -25.84,0 -51.5,6.04 -71.1,22.33 -10.78,8.96 -19.09,20.51 -29.13,30.29 -31.22,30.39 -78.08,42.86 -104.22,77.73 -23.83,31.76 -24.87,75.48 -16.5,114.29 9.46,43.89 30.41,86.25 64.29,115.71 33.92,29.48 86.7,43.27 141.45,43.27 76.54,0 156.95,-26.94 195.1,-75.62 44.58,-56.87 50.32,-139.95 18.36,-204.75 -31.96,-64.82 -98.46,-110.01 -169.89,-121 -9.28,-1.43 -18.83,-2.25 -28.36,-2.25"
         style="fill:#ef3820;fill-opacity:1;fill-rule:nonzero;stroke:none"
         id="path170" />
      <path
         d="m 1569.62,1361.44 c -12.93,0 -25.85,1.74 -38.3,5.29 -14.65,4.18 -28.68,10.73 -43.73,13.15 -6.46,1.05 -13.01,1.31 -19.58,1.31 -3.43,0 -6.86,-0.07 -10.28,-0.14 -3.43,-0.07 -6.85,-0.14 -10.26,-0.14 -8.82,0 -17.57,0.48 -26.09,2.68 -38,9.86 -59.87,51.46 -62.81,90.59 -1.65,21.9 1.39,44.78 12.81,63.54 13.87,22.78 64.85,52.52 98.35,52.52 5.12,0 9.83,-0.69 13.94,-2.21 19.28,-7.15 34.63,-22.42 53.72,-30.02 13.26,-5.28 27.72,-6.61 41.52,-10.3 53.78,-14.34 94.16,-68.37 92.68,-124.02 -0.19,-6.9 -0.99,-13.96 -4.08,-20.14 -3.66,-7.32 -10.19,-12.76 -16.94,-17.38 -23.64,-16.21 -52.31,-24.73 -80.95,-24.73"
         style="fill:#ef3820;fill-opacity:1;fill-rule:nonzero;stroke:none"
         id="path172" />
      <path
         d="m 3065.89,2340.4 c -2.74,0 -5.47,0.02 -8.17,0.05 -23.05,0.22 -46.09,0.45 -69.13,0.67 -12.71,0.12 -25.75,0.31 -37.54,5.05 -21.56,8.67 -34.87,31.4 -38.7,54.32 -3.83,22.92 0.23,46.34 4.28,69.22 10.31,58.14 86.18,101.68 150.82,101.68 14.36,0 28.17,-2.15 40.58,-6.76 71.69,-26.66 98.81,-155.58 37.08,-204.88 -21.68,-17.33 -51.12,-19.35 -79.22,-19.35"
         style="fill:#ef3820;fill-opacity:1;fill-rule:nonzero;stroke:none"
         id="path174" />
      <path
         d="m 3098.14,1669.27 c -16.76,0.01 -33.45,5.59 -45.14,17.42 -22.91,23.18 -20.68,61.01 -35.43,90.07 -20.39,40.19 -70.8,59.24 -88.61,100.63 -6.49,15.07 -7.97,31.89 -6.89,48.26 4.25,63.6 70.64,143.97 138.84,143.97 18.45,0 37.04,-5.89 54.56,-19.59 29.02,-22.69 32.13,-65.74 40.27,-98.64 11.28,-45.66 39.94,-81.09 52.27,-125.41 11.32,-40.67 -6.09,-84.95 -34.14,-116.5 -15.3,-17.2 -34.35,-31.94 -56.63,-37.76 -6.19,-1.62 -12.65,-2.45 -19.1,-2.45"
         style="fill:#ef3820;fill-opacity:1;fill-rule:nonzero;stroke:none"
         id="path176" />
      <path
         d="m 2876.71,2076.47 c -14.63,0 -29.48,5.78 -44.22,8.43 -32.22,5.81 -67.71,-3.04 -96.68,12.23 -28.79,15.17 -41.99,51.93 -35.52,83.84 6.45,31.9 29.37,58.61 56.68,76.34 20.13,13.09 43.6,19.48 66.94,19.48 42.09,0 83.77,-20.76 104.79,-60.42 18.92,-35.75 15.43,-82.22 -8.64,-114.72 -8.01,-10.82 -18.63,-20.43 -31.67,-23.77 -3.87,-0.99 -7.77,-1.41 -11.68,-1.41"
         style="fill:#ef3820;fill-opacity:1;fill-rule:nonzero;stroke:none"
         id="path178" />
      <path
         d="m 2868.87,1467.82 c -16.35,0 -32.95,5.59 -49.72,11.17 -16.76,5.59 -33.7,11.18 -50.71,11.18 -2.29,0 -4.58,-0.1 -6.87,-0.32 -19.23,-1.81 -40.38,-11.06 -58.62,-11.06 -8.92,0 -17.15,2.22 -24.11,8.6 -5.25,4.83 -8.57,11.39 -11.07,18.06 -12.47,33.33 -5.48,73.16 17.58,100.26 20.47,24.05 54.47,34.9 90.68,34.9 68.09,0 143.99,-38.37 152.36,-99.54 3.93,-28.59 -11.75,-60.23 -38.95,-69.85 -6.81,-2.41 -13.66,-3.4 -20.57,-3.4"
         style="fill:#ef3820;fill-opacity:1;fill-rule:nonzero;stroke:none"
         id="path180" />
      <path
         d="m 1584.04,3817.03 c -7.99,0 -15.97,0.77 -23.63,2.21 -35.2,6.63 -67.4,24.18 -102.02,33.34 -14.06,3.72 -28.88,6.21 -41.01,14.26 -24.64,16.33 -30.47,51.45 -22.01,79.78 15.87,53.06 57.15,74.04 102.73,74.04 55.72,0 117.84,-31.37 147.69,-73.85 19.68,-28.01 28.96,-67.27 10.71,-96.22 -14.94,-23.7 -43.77,-33.56 -72.46,-33.56"
         style="fill:#ef3820;fill-opacity:1;fill-rule:nonzero;stroke:none"
         id="path182" />
      <path
         d="m 3285.69,3215.86 c -16.26,0 -32.85,1.86 -47.41,9.02 -20.59,10.13 -34.94,29.74 -45.2,50.26 -48.63,97.24 -0.69,215.05 115.12,223.24 2.91,0.2 5.77,0.31 8.6,0.31 91.22,0 137.31,-105.36 107.06,-184.22 -11.37,-29.65 -27.98,-58.65 -54.22,-76.54 -23.64,-16.12 -53.05,-21.76 -81.66,-22.06 -0.76,-0.01 -1.52,-0.01 -2.29,-0.01"
         style="fill:#ef3820;fill-opacity:1;fill-rule:nonzero;stroke:none"
         id="path184" />
      <path
         d="m 2918.5,3797.03 c -19.1,0 -38.84,8.27 -53.04,21.5 -6.41,5.97 -12.15,12.94 -19.9,17.02 -5.96,3.14 -12.26,4.25 -18.77,4.25 -7.98,0 -16.28,-1.67 -24.65,-3.35 -8.37,-1.67 -16.82,-3.35 -25.1,-3.35 -0.76,0 -1.51,0.02 -2.26,0.05 -88.35,3.41 -55.78,125.34 8.63,143.84 9.05,2.6 18.98,3.82 29.43,3.82 62.56,0 143.46,-43.79 160.38,-97.97 8.65,-27.71 0.42,-61.8 -24.11,-77.31 -9.26,-5.86 -19.83,-8.5 -30.61,-8.5"
         style="fill:#ef3820;fill-opacity:1;fill-rule:nonzero;stroke:none"
         id="path186" />
      <path
         d="m 1422.48,2973.26 c -0.42,0 -0.84,0.01 -1.26,0.01 -29.31,0.32 -57.54,10.16 -85.78,18.07 -21.39,5.99 -44.33,11.63 -59.7,27.68 -19.08,19.92 -20.96,52.85 -7.37,76.84 19.84,34.98 60.26,49.82 101.6,49.82 36.44,0 73.58,-11.53 97.93,-30.96 31.07,-24.81 49.41,-71.12 29.11,-105.3 -14.77,-24.83 -45.57,-36.16 -74.53,-36.16"
         style="fill:#ef3820;fill-opacity:1;fill-rule:nonzero;stroke:none"
         id="path188" />
      <path
         d="m 1858.7,4145.96 c 25.81,27.05 65.24,39.52 104.46,39.5 3.95,0 7.88,-0.12 11.8,-0.37 42.98,-2.68 84.94,-18.52 126.09,-36.33 5.07,-2.19 10.95,0.14 13.14,5.21 2.19,5.07 -0.14,10.96 -5.21,13.15 -41.68,17.99 -85.7,34.93 -132.76,37.93 -4.33,0.27 -8.69,0.41 -13.06,0.41 -43.24,-0.02 -88.02,-13.52 -118.9,-45.66 -3.82,-3.99 -3.69,-10.32 0.3,-14.14 3.99,-3.82 10.32,-3.68 14.14,0.3"
         style="fill:#ffffff;fill-opacity:1;fill-rule:nonzero;stroke:none"
         id="path190" />
      <path
         d="m 3002.18,3974.12 c 24.29,-24.62 54.53,-40.16 86.6,-50.34 32.09,-10.18 66.15,-15.1 98.81,-18.35 24.27,-2.37 47.9,-4.32 68.72,-12.25 18.67,-7.05 35.86,-19.15 53.01,-32.11 35.57,-26.82 69.5,-55.7 94.48,-90.96 22.57,-31.79 37.57,-69.73 37.54,-107.44 0,-4.03 -0.17,-8.05 -0.52,-12.08 -0.47,-5.5 3.61,-10.34 9.11,-10.82 5.5,-0.47 10.35,3.61 10.82,9.11 0.4,4.6 0.59,9.2 0.59,13.79 -0.04,43.04 -16.83,84.57 -41.23,119 -26.97,38.02 -62.59,68.08 -98.74,95.37 -17.46,13.15 -36.09,26.53 -57.97,34.84 -24.46,9.23 -49.9,11.04 -73.83,13.45 -32.03,3.17 -64.78,7.99 -94.74,17.51 -29.99,9.53 -57.05,23.67 -78.41,45.32 -3.88,3.94 -10.21,3.98 -14.14,0.1 -3.93,-3.88 -3.98,-10.21 -0.1,-14.14"
         style="fill:#ffffff;fill-opacity:1;fill-rule:nonzero;stroke:none"
         id="path192" />
      <path
         d="m 3471.6,3436.5 c 0.14,-8.12 0.25,-16.3 0.25,-24.49 0,-27.48 -1.25,-55.06 -6.54,-80.61 -5.28,-25.58 -14.51,-49 -30.3,-68.83 -3.45,-4.32 -2.73,-10.61 1.59,-14.05 4.32,-3.44 10.61,-2.73 14.05,1.59 18.26,22.92 28.54,49.56 34.25,77.24 5.71,27.71 6.94,56.59 6.95,84.66 0,8.37 -0.11,16.66 -0.26,24.83 -0.09,5.52 -4.64,9.92 -10.17,9.83 -5.52,-0.1 -9.92,-4.65 -9.82,-10.17"
         style="fill:#ffffff;fill-opacity:1;fill-rule:nonzero;stroke:none"
         id="path194" />
      <path
         d="m 3231.62,3056.04 c -35.62,-73.99 -56.39,-155.03 -60.77,-237.02 -0.3,-5.52 3.94,-10.23 9.45,-10.52 5.52,-0.29 10.23,3.94 10.52,9.45 4.23,79.33 24.36,157.83 58.82,229.41 2.39,4.98 0.3,10.95 -4.67,13.35 -4.98,2.39 -10.96,0.3 -13.35,-4.67"
         style="fill:#ffffff;fill-opacity:1;fill-rule:nonzero;stroke:none"
         id="path196" />
      <path
         d="m 3182.36,2716.75 c 3.93,-36.69 13.57,-72.73 28.49,-106.48 2.23,-5.05 8.14,-7.33 13.19,-5.1 5.05,2.23 7.33,8.14 5.1,13.19 -14.08,31.84 -23.19,65.9 -26.9,100.52 -0.59,5.49 -5.51,9.46 -11.01,8.88 -5.49,-0.59 -9.46,-5.52 -8.87,-11.01"
         style="fill:#ffffff;fill-opacity:1;fill-rule:nonzero;stroke:none"
         id="path198" />
      <path
         d="m 2159.53,3496.19 c 0,-232.84 -177.66,-421.59 -396.81,-421.59 -219.14,0 -396.8,188.75 -396.8,421.59 0,232.83 177.66,421.58 396.8,421.58 219.15,0 396.81,-188.75 396.81,-421.58"
         style="fill:#ffffff;fill-opacity:1;fill-rule:nonzero;stroke:none"
         id="path200" />
      <path
         d="m 2159.53,3496.19 h -10 c 0,-113.86 -43.43,-216.8 -113.51,-291.26 -70.1,-74.45 -166.64,-120.32 -273.3,-120.33 -106.66,0.01 -203.19,45.88 -273.3,120.33 -70.07,74.46 -113.5,177.4 -113.5,291.26 0,113.86 43.43,216.8 113.5,291.25 70.11,74.45 166.64,120.32 273.3,120.33 106.66,-0.01 203.2,-45.88 273.3,-120.33 70.07,-74.45 113.51,-177.39 113.51,-291.25 h 10 10 c 0,118.98 -45.4,226.83 -118.94,304.96 -73.52,78.13 -175.38,126.63 -287.87,126.62 -112.49,0.01 -214.35,-48.49 -287.86,-126.62 -73.54,-78.13 -118.94,-185.98 -118.94,-304.96 0,-118.98 45.4,-226.83 118.94,-304.96 73.51,-78.14 175.37,-126.64 287.86,-126.63 112.49,-0.01 214.35,48.49 287.87,126.63 73.54,78.13 118.94,185.98 118.94,304.96 h -10"
         style="fill:#040606;fill-opacity:1;fill-rule:nonzero;stroke:none"
         id="path202" />
      <path
         d="m 1809.74,3771.93 c -109.21,0 -202.11,-83.94 -236.83,-201.2 l 148.51,-101.88 -159.76,-49.29 c 19.55,-143.94 123.14,-253.8 248.08,-253.8 138.86,0 251.43,135.7 251.43,303.09 0,167.38 -112.57,303.08 -251.43,303.08"
         style="fill:#040606;fill-opacity:1;fill-rule:nonzero;stroke:none"
         id="path204" />
      <path
         d="m 1809.74,3771.93 v 10 c -57.2,0.02 -110.12,-22.04 -152.89,-59.06 -42.8,-37.03 -75.66,-88.97 -93.52,-149.3 -1.24,-4.17 0.34,-8.62 3.93,-11.08 l 131.44,-90.19 -139.98,-43.18 c -4.68,-1.45 -7.62,-6.06 -6.96,-10.9 10.05,-73.97 41.67,-139.36 87.23,-186.49 45.52,-47.11 105.29,-75.98 170.75,-75.97 72.78,-0.01 138.46,35.64 185.48,92.39 47.08,56.77 75.94,134.76 75.95,220.7 -0.01,85.93 -28.87,163.92 -75.95,220.69 -47.02,56.75 -112.7,92.41 -185.48,92.39 v -10 -10 c 66.08,-0.01 126.11,-32.21 170.09,-85.16 43.91,-52.92 71.35,-126.48 71.34,-207.92 0.01,-81.45 -27.42,-155.01 -71.34,-207.93 -43.98,-52.95 -104.01,-85.15 -170.09,-85.16 -59.48,0.02 -113.97,26.07 -156.37,69.87 -42.36,43.78 -72.31,105.3 -81.8,175.28 l -9.91,-1.35 2.95,-9.55 159.76,49.28 c 3.65,1.13 6.36,4.27 6.94,8.05 0.57,3.79 -1.08,7.59 -4.23,9.75 l -148.51,101.89 -5.66,-8.25 9.59,-2.84 c 16.85,56.93 47.81,105.59 87.43,139.85 39.67,34.27 87.81,54.18 139.81,54.19 v 10"
         style="fill:#040606;fill-opacity:1;fill-rule:nonzero;stroke:none"
         id="path206" />
      <path
         d="m 2245.19,3496.19 c 0,-232.84 177.66,-421.59 396.81,-421.59 219.14,0 396.79,188.75 396.79,421.59 0,232.83 -177.65,421.58 -396.79,421.58 -219.15,0 -396.81,-188.75 -396.81,-421.58"
         style="fill:#ffffff;fill-opacity:1;fill-rule:nonzero;stroke:none"
         id="path208" />
      <path
         d="m 2245.19,3496.19 h -10 c 0,-118.98 45.4,-226.83 118.94,-304.96 73.51,-78.14 175.38,-126.64 287.87,-126.63 112.48,-0.01 214.34,48.49 287.85,126.63 73.55,78.13 118.94,185.98 118.94,304.96 0,118.98 -45.39,226.83 -118.94,304.96 -73.51,78.13 -175.37,126.63 -287.85,126.62 -112.49,0.01 -214.36,-48.49 -287.87,-126.62 -73.54,-78.13 -118.94,-185.98 -118.94,-304.96 h 10 10 c 0,113.86 43.43,216.8 113.5,291.25 70.11,74.45 166.64,120.32 273.31,120.33 106.65,-0.01 203.19,-45.88 273.29,-120.33 70.07,-74.45 113.5,-177.39 113.5,-291.25 0,-113.86 -43.43,-216.8 -113.5,-291.26 -70.1,-74.45 -166.64,-120.32 -273.29,-120.33 -106.66,0.01 -203.2,45.88 -273.31,120.33 -70.07,74.46 -113.5,177.4 -113.5,291.26 h -10"
         style="fill:#040606;fill-opacity:1;fill-rule:nonzero;stroke:none"
         id="path210" />
      <path
         d="m 2591.62,3771.93 c -109.2,0 -202.1,-83.94 -236.83,-201.2 l 148.52,-101.88 -159.76,-49.29 c 19.53,-143.94 123.13,-253.8 248.07,-253.8 138.86,0 251.43,135.7 251.43,303.09 0,167.38 -112.57,303.08 -251.43,303.08"
         style="fill:#040606;fill-opacity:1;fill-rule:nonzero;stroke:none"
         id="path212" />
      <path
         d="m 2591.62,3771.93 v 10 c -57.21,0.02 -110.12,-22.04 -152.89,-59.06 -42.8,-37.03 -75.66,-88.97 -93.53,-149.3 -1.23,-4.17 0.35,-8.62 3.93,-11.08 l 131.46,-90.19 -139.99,-43.18 c -4.67,-1.45 -7.62,-6.06 -6.96,-10.9 10.05,-73.97 41.67,-139.36 87.23,-186.49 45.52,-47.11 105.29,-75.98 170.75,-75.97 72.78,-0.01 138.46,35.64 185.48,92.39 47.09,56.77 75.94,134.76 75.95,220.7 -0.01,85.93 -28.86,163.92 -75.95,220.69 -47.02,56.75 -112.7,92.41 -185.48,92.39 v -10 -10 c 66.08,-0.01 126.12,-32.21 170.09,-85.16 43.92,-52.92 71.35,-126.48 71.34,-207.92 0.01,-81.45 -27.42,-155.01 -71.34,-207.93 -43.97,-52.95 -104.01,-85.15 -170.09,-85.16 -59.48,0.02 -113.97,26.07 -156.37,69.87 -42.36,43.78 -72.31,105.3 -81.79,175.28 l -9.91,-1.35 2.95,-9.55 159.75,49.28 c 3.66,1.13 6.37,4.27 6.94,8.05 0.58,3.79 -1.07,7.59 -4.23,9.75 l -148.51,101.89 -5.66,-8.25 9.59,-2.84 c 16.85,56.93 47.81,105.59 87.44,139.85 39.66,34.27 87.8,54.18 139.8,54.19 v 10"
         style="fill:#040606;fill-opacity:1;fill-rule:nonzero;stroke:none"
         id="path214" />
      <path
         d="m 2143.96,3186.24 c -23.14,10.87 -52.51,-3.96 -63.62,-26.98 -11.12,-23.01 -7.25,-50.83 3.08,-74.21 24.95,-56.47 88.31,-93.37 149.75,-87.23 30.42,3.04 60.2,16.13 81.12,38.42 20.93,22.3 32.21,54.03 27.44,84.23 -3.71,23.56 -21.26,47.86 -45.1,47.6 -29.97,-0.33 -46.77,-34.03 -76.86,-33.99 -37.24,0.05 -46.96,38.62 -75.81,52.16"
         style="fill:#ffffff;fill-opacity:1;fill-rule:nonzero;stroke:none"
         id="path216" />
      <g
         id="g218">
        <g
           id="g220"
           clip-path="url(#clipPath224)">
          <path
             d="m 2195.83,3190.96 c -0.99,-72.58 -1.98,-145.17 -2.96,-217.76 -0.08,-5.52 4.34,-10.06 9.86,-10.13 5.52,-0.08 10.06,4.34 10.13,9.86 0.99,72.59 1.98,145.18 2.96,217.75 0.08,5.53 -4.34,10.06 -9.86,10.14 -5.52,0.07 -10.06,-4.34 -10.13,-9.86"
             style="fill:#040606;fill-opacity:1;fill-rule:nonzero;stroke:none"
             id="path226" />
          <path
             d="m 2138.06,3247.29 c -9.26,-67.65 -13.89,-135.93 -13.89,-204.21 0,-18.21 0.33,-36.42 0.99,-54.62 0.2,-5.52 4.83,-9.84 10.35,-9.64 5.52,0.21 9.83,4.84 9.63,10.36 -0.65,17.96 -0.97,35.93 -0.97,53.9 0,67.38 4.57,134.75 13.7,201.5 0.75,5.47 -3.08,10.52 -8.55,11.27 -5.47,0.74 -10.52,-3.09 -11.26,-8.56"
             style="fill:#040606;fill-opacity:1;fill-rule:nonzero;stroke:none"
             id="path228" />
          <path
             d="m 2256.49,3211.69 c 0.95,-77.83 1.88,-155.66 2.83,-233.49 0.07,-5.52 4.6,-9.95 10.12,-9.88 5.52,0.07 9.95,4.6 9.88,10.12 -0.95,77.83 -1.89,155.67 -2.83,233.5 -0.07,5.52 -4.6,9.94 -10.12,9.88 -5.53,-0.07 -9.95,-4.6 -9.88,-10.13"
             style="fill:#040606;fill-opacity:1;fill-rule:nonzero;stroke:none"
             id="path230" />
        </g>
      </g>
      <path
         d="m 2143.96,3186.24 4.25,9.05 c -6.71,3.16 -13.86,4.59 -20.86,4.58 -11.79,-0.01 -23.17,-3.92 -32.91,-10.29 -9.74,-6.38 -17.94,-15.3 -23.11,-25.97 -5.43,-11.25 -7.7,-23.35 -7.7,-35.31 0.01,-16.44 4.21,-32.7 10.65,-47.29 12.45,-28.16 33.62,-51.55 59.19,-67.96 25.59,-16.4 55.67,-25.88 86.27,-25.89 4.8,0 9.61,0.23 14.42,0.71 32.57,3.27 64.55,17.2 87.42,41.53 19.39,20.7 31.2,48.56 31.24,77.12 0,5.17 -0.4,10.35 -1.21,15.51 -2.17,13.56 -8.06,26.96 -17.19,37.57 -9.06,10.53 -22.03,18.47 -37.41,18.47 h -0.51 0.02 c -9.38,-0.09 -17.69,-2.87 -24.86,-6.55 -10.76,-5.55 -19.44,-12.97 -27.76,-18.44 -8.37,-5.55 -15.74,-9 -24.08,-9 h -0.23 l 0.18,-10 0.01,10 c -7.57,0.04 -13.16,1.86 -18.48,4.91 -7.95,4.56 -15.08,12.57 -23.07,21.5 -8,8.83 -16.97,18.63 -30.02,24.8 l -4.25,-9.05 -4.25,-9.05 c 5.74,-2.69 10.86,-6.8 15.98,-11.9 7.7,-7.6 15.06,-17.35 24.8,-25.82 4.88,-4.22 10.44,-8.1 16.98,-10.91 6.53,-2.81 14.01,-4.48 22.29,-4.48 h 0.19 l -0.15,8.57 v -8.57 h 0.15 l -0.15,8.57 v -8.57 h 0.02 c 9.41,-0.01 17.77,2.69 24.97,6.34 10.82,5.5 19.52,12.92 27.86,18.44 8.38,5.6 15.78,9.13 24.08,9.21 h 0.02 0.26 c 8.27,0 15.81,-4.15 22.28,-11.56 6.4,-7.33 11.04,-17.72 12.56,-27.6 0.65,-4.09 0.97,-8.23 0.97,-12.39 0.03,-22.94 -9.77,-46.38 -25.82,-63.44 -18.97,-20.26 -46.55,-32.5 -74.83,-35.31 -4.13,-0.41 -8.28,-0.61 -12.43,-0.61 -26.43,-0.01 -52.94,8.27 -75.47,22.73 -22.54,14.45 -41.02,35 -51.7,59.2 -5.52,12.47 -8.95,26.24 -8.94,39.21 0,9.46 1.78,18.47 5.71,26.61 3.39,7.06 9.18,13.46 16.05,17.94 6.87,4.51 14.71,7.04 21.96,7.02 4.33,0 8.46,-0.85 12.36,-2.68 l 4.25,9.05"
         style="fill:#040606;fill-opacity:1;fill-rule:nonzero;stroke:none"
         id="path232" />
      <path
         d="m 1404.07,3142.68 c 0,-68.38 -55.42,-123.8 -123.79,-123.8 -68.38,0 -123.8,55.42 -123.8,123.8 0,68.36 55.42,123.78 123.8,123.78 68.37,0 123.79,-55.42 123.79,-123.78"
         style="fill:#f57cc4;fill-opacity:1;fill-rule:nonzero;stroke:none"
         id="path234" />
      <path
         d="m 1404.07,3142.68 h -10 c -0.01,-31.46 -12.72,-59.85 -33.33,-80.47 -20.62,-20.61 -49.01,-33.33 -80.46,-33.33 -31.46,0 -59.85,12.72 -80.47,33.33 -20.61,20.62 -33.33,49.01 -33.33,80.47 0,31.45 12.72,59.83 33.33,80.46 20.62,20.6 49.01,33.32 80.47,33.32 31.45,0 59.84,-12.72 80.46,-33.32 20.61,-20.63 33.32,-49.01 33.33,-80.46 h 10 10 c -0.01,73.89 -59.9,133.78 -133.79,133.78 -73.91,0 -133.8,-59.89 -133.8,-133.78 0,-73.91 59.89,-133.8 133.8,-133.8 73.89,0 133.78,59.89 133.79,133.8 h -10"
         style="fill:#040606;fill-opacity:1;fill-rule:nonzero;stroke:none"
         id="path236" />
      <path
         d="m 3222.72,3142.68 c 0,-68.38 -55.42,-123.8 -123.79,-123.8 -68.38,0 -123.8,55.42 -123.8,123.8 0,68.36 55.42,123.78 123.8,123.78 68.37,0 123.79,-55.42 123.79,-123.78"
         style="fill:#f57cc4;fill-opacity:1;fill-rule:nonzero;stroke:none"
         id="path238" />
      <path
         d="m 3222.72,3142.68 h -10 c -0.01,-31.46 -12.72,-59.85 -33.33,-80.47 -20.62,-20.61 -49,-33.33 -80.46,-33.33 -31.46,0 -59.85,12.72 -80.47,33.33 -20.61,20.62 -33.32,49.01 -33.33,80.47 0.01,31.45 12.72,59.83 33.33,80.46 20.62,20.6 49.01,33.32 80.47,33.32 31.46,0 59.84,-12.72 80.46,-33.32 20.61,-20.63 33.32,-49.01 33.33,-80.46 h 10 10 c -0.01,73.89 -59.89,133.78 -133.79,133.78 -73.9,0 -133.79,-59.89 -133.8,-133.78 0.01,-73.91 59.9,-133.8 133.8,-133.8 73.9,0 133.78,59.89 133.79,133.8 h -10"
         style="fill:#040606;fill-opacity:1;fill-rule:nonzero;stroke:none"
         id="path240" />
    </g>
  </g>
</svg>
