<?xml version="1.0" encoding="UTF-8" standalone="no"?>
<!-- Created with Inkscape (http://www.inkscape.org/) -->

<svg
   version="1.1"
   id="svg2"
   width="303.13599"
   height="304.65042"
   viewBox="0 0 303.13599 304.65041"
   sodipodi:docname="198566580_5d7a959f-ca55-45e6-9376-f847c1a55f74.eps"
   xml:space="preserve"
   xmlns:inkscape="http://www.inkscape.org/namespaces/inkscape"
   xmlns:sodipodi="http://sodipodi.sourceforge.net/DTD/sodipodi-0.dtd"
   xmlns="http://www.w3.org/2000/svg"
   xmlns:svg="http://www.w3.org/2000/svg"><defs
     id="defs6" /><sodipodi:namedview
     id="namedview4"
     pagecolor="#ffffff"
     bordercolor="#000000"
     borderopacity="0.25"
     inkscape:showpageshadow="2"
     inkscape:pageopacity="0.0"
     inkscape:pagecheckerboard="0"
     inkscape:deskcolor="#d1d1d1"
     showgrid="false" /><g
     id="g10"
     inkscape:groupmode="layer"
     inkscape:label="Page 1"
     transform="matrix(1.3333333,0,0,-1.3333333,-1335.0769,1796.4139)"><path
       style="fill:#4b616e;fill-opacity:1;stroke-width:1.83458"
       d="m 1177.6866,1130.0078 c -19.3453,11.3666 -20.1992,11.6686 -36.2312,12.8066 -34.7375,2.4657 -60.9331,17.4987 -74.0039,42.4691 -2.6365,5.0371 -4.7938,10.6095 -4.7938,12.3835 0,4.8176 -3.2062,3.9692 -18.3036,-4.8442 -7.5442,-4.4042 -14.768,-7.6042 -16.0526,-7.1112 -2.1014,0.8064 -3.541,22.4513 -2.4312,36.5544 0.1877,2.3987 -3.0701,7.7522 -8.312,13.6541 -12.9963,14.6332 -16.3688,23.3568 -16.2475,42.0243 0.1234,18.6705 3.9986,28.1908 17.493,42.9561 43.8046,47.9289 137.568,26.9346 148.7719,-33.3104 2.0112,-10.8155 2.2319,-11.1226 9.5698,-13.3146 19.4042,-5.7965 38.0693,-21.1846 46.4874,-38.3256 4.2485,-8.6511 5.0495,-12.6299 5.0263,-24.9677 -0.034,-17.7577 -4.0205,-27.7641 -16.2907,-40.882 l -8.3223,-8.897 -0.5217,-20.9532 c -0.4213,-16.9166 -1.0522,-21.0425 -3.2737,-21.418 -1.5138,-0.256 -11.6675,4.7731 -22.5642,11.1758 z m 17.0604,19.7987 v 16.7939 l 7.2267,6.1854 c 8.4696,7.2499 16.105,21.8329 17.7463,33.8945 1.777,13.0582 -3.4604,27.3152 -14.452,39.342 -29.1146,31.8558 -86.6778,32.6622 -117.9091,1.6514 -12.712,-12.622 -16.3659,-20.8221 -16.3501,-36.6915 0.024,-14.5332 3.7467,-23.5408 14.8405,-35.8203 12.548,-13.889 45.7666,-25.8645 64.7009,-23.3247 5.6146,0.7531 9.2779,-0.6422 23.1404,-8.8122 9.0584,-5.3387 17.5018,-9.7756 18.7631,-9.8596 1.6788,-0.1112 2.2933,4.3476 2.2933,16.6411 z m -71.5486,20.0461 c -10.2113,4.6222 -17.4918,11.3751 -22.587,20.9492 -5.4837,10.3039 -5.4543,30.0879 0.061,40.5343 11.8898,22.5247 38.5205,31.0351 61.1704,19.5481 33.0841,-16.7786 33.0841,-63.0257 0,-79.8042 -12.4003,-6.2889 -26.4742,-6.7359 -38.6432,-1.2274 z m 35.4205,10.4062 c 3.0077,1.7626 7.9955,6.3312 11.0842,10.1525 4.6312,5.73 5.7446,8.9728 6.3508,18.4971 1.4324,22.4936 -12.5676,37.8481 -34.5095,37.8481 -26.9566,0 -44.38,-27.8376 -32.1118,-51.3048 9.1556,-17.5139 32.7753,-24.8096 49.1863,-15.1929 z m -39.3309,14.6709 c -3.8783,9.8547 -4.8466,14.674 -3.4145,16.9914 1.967,3.1826 7.4446,0.8345 8.6304,-3.7002 0.5265,-2.0127 1.5005,-3.6599 2.1651,-3.6599 0.6643,0 7.3788,6.219 14.9211,13.8198 13.2268,13.3293 19.5586,16.4449 21.491,10.5744 0.9353,-2.8415 -35.1906,-39.0706 -38.9596,-39.0706 -1.5667,0 -3.7421,2.2701 -4.8335,5.0451 z m -70.0806,11.3304 c 10.313,5.7619 11.3462,6.9077 12.4061,13.7593 2.8648,18.5177 19.4887,39.4934 39.228,49.496 12.6488,6.4095 29.5865,10.2033 45.702,10.2363 l 13.2547,0.026 -1.1385,5.9623 c -6.2916,32.9549 -47.7732,57.4535 -87.0008,51.3816 -25.3289,-3.9207 -48.5519,-19.5893 -57.2662,-38.6379 -6.0251,-13.1708 -5.457,-31.3711 1.3697,-43.8813 2.8755,-5.2696 8.4118,-12.5266 12.3023,-16.1264 l 7.0742,-6.5454 v -16.59 c 0,-9.1246 0.6341,-16.3149 1.4094,-15.9787 0.775,0.3364 6.4719,3.4399 12.6591,6.8969 z"
       id="path1829"
       sodipodi:nodetypes="sssssscsccssssscsssscsscscssscsssssssssssssscssssssccssccssssscsscc" /></g></svg>
