<?xml version="1.0" encoding="UTF-8" standalone="no"?>
<!-- Created with Inkscape (http://www.inkscape.org/) -->

<svg
   version="1.1"
   id="svg2"
   width="242.76294"
   height="243.38837"
   viewBox="0 0 242.76294 243.38836"
   sodipodi:docname="198566580_5d7a959f-ca55-45e6-9376-f847c1a55f74.eps"
   xml:space="preserve"
   xmlns:inkscape="http://www.inkscape.org/namespaces/inkscape"
   xmlns:sodipodi="http://sodipodi.sourceforge.net/DTD/sodipodi-0.dtd"
   xmlns="http://www.w3.org/2000/svg"
   xmlns:svg="http://www.w3.org/2000/svg"><defs
     id="defs6" /><sodipodi:namedview
     id="namedview4"
     pagecolor="#ffffff"
     bordercolor="#000000"
     borderopacity="0.25"
     inkscape:showpageshadow="2"
     inkscape:pageopacity="0.0"
     inkscape:pagecheckerboard="0"
     inkscape:deskcolor="#d1d1d1"
     showgrid="false" /><g
     id="g10"
     inkscape:groupmode="layer"
     inkscape:label="Page 1"
     transform="matrix(1.3333333,0,0,-1.3333333,-622.95287,1209.0516)"><path
       d="m 471.95256,728.48089 -4.7379,4.23332 v 52.31368 52.3142 l 3.62692,3.5322 c 1.99482,1.9428 11.29792,7.8949 20.67355,13.2269 l 17.04658,9.6946 v 19.9962 c 0,15.1569 0.48082,20.3953 1.98663,21.645 1.41493,1.1744 15.5061,1.5385 48.96362,1.2658 l 46.97702,-0.383 0.4042,-21.0364 0.4042,-21.0361 18.2703,-9.9698 c 10.0486,-5.4834 19.4962,-11.196 20.9947,-12.6943 2.5647,-2.5648 2.7245,-5.7927 2.7245,-55.0476 0,-33.11221 -0.5485,-53.34819 -1.4938,-55.11459 -3.8159,-7.13 -4.3652,-7.17353 -90.5355,-7.17353 h -80.56712 z m 161.37572,5.14258 c 0,0.36923 -3.7538,3.28081 -8.3419,6.47021 -4.5881,3.18931 -17.8083,12.67433 -29.3782,21.07781 -11.5699,8.404 -21.5793,15.285 -22.2428,15.2917 -0.6637,0 -3.9952,-2.2728 -7.40335,-5.0654 -3.40816,-2.7928 -6.78229,-5.0713 -7.49801,-5.0637 -0.71576,0.019 -4.19728,2.316 -7.73673,5.1296 -3.53946,2.8133 -7.20789,4.8188 -8.15208,4.4565 -0.94418,-0.3622 -14.93739,-10.1783 -31.09602,-21.81336 L 482.0998,732.95212 h 75.61426 c 41.58782,0 75.61422,0.30203 75.61422,0.67135 z m -104.45573,42.47942 c 3.59067,2.7281 6.52848,5.4878 6.52848,6.1329 0,1.0021 -41.38336,33.3077 -55.4921,43.3193 l -4.71501,3.3458 v -45.7527 -45.75248 l 23.57507,16.87352 c 12.96628,9.28046 26.51289,19.10556 30.10356,21.83366 z m 113.16043,9.8848 c 0,45.5861 -0.093,47.1664 -2.6699,45.3368 -1.4685,-1.0427 -15.4849,-12.3376 -31.1478,-25.1003 -22.1876,-18.0789 -28.087,-23.5848 -26.7084,-24.9266 3.1174,-3.034 58.3078,-42.5309 59.438,-42.53677 0.5984,0 1.0881,21.24907 1.0881,47.22687 z m -59.7869,8.6223 17.6845,14.5079 0.015,45.3366 0.015,45.3368 h -41.34749 -41.34707 v -46.3277 -46.3279 l 20.57481,-15.9532 c 19.97433,-15.4875 20.66448,-15.8821 23.64764,-13.5168 1.69008,1.3402 11.03081,8.9651 20.75731,16.9443 z m -57.12068,15.7487 c -0.41499,1.0815 -0.5577,6.1412 -0.31716,11.2436 l 0.43739,9.2772 9.194,0.4352 c 11.64499,0.5512 13.293,-0.7692 13.293,-10.6497 0,-11.964 -0.29685,-12.2725 -11.80695,-12.2725 -7.11465,0 -10.26588,0.5736 -10.80028,1.9662 z m 13.90258,8.6727 c 0,4.2983 -0.92279,5.1861 -4.43633,4.2673 -1.79533,-0.4695 -2.81754,-1.9915 -2.81754,-4.1946 0,-2.7211 0.77269,-3.4577 3.62692,-3.4577 2.83249,0 3.62695,0.7414 3.62695,3.385 z m 16.53246,-8.5912 c -1.60364,4.1789 1.03918,5.2062 13.3949,5.2062 11.97434,0 12.33294,-0.099 11.88334,-3.2642 -0.4323,-3.0439 -1.273,-3.2929 -12.45543,-3.6861 -9.57028,-0.3366 -12.15955,0.019 -12.82281,1.7441 z m 1.09678,13.7442 c -1.07592,0.6817 -1.72081,2.4671 -1.43312,3.9673 0.47284,2.4656 2.23163,2.767 18.30568,3.1354 14.9452,0.3425 17.9198,0.05 18.642,-1.832 1.9597,-5.1067 -2.0643,-6.5559 -18.1401,-6.5327 -8.48007,0.019 -16.29855,0.5801 -17.37446,1.262 z m -31.53182,16.6407 c -0.41499,1.0812 -0.5577,6.141 -0.31716,11.2433 l 0.43739,9.2774 9.194,0.4351 c 11.64499,0.5512 13.293,-0.769 13.293,-10.6495 0,-11.9641 -0.29685,-12.2727 -11.80695,-12.2727 -7.11465,0 -10.26588,0.5737 -10.80028,1.9664 z m 13.90258,8.9144 c 0,2.9016 -0.7254,3.627 -3.62695,3.627 -2.90154,0 -3.62692,-0.7254 -3.62692,-3.627 0,-2.9016 0.72538,-3.6269 3.62692,-3.6269 2.90155,0 3.62695,0.7253 3.62695,3.6269 z m 16.97959,-9.9675 c -0.56158,0.5616 -1.02108,2.2179 -1.02108,3.6808 0,2.3837 1.3659,2.6598 13.15786,2.6598 12.81543,0 13.14583,-0.086 12.69433,-3.2643 -0.4311,-3.0351 -1.2831,-3.2934 -12.13687,-3.6807 -6.42026,-0.2291 -12.13265,0.044 -12.69424,0.6044 z m 0.64965,14.8785 c -1.07592,0.682 -1.71985,2.4674 -1.43092,3.9676 0.48068,2.4959 2.06318,2.7277 18.62028,2.7277 16.557,0 18.1395,-0.2318 18.6202,-2.7277 0.8313,-4.3168 -2.3528,-5.2073 -18.6202,-5.2073 -8.37825,0 -16.11345,0.5579 -17.18936,1.2397 z m -31.53182,16.6407 c -0.41499,1.0815 -0.5577,6.141 -0.31716,11.2436 l 0.43739,9.2772 9.194,0.4351 c 11.64499,0.5514 13.293,-0.7689 13.293,-10.6495 0,-11.964 -0.29685,-12.2725 -11.80695,-12.2725 -7.11465,0 -10.26588,0.5737 -10.80028,1.9661 z m 13.90258,8.9147 c 0,2.9015 -0.7254,3.6268 -3.62695,3.6268 -2.90154,0 -3.62692,-0.7253 -3.62692,-3.6268 0,-2.9017 0.72538,-3.6271 3.62692,-3.6271 2.90155,0 3.62695,0.7254 3.62695,3.6271 z m 16.53246,-8.8332 c -1.60364,4.1791 1.03918,5.2061 13.3949,5.2061 11.97434,0 12.33294,-0.099 11.88334,-3.2643 -0.4323,-3.0438 -1.273,-3.2926 -12.45543,-3.6859 -9.57028,-0.3364 -12.15955,0.019 -12.82281,1.7441 z m 1.09678,13.7442 c -1.07592,0.6818 -1.72081,2.4672 -1.43312,3.9674 0.47284,2.4656 2.23163,2.7669 18.30568,3.1352 14.9452,0.3426 17.9198,0.05 18.642,-1.8318 1.9597,-5.1069 -2.0643,-6.556 -18.1401,-6.5328 -8.48007,0.019 -16.29855,0.5803 -17.37446,1.262 z m -46.73246,-51.3382 c -0.1,10.7707 -0.64993,19.8724 -1.22228,20.2262 -0.57235,0.3537 -7.83486,-3.3338 -16.13891,-8.1944 -14.58192,-8.535 -14.9892,-8.9096 -11.90844,-10.9551 1.75438,-1.1649 8.52836,-6.2899 15.05327,-11.389 6.52493,-5.099 12.43376,-9.2709 13.13074,-9.2709 0.697,0 1.18551,8.8123 1.08562,19.5832 z m 119.33122,-0.8852 c 3.7448,2.882 6.8458,5.6215 6.8912,6.088 0.075,0.7699 -26.863,15.8357 -28.3147,15.8357 -0.34,0 -0.6181,-8.8688 -0.6181,-19.7088 v -19.7088 l 7.6165,6.1271 c 4.1892,3.3698 10.6804,8.4851 14.4251,11.3668 z"
       style="fill:#4b616e;fill-opacity:1;stroke-width:1.08808"
       id="path1854" /></g></svg>
